<?xml version="1.0" encoding="utf-8" standalone="no"?>
<!DOCTYPE svg PUBLIC "-//W3C//DTD SVG 1.1//EN"
  "http://www.w3.org/Graphics/SVG/1.1/DTD/svg11.dtd">
<svg xmlns:xlink="http://www.w3.org/1999/xlink" width="695.456563pt" height="569.930938pt" viewBox="0 0 695.456563 569.930938" xmlns="http://www.w3.org/2000/svg" version="1.1">
 <metadata>
  <rdf:RDF xmlns:dc="http://purl.org/dc/elements/1.1/" xmlns:cc="http://creativecommons.org/ns#" xmlns:rdf="http://www.w3.org/1999/02/22-rdf-syntax-ns#">
   <cc:Work>
    <dc:type rdf:resource="http://purl.org/dc/dcmitype/StillImage"/>
    <dc:date>2026-06-10T12:42:39.092629</dc:date>
    <dc:format>image/svg+xml</dc:format>
    <dc:creator>
     <cc:Agent>
      <dc:title>Matplotlib v3.10.8, https://matplotlib.org/</dc:title>
     </cc:Agent>
    </dc:creator>
   </cc:Work>
  </rdf:RDF>
 </metadata>
 <defs>
  <style type="text/css">*{stroke-linejoin: round; stroke-linecap: butt}</style>
 </defs>
 <g id="figure_1">
  <g id="patch_1">
   <path d="M 0 569.930938 
L 695.456563 569.930938 
L 695.456563 0 
L 0 0 
z
" style="fill: #ffffff"/>
  </g>
  <g id="axes_1">
   <g id="patch_2">
    <path d="M 61.856563 279.125581 
L 688.256562 279.125581 
L 688.256562 64.8 
L 61.856563 64.8 
z
" style="fill: #ffffff"/>
   </g>
   <g id="matplotlib.axis_1">
    <g id="xtick_1">
     <g id="line2d_1">
      <path d="M 90.32929 279.125581 
L 90.32929 64.8 
" clip-path="url(#p8425851154)" style="fill: none; stroke: #b0b0b0; stroke-opacity: 0.15; stroke-width: 0.8; stroke-linecap: square"/>
     </g>
     <g id="line2d_2">
      <defs>
       <path id="m9de2667f7e" d="M 0 0 
L 0 3.5 
" style="stroke: #000000; stroke-width: 0.8"/>
      </defs>
      <g>
       <use xlink:href="#m9de2667f7e" x="90.32929" y="279.125581" style="stroke: #000000; stroke-width: 0.8"/>
      </g>
     </g>
    </g>
    <g id="xtick_2">
     <g id="line2d_3">
      <path d="M 204.220199 279.125581 
L 204.220199 64.8 
" clip-path="url(#p8425851154)" style="fill: none; stroke: #b0b0b0; stroke-opacity: 0.15; stroke-width: 0.8; stroke-linecap: square"/>
     </g>
     <g id="line2d_4">
      <g>
       <use xlink:href="#m9de2667f7e" x="204.220199" y="279.125581" style="stroke: #000000; stroke-width: 0.8"/>
      </g>
     </g>
    </g>
    <g id="xtick_3">
     <g id="line2d_5">
      <path d="M 318.111108 279.125581 
L 318.111108 64.8 
" clip-path="url(#p8425851154)" style="fill: none; stroke: #b0b0b0; stroke-opacity: 0.15; stroke-width: 0.8; stroke-linecap: square"/>
     </g>
     <g id="line2d_6">
      <g>
       <use xlink:href="#m9de2667f7e" x="318.111108" y="279.125581" style="stroke: #000000; stroke-width: 0.8"/>
      </g>
     </g>
    </g>
    <g id="xtick_4">
     <g id="line2d_7">
      <path d="M 432.002017 279.125581 
L 432.002017 64.8 
" clip-path="url(#p8425851154)" style="fill: none; stroke: #b0b0b0; stroke-opacity: 0.15; stroke-width: 0.8; stroke-linecap: square"/>
     </g>
     <g id="line2d_8">
      <g>
       <use xlink:href="#m9de2667f7e" x="432.002017" y="279.125581" style="stroke: #000000; stroke-width: 0.8"/>
      </g>
     </g>
    </g>
    <g id="xtick_5">
     <g id="line2d_9">
      <path d="M 545.892926 279.125581 
L 545.892926 64.8 
" clip-path="url(#p8425851154)" style="fill: none; stroke: #b0b0b0; stroke-opacity: 0.15; stroke-width: 0.8; stroke-linecap: square"/>
     </g>
     <g id="line2d_10">
      <g>
       <use xlink:href="#m9de2667f7e" x="545.892926" y="279.125581" style="stroke: #000000; stroke-width: 0.8"/>
      </g>
     </g>
    </g>
    <g id="xtick_6">
     <g id="line2d_11">
      <path d="M 659.783835 279.125581 
L 659.783835 64.8 
" clip-path="url(#p8425851154)" style="fill: none; stroke: #b0b0b0; stroke-opacity: 0.15; stroke-width: 0.8; stroke-linecap: square"/>
     </g>
     <g id="line2d_12">
      <g>
       <use xlink:href="#m9de2667f7e" x="659.783835" y="279.125581" style="stroke: #000000; stroke-width: 0.8"/>
      </g>
     </g>
    </g>
   </g>
   <g id="matplotlib.axis_2">
    <g id="ytick_1">
     <g id="line2d_13">
      <path d="M 61.856563 269.38351 
L 688.256562 269.38351 
" clip-path="url(#p8425851154)" style="fill: none; stroke: #b0b0b0; stroke-opacity: 0.15; stroke-width: 0.8; stroke-linecap: square"/>
     </g>
     <g id="line2d_14">
      <defs>
       <path id="md2bff363a7" d="M 0 0 
L -3.5 0 
" style="stroke: #000000; stroke-width: 0.8"/>
      </defs>
      <g>
       <use xlink:href="#md2bff363a7" x="61.856563" y="269.38351" style="stroke: #000000; stroke-width: 0.8"/>
      </g>
     </g>
     <g id="text_1">
      <!-- −1.0 -->
      <g transform="translate(25.717188 273.942572) scale(0.12 -0.12)">
       <defs>
        <path id="DejaVuSerif-2212" d="M 678 2259 
L 4684 2259 
L 4684 1753 
L 678 1753 
L 678 2259 
z
" transform="scale(0.015625)"/>
        <path id="DejaVuSerif-31" d="M 909 0 
L 909 331 
L 1722 331 
L 1722 4213 
L 781 3603 
L 781 4013 
L 1919 4750 
L 2350 4750 
L 2350 331 
L 3163 331 
L 3163 0 
L 909 0 
z
" transform="scale(0.015625)"/>
        <path id="DejaVuSerif-2e" d="M 603 325 
Q 603 500 722 622 
Q 841 744 1019 744 
Q 1191 744 1312 622 
Q 1434 500 1434 325 
Q 1434 153 1312 31 
Q 1191 -91 1019 -91 
Q 841 -91 722 29 
Q 603 150 603 325 
z
" transform="scale(0.015625)"/>
        <path id="DejaVuSerif-30" d="M 2034 219 
Q 2513 219 2750 744 
Q 2988 1269 2988 2328 
Q 2988 3391 2750 3916 
Q 2513 4441 2034 4441 
Q 1556 4441 1318 3916 
Q 1081 3391 1081 2328 
Q 1081 1269 1318 744 
Q 1556 219 2034 219 
z
M 2034 -91 
Q 1275 -91 848 546 
Q 422 1184 422 2328 
Q 422 3475 848 4112 
Q 1275 4750 2034 4750 
Q 2797 4750 3222 4112 
Q 3647 3475 3647 2328 
Q 3647 1184 3222 546 
Q 2797 -91 2034 -91 
z
" transform="scale(0.015625)"/>
       </defs>
       <use xlink:href="#DejaVuSerif-2212"/>
       <use xlink:href="#DejaVuSerif-31" transform="translate(83.789062 0)"/>
       <use xlink:href="#DejaVuSerif-2e" transform="translate(147.412109 0)"/>
       <use xlink:href="#DejaVuSerif-30" transform="translate(179.199219 0)"/>
      </g>
     </g>
    </g>
    <g id="ytick_2">
     <g id="line2d_15">
      <path d="M 61.856563 223.126082 
L 688.256562 223.126082 
" clip-path="url(#p8425851154)" style="fill: none; stroke: #b0b0b0; stroke-opacity: 0.15; stroke-width: 0.8; stroke-linecap: square"/>
     </g>
     <g id="line2d_16">
      <g>
       <use xlink:href="#md2bff363a7" x="61.856563" y="223.126082" style="stroke: #000000; stroke-width: 0.8"/>
      </g>
     </g>
     <g id="text_2">
      <!-- −0.5 -->
      <g transform="translate(25.717188 227.685145) scale(0.12 -0.12)">
       <defs>
        <path id="DejaVuSerif-35" d="M 3219 4666 
L 3219 4153 
L 1081 4153 
L 1081 2816 
Q 1244 2928 1461 2984 
Q 1678 3041 1947 3041 
Q 2703 3041 3140 2622 
Q 3578 2203 3578 1478 
Q 3578 738 3136 323 
Q 2694 -91 1894 -91 
Q 1572 -91 1234 -12 
Q 897 66 544 225 
L 544 1131 
L 897 1131 
Q 925 688 1179 453 
Q 1434 219 1894 219 
Q 2388 219 2653 544 
Q 2919 869 2919 1478 
Q 2919 2084 2655 2407 
Q 2391 2731 1894 2731 
Q 1613 2731 1398 2631 
Q 1184 2531 1019 2322 
L 750 2322 
L 750 4666 
L 3219 4666 
z
" transform="scale(0.015625)"/>
       </defs>
       <use xlink:href="#DejaVuSerif-2212"/>
       <use xlink:href="#DejaVuSerif-30" transform="translate(83.789062 0)"/>
       <use xlink:href="#DejaVuSerif-2e" transform="translate(147.412109 0)"/>
       <use xlink:href="#DejaVuSerif-35" transform="translate(179.199219 0)"/>
      </g>
     </g>
    </g>
    <g id="ytick_3">
     <g id="line2d_17">
      <path d="M 61.856563 176.868655 
L 688.256562 176.868655 
" clip-path="url(#p8425851154)" style="fill: none; stroke: #b0b0b0; stroke-opacity: 0.15; stroke-width: 0.8; stroke-linecap: square"/>
     </g>
     <g id="line2d_18">
      <g>
       <use xlink:href="#md2bff363a7" x="61.856563" y="176.868655" style="stroke: #000000; stroke-width: 0.8"/>
      </g>
     </g>
     <g id="text_3">
      <!-- 0.0 -->
      <g transform="translate(35.772813 181.427718) scale(0.12 -0.12)">
       <use xlink:href="#DejaVuSerif-30"/>
       <use xlink:href="#DejaVuSerif-2e" transform="translate(63.623047 0)"/>
       <use xlink:href="#DejaVuSerif-30" transform="translate(95.410156 0)"/>
      </g>
     </g>
    </g>
    <g id="ytick_4">
     <g id="line2d_19">
      <path d="M 61.856563 130.611228 
L 688.256562 130.611228 
" clip-path="url(#p8425851154)" style="fill: none; stroke: #b0b0b0; stroke-opacity: 0.15; stroke-width: 0.8; stroke-linecap: square"/>
     </g>
     <g id="line2d_20">
      <g>
       <use xlink:href="#md2bff363a7" x="61.856563" y="130.611228" style="stroke: #000000; stroke-width: 0.8"/>
      </g>
     </g>
     <g id="text_4">
      <!-- 0.5 -->
      <g transform="translate(35.772813 135.170291) scale(0.12 -0.12)">
       <use xlink:href="#DejaVuSerif-30"/>
       <use xlink:href="#DejaVuSerif-2e" transform="translate(63.623047 0)"/>
       <use xlink:href="#DejaVuSerif-35" transform="translate(95.410156 0)"/>
      </g>
     </g>
    </g>
    <g id="ytick_5">
     <g id="line2d_21">
      <path d="M 61.856563 84.353801 
L 688.256562 84.353801 
" clip-path="url(#p8425851154)" style="fill: none; stroke: #b0b0b0; stroke-opacity: 0.15; stroke-width: 0.8; stroke-linecap: square"/>
     </g>
     <g id="line2d_22">
      <g>
       <use xlink:href="#md2bff363a7" x="61.856563" y="84.353801" style="stroke: #000000; stroke-width: 0.8"/>
      </g>
     </g>
     <g id="text_5">
      <!-- 1.0 -->
      <g transform="translate(35.772813 88.912864) scale(0.12 -0.12)">
       <use xlink:href="#DejaVuSerif-31"/>
       <use xlink:href="#DejaVuSerif-2e" transform="translate(63.623047 0)"/>
       <use xlink:href="#DejaVuSerif-30" transform="translate(95.410156 0)"/>
      </g>
     </g>
    </g>
    <g id="text_6">
     <!-- Component 1 -->
     <g transform="translate(18.597656 222.914744) rotate(-90) scale(0.15 -0.15)">
      <defs>
       <path id="DejaVuSerif-43" d="M 4513 1234 
Q 4306 581 3820 245 
Q 3334 -91 2591 -91 
Q 2134 -91 1743 65 
Q 1353 222 1050 525 
Q 700 875 529 1320 
Q 359 1766 359 2328 
Q 359 3416 987 4083 
Q 1616 4750 2644 4750 
Q 3025 4750 3456 4650 
Q 3888 4550 4384 4347 
L 4384 3272 
L 4031 3272 
Q 3916 3859 3567 4137 
Q 3219 4416 2591 4416 
Q 1844 4416 1459 3886 
Q 1075 3356 1075 2328 
Q 1075 1303 1459 773 
Q 1844 244 2591 244 
Q 3113 244 3450 492 
Q 3788 741 3938 1234 
L 4513 1234 
z
" transform="scale(0.015625)"/>
       <path id="DejaVuSerif-6f" d="M 1925 219 
Q 2388 219 2623 584 
Q 2859 950 2859 1663 
Q 2859 2375 2623 2739 
Q 2388 3103 1925 3103 
Q 1463 3103 1227 2739 
Q 991 2375 991 1663 
Q 991 950 1228 584 
Q 1466 219 1925 219 
z
M 1925 -91 
Q 1200 -91 759 389 
Q 319 869 319 1663 
Q 319 2456 758 2934 
Q 1197 3413 1925 3413 
Q 2653 3413 3092 2934 
Q 3531 2456 3531 1663 
Q 3531 869 3092 389 
Q 2653 -91 1925 -91 
z
" transform="scale(0.015625)"/>
       <path id="DejaVuSerif-6d" d="M 3316 2675 
Q 3481 3041 3739 3227 
Q 3997 3413 4341 3413 
Q 4863 3413 5119 3089 
Q 5375 2766 5375 2113 
L 5375 331 
L 5894 331 
L 5894 0 
L 4300 0 
L 4300 331 
L 4800 331 
L 4800 2047 
Q 4800 2556 4650 2772 
Q 4500 2988 4153 2988 
Q 3769 2988 3567 2697 
Q 3366 2406 3366 1850 
L 3366 331 
L 3866 331 
L 3866 0 
L 2291 0 
L 2291 331 
L 2791 331 
L 2791 2069 
Q 2791 2566 2641 2777 
Q 2491 2988 2144 2988 
Q 1759 2988 1557 2697 
Q 1356 2406 1356 1850 
L 1356 331 
L 1856 331 
L 1856 0 
L 263 0 
L 263 331 
L 781 331 
L 781 2994 
L 231 2994 
L 231 3322 
L 1356 3322 
L 1356 2731 
Q 1516 3063 1762 3238 
Q 2009 3413 2322 3413 
Q 2709 3413 2968 3220 
Q 3228 3028 3316 2675 
z
" transform="scale(0.015625)"/>
       <path id="DejaVuSerif-70" d="M 1313 1825 
L 1313 1497 
Q 1313 897 1542 583 
Q 1772 269 2209 269 
Q 2650 269 2876 622 
Q 3103 975 3103 1663 
Q 3103 2353 2876 2703 
Q 2650 3053 2209 3053 
Q 1772 3053 1542 2737 
Q 1313 2422 1313 1825 
z
M 738 2988 
L 184 2988 
L 184 3322 
L 1313 3322 
L 1313 2803 
Q 1481 3116 1742 3264 
Q 2003 3413 2388 3413 
Q 3000 3413 3387 2928 
Q 3775 2444 3775 1663 
Q 3775 881 3387 395 
Q 3000 -91 2388 -91 
Q 2003 -91 1742 57 
Q 1481 206 1313 519 
L 1313 -997 
L 1856 -997 
L 1856 -1331 
L 184 -1331 
L 184 -997 
L 738 -997 
L 738 2988 
z
" transform="scale(0.015625)"/>
       <path id="DejaVuSerif-6e" d="M 263 0 
L 263 331 
L 781 331 
L 781 2988 
L 231 2988 
L 231 3322 
L 1356 3322 
L 1356 2731 
Q 1516 3069 1770 3241 
Q 2025 3413 2363 3413 
Q 2913 3413 3172 3097 
Q 3431 2781 3431 2113 
L 3431 331 
L 3944 331 
L 3944 0 
L 2356 0 
L 2356 331 
L 2853 331 
L 2853 1931 
Q 2853 2541 2703 2767 
Q 2553 2994 2175 2994 
Q 1775 2994 1565 2701 
Q 1356 2409 1356 1850 
L 1356 331 
L 1856 331 
L 1856 0 
L 263 0 
z
" transform="scale(0.015625)"/>
       <path id="DejaVuSerif-65" d="M 3469 1600 
L 991 1600 
L 991 1575 
Q 991 903 1244 561 
Q 1497 219 1991 219 
Q 2369 219 2611 417 
Q 2853 616 2950 1006 
L 3413 1006 
Q 3275 459 2904 184 
Q 2534 -91 1931 -91 
Q 1203 -91 761 389 
Q 319 869 319 1663 
Q 319 2450 753 2931 
Q 1188 3413 1894 3413 
Q 2647 3413 3050 2948 
Q 3453 2484 3469 1600 
z
M 2791 1931 
Q 2772 2513 2545 2808 
Q 2319 3103 1894 3103 
Q 1497 3103 1269 2806 
Q 1041 2509 991 1931 
L 2791 1931 
z
" transform="scale(0.015625)"/>
       <path id="DejaVuSerif-74" d="M 691 2988 
L 184 2988 
L 184 3322 
L 691 3322 
L 691 4353 
L 1269 4353 
L 1269 3322 
L 2350 3322 
L 2350 2988 
L 1269 2988 
L 1269 878 
Q 1269 456 1350 337 
Q 1431 219 1650 219 
Q 1875 219 1978 351 
Q 2081 484 2088 781 
L 2522 781 
Q 2497 328 2275 118 
Q 2053 -91 1600 -91 
Q 1103 -91 897 129 
Q 691 350 691 878 
L 691 2988 
z
" transform="scale(0.015625)"/>
       <path id="DejaVuSerif-20" transform="scale(0.015625)"/>
      </defs>
      <use xlink:href="#DejaVuSerif-43"/>
      <use xlink:href="#DejaVuSerif-6f" transform="translate(76.513672 0)"/>
      <use xlink:href="#DejaVuSerif-6d" transform="translate(136.71875 0)"/>
      <use xlink:href="#DejaVuSerif-70" transform="translate(231.542969 0)"/>
      <use xlink:href="#DejaVuSerif-6f" transform="translate(295.556641 0)"/>
      <use xlink:href="#DejaVuSerif-6e" transform="translate(355.761719 0)"/>
      <use xlink:href="#DejaVuSerif-65" transform="translate(420.166016 0)"/>
      <use xlink:href="#DejaVuSerif-6e" transform="translate(479.345703 0)"/>
      <use xlink:href="#DejaVuSerif-74" transform="translate(543.75 0)"/>
      <use xlink:href="#DejaVuSerif-20" transform="translate(583.935547 0)"/>
      <use xlink:href="#DejaVuSerif-31" transform="translate(615.722656 0)"/>
     </g>
    </g>
   </g>
   <g id="line2d_23">
    <path d="M 90.32929 269.38351 
L 92.039363 269.219964 
L 93.749437 268.742388 
L 95.459511 267.969926 
L 97.169585 266.921123 
L 98.879658 265.613922 
L 100.589732 264.065666 
L 102.86983 261.655241 
L 105.149929 258.884127 
L 107.430027 255.788625 
L 110.28015 251.515459 
L 113.130273 246.852723 
L 116.55042 240.826459 
L 120.540592 233.320526 
L 125.670813 223.125721 
L 133.081133 207.791793 
L 146.191698 180.595208 
L 152.461968 168.161797 
L 157.592189 158.456539 
L 162.152386 150.248334 
L 166.712582 142.474828 
L 171.272779 135.163626 
L 175.262951 129.160101 
L 179.253123 123.531395 
L 183.243295 118.280024 
L 187.233467 113.404788 
L 191.223639 108.901047 
L 195.213811 104.761508 
L 199.203983 100.976464 
L 203.194155 97.534139 
L 207.184327 94.421301 
L 211.174499 91.623354 
L 215.164671 89.124683 
L 219.154843 86.909097 
L 223.145015 84.959845 
L 227.135187 83.259899 
L 231.125359 81.792282 
L 235.115531 80.54004 
L 239.675727 79.351173 
L 244.235924 78.397495 
L 248.79612 77.655477 
L 253.926341 77.045643 
L 259.626587 76.611899 
L 265.326833 76.397204 
L 271.597103 76.371368 
L 279.007422 76.567868 
L 287.557791 77.022756 
L 298.388258 77.829014 
L 317.769093 79.54305 
L 338.860002 81.337988 
L 354.250666 82.423094 
L 369.071305 83.243276 
L 384.461968 83.865767 
L 400.99268 84.306489 
L 419.803491 84.582046 
L 443.744523 84.697191 
L 480.79612 84.623013 
L 582.830518 84.353359 
L 659.783835 84.342154 
L 659.783835 84.342154 
" clip-path="url(#p8425851154)" style="fill: none; stroke-dasharray: 7.4,3.2; stroke-dashoffset: 0; stroke: #999999; stroke-width: 2"/>
   </g>
   <g id="line2d_24">
    <path d="M 90.32929 176.868655 
L 91.469339 175.178042 
L 92.609388 173.7856 
L 93.749437 172.649725 
L 95.459511 171.334938 
L 97.169585 170.373827 
L 98.879658 169.662208 
L 101.159757 168.968139 
L 104.579904 168.228109 
L 120.540592 165.225687 
L 125.100789 164.010799 
L 129.090961 162.734331 
L 133.081133 161.224843 
L 137.071305 159.448461 
L 140.491452 157.687275 
L 143.911599 155.683869 
L 147.331747 153.419993 
L 150.751894 150.882013 
L 154.172042 148.063354 
L 157.592189 144.967003 
L 161.582361 141.023584 
L 165.572533 136.76736 
L 170.702754 130.947095 
L 188.94354 109.865069 
L 193.503737 105.124081 
L 197.493909 101.273848 
L 201.484081 97.722364 
L 205.474253 94.476496 
L 209.464425 91.534236 
L 213.454597 88.887525 
L 217.444769 86.524591 
L 221.434941 84.431137 
L 225.425113 82.591677 
L 229.415285 80.989932 
L 233.405457 79.609263 
L 237.965653 78.281063 
L 242.52585 77.19604 
L 247.086047 76.330583 
L 252.216268 75.591509 
L 257.346489 75.071302 
L 263.046734 74.715099 
L 269.317005 74.551063 
L 276.1573 74.594058 
L 284.137644 74.870955 
L 293.828061 75.440175 
L 307.508651 76.49491 
L 346.270322 79.608329 
L 361.660985 80.557091 
L 377.051648 81.281327 
L 393.012336 81.809674 
L 410.683098 82.172193 
L 431.774007 82.376983 
L 460.275236 82.414744 
L 529.818233 82.194085 
L 606.77155 82.08885 
L 659.783835 82.088489 
L 659.783835 82.088489 
" clip-path="url(#p8425851154)" style="fill: none; stroke: #0072bd; stroke-width: 2.2; stroke-linecap: square"/>
   </g>
   <g id="line2d_25">
    <path d="M 90.32929 84.353801 
L 91.469339 82.736364 
L 92.609388 81.559548 
L 93.749437 80.775989 
L 94.889486 80.33763 
L 96.029535 80.199479 
L 97.169585 80.321357 
L 98.309634 80.668423 
L 99.449683 81.211017 
L 101.159757 82.337872 
L 102.86983 83.781082 
L 104.579904 85.488064 
L 106.860002 88.104263 
L 109.140101 91.041062 
L 111.990223 95.074033 
L 115.410371 100.324588 
L 119.970567 107.810877 
L 127.380887 120.544672 
L 134.791206 133.156184 
L 139.351403 140.49579 
L 143.341575 146.49326 
L 146.761722 151.241814 
L 150.18187 155.575457 
L 153.031992 158.842001 
L 155.882115 161.778805 
L 158.732238 164.378281 
L 161.582361 166.640965 
L 164.432484 168.575108 
L 167.282607 170.19712 
L 170.13273 171.529908 
L 172.982852 172.601945 
L 175.832975 173.445436 
L 179.253123 174.203123 
L 182.67327 174.737138 
L 186.663442 175.147039 
L 191.793663 175.442458 
L 198.633958 175.600924 
L 210.034449 175.615402 
L 240.245752 175.358648 
L 317.199069 174.691178 
L 363.941083 174.562543 
L 458.565162 174.596725 
L 659.783835 174.614962 
L 659.783835 174.614962 
" clip-path="url(#p8425851154)" style="fill: none; stroke: #d95319; stroke-width: 2.2; stroke-linecap: square"/>
   </g>
   <g id="line2d_26">
    <path d="M 90.32929 269.38351 
L 92.039363 269.219965 
L 93.749437 268.742392 
L 95.459511 267.969931 
L 97.169585 266.921126 
L 98.879658 265.613919 
L 100.589732 264.065661 
L 102.86983 261.655236 
L 105.149929 258.884124 
L 107.430027 255.788618 
L 110.28015 251.515449 
L 113.130273 246.852715 
L 116.55042 240.826452 
L 120.540592 233.320512 
L 125.670813 223.125714 
L 133.081133 207.791788 
L 146.191698 180.595189 
L 152.461968 168.161799 
L 157.592189 158.456521 
L 162.152386 150.24834 
L 166.712582 142.47481 
L 171.272779 135.163634 
L 175.262951 129.160093 
L 179.253123 123.531389 
L 183.243295 118.280039 
L 187.233467 113.404776 
L 191.223639 108.901055 
L 195.213811 104.761523 
L 199.203983 100.976457 
L 203.194155 97.534157 
L 207.184327 94.421316 
L 211.174499 91.623352 
L 215.164671 89.124708 
L 219.154843 86.909114 
L 223.145015 84.959851 
L 227.135187 83.259924 
L 231.125359 81.792306 
L 235.115531 80.540046 
L 239.675727 79.351201 
L 244.235924 78.397518 
L 248.79612 77.655488 
L 253.926341 77.045674 
L 259.626587 76.611916 
L 265.326833 76.397226 
L 271.597103 76.371393 
L 279.007422 76.567888 
L 287.557791 77.022779 
L 298.388258 77.829035 
L 317.769093 79.543067 
L 338.860002 81.338005 
L 354.250666 82.423103 
L 369.071305 83.243259 
L 384.461968 83.865749 
L 400.99268 84.306488 
L 419.803491 84.582048 
L 443.744523 84.697184 
L 480.79612 84.622991 
L 582.830518 84.353375 
L 659.783835 84.342183 
L 659.783835 84.342183 
" clip-path="url(#p8425851154)" style="fill: none; stroke-dasharray: 2,3.3; stroke-dashoffset: 0; stroke: #77ac30; stroke-width: 2"/>
   </g>
   <g id="line2d_27">
    <path d="M 61.856563 176.868655 
L 688.256562 176.868655 
" clip-path="url(#p8425851154)" style="fill: none; stroke: #cccccc; stroke-width: 0.5; stroke-linecap: square"/>
   </g>
   <g id="patch_3">
    <path d="M 61.856563 279.125581 
L 61.856563 64.8 
" style="fill: none; stroke: #000000; stroke-width: 0.8; stroke-linejoin: miter; stroke-linecap: square"/>
   </g>
   <g id="patch_4">
    <path d="M 61.856563 279.125581 
L 688.256562 279.125581 
" style="fill: none; stroke: #000000; stroke-width: 0.8; stroke-linejoin: miter; stroke-linecap: square"/>
   </g>
   <g id="text_7">
    <!-- $x_1$: original, dual-rail positive/negative parts -->
    <g transform="translate(240.896562 58.8) scale(0.12 -0.12)">
     <defs>
      <path id="Cmmi10-78" d="M 500 184 
Q 613 97 819 97 
Q 1019 97 1172 289 
Q 1325 481 1381 709 
L 1672 1844 
Q 1741 2153 1741 2266 
Q 1741 2425 1652 2544 
Q 1563 2663 1403 2663 
Q 1200 2663 1022 2536 
Q 844 2409 722 2214 
Q 600 2019 550 1819 
Q 538 1778 500 1778 
L 422 1778 
Q 372 1778 372 1838 
L 372 1856 
Q 434 2094 584 2320 
Q 734 2547 951 2687 
Q 1169 2828 1416 2828 
Q 1650 2828 1839 2703 
Q 2028 2578 2106 2363 
Q 2216 2559 2386 2693 
Q 2556 2828 2759 2828 
Q 2897 2828 3040 2779 
Q 3184 2731 3275 2631 
Q 3366 2531 3366 2381 
Q 3366 2219 3261 2101 
Q 3156 1984 2994 1984 
Q 2891 1984 2822 2050 
Q 2753 2116 2753 2216 
Q 2753 2350 2845 2451 
Q 2938 2553 3066 2572 
Q 2950 2663 2747 2663 
Q 2541 2663 2389 2472 
Q 2238 2281 2175 2047 
L 1894 916 
Q 1825 659 1825 494 
Q 1825 331 1917 214 
Q 2009 97 2163 97 
Q 2463 97 2698 361 
Q 2934 625 3009 941 
Q 3022 978 3059 978 
L 3138 978 
Q 3163 978 3178 961 
Q 3194 944 3194 922 
Q 3194 916 3188 903 
Q 3097 522 2806 225 
Q 2516 -72 2150 -72 
Q 1916 -72 1727 54 
Q 1538 181 1459 397 
Q 1359 209 1182 68 
Q 1006 -72 806 -72 
Q 669 -72 523 -23 
Q 378 25 287 125 
Q 197 225 197 378 
Q 197 528 301 651 
Q 406 775 563 775 
Q 669 775 741 711 
Q 813 647 813 544 
Q 813 409 723 309 
Q 634 209 500 184 
z
" transform="scale(0.015625)"/>
      <path id="Cmr10-31" d="M 594 0 
L 594 225 
Q 1394 225 1394 428 
L 1394 3788 
Q 1063 3628 556 3628 
L 556 3853 
Q 1341 3853 1741 4263 
L 1831 4263 
Q 1853 4263 1873 4245 
Q 1894 4228 1894 4206 
L 1894 428 
Q 1894 225 2694 225 
L 2694 0 
L 594 0 
z
" transform="scale(0.015625)"/>
      <path id="DejaVuSerif-3a" d="M 666 325 
Q 666 500 786 622 
Q 906 744 1081 744 
Q 1256 744 1376 622 
Q 1497 500 1497 325 
Q 1497 150 1378 29 
Q 1259 -91 1081 -91 
Q 903 -91 784 29 
Q 666 150 666 325 
z
M 666 2363 
Q 666 2538 786 2658 
Q 906 2778 1081 2778 
Q 1259 2778 1378 2659 
Q 1497 2541 1497 2363 
Q 1497 2184 1378 2065 
Q 1259 1947 1081 1947 
Q 906 1947 786 2067 
Q 666 2188 666 2363 
z
" transform="scale(0.015625)"/>
      <path id="DejaVuSerif-72" d="M 3059 3328 
L 3059 2497 
L 2728 2497 
Q 2713 2744 2591 2866 
Q 2469 2988 2234 2988 
Q 1809 2988 1582 2694 
Q 1356 2400 1356 1850 
L 1356 331 
L 2022 331 
L 2022 0 
L 263 0 
L 263 331 
L 781 331 
L 781 2994 
L 231 2994 
L 231 3322 
L 1356 3322 
L 1356 2731 
Q 1525 3078 1790 3245 
Q 2056 3413 2438 3413 
Q 2578 3413 2733 3391 
Q 2888 3369 3059 3328 
z
" transform="scale(0.015625)"/>
      <path id="DejaVuSerif-69" d="M 622 4353 
Q 622 4497 726 4603 
Q 831 4709 978 4709 
Q 1122 4709 1226 4603 
Q 1331 4497 1331 4353 
Q 1331 4206 1228 4103 
Q 1125 4000 978 4000 
Q 831 4000 726 4103 
Q 622 4206 622 4353 
z
M 1356 331 
L 1900 331 
L 1900 0 
L 231 0 
L 231 331 
L 781 331 
L 781 2988 
L 231 2988 
L 231 3322 
L 1356 3322 
L 1356 331 
z
" transform="scale(0.015625)"/>
      <path id="DejaVuSerif-67" d="M 3359 2988 
L 3359 72 
Q 3359 -644 2965 -1033 
Q 2572 -1422 1844 -1422 
Q 1516 -1422 1216 -1362 
Q 916 -1303 641 -1184 
L 641 -488 
L 941 -488 
Q 997 -813 1206 -963 
Q 1416 -1113 1806 -1113 
Q 2313 -1113 2548 -827 
Q 2784 -541 2784 72 
L 2784 519 
Q 2616 206 2355 57 
Q 2094 -91 1709 -91 
Q 1097 -91 708 395 
Q 319 881 319 1663 
Q 319 2444 706 2928 
Q 1094 3413 1709 3413 
Q 2094 3413 2355 3264 
Q 2616 3116 2784 2803 
L 2784 3322 
L 3909 3322 
L 3909 2988 
L 3359 2988 
z
M 2784 1825 
Q 2784 2422 2554 2737 
Q 2325 3053 1888 3053 
Q 1444 3053 1217 2703 
Q 991 2353 991 1663 
Q 991 975 1217 622 
Q 1444 269 1888 269 
Q 2325 269 2554 583 
Q 2784 897 2784 1497 
L 2784 1825 
z
" transform="scale(0.015625)"/>
      <path id="DejaVuSerif-61" d="M 2547 1044 
L 2547 1747 
L 1806 1747 
Q 1378 1747 1168 1562 
Q 959 1378 959 997 
Q 959 650 1171 447 
Q 1384 244 1747 244 
Q 2106 244 2326 466 
Q 2547 688 2547 1044 
z
M 3122 2075 
L 3122 331 
L 3634 331 
L 3634 0 
L 2547 0 
L 2547 359 
Q 2356 128 2106 18 
Q 1856 -91 1522 -91 
Q 969 -91 644 203 
Q 319 497 319 997 
Q 319 1513 691 1797 
Q 1063 2081 1741 2081 
L 2547 2081 
L 2547 2309 
Q 2547 2688 2317 2895 
Q 2088 3103 1672 3103 
Q 1328 3103 1125 2947 
Q 922 2791 872 2484 
L 575 2484 
L 575 3156 
Q 875 3284 1158 3348 
Q 1441 3413 1709 3413 
Q 2400 3413 2761 3070 
Q 3122 2728 3122 2075 
z
" transform="scale(0.015625)"/>
      <path id="DejaVuSerif-6c" d="M 1313 331 
L 1856 331 
L 1856 0 
L 184 0 
L 184 331 
L 738 331 
L 738 4531 
L 184 4531 
L 184 4863 
L 1313 4863 
L 1313 331 
z
" transform="scale(0.015625)"/>
      <path id="DejaVuSerif-2c" d="M 231 -622 
Q 525 -406 662 -114 
Q 800 178 800 594 
L 800 709 
L 1416 709 
Q 1391 175 1164 -208 
Q 938 -591 481 -872 
L 231 -622 
z
" transform="scale(0.015625)"/>
      <path id="DejaVuSerif-64" d="M 3359 331 
L 3909 331 
L 3909 0 
L 2784 0 
L 2784 519 
Q 2616 206 2355 57 
Q 2094 -91 1709 -91 
Q 1097 -91 708 395 
Q 319 881 319 1663 
Q 319 2444 706 2928 
Q 1094 3413 1709 3413 
Q 2094 3413 2355 3264 
Q 2616 3116 2784 2803 
L 2784 4531 
L 2241 4531 
L 2241 4863 
L 3359 4863 
L 3359 331 
z
M 2784 1497 
L 2784 1825 
Q 2784 2422 2554 2737 
Q 2325 3053 1888 3053 
Q 1444 3053 1217 2703 
Q 991 2353 991 1663 
Q 991 975 1217 622 
Q 1444 269 1888 269 
Q 2325 269 2554 583 
Q 2784 897 2784 1497 
z
" transform="scale(0.015625)"/>
      <path id="DejaVuSerif-75" d="M 2266 3322 
L 3341 3322 
L 3341 331 
L 3884 331 
L 3884 0 
L 2766 0 
L 2766 588 
Q 2606 256 2353 82 
Q 2100 -91 1766 -91 
Q 1213 -91 952 223 
Q 691 538 691 1209 
L 691 2988 
L 172 2988 
L 172 3322 
L 1269 3322 
L 1269 1388 
Q 1269 781 1417 556 
Q 1566 331 1947 331 
Q 2347 331 2556 625 
Q 2766 919 2766 1478 
L 2766 2988 
L 2266 2988 
L 2266 3322 
z
" transform="scale(0.015625)"/>
      <path id="DejaVuSerif-2d" d="M 281 1959 
L 1881 1959 
L 1881 1472 
L 281 1472 
L 281 1959 
z
" transform="scale(0.015625)"/>
      <path id="DejaVuSerif-73" d="M 359 184 
L 359 959 
L 691 959 
Q 703 588 923 403 
Q 1144 219 1575 219 
Q 1963 219 2166 364 
Q 2369 509 2369 788 
Q 2369 1006 2220 1140 
Q 2072 1275 1594 1428 
L 1178 1569 
Q 750 1706 558 1912 
Q 366 2119 366 2438 
Q 366 2894 700 3153 
Q 1034 3413 1625 3413 
Q 1888 3413 2178 3344 
Q 2469 3275 2778 3144 
L 2778 2419 
L 2447 2419 
Q 2434 2741 2221 2922 
Q 2009 3103 1644 3103 
Q 1281 3103 1095 2975 
Q 909 2847 909 2591 
Q 909 2381 1050 2254 
Q 1191 2128 1613 1997 
L 2069 1856 
Q 2541 1709 2748 1489 
Q 2956 1269 2956 922 
Q 2956 450 2595 179 
Q 2234 -91 1600 -91 
Q 1278 -91 972 -22 
Q 666 47 359 184 
z
" transform="scale(0.015625)"/>
      <path id="DejaVuSerif-76" d="M 1581 0 
L 359 2988 
L -19 2988 
L -19 3322 
L 1509 3322 
L 1509 2988 
L 978 2988 
L 1913 703 
L 2847 2988 
L 2350 2988 
L 2350 3322 
L 3597 3322 
L 3597 2988 
L 3225 2988 
L 2003 0 
L 1581 0 
z
" transform="scale(0.015625)"/>
      <path id="DejaVuSerif-2f" d="M 1656 4666 
L 2156 4666 
L 500 -594 
L 0 -594 
L 1656 4666 
z
" transform="scale(0.015625)"/>
     </defs>
     <use xlink:href="#Cmmi10-78" transform="translate(0 0.015625)"/>
     <use xlink:href="#Cmr10-31" transform="translate(57.080078 -16.990625) scale(0.7)"/>
     <use xlink:href="#DejaVuSerif-3a" transform="translate(98.457422 0.015625)"/>
     <use xlink:href="#DejaVuSerif-20" transform="translate(132.148828 0.015625)"/>
     <use xlink:href="#DejaVuSerif-6f" transform="translate(163.935937 0.015625)"/>
     <use xlink:href="#DejaVuSerif-72" transform="translate(224.141016 0.015625)"/>
     <use xlink:href="#DejaVuSerif-69" transform="translate(271.94375 0.015625)"/>
     <use xlink:href="#DejaVuSerif-67" transform="translate(303.926172 0.015625)"/>
     <use xlink:href="#DejaVuSerif-69" transform="translate(367.939844 0.015625)"/>
     <use xlink:href="#DejaVuSerif-6e" transform="translate(399.922266 0.015625)"/>
     <use xlink:href="#DejaVuSerif-61" transform="translate(464.326563 0.015625)"/>
     <use xlink:href="#DejaVuSerif-6c" transform="translate(523.945703 0.015625)"/>
     <use xlink:href="#DejaVuSerif-2c" transform="translate(555.928125 0.015625)"/>
     <use xlink:href="#DejaVuSerif-20" transform="translate(587.715234 0.015625)"/>
     <use xlink:href="#DejaVuSerif-64" transform="translate(619.502344 0.015625)"/>
     <use xlink:href="#DejaVuSerif-75" transform="translate(683.516016 0.015625)"/>
     <use xlink:href="#DejaVuSerif-61" transform="translate(747.920313 0.015625)"/>
     <use xlink:href="#DejaVuSerif-6c" transform="translate(807.539453 0.015625)"/>
     <use xlink:href="#DejaVuSerif-2d" transform="translate(839.521875 0.015625)"/>
     <use xlink:href="#DejaVuSerif-72" transform="translate(873.310938 0.015625)"/>
     <use xlink:href="#DejaVuSerif-61" transform="translate(921.113672 0.015625)"/>
     <use xlink:href="#DejaVuSerif-69" transform="translate(980.732813 0.015625)"/>
     <use xlink:href="#DejaVuSerif-6c" transform="translate(1012.715234 0.015625)"/>
     <use xlink:href="#DejaVuSerif-20" transform="translate(1044.697656 0.015625)"/>
     <use xlink:href="#DejaVuSerif-70" transform="translate(1076.484766 0.015625)"/>
     <use xlink:href="#DejaVuSerif-6f" transform="translate(1140.498437 0.015625)"/>
     <use xlink:href="#DejaVuSerif-73" transform="translate(1200.703516 0.015625)"/>
     <use xlink:href="#DejaVuSerif-69" transform="translate(1252.021875 0.015625)"/>
     <use xlink:href="#DejaVuSerif-74" transform="translate(1284.004297 0.015625)"/>
     <use xlink:href="#DejaVuSerif-69" transform="translate(1324.189844 0.015625)"/>
     <use xlink:href="#DejaVuSerif-76" transform="translate(1356.172266 0.015625)"/>
     <use xlink:href="#DejaVuSerif-65" transform="translate(1412.666406 0.015625)"/>
     <use xlink:href="#DejaVuSerif-2f" transform="translate(1471.846094 0.015625)"/>
     <use xlink:href="#DejaVuSerif-6e" transform="translate(1505.5375 0.015625)"/>
     <use xlink:href="#DejaVuSerif-65" transform="translate(1569.941797 0.015625)"/>
     <use xlink:href="#DejaVuSerif-67" transform="translate(1629.121484 0.015625)"/>
     <use xlink:href="#DejaVuSerif-61" transform="translate(1693.135156 0.015625)"/>
     <use xlink:href="#DejaVuSerif-74" transform="translate(1752.754297 0.015625)"/>
     <use xlink:href="#DejaVuSerif-69" transform="translate(1792.939844 0.015625)"/>
     <use xlink:href="#DejaVuSerif-76" transform="translate(1824.922266 0.015625)"/>
     <use xlink:href="#DejaVuSerif-65" transform="translate(1881.416406 0.015625)"/>
     <use xlink:href="#DejaVuSerif-20" transform="translate(1940.596094 0.015625)"/>
     <use xlink:href="#DejaVuSerif-70" transform="translate(1972.383203 0.015625)"/>
     <use xlink:href="#DejaVuSerif-61" transform="translate(2036.396875 0.015625)"/>
     <use xlink:href="#DejaVuSerif-72" transform="translate(2096.016016 0.015625)"/>
     <use xlink:href="#DejaVuSerif-74" transform="translate(2143.81875 0.015625)"/>
     <use xlink:href="#DejaVuSerif-73" transform="translate(2184.004297 0.015625)"/>
    </g>
   </g>
   <g id="legend_1">
    <g id="patch_5">
     <path d="M 488.756562 103.7 
L 681.256562 103.7 
Q 683.256562 103.7 683.256562 101.7 
L 683.256562 71.8 
Q 683.256562 69.8 681.256562 69.8 
L 488.756562 69.8 
Q 486.756562 69.8 486.756562 71.8 
L 486.756562 101.7 
Q 486.756562 103.7 488.756562 103.7 
z
" style="fill: #ffffff; opacity: 0.95; stroke: #bfbfbf; stroke-linejoin: miter"/>
    </g>
    <g id="line2d_28">
     <path d="M 490.756562 77.9 
L 500.756562 77.9 
L 510.756562 77.9 
" style="fill: none; stroke-dasharray: 7.4,3.2; stroke-dashoffset: 0; stroke: #999999; stroke-width: 2"/>
    </g>
    <g id="text_8">
     <!-- $x_1(t)$ (original) -->
     <g transform="translate(518.756562 81.4) scale(0.1 -0.1)">
      <defs>
       <path id="Cmr10-28" d="M 1984 -1588 
Q 1628 -1306 1370 -942 
Q 1113 -578 948 -165 
Q 784 247 703 697 
Q 622 1147 622 1600 
Q 622 2059 703 2509 
Q 784 2959 951 3375 
Q 1119 3791 1378 4153 
Q 1638 4516 1984 4788 
Q 1984 4800 2016 4800 
L 2075 4800 
Q 2094 4800 2109 4783 
Q 2125 4766 2125 4744 
Q 2125 4716 2113 4703 
Q 1800 4397 1592 4047 
Q 1384 3697 1257 3301 
Q 1131 2906 1075 2482 
Q 1019 2059 1019 1600 
Q 1019 -434 2106 -1491 
Q 2125 -1509 2125 -1544 
Q 2125 -1559 2108 -1579 
Q 2091 -1600 2075 -1600 
L 2016 -1600 
Q 1984 -1600 1984 -1588 
z
" transform="scale(0.015625)"/>
       <path id="Cmmi10-74" d="M 397 519 
Q 397 613 416 697 
L 878 2534 
L 206 2534 
Q 141 2534 141 2619 
Q 166 2759 225 2759 
L 934 2759 
L 1191 3803 
Q 1216 3888 1291 3947 
Q 1366 4006 1459 4006 
Q 1541 4006 1595 3957 
Q 1650 3909 1650 3828 
Q 1650 3809 1648 3798 
Q 1647 3788 1644 3775 
L 1388 2759 
L 2047 2759 
Q 2113 2759 2113 2675 
Q 2109 2659 2100 2621 
Q 2091 2584 2075 2559 
Q 2059 2534 2028 2534 
L 1331 2534 
L 872 684 
Q 825 503 825 372 
Q 825 97 1013 97 
Q 1294 97 1511 361 
Q 1728 625 1844 941 
Q 1869 978 1894 978 
L 1972 978 
Q 1997 978 2012 961 
Q 2028 944 2028 922 
Q 2028 909 2022 903 
Q 1881 516 1612 222 
Q 1344 -72 997 -72 
Q 744 -72 570 93 
Q 397 259 397 519 
z
" transform="scale(0.015625)"/>
       <path id="Cmr10-29" d="M 416 -1600 
Q 359 -1600 359 -1544 
Q 359 -1516 372 -1503 
Q 1466 -434 1466 1600 
Q 1466 3634 384 4691 
Q 359 4706 359 4744 
Q 359 4766 376 4783 
Q 394 4800 416 4800 
L 475 4800 
Q 494 4800 506 4788 
Q 966 4425 1272 3906 
Q 1578 3388 1720 2800 
Q 1863 2213 1863 1600 
Q 1863 1147 1786 708 
Q 1709 269 1542 -157 
Q 1375 -584 1119 -945 
Q 863 -1306 506 -1588 
Q 494 -1600 475 -1600 
L 416 -1600 
z
" transform="scale(0.015625)"/>
       <path id="DejaVuSerif-28" d="M 2041 -997 
Q 1281 -656 893 83 
Q 506 822 506 1931 
Q 506 3044 893 3783 
Q 1281 4522 2041 4863 
L 2041 4556 
Q 1559 4225 1350 3623 
Q 1141 3022 1141 1931 
Q 1141 844 1350 242 
Q 1559 -359 2041 -691 
L 2041 -997 
z
" transform="scale(0.015625)"/>
       <path id="DejaVuSerif-29" d="M 453 -997 
L 453 -691 
Q 934 -359 1145 242 
Q 1356 844 1356 1931 
Q 1356 3022 1145 3623 
Q 934 4225 453 4556 
L 453 4863 
Q 1216 4522 1603 3783 
Q 1991 3044 1991 1931 
Q 1991 822 1603 83 
Q 1216 -656 453 -997 
z
" transform="scale(0.015625)"/>
      </defs>
      <use xlink:href="#Cmmi10-78" transform="translate(0 0.015625)"/>
      <use xlink:href="#Cmr10-31" transform="translate(57.080078 -16.990625) scale(0.7)"/>
      <use xlink:href="#Cmr10-28" transform="translate(98.457422 0.015625)"/>
      <use xlink:href="#Cmmi10-74" transform="translate(137.275781 0.015625)"/>
      <use xlink:href="#Cmr10-29" transform="translate(173.359766 0.015625)"/>
      <use xlink:href="#DejaVuSerif-20" transform="translate(212.178125 0.015625)"/>
      <use xlink:href="#DejaVuSerif-28" transform="translate(243.965234 0.015625)"/>
      <use xlink:href="#DejaVuSerif-6f" transform="translate(282.978906 0.015625)"/>
      <use xlink:href="#DejaVuSerif-72" transform="translate(343.183984 0.015625)"/>
      <use xlink:href="#DejaVuSerif-69" transform="translate(390.986719 0.015625)"/>
      <use xlink:href="#DejaVuSerif-67" transform="translate(422.969141 0.015625)"/>
      <use xlink:href="#DejaVuSerif-69" transform="translate(486.982813 0.015625)"/>
      <use xlink:href="#DejaVuSerif-6e" transform="translate(518.965234 0.015625)"/>
      <use xlink:href="#DejaVuSerif-61" transform="translate(583.369531 0.015625)"/>
      <use xlink:href="#DejaVuSerif-6c" transform="translate(642.988672 0.015625)"/>
      <use xlink:href="#DejaVuSerif-29" transform="translate(674.971094 0.015625)"/>
     </g>
    </g>
    <g id="line2d_29">
     <path d="M 490.756562 93.5 
L 500.756562 93.5 
L 510.756562 93.5 
" style="fill: none; stroke: #0072bd; stroke-width: 2.2; stroke-linecap: square"/>
    </g>
    <g id="text_9">
     <!-- $x_1^+(t)$ -->
     <g transform="translate(518.756562 97) scale(0.1 -0.1)">
      <defs>
       <path id="Cmr10-2b" d="M 481 1472 
Q 428 1472 393 1512 
Q 359 1553 359 1600 
Q 359 1647 393 1687 
Q 428 1728 481 1728 
L 2363 1728 
L 2363 3616 
Q 2363 3666 2400 3698 
Q 2438 3731 2491 3731 
Q 2538 3731 2578 3698 
Q 2619 3666 2619 3616 
L 2619 1728 
L 4500 1728 
Q 4547 1728 4581 1687 
Q 4616 1647 4616 1600 
Q 4616 1553 4581 1512 
Q 4547 1472 4500 1472 
L 2619 1472 
L 2619 -416 
Q 2619 -466 2578 -498 
Q 2538 -531 2491 -531 
Q 2438 -531 2400 -498 
Q 2363 -466 2363 -416 
L 2363 1472 
L 481 1472 
z
" transform="scale(0.015625)"/>
      </defs>
      <use xlink:href="#Cmmi10-78" transform="translate(0 0.767188)"/>
      <use xlink:href="#Cmr10-2b" transform="translate(75.674375 40.192188) scale(0.7)"/>
      <use xlink:href="#Cmr10-31" transform="translate(57.080078 -24.742188) scale(0.7)"/>
      <use xlink:href="#Cmr10-28" transform="translate(148.722617 0.767188)"/>
      <use xlink:href="#Cmmi10-74" transform="translate(187.540977 0.767188)"/>
      <use xlink:href="#Cmr10-29" transform="translate(223.624961 0.767188)"/>
     </g>
    </g>
    <g id="line2d_30">
     <path d="M 610.156562 77.9 
L 620.156562 77.9 
L 630.156562 77.9 
" style="fill: none; stroke: #d95319; stroke-width: 2.2; stroke-linecap: square"/>
    </g>
    <g id="text_10">
     <!-- $x_1^-(t)$ -->
     <g transform="translate(638.156562 81.4) scale(0.1 -0.1)">
      <defs>
       <path id="Cmsy10-a1" d="M 653 1472 
Q 600 1472 565 1512 
Q 531 1553 531 1600 
Q 531 1647 565 1687 
Q 600 1728 653 1728 
L 4325 1728 
Q 4375 1728 4408 1687 
Q 4441 1647 4441 1600 
Q 4441 1553 4408 1512 
Q 4375 1472 4325 1472 
L 653 1472 
z
" transform="scale(0.015625)"/>
      </defs>
      <use xlink:href="#Cmmi10-78"/>
      <use xlink:href="#Cmsy10-a1" transform="translate(75.674375 38.264063) scale(0.7)"/>
      <use xlink:href="#Cmr10-31" transform="translate(57.080078 -25.509375) scale(0.7)"/>
      <use xlink:href="#Cmr10-28" transform="translate(148.722617 0)"/>
      <use xlink:href="#Cmmi10-74" transform="translate(187.540977 0)"/>
      <use xlink:href="#Cmr10-29" transform="translate(223.624961 0)"/>
     </g>
    </g>
    <g id="line2d_31">
     <path d="M 610.156562 93.6 
L 620.156562 93.6 
L 630.156562 93.6 
" style="fill: none; stroke-dasharray: 2,3.3; stroke-dashoffset: 0; stroke: #77ac30; stroke-width: 2"/>
    </g>
    <g id="text_11">
     <!-- $x_1^+ - x_1^-$ -->
     <g transform="translate(638.156562 97.1) scale(0.1 -0.1)">
      <use xlink:href="#Cmmi10-78" transform="translate(0 0.767188)"/>
      <use xlink:href="#Cmr10-2b" transform="translate(75.674375 40.192188) scale(0.7)"/>
      <use xlink:href="#Cmr10-31" transform="translate(57.080078 -24.742188) scale(0.7)"/>
      <use xlink:href="#Cmsy10-a1" transform="translate(166.281211 0.767188)"/>
      <use xlink:href="#Cmmi10-78" transform="translate(261.525352 0.767188)"/>
      <use xlink:href="#Cmsy10-a1" transform="translate(337.199727 39.03125) scale(0.7)"/>
      <use xlink:href="#Cmr10-31" transform="translate(318.60543 -24.742187) scale(0.7)"/>
     </g>
    </g>
   </g>
  </g>
  <g id="axes_2">
   <g id="patch_6">
    <path d="M 61.856563 525.6 
L 688.256562 525.6 
L 688.256562 311.274419 
L 61.856563 311.274419 
z
" style="fill: #ffffff"/>
   </g>
   <g id="matplotlib.axis_3">
    <g id="xtick_7">
     <g id="line2d_32">
      <path d="M 90.32929 525.6 
L 90.32929 311.274419 
" clip-path="url(#p3edef0f87e)" style="fill: none; stroke: #b0b0b0; stroke-opacity: 0.15; stroke-width: 0.8; stroke-linecap: square"/>
     </g>
     <g id="line2d_33">
      <g>
       <use xlink:href="#m9de2667f7e" x="90.32929" y="525.6" style="stroke: #000000; stroke-width: 0.8"/>
      </g>
     </g>
     <g id="text_12">
      <!-- 0 -->
      <g transform="translate(86.51179 541.718125) scale(0.12 -0.12)">
       <use xlink:href="#DejaVuSerif-30"/>
      </g>
     </g>
    </g>
    <g id="xtick_8">
     <g id="line2d_34">
      <path d="M 204.220199 525.6 
L 204.220199 311.274419 
" clip-path="url(#p3edef0f87e)" style="fill: none; stroke: #b0b0b0; stroke-opacity: 0.15; stroke-width: 0.8; stroke-linecap: square"/>
     </g>
     <g id="line2d_35">
      <g>
       <use xlink:href="#m9de2667f7e" x="204.220199" y="525.6" style="stroke: #000000; stroke-width: 0.8"/>
      </g>
     </g>
     <g id="text_13">
      <!-- 2 -->
      <g transform="translate(200.402699 541.718125) scale(0.12 -0.12)">
       <defs>
        <path id="DejaVuSerif-32" d="M 819 3553 
L 469 3553 
L 469 4384 
Q 803 4563 1142 4656 
Q 1481 4750 1806 4750 
Q 2534 4750 2956 4397 
Q 3378 4044 3378 3438 
Q 3378 2753 2422 1800 
Q 2347 1728 2309 1691 
L 1131 513 
L 3078 513 
L 3078 1088 
L 3444 1088 
L 3444 0 
L 434 0 
L 434 341 
L 1850 1753 
Q 2319 2222 2519 2614 
Q 2719 3006 2719 3438 
Q 2719 3909 2473 4175 
Q 2228 4441 1797 4441 
Q 1350 4441 1106 4219 
Q 863 3997 819 3553 
z
" transform="scale(0.015625)"/>
       </defs>
       <use xlink:href="#DejaVuSerif-32"/>
      </g>
     </g>
    </g>
    <g id="xtick_9">
     <g id="line2d_36">
      <path d="M 318.111108 525.6 
L 318.111108 311.274419 
" clip-path="url(#p3edef0f87e)" style="fill: none; stroke: #b0b0b0; stroke-opacity: 0.15; stroke-width: 0.8; stroke-linecap: square"/>
     </g>
     <g id="line2d_37">
      <g>
       <use xlink:href="#m9de2667f7e" x="318.111108" y="525.6" style="stroke: #000000; stroke-width: 0.8"/>
      </g>
     </g>
     <g id="text_14">
      <!-- 4 -->
      <g transform="translate(314.293608 541.718125) scale(0.12 -0.12)">
       <defs>
        <path id="DejaVuSerif-34" d="M 2234 1581 
L 2234 4063 
L 641 1581 
L 2234 1581 
z
M 3609 0 
L 1484 0 
L 1484 331 
L 2234 331 
L 2234 1247 
L 197 1247 
L 197 1588 
L 2241 4750 
L 2859 4750 
L 2859 1581 
L 3750 1581 
L 3750 1247 
L 2859 1247 
L 2859 331 
L 3609 331 
L 3609 0 
z
" transform="scale(0.015625)"/>
       </defs>
       <use xlink:href="#DejaVuSerif-34"/>
      </g>
     </g>
    </g>
    <g id="xtick_10">
     <g id="line2d_38">
      <path d="M 432.002017 525.6 
L 432.002017 311.274419 
" clip-path="url(#p3edef0f87e)" style="fill: none; stroke: #b0b0b0; stroke-opacity: 0.15; stroke-width: 0.8; stroke-linecap: square"/>
     </g>
     <g id="line2d_39">
      <g>
       <use xlink:href="#m9de2667f7e" x="432.002017" y="525.6" style="stroke: #000000; stroke-width: 0.8"/>
      </g>
     </g>
     <g id="text_15">
      <!-- 6 -->
      <g transform="translate(428.184517 541.718125) scale(0.12 -0.12)">
       <defs>
        <path id="DejaVuSerif-36" d="M 2094 219 
Q 2534 219 2771 542 
Q 3009 866 3009 1472 
Q 3009 2078 2771 2401 
Q 2534 2725 2094 2725 
Q 1647 2725 1412 2412 
Q 1178 2100 1178 1509 
Q 1178 888 1415 553 
Q 1653 219 2094 219 
z
M 1075 2569 
Q 1288 2803 1556 2918 
Q 1825 3034 2163 3034 
Q 2859 3034 3264 2615 
Q 3669 2197 3669 1472 
Q 3669 763 3233 336 
Q 2797 -91 2069 -91 
Q 1278 -91 853 498 
Q 428 1088 428 2181 
Q 428 3406 931 4078 
Q 1434 4750 2350 4750 
Q 2597 4750 2869 4703 
Q 3141 4656 3425 4563 
L 3425 3794 
L 3072 3794 
Q 3034 4109 2831 4275 
Q 2628 4441 2284 4441 
Q 1678 4441 1381 3981 
Q 1084 3522 1075 2569 
z
" transform="scale(0.015625)"/>
       </defs>
       <use xlink:href="#DejaVuSerif-36"/>
      </g>
     </g>
    </g>
    <g id="xtick_11">
     <g id="line2d_40">
      <path d="M 545.892926 525.6 
L 545.892926 311.274419 
" clip-path="url(#p3edef0f87e)" style="fill: none; stroke: #b0b0b0; stroke-opacity: 0.15; stroke-width: 0.8; stroke-linecap: square"/>
     </g>
     <g id="line2d_41">
      <g>
       <use xlink:href="#m9de2667f7e" x="545.892926" y="525.6" style="stroke: #000000; stroke-width: 0.8"/>
      </g>
     </g>
     <g id="text_16">
      <!-- 8 -->
      <g transform="translate(542.075426 541.718125) scale(0.12 -0.12)">
       <defs>
        <path id="DejaVuSerif-38" d="M 2981 1275 
Q 2981 1775 2732 2051 
Q 2484 2328 2034 2328 
Q 1584 2328 1336 2051 
Q 1088 1775 1088 1275 
Q 1088 772 1336 495 
Q 1584 219 2034 219 
Q 2484 219 2732 495 
Q 2981 772 2981 1275 
z
M 2853 3541 
Q 2853 3966 2637 4203 
Q 2422 4441 2034 4441 
Q 1650 4441 1433 4203 
Q 1216 3966 1216 3541 
Q 1216 3113 1433 2875 
Q 1650 2638 2034 2638 
Q 2422 2638 2637 2875 
Q 2853 3113 2853 3541 
z
M 2516 2484 
Q 3047 2413 3344 2092 
Q 3641 1772 3641 1275 
Q 3641 619 3225 264 
Q 2809 -91 2034 -91 
Q 1263 -91 845 264 
Q 428 619 428 1275 
Q 428 1772 725 2092 
Q 1022 2413 1556 2484 
Q 1084 2569 832 2842 
Q 581 3116 581 3541 
Q 581 4103 968 4426 
Q 1356 4750 2034 4750 
Q 2713 4750 3100 4426 
Q 3488 4103 3488 3541 
Q 3488 3116 3236 2842 
Q 2984 2569 2516 2484 
z
" transform="scale(0.015625)"/>
       </defs>
       <use xlink:href="#DejaVuSerif-38"/>
      </g>
     </g>
    </g>
    <g id="xtick_12">
     <g id="line2d_42">
      <path d="M 659.783835 525.6 
L 659.783835 311.274419 
" clip-path="url(#p3edef0f87e)" style="fill: none; stroke: #b0b0b0; stroke-opacity: 0.15; stroke-width: 0.8; stroke-linecap: square"/>
     </g>
     <g id="line2d_43">
      <g>
       <use xlink:href="#m9de2667f7e" x="659.783835" y="525.6" style="stroke: #000000; stroke-width: 0.8"/>
      </g>
     </g>
     <g id="text_17">
      <!-- 10 -->
      <g transform="translate(652.148835 541.718125) scale(0.12 -0.12)">
       <use xlink:href="#DejaVuSerif-31"/>
       <use xlink:href="#DejaVuSerif-30" transform="translate(63.623047 0)"/>
      </g>
     </g>
    </g>
    <g id="text_18">
     <!-- Time $t$ -->
     <g transform="translate(350.981562 559.611406) scale(0.15 -0.15)">
      <defs>
       <path id="DejaVuSerif-54" d="M 1222 0 
L 1222 331 
L 1819 331 
L 1819 4294 
L 447 4294 
L 447 3566 
L 63 3566 
L 63 4666 
L 4206 4666 
L 4206 3566 
L 3822 3566 
L 3822 4294 
L 2450 4294 
L 2450 331 
L 3047 331 
L 3047 0 
L 1222 0 
z
" transform="scale(0.015625)"/>
      </defs>
      <use xlink:href="#DejaVuSerif-54" transform="translate(0 0.421875)"/>
      <use xlink:href="#DejaVuSerif-69" transform="translate(66.699219 0.421875)"/>
      <use xlink:href="#DejaVuSerif-6d" transform="translate(98.681641 0.421875)"/>
      <use xlink:href="#DejaVuSerif-65" transform="translate(193.505859 0.421875)"/>
      <use xlink:href="#DejaVuSerif-20" transform="translate(252.685547 0.421875)"/>
      <use xlink:href="#Cmmi10-74" transform="translate(284.472656 0.421875)"/>
     </g>
    </g>
   </g>
   <g id="matplotlib.axis_4">
    <g id="ytick_6">
     <g id="line2d_44">
      <path d="M 61.856563 522.652323 
L 688.256562 522.652323 
" clip-path="url(#p3edef0f87e)" style="fill: none; stroke: #b0b0b0; stroke-opacity: 0.15; stroke-width: 0.8; stroke-linecap: square"/>
     </g>
     <g id="line2d_45">
      <g>
       <use xlink:href="#md2bff363a7" x="61.856563" y="522.652323" style="stroke: #000000; stroke-width: 0.8"/>
      </g>
     </g>
     <g id="text_19">
      <!-- −0.5 -->
      <g transform="translate(25.717188 527.211385) scale(0.12 -0.12)">
       <use xlink:href="#DejaVuSerif-2212"/>
       <use xlink:href="#DejaVuSerif-30" transform="translate(83.789062 0)"/>
       <use xlink:href="#DejaVuSerif-2e" transform="translate(147.412109 0)"/>
       <use xlink:href="#DejaVuSerif-35" transform="translate(179.199219 0)"/>
      </g>
     </g>
    </g>
    <g id="ytick_7">
     <g id="line2d_46">
      <path d="M 61.856563 482.325156 
L 688.256562 482.325156 
" clip-path="url(#p3edef0f87e)" style="fill: none; stroke: #b0b0b0; stroke-opacity: 0.15; stroke-width: 0.8; stroke-linecap: square"/>
     </g>
     <g id="line2d_47">
      <g>
       <use xlink:href="#md2bff363a7" x="61.856563" y="482.325156" style="stroke: #000000; stroke-width: 0.8"/>
      </g>
     </g>
     <g id="text_20">
      <!-- 0.0 -->
      <g transform="translate(35.772813 486.884219) scale(0.12 -0.12)">
       <use xlink:href="#DejaVuSerif-30"/>
       <use xlink:href="#DejaVuSerif-2e" transform="translate(63.623047 0)"/>
       <use xlink:href="#DejaVuSerif-30" transform="translate(95.410156 0)"/>
      </g>
     </g>
    </g>
    <g id="ytick_8">
     <g id="line2d_48">
      <path d="M 61.856563 441.99799 
L 688.256562 441.99799 
" clip-path="url(#p3edef0f87e)" style="fill: none; stroke: #b0b0b0; stroke-opacity: 0.15; stroke-width: 0.8; stroke-linecap: square"/>
     </g>
     <g id="line2d_49">
      <g>
       <use xlink:href="#md2bff363a7" x="61.856563" y="441.99799" style="stroke: #000000; stroke-width: 0.8"/>
      </g>
     </g>
     <g id="text_21">
      <!-- 0.5 -->
      <g transform="translate(35.772813 446.557052) scale(0.12 -0.12)">
       <use xlink:href="#DejaVuSerif-30"/>
       <use xlink:href="#DejaVuSerif-2e" transform="translate(63.623047 0)"/>
       <use xlink:href="#DejaVuSerif-35" transform="translate(95.410156 0)"/>
      </g>
     </g>
    </g>
    <g id="ytick_9">
     <g id="line2d_50">
      <path d="M 61.856563 401.670823 
L 688.256562 401.670823 
" clip-path="url(#p3edef0f87e)" style="fill: none; stroke: #b0b0b0; stroke-opacity: 0.15; stroke-width: 0.8; stroke-linecap: square"/>
     </g>
     <g id="line2d_51">
      <g>
       <use xlink:href="#md2bff363a7" x="61.856563" y="401.670823" style="stroke: #000000; stroke-width: 0.8"/>
      </g>
     </g>
     <g id="text_22">
      <!-- 1.0 -->
      <g transform="translate(35.772813 406.229886) scale(0.12 -0.12)">
       <use xlink:href="#DejaVuSerif-31"/>
       <use xlink:href="#DejaVuSerif-2e" transform="translate(63.623047 0)"/>
       <use xlink:href="#DejaVuSerif-30" transform="translate(95.410156 0)"/>
      </g>
     </g>
    </g>
    <g id="ytick_10">
     <g id="line2d_52">
      <path d="M 61.856563 361.343657 
L 688.256562 361.343657 
" clip-path="url(#p3edef0f87e)" style="fill: none; stroke: #b0b0b0; stroke-opacity: 0.15; stroke-width: 0.8; stroke-linecap: square"/>
     </g>
     <g id="line2d_53">
      <g>
       <use xlink:href="#md2bff363a7" x="61.856563" y="361.343657" style="stroke: #000000; stroke-width: 0.8"/>
      </g>
     </g>
     <g id="text_23">
      <!-- 1.5 -->
      <g transform="translate(35.772813 365.902719) scale(0.12 -0.12)">
       <use xlink:href="#DejaVuSerif-31"/>
       <use xlink:href="#DejaVuSerif-2e" transform="translate(63.623047 0)"/>
       <use xlink:href="#DejaVuSerif-35" transform="translate(95.410156 0)"/>
      </g>
     </g>
    </g>
    <g id="ytick_11">
     <g id="line2d_54">
      <path d="M 61.856563 321.01649 
L 688.256562 321.01649 
" clip-path="url(#p3edef0f87e)" style="fill: none; stroke: #b0b0b0; stroke-opacity: 0.15; stroke-width: 0.8; stroke-linecap: square"/>
     </g>
     <g id="line2d_55">
      <g>
       <use xlink:href="#md2bff363a7" x="61.856563" y="321.01649" style="stroke: #000000; stroke-width: 0.8"/>
      </g>
     </g>
     <g id="text_24">
      <!-- 2.0 -->
      <g transform="translate(35.772813 325.575553) scale(0.12 -0.12)">
       <use xlink:href="#DejaVuSerif-32"/>
       <use xlink:href="#DejaVuSerif-2e" transform="translate(63.623047 0)"/>
       <use xlink:href="#DejaVuSerif-30" transform="translate(95.410156 0)"/>
      </g>
     </g>
    </g>
    <g id="text_25">
     <!-- Component 2 -->
     <g transform="translate(18.597656 469.389162) rotate(-90) scale(0.15 -0.15)">
      <use xlink:href="#DejaVuSerif-43"/>
      <use xlink:href="#DejaVuSerif-6f" transform="translate(76.513672 0)"/>
      <use xlink:href="#DejaVuSerif-6d" transform="translate(136.71875 0)"/>
      <use xlink:href="#DejaVuSerif-70" transform="translate(231.542969 0)"/>
      <use xlink:href="#DejaVuSerif-6f" transform="translate(295.556641 0)"/>
      <use xlink:href="#DejaVuSerif-6e" transform="translate(355.761719 0)"/>
      <use xlink:href="#DejaVuSerif-65" transform="translate(420.166016 0)"/>
      <use xlink:href="#DejaVuSerif-6e" transform="translate(479.345703 0)"/>
      <use xlink:href="#DejaVuSerif-74" transform="translate(543.75 0)"/>
      <use xlink:href="#DejaVuSerif-20" transform="translate(583.935547 0)"/>
      <use xlink:href="#DejaVuSerif-32" transform="translate(615.722656 0)"/>
     </g>
    </g>
   </g>
   <g id="line2d_56">
    <path d="M 90.32929 321.01649 
L 93.749437 339.81135 
L 97.169585 357.447146 
L 100.589732 373.935222 
L 104.009879 389.29344 
L 107.430027 403.545406 
L 110.850174 416.719423 
L 113.700297 426.897745 
L 116.55042 436.370689 
L 119.400543 445.160263 
L 122.250666 453.28974 
L 125.100789 460.783231 
L 127.950911 467.665565 
L 130.801034 473.96222 
L 133.651157 479.698963 
L 136.50128 484.901745 
L 139.351403 489.596683 
L 142.201526 493.809779 
L 145.051648 497.566811 
L 147.901771 500.893339 
L 150.751894 503.814543 
L 153.602017 506.355076 
L 156.45214 508.539086 
L 159.302263 510.390159 
L 162.152386 511.931177 
L 165.002508 513.184302 
L 167.852631 514.17101 
L 170.702754 514.911985 
L 173.552877 515.427084 
L 176.403 515.735362 
L 179.823147 515.857928 
L 183.243295 515.738809 
L 186.663442 515.406154 
L 190.653614 514.783351 
L 194.643786 513.944833 
L 199.203983 512.768269 
L 204.334204 511.224201 
L 210.604474 509.10617 
L 219.724867 505.757005 
L 241.385801 497.698542 
L 249.936169 494.801804 
L 257.916513 492.338548 
L 265.326833 490.283904 
L 272.737152 488.463437 
L 280.147472 486.877586 
L 287.557791 485.519783 
L 294.96811 484.378106 
L 302.948454 483.372427 
L 311.498823 482.527361 
L 320.619216 481.858213 
L 330.309634 481.369705 
L 341.140101 481.043895 
L 354.250666 480.885278 
L 370.211354 480.927866 
L 394.152386 481.240435 
L 453.434941 482.077461 
L 489.916513 482.314622 
L 538.938626 482.387767 
L 659.783835 482.327306 
L 659.783835 482.327306 
" clip-path="url(#p3edef0f87e)" style="fill: none; stroke-dasharray: 7.4,3.2; stroke-dashoffset: 0; stroke: #999999; stroke-width: 2"/>
   </g>
   <g id="line2d_57">
    <path d="M 90.32929 321.01649 
L 91.469339 324.753746 
L 93.179413 331.613466 
L 96.59956 346.92399 
L 101.159757 367.129855 
L 104.579904 381.216011 
L 107.430027 392.118454 
L 110.28015 402.2397 
L 113.130273 411.581455 
L 115.980395 420.154592 
L 118.830518 427.975219 
L 121.680641 435.063157 
L 124.530764 441.441411 
L 126.810862 446.050495 
L 129.090961 450.23672 
L 131.371059 454.016106 
L 133.651157 457.406043 
L 135.931255 460.424994 
L 138.211354 463.092926 
L 140.491452 465.43057 
L 142.77155 467.459945 
L 145.051648 469.203406 
L 147.331747 470.684076 
L 149.611845 471.924837 
L 151.891943 472.948656 
L 154.742066 473.956966 
L 157.592189 474.702344 
L 160.442312 475.223225 
L 163.862459 475.601082 
L 167.282607 475.759389 
L 171.272779 475.726843 
L 175.832975 475.474834 
L 181.533221 474.936514 
L 189.513565 473.932258 
L 202.054105 472.094099 
L 240.245752 466.398349 
L 255.066391 464.450309 
L 267.606931 463.016374 
L 279.577447 461.869113 
L 290.977938 460.992721 
L 302.948454 460.297516 
L 315.488995 459.796684 
L 329.169585 459.476193 
L 345.130273 459.331351 
L 365.651157 459.380093 
L 404.982852 459.751594 
L 452.864916 460.122378 
L 501.887029 460.258149 
L 601.641329 460.244203 
L 659.783835 460.231092 
L 659.783835 460.231092 
" clip-path="url(#p3edef0f87e)" style="fill: none; stroke: #0072bd; stroke-width: 2.2; stroke-linecap: square"/>
   </g>
   <g id="line2d_58">
    <path d="M 90.32929 482.325156 
L 91.469339 479.668255 
L 92.609388 477.864562 
L 93.749437 476.598857 
L 94.889486 475.672741 
L 96.59956 474.661189 
L 98.879658 473.67938 
L 102.299806 472.513315 
L 113.700297 468.784511 
L 119.400543 466.615597 
L 124.530764 464.43235 
L 130.23101 461.752878 
L 136.50128 458.547496 
L 154.742066 449.012007 
L 159.302263 446.974477 
L 163.292435 445.41412 
L 167.282607 444.090576 
L 171.272779 443.019565 
L 175.262951 442.205997 
L 179.253123 441.645622 
L 183.243295 441.326947 
L 187.233467 441.233063 
L 191.223639 441.343249 
L 195.783835 441.689291 
L 200.914056 442.315585 
L 206.614302 443.244738 
L 213.454597 444.591674 
L 223.715039 446.874259 
L 243.665899 451.350756 
L 253.356317 453.271914 
L 262.47671 454.854436 
L 271.597103 456.205705 
L 280.717496 457.331852 
L 290.407914 458.300764 
L 300.668356 459.100633 
L 312.068848 459.758155 
L 324.609388 460.253344 
L 339.430027 460.602821 
L 357.100789 460.784508 
L 380.471796 460.788682 
L 427.213811 460.5167 
L 485.926341 460.261561 
L 558.319462 460.206144 
L 659.783835 460.228931 
L 659.783835 460.228931 
" clip-path="url(#p3edef0f87e)" style="fill: none; stroke: #d95319; stroke-width: 2.2; stroke-linecap: square"/>
   </g>
   <g id="line2d_59">
    <path d="M 90.32929 321.01649 
L 93.749437 339.811374 
L 97.169585 357.447159 
L 100.589732 373.935225 
L 104.009879 389.293459 
L 107.430027 403.5454 
L 110.850174 416.71944 
L 113.700297 426.89775 
L 116.55042 436.37068 
L 119.400543 445.160276 
L 122.250666 453.289742 
L 125.100789 460.783217 
L 127.950911 467.665572 
L 130.801034 473.96222 
L 133.651157 479.698946 
L 136.50128 484.901746 
L 139.351403 489.596684 
L 142.201526 493.809762 
L 145.051648 497.566802 
L 147.901771 500.893339 
L 150.751894 503.814528 
L 153.602017 506.355058 
L 156.45214 508.539081 
L 159.302263 510.390149 
L 162.152386 511.931154 
L 165.002508 513.184289 
L 167.852631 514.171001 
L 170.702754 514.911967 
L 173.552877 515.427063 
L 176.403 515.735349 
L 179.823147 515.857914 
L 183.243295 515.738788 
L 186.663442 515.406137 
L 190.653614 514.783335 
L 194.643786 513.944815 
L 199.203983 512.768253 
L 204.334204 511.224186 
L 210.604474 509.106152 
L 219.724867 505.756988 
L 241.385801 497.698541 
L 249.936169 494.801794 
L 257.916513 492.338543 
L 265.326833 490.283906 
L 272.737152 488.463432 
L 280.147472 486.877595 
L 287.557791 485.519783 
L 294.96811 484.37812 
L 302.948454 483.372433 
L 311.498823 482.527381 
L 320.619216 481.858218 
L 330.309634 481.369734 
L 341.140101 481.043904 
L 354.250666 480.885296 
L 370.211354 480.927888 
L 394.152386 481.240452 
L 453.434941 482.077456 
L 489.916513 482.314618 
L 538.938626 482.387744 
L 659.783835 482.327317 
L 659.783835 482.327317 
" clip-path="url(#p3edef0f87e)" style="fill: none; stroke-dasharray: 2,3.3; stroke-dashoffset: 0; stroke: #77ac30; stroke-width: 2"/>
   </g>
   <g id="line2d_60">
    <path d="M 61.856563 482.325156 
L 688.256562 482.325156 
" clip-path="url(#p3edef0f87e)" style="fill: none; stroke: #cccccc; stroke-width: 0.5; stroke-linecap: square"/>
   </g>
   <g id="patch_7">
    <path d="M 61.856563 525.6 
L 61.856563 311.274419 
" style="fill: none; stroke: #000000; stroke-width: 0.8; stroke-linejoin: miter; stroke-linecap: square"/>
   </g>
   <g id="patch_8">
    <path d="M 61.856563 525.6 
L 688.256562 525.6 
" style="fill: none; stroke: #000000; stroke-width: 0.8; stroke-linejoin: miter; stroke-linecap: square"/>
   </g>
   <g id="text_26">
    <!-- $x_2$: original, dual-rail positive/negative parts -->
    <g transform="translate(240.896562 305.274419) scale(0.12 -0.12)">
     <defs>
      <path id="Cmr10-32" d="M 319 0 
L 319 172 
Q 319 188 331 206 
L 1325 1306 
Q 1550 1550 1690 1715 
Q 1831 1881 1968 2097 
Q 2106 2313 2186 2536 
Q 2266 2759 2266 3009 
Q 2266 3272 2169 3511 
Q 2072 3750 1880 3894 
Q 1688 4038 1416 4038 
Q 1138 4038 916 3870 
Q 694 3703 603 3438 
Q 628 3444 672 3444 
Q 816 3444 917 3347 
Q 1019 3250 1019 3097 
Q 1019 2950 917 2848 
Q 816 2747 672 2747 
Q 522 2747 420 2851 
Q 319 2956 319 3097 
Q 319 3338 409 3548 
Q 500 3759 670 3923 
Q 841 4088 1055 4175 
Q 1269 4263 1509 4263 
Q 1875 4263 2190 4108 
Q 2506 3953 2690 3670 
Q 2875 3388 2875 3009 
Q 2875 2731 2753 2481 
Q 2631 2231 2440 2026 
Q 2250 1822 1953 1562 
Q 1656 1303 1563 1216 
L 838 519 
L 1453 519 
Q 1906 519 2211 526 
Q 2516 534 2534 550 
Q 2609 631 2688 1141 
L 2875 1141 
L 2694 0 
L 319 0 
z
" transform="scale(0.015625)"/>
     </defs>
     <use xlink:href="#Cmmi10-78" transform="translate(0 0.015625)"/>
     <use xlink:href="#Cmr10-32" transform="translate(57.080078 -16.990625) scale(0.7)"/>
     <use xlink:href="#DejaVuSerif-3a" transform="translate(98.457422 0.015625)"/>
     <use xlink:href="#DejaVuSerif-20" transform="translate(132.148828 0.015625)"/>
     <use xlink:href="#DejaVuSerif-6f" transform="translate(163.935937 0.015625)"/>
     <use xlink:href="#DejaVuSerif-72" transform="translate(224.141016 0.015625)"/>
     <use xlink:href="#DejaVuSerif-69" transform="translate(271.94375 0.015625)"/>
     <use xlink:href="#DejaVuSerif-67" transform="translate(303.926172 0.015625)"/>
     <use xlink:href="#DejaVuSerif-69" transform="translate(367.939844 0.015625)"/>
     <use xlink:href="#DejaVuSerif-6e" transform="translate(399.922266 0.015625)"/>
     <use xlink:href="#DejaVuSerif-61" transform="translate(464.326563 0.015625)"/>
     <use xlink:href="#DejaVuSerif-6c" transform="translate(523.945703 0.015625)"/>
     <use xlink:href="#DejaVuSerif-2c" transform="translate(555.928125 0.015625)"/>
     <use xlink:href="#DejaVuSerif-20" transform="translate(587.715234 0.015625)"/>
     <use xlink:href="#DejaVuSerif-64" transform="translate(619.502344 0.015625)"/>
     <use xlink:href="#DejaVuSerif-75" transform="translate(683.516016 0.015625)"/>
     <use xlink:href="#DejaVuSerif-61" transform="translate(747.920313 0.015625)"/>
     <use xlink:href="#DejaVuSerif-6c" transform="translate(807.539453 0.015625)"/>
     <use xlink:href="#DejaVuSerif-2d" transform="translate(839.521875 0.015625)"/>
     <use xlink:href="#DejaVuSerif-72" transform="translate(873.310938 0.015625)"/>
     <use xlink:href="#DejaVuSerif-61" transform="translate(921.113672 0.015625)"/>
     <use xlink:href="#DejaVuSerif-69" transform="translate(980.732813 0.015625)"/>
     <use xlink:href="#DejaVuSerif-6c" transform="translate(1012.715234 0.015625)"/>
     <use xlink:href="#DejaVuSerif-20" transform="translate(1044.697656 0.015625)"/>
     <use xlink:href="#DejaVuSerif-70" transform="translate(1076.484766 0.015625)"/>
     <use xlink:href="#DejaVuSerif-6f" transform="translate(1140.498437 0.015625)"/>
     <use xlink:href="#DejaVuSerif-73" transform="translate(1200.703516 0.015625)"/>
     <use xlink:href="#DejaVuSerif-69" transform="translate(1252.021875 0.015625)"/>
     <use xlink:href="#DejaVuSerif-74" transform="translate(1284.004297 0.015625)"/>
     <use xlink:href="#DejaVuSerif-69" transform="translate(1324.189844 0.015625)"/>
     <use xlink:href="#DejaVuSerif-76" transform="translate(1356.172266 0.015625)"/>
     <use xlink:href="#DejaVuSerif-65" transform="translate(1412.666406 0.015625)"/>
     <use xlink:href="#DejaVuSerif-2f" transform="translate(1471.846094 0.015625)"/>
     <use xlink:href="#DejaVuSerif-6e" transform="translate(1505.5375 0.015625)"/>
     <use xlink:href="#DejaVuSerif-65" transform="translate(1569.941797 0.015625)"/>
     <use xlink:href="#DejaVuSerif-67" transform="translate(1629.121484 0.015625)"/>
     <use xlink:href="#DejaVuSerif-61" transform="translate(1693.135156 0.015625)"/>
     <use xlink:href="#DejaVuSerif-74" transform="translate(1752.754297 0.015625)"/>
     <use xlink:href="#DejaVuSerif-69" transform="translate(1792.939844 0.015625)"/>
     <use xlink:href="#DejaVuSerif-76" transform="translate(1824.922266 0.015625)"/>
     <use xlink:href="#DejaVuSerif-65" transform="translate(1881.416406 0.015625)"/>
     <use xlink:href="#DejaVuSerif-20" transform="translate(1940.596094 0.015625)"/>
     <use xlink:href="#DejaVuSerif-70" transform="translate(1972.383203 0.015625)"/>
     <use xlink:href="#DejaVuSerif-61" transform="translate(2036.396875 0.015625)"/>
     <use xlink:href="#DejaVuSerif-72" transform="translate(2096.016016 0.015625)"/>
     <use xlink:href="#DejaVuSerif-74" transform="translate(2143.81875 0.015625)"/>
     <use xlink:href="#DejaVuSerif-73" transform="translate(2184.004297 0.015625)"/>
    </g>
   </g>
   <g id="legend_2">
    <g id="patch_9">
     <path d="M 488.756562 350.174419 
L 681.256562 350.174419 
Q 683.256562 350.174419 683.256562 348.174419 
L 683.256562 318.274419 
Q 683.256562 316.274419 681.256562 316.274419 
L 488.756562 316.274419 
Q 486.756562 316.274419 486.756562 318.274419 
L 486.756562 348.174419 
Q 486.756562 350.174419 488.756562 350.174419 
z
" style="fill: #ffffff; opacity: 0.95; stroke: #bfbfbf; stroke-linejoin: miter"/>
    </g>
    <g id="line2d_61">
     <path d="M 490.756562 324.374419 
L 500.756562 324.374419 
L 510.756562 324.374419 
" style="fill: none; stroke-dasharray: 7.4,3.2; stroke-dashoffset: 0; stroke: #999999; stroke-width: 2"/>
    </g>
    <g id="text_27">
     <!-- $x_2(t)$ (original) -->
     <g transform="translate(518.756562 327.874419) scale(0.1 -0.1)">
      <use xlink:href="#Cmmi10-78" transform="translate(0 0.015625)"/>
      <use xlink:href="#Cmr10-32" transform="translate(57.080078 -16.990625) scale(0.7)"/>
      <use xlink:href="#Cmr10-28" transform="translate(98.457422 0.015625)"/>
      <use xlink:href="#Cmmi10-74" transform="translate(137.275781 0.015625)"/>
      <use xlink:href="#Cmr10-29" transform="translate(173.359766 0.015625)"/>
      <use xlink:href="#DejaVuSerif-20" transform="translate(212.178125 0.015625)"/>
      <use xlink:href="#DejaVuSerif-28" transform="translate(243.965234 0.015625)"/>
      <use xlink:href="#DejaVuSerif-6f" transform="translate(282.978906 0.015625)"/>
      <use xlink:href="#DejaVuSerif-72" transform="translate(343.183984 0.015625)"/>
      <use xlink:href="#DejaVuSerif-69" transform="translate(390.986719 0.015625)"/>
      <use xlink:href="#DejaVuSerif-67" transform="translate(422.969141 0.015625)"/>
      <use xlink:href="#DejaVuSerif-69" transform="translate(486.982813 0.015625)"/>
      <use xlink:href="#DejaVuSerif-6e" transform="translate(518.965234 0.015625)"/>
      <use xlink:href="#DejaVuSerif-61" transform="translate(583.369531 0.015625)"/>
      <use xlink:href="#DejaVuSerif-6c" transform="translate(642.988672 0.015625)"/>
      <use xlink:href="#DejaVuSerif-29" transform="translate(674.971094 0.015625)"/>
     </g>
    </g>
    <g id="line2d_62">
     <path d="M 490.756562 339.974419 
L 500.756562 339.974419 
L 510.756562 339.974419 
" style="fill: none; stroke: #0072bd; stroke-width: 2.2; stroke-linecap: square"/>
    </g>
    <g id="text_28">
     <!-- $x_2^+(t)$ -->
     <g transform="translate(518.756562 343.474419) scale(0.1 -0.1)">
      <use xlink:href="#Cmmi10-78" transform="translate(0 0.767188)"/>
      <use xlink:href="#Cmr10-2b" transform="translate(75.674375 40.192188) scale(0.7)"/>
      <use xlink:href="#Cmr10-32" transform="translate(57.080078 -24.742188) scale(0.7)"/>
      <use xlink:href="#Cmr10-28" transform="translate(148.722617 0.767188)"/>
      <use xlink:href="#Cmmi10-74" transform="translate(187.540977 0.767188)"/>
      <use xlink:href="#Cmr10-29" transform="translate(223.624961 0.767188)"/>
     </g>
    </g>
    <g id="line2d_63">
     <path d="M 610.156562 324.374419 
L 620.156562 324.374419 
L 630.156562 324.374419 
" style="fill: none; stroke: #d95319; stroke-width: 2.2; stroke-linecap: square"/>
    </g>
    <g id="text_29">
     <!-- $x_2^-(t)$ -->
     <g transform="translate(638.156562 327.874419) scale(0.1 -0.1)">
      <use xlink:href="#Cmmi10-78"/>
      <use xlink:href="#Cmsy10-a1" transform="translate(75.674375 38.264063) scale(0.7)"/>
      <use xlink:href="#Cmr10-32" transform="translate(57.080078 -25.509375) scale(0.7)"/>
      <use xlink:href="#Cmr10-28" transform="translate(148.722617 0)"/>
      <use xlink:href="#Cmmi10-74" transform="translate(187.540977 0)"/>
      <use xlink:href="#Cmr10-29" transform="translate(223.624961 0)"/>
     </g>
    </g>
    <g id="line2d_64">
     <path d="M 610.156562 340.074419 
L 620.156562 340.074419 
L 630.156562 340.074419 
" style="fill: none; stroke-dasharray: 2,3.3; stroke-dashoffset: 0; stroke: #77ac30; stroke-width: 2"/>
    </g>
    <g id="text_30">
     <!-- $x_2^+ - x_2^-$ -->
     <g transform="translate(638.156562 343.574419) scale(0.1 -0.1)">
      <use xlink:href="#Cmmi10-78" transform="translate(0 0.767188)"/>
      <use xlink:href="#Cmr10-2b" transform="translate(75.674375 40.192188) scale(0.7)"/>
      <use xlink:href="#Cmr10-32" transform="translate(57.080078 -24.742188) scale(0.7)"/>
      <use xlink:href="#Cmsy10-a1" transform="translate(166.281211 0.767188)"/>
      <use xlink:href="#Cmmi10-78" transform="translate(261.525352 0.767188)"/>
      <use xlink:href="#Cmsy10-a1" transform="translate(337.199727 39.03125) scale(0.7)"/>
      <use xlink:href="#Cmr10-32" transform="translate(318.60543 -24.742187) scale(0.7)"/>
     </g>
    </g>
   </g>
  </g>
  <g id="text_31">
   <!-- Dual-rail representation ($\eta = 10$) -->
   <g transform="translate(218.306563 18.6) scale(0.15 -0.15)">
    <defs>
     <path id="DejaVuSerif-Bold-44" d="M 2100 378 
L 2534 378 
Q 3266 378 3605 847 
Q 3944 1316 3944 2338 
Q 3944 3353 3606 3820 
Q 3269 4288 2534 4288 
L 2100 4288 
L 2100 378 
z
M 300 0 
L 300 378 
L 897 378 
L 897 4288 
L 300 4288 
L 300 4666 
L 2694 4666 
Q 3950 4666 4615 4066 
Q 5281 3466 5281 2338 
Q 5281 1203 4614 601 
Q 3947 0 2694 0 
L 300 0 
z
" transform="scale(0.015625)"/>
     <path id="DejaVuSerif-Bold-75" d="M 3963 3322 
L 3963 378 
L 4434 378 
L 4434 0 
L 2853 0 
L 2853 469 
Q 2656 172 2400 40 
Q 2144 -91 1753 -91 
Q 1194 -91 908 239 
Q 622 569 622 1209 
L 622 2944 
L 147 2944 
L 147 3322 
L 1728 3322 
L 1728 1381 
Q 1728 763 1831 595 
Q 1934 428 2209 428 
Q 2544 428 2698 675 
Q 2853 922 2853 1459 
L 2853 2944 
L 2450 2944 
L 2450 3322 
L 3963 3322 
z
" transform="scale(0.015625)"/>
     <path id="DejaVuSerif-Bold-61" d="M 3525 2041 
L 3525 378 
L 4000 378 
L 4000 0 
L 2419 0 
L 2419 422 
Q 2200 159 1931 34 
Q 1663 -91 1319 -91 
Q 809 -91 536 182 
Q 263 456 263 966 
Q 263 1525 655 1803 
Q 1047 2081 1838 2081 
L 2419 2081 
L 2419 2278 
Q 2419 2681 2228 2873 
Q 2038 3066 1638 3066 
Q 1306 3066 1126 2930 
Q 947 2794 872 2484 
L 519 2484 
L 519 3200 
Q 816 3306 1134 3359 
Q 1453 3413 1806 3413 
Q 2697 3413 3111 3081 
Q 3525 2750 3525 2041 
z
M 2419 1044 
L 2419 1709 
L 2003 1709 
Q 1694 1709 1528 1540 
Q 1363 1372 1363 1056 
Q 1363 741 1483 584 
Q 1603 428 1850 428 
Q 2106 428 2262 597 
Q 2419 766 2419 1044 
z
" transform="scale(0.015625)"/>
     <path id="DejaVuSerif-Bold-6c" d="M 1797 378 
L 2272 378 
L 2272 0 
L 219 0 
L 219 378 
L 691 378 
L 691 4488 
L 219 4488 
L 219 4863 
L 1797 4863 
L 1797 378 
z
" transform="scale(0.015625)"/>
     <path id="DejaVuSerif-Bold-2d" d="M 347 2138 
L 2309 2138 
L 2309 1294 
L 347 1294 
L 347 2138 
z
" transform="scale(0.015625)"/>
     <path id="DejaVuSerif-Bold-72" d="M 3438 3359 
L 3438 2369 
L 3084 2369 
Q 3066 2634 2941 2764 
Q 2816 2894 2578 2894 
Q 2216 2894 2006 2575 
Q 1797 2256 1797 1691 
L 1797 378 
L 2400 378 
L 2400 0 
L 219 0 
L 219 378 
L 691 378 
L 691 2944 
L 184 2944 
L 184 3322 
L 1797 3322 
L 1797 2731 
Q 1959 3078 2226 3245 
Q 2494 3413 2881 3413 
Q 2978 3413 3117 3398 
Q 3256 3384 3438 3359 
z
" transform="scale(0.015625)"/>
     <path id="DejaVuSerif-Bold-69" d="M 588 4263 
Q 588 4516 763 4689 
Q 938 4863 1191 4863 
Q 1438 4863 1611 4689 
Q 1784 4516 1784 4263 
Q 1784 4016 1611 3842 
Q 1438 3669 1191 3669 
Q 938 3669 763 3841 
Q 588 4013 588 4263 
z
M 1797 378 
L 2272 378 
L 2272 0 
L 219 0 
L 219 378 
L 691 378 
L 691 2944 
L 219 2944 
L 219 3322 
L 1797 3322 
L 1797 378 
z
" transform="scale(0.015625)"/>
     <path id="DejaVuSerif-Bold-20" transform="scale(0.015625)"/>
     <path id="DejaVuSerif-Bold-65" d="M 2566 1875 
Q 2566 2531 2444 2795 
Q 2322 3059 2028 3059 
Q 1744 3059 1620 2800 
Q 1497 2541 1497 1931 
L 1497 1875 
L 2566 1875 
z
M 3781 1503 
L 1497 1503 
L 1497 1478 
Q 1497 834 1690 548 
Q 1884 263 2316 263 
Q 2675 263 2897 453 
Q 3119 644 3181 1006 
L 3700 1006 
Q 3566 441 3166 175 
Q 2766 -91 2047 -91 
Q 1184 -91 723 364 
Q 263 819 263 1663 
Q 263 2488 734 2950 
Q 1206 3413 2047 3413 
Q 2872 3413 3312 2927 
Q 3753 2441 3781 1503 
z
" transform="scale(0.015625)"/>
     <path id="DejaVuSerif-Bold-70" d="M 1728 1825 
L 1728 1497 
Q 1728 916 1876 656 
Q 2025 397 2356 397 
Q 2697 397 2836 672 
Q 2975 947 2975 1663 
Q 2975 2378 2836 2651 
Q 2697 2925 2356 2925 
Q 2025 2925 1876 2665 
Q 1728 2406 1728 1825 
z
M 622 2944 
L 147 2944 
L 147 3322 
L 1728 3322 
L 1728 2900 
Q 1869 3159 2106 3286 
Q 2344 3413 2694 3413 
Q 3403 3413 3811 2945 
Q 4219 2478 4219 1663 
Q 4219 847 3811 378 
Q 3403 -91 2694 -91 
Q 2344 -91 2106 36 
Q 1869 163 1728 422 
L 1728 -953 
L 2241 -953 
L 2241 -1331 
L 147 -1331 
L 147 -953 
L 622 -953 
L 622 2944 
z
" transform="scale(0.015625)"/>
     <path id="DejaVuSerif-Bold-73" d="M 300 97 
L 300 1025 
L 653 1025 
Q 697 653 931 458 
Q 1166 263 1569 263 
Q 1906 263 2086 380 
Q 2266 497 2266 716 
Q 2266 916 2152 1025 
Q 2038 1134 1709 1216 
L 1253 1331 
Q 738 1459 506 1698 
Q 275 1938 275 2344 
Q 275 2884 650 3148 
Q 1025 3413 1806 3413 
Q 2100 3413 2433 3364 
Q 2766 3316 3169 3213 
L 3169 2375 
L 2816 2375 
Q 2788 2716 2573 2887 
Q 2359 3059 1959 3059 
Q 1622 3059 1448 2951 
Q 1275 2844 1275 2638 
Q 1275 2469 1375 2372 
Q 1475 2275 1734 2209 
L 2188 2094 
Q 2841 1928 3091 1684 
Q 3341 1441 3341 1006 
Q 3341 444 2939 176 
Q 2538 -91 1691 -91 
Q 1381 -91 1034 -44 
Q 688 3 300 97 
z
" transform="scale(0.015625)"/>
     <path id="DejaVuSerif-Bold-6e" d="M 219 0 
L 219 378 
L 691 378 
L 691 2944 
L 219 2944 
L 219 3322 
L 1797 3322 
L 1797 2853 
Q 1997 3150 2253 3281 
Q 2509 3413 2900 3413 
Q 3459 3413 3745 3083 
Q 4031 2753 4031 2113 
L 4031 378 
L 4506 378 
L 4506 0 
L 2522 0 
L 2522 378 
L 2925 378 
L 2925 2144 
Q 2925 2566 2817 2730 
Q 2709 2894 2444 2894 
Q 2109 2894 1953 2648 
Q 1797 2403 1797 1869 
L 1797 378 
L 2203 378 
L 2203 0 
L 219 0 
z
" transform="scale(0.015625)"/>
     <path id="DejaVuSerif-Bold-74" d="M 634 2944 
L 153 2944 
L 153 3322 
L 634 3322 
L 634 4353 
L 1741 4353 
L 1741 3322 
L 2663 3322 
L 2663 2944 
L 1741 2944 
L 1741 909 
Q 1741 475 1809 369 
Q 1878 263 2059 263 
Q 2259 263 2356 397 
Q 2453 531 2459 813 
L 2925 813 
Q 2897 313 2651 111 
Q 2406 -91 1806 -91 
Q 1122 -91 878 123 
Q 634 338 634 909 
L 634 2944 
z
" transform="scale(0.015625)"/>
     <path id="DejaVuSerif-Bold-6f" d="M 2138 263 
Q 2488 263 2630 563 
Q 2772 863 2772 1663 
Q 2772 2463 2631 2761 
Q 2491 3059 2138 3059 
Q 1784 3059 1640 2757 
Q 1497 2456 1497 1663 
Q 1497 869 1640 566 
Q 1784 263 2138 263 
z
M 2138 -91 
Q 1259 -91 761 376 
Q 263 844 263 1663 
Q 263 2484 761 2948 
Q 1259 3413 2138 3413 
Q 3019 3413 3516 2948 
Q 4013 2484 4013 1663 
Q 4013 844 3514 376 
Q 3016 -91 2138 -91 
z
" transform="scale(0.015625)"/>
     <path id="DejaVuSerif-Bold-28" d="M 2694 -997 
Q 1641 -606 1122 122 
Q 603 850 603 1931 
Q 603 3013 1115 3731 
Q 1628 4450 2694 4863 
L 2694 4488 
Q 2200 4188 1983 3598 
Q 1766 3009 1766 1931 
Q 1766 856 1983 267 
Q 2200 -322 2694 -622 
L 2694 -997 
z
" transform="scale(0.015625)"/>
     <path id="Cmmi10-b4" d="M 684 -72 
Q 606 -72 550 -22 
Q 494 28 494 109 
Q 494 147 500 166 
L 978 2075 
Q 1025 2253 1025 2388 
Q 1025 2663 838 2663 
Q 638 2663 541 2423 
Q 444 2184 353 1819 
Q 353 1800 334 1789 
Q 316 1778 300 1778 
L 225 1778 
Q 203 1778 187 1801 
Q 172 1825 172 1844 
Q 241 2122 305 2315 
Q 369 2509 505 2668 
Q 641 2828 844 2828 
Q 1081 2828 1267 2678 
Q 1453 2528 1453 2291 
Q 1641 2541 1894 2684 
Q 2147 2828 2444 2828 
Q 2778 2828 2979 2648 
Q 3181 2469 3181 2138 
Q 3181 1947 3138 1784 
L 2394 -1178 
Q 2375 -1269 2300 -1325 
Q 2225 -1381 2131 -1381 
Q 2053 -1381 1997 -1332 
Q 1941 -1284 1941 -1203 
Q 1941 -1166 1947 -1153 
L 2681 1797 
Q 2747 2059 2747 2234 
Q 2747 2413 2672 2538 
Q 2597 2663 2431 2663 
Q 1803 2663 1388 1888 
L 953 141 
Q 931 53 854 -9 
Q 778 -72 684 -72 
z
" transform="scale(0.015625)"/>
     <path id="Cmr10-3d" d="M 481 850 
Q 428 850 393 890 
Q 359 931 359 978 
Q 359 1031 393 1068 
Q 428 1106 481 1106 
L 4500 1106 
Q 4547 1106 4581 1068 
Q 4616 1031 4616 978 
Q 4616 931 4581 890 
Q 4547 850 4500 850 
L 481 850 
z
M 481 2094 
Q 428 2094 393 2131 
Q 359 2169 359 2222 
Q 359 2269 393 2309 
Q 428 2350 481 2350 
L 4500 2350 
Q 4547 2350 4581 2309 
Q 4616 2269 4616 2222 
Q 4616 2169 4581 2131 
Q 4547 2094 4500 2094 
L 481 2094 
z
" transform="scale(0.015625)"/>
     <path id="Cmr10-30" d="M 1600 -141 
Q 816 -141 533 504 
Q 250 1150 250 2041 
Q 250 2597 351 3087 
Q 453 3578 754 3920 
Q 1056 4263 1600 4263 
Q 2022 4263 2290 4056 
Q 2559 3850 2700 3523 
Q 2841 3197 2892 2823 
Q 2944 2450 2944 2041 
Q 2944 1491 2842 1011 
Q 2741 531 2444 195 
Q 2147 -141 1600 -141 
z
M 1600 25 
Q 1956 25 2131 390 
Q 2306 756 2347 1200 
Q 2388 1644 2388 2144 
Q 2388 2625 2347 3031 
Q 2306 3438 2132 3767 
Q 1959 4097 1600 4097 
Q 1238 4097 1063 3765 
Q 888 3434 847 3029 
Q 806 2625 806 2144 
Q 806 1788 823 1472 
Q 841 1156 916 820 
Q 991 484 1158 254 
Q 1325 25 1600 25 
z
" transform="scale(0.015625)"/>
     <path id="DejaVuSerif-Bold-29" d="M 325 -997 
L 325 -622 
Q 819 -322 1036 267 
Q 1253 856 1253 1931 
Q 1253 3009 1036 3598 
Q 819 4188 325 4488 
L 325 4863 
Q 1391 4450 1905 3731 
Q 2419 3013 2419 1931 
Q 2419 850 1898 122 
Q 1378 -606 325 -997 
z
" transform="scale(0.015625)"/>
    </defs>
    <use xlink:href="#DejaVuSerif-Bold-44" transform="translate(0 0.015625)"/>
    <use xlink:href="#DejaVuSerif-Bold-75" transform="translate(86.71875 0.015625)"/>
    <use xlink:href="#DejaVuSerif-Bold-61" transform="translate(159.423828 0.015625)"/>
    <use xlink:href="#DejaVuSerif-Bold-6c" transform="translate(224.21875 0.015625)"/>
    <use xlink:href="#DejaVuSerif-Bold-2d" transform="translate(262.207031 0.015625)"/>
    <use xlink:href="#DejaVuSerif-Bold-72" transform="translate(303.710938 0.015625)"/>
    <use xlink:href="#DejaVuSerif-Bold-61" transform="translate(356.396484 0.015625)"/>
    <use xlink:href="#DejaVuSerif-Bold-69" transform="translate(421.191406 0.015625)"/>
    <use xlink:href="#DejaVuSerif-Bold-6c" transform="translate(459.179688 0.015625)"/>
    <use xlink:href="#DejaVuSerif-Bold-20" transform="translate(497.167969 0.015625)"/>
    <use xlink:href="#DejaVuSerif-Bold-72" transform="translate(531.982422 0.015625)"/>
    <use xlink:href="#DejaVuSerif-Bold-65" transform="translate(584.667969 0.015625)"/>
    <use xlink:href="#DejaVuSerif-Bold-70" transform="translate(648.291016 0.015625)"/>
    <use xlink:href="#DejaVuSerif-Bold-72" transform="translate(718.212891 0.015625)"/>
    <use xlink:href="#DejaVuSerif-Bold-65" transform="translate(770.898438 0.015625)"/>
    <use xlink:href="#DejaVuSerif-Bold-73" transform="translate(834.521484 0.015625)"/>
    <use xlink:href="#DejaVuSerif-Bold-65" transform="translate(890.820312 0.015625)"/>
    <use xlink:href="#DejaVuSerif-Bold-6e" transform="translate(954.443359 0.015625)"/>
    <use xlink:href="#DejaVuSerif-Bold-74" transform="translate(1027.148438 0.015625)"/>
    <use xlink:href="#DejaVuSerif-Bold-61" transform="translate(1073.339844 0.015625)"/>
    <use xlink:href="#DejaVuSerif-Bold-74" transform="translate(1138.134766 0.015625)"/>
    <use xlink:href="#DejaVuSerif-Bold-69" transform="translate(1184.326172 0.015625)"/>
    <use xlink:href="#DejaVuSerif-Bold-6f" transform="translate(1222.314453 0.015625)"/>
    <use xlink:href="#DejaVuSerif-Bold-6e" transform="translate(1289.013672 0.015625)"/>
    <use xlink:href="#DejaVuSerif-Bold-20" transform="translate(1361.71875 0.015625)"/>
    <use xlink:href="#DejaVuSerif-Bold-28" transform="translate(1396.533203 0.015625)"/>
    <use xlink:href="#Cmmi10-b4" transform="translate(1443.847656 0.015625)"/>
    <use xlink:href="#Cmr10-3d" transform="translate(1511.015625 0.015625)"/>
    <use xlink:href="#Cmr10-31" transform="translate(1606.259766 0.015625)"/>
    <use xlink:href="#Cmr10-30" transform="translate(1656.259766 0.015625)"/>
    <use xlink:href="#DejaVuSerif-Bold-29" transform="translate(1706.259766 0.015625)"/>
   </g>
  </g>
 </g>
 <defs>
  <clipPath id="p8425851154">
   <rect x="61.856563" y="64.8" width="626.4" height="214.325581"/>
  </clipPath>
  <clipPath id="p3edef0f87e">
   <rect x="61.856563" y="311.274419" width="626.4" height="214.325581"/>
  </clipPath>
 </defs>
</svg>
