<?xml version="1.0" encoding="utf-8" standalone="no"?>
<!DOCTYPE svg PUBLIC "-//W3C//DTD SVG 1.1//EN"
  "http://www.w3.org/Graphics/SVG/1.1/DTD/svg11.dtd">
<svg xmlns:xlink="http://www.w3.org/1999/xlink" width="817.92pt" height="444.587969pt" viewBox="0 0 817.92 444.587969" xmlns="http://www.w3.org/2000/svg" version="1.1">
 <metadata>
  <rdf:RDF xmlns:dc="http://purl.org/dc/elements/1.1/" xmlns:cc="http://creativecommons.org/ns#" xmlns:rdf="http://www.w3.org/1999/02/22-rdf-syntax-ns#">
   <cc:Work>
    <dc:type rdf:resource="http://purl.org/dc/dcmitype/StillImage"/>
    <dc:date>2026-06-10T06:45:10.501086</dc:date>
    <dc:format>image/svg+xml</dc:format>
    <dc:creator>
     <cc:Agent>
      <dc:title>Matplotlib v3.10.8, https://matplotlib.org/</dc:title>
     </cc:Agent>
    </dc:creator>
   </cc:Work>
  </rdf:RDF>
 </metadata>
 <defs>
  <style type="text/css">*{stroke-linejoin: round; stroke-linecap: butt}</style>
 </defs>
 <g id="figure_1">
  <g id="patch_1">
   <path d="M 0 444.587969 
L 817.92 444.587969 
L 817.92 0 
L 0 0 
z
" style="fill: #ffffff"/>
  </g>
  <g id="axes_1">
   <g id="patch_2">
    <path d="M 7.2 275.077969 
L 810.72 275.077969 
L 810.72 23.077969 
L 7.2 23.077969 
z
" style="fill: #ffffff"/>
   </g>
   <g id="matplotlib.axis_1">
    <g id="xtick_1">
     <g id="line2d_1">
      <defs>
       <path id="ma7ac9651cf" d="M 0 0 
L 0 3.5 
" style="stroke: #000000; stroke-width: 0.8"/>
      </defs>
      <g>
       <use xlink:href="#ma7ac9651cf" x="26.48448" y="275.077969" style="stroke: #000000; stroke-width: 0.8"/>
      </g>
     </g>
     <g id="text_1">
      <!-- 0 -->
      <g transform="translate(22.348855 291.955938) scale(0.13 -0.13)">
       <defs>
        <path id="DejaVuSerif-30" d="M 2034 219 
Q 2513 219 2750 744 
Q 2988 1269 2988 2328 
Q 2988 3391 2750 3916 
Q 2513 4441 2034 4441 
Q 1556 4441 1318 3916 
Q 1081 3391 1081 2328 
Q 1081 1269 1318 744 
Q 1556 219 2034 219 
z
M 2034 -91 
Q 1275 -91 848 546 
Q 422 1184 422 2328 
Q 422 3475 848 4112 
Q 1275 4750 2034 4750 
Q 2797 4750 3222 4112 
Q 3647 3475 3647 2328 
Q 3647 1184 3222 546 
Q 2797 -91 2034 -91 
z
" transform="scale(0.015625)"/>
       </defs>
       <use xlink:href="#DejaVuSerif-30"/>
      </g>
     </g>
    </g>
    <g id="xtick_2">
     <g id="line2d_2">
      <g>
       <use xlink:href="#ma7ac9651cf" x="155.04768" y="275.077969" style="stroke: #000000; stroke-width: 0.8"/>
      </g>
     </g>
     <g id="text_2">
      <!-- 2 -->
      <g transform="translate(150.912055 291.955938) scale(0.13 -0.13)">
       <defs>
        <path id="DejaVuSerif-32" d="M 819 3553 
L 469 3553 
L 469 4384 
Q 803 4563 1142 4656 
Q 1481 4750 1806 4750 
Q 2534 4750 2956 4397 
Q 3378 4044 3378 3438 
Q 3378 2753 2422 1800 
Q 2347 1728 2309 1691 
L 1131 513 
L 3078 513 
L 3078 1088 
L 3444 1088 
L 3444 0 
L 434 0 
L 434 341 
L 1850 1753 
Q 2319 2222 2519 2614 
Q 2719 3006 2719 3438 
Q 2719 3909 2473 4175 
Q 2228 4441 1797 4441 
Q 1350 4441 1106 4219 
Q 863 3997 819 3553 
z
" transform="scale(0.015625)"/>
       </defs>
       <use xlink:href="#DejaVuSerif-32"/>
      </g>
     </g>
    </g>
    <g id="xtick_3">
     <g id="line2d_3">
      <g>
       <use xlink:href="#ma7ac9651cf" x="283.61088" y="275.077969" style="stroke: #000000; stroke-width: 0.8"/>
      </g>
     </g>
     <g id="text_3">
      <!-- 4 -->
      <g transform="translate(279.475255 291.955938) scale(0.13 -0.13)">
       <defs>
        <path id="DejaVuSerif-34" d="M 2234 1581 
L 2234 4063 
L 641 1581 
L 2234 1581 
z
M 3609 0 
L 1484 0 
L 1484 331 
L 2234 331 
L 2234 1247 
L 197 1247 
L 197 1588 
L 2241 4750 
L 2859 4750 
L 2859 1581 
L 3750 1581 
L 3750 1247 
L 2859 1247 
L 2859 331 
L 3609 331 
L 3609 0 
z
" transform="scale(0.015625)"/>
       </defs>
       <use xlink:href="#DejaVuSerif-34"/>
      </g>
     </g>
    </g>
    <g id="xtick_4">
     <g id="line2d_4">
      <g>
       <use xlink:href="#ma7ac9651cf" x="412.17408" y="275.077969" style="stroke: #000000; stroke-width: 0.8"/>
      </g>
     </g>
     <g id="text_4">
      <!-- 6 -->
      <g transform="translate(408.038455 291.955938) scale(0.13 -0.13)">
       <defs>
        <path id="DejaVuSerif-36" d="M 2094 219 
Q 2534 219 2771 542 
Q 3009 866 3009 1472 
Q 3009 2078 2771 2401 
Q 2534 2725 2094 2725 
Q 1647 2725 1412 2412 
Q 1178 2100 1178 1509 
Q 1178 888 1415 553 
Q 1653 219 2094 219 
z
M 1075 2569 
Q 1288 2803 1556 2918 
Q 1825 3034 2163 3034 
Q 2859 3034 3264 2615 
Q 3669 2197 3669 1472 
Q 3669 763 3233 336 
Q 2797 -91 2069 -91 
Q 1278 -91 853 498 
Q 428 1088 428 2181 
Q 428 3406 931 4078 
Q 1434 4750 2350 4750 
Q 2597 4750 2869 4703 
Q 3141 4656 3425 4563 
L 3425 3794 
L 3072 3794 
Q 3034 4109 2831 4275 
Q 2628 4441 2284 4441 
Q 1678 4441 1381 3981 
Q 1084 3522 1075 2569 
z
" transform="scale(0.015625)"/>
       </defs>
       <use xlink:href="#DejaVuSerif-36"/>
      </g>
     </g>
    </g>
    <g id="xtick_5">
     <g id="line2d_5">
      <g>
       <use xlink:href="#ma7ac9651cf" x="540.73728" y="275.077969" style="stroke: #000000; stroke-width: 0.8"/>
      </g>
     </g>
     <g id="text_5">
      <!-- 8 -->
      <g transform="translate(536.601655 291.955938) scale(0.13 -0.13)">
       <defs>
        <path id="DejaVuSerif-38" d="M 2981 1275 
Q 2981 1775 2732 2051 
Q 2484 2328 2034 2328 
Q 1584 2328 1336 2051 
Q 1088 1775 1088 1275 
Q 1088 772 1336 495 
Q 1584 219 2034 219 
Q 2484 219 2732 495 
Q 2981 772 2981 1275 
z
M 2853 3541 
Q 2853 3966 2637 4203 
Q 2422 4441 2034 4441 
Q 1650 4441 1433 4203 
Q 1216 3966 1216 3541 
Q 1216 3113 1433 2875 
Q 1650 2638 2034 2638 
Q 2422 2638 2637 2875 
Q 2853 3113 2853 3541 
z
M 2516 2484 
Q 3047 2413 3344 2092 
Q 3641 1772 3641 1275 
Q 3641 619 3225 264 
Q 2809 -91 2034 -91 
Q 1263 -91 845 264 
Q 428 619 428 1275 
Q 428 1772 725 2092 
Q 1022 2413 1556 2484 
Q 1084 2569 832 2842 
Q 581 3116 581 3541 
Q 581 4103 968 4426 
Q 1356 4750 2034 4750 
Q 2713 4750 3100 4426 
Q 3488 4103 3488 3541 
Q 3488 3116 3236 2842 
Q 2984 2569 2516 2484 
z
" transform="scale(0.015625)"/>
       </defs>
       <use xlink:href="#DejaVuSerif-38"/>
      </g>
     </g>
    </g>
    <g id="xtick_6">
     <g id="line2d_6">
      <g>
       <use xlink:href="#ma7ac9651cf" x="669.30048" y="275.077969" style="stroke: #000000; stroke-width: 0.8"/>
      </g>
     </g>
     <g id="text_6">
      <!-- 10 -->
      <g transform="translate(661.02923 291.955938) scale(0.13 -0.13)">
       <defs>
        <path id="DejaVuSerif-31" d="M 909 0 
L 909 331 
L 1722 331 
L 1722 4213 
L 781 3603 
L 781 4013 
L 1919 4750 
L 2350 4750 
L 2350 331 
L 3163 331 
L 3163 0 
L 909 0 
z
" transform="scale(0.015625)"/>
       </defs>
       <use xlink:href="#DejaVuSerif-31"/>
       <use xlink:href="#DejaVuSerif-30" transform="translate(63.623047 0)"/>
      </g>
     </g>
    </g>
    <g id="xtick_7">
     <g id="line2d_7">
      <g>
       <use xlink:href="#ma7ac9651cf" x="797.86368" y="275.077969" style="stroke: #000000; stroke-width: 0.8"/>
      </g>
     </g>
     <g id="text_7">
      <!-- 12 -->
      <g transform="translate(789.59243 291.955938) scale(0.13 -0.13)">
       <use xlink:href="#DejaVuSerif-31"/>
       <use xlink:href="#DejaVuSerif-32" transform="translate(63.623047 0)"/>
      </g>
     </g>
    </g>
    <g id="text_8">
     <!-- Time $t$ -->
     <g transform="translate(383.28 310.817031) scale(0.16 -0.16)">
      <defs>
       <path id="DejaVuSerif-54" d="M 1222 0 
L 1222 331 
L 1819 331 
L 1819 4294 
L 447 4294 
L 447 3566 
L 63 3566 
L 63 4666 
L 4206 4666 
L 4206 3566 
L 3822 3566 
L 3822 4294 
L 2450 4294 
L 2450 331 
L 3047 331 
L 3047 0 
L 1222 0 
z
" transform="scale(0.015625)"/>
       <path id="DejaVuSerif-69" d="M 622 4353 
Q 622 4497 726 4603 
Q 831 4709 978 4709 
Q 1122 4709 1226 4603 
Q 1331 4497 1331 4353 
Q 1331 4206 1228 4103 
Q 1125 4000 978 4000 
Q 831 4000 726 4103 
Q 622 4206 622 4353 
z
M 1356 331 
L 1900 331 
L 1900 0 
L 231 0 
L 231 331 
L 781 331 
L 781 2988 
L 231 2988 
L 231 3322 
L 1356 3322 
L 1356 331 
z
" transform="scale(0.015625)"/>
       <path id="DejaVuSerif-6d" d="M 3316 2675 
Q 3481 3041 3739 3227 
Q 3997 3413 4341 3413 
Q 4863 3413 5119 3089 
Q 5375 2766 5375 2113 
L 5375 331 
L 5894 331 
L 5894 0 
L 4300 0 
L 4300 331 
L 4800 331 
L 4800 2047 
Q 4800 2556 4650 2772 
Q 4500 2988 4153 2988 
Q 3769 2988 3567 2697 
Q 3366 2406 3366 1850 
L 3366 331 
L 3866 331 
L 3866 0 
L 2291 0 
L 2291 331 
L 2791 331 
L 2791 2069 
Q 2791 2566 2641 2777 
Q 2491 2988 2144 2988 
Q 1759 2988 1557 2697 
Q 1356 2406 1356 1850 
L 1356 331 
L 1856 331 
L 1856 0 
L 263 0 
L 263 331 
L 781 331 
L 781 2994 
L 231 2994 
L 231 3322 
L 1356 3322 
L 1356 2731 
Q 1516 3063 1762 3238 
Q 2009 3413 2322 3413 
Q 2709 3413 2968 3220 
Q 3228 3028 3316 2675 
z
" transform="scale(0.015625)"/>
       <path id="DejaVuSerif-65" d="M 3469 1600 
L 991 1600 
L 991 1575 
Q 991 903 1244 561 
Q 1497 219 1991 219 
Q 2369 219 2611 417 
Q 2853 616 2950 1006 
L 3413 1006 
Q 3275 459 2904 184 
Q 2534 -91 1931 -91 
Q 1203 -91 761 389 
Q 319 869 319 1663 
Q 319 2450 753 2931 
Q 1188 3413 1894 3413 
Q 2647 3413 3050 2948 
Q 3453 2484 3469 1600 
z
M 2791 1931 
Q 2772 2513 2545 2808 
Q 2319 3103 1894 3103 
Q 1497 3103 1269 2806 
Q 1041 2509 991 1931 
L 2791 1931 
z
" transform="scale(0.015625)"/>
       <path id="DejaVuSerif-20" transform="scale(0.015625)"/>
       <path id="Cmmi10-74" d="M 397 519 
Q 397 613 416 697 
L 878 2534 
L 206 2534 
Q 141 2534 141 2619 
Q 166 2759 225 2759 
L 934 2759 
L 1191 3803 
Q 1216 3888 1291 3947 
Q 1366 4006 1459 4006 
Q 1541 4006 1595 3957 
Q 1650 3909 1650 3828 
Q 1650 3809 1648 3798 
Q 1647 3788 1644 3775 
L 1388 2759 
L 2047 2759 
Q 2113 2759 2113 2675 
Q 2109 2659 2100 2621 
Q 2091 2584 2075 2559 
Q 2059 2534 2028 2534 
L 1331 2534 
L 872 684 
Q 825 503 825 372 
Q 825 97 1013 97 
Q 1294 97 1511 361 
Q 1728 625 1844 941 
Q 1869 978 1894 978 
L 1972 978 
Q 1997 978 2012 961 
Q 2028 944 2028 922 
Q 2028 909 2022 903 
Q 1881 516 1612 222 
Q 1344 -72 997 -72 
Q 744 -72 570 93 
Q 397 259 397 519 
z
" transform="scale(0.015625)"/>
      </defs>
      <use xlink:href="#DejaVuSerif-54" transform="translate(0 0.421875)"/>
      <use xlink:href="#DejaVuSerif-69" transform="translate(66.699219 0.421875)"/>
      <use xlink:href="#DejaVuSerif-6d" transform="translate(98.681641 0.421875)"/>
      <use xlink:href="#DejaVuSerif-65" transform="translate(193.505859 0.421875)"/>
      <use xlink:href="#DejaVuSerif-20" transform="translate(252.685547 0.421875)"/>
      <use xlink:href="#Cmmi10-74" transform="translate(284.472656 0.421875)"/>
     </g>
    </g>
   </g>
   <g id="matplotlib.axis_2"/>
   <g id="line2d_8">
    <path d="M 7.2 178.154892 
L 810.72 178.154892 
" clip-path="url(#p4f82dd8045)" style="fill: none; stroke: #4c4c4c; stroke-width: 2.5; stroke-linecap: square"/>
   </g>
   <g id="patch_3">
    <path d="M 7.2 275.077969 
L 7.2 23.077969 
" style="fill: none; stroke: #000000; stroke-width: 0.8; stroke-linejoin: miter; stroke-linecap: square"/>
   </g>
   <g id="patch_4">
    <path d="M 7.2 275.077969 
L 810.72 275.077969 
" style="fill: none; stroke: #000000; stroke-width: 0.8; stroke-linejoin: miter; stroke-linecap: square"/>
   </g>
   <g id="text_9">
    <!-- $t_1$ -->
    <g style="fill: #0072bd" transform="translate(74.00976 202.385661) scale(0.1 -0.1)">
     <defs>
      <path id="Cmr10-31" d="M 594 0 
L 594 225 
Q 1394 225 1394 428 
L 1394 3788 
Q 1063 3628 556 3628 
L 556 3853 
Q 1341 3853 1741 4263 
L 1831 4263 
Q 1853 4263 1873 4245 
Q 1894 4228 1894 4206 
L 1894 428 
Q 1894 225 2694 225 
L 2694 0 
L 594 0 
z
" transform="scale(0.015625)"/>
     </defs>
     <use xlink:href="#Cmmi10-74" transform="translate(0 0.40625)"/>
     <use xlink:href="#Cmr10-31" transform="translate(36.083984 -16.6) scale(0.7)"/>
    </g>
   </g>
   <g id="text_10">
    <!-- $t_2$ -->
    <g style="fill: #0072bd" transform="translate(151.14768 202.385661) scale(0.1 -0.1)">
     <defs>
      <path id="Cmr10-32" d="M 319 0 
L 319 172 
Q 319 188 331 206 
L 1325 1306 
Q 1550 1550 1690 1715 
Q 1831 1881 1968 2097 
Q 2106 2313 2186 2536 
Q 2266 2759 2266 3009 
Q 2266 3272 2169 3511 
Q 2072 3750 1880 3894 
Q 1688 4038 1416 4038 
Q 1138 4038 916 3870 
Q 694 3703 603 3438 
Q 628 3444 672 3444 
Q 816 3444 917 3347 
Q 1019 3250 1019 3097 
Q 1019 2950 917 2848 
Q 816 2747 672 2747 
Q 522 2747 420 2851 
Q 319 2956 319 3097 
Q 319 3338 409 3548 
Q 500 3759 670 3923 
Q 841 4088 1055 4175 
Q 1269 4263 1509 4263 
Q 1875 4263 2190 4108 
Q 2506 3953 2690 3670 
Q 2875 3388 2875 3009 
Q 2875 2731 2753 2481 
Q 2631 2231 2440 2026 
Q 2250 1822 1953 1562 
Q 1656 1303 1563 1216 
L 838 519 
L 1453 519 
Q 1906 519 2211 526 
Q 2516 534 2534 550 
Q 2609 631 2688 1141 
L 2875 1141 
L 2694 0 
L 319 0 
z
" transform="scale(0.015625)"/>
     </defs>
     <use xlink:href="#Cmmi10-74" transform="translate(0 0.40625)"/>
     <use xlink:href="#Cmr10-32" transform="translate(36.083984 -16.6) scale(0.7)"/>
    </g>
   </g>
   <g id="text_11">
    <!-- $t_3$ -->
    <g style="fill: #0072bd" transform="translate(241.14192 202.385661) scale(0.1 -0.1)">
     <defs>
      <path id="Cmr10-33" d="M 609 494 
Q 759 275 1012 169 
Q 1266 63 1556 63 
Q 1928 63 2084 380 
Q 2241 697 2241 1100 
Q 2241 1281 2208 1462 
Q 2175 1644 2097 1800 
Q 2019 1956 1883 2050 
Q 1747 2144 1550 2144 
L 1125 2144 
Q 1069 2144 1069 2203 
L 1069 2259 
Q 1069 2309 1125 2309 
L 1478 2338 
Q 1703 2338 1851 2506 
Q 2000 2675 2069 2917 
Q 2138 3159 2138 3378 
Q 2138 3684 1994 3881 
Q 1850 4078 1556 4078 
Q 1313 4078 1091 3986 
Q 869 3894 738 3706 
Q 750 3709 759 3711 
Q 769 3713 781 3713 
Q 925 3713 1022 3613 
Q 1119 3513 1119 3372 
Q 1119 3234 1022 3134 
Q 925 3034 781 3034 
Q 641 3034 541 3134 
Q 441 3234 441 3372 
Q 441 3647 606 3850 
Q 772 4053 1033 4158 
Q 1294 4263 1556 4263 
Q 1750 4263 1965 4205 
Q 2181 4147 2356 4039 
Q 2531 3931 2642 3762 
Q 2753 3594 2753 3378 
Q 2753 3109 2633 2881 
Q 2513 2653 2303 2487 
Q 2094 2322 1844 2241 
Q 2122 2188 2372 2031 
Q 2622 1875 2773 1631 
Q 2925 1388 2925 1106 
Q 2925 753 2731 467 
Q 2538 181 2222 20 
Q 1906 -141 1556 -141 
Q 1256 -141 954 -26 
Q 653 88 461 316 
Q 269 544 269 863 
Q 269 1022 375 1128 
Q 481 1234 641 1234 
Q 744 1234 830 1186 
Q 916 1138 964 1050 
Q 1013 963 1013 863 
Q 1013 706 903 600 
Q 794 494 641 494 
L 609 494 
z
" transform="scale(0.015625)"/>
     </defs>
     <use xlink:href="#Cmmi10-74" transform="translate(0 0.40625)"/>
     <use xlink:href="#Cmr10-33" transform="translate(36.083984 -16.6) scale(0.7)"/>
    </g>
   </g>
   <g id="text_12">
    <!-- $t_4$ -->
    <g style="fill: #0072bd" transform="translate(331.13616 202.385661) scale(0.1 -0.1)">
     <defs>
      <path id="Cmr10-34" d="M 178 1056 
L 178 1281 
L 2156 4231 
Q 2178 4263 2222 4263 
L 2316 4263 
Q 2388 4263 2388 4191 
L 2388 1281 
L 3016 1281 
L 3016 1056 
L 2388 1056 
L 2388 428 
Q 2388 297 2575 261 
Q 2763 225 3009 225 
L 3009 0 
L 1247 0 
L 1247 225 
Q 1494 225 1681 261 
Q 1869 297 1869 428 
L 1869 1056 
L 178 1056 
z
M 391 1281 
L 1906 1281 
L 1906 3547 
L 391 1281 
z
" transform="scale(0.015625)"/>
     </defs>
     <use xlink:href="#Cmmi10-74" transform="translate(0 0.40625)"/>
     <use xlink:href="#Cmr10-34" transform="translate(36.083984 -16.6) scale(0.7)"/>
    </g>
   </g>
   <g id="text_13">
    <!-- $t_5$ -->
    <g style="fill: #0072bd" transform="translate(485.412 202.385661) scale(0.1 -0.1)">
     <defs>
      <path id="Cmr10-35" d="M 556 728 
Q 622 541 758 387 
Q 894 234 1080 148 
Q 1266 63 1466 63 
Q 1928 63 2103 422 
Q 2278 781 2278 1294 
Q 2278 1516 2270 1667 
Q 2263 1819 2228 1959 
Q 2169 2184 2020 2353 
Q 1872 2522 1656 2522 
Q 1441 2522 1286 2456 
Q 1131 2391 1034 2303 
Q 938 2216 863 2119 
Q 788 2022 769 2016 
L 697 2016 
Q 681 2016 657 2036 
Q 634 2056 634 2075 
L 634 4213 
Q 634 4228 654 4245 
Q 675 4263 697 4263 
L 716 4263 
Q 1147 4056 1631 4056 
Q 2106 4056 2547 4263 
L 2566 4263 
Q 2588 4263 2606 4247 
Q 2625 4231 2625 4213 
L 2625 4153 
Q 2625 4122 2613 4122 
Q 2394 3831 2064 3668 
Q 1734 3506 1381 3506 
Q 1125 3506 856 3578 
L 856 2369 
Q 1069 2541 1236 2614 
Q 1403 2688 1663 2688 
Q 2016 2688 2295 2484 
Q 2575 2281 2725 1954 
Q 2875 1628 2875 1288 
Q 2875 903 2686 575 
Q 2497 247 2172 53 
Q 1847 -141 1466 -141 
Q 1150 -141 886 21 
Q 622 184 470 459 
Q 319 734 319 1044 
Q 319 1188 412 1278 
Q 506 1369 647 1369 
Q 788 1369 883 1276 
Q 978 1184 978 1044 
Q 978 906 883 811 
Q 788 716 647 716 
Q 625 716 597 720 
Q 569 725 556 728 
z
" transform="scale(0.015625)"/>
     </defs>
     <use xlink:href="#Cmmi10-74" transform="translate(0 0.40625)"/>
     <use xlink:href="#Cmr10-35" transform="translate(36.083984 -16.6) scale(0.7)"/>
    </g>
   </g>
   <g id="text_14">
    <!-- $t_6$ -->
    <g style="fill: #0072bd" transform="translate(568.97808 202.385661) scale(0.1 -0.1)">
     <defs>
      <path id="Cmr10-36" d="M 1600 -141 
Q 1203 -141 937 70 
Q 672 281 526 617 
Q 381 953 325 1322 
Q 269 1691 269 2069 
Q 269 2575 466 3084 
Q 663 3594 1045 3928 
Q 1428 4263 1953 4263 
Q 2172 4263 2361 4180 
Q 2550 4097 2658 3936 
Q 2766 3775 2766 3547 
Q 2766 3416 2677 3327 
Q 2588 3238 2456 3238 
Q 2331 3238 2240 3328 
Q 2150 3419 2150 3547 
Q 2150 3672 2240 3762 
Q 2331 3853 2456 3853 
L 2491 3853 
Q 2409 3969 2261 4023 
Q 2113 4078 1953 4078 
Q 1759 4078 1595 3993 
Q 1431 3909 1300 3765 
Q 1169 3622 1081 3448 
Q 994 3275 945 3053 
Q 897 2831 884 2637 
Q 872 2444 872 2150 
Q 984 2413 1190 2580 
Q 1397 2747 1656 2747 
Q 1941 2747 2175 2631 
Q 2409 2516 2578 2311 
Q 2747 2106 2836 1843 
Q 2925 1581 2925 1313 
Q 2925 938 2758 598 
Q 2591 259 2287 59 
Q 1984 -141 1600 -141 
z
M 1600 63 
Q 1847 63 1997 175 
Q 2147 288 2217 473 
Q 2288 659 2305 848 
Q 2322 1038 2322 1313 
Q 2322 1675 2287 1931 
Q 2253 2188 2100 2383 
Q 1947 2578 1631 2578 
Q 1372 2578 1205 2403 
Q 1038 2228 961 1961 
Q 884 1694 884 1447 
Q 884 1363 891 1319 
Q 891 1309 889 1303 
Q 888 1297 884 1288 
Q 884 1013 940 731 
Q 997 450 1156 256 
Q 1316 63 1600 63 
z
" transform="scale(0.015625)"/>
     </defs>
     <use xlink:href="#Cmmi10-74" transform="translate(0 0.40625)"/>
     <use xlink:href="#Cmr10-36" transform="translate(36.083984 -16.6) scale(0.7)"/>
    </g>
   </g>
   <g id="text_15">
    <!-- $t_7$ -->
    <g style="fill: #0072bd" transform="translate(633.25968 202.385661) scale(0.1 -0.1)">
     <defs>
      <path id="Cmr10-37" d="M 1113 166 
Q 1113 522 1175 862 
Q 1238 1203 1358 1536 
Q 1478 1869 1648 2189 
Q 1819 2509 2022 2791 
L 2606 3603 
L 1875 3603 
Q 738 3603 703 3572 
Q 619 3469 544 2981 
L 359 2981 
L 569 4325 
L 756 4325 
L 756 4306 
Q 756 4191 1147 4156 
Q 1538 4122 1913 4122 
L 3103 4122 
L 3103 3956 
Q 3103 3950 3101 3947 
Q 3100 3944 3097 3938 
L 2216 2700 
Q 1891 2219 1809 1631 
Q 1728 1044 1728 166 
Q 1728 41 1637 -50 
Q 1547 -141 1422 -141 
Q 1294 -141 1203 -50 
Q 1113 41 1113 166 
z
" transform="scale(0.015625)"/>
     </defs>
     <use xlink:href="#Cmmi10-74" transform="translate(0 0.40625)"/>
     <use xlink:href="#Cmr10-37" transform="translate(36.083984 -16.6) scale(0.7)"/>
    </g>
   </g>
   <g id="patch_5">
    <path d="M 29.825505 231.462584 
Q 52.19677 231.462584 74.568036 231.462584 
" style="fill: none; stroke: #808080; stroke-width: 1.2; stroke-linecap: round"/>
    <path d="M 35.425505 234.262584 
L 29.825505 231.462584 
L 35.425505 228.662584 
" style="fill: none; stroke: #808080; stroke-width: 1.2; stroke-linecap: round"/>
    <path d="M 68.968036 228.662584 
L 74.568036 231.462584 
L 68.968036 234.262584 
" style="fill: none; stroke: #808080; stroke-width: 1.2; stroke-linecap: round"/>
   </g>
   <g id="text_16">
    <!-- $\tau_1$ -->
    <g style="fill: #737373" transform="translate(47.89712 247.939507) scale(0.1 -0.1)">
     <defs>
      <path id="Cmmi10-bf" d="M 997 97 
Q 997 141 1006 166 
L 1678 2363 
L 1100 2363 
Q 866 2363 662 2216 
Q 459 2069 325 1844 
Q 313 1819 288 1819 
L 213 1819 
Q 153 1819 153 1881 
Q 153 1894 166 1919 
Q 375 2275 614 2517 
Q 853 2759 1153 2759 
L 3116 2759 
Q 3184 2759 3231 2712 
Q 3278 2666 3278 2597 
Q 3278 2503 3211 2433 
Q 3144 2363 3047 2363 
L 1888 2363 
L 1459 153 
Q 1434 50 1365 -17 
Q 1297 -84 1191 -84 
Q 1109 -84 1053 -32 
Q 997 19 997 97 
z
" transform="scale(0.015625)"/>
     </defs>
     <use xlink:href="#Cmmi10-bf" transform="translate(0 0.890625)"/>
     <use xlink:href="#Cmr10-31" transform="translate(43.701172 -16.115625) scale(0.7)"/>
    </g>
   </g>
   <g id="patch_6">
    <path d="M 81.252354 231.462584 
Q 116.477156 231.462584 151.701959 231.462584 
" style="fill: none; stroke: #808080; stroke-width: 1.2; stroke-linecap: round"/>
    <path d="M 86.852354 234.262584 
L 81.252354 231.462584 
L 86.852354 228.662584 
" style="fill: none; stroke: #808080; stroke-width: 1.2; stroke-linecap: round"/>
    <path d="M 146.101959 228.662584 
L 151.701959 231.462584 
L 146.101959 234.262584 
" style="fill: none; stroke: #808080; stroke-width: 1.2; stroke-linecap: round"/>
   </g>
   <g id="text_17">
    <!-- $\tau_2$ -->
    <g style="fill: #737373" transform="translate(112.17872 247.939507) scale(0.1 -0.1)">
     <use xlink:href="#Cmmi10-bf" transform="translate(0 0.890625)"/>
     <use xlink:href="#Cmr10-32" transform="translate(43.701172 -16.115625) scale(0.7)"/>
    </g>
   </g>
   <g id="patch_7">
    <path d="M 158.391451 231.462584 
Q 200.045589 231.462584 241.699726 231.462584 
" style="fill: none; stroke: #808080; stroke-width: 1.2; stroke-linecap: round"/>
    <path d="M 163.991451 234.262584 
L 158.391451 231.462584 
L 163.991451 228.662584 
" style="fill: none; stroke: #808080; stroke-width: 1.2; stroke-linecap: round"/>
    <path d="M 236.099726 228.662584 
L 241.699726 231.462584 
L 236.099726 234.262584 
" style="fill: none; stroke: #808080; stroke-width: 1.2; stroke-linecap: round"/>
   </g>
   <g id="text_18">
    <!-- $\tau_3$ -->
    <g style="fill: #737373" transform="translate(195.7448 247.939507) scale(0.1 -0.1)">
     <use xlink:href="#Cmmi10-bf" transform="translate(0 0.890625)"/>
     <use xlink:href="#Cmr10-33" transform="translate(43.701172 -16.115625) scale(0.7)"/>
    </g>
   </g>
   <g id="patch_8">
    <path d="M 248.385691 231.462584 
Q 290.039829 231.462584 331.693966 231.462584 
" style="fill: none; stroke: #808080; stroke-width: 1.2; stroke-linecap: round"/>
    <path d="M 253.985691 234.262584 
L 248.385691 231.462584 
L 253.985691 228.662584 
" style="fill: none; stroke: #808080; stroke-width: 1.2; stroke-linecap: round"/>
    <path d="M 326.093966 228.662584 
L 331.693966 231.462584 
L 326.093966 234.262584 
" style="fill: none; stroke: #808080; stroke-width: 1.2; stroke-linecap: round"/>
   </g>
   <g id="text_19">
    <!-- $\tau_4$ -->
    <g style="fill: #737373" transform="translate(285.73904 247.939507) scale(0.1 -0.1)">
     <use xlink:href="#Cmmi10-bf" transform="translate(0 0.890625)"/>
     <use xlink:href="#Cmr10-34" transform="translate(43.701172 -16.115625) scale(0.7)"/>
    </g>
   </g>
   <g id="patch_9">
    <path d="M 338.378754 231.462584 
Q 412.173115 231.462584 485.967476 231.462584 
" style="fill: none; stroke: #808080; stroke-width: 1.2; stroke-linecap: round"/>
    <path d="M 343.978754 234.262584 
L 338.378754 231.462584 
L 343.978754 228.662584 
" style="fill: none; stroke: #808080; stroke-width: 1.2; stroke-linecap: round"/>
    <path d="M 480.367476 228.662584 
L 485.967476 231.462584 
L 480.367476 234.262584 
" style="fill: none; stroke: #808080; stroke-width: 1.2; stroke-linecap: round"/>
   </g>
   <g id="text_20">
    <!-- $\tau_5$ -->
    <g style="fill: #737373" transform="translate(407.87408 247.939507) scale(0.1 -0.1)">
     <use xlink:href="#Cmmi10-bf" transform="translate(0 0.890625)"/>
     <use xlink:href="#Cmr10-35" transform="translate(43.701172 -16.115625) scale(0.7)"/>
    </g>
   </g>
   <g id="patch_10">
    <path d="M 492.655575 231.462584 
Q 531.097862 231.462584 569.540149 231.462584 
" style="fill: none; stroke: #808080; stroke-width: 1.2; stroke-linecap: round"/>
    <path d="M 498.255575 234.262584 
L 492.655575 231.462584 
L 498.255575 228.662584 
" style="fill: none; stroke: #808080; stroke-width: 1.2; stroke-linecap: round"/>
    <path d="M 563.940149 228.662584 
L 569.540149 231.462584 
L 563.940149 234.262584 
" style="fill: none; stroke: #808080; stroke-width: 1.2; stroke-linecap: round"/>
   </g>
   <g id="text_21">
    <!-- $\tau_6$ -->
    <g style="fill: #737373" transform="translate(526.79504 247.939507) scale(0.1 -0.1)">
     <use xlink:href="#Cmmi10-bf" transform="translate(0 0.890625)"/>
     <use xlink:href="#Cmr10-36" transform="translate(43.701172 -16.115625) scale(0.7)"/>
    </g>
   </g>
   <g id="line2d_9">
    <path d="M 404.460288 275.077969 
L 404.460288 23.077969 
" clip-path="url(#p4f82dd8045)" style="fill: none; stroke: #a2142f; stroke-width: 3; stroke-linecap: square"/>
   </g>
   <g id="text_22">
    <!-- "now" ($s$) -->
    <g style="fill: #a2142f" transform="translate(410.888448 57.001046) scale(0.13 -0.13)">
     <defs>
      <path id="DejaVuSerif-Bold-22" d="M 1350 4666 
L 1350 2931 
L 609 2931 
L 609 4666 
L 1350 4666 
z
M 2725 4666 
L 2725 2931 
L 1984 2931 
L 1984 4666 
L 2725 4666 
z
" transform="scale(0.015625)"/>
      <path id="DejaVuSerif-Bold-6e" d="M 219 0 
L 219 378 
L 691 378 
L 691 2944 
L 219 2944 
L 219 3322 
L 1797 3322 
L 1797 2853 
Q 1997 3150 2253 3281 
Q 2509 3413 2900 3413 
Q 3459 3413 3745 3083 
Q 4031 2753 4031 2113 
L 4031 378 
L 4506 378 
L 4506 0 
L 2522 0 
L 2522 378 
L 2925 378 
L 2925 2144 
Q 2925 2566 2817 2730 
Q 2709 2894 2444 2894 
Q 2109 2894 1953 2648 
Q 1797 2403 1797 1869 
L 1797 378 
L 2203 378 
L 2203 0 
L 219 0 
z
" transform="scale(0.015625)"/>
      <path id="DejaVuSerif-Bold-6f" d="M 2138 263 
Q 2488 263 2630 563 
Q 2772 863 2772 1663 
Q 2772 2463 2631 2761 
Q 2491 3059 2138 3059 
Q 1784 3059 1640 2757 
Q 1497 2456 1497 1663 
Q 1497 869 1640 566 
Q 1784 263 2138 263 
z
M 2138 -91 
Q 1259 -91 761 376 
Q 263 844 263 1663 
Q 263 2484 761 2948 
Q 1259 3413 2138 3413 
Q 3019 3413 3516 2948 
Q 4013 2484 4013 1663 
Q 4013 844 3514 376 
Q 3016 -91 2138 -91 
z
" transform="scale(0.015625)"/>
      <path id="DejaVuSerif-Bold-77" d="M 3450 3322 
L 4206 1106 
L 4831 2944 
L 4397 2944 
L 4397 3322 
L 5638 3322 
L 5638 2944 
L 5247 2944 
L 4244 0 
L 3481 0 
L 2778 2081 
L 2069 0 
L 1313 0 
L 306 2944 
L -56 2944 
L -56 3322 
L 1825 3322 
L 1825 2944 
L 1434 2944 
L 2047 1147 
L 2791 3322 
L 3450 3322 
z
" transform="scale(0.015625)"/>
      <path id="DejaVuSerif-Bold-20" transform="scale(0.015625)"/>
      <path id="DejaVuSerif-Bold-28" d="M 2694 -997 
Q 1641 -606 1122 122 
Q 603 850 603 1931 
Q 603 3013 1115 3731 
Q 1628 4450 2694 4863 
L 2694 4488 
Q 2200 4188 1983 3598 
Q 1766 3009 1766 1931 
Q 1766 856 1983 267 
Q 2200 -322 2694 -622 
L 2694 -997 
z
" transform="scale(0.015625)"/>
      <path id="Cmmi10-73" d="M 556 391 
Q 728 97 1247 97 
Q 1472 97 1675 173 
Q 1878 250 2011 403 
Q 2144 556 2144 775 
Q 2144 941 2025 1047 
Q 1906 1153 1734 1191 
L 1388 1259 
Q 1150 1319 997 1481 
Q 844 1644 844 1875 
Q 844 2159 998 2378 
Q 1153 2597 1406 2712 
Q 1659 2828 1931 2828 
Q 2222 2828 2451 2689 
Q 2681 2550 2681 2278 
Q 2681 2131 2598 2018 
Q 2516 1906 2369 1906 
Q 2284 1906 2223 1961 
Q 2163 2016 2163 2100 
Q 2163 2175 2205 2245 
Q 2247 2316 2317 2358 
Q 2388 2400 2463 2400 
Q 2406 2538 2251 2600 
Q 2097 2663 1919 2663 
Q 1756 2663 1593 2597 
Q 1431 2531 1332 2404 
Q 1234 2278 1234 2106 
Q 1234 1991 1315 1903 
Q 1397 1816 1516 1778 
L 1888 1703 
Q 2066 1666 2214 1570 
Q 2363 1475 2448 1329 
Q 2534 1184 2534 997 
Q 2534 759 2401 528 
Q 2269 297 2075 159 
Q 1734 -72 1241 -72 
Q 900 -72 615 84 
Q 331 241 331 550 
Q 331 725 432 854 
Q 534 984 709 984 
Q 813 984 883 921 
Q 953 859 953 756 
Q 953 609 843 500 
Q 734 391 588 391 
L 556 391 
z
" transform="scale(0.015625)"/>
      <path id="DejaVuSerif-Bold-29" d="M 325 -997 
L 325 -622 
Q 819 -322 1036 267 
Q 1253 856 1253 1931 
Q 1253 3009 1036 3598 
Q 819 4188 325 4488 
L 325 4863 
Q 1391 4450 1905 3731 
Q 2419 3013 2419 1931 
Q 2419 850 1898 122 
Q 1378 -606 325 -997 
z
" transform="scale(0.015625)"/>
     </defs>
     <use xlink:href="#DejaVuSerif-Bold-22" transform="translate(0 0.015625)"/>
     <use xlink:href="#DejaVuSerif-Bold-6e" transform="translate(52.099609 0.015625)"/>
     <use xlink:href="#DejaVuSerif-Bold-6f" transform="translate(124.804688 0.015625)"/>
     <use xlink:href="#DejaVuSerif-Bold-77" transform="translate(191.503906 0.015625)"/>
     <use xlink:href="#DejaVuSerif-Bold-22" transform="translate(277.587891 0.015625)"/>
     <use xlink:href="#DejaVuSerif-Bold-20" transform="translate(329.6875 0.015625)"/>
     <use xlink:href="#DejaVuSerif-Bold-28" transform="translate(364.501953 0.015625)"/>
     <use xlink:href="#Cmmi10-73" transform="translate(411.816406 0.015625)"/>
     <use xlink:href="#DejaVuSerif-Bold-29" transform="translate(458.59375 0.015625)"/>
    </g>
   </g>
   <g id="patch_11">
    <path d="M 339.83161 129.693353 
Q 368.14005 129.693353 396.448489 129.693353 
" style="fill: none; stroke: #d95319; stroke-width: 2.5; stroke-linecap: round"/>
    <path d="M 345.43161 132.493353 
L 339.83161 129.693353 
L 345.43161 126.893353 
" style="fill: none; stroke: #d95319; stroke-width: 2.5; stroke-linecap: round"/>
    <path d="M 390.848489 126.893353 
L 396.448489 129.693353 
L 390.848489 132.493353 
" style="fill: none; stroke: #d95319; stroke-width: 2.5; stroke-linecap: round"/>
   </g>
   <g id="text_23">
    <!-- already waited -->
    <g style="fill: #d95319" transform="translate(301.917874 115.154892) scale(0.11 -0.11)">
     <defs>
      <path id="DejaVuSerif-Bold-61" d="M 3525 2041 
L 3525 378 
L 4000 378 
L 4000 0 
L 2419 0 
L 2419 422 
Q 2200 159 1931 34 
Q 1663 -91 1319 -91 
Q 809 -91 536 182 
Q 263 456 263 966 
Q 263 1525 655 1803 
Q 1047 2081 1838 2081 
L 2419 2081 
L 2419 2278 
Q 2419 2681 2228 2873 
Q 2038 3066 1638 3066 
Q 1306 3066 1126 2930 
Q 947 2794 872 2484 
L 519 2484 
L 519 3200 
Q 816 3306 1134 3359 
Q 1453 3413 1806 3413 
Q 2697 3413 3111 3081 
Q 3525 2750 3525 2041 
z
M 2419 1044 
L 2419 1709 
L 2003 1709 
Q 1694 1709 1528 1540 
Q 1363 1372 1363 1056 
Q 1363 741 1483 584 
Q 1603 428 1850 428 
Q 2106 428 2262 597 
Q 2419 766 2419 1044 
z
" transform="scale(0.015625)"/>
      <path id="DejaVuSerif-Bold-6c" d="M 1797 378 
L 2272 378 
L 2272 0 
L 219 0 
L 219 378 
L 691 378 
L 691 4488 
L 219 4488 
L 219 4863 
L 1797 4863 
L 1797 378 
z
" transform="scale(0.015625)"/>
      <path id="DejaVuSerif-Bold-72" d="M 3438 3359 
L 3438 2369 
L 3084 2369 
Q 3066 2634 2941 2764 
Q 2816 2894 2578 2894 
Q 2216 2894 2006 2575 
Q 1797 2256 1797 1691 
L 1797 378 
L 2400 378 
L 2400 0 
L 219 0 
L 219 378 
L 691 378 
L 691 2944 
L 184 2944 
L 184 3322 
L 1797 3322 
L 1797 2731 
Q 1959 3078 2226 3245 
Q 2494 3413 2881 3413 
Q 2978 3413 3117 3398 
Q 3256 3384 3438 3359 
z
" transform="scale(0.015625)"/>
      <path id="DejaVuSerif-Bold-65" d="M 2566 1875 
Q 2566 2531 2444 2795 
Q 2322 3059 2028 3059 
Q 1744 3059 1620 2800 
Q 1497 2541 1497 1931 
L 1497 1875 
L 2566 1875 
z
M 3781 1503 
L 1497 1503 
L 1497 1478 
Q 1497 834 1690 548 
Q 1884 263 2316 263 
Q 2675 263 2897 453 
Q 3119 644 3181 1006 
L 3700 1006 
Q 3566 441 3166 175 
Q 2766 -91 2047 -91 
Q 1184 -91 723 364 
Q 263 819 263 1663 
Q 263 2488 734 2950 
Q 1206 3413 2047 3413 
Q 2872 3413 3312 2927 
Q 3753 2441 3781 1503 
z
" transform="scale(0.015625)"/>
      <path id="DejaVuSerif-Bold-64" d="M 2747 1497 
L 2747 1825 
Q 2747 2406 2597 2665 
Q 2447 2925 2119 2925 
Q 1775 2925 1636 2651 
Q 1497 2378 1497 1663 
Q 1497 947 1637 672 
Q 1778 397 2119 397 
Q 2447 397 2597 656 
Q 2747 916 2747 1497 
z
M 3853 378 
L 4325 378 
L 4325 0 
L 2747 0 
L 2747 422 
Q 2606 163 2367 36 
Q 2128 -91 1778 -91 
Q 1072 -91 667 378 
Q 263 847 263 1663 
Q 263 2481 667 2947 
Q 1072 3413 1778 3413 
Q 2128 3413 2367 3286 
Q 2606 3159 2747 2900 
L 2747 4488 
L 2272 4488 
L 2272 4863 
L 3853 4863 
L 3853 378 
z
" transform="scale(0.015625)"/>
      <path id="DejaVuSerif-Bold-79" d="M 1997 -750 
Q 1847 -1116 1634 -1269 
Q 1422 -1422 1063 -1422 
Q 909 -1422 721 -1387 
Q 534 -1353 313 -1288 
L 313 -594 
L 666 -597 
Q 675 -838 779 -953 
Q 884 -1069 1094 -1069 
Q 1297 -1069 1422 -958 
Q 1547 -847 1672 -538 
L 1722 -422 
L 275 2944 
L -84 2944 
L -84 3322 
L 1831 3322 
L 1831 2944 
L 1434 2944 
L 2278 978 
L 3066 2944 
L 2625 2944 
L 2625 3322 
L 3872 3322 
L 3872 2944 
L 3469 2944 
L 1997 -750 
z
" transform="scale(0.015625)"/>
      <path id="DejaVuSerif-Bold-69" d="M 588 4263 
Q 588 4516 763 4689 
Q 938 4863 1191 4863 
Q 1438 4863 1611 4689 
Q 1784 4516 1784 4263 
Q 1784 4016 1611 3842 
Q 1438 3669 1191 3669 
Q 938 3669 763 3841 
Q 588 4013 588 4263 
z
M 1797 378 
L 2272 378 
L 2272 0 
L 219 0 
L 219 378 
L 691 378 
L 691 2944 
L 219 2944 
L 219 3322 
L 1797 3322 
L 1797 378 
z
" transform="scale(0.015625)"/>
      <path id="DejaVuSerif-Bold-74" d="M 634 2944 
L 153 2944 
L 153 3322 
L 634 3322 
L 634 4353 
L 1741 4353 
L 1741 3322 
L 2663 3322 
L 2663 2944 
L 1741 2944 
L 1741 909 
Q 1741 475 1809 369 
Q 1878 263 2059 263 
Q 2259 263 2356 397 
Q 2453 531 2459 813 
L 2925 813 
Q 2897 313 2651 111 
Q 2406 -91 1806 -91 
Q 1122 -91 878 123 
Q 634 338 634 909 
L 634 2944 
z
" transform="scale(0.015625)"/>
     </defs>
     <use xlink:href="#DejaVuSerif-Bold-61"/>
     <use xlink:href="#DejaVuSerif-Bold-6c" transform="translate(64.794922 0)"/>
     <use xlink:href="#DejaVuSerif-Bold-72" transform="translate(102.783203 0)"/>
     <use xlink:href="#DejaVuSerif-Bold-65" transform="translate(155.46875 0)"/>
     <use xlink:href="#DejaVuSerif-Bold-61" transform="translate(219.091797 0)"/>
     <use xlink:href="#DejaVuSerif-Bold-64" transform="translate(283.886719 0)"/>
     <use xlink:href="#DejaVuSerif-Bold-79" transform="translate(353.808594 0)"/>
     <use xlink:href="#DejaVuSerif-Bold-20" transform="translate(411.914062 0)"/>
     <use xlink:href="#DejaVuSerif-Bold-77" transform="translate(446.728516 0)"/>
     <use xlink:href="#DejaVuSerif-Bold-61" transform="translate(532.8125 0)"/>
     <use xlink:href="#DejaVuSerif-Bold-69" transform="translate(597.607422 0)"/>
     <use xlink:href="#DejaVuSerif-Bold-74" transform="translate(635.595703 0)"/>
     <use xlink:href="#DejaVuSerif-Bold-65" transform="translate(681.787109 0)"/>
     <use xlink:href="#DejaVuSerif-Bold-64" transform="translate(745.410156 0)"/>
    </g>
   </g>
   <g id="patch_12">
    <path d="M 412.467542 95.770276 
Q 448.493332 95.770276 484.519121 95.770276 
" style="fill: none; stroke: #77ac30; stroke-width: 2.5; stroke-linecap: round"/>
    <path d="M 418.067542 98.570276 
L 412.467542 95.770276 
L 418.067542 92.970276 
" style="fill: none; stroke: #77ac30; stroke-width: 2.5; stroke-linecap: round"/>
    <path d="M 478.919121 92.970276 
L 484.519121 95.770276 
L 478.919121 98.570276 
" style="fill: none; stroke: #77ac30; stroke-width: 2.5; stroke-linecap: round"/>
   </g>
   <g id="text_24">
    <!-- remaining wait -->
    <g style="fill: #77ac30" transform="translate(417.316608 81.231815) scale(0.11 -0.11)">
     <defs>
      <path id="DejaVuSerif-Bold-6d" d="M 3884 2778 
Q 4116 3109 4384 3261 
Q 4653 3413 5013 3413 
Q 5584 3413 5867 3089 
Q 6150 2766 6150 2113 
L 6150 378 
L 6625 378 
L 6625 0 
L 4647 0 
L 4647 378 
L 5044 378 
L 5044 1947 
Q 5044 2569 4948 2731 
Q 4853 2894 4594 2894 
Q 4300 2894 4137 2667 
Q 3975 2441 3975 2022 
L 3975 378 
L 4372 378 
L 4372 0 
L 2472 0 
L 2472 378 
L 2869 378 
L 2869 1947 
Q 2869 2569 2772 2731 
Q 2675 2894 2419 2894 
Q 2122 2894 1959 2667 
Q 1797 2441 1797 2022 
L 1797 378 
L 2194 378 
L 2194 0 
L 219 0 
L 219 378 
L 691 378 
L 691 2944 
L 219 2944 
L 219 3322 
L 1797 3322 
L 1797 2853 
Q 1991 3144 2241 3278 
Q 2491 3413 2834 3413 
Q 3241 3413 3494 3258 
Q 3747 3103 3884 2778 
z
" transform="scale(0.015625)"/>
      <path id="DejaVuSerif-Bold-67" d="M 3853 2944 
L 3853 44 
Q 3853 -656 3354 -1039 
Q 2856 -1422 1947 -1422 
Q 1616 -1422 1275 -1370 
Q 934 -1319 575 -1216 
L 575 -422 
L 928 -422 
Q 975 -750 1192 -909 
Q 1409 -1069 1813 -1069 
Q 2325 -1069 2536 -823 
Q 2747 -578 2747 44 
L 2747 422 
Q 2606 163 2367 36 
Q 2128 -91 1778 -91 
Q 1072 -91 667 378 
Q 263 847 263 1663 
Q 263 2481 667 2947 
Q 1072 3413 1778 3413 
Q 2128 3413 2367 3286 
Q 2606 3159 2747 2900 
L 2747 3322 
L 4325 3322 
L 4325 2944 
L 3853 2944 
z
M 2747 1825 
Q 2747 2406 2597 2665 
Q 2447 2925 2119 2925 
Q 1775 2925 1636 2651 
Q 1497 2378 1497 1663 
Q 1497 947 1637 672 
Q 1778 397 2119 397 
Q 2447 397 2597 656 
Q 2747 916 2747 1497 
L 2747 1825 
z
" transform="scale(0.015625)"/>
     </defs>
     <use xlink:href="#DejaVuSerif-Bold-72"/>
     <use xlink:href="#DejaVuSerif-Bold-65" transform="translate(52.685547 0)"/>
     <use xlink:href="#DejaVuSerif-Bold-6d" transform="translate(116.308594 0)"/>
     <use xlink:href="#DejaVuSerif-Bold-61" transform="translate(222.119141 0)"/>
     <use xlink:href="#DejaVuSerif-Bold-69" transform="translate(286.914062 0)"/>
     <use xlink:href="#DejaVuSerif-Bold-6e" transform="translate(324.902344 0)"/>
     <use xlink:href="#DejaVuSerif-Bold-69" transform="translate(397.607422 0)"/>
     <use xlink:href="#DejaVuSerif-Bold-6e" transform="translate(435.595703 0)"/>
     <use xlink:href="#DejaVuSerif-Bold-67" transform="translate(508.300781 0)"/>
     <use xlink:href="#DejaVuSerif-Bold-20" transform="translate(578.222656 0)"/>
     <use xlink:href="#DejaVuSerif-Bold-77" transform="translate(613.037109 0)"/>
     <use xlink:href="#DejaVuSerif-Bold-61" transform="translate(699.121094 0)"/>
     <use xlink:href="#DejaVuSerif-Bold-69" transform="translate(763.916016 0)"/>
     <use xlink:href="#DejaVuSerif-Bold-74" transform="translate(801.904297 0)"/>
    </g>
   </g>
   <g id="text_25">
    <g id="patch_13">
     <path d="M 357.2844 441.787969 
L 786.6144 441.787969 
Q 791.0144 441.787969 791.0144 437.387969 
L 791.0144 426.277969 
Q 791.0144 421.877969 786.6144 421.877969 
L 357.2844 421.877969 
Q 352.8844 421.877969 352.8844 426.277969 
L 352.8844 437.387969 
Q 352.8844 441.787969 357.2844 441.787969 
z
" style="fill: #ebf5e0; stroke: #77ac30; stroke-linejoin: miter"/>
    </g>
    <!-- $\tau_i \sim \mathrm{Exp}(\lambda)$ i.i.d.    Remaining wait $\sim \mathrm{Exp}(\lambda)$, regardless of time already waited -->
    <g transform="translate(357.2844 434.637969) scale(0.11 -0.11)">
     <defs>
      <path id="Cmmi10-69" d="M 500 459 
Q 500 578 550 709 
L 1069 2088 
Q 1153 2322 1153 2472 
Q 1153 2663 1013 2663 
Q 759 2663 595 2402 
Q 431 2141 353 1819 
Q 341 1778 300 1778 
L 225 1778 
Q 172 1778 172 1838 
L 172 1856 
Q 275 2238 487 2533 
Q 700 2828 1025 2828 
Q 1253 2828 1411 2678 
Q 1569 2528 1569 2297 
Q 1569 2178 1516 2047 
L 997 672 
Q 909 459 909 288 
Q 909 97 1056 97 
Q 1306 97 1473 364 
Q 1641 631 1709 941 
Q 1722 978 1759 978 
L 1838 978 
Q 1863 978 1878 961 
Q 1894 944 1894 922 
Q 1894 916 1888 903 
Q 1800 541 1583 234 
Q 1366 -72 1044 -72 
Q 819 -72 659 83 
Q 500 238 500 459 
z
M 1222 3878 
Q 1222 4013 1334 4122 
Q 1447 4231 1581 4231 
Q 1691 4231 1761 4164 
Q 1831 4097 1831 3994 
Q 1831 3850 1717 3742 
Q 1603 3634 1466 3634 
Q 1363 3634 1292 3704 
Q 1222 3775 1222 3878 
z
" transform="scale(0.015625)"/>
      <path id="Cmsy10-bb" d="M 447 850 
Q 378 850 359 1013 
L 359 1050 
Q 359 1544 654 1947 
Q 950 2350 1422 2350 
Q 1716 2350 1955 2204 
Q 2194 2059 2516 1768 
Q 2838 1478 3055 1343 
Q 3272 1209 3553 1209 
Q 3806 1209 4006 1346 
Q 4206 1484 4320 1712 
Q 4434 1941 4434 2188 
Q 4453 2350 4525 2350 
Q 4597 2350 4616 2188 
L 4616 2150 
Q 4616 1841 4486 1537 
Q 4356 1234 4115 1042 
Q 3875 850 3553 850 
Q 3259 850 3031 989 
Q 2803 1128 2481 1417 
Q 2159 1706 1931 1848 
Q 1703 1991 1422 1991 
Q 1172 1991 969 1853 
Q 766 1716 652 1487 
Q 538 1259 538 1013 
Q 519 850 447 850 
z
" transform="scale(0.015625)"/>
      <path id="Cmr10-45" d="M 197 0 
L 197 225 
Q 856 225 856 428 
L 856 3944 
Q 856 4147 197 4147 
L 197 4372 
L 3816 4372 
L 3994 2906 
L 3809 2906 
Q 3741 3459 3617 3709 
Q 3494 3959 3222 4053 
Q 2950 4147 2406 4147 
L 1778 4147 
Q 1663 4147 1598 4137 
Q 1534 4128 1493 4083 
Q 1453 4038 1453 3944 
L 1453 2381 
L 1925 2381 
Q 2250 2381 2411 2436 
Q 2572 2491 2633 2645 
Q 2694 2800 2694 3128 
L 2881 3128 
L 2881 1409 
L 2694 1409 
Q 2694 1734 2633 1890 
Q 2572 2047 2411 2101 
Q 2250 2156 1925 2156 
L 1453 2156 
L 1453 428 
Q 1453 291 1531 258 
Q 1609 225 1778 225 
L 2456 225 
Q 2900 225 3173 295 
Q 3447 366 3598 530 
Q 3750 694 3833 955 
Q 3916 1216 3988 1678 
L 4172 1678 
L 3903 0 
L 197 0 
z
" transform="scale(0.015625)"/>
      <path id="Cmr10-78" d="M 78 0 
L 78 225 
Q 322 225 537 320 
Q 753 416 903 603 
L 1484 1344 
L 728 2328 
Q 616 2469 483 2501 
Q 350 2534 109 2534 
L 109 2759 
L 1441 2759 
L 1441 2534 
Q 1356 2534 1282 2496 
Q 1209 2459 1209 2388 
Q 1209 2363 1228 2328 
L 1741 1663 
L 2125 2156 
Q 2203 2250 2203 2344 
Q 2203 2422 2151 2478 
Q 2100 2534 2016 2534 
L 2016 2759 
L 3194 2759 
L 3194 2534 
Q 2947 2534 2730 2439 
Q 2513 2344 2363 2156 
L 1856 1509 
L 2675 428 
Q 2797 288 2928 256 
Q 3059 225 3303 225 
L 3303 0 
L 1972 0 
L 1972 225 
Q 2050 225 2122 262 
Q 2194 300 2194 372 
Q 2194 400 2175 428 
L 1600 1191 
L 1141 603 
Q 1069 522 1069 416 
Q 1069 338 1122 281 
Q 1175 225 1247 225 
L 1247 0 
L 78 0 
z
" transform="scale(0.015625)"/>
      <path id="Cmr10-70" d="M 166 -1241 
L 166 -1019 
Q 384 -1019 525 -981 
Q 666 -944 666 -813 
L 666 2272 
Q 666 2447 541 2490 
Q 416 2534 166 2534 
L 166 2759 
L 1113 2828 
L 1113 2431 
Q 1288 2625 1520 2726 
Q 1753 2828 2016 2828 
Q 2394 2828 2697 2623 
Q 3000 2419 3170 2086 
Q 3341 1753 3341 1381 
Q 3341 994 3152 659 
Q 2963 325 2636 126 
Q 2309 -72 1919 -72 
Q 1453 -72 1131 306 
L 1131 -813 
Q 1131 -944 1273 -981 
Q 1416 -1019 1631 -1019 
L 1631 -1241 
L 166 -1241 
z
M 1131 622 
Q 1244 394 1444 245 
Q 1644 97 1881 97 
Q 2103 97 2273 215 
Q 2444 334 2559 534 
Q 2675 734 2729 954 
Q 2784 1175 2784 1381 
Q 2784 1638 2692 1936 
Q 2600 2234 2411 2439 
Q 2222 2644 1953 2644 
Q 1694 2644 1476 2511 
Q 1259 2378 1131 2150 
L 1131 622 
z
" transform="scale(0.015625)"/>
      <path id="Cmr10-28" d="M 1984 -1588 
Q 1628 -1306 1370 -942 
Q 1113 -578 948 -165 
Q 784 247 703 697 
Q 622 1147 622 1600 
Q 622 2059 703 2509 
Q 784 2959 951 3375 
Q 1119 3791 1378 4153 
Q 1638 4516 1984 4788 
Q 1984 4800 2016 4800 
L 2075 4800 
Q 2094 4800 2109 4783 
Q 2125 4766 2125 4744 
Q 2125 4716 2113 4703 
Q 1800 4397 1592 4047 
Q 1384 3697 1257 3301 
Q 1131 2906 1075 2482 
Q 1019 2059 1019 1600 
Q 1019 -434 2106 -1491 
Q 2125 -1509 2125 -1544 
Q 2125 -1559 2108 -1579 
Q 2091 -1600 2075 -1600 
L 2016 -1600 
Q 1984 -1600 1984 -1588 
z
" transform="scale(0.015625)"/>
      <path id="Cmmi10-b8" d="M 325 109 
Q 325 203 409 288 
L 2209 2053 
L 1575 3834 
Q 1500 4038 1417 4156 
Q 1334 4275 1178 4275 
Q 1106 4275 1106 4359 
Q 1113 4397 1138 4419 
Q 1163 4441 1203 4441 
Q 1875 4441 2016 4044 
L 3316 416 
Q 3400 144 3488 50 
Q 3519 3 3519 -13 
Q 3519 -72 3469 -72 
L 3122 -72 
Q 2963 -25 2869 206 
L 2284 1844 
L 738 25 
Q 622 -84 531 -84 
Q 450 -84 387 -28 
Q 325 28 325 109 
z
" transform="scale(0.015625)"/>
      <path id="Cmr10-29" d="M 416 -1600 
Q 359 -1600 359 -1544 
Q 359 -1516 372 -1503 
Q 1466 -434 1466 1600 
Q 1466 3634 384 4691 
Q 359 4706 359 4744 
Q 359 4766 376 4783 
Q 394 4800 416 4800 
L 475 4800 
Q 494 4800 506 4788 
Q 966 4425 1272 3906 
Q 1578 3388 1720 2800 
Q 1863 2213 1863 1600 
Q 1863 1147 1786 708 
Q 1709 269 1542 -157 
Q 1375 -584 1119 -945 
Q 863 -1306 506 -1588 
Q 494 -1600 475 -1600 
L 416 -1600 
z
" transform="scale(0.015625)"/>
      <path id="DejaVuSerif-2e" d="M 603 325 
Q 603 500 722 622 
Q 841 744 1019 744 
Q 1191 744 1312 622 
Q 1434 500 1434 325 
Q 1434 153 1312 31 
Q 1191 -91 1019 -91 
Q 841 -91 722 29 
Q 603 150 603 325 
z
" transform="scale(0.015625)"/>
      <path id="DejaVuSerif-64" d="M 3359 331 
L 3909 331 
L 3909 0 
L 2784 0 
L 2784 519 
Q 2616 206 2355 57 
Q 2094 -91 1709 -91 
Q 1097 -91 708 395 
Q 319 881 319 1663 
Q 319 2444 706 2928 
Q 1094 3413 1709 3413 
Q 2094 3413 2355 3264 
Q 2616 3116 2784 2803 
L 2784 4531 
L 2241 4531 
L 2241 4863 
L 3359 4863 
L 3359 331 
z
M 2784 1497 
L 2784 1825 
Q 2784 2422 2554 2737 
Q 2325 3053 1888 3053 
Q 1444 3053 1217 2703 
Q 991 2353 991 1663 
Q 991 975 1217 622 
Q 1444 269 1888 269 
Q 2325 269 2554 583 
Q 2784 897 2784 1497 
z
" transform="scale(0.015625)"/>
      <path id="DejaVuSerif-52" d="M 3066 2316 
Q 3284 2256 3442 2114 
Q 3600 1972 3725 1716 
L 4403 331 
L 4972 331 
L 4972 0 
L 3872 0 
L 3144 1484 
Q 2934 1916 2759 2042 
Q 2584 2169 2278 2169 
L 1581 2169 
L 1581 331 
L 2241 331 
L 2241 0 
L 353 0 
L 353 331 
L 947 331 
L 947 4331 
L 353 4331 
L 353 4666 
L 2719 4666 
Q 3400 4666 3770 4341 
Q 4141 4016 4141 3419 
Q 4141 2938 3870 2661 
Q 3600 2384 3066 2316 
z
M 1581 2503 
L 2503 2503 
Q 2975 2503 3200 2726 
Q 3425 2950 3425 3419 
Q 3425 3888 3200 4109 
Q 2975 4331 2503 4331 
L 1581 4331 
L 1581 2503 
z
" transform="scale(0.015625)"/>
      <path id="DejaVuSerif-61" d="M 2547 1044 
L 2547 1747 
L 1806 1747 
Q 1378 1747 1168 1562 
Q 959 1378 959 997 
Q 959 650 1171 447 
Q 1384 244 1747 244 
Q 2106 244 2326 466 
Q 2547 688 2547 1044 
z
M 3122 2075 
L 3122 331 
L 3634 331 
L 3634 0 
L 2547 0 
L 2547 359 
Q 2356 128 2106 18 
Q 1856 -91 1522 -91 
Q 969 -91 644 203 
Q 319 497 319 997 
Q 319 1513 691 1797 
Q 1063 2081 1741 2081 
L 2547 2081 
L 2547 2309 
Q 2547 2688 2317 2895 
Q 2088 3103 1672 3103 
Q 1328 3103 1125 2947 
Q 922 2791 872 2484 
L 575 2484 
L 575 3156 
Q 875 3284 1158 3348 
Q 1441 3413 1709 3413 
Q 2400 3413 2761 3070 
Q 3122 2728 3122 2075 
z
" transform="scale(0.015625)"/>
      <path id="DejaVuSerif-6e" d="M 263 0 
L 263 331 
L 781 331 
L 781 2988 
L 231 2988 
L 231 3322 
L 1356 3322 
L 1356 2731 
Q 1516 3069 1770 3241 
Q 2025 3413 2363 3413 
Q 2913 3413 3172 3097 
Q 3431 2781 3431 2113 
L 3431 331 
L 3944 331 
L 3944 0 
L 2356 0 
L 2356 331 
L 2853 331 
L 2853 1931 
Q 2853 2541 2703 2767 
Q 2553 2994 2175 2994 
Q 1775 2994 1565 2701 
Q 1356 2409 1356 1850 
L 1356 331 
L 1856 331 
L 1856 0 
L 263 0 
z
" transform="scale(0.015625)"/>
      <path id="DejaVuSerif-67" d="M 3359 2988 
L 3359 72 
Q 3359 -644 2965 -1033 
Q 2572 -1422 1844 -1422 
Q 1516 -1422 1216 -1362 
Q 916 -1303 641 -1184 
L 641 -488 
L 941 -488 
Q 997 -813 1206 -963 
Q 1416 -1113 1806 -1113 
Q 2313 -1113 2548 -827 
Q 2784 -541 2784 72 
L 2784 519 
Q 2616 206 2355 57 
Q 2094 -91 1709 -91 
Q 1097 -91 708 395 
Q 319 881 319 1663 
Q 319 2444 706 2928 
Q 1094 3413 1709 3413 
Q 2094 3413 2355 3264 
Q 2616 3116 2784 2803 
L 2784 3322 
L 3909 3322 
L 3909 2988 
L 3359 2988 
z
M 2784 1825 
Q 2784 2422 2554 2737 
Q 2325 3053 1888 3053 
Q 1444 3053 1217 2703 
Q 991 2353 991 1663 
Q 991 975 1217 622 
Q 1444 269 1888 269 
Q 2325 269 2554 583 
Q 2784 897 2784 1497 
L 2784 1825 
z
" transform="scale(0.015625)"/>
      <path id="DejaVuSerif-77" d="M 3072 3322 
L 3922 728 
L 4672 2988 
L 4191 2988 
L 4191 3322 
L 5394 3322 
L 5394 2988 
L 5025 2988 
L 4038 0 
L 3559 0 
L 2741 2484 
L 1919 0 
L 1459 0 
L 475 2988 
L 103 2988 
L 103 3322 
L 1606 3322 
L 1606 2988 
L 1069 2988 
L 1813 728 
L 2669 3322 
L 3072 3322 
z
" transform="scale(0.015625)"/>
      <path id="DejaVuSerif-74" d="M 691 2988 
L 184 2988 
L 184 3322 
L 691 3322 
L 691 4353 
L 1269 4353 
L 1269 3322 
L 2350 3322 
L 2350 2988 
L 1269 2988 
L 1269 878 
Q 1269 456 1350 337 
Q 1431 219 1650 219 
Q 1875 219 1978 351 
Q 2081 484 2088 781 
L 2522 781 
Q 2497 328 2275 118 
Q 2053 -91 1600 -91 
Q 1103 -91 897 129 
Q 691 350 691 878 
L 691 2988 
z
" transform="scale(0.015625)"/>
      <path id="DejaVuSerif-2c" d="M 231 -622 
Q 525 -406 662 -114 
Q 800 178 800 594 
L 800 709 
L 1416 709 
Q 1391 175 1164 -208 
Q 938 -591 481 -872 
L 231 -622 
z
" transform="scale(0.015625)"/>
      <path id="DejaVuSerif-72" d="M 3059 3328 
L 3059 2497 
L 2728 2497 
Q 2713 2744 2591 2866 
Q 2469 2988 2234 2988 
Q 1809 2988 1582 2694 
Q 1356 2400 1356 1850 
L 1356 331 
L 2022 331 
L 2022 0 
L 263 0 
L 263 331 
L 781 331 
L 781 2994 
L 231 2994 
L 231 3322 
L 1356 3322 
L 1356 2731 
Q 1525 3078 1790 3245 
Q 2056 3413 2438 3413 
Q 2578 3413 2733 3391 
Q 2888 3369 3059 3328 
z
" transform="scale(0.015625)"/>
      <path id="DejaVuSerif-6c" d="M 1313 331 
L 1856 331 
L 1856 0 
L 184 0 
L 184 331 
L 738 331 
L 738 4531 
L 184 4531 
L 184 4863 
L 1313 4863 
L 1313 331 
z
" transform="scale(0.015625)"/>
      <path id="DejaVuSerif-73" d="M 359 184 
L 359 959 
L 691 959 
Q 703 588 923 403 
Q 1144 219 1575 219 
Q 1963 219 2166 364 
Q 2369 509 2369 788 
Q 2369 1006 2220 1140 
Q 2072 1275 1594 1428 
L 1178 1569 
Q 750 1706 558 1912 
Q 366 2119 366 2438 
Q 366 2894 700 3153 
Q 1034 3413 1625 3413 
Q 1888 3413 2178 3344 
Q 2469 3275 2778 3144 
L 2778 2419 
L 2447 2419 
Q 2434 2741 2221 2922 
Q 2009 3103 1644 3103 
Q 1281 3103 1095 2975 
Q 909 2847 909 2591 
Q 909 2381 1050 2254 
Q 1191 2128 1613 1997 
L 2069 1856 
Q 2541 1709 2748 1489 
Q 2956 1269 2956 922 
Q 2956 450 2595 179 
Q 2234 -91 1600 -91 
Q 1278 -91 972 -22 
Q 666 47 359 184 
z
" transform="scale(0.015625)"/>
      <path id="DejaVuSerif-6f" d="M 1925 219 
Q 2388 219 2623 584 
Q 2859 950 2859 1663 
Q 2859 2375 2623 2739 
Q 2388 3103 1925 3103 
Q 1463 3103 1227 2739 
Q 991 2375 991 1663 
Q 991 950 1228 584 
Q 1466 219 1925 219 
z
M 1925 -91 
Q 1200 -91 759 389 
Q 319 869 319 1663 
Q 319 2456 758 2934 
Q 1197 3413 1925 3413 
Q 2653 3413 3092 2934 
Q 3531 2456 3531 1663 
Q 3531 869 3092 389 
Q 2653 -91 1925 -91 
z
" transform="scale(0.015625)"/>
      <path id="DejaVuSerif-66" d="M 2753 4078 
L 2450 4078 
Q 2447 4313 2317 4434 
Q 2188 4556 1941 4556 
Q 1619 4556 1487 4379 
Q 1356 4203 1356 3750 
L 1356 3322 
L 2284 3322 
L 2284 2988 
L 1356 2988 
L 1356 331 
L 2094 331 
L 2094 0 
L 231 0 
L 231 331 
L 781 331 
L 781 2988 
L 231 2988 
L 231 3322 
L 781 3322 
L 781 3738 
Q 781 4294 1070 4578 
Q 1359 4863 1919 4863 
Q 2128 4863 2337 4825 
Q 2547 4788 2753 4709 
L 2753 4078 
z
" transform="scale(0.015625)"/>
      <path id="DejaVuSerif-79" d="M 1381 -609 
L 1600 -56 
L 359 2988 
L -19 2988 
L -19 3322 
L 1509 3322 
L 1509 2988 
L 978 2988 
L 1913 703 
L 2847 2988 
L 2350 2988 
L 2350 3322 
L 3597 3322 
L 3597 2988 
L 3225 2988 
L 1703 -750 
Q 1547 -1138 1356 -1280 
Q 1166 -1422 819 -1422 
Q 672 -1422 517 -1397 
Q 363 -1372 206 -1325 
L 206 -691 
L 500 -691 
Q 519 -903 608 -995 
Q 697 -1088 884 -1088 
Q 1056 -1088 1161 -992 
Q 1266 -897 1381 -609 
z
" transform="scale(0.015625)"/>
     </defs>
     <use xlink:href="#Cmmi10-bf" transform="translate(0 0.015625)"/>
     <use xlink:href="#Cmmi10-69" transform="translate(43.701172 -16.990625) scale(0.7)"/>
     <use xlink:href="#Cmsy10-bb" transform="translate(91.733789 0.015625)"/>
     <use xlink:href="#Cmr10-45" transform="translate(186.97793 0.015625)"/>
     <use xlink:href="#Cmr10-78" transform="translate(254.995508 0.015625)"/>
     <use xlink:href="#Cmr10-70" transform="translate(307.681055 0.015625)"/>
     <use xlink:href="#Cmr10-28" transform="translate(363.198633 0.015625)"/>
     <use xlink:href="#Cmmi10-b8" transform="translate(402.016992 0.015625)"/>
     <use xlink:href="#Cmr10-29" transform="translate(460.317773 0.015625)"/>
     <use xlink:href="#DejaVuSerif-20" transform="translate(499.136133 0.015625)"/>
     <use xlink:href="#DejaVuSerif-69" transform="translate(530.923242 0.015625)"/>
     <use xlink:href="#DejaVuSerif-2e" transform="translate(562.905664 0.015625)"/>
     <use xlink:href="#DejaVuSerif-69" transform="translate(594.692773 0.015625)"/>
     <use xlink:href="#DejaVuSerif-2e" transform="translate(626.675195 0.015625)"/>
     <use xlink:href="#DejaVuSerif-64" transform="translate(658.462305 0.015625)"/>
     <use xlink:href="#DejaVuSerif-2e" transform="translate(722.475977 0.015625)"/>
     <use xlink:href="#DejaVuSerif-20" transform="translate(754.263086 0.015625)"/>
     <use xlink:href="#DejaVuSerif-20" transform="translate(786.050195 0.015625)"/>
     <use xlink:href="#DejaVuSerif-20" transform="translate(817.837305 0.015625)"/>
     <use xlink:href="#DejaVuSerif-20" transform="translate(849.624414 0.015625)"/>
     <use xlink:href="#DejaVuSerif-52" transform="translate(881.411523 0.015625)"/>
     <use xlink:href="#DejaVuSerif-65" transform="translate(956.704492 0.015625)"/>
     <use xlink:href="#DejaVuSerif-6d" transform="translate(1015.88418 0.015625)"/>
     <use xlink:href="#DejaVuSerif-61" transform="translate(1110.708398 0.015625)"/>
     <use xlink:href="#DejaVuSerif-69" transform="translate(1170.327539 0.015625)"/>
     <use xlink:href="#DejaVuSerif-6e" transform="translate(1202.309961 0.015625)"/>
     <use xlink:href="#DejaVuSerif-69" transform="translate(1266.714258 0.015625)"/>
     <use xlink:href="#DejaVuSerif-6e" transform="translate(1298.69668 0.015625)"/>
     <use xlink:href="#DejaVuSerif-67" transform="translate(1363.100977 0.015625)"/>
     <use xlink:href="#DejaVuSerif-20" transform="translate(1427.114648 0.015625)"/>
     <use xlink:href="#DejaVuSerif-77" transform="translate(1458.901758 0.015625)"/>
     <use xlink:href="#DejaVuSerif-61" transform="translate(1544.497461 0.015625)"/>
     <use xlink:href="#DejaVuSerif-69" transform="translate(1604.116602 0.015625)"/>
     <use xlink:href="#DejaVuSerif-74" transform="translate(1636.099023 0.015625)"/>
     <use xlink:href="#DejaVuSerif-20" transform="translate(1676.28457 0.015625)"/>
     <use xlink:href="#Cmsy10-bb" transform="translate(1725.630273 0.015625)"/>
     <use xlink:href="#Cmr10-45" transform="translate(1820.874414 0.015625)"/>
     <use xlink:href="#Cmr10-78" transform="translate(1888.891992 0.015625)"/>
     <use xlink:href="#Cmr10-70" transform="translate(1941.577539 0.015625)"/>
     <use xlink:href="#Cmr10-28" transform="translate(1997.095117 0.015625)"/>
     <use xlink:href="#Cmmi10-b8" transform="translate(2035.913477 0.015625)"/>
     <use xlink:href="#Cmr10-29" transform="translate(2094.214258 0.015625)"/>
     <use xlink:href="#DejaVuSerif-2c" transform="translate(2133.032617 0.015625)"/>
     <use xlink:href="#DejaVuSerif-20" transform="translate(2164.819727 0.015625)"/>
     <use xlink:href="#DejaVuSerif-72" transform="translate(2196.606836 0.015625)"/>
     <use xlink:href="#DejaVuSerif-65" transform="translate(2244.40957 0.015625)"/>
     <use xlink:href="#DejaVuSerif-67" transform="translate(2303.589258 0.015625)"/>
     <use xlink:href="#DejaVuSerif-61" transform="translate(2367.60293 0.015625)"/>
     <use xlink:href="#DejaVuSerif-72" transform="translate(2427.22207 0.015625)"/>
     <use xlink:href="#DejaVuSerif-64" transform="translate(2475.024805 0.015625)"/>
     <use xlink:href="#DejaVuSerif-6c" transform="translate(2539.038477 0.015625)"/>
     <use xlink:href="#DejaVuSerif-65" transform="translate(2571.020898 0.015625)"/>
     <use xlink:href="#DejaVuSerif-73" transform="translate(2630.200586 0.015625)"/>
     <use xlink:href="#DejaVuSerif-73" transform="translate(2681.518945 0.015625)"/>
     <use xlink:href="#DejaVuSerif-20" transform="translate(2732.837305 0.015625)"/>
     <use xlink:href="#DejaVuSerif-6f" transform="translate(2764.624414 0.015625)"/>
     <use xlink:href="#DejaVuSerif-66" transform="translate(2824.829492 0.015625)"/>
     <use xlink:href="#DejaVuSerif-20" transform="translate(2861.841211 0.015625)"/>
     <use xlink:href="#DejaVuSerif-74" transform="translate(2893.62832 0.015625)"/>
     <use xlink:href="#DejaVuSerif-69" transform="translate(2933.813867 0.015625)"/>
     <use xlink:href="#DejaVuSerif-6d" transform="translate(2965.796289 0.015625)"/>
     <use xlink:href="#DejaVuSerif-65" transform="translate(3060.620508 0.015625)"/>
     <use xlink:href="#DejaVuSerif-20" transform="translate(3119.800195 0.015625)"/>
     <use xlink:href="#DejaVuSerif-61" transform="translate(3151.587305 0.015625)"/>
     <use xlink:href="#DejaVuSerif-6c" transform="translate(3211.206445 0.015625)"/>
     <use xlink:href="#DejaVuSerif-72" transform="translate(3243.188867 0.015625)"/>
     <use xlink:href="#DejaVuSerif-65" transform="translate(3290.991602 0.015625)"/>
     <use xlink:href="#DejaVuSerif-61" transform="translate(3350.171289 0.015625)"/>
     <use xlink:href="#DejaVuSerif-64" transform="translate(3409.79043 0.015625)"/>
     <use xlink:href="#DejaVuSerif-79" transform="translate(3473.804102 0.015625)"/>
     <use xlink:href="#DejaVuSerif-20" transform="translate(3530.298242 0.015625)"/>
     <use xlink:href="#DejaVuSerif-77" transform="translate(3562.085352 0.015625)"/>
     <use xlink:href="#DejaVuSerif-61" transform="translate(3647.681055 0.015625)"/>
     <use xlink:href="#DejaVuSerif-69" transform="translate(3707.300195 0.015625)"/>
     <use xlink:href="#DejaVuSerif-74" transform="translate(3739.282617 0.015625)"/>
     <use xlink:href="#DejaVuSerif-65" transform="translate(3779.468164 0.015625)"/>
     <use xlink:href="#DejaVuSerif-64" transform="translate(3838.647852 0.015625)"/>
    </g>
   </g>
   <g id="text_26">
    <!-- Poisson process: the remaining wait has the same distribution as a fresh inter-arrival time -->
    <g transform="translate(78.329375 17.077969) scale(0.13 -0.13)">
     <defs>
      <path id="DejaVuSerif-Bold-50" d="M 300 0 
L 300 378 
L 897 378 
L 897 4288 
L 300 4288 
L 300 4666 
L 2956 4666 
Q 3734 4666 4193 4295 
Q 4653 3925 4653 3303 
Q 4653 2678 4192 2304 
Q 3731 1931 2956 1931 
L 2100 1931 
L 2100 378 
L 2853 378 
L 2853 0 
L 300 0 
z
M 2100 2309 
L 2450 2309 
Q 2856 2309 3098 2579 
Q 3341 2850 3341 3303 
Q 3341 3753 3100 4020 
Q 2859 4288 2450 4288 
L 2100 4288 
L 2100 2309 
z
" transform="scale(0.015625)"/>
      <path id="DejaVuSerif-Bold-73" d="M 300 97 
L 300 1025 
L 653 1025 
Q 697 653 931 458 
Q 1166 263 1569 263 
Q 1906 263 2086 380 
Q 2266 497 2266 716 
Q 2266 916 2152 1025 
Q 2038 1134 1709 1216 
L 1253 1331 
Q 738 1459 506 1698 
Q 275 1938 275 2344 
Q 275 2884 650 3148 
Q 1025 3413 1806 3413 
Q 2100 3413 2433 3364 
Q 2766 3316 3169 3213 
L 3169 2375 
L 2816 2375 
Q 2788 2716 2573 2887 
Q 2359 3059 1959 3059 
Q 1622 3059 1448 2951 
Q 1275 2844 1275 2638 
Q 1275 2469 1375 2372 
Q 1475 2275 1734 2209 
L 2188 2094 
Q 2841 1928 3091 1684 
Q 3341 1441 3341 1006 
Q 3341 444 2939 176 
Q 2538 -91 1691 -91 
Q 1381 -91 1034 -44 
Q 688 3 300 97 
z
" transform="scale(0.015625)"/>
      <path id="DejaVuSerif-Bold-70" d="M 1728 1825 
L 1728 1497 
Q 1728 916 1876 656 
Q 2025 397 2356 397 
Q 2697 397 2836 672 
Q 2975 947 2975 1663 
Q 2975 2378 2836 2651 
Q 2697 2925 2356 2925 
Q 2025 2925 1876 2665 
Q 1728 2406 1728 1825 
z
M 622 2944 
L 147 2944 
L 147 3322 
L 1728 3322 
L 1728 2900 
Q 1869 3159 2106 3286 
Q 2344 3413 2694 3413 
Q 3403 3413 3811 2945 
Q 4219 2478 4219 1663 
Q 4219 847 3811 378 
Q 3403 -91 2694 -91 
Q 2344 -91 2106 36 
Q 1869 163 1728 422 
L 1728 -953 
L 2241 -953 
L 2241 -1331 
L 147 -1331 
L 147 -953 
L 622 -953 
L 622 2944 
z
" transform="scale(0.015625)"/>
      <path id="DejaVuSerif-Bold-63" d="M 3609 1038 
Q 3491 469 3123 189 
Q 2756 -91 2125 -91 
Q 1238 -91 750 368 
Q 263 828 263 1663 
Q 263 2488 744 2950 
Q 1225 3413 2081 3413 
Q 2428 3413 2781 3347 
Q 3134 3281 3500 3150 
L 3500 2228 
L 3150 2228 
Q 3100 2650 2903 2854 
Q 2706 3059 2350 3059 
Q 1888 3059 1692 2746 
Q 1497 2434 1497 1663 
Q 1497 909 1687 586 
Q 1878 263 2309 263 
Q 2644 263 2845 463 
Q 3047 663 3091 1038 
L 3609 1038 
z
" transform="scale(0.015625)"/>
      <path id="DejaVuSerif-Bold-3a" d="M 588 2541 
Q 588 2788 761 2963 
Q 934 3138 1178 3138 
Q 1422 3138 1597 2961 
Q 1772 2784 1772 2541 
Q 1772 2297 1598 2125 
Q 1425 1953 1178 1953 
Q 931 1953 759 2125 
Q 588 2297 588 2541 
z
M 588 506 
Q 588 750 761 925 
Q 934 1100 1178 1100 
Q 1422 1100 1597 925 
Q 1772 750 1772 506 
Q 1772 259 1597 84 
Q 1422 -91 1178 -91 
Q 934 -91 761 84 
Q 588 259 588 506 
z
" transform="scale(0.015625)"/>
      <path id="DejaVuSerif-Bold-68" d="M 219 0 
L 219 378 
L 691 378 
L 691 4488 
L 197 4488 
L 197 4863 
L 1797 4863 
L 1797 2853 
Q 1997 3150 2253 3281 
Q 2509 3413 2900 3413 
Q 3459 3413 3745 3083 
Q 4031 2753 4031 2113 
L 4031 378 
L 4506 378 
L 4506 0 
L 2522 0 
L 2522 378 
L 2925 378 
L 2925 2144 
Q 2925 2566 2817 2730 
Q 2709 2894 2444 2894 
Q 2109 2894 1953 2648 
Q 1797 2403 1797 1869 
L 1797 378 
L 2203 378 
L 2203 0 
L 219 0 
z
" transform="scale(0.015625)"/>
      <path id="DejaVuSerif-Bold-62" d="M 622 378 
L 622 4488 
L 147 4488 
L 147 4863 
L 1728 4863 
L 1728 2900 
Q 1869 3159 2106 3286 
Q 2344 3413 2694 3413 
Q 3403 3413 3811 2945 
Q 4219 2478 4219 1663 
Q 4219 847 3811 378 
Q 3403 -91 2694 -91 
Q 2344 -91 2106 36 
Q 1869 163 1728 422 
L 1728 0 
L 147 0 
L 147 378 
L 622 378 
z
M 1728 1497 
Q 1728 916 1876 656 
Q 2025 397 2356 397 
Q 2697 397 2836 672 
Q 2975 947 2975 1663 
Q 2975 2378 2836 2651 
Q 2697 2925 2356 2925 
Q 2025 2925 1876 2665 
Q 1728 2406 1728 1825 
L 1728 1497 
z
" transform="scale(0.015625)"/>
      <path id="DejaVuSerif-Bold-75" d="M 3963 3322 
L 3963 378 
L 4434 378 
L 4434 0 
L 2853 0 
L 2853 469 
Q 2656 172 2400 40 
Q 2144 -91 1753 -91 
Q 1194 -91 908 239 
Q 622 569 622 1209 
L 622 2944 
L 147 2944 
L 147 3322 
L 1728 3322 
L 1728 1381 
Q 1728 763 1831 595 
Q 1934 428 2209 428 
Q 2544 428 2698 675 
Q 2853 922 2853 1459 
L 2853 2944 
L 2450 2944 
L 2450 3322 
L 3963 3322 
z
" transform="scale(0.015625)"/>
      <path id="DejaVuSerif-Bold-66" d="M 3097 4031 
L 2747 4031 
Q 2722 4275 2605 4394 
Q 2488 4513 2272 4513 
Q 2022 4513 1909 4333 
Q 1797 4153 1797 3750 
L 1797 3322 
L 2631 3322 
L 2631 2944 
L 1797 2944 
L 1797 378 
L 2438 378 
L 2438 0 
L 219 0 
L 219 378 
L 691 378 
L 691 2944 
L 197 2944 
L 197 3322 
L 691 3322 
L 691 3738 
Q 691 4291 1044 4577 
Q 1397 4863 2081 4863 
Q 2347 4863 2600 4833 
Q 2853 4803 3097 4744 
L 3097 4031 
z
" transform="scale(0.015625)"/>
      <path id="DejaVuSerif-Bold-2d" d="M 347 2138 
L 2309 2138 
L 2309 1294 
L 347 1294 
L 347 2138 
z
" transform="scale(0.015625)"/>
      <path id="DejaVuSerif-Bold-76" d="M 1428 0 
L 250 2944 
L -116 2944 
L -116 3322 
L 1791 3322 
L 1791 2944 
L 1388 2944 
L 2228 844 
L 3066 2944 
L 2631 2944 
L 2631 3322 
L 3878 3322 
L 3878 2944 
L 3494 2944 
L 2316 0 
L 1428 0 
z
" transform="scale(0.015625)"/>
     </defs>
     <use xlink:href="#DejaVuSerif-Bold-50"/>
     <use xlink:href="#DejaVuSerif-Bold-6f" transform="translate(72.570312 0)"/>
     <use xlink:href="#DejaVuSerif-Bold-69" transform="translate(139.269531 0)"/>
     <use xlink:href="#DejaVuSerif-Bold-73" transform="translate(177.257812 0)"/>
     <use xlink:href="#DejaVuSerif-Bold-73" transform="translate(233.556641 0)"/>
     <use xlink:href="#DejaVuSerif-Bold-6f" transform="translate(289.855469 0)"/>
     <use xlink:href="#DejaVuSerif-Bold-6e" transform="translate(356.554688 0)"/>
     <use xlink:href="#DejaVuSerif-Bold-20" transform="translate(429.259766 0)"/>
     <use xlink:href="#DejaVuSerif-Bold-70" transform="translate(464.074219 0)"/>
     <use xlink:href="#DejaVuSerif-Bold-72" transform="translate(533.996094 0)"/>
     <use xlink:href="#DejaVuSerif-Bold-6f" transform="translate(586.681641 0)"/>
     <use xlink:href="#DejaVuSerif-Bold-63" transform="translate(653.380859 0)"/>
     <use xlink:href="#DejaVuSerif-Bold-65" transform="translate(714.269531 0)"/>
     <use xlink:href="#DejaVuSerif-Bold-73" transform="translate(777.892578 0)"/>
     <use xlink:href="#DejaVuSerif-Bold-73" transform="translate(834.191406 0)"/>
     <use xlink:href="#DejaVuSerif-Bold-3a" transform="translate(890.490234 0)"/>
     <use xlink:href="#DejaVuSerif-Bold-20" transform="translate(927.404297 0)"/>
     <use xlink:href="#DejaVuSerif-Bold-74" transform="translate(962.21875 0)"/>
     <use xlink:href="#DejaVuSerif-Bold-68" transform="translate(1008.410156 0)"/>
     <use xlink:href="#DejaVuSerif-Bold-65" transform="translate(1081.115234 0)"/>
     <use xlink:href="#DejaVuSerif-Bold-20" transform="translate(1144.738281 0)"/>
     <use xlink:href="#DejaVuSerif-Bold-72" transform="translate(1179.552734 0)"/>
     <use xlink:href="#DejaVuSerif-Bold-65" transform="translate(1232.238281 0)"/>
     <use xlink:href="#DejaVuSerif-Bold-6d" transform="translate(1295.861328 0)"/>
     <use xlink:href="#DejaVuSerif-Bold-61" transform="translate(1401.671875 0)"/>
     <use xlink:href="#DejaVuSerif-Bold-69" transform="translate(1466.466797 0)"/>
     <use xlink:href="#DejaVuSerif-Bold-6e" transform="translate(1504.455078 0)"/>
     <use xlink:href="#DejaVuSerif-Bold-69" transform="translate(1577.160156 0)"/>
     <use xlink:href="#DejaVuSerif-Bold-6e" transform="translate(1615.148438 0)"/>
     <use xlink:href="#DejaVuSerif-Bold-67" transform="translate(1687.853516 0)"/>
     <use xlink:href="#DejaVuSerif-Bold-20" transform="translate(1757.775391 0)"/>
     <use xlink:href="#DejaVuSerif-Bold-77" transform="translate(1792.589844 0)"/>
     <use xlink:href="#DejaVuSerif-Bold-61" transform="translate(1878.673828 0)"/>
     <use xlink:href="#DejaVuSerif-Bold-69" transform="translate(1943.46875 0)"/>
     <use xlink:href="#DejaVuSerif-Bold-74" transform="translate(1981.457031 0)"/>
     <use xlink:href="#DejaVuSerif-Bold-20" transform="translate(2027.648438 0)"/>
     <use xlink:href="#DejaVuSerif-Bold-68" transform="translate(2062.462891 0)"/>
     <use xlink:href="#DejaVuSerif-Bold-61" transform="translate(2135.167969 0)"/>
     <use xlink:href="#DejaVuSerif-Bold-73" transform="translate(2199.962891 0)"/>
     <use xlink:href="#DejaVuSerif-Bold-20" transform="translate(2256.261719 0)"/>
     <use xlink:href="#DejaVuSerif-Bold-74" transform="translate(2291.076172 0)"/>
     <use xlink:href="#DejaVuSerif-Bold-68" transform="translate(2337.267578 0)"/>
     <use xlink:href="#DejaVuSerif-Bold-65" transform="translate(2409.972656 0)"/>
     <use xlink:href="#DejaVuSerif-Bold-20" transform="translate(2473.595703 0)"/>
     <use xlink:href="#DejaVuSerif-Bold-73" transform="translate(2508.410156 0)"/>
     <use xlink:href="#DejaVuSerif-Bold-61" transform="translate(2564.708984 0)"/>
     <use xlink:href="#DejaVuSerif-Bold-6d" transform="translate(2629.503906 0)"/>
     <use xlink:href="#DejaVuSerif-Bold-65" transform="translate(2735.314453 0)"/>
     <use xlink:href="#DejaVuSerif-Bold-20" transform="translate(2798.9375 0)"/>
     <use xlink:href="#DejaVuSerif-Bold-64" transform="translate(2833.751953 0)"/>
     <use xlink:href="#DejaVuSerif-Bold-69" transform="translate(2903.673828 0)"/>
     <use xlink:href="#DejaVuSerif-Bold-73" transform="translate(2941.662109 0)"/>
     <use xlink:href="#DejaVuSerif-Bold-74" transform="translate(2997.960938 0)"/>
     <use xlink:href="#DejaVuSerif-Bold-72" transform="translate(3044.152344 0)"/>
     <use xlink:href="#DejaVuSerif-Bold-69" transform="translate(3096.837891 0)"/>
     <use xlink:href="#DejaVuSerif-Bold-62" transform="translate(3134.826172 0)"/>
     <use xlink:href="#DejaVuSerif-Bold-75" transform="translate(3204.748047 0)"/>
     <use xlink:href="#DejaVuSerif-Bold-74" transform="translate(3277.453125 0)"/>
     <use xlink:href="#DejaVuSerif-Bold-69" transform="translate(3323.644531 0)"/>
     <use xlink:href="#DejaVuSerif-Bold-6f" transform="translate(3361.632812 0)"/>
     <use xlink:href="#DejaVuSerif-Bold-6e" transform="translate(3428.332031 0)"/>
     <use xlink:href="#DejaVuSerif-Bold-20" transform="translate(3501.037109 0)"/>
     <use xlink:href="#DejaVuSerif-Bold-61" transform="translate(3535.851562 0)"/>
     <use xlink:href="#DejaVuSerif-Bold-73" transform="translate(3600.646484 0)"/>
     <use xlink:href="#DejaVuSerif-Bold-20" transform="translate(3656.945312 0)"/>
     <use xlink:href="#DejaVuSerif-Bold-61" transform="translate(3691.759766 0)"/>
     <use xlink:href="#DejaVuSerif-Bold-20" transform="translate(3756.554688 0)"/>
     <use xlink:href="#DejaVuSerif-Bold-66" transform="translate(3791.369141 0)"/>
     <use xlink:href="#DejaVuSerif-Bold-72" transform="translate(3834.386719 0)"/>
     <use xlink:href="#DejaVuSerif-Bold-65" transform="translate(3887.072266 0)"/>
     <use xlink:href="#DejaVuSerif-Bold-73" transform="translate(3950.695312 0)"/>
     <use xlink:href="#DejaVuSerif-Bold-68" transform="translate(4006.994141 0)"/>
     <use xlink:href="#DejaVuSerif-Bold-20" transform="translate(4079.699219 0)"/>
     <use xlink:href="#DejaVuSerif-Bold-69" transform="translate(4114.513672 0)"/>
     <use xlink:href="#DejaVuSerif-Bold-6e" transform="translate(4152.501953 0)"/>
     <use xlink:href="#DejaVuSerif-Bold-74" transform="translate(4225.207031 0)"/>
     <use xlink:href="#DejaVuSerif-Bold-65" transform="translate(4271.398438 0)"/>
     <use xlink:href="#DejaVuSerif-Bold-72" transform="translate(4335.021484 0)"/>
     <use xlink:href="#DejaVuSerif-Bold-2d" transform="translate(4387.707031 0)"/>
     <use xlink:href="#DejaVuSerif-Bold-61" transform="translate(4429.210938 0)"/>
     <use xlink:href="#DejaVuSerif-Bold-72" transform="translate(4494.005859 0)"/>
     <use xlink:href="#DejaVuSerif-Bold-72" transform="translate(4546.691406 0)"/>
     <use xlink:href="#DejaVuSerif-Bold-69" transform="translate(4599.376953 0)"/>
     <use xlink:href="#DejaVuSerif-Bold-76" transform="translate(4637.365234 0)"/>
     <use xlink:href="#DejaVuSerif-Bold-61" transform="translate(4695.470703 0)"/>
     <use xlink:href="#DejaVuSerif-Bold-6c" transform="translate(4760.265625 0)"/>
     <use xlink:href="#DejaVuSerif-Bold-20" transform="translate(4798.253906 0)"/>
     <use xlink:href="#DejaVuSerif-Bold-74" transform="translate(4833.068359 0)"/>
     <use xlink:href="#DejaVuSerif-Bold-69" transform="translate(4879.259766 0)"/>
     <use xlink:href="#DejaVuSerif-Bold-6d" transform="translate(4917.248047 0)"/>
     <use xlink:href="#DejaVuSerif-Bold-65" transform="translate(5023.058594 0)"/>
    </g>
   </g>
   <g id="line2d_10">
    <defs>
     <path id="m3c101d23b8" d="M 0 6 
C 1.591219 6 3.117479 5.367802 4.242641 4.242641 
C 5.367802 3.117479 6 1.591219 6 0 
C 6 -1.591219 5.367802 -3.117479 4.242641 -4.242641 
C 3.117479 -5.367802 1.591219 -6 0 -6 
C -1.591219 -6 -3.117479 -5.367802 -4.242641 -4.242641 
C -5.367802 -3.117479 -6 -1.591219 -6 0 
C -6 1.591219 -5.367802 3.117479 -4.242641 4.242641 
C -3.117479 5.367802 -1.591219 6 0 6 
z
" style="stroke: #ffffff; stroke-width: 1.5"/>
    </defs>
    <g clip-path="url(#p4f82dd8045)">
     <use xlink:href="#m3c101d23b8" x="77.90976" y="178.154892" style="fill: #0072bd; stroke: #ffffff; stroke-width: 1.5"/>
     <use xlink:href="#m3c101d23b8" x="155.04768" y="178.154892" style="fill: #0072bd; stroke: #ffffff; stroke-width: 1.5"/>
     <use xlink:href="#m3c101d23b8" x="245.04192" y="178.154892" style="fill: #0072bd; stroke: #ffffff; stroke-width: 1.5"/>
     <use xlink:href="#m3c101d23b8" x="335.03616" y="178.154892" style="fill: #0072bd; stroke: #ffffff; stroke-width: 1.5"/>
     <use xlink:href="#m3c101d23b8" x="489.312" y="178.154892" style="fill: #0072bd; stroke: #ffffff; stroke-width: 1.5"/>
     <use xlink:href="#m3c101d23b8" x="572.87808" y="178.154892" style="fill: #0072bd; stroke: #ffffff; stroke-width: 1.5"/>
     <use xlink:href="#m3c101d23b8" x="637.15968" y="178.154892" style="fill: #0072bd; stroke: #ffffff; stroke-width: 1.5"/>
     <use xlink:href="#m3c101d23b8" x="720.72576" y="178.154892" style="fill: #0072bd; stroke: #ffffff; stroke-width: 1.5"/>
     <use xlink:href="#m3c101d23b8" x="785.00736" y="178.154892" style="fill: #0072bd; stroke: #ffffff; stroke-width: 1.5"/>
    </g>
   </g>
  </g>
 </g>
 <defs>
  <clipPath id="p4f82dd8045">
   <rect x="7.2" y="23.077969" width="803.52" height="252"/>
  </clipPath>
 </defs>
</svg>
