<?xml version="1.0" encoding="utf-8" standalone="no"?>
<!DOCTYPE svg PUBLIC "-//W3C//DTD SVG 1.1//EN"
  "http://www.w3.org/Graphics/SVG/1.1/DTD/svg11.dtd">
<svg xmlns:xlink="http://www.w3.org/1999/xlink" width="630.424062pt" height="370.306562pt" viewBox="0 0 630.424062 370.306562" xmlns="http://www.w3.org/2000/svg" version="1.1">
 <metadata>
  <rdf:RDF xmlns:dc="http://purl.org/dc/elements/1.1/" xmlns:cc="http://creativecommons.org/ns#" xmlns:rdf="http://www.w3.org/1999/02/22-rdf-syntax-ns#">
   <cc:Work>
    <dc:type rdf:resource="http://purl.org/dc/dcmitype/StillImage"/>
    <dc:date>2026-06-10T06:45:10.758606</dc:date>
    <dc:format>image/svg+xml</dc:format>
    <dc:creator>
     <cc:Agent>
      <dc:title>Matplotlib v3.10.8, https://matplotlib.org/</dc:title>
     </cc:Agent>
    </dc:creator>
   </cc:Work>
  </rdf:RDF>
 </metadata>
 <defs>
  <style type="text/css">*{stroke-linejoin: round; stroke-linecap: butt}</style>
 </defs>
 <g id="figure_1">
  <g id="patch_1">
   <path d="M 0 370.306562 
L 630.424062 370.306562 
L 630.424062 0 
L 0 0 
z
" style="fill: #ffffff"/>
  </g>
  <g id="axes_1">
   <g id="patch_2">
    <path d="M 54.359063 324.04 
L 611.639062 324.04 
L 611.639062 23.08 
L 54.359063 23.08 
z
" style="fill: #ffffff"/>
   </g>
   <g id="patch_3">
    <path d="M 54.359063 324.04 
L 63.804486 324.04 
L 63.804486 77.44274 
L 54.359063 77.44274 
z
" clip-path="url(#p3e06cc7cc0)" style="fill: #0072bd; opacity: 0.5; stroke: #ffffff; stroke-width: 0.5; stroke-linejoin: miter"/>
   </g>
   <g id="patch_4">
    <path d="M 63.804486 324.04 
L 73.24991 324.04 
L 73.24991 110.777392 
L 63.804486 110.777392 
z
" clip-path="url(#p3e06cc7cc0)" style="fill: #0072bd; opacity: 0.5; stroke: #ffffff; stroke-width: 0.5; stroke-linejoin: miter"/>
   </g>
   <g id="patch_5">
    <path d="M 73.24991 324.04 
L 82.695334 324.04 
L 82.695334 137.499174 
L 73.24991 137.499174 
z
" clip-path="url(#p3e06cc7cc0)" style="fill: #0072bd; opacity: 0.5; stroke: #ffffff; stroke-width: 0.5; stroke-linejoin: miter"/>
   </g>
   <g id="patch_6">
    <path d="M 82.695334 324.04 
L 92.140757 324.04 
L 92.140757 159.867083 
L 82.695334 159.867083 
z
" clip-path="url(#p3e06cc7cc0)" style="fill: #0072bd; opacity: 0.5; stroke: #ffffff; stroke-width: 0.5; stroke-linejoin: miter"/>
   </g>
   <g id="patch_7">
    <path d="M 92.140757 324.04 
L 101.586181 324.04 
L 101.586181 182.505298 
L 92.140757 182.505298 
z
" clip-path="url(#p3e06cc7cc0)" style="fill: #0072bd; opacity: 0.5; stroke: #ffffff; stroke-width: 0.5; stroke-linejoin: miter"/>
   </g>
   <g id="patch_8">
    <path d="M 101.586181 324.04 
L 111.031605 324.04 
L 111.031605 198.800952 
L 101.586181 198.800952 
z
" clip-path="url(#p3e06cc7cc0)" style="fill: #0072bd; opacity: 0.5; stroke: #ffffff; stroke-width: 0.5; stroke-linejoin: miter"/>
   </g>
   <g id="patch_9">
    <path d="M 111.031605 324.04 
L 120.477029 324.04 
L 120.477029 216.341948 
L 111.031605 216.341948 
z
" clip-path="url(#p3e06cc7cc0)" style="fill: #0072bd; opacity: 0.5; stroke: #ffffff; stroke-width: 0.5; stroke-linejoin: miter"/>
   </g>
   <g id="patch_10">
    <path d="M 120.477029 324.04 
L 129.922452 324.04 
L 129.922452 229.809032 
L 120.477029 229.809032 
z
" clip-path="url(#p3e06cc7cc0)" style="fill: #0072bd; opacity: 0.5; stroke: #ffffff; stroke-width: 0.5; stroke-linejoin: miter"/>
   </g>
   <g id="patch_11">
    <path d="M 129.922452 324.04 
L 139.367876 324.04 
L 139.367876 241.606004 
L 129.922452 241.606004 
z
" clip-path="url(#p3e06cc7cc0)" style="fill: #0072bd; opacity: 0.5; stroke: #ffffff; stroke-width: 0.5; stroke-linejoin: miter"/>
   </g>
   <g id="patch_12">
    <path d="M 139.367876 324.04 
L 148.8133 324.04 
L 148.8133 251.916287 
L 139.367876 251.916287 
z
" clip-path="url(#p3e06cc7cc0)" style="fill: #0072bd; opacity: 0.5; stroke: #ffffff; stroke-width: 0.5; stroke-linejoin: miter"/>
   </g>
   <g id="patch_13">
    <path d="M 148.8133 324.04 
L 158.258724 324.04 
L 158.258724 261.36738 
L 148.8133 261.36738 
z
" clip-path="url(#p3e06cc7cc0)" style="fill: #0072bd; opacity: 0.5; stroke: #ffffff; stroke-width: 0.5; stroke-linejoin: miter"/>
   </g>
   <g id="patch_14">
    <path d="M 158.258724 324.04 
L 167.704147 324.04 
L 167.704147 269.022862 
L 158.258724 269.022862 
z
" clip-path="url(#p3e06cc7cc0)" style="fill: #0072bd; opacity: 0.5; stroke: #ffffff; stroke-width: 0.5; stroke-linejoin: miter"/>
   </g>
   <g id="patch_15">
    <path d="M 167.704147 324.04 
L 177.149571 324.04 
L 177.149571 275.384731 
L 167.704147 275.384731 
z
" clip-path="url(#p3e06cc7cc0)" style="fill: #0072bd; opacity: 0.5; stroke: #ffffff; stroke-width: 0.5; stroke-linejoin: miter"/>
   </g>
   <g id="patch_16">
    <path d="M 177.149571 324.04 
L 186.594995 324.04 
L 186.594995 282.316176 
L 177.149571 282.316176 
z
" clip-path="url(#p3e06cc7cc0)" style="fill: #0072bd; opacity: 0.5; stroke: #ffffff; stroke-width: 0.5; stroke-linejoin: miter"/>
   </g>
   <g id="patch_17">
    <path d="M 186.594995 324.04 
L 196.040418 324.04 
L 196.040418 287.374779 
L 186.594995 287.374779 
z
" clip-path="url(#p3e06cc7cc0)" style="fill: #0072bd; opacity: 0.5; stroke: #ffffff; stroke-width: 0.5; stroke-linejoin: miter"/>
   </g>
   <g id="patch_18">
    <path d="M 196.040418 324.04 
L 205.485842 324.04 
L 205.485842 292.240306 
L 196.040418 292.240306 
z
" clip-path="url(#p3e06cc7cc0)" style="fill: #0072bd; opacity: 0.5; stroke: #ffffff; stroke-width: 0.5; stroke-linejoin: miter"/>
   </g>
   <g id="patch_19">
    <path d="M 205.485842 324.04 
L 214.931266 324.04 
L 214.931266 296.198374 
L 205.485842 296.198374 
z
" clip-path="url(#p3e06cc7cc0)" style="fill: #0072bd; opacity: 0.5; stroke: #ffffff; stroke-width: 0.5; stroke-linejoin: miter"/>
   </g>
   <g id="patch_20">
    <path d="M 214.931266 324.04 
L 224.37669 324.04 
L 224.37669 299.248982 
L 214.931266 299.248982 
z
" clip-path="url(#p3e06cc7cc0)" style="fill: #0072bd; opacity: 0.5; stroke: #ffffff; stroke-width: 0.5; stroke-linejoin: miter"/>
   </g>
   <g id="patch_21">
    <path d="M 224.37669 324.04 
L 233.822113 324.04 
L 233.822113 302.83055 
L 224.37669 302.83055 
z
" clip-path="url(#p3e06cc7cc0)" style="fill: #0072bd; opacity: 0.5; stroke: #ffffff; stroke-width: 0.5; stroke-linejoin: miter"/>
   </g>
   <g id="patch_22">
    <path d="M 233.822113 324.04 
L 243.267537 324.04 
L 243.267537 305.495006 
L 233.822113 305.495006 
z
" clip-path="url(#p3e06cc7cc0)" style="fill: #0072bd; opacity: 0.5; stroke: #ffffff; stroke-width: 0.5; stroke-linejoin: miter"/>
   </g>
   <g id="patch_23">
    <path d="M 243.267537 324.04 
L 252.712961 324.04 
L 252.712961 307.802269 
L 243.267537 307.802269 
z
" clip-path="url(#p3e06cc7cc0)" style="fill: #0072bd; opacity: 0.5; stroke: #ffffff; stroke-width: 0.5; stroke-linejoin: miter"/>
   </g>
   <g id="patch_24">
    <path d="M 252.712961 324.04 
L 262.158385 324.04 
L 262.158385 309.665457 
L 252.712961 309.665457 
z
" clip-path="url(#p3e06cc7cc0)" style="fill: #0072bd; opacity: 0.5; stroke: #ffffff; stroke-width: 0.5; stroke-linejoin: miter"/>
   </g>
   <g id="patch_25">
    <path d="M 262.158385 324.04 
L 271.603808 324.04 
L 271.603808 312.416797 
L 262.158385 312.416797 
z
" clip-path="url(#p3e06cc7cc0)" style="fill: #0072bd; opacity: 0.5; stroke: #ffffff; stroke-width: 0.5; stroke-linejoin: miter"/>
   </g>
   <g id="patch_26">
    <path d="M 271.603808 324.04 
L 281.049232 324.04 
L 281.049232 313.160141 
L 271.603808 313.160141 
z
" clip-path="url(#p3e06cc7cc0)" style="fill: #0072bd; opacity: 0.5; stroke: #ffffff; stroke-width: 0.5; stroke-linejoin: miter"/>
   </g>
   <g id="patch_27">
    <path d="M 281.049232 324.04 
L 290.494656 324.04 
L 290.494656 314.057947 
L 281.049232 314.057947 
z
" clip-path="url(#p3e06cc7cc0)" style="fill: #0072bd; opacity: 0.5; stroke: #ffffff; stroke-width: 0.5; stroke-linejoin: miter"/>
   </g>
   <g id="patch_28">
    <path d="M 290.494656 324.04 
L 299.940079 324.04 
L 299.940079 315.901827 
L 290.494656 315.901827 
z
" clip-path="url(#p3e06cc7cc0)" style="fill: #0072bd; opacity: 0.5; stroke: #ffffff; stroke-width: 0.5; stroke-linejoin: miter"/>
   </g>
   <g id="patch_29">
    <path d="M 299.940079 324.04 
L 309.385503 324.04 
L 309.385503 317.195439 
L 299.940079 317.195439 
z
" clip-path="url(#p3e06cc7cc0)" style="fill: #0072bd; opacity: 0.5; stroke: #ffffff; stroke-width: 0.5; stroke-linejoin: miter"/>
   </g>
   <g id="patch_30">
    <path d="M 309.385503 324.04 
L 318.830927 324.04 
L 318.830927 317.938784 
L 309.385503 317.938784 
z
" clip-path="url(#p3e06cc7cc0)" style="fill: #0072bd; opacity: 0.5; stroke: #ffffff; stroke-width: 0.5; stroke-linejoin: miter"/>
   </g>
   <g id="patch_31">
    <path d="M 318.830927 324.04 
L 328.276351 324.04 
L 328.276351 319.020012 
L 318.830927 319.020012 
z
" clip-path="url(#p3e06cc7cc0)" style="fill: #0072bd; opacity: 0.5; stroke: #ffffff; stroke-width: 0.5; stroke-linejoin: miter"/>
   </g>
   <g id="patch_32">
    <path d="M 328.276351 324.04 
L 337.721774 324.04 
L 337.721774 318.653167 
L 328.276351 318.653167 
z
" clip-path="url(#p3e06cc7cc0)" style="fill: #0072bd; opacity: 0.5; stroke: #ffffff; stroke-width: 0.5; stroke-linejoin: miter"/>
   </g>
   <g id="patch_33">
    <path d="M 337.721774 324.04 
L 347.167198 324.04 
L 347.167198 319.715087 
L 337.721774 319.715087 
z
" clip-path="url(#p3e06cc7cc0)" style="fill: #0072bd; opacity: 0.5; stroke: #ffffff; stroke-width: 0.5; stroke-linejoin: miter"/>
   </g>
   <g id="patch_34">
    <path d="M 347.167198 324.04 
L 356.612622 324.04 
L 356.612622 319.888856 
L 347.167198 319.888856 
z
" clip-path="url(#p3e06cc7cc0)" style="fill: #0072bd; opacity: 0.5; stroke: #ffffff; stroke-width: 0.5; stroke-linejoin: miter"/>
   </g>
   <g id="patch_35">
    <path d="M 356.612622 324.04 
L 366.058046 324.04 
L 366.058046 320.912161 
L 356.612622 320.912161 
z
" clip-path="url(#p3e06cc7cc0)" style="fill: #0072bd; opacity: 0.5; stroke: #ffffff; stroke-width: 0.5; stroke-linejoin: miter"/>
   </g>
   <g id="patch_36">
    <path d="M 366.058046 324.04 
L 375.503469 324.04 
L 375.503469 321.298314 
L 366.058046 321.298314 
z
" clip-path="url(#p3e06cc7cc0)" style="fill: #0072bd; opacity: 0.5; stroke: #ffffff; stroke-width: 0.5; stroke-linejoin: miter"/>
   </g>
   <g id="patch_37">
    <path d="M 375.503469 324.04 
L 384.948893 324.04 
L 384.948893 321.645852 
L 375.503469 321.645852 
z
" clip-path="url(#p3e06cc7cc0)" style="fill: #0072bd; opacity: 0.5; stroke: #ffffff; stroke-width: 0.5; stroke-linejoin: miter"/>
   </g>
   <g id="patch_38">
    <path d="M 384.948893 324.04 
L 394.394317 324.04 
L 394.394317 321.848582 
L 384.948893 321.848582 
z
" clip-path="url(#p3e06cc7cc0)" style="fill: #0072bd; opacity: 0.5; stroke: #ffffff; stroke-width: 0.5; stroke-linejoin: miter"/>
   </g>
   <g id="patch_39">
    <path d="M 394.394317 324.04 
L 403.83974 324.04 
L 403.83974 322.254043 
L 394.394317 322.254043 
z
" clip-path="url(#p3e06cc7cc0)" style="fill: #0072bd; opacity: 0.5; stroke: #ffffff; stroke-width: 0.5; stroke-linejoin: miter"/>
   </g>
   <g id="patch_40">
    <path d="M 403.83974 324.04 
L 413.285164 324.04 
L 413.285164 322.495388 
L 403.83974 322.495388 
z
" clip-path="url(#p3e06cc7cc0)" style="fill: #0072bd; opacity: 0.5; stroke: #ffffff; stroke-width: 0.5; stroke-linejoin: miter"/>
   </g>
   <g id="patch_41">
    <path d="M 413.285164 324.04 
L 422.730588 324.04 
L 422.730588 322.620888 
L 413.285164 322.620888 
z
" clip-path="url(#p3e06cc7cc0)" style="fill: #0072bd; opacity: 0.5; stroke: #ffffff; stroke-width: 0.5; stroke-linejoin: miter"/>
   </g>
   <g id="patch_42">
    <path d="M 422.730588 324.04 
L 432.176012 324.04 
L 432.176012 322.862234 
L 422.730588 322.862234 
z
" clip-path="url(#p3e06cc7cc0)" style="fill: #0072bd; opacity: 0.5; stroke: #ffffff; stroke-width: 0.5; stroke-linejoin: miter"/>
   </g>
   <g id="patch_43">
    <path d="M 432.176012 324.04 
L 441.621435 324.04 
L 441.621435 322.968426 
L 432.176012 322.968426 
z
" clip-path="url(#p3e06cc7cc0)" style="fill: #0072bd; opacity: 0.5; stroke: #ffffff; stroke-width: 0.5; stroke-linejoin: miter"/>
   </g>
   <g id="patch_44">
    <path d="M 441.621435 324.04 
L 451.066859 324.04 
L 451.066859 322.978079 
L 441.621435 322.978079 
z
" clip-path="url(#p3e06cc7cc0)" style="fill: #0072bd; opacity: 0.5; stroke: #ffffff; stroke-width: 0.5; stroke-linejoin: miter"/>
   </g>
   <g id="patch_45">
    <path d="M 451.066859 324.04 
L 460.512283 324.04 
L 460.512283 323.093925 
L 451.066859 323.093925 
z
" clip-path="url(#p3e06cc7cc0)" style="fill: #0072bd; opacity: 0.5; stroke: #ffffff; stroke-width: 0.5; stroke-linejoin: miter"/>
   </g>
   <g id="patch_46">
    <path d="M 460.512283 324.04 
L 469.957707 324.04 
L 469.957707 323.538001 
L 460.512283 323.538001 
z
" clip-path="url(#p3e06cc7cc0)" style="fill: #0072bd; opacity: 0.5; stroke: #ffffff; stroke-width: 0.5; stroke-linejoin: miter"/>
   </g>
   <g id="patch_47">
    <path d="M 469.957707 324.04 
L 479.40313 324.04 
L 479.40313 323.451117 
L 469.957707 323.451117 
z
" clip-path="url(#p3e06cc7cc0)" style="fill: #0072bd; opacity: 0.5; stroke: #ffffff; stroke-width: 0.5; stroke-linejoin: miter"/>
   </g>
   <g id="patch_48">
    <path d="M 479.40313 324.04 
L 488.848554 324.04 
L 488.848554 323.412501 
L 479.40313 323.412501 
z
" clip-path="url(#p3e06cc7cc0)" style="fill: #0072bd; opacity: 0.5; stroke: #ffffff; stroke-width: 0.5; stroke-linejoin: miter"/>
   </g>
   <g id="patch_49">
    <path d="M 488.848554 324.04 
L 498.293978 324.04 
L 498.293978 323.58627 
L 488.848554 323.58627 
z
" clip-path="url(#p3e06cc7cc0)" style="fill: #0072bd; opacity: 0.5; stroke: #ffffff; stroke-width: 0.5; stroke-linejoin: miter"/>
   </g>
   <g id="patch_50">
    <path d="M 498.293978 324.04 
L 507.739401 324.04 
L 507.739401 323.682809 
L 498.293978 323.682809 
z
" clip-path="url(#p3e06cc7cc0)" style="fill: #0072bd; opacity: 0.5; stroke: #ffffff; stroke-width: 0.5; stroke-linejoin: miter"/>
   </g>
   <g id="patch_51">
    <path d="M 507.739401 324.04 
L 517.184825 324.04 
L 517.184825 323.663501 
L 507.739401 323.663501 
z
" clip-path="url(#p3e06cc7cc0)" style="fill: #0072bd; opacity: 0.5; stroke: #ffffff; stroke-width: 0.5; stroke-linejoin: miter"/>
   </g>
   <g id="patch_52">
    <path d="M 517.184825 324.04 
L 526.630249 324.04 
L 526.630249 323.731078 
L 517.184825 323.731078 
z
" clip-path="url(#p3e06cc7cc0)" style="fill: #0072bd; opacity: 0.5; stroke: #ffffff; stroke-width: 0.5; stroke-linejoin: miter"/>
   </g>
   <g id="patch_53">
    <path d="M 526.630249 324.04 
L 536.075673 324.04 
L 536.075673 323.769693 
L 526.630249 323.769693 
z
" clip-path="url(#p3e06cc7cc0)" style="fill: #0072bd; opacity: 0.5; stroke: #ffffff; stroke-width: 0.5; stroke-linejoin: miter"/>
   </g>
   <g id="patch_54">
    <path d="M 536.075673 324.04 
L 545.521096 324.04 
L 545.521096 323.817962 
L 536.075673 323.817962 
z
" clip-path="url(#p3e06cc7cc0)" style="fill: #0072bd; opacity: 0.5; stroke: #ffffff; stroke-width: 0.5; stroke-linejoin: miter"/>
   </g>
   <g id="patch_55">
    <path d="M 545.521096 324.04 
L 554.96652 324.04 
L 554.96652 323.779347 
L 545.521096 323.779347 
z
" clip-path="url(#p3e06cc7cc0)" style="fill: #0072bd; opacity: 0.5; stroke: #ffffff; stroke-width: 0.5; stroke-linejoin: miter"/>
   </g>
   <g id="patch_56">
    <path d="M 554.96652 324.04 
L 564.411944 324.04 
L 564.411944 323.856577 
L 554.96652 323.856577 
z
" clip-path="url(#p3e06cc7cc0)" style="fill: #0072bd; opacity: 0.5; stroke: #ffffff; stroke-width: 0.5; stroke-linejoin: miter"/>
   </g>
   <g id="patch_57">
    <path d="M 564.411944 324.04 
L 573.857368 324.04 
L 573.857368 323.875885 
L 564.411944 323.875885 
z
" clip-path="url(#p3e06cc7cc0)" style="fill: #0072bd; opacity: 0.5; stroke: #ffffff; stroke-width: 0.5; stroke-linejoin: miter"/>
   </g>
   <g id="patch_58">
    <path d="M 573.857368 324.04 
L 583.302791 324.04 
L 583.302791 323.904846 
L 573.857368 323.904846 
z
" clip-path="url(#p3e06cc7cc0)" style="fill: #0072bd; opacity: 0.5; stroke: #ffffff; stroke-width: 0.5; stroke-linejoin: miter"/>
   </g>
   <g id="patch_59">
    <path d="M 583.302791 324.04 
L 592.748215 324.04 
L 592.748215 323.924154 
L 583.302791 323.924154 
z
" clip-path="url(#p3e06cc7cc0)" style="fill: #0072bd; opacity: 0.5; stroke: #ffffff; stroke-width: 0.5; stroke-linejoin: miter"/>
   </g>
   <g id="patch_60">
    <path d="M 592.748215 324.04 
L 602.193639 324.04 
L 602.193639 323.933808 
L 592.748215 323.933808 
z
" clip-path="url(#p3e06cc7cc0)" style="fill: #0072bd; opacity: 0.5; stroke: #ffffff; stroke-width: 0.5; stroke-linejoin: miter"/>
   </g>
   <g id="patch_61">
    <path d="M 602.193639 324.04 
L 611.639062 324.04 
L 611.639062 323.924154 
L 602.193639 323.924154 
z
" clip-path="url(#p3e06cc7cc0)" style="fill: #0072bd; opacity: 0.5; stroke: #ffffff; stroke-width: 0.5; stroke-linejoin: miter"/>
   </g>
   <g id="patch_62">
    <path d="M 54.359063 324.04 
L 63.804486 324.04 
L 63.804486 83.926406 
L 54.359063 83.926406 
z
" clip-path="url(#p3e06cc7cc0)" style="fill: #d95319; opacity: 0.5; stroke: #ffffff; stroke-width: 0.5; stroke-linejoin: miter"/>
   </g>
   <g id="patch_63">
    <path d="M 63.804486 324.04 
L 73.24991 324.04 
L 73.24991 113.269647 
L 63.804486 113.269647 
z
" clip-path="url(#p3e06cc7cc0)" style="fill: #d95319; opacity: 0.5; stroke: #ffffff; stroke-width: 0.5; stroke-linejoin: miter"/>
   </g>
   <g id="patch_64">
    <path d="M 73.24991 324.04 
L 82.695334 324.04 
L 82.695334 132.235401 
L 73.24991 132.235401 
z
" clip-path="url(#p3e06cc7cc0)" style="fill: #d95319; opacity: 0.5; stroke: #ffffff; stroke-width: 0.5; stroke-linejoin: miter"/>
   </g>
   <g id="patch_65">
    <path d="M 82.695334 324.04 
L 92.140757 324.04 
L 92.140757 158.071766 
L 82.695334 158.071766 
z
" clip-path="url(#p3e06cc7cc0)" style="fill: #d95319; opacity: 0.5; stroke: #ffffff; stroke-width: 0.5; stroke-linejoin: miter"/>
   </g>
   <g id="patch_66">
    <path d="M 92.140757 324.04 
L 101.586181 324.04 
L 101.586181 184.265977 
L 92.140757 184.265977 
z
" clip-path="url(#p3e06cc7cc0)" style="fill: #d95319; opacity: 0.5; stroke: #ffffff; stroke-width: 0.5; stroke-linejoin: miter"/>
   </g>
   <g id="patch_67">
    <path d="M 101.586181 324.04 
L 111.031605 324.04 
L 111.031605 198.365046 
L 101.586181 198.365046 
z
" clip-path="url(#p3e06cc7cc0)" style="fill: #d95319; opacity: 0.5; stroke: #ffffff; stroke-width: 0.5; stroke-linejoin: miter"/>
   </g>
   <g id="patch_68">
    <path d="M 111.031605 324.04 
L 120.477029 324.04 
L 120.477029 213.394511 
L 111.031605 213.394511 
z
" clip-path="url(#p3e06cc7cc0)" style="fill: #d95319; opacity: 0.5; stroke: #ffffff; stroke-width: 0.5; stroke-linejoin: miter"/>
   </g>
   <g id="patch_69">
    <path d="M 120.477029 324.04 
L 129.922452 324.04 
L 129.922452 234.006349 
L 120.477029 234.006349 
z
" clip-path="url(#p3e06cc7cc0)" style="fill: #d95319; opacity: 0.5; stroke: #ffffff; stroke-width: 0.5; stroke-linejoin: miter"/>
   </g>
   <g id="patch_70">
    <path d="M 129.922452 324.04 
L 139.367876 324.04 
L 139.367876 241.091668 
L 129.922452 241.091668 
z
" clip-path="url(#p3e06cc7cc0)" style="fill: #d95319; opacity: 0.5; stroke: #ffffff; stroke-width: 0.5; stroke-linejoin: miter"/>
   </g>
   <g id="patch_71">
    <path d="M 139.367876 324.04 
L 148.8133 324.04 
L 148.8133 251.612293 
L 139.367876 251.612293 
z
" clip-path="url(#p3e06cc7cc0)" style="fill: #d95319; opacity: 0.5; stroke: #ffffff; stroke-width: 0.5; stroke-linejoin: miter"/>
   </g>
   <g id="patch_72">
    <path d="M 148.8133 324.04 
L 158.258724 324.04 
L 158.258724 257.767217 
L 148.8133 257.767217 
z
" clip-path="url(#p3e06cc7cc0)" style="fill: #d95319; opacity: 0.5; stroke: #ffffff; stroke-width: 0.5; stroke-linejoin: miter"/>
   </g>
   <g id="patch_73">
    <path d="M 158.258724 324.04 
L 167.704147 324.04 
L 167.704147 271.222166 
L 158.258724 271.222166 
z
" clip-path="url(#p3e06cc7cc0)" style="fill: #d95319; opacity: 0.5; stroke: #ffffff; stroke-width: 0.5; stroke-linejoin: miter"/>
   </g>
   <g id="patch_74">
    <path d="M 167.704147 324.04 
L 177.149571 324.04 
L 177.149571 277.448659 
L 167.704147 277.448659 
z
" clip-path="url(#p3e06cc7cc0)" style="fill: #d95319; opacity: 0.5; stroke: #ffffff; stroke-width: 0.5; stroke-linejoin: miter"/>
   </g>
   <g id="patch_75">
    <path d="M 177.149571 324.04 
L 186.594995 324.04 
L 186.594995 284.605547 
L 177.149571 284.605547 
z
" clip-path="url(#p3e06cc7cc0)" style="fill: #d95319; opacity: 0.5; stroke: #ffffff; stroke-width: 0.5; stroke-linejoin: miter"/>
   </g>
   <g id="patch_76">
    <path d="M 186.594995 324.04 
L 196.040418 324.04 
L 196.040418 286.537907 
L 186.594995 286.537907 
z
" clip-path="url(#p3e06cc7cc0)" style="fill: #d95319; opacity: 0.5; stroke: #ffffff; stroke-width: 0.5; stroke-linejoin: miter"/>
   </g>
   <g id="patch_77">
    <path d="M 196.040418 324.04 
L 205.485842 324.04 
L 205.485842 289.329093 
L 196.040418 289.329093 
z
" clip-path="url(#p3e06cc7cc0)" style="fill: #d95319; opacity: 0.5; stroke: #ffffff; stroke-width: 0.5; stroke-linejoin: miter"/>
   </g>
   <g id="patch_78">
    <path d="M 205.485842 324.04 
L 214.931266 324.04 
L 214.931266 293.122244 
L 205.485842 293.122244 
z
" clip-path="url(#p3e06cc7cc0)" style="fill: #d95319; opacity: 0.5; stroke: #ffffff; stroke-width: 0.5; stroke-linejoin: miter"/>
   </g>
   <g id="patch_79">
    <path d="M 214.931266 324.04 
L 224.37669 324.04 
L 224.37669 298.704616 
L 214.931266 298.704616 
z
" clip-path="url(#p3e06cc7cc0)" style="fill: #d95319; opacity: 0.5; stroke: #ffffff; stroke-width: 0.5; stroke-linejoin: miter"/>
   </g>
   <g id="patch_80">
    <path d="M 224.37669 324.04 
L 233.822113 324.04 
L 233.822113 303.428162 
L 224.37669 303.428162 
z
" clip-path="url(#p3e06cc7cc0)" style="fill: #d95319; opacity: 0.5; stroke: #ffffff; stroke-width: 0.5; stroke-linejoin: miter"/>
   </g>
   <g id="patch_81">
    <path d="M 233.822113 324.04 
L 243.267537 324.04 
L 243.267537 305.718367 
L 233.822113 305.718367 
z
" clip-path="url(#p3e06cc7cc0)" style="fill: #d95319; opacity: 0.5; stroke: #ffffff; stroke-width: 0.5; stroke-linejoin: miter"/>
   </g>
   <g id="patch_82">
    <path d="M 243.267537 324.04 
L 252.712961 324.04 
L 252.712961 307.865433 
L 243.267537 307.865433 
z
" clip-path="url(#p3e06cc7cc0)" style="fill: #d95319; opacity: 0.5; stroke: #ffffff; stroke-width: 0.5; stroke-linejoin: miter"/>
   </g>
   <g id="patch_83">
    <path d="M 252.712961 324.04 
L 262.158385 324.04 
L 262.158385 309.511517 
L 252.712961 309.511517 
z
" clip-path="url(#p3e06cc7cc0)" style="fill: #d95319; opacity: 0.5; stroke: #ffffff; stroke-width: 0.5; stroke-linejoin: miter"/>
   </g>
   <g id="patch_84">
    <path d="M 262.158385 324.04 
L 271.603808 324.04 
L 271.603808 312.159566 
L 262.158385 312.159566 
z
" clip-path="url(#p3e06cc7cc0)" style="fill: #d95319; opacity: 0.5; stroke: #ffffff; stroke-width: 0.5; stroke-linejoin: miter"/>
   </g>
   <g id="patch_85">
    <path d="M 271.603808 324.04 
L 281.049232 324.04 
L 281.049232 312.875255 
L 271.603808 312.875255 
z
" clip-path="url(#p3e06cc7cc0)" style="fill: #d95319; opacity: 0.5; stroke: #ffffff; stroke-width: 0.5; stroke-linejoin: miter"/>
   </g>
   <g id="patch_86">
    <path d="M 281.049232 324.04 
L 290.494656 324.04 
L 290.494656 315.380165 
L 281.049232 315.380165 
z
" clip-path="url(#p3e06cc7cc0)" style="fill: #d95319; opacity: 0.5; stroke: #ffffff; stroke-width: 0.5; stroke-linejoin: miter"/>
   </g>
   <g id="patch_87">
    <path d="M 290.494656 324.04 
L 299.940079 324.04 
L 299.940079 316.453699 
L 290.494656 316.453699 
z
" clip-path="url(#p3e06cc7cc0)" style="fill: #d95319; opacity: 0.5; stroke: #ffffff; stroke-width: 0.5; stroke-linejoin: miter"/>
   </g>
   <g id="patch_88">
    <path d="M 299.940079 324.04 
L 309.385503 324.04 
L 309.385503 315.022321 
L 299.940079 315.022321 
z
" clip-path="url(#p3e06cc7cc0)" style="fill: #d95319; opacity: 0.5; stroke: #ffffff; stroke-width: 0.5; stroke-linejoin: miter"/>
   </g>
   <g id="patch_89">
    <path d="M 309.385503 324.04 
L 318.830927 324.04 
L 318.830927 316.954681 
L 309.385503 316.954681 
z
" clip-path="url(#p3e06cc7cc0)" style="fill: #d95319; opacity: 0.5; stroke: #ffffff; stroke-width: 0.5; stroke-linejoin: miter"/>
   </g>
   <g id="patch_90">
    <path d="M 318.830927 324.04 
L 328.276351 324.04 
L 328.276351 319.745867 
L 318.830927 319.745867 
z
" clip-path="url(#p3e06cc7cc0)" style="fill: #d95319; opacity: 0.5; stroke: #ffffff; stroke-width: 0.5; stroke-linejoin: miter"/>
   </g>
   <g id="patch_91">
    <path d="M 328.276351 324.04 
L 337.721774 324.04 
L 337.721774 319.674298 
L 328.276351 319.674298 
z
" clip-path="url(#p3e06cc7cc0)" style="fill: #d95319; opacity: 0.5; stroke: #ffffff; stroke-width: 0.5; stroke-linejoin: miter"/>
   </g>
   <g id="patch_92">
    <path d="M 337.721774 324.04 
L 347.167198 324.04 
L 347.167198 319.531161 
L 337.721774 319.531161 
z
" clip-path="url(#p3e06cc7cc0)" style="fill: #d95319; opacity: 0.5; stroke: #ffffff; stroke-width: 0.5; stroke-linejoin: miter"/>
   </g>
   <g id="patch_93">
    <path d="M 347.167198 324.04 
L 356.612622 324.04 
L 356.612622 320.17528 
L 347.167198 320.17528 
z
" clip-path="url(#p3e06cc7cc0)" style="fill: #d95319; opacity: 0.5; stroke: #ffffff; stroke-width: 0.5; stroke-linejoin: miter"/>
   </g>
   <g id="patch_94">
    <path d="M 356.612622 324.04 
L 366.058046 324.04 
L 366.058046 321.535089 
L 356.612622 321.535089 
z
" clip-path="url(#p3e06cc7cc0)" style="fill: #d95319; opacity: 0.5; stroke: #ffffff; stroke-width: 0.5; stroke-linejoin: miter"/>
   </g>
   <g id="patch_95">
    <path d="M 366.058046 324.04 
L 375.503469 324.04 
L 375.503469 321.034107 
L 366.058046 321.034107 
z
" clip-path="url(#p3e06cc7cc0)" style="fill: #d95319; opacity: 0.5; stroke: #ffffff; stroke-width: 0.5; stroke-linejoin: miter"/>
   </g>
   <g id="patch_96">
    <path d="M 375.503469 324.04 
L 384.948893 324.04 
L 384.948893 321.606658 
L 375.503469 321.606658 
z
" clip-path="url(#p3e06cc7cc0)" style="fill: #d95319; opacity: 0.5; stroke: #ffffff; stroke-width: 0.5; stroke-linejoin: miter"/>
   </g>
   <g id="patch_97">
    <path d="M 384.948893 324.04 
L 394.394317 324.04 
L 394.394317 321.964502 
L 384.948893 321.964502 
z
" clip-path="url(#p3e06cc7cc0)" style="fill: #d95319; opacity: 0.5; stroke: #ffffff; stroke-width: 0.5; stroke-linejoin: miter"/>
   </g>
   <g id="patch_98">
    <path d="M 394.394317 324.04 
L 403.83974 324.04 
L 403.83974 322.680191 
L 394.394317 322.680191 
z
" clip-path="url(#p3e06cc7cc0)" style="fill: #d95319; opacity: 0.5; stroke: #ffffff; stroke-width: 0.5; stroke-linejoin: miter"/>
   </g>
   <g id="patch_99">
    <path d="M 403.83974 324.04 
L 413.285164 324.04 
L 413.285164 321.892934 
L 403.83974 321.892934 
z
" clip-path="url(#p3e06cc7cc0)" style="fill: #d95319; opacity: 0.5; stroke: #ffffff; stroke-width: 0.5; stroke-linejoin: miter"/>
   </g>
   <g id="patch_100">
    <path d="M 413.285164 324.04 
L 422.730588 324.04 
L 422.730588 322.823329 
L 413.285164 322.823329 
z
" clip-path="url(#p3e06cc7cc0)" style="fill: #d95319; opacity: 0.5; stroke: #ffffff; stroke-width: 0.5; stroke-linejoin: miter"/>
   </g>
   <g id="patch_101">
    <path d="M 422.730588 324.04 
L 432.176012 324.04 
L 432.176012 322.465485 
L 422.730588 322.465485 
z
" clip-path="url(#p3e06cc7cc0)" style="fill: #d95319; opacity: 0.5; stroke: #ffffff; stroke-width: 0.5; stroke-linejoin: miter"/>
   </g>
   <g id="patch_102">
    <path d="M 432.176012 324.04 
L 441.621435 324.04 
L 441.621435 323.109605 
L 432.176012 323.109605 
z
" clip-path="url(#p3e06cc7cc0)" style="fill: #d95319; opacity: 0.5; stroke: #ffffff; stroke-width: 0.5; stroke-linejoin: miter"/>
   </g>
   <g id="patch_103">
    <path d="M 441.621435 324.04 
L 451.066859 324.04 
L 451.066859 323.109605 
L 441.621435 323.109605 
z
" clip-path="url(#p3e06cc7cc0)" style="fill: #d95319; opacity: 0.5; stroke: #ffffff; stroke-width: 0.5; stroke-linejoin: miter"/>
   </g>
   <g id="patch_104">
    <path d="M 451.066859 324.04 
L 460.512283 324.04 
L 460.512283 323.252742 
L 451.066859 323.252742 
z
" clip-path="url(#p3e06cc7cc0)" style="fill: #d95319; opacity: 0.5; stroke: #ffffff; stroke-width: 0.5; stroke-linejoin: miter"/>
   </g>
   <g id="patch_105">
    <path d="M 460.512283 324.04 
L 469.957707 324.04 
L 469.957707 323.39588 
L 460.512283 323.39588 
z
" clip-path="url(#p3e06cc7cc0)" style="fill: #d95319; opacity: 0.5; stroke: #ffffff; stroke-width: 0.5; stroke-linejoin: miter"/>
   </g>
   <g id="patch_106">
    <path d="M 469.957707 324.04 
L 479.40313 324.04 
L 479.40313 323.467449 
L 469.957707 323.467449 
z
" clip-path="url(#p3e06cc7cc0)" style="fill: #d95319; opacity: 0.5; stroke: #ffffff; stroke-width: 0.5; stroke-linejoin: miter"/>
   </g>
   <g id="patch_107">
    <path d="M 479.40313 324.04 
L 488.848554 324.04 
L 488.848554 323.39588 
L 479.40313 323.39588 
z
" clip-path="url(#p3e06cc7cc0)" style="fill: #d95319; opacity: 0.5; stroke: #ffffff; stroke-width: 0.5; stroke-linejoin: miter"/>
   </g>
   <g id="patch_108">
    <path d="M 488.848554 324.04 
L 498.293978 324.04 
L 498.293978 323.682156 
L 488.848554 323.682156 
z
" clip-path="url(#p3e06cc7cc0)" style="fill: #d95319; opacity: 0.5; stroke: #ffffff; stroke-width: 0.5; stroke-linejoin: miter"/>
   </g>
   <g id="patch_109">
    <path d="M 498.293978 324.04 
L 507.739401 324.04 
L 507.739401 323.753724 
L 498.293978 323.753724 
z
" clip-path="url(#p3e06cc7cc0)" style="fill: #d95319; opacity: 0.5; stroke: #ffffff; stroke-width: 0.5; stroke-linejoin: miter"/>
   </g>
   <g id="patch_110">
    <path d="M 507.739401 324.04 
L 517.184825 324.04 
L 517.184825 323.467449 
L 507.739401 323.467449 
z
" clip-path="url(#p3e06cc7cc0)" style="fill: #d95319; opacity: 0.5; stroke: #ffffff; stroke-width: 0.5; stroke-linejoin: miter"/>
   </g>
   <g id="patch_111">
    <path d="M 517.184825 324.04 
L 526.630249 324.04 
L 526.630249 323.825293 
L 517.184825 323.825293 
z
" clip-path="url(#p3e06cc7cc0)" style="fill: #d95319; opacity: 0.5; stroke: #ffffff; stroke-width: 0.5; stroke-linejoin: miter"/>
   </g>
   <g id="patch_112">
    <path d="M 526.630249 324.04 
L 536.075673 324.04 
L 536.075673 323.896862 
L 526.630249 323.896862 
z
" clip-path="url(#p3e06cc7cc0)" style="fill: #d95319; opacity: 0.5; stroke: #ffffff; stroke-width: 0.5; stroke-linejoin: miter"/>
   </g>
   <g id="patch_113">
    <path d="M 536.075673 324.04 
L 545.521096 324.04 
L 545.521096 323.682156 
L 536.075673 323.682156 
z
" clip-path="url(#p3e06cc7cc0)" style="fill: #d95319; opacity: 0.5; stroke: #ffffff; stroke-width: 0.5; stroke-linejoin: miter"/>
   </g>
   <g id="patch_114">
    <path d="M 545.521096 324.04 
L 554.96652 324.04 
L 554.96652 323.825293 
L 545.521096 323.825293 
z
" clip-path="url(#p3e06cc7cc0)" style="fill: #d95319; opacity: 0.5; stroke: #ffffff; stroke-width: 0.5; stroke-linejoin: miter"/>
   </g>
   <g id="patch_115">
    <path d="M 554.96652 324.04 
L 564.411944 324.04 
L 564.411944 323.896862 
L 554.96652 323.896862 
z
" clip-path="url(#p3e06cc7cc0)" style="fill: #d95319; opacity: 0.5; stroke: #ffffff; stroke-width: 0.5; stroke-linejoin: miter"/>
   </g>
   <g id="patch_116">
    <path d="M 564.411944 324.04 
L 573.857368 324.04 
L 573.857368 323.467449 
L 564.411944 323.467449 
z
" clip-path="url(#p3e06cc7cc0)" style="fill: #d95319; opacity: 0.5; stroke: #ffffff; stroke-width: 0.5; stroke-linejoin: miter"/>
   </g>
   <g id="patch_117">
    <path d="M 573.857368 324.04 
L 583.302791 324.04 
L 583.302791 323.825293 
L 573.857368 323.825293 
z
" clip-path="url(#p3e06cc7cc0)" style="fill: #d95319; opacity: 0.5; stroke: #ffffff; stroke-width: 0.5; stroke-linejoin: miter"/>
   </g>
   <g id="patch_118">
    <path d="M 583.302791 324.04 
L 592.748215 324.04 
L 592.748215 323.753724 
L 583.302791 323.753724 
z
" clip-path="url(#p3e06cc7cc0)" style="fill: #d95319; opacity: 0.5; stroke: #ffffff; stroke-width: 0.5; stroke-linejoin: miter"/>
   </g>
   <g id="patch_119">
    <path d="M 592.748215 324.04 
L 602.193639 324.04 
L 602.193639 323.968431 
L 592.748215 323.968431 
z
" clip-path="url(#p3e06cc7cc0)" style="fill: #d95319; opacity: 0.5; stroke: #ffffff; stroke-width: 0.5; stroke-linejoin: miter"/>
   </g>
   <g id="patch_120">
    <path d="M 602.193639 324.04 
L 611.639062 324.04 
L 611.639062 324.04 
L 602.193639 324.04 
z
" clip-path="url(#p3e06cc7cc0)" style="fill: #d95319; opacity: 0.5; stroke: #ffffff; stroke-width: 0.5; stroke-linejoin: miter"/>
   </g>
   <g id="matplotlib.axis_1">
    <g id="xtick_1">
     <g id="line2d_1">
      <path d="M 54.359063 324.04 
L 54.359063 23.08 
" clip-path="url(#p3e06cc7cc0)" style="fill: none; stroke: #b0b0b0; stroke-opacity: 0.15; stroke-width: 0.8; stroke-linecap: square"/>
     </g>
     <g id="line2d_2">
      <defs>
       <path id="mfb4fedbe16" d="M 0 0 
L 0 3.5 
" style="stroke: #000000; stroke-width: 0.8"/>
      </defs>
      <g>
       <use xlink:href="#mfb4fedbe16" x="54.359063" y="324.04" style="stroke: #000000; stroke-width: 0.8"/>
      </g>
     </g>
     <g id="text_1">
      <!-- 0 -->
      <g transform="translate(50.223438 340.917969) scale(0.13 -0.13)">
       <defs>
        <path id="DejaVuSerif-30" d="M 2034 219 
Q 2513 219 2750 744 
Q 2988 1269 2988 2328 
Q 2988 3391 2750 3916 
Q 2513 4441 2034 4441 
Q 1556 4441 1318 3916 
Q 1081 3391 1081 2328 
Q 1081 1269 1318 744 
Q 1556 219 2034 219 
z
M 2034 -91 
Q 1275 -91 848 546 
Q 422 1184 422 2328 
Q 422 3475 848 4112 
Q 1275 4750 2034 4750 
Q 2797 4750 3222 4112 
Q 3647 3475 3647 2328 
Q 3647 1184 3222 546 
Q 2797 -91 2034 -91 
z
" transform="scale(0.015625)"/>
       </defs>
       <use xlink:href="#DejaVuSerif-30"/>
      </g>
     </g>
    </g>
    <g id="xtick_2">
     <g id="line2d_3">
      <path d="M 124.019062 324.04 
L 124.019062 23.08 
" clip-path="url(#p3e06cc7cc0)" style="fill: none; stroke: #b0b0b0; stroke-opacity: 0.15; stroke-width: 0.8; stroke-linecap: square"/>
     </g>
     <g id="line2d_4">
      <g>
       <use xlink:href="#mfb4fedbe16" x="124.019062" y="324.04" style="stroke: #000000; stroke-width: 0.8"/>
      </g>
     </g>
     <g id="text_2">
      <!-- 1 -->
      <g transform="translate(119.883437 340.917969) scale(0.13 -0.13)">
       <defs>
        <path id="DejaVuSerif-31" d="M 909 0 
L 909 331 
L 1722 331 
L 1722 4213 
L 781 3603 
L 781 4013 
L 1919 4750 
L 2350 4750 
L 2350 331 
L 3163 331 
L 3163 0 
L 909 0 
z
" transform="scale(0.015625)"/>
       </defs>
       <use xlink:href="#DejaVuSerif-31"/>
      </g>
     </g>
    </g>
    <g id="xtick_3">
     <g id="line2d_5">
      <path d="M 193.679062 324.04 
L 193.679062 23.08 
" clip-path="url(#p3e06cc7cc0)" style="fill: none; stroke: #b0b0b0; stroke-opacity: 0.15; stroke-width: 0.8; stroke-linecap: square"/>
     </g>
     <g id="line2d_6">
      <g>
       <use xlink:href="#mfb4fedbe16" x="193.679062" y="324.04" style="stroke: #000000; stroke-width: 0.8"/>
      </g>
     </g>
     <g id="text_3">
      <!-- 2 -->
      <g transform="translate(189.543437 340.917969) scale(0.13 -0.13)">
       <defs>
        <path id="DejaVuSerif-32" d="M 819 3553 
L 469 3553 
L 469 4384 
Q 803 4563 1142 4656 
Q 1481 4750 1806 4750 
Q 2534 4750 2956 4397 
Q 3378 4044 3378 3438 
Q 3378 2753 2422 1800 
Q 2347 1728 2309 1691 
L 1131 513 
L 3078 513 
L 3078 1088 
L 3444 1088 
L 3444 0 
L 434 0 
L 434 341 
L 1850 1753 
Q 2319 2222 2519 2614 
Q 2719 3006 2719 3438 
Q 2719 3909 2473 4175 
Q 2228 4441 1797 4441 
Q 1350 4441 1106 4219 
Q 863 3997 819 3553 
z
" transform="scale(0.015625)"/>
       </defs>
       <use xlink:href="#DejaVuSerif-32"/>
      </g>
     </g>
    </g>
    <g id="xtick_4">
     <g id="line2d_7">
      <path d="M 263.339062 324.04 
L 263.339062 23.08 
" clip-path="url(#p3e06cc7cc0)" style="fill: none; stroke: #b0b0b0; stroke-opacity: 0.15; stroke-width: 0.8; stroke-linecap: square"/>
     </g>
     <g id="line2d_8">
      <g>
       <use xlink:href="#mfb4fedbe16" x="263.339062" y="324.04" style="stroke: #000000; stroke-width: 0.8"/>
      </g>
     </g>
     <g id="text_4">
      <!-- 3 -->
      <g transform="translate(259.203437 340.917969) scale(0.13 -0.13)">
       <defs>
        <path id="DejaVuSerif-33" d="M 622 4469 
Q 988 4606 1323 4678 
Q 1659 4750 1953 4750 
Q 2638 4750 3022 4454 
Q 3406 4159 3406 3634 
Q 3406 3213 3140 2930 
Q 2875 2647 2388 2547 
Q 2963 2466 3280 2130 
Q 3597 1794 3597 1259 
Q 3597 606 3158 257 
Q 2719 -91 1894 -91 
Q 1528 -91 1179 -12 
Q 831 66 488 225 
L 488 1131 
L 838 1131 
Q 869 681 1141 450 
Q 1413 219 1906 219 
Q 2384 219 2661 495 
Q 2938 772 2938 1253 
Q 2938 1803 2653 2086 
Q 2369 2369 1819 2369 
L 1522 2369 
L 1522 2688 
L 1678 2688 
Q 2225 2688 2498 2914 
Q 2772 3141 2772 3597 
Q 2772 4006 2547 4223 
Q 2322 4441 1900 4441 
Q 1478 4441 1245 4241 
Q 1013 4041 972 3647 
L 622 3647 
L 622 4469 
z
" transform="scale(0.015625)"/>
       </defs>
       <use xlink:href="#DejaVuSerif-33"/>
      </g>
     </g>
    </g>
    <g id="xtick_5">
     <g id="line2d_9">
      <path d="M 332.999062 324.04 
L 332.999062 23.08 
" clip-path="url(#p3e06cc7cc0)" style="fill: none; stroke: #b0b0b0; stroke-opacity: 0.15; stroke-width: 0.8; stroke-linecap: square"/>
     </g>
     <g id="line2d_10">
      <g>
       <use xlink:href="#mfb4fedbe16" x="332.999062" y="324.04" style="stroke: #000000; stroke-width: 0.8"/>
      </g>
     </g>
     <g id="text_5">
      <!-- 4 -->
      <g transform="translate(328.863437 340.917969) scale(0.13 -0.13)">
       <defs>
        <path id="DejaVuSerif-34" d="M 2234 1581 
L 2234 4063 
L 641 1581 
L 2234 1581 
z
M 3609 0 
L 1484 0 
L 1484 331 
L 2234 331 
L 2234 1247 
L 197 1247 
L 197 1588 
L 2241 4750 
L 2859 4750 
L 2859 1581 
L 3750 1581 
L 3750 1247 
L 2859 1247 
L 2859 331 
L 3609 331 
L 3609 0 
z
" transform="scale(0.015625)"/>
       </defs>
       <use xlink:href="#DejaVuSerif-34"/>
      </g>
     </g>
    </g>
    <g id="xtick_6">
     <g id="line2d_11">
      <path d="M 402.659062 324.04 
L 402.659062 23.08 
" clip-path="url(#p3e06cc7cc0)" style="fill: none; stroke: #b0b0b0; stroke-opacity: 0.15; stroke-width: 0.8; stroke-linecap: square"/>
     </g>
     <g id="line2d_12">
      <g>
       <use xlink:href="#mfb4fedbe16" x="402.659062" y="324.04" style="stroke: #000000; stroke-width: 0.8"/>
      </g>
     </g>
     <g id="text_6">
      <!-- 5 -->
      <g transform="translate(398.523437 340.917969) scale(0.13 -0.13)">
       <defs>
        <path id="DejaVuSerif-35" d="M 3219 4666 
L 3219 4153 
L 1081 4153 
L 1081 2816 
Q 1244 2928 1461 2984 
Q 1678 3041 1947 3041 
Q 2703 3041 3140 2622 
Q 3578 2203 3578 1478 
Q 3578 738 3136 323 
Q 2694 -91 1894 -91 
Q 1572 -91 1234 -12 
Q 897 66 544 225 
L 544 1131 
L 897 1131 
Q 925 688 1179 453 
Q 1434 219 1894 219 
Q 2388 219 2653 544 
Q 2919 869 2919 1478 
Q 2919 2084 2655 2407 
Q 2391 2731 1894 2731 
Q 1613 2731 1398 2631 
Q 1184 2531 1019 2322 
L 750 2322 
L 750 4666 
L 3219 4666 
z
" transform="scale(0.015625)"/>
       </defs>
       <use xlink:href="#DejaVuSerif-35"/>
      </g>
     </g>
    </g>
    <g id="xtick_7">
     <g id="line2d_13">
      <path d="M 472.319062 324.04 
L 472.319062 23.08 
" clip-path="url(#p3e06cc7cc0)" style="fill: none; stroke: #b0b0b0; stroke-opacity: 0.15; stroke-width: 0.8; stroke-linecap: square"/>
     </g>
     <g id="line2d_14">
      <g>
       <use xlink:href="#mfb4fedbe16" x="472.319062" y="324.04" style="stroke: #000000; stroke-width: 0.8"/>
      </g>
     </g>
     <g id="text_7">
      <!-- 6 -->
      <g transform="translate(468.183437 340.917969) scale(0.13 -0.13)">
       <defs>
        <path id="DejaVuSerif-36" d="M 2094 219 
Q 2534 219 2771 542 
Q 3009 866 3009 1472 
Q 3009 2078 2771 2401 
Q 2534 2725 2094 2725 
Q 1647 2725 1412 2412 
Q 1178 2100 1178 1509 
Q 1178 888 1415 553 
Q 1653 219 2094 219 
z
M 1075 2569 
Q 1288 2803 1556 2918 
Q 1825 3034 2163 3034 
Q 2859 3034 3264 2615 
Q 3669 2197 3669 1472 
Q 3669 763 3233 336 
Q 2797 -91 2069 -91 
Q 1278 -91 853 498 
Q 428 1088 428 2181 
Q 428 3406 931 4078 
Q 1434 4750 2350 4750 
Q 2597 4750 2869 4703 
Q 3141 4656 3425 4563 
L 3425 3794 
L 3072 3794 
Q 3034 4109 2831 4275 
Q 2628 4441 2284 4441 
Q 1678 4441 1381 3981 
Q 1084 3522 1075 2569 
z
" transform="scale(0.015625)"/>
       </defs>
       <use xlink:href="#DejaVuSerif-36"/>
      </g>
     </g>
    </g>
    <g id="xtick_8">
     <g id="line2d_15">
      <path d="M 541.979062 324.04 
L 541.979062 23.08 
" clip-path="url(#p3e06cc7cc0)" style="fill: none; stroke: #b0b0b0; stroke-opacity: 0.15; stroke-width: 0.8; stroke-linecap: square"/>
     </g>
     <g id="line2d_16">
      <g>
       <use xlink:href="#mfb4fedbe16" x="541.979062" y="324.04" style="stroke: #000000; stroke-width: 0.8"/>
      </g>
     </g>
     <g id="text_8">
      <!-- 7 -->
      <g transform="translate(537.843437 340.917969) scale(0.13 -0.13)">
       <defs>
        <path id="DejaVuSerif-37" d="M 3609 4347 
L 1784 0 
L 1319 0 
L 3059 4153 
L 903 4153 
L 903 3578 
L 538 3578 
L 538 4666 
L 3609 4666 
L 3609 4347 
z
" transform="scale(0.015625)"/>
       </defs>
       <use xlink:href="#DejaVuSerif-37"/>
      </g>
     </g>
    </g>
    <g id="xtick_9">
     <g id="line2d_17">
      <path d="M 611.639062 324.04 
L 611.639062 23.08 
" clip-path="url(#p3e06cc7cc0)" style="fill: none; stroke: #b0b0b0; stroke-opacity: 0.15; stroke-width: 0.8; stroke-linecap: square"/>
     </g>
     <g id="line2d_18">
      <g>
       <use xlink:href="#mfb4fedbe16" x="611.639062" y="324.04" style="stroke: #000000; stroke-width: 0.8"/>
      </g>
     </g>
     <g id="text_9">
      <!-- 8 -->
      <g transform="translate(607.503437 340.917969) scale(0.13 -0.13)">
       <defs>
        <path id="DejaVuSerif-38" d="M 2981 1275 
Q 2981 1775 2732 2051 
Q 2484 2328 2034 2328 
Q 1584 2328 1336 2051 
Q 1088 1775 1088 1275 
Q 1088 772 1336 495 
Q 1584 219 2034 219 
Q 2484 219 2732 495 
Q 2981 772 2981 1275 
z
M 2853 3541 
Q 2853 3966 2637 4203 
Q 2422 4441 2034 4441 
Q 1650 4441 1433 4203 
Q 1216 3966 1216 3541 
Q 1216 3113 1433 2875 
Q 1650 2638 2034 2638 
Q 2422 2638 2637 2875 
Q 2853 3113 2853 3541 
z
M 2516 2484 
Q 3047 2413 3344 2092 
Q 3641 1772 3641 1275 
Q 3641 619 3225 264 
Q 2809 -91 2034 -91 
Q 1263 -91 845 264 
Q 428 619 428 1275 
Q 428 1772 725 2092 
Q 1022 2413 1556 2484 
Q 1084 2569 832 2842 
Q 581 3116 581 3541 
Q 581 4103 968 4426 
Q 1356 4750 2034 4750 
Q 2713 4750 3100 4426 
Q 3488 4103 3488 3541 
Q 3488 3116 3236 2842 
Q 2984 2569 2516 2484 
z
" transform="scale(0.015625)"/>
       </defs>
       <use xlink:href="#DejaVuSerif-38"/>
      </g>
     </g>
    </g>
    <g id="text_10">
     <!-- $t$ -->
     <g transform="translate(330.039062 359.779062) scale(0.16 -0.16)">
      <defs>
       <path id="Cmmi10-74" d="M 397 519 
Q 397 613 416 697 
L 878 2534 
L 206 2534 
Q 141 2534 141 2619 
Q 166 2759 225 2759 
L 934 2759 
L 1191 3803 
Q 1216 3888 1291 3947 
Q 1366 4006 1459 4006 
Q 1541 4006 1595 3957 
Q 1650 3909 1650 3828 
Q 1650 3809 1648 3798 
Q 1647 3788 1644 3775 
L 1388 2759 
L 2047 2759 
Q 2113 2759 2113 2675 
Q 2109 2659 2100 2621 
Q 2091 2584 2075 2559 
Q 2059 2534 2028 2534 
L 1331 2534 
L 872 684 
Q 825 503 825 372 
Q 825 97 1013 97 
Q 1294 97 1511 361 
Q 1728 625 1844 941 
Q 1869 978 1894 978 
L 1972 978 
Q 1997 978 2012 961 
Q 2028 944 2028 922 
Q 2028 909 2022 903 
Q 1881 516 1612 222 
Q 1344 -72 997 -72 
Q 744 -72 570 93 
Q 397 259 397 519 
z
" transform="scale(0.015625)"/>
      </defs>
      <use xlink:href="#Cmmi10-74" transform="translate(0 0.40625)"/>
     </g>
    </g>
   </g>
   <g id="matplotlib.axis_2">
    <g id="ytick_1">
     <g id="line2d_19">
      <path d="M 54.359063 324.04 
L 611.639062 324.04 
" clip-path="url(#p3e06cc7cc0)" style="fill: none; stroke: #b0b0b0; stroke-opacity: 0.15; stroke-width: 0.8; stroke-linecap: square"/>
     </g>
     <g id="line2d_20">
      <defs>
       <path id="m19bfafcbc7" d="M 0 0 
L -3.5 0 
" style="stroke: #000000; stroke-width: 0.8"/>
      </defs>
      <g>
       <use xlink:href="#m19bfafcbc7" x="54.359063" y="324.04" style="stroke: #000000; stroke-width: 0.8"/>
      </g>
     </g>
     <g id="text_11">
      <!-- 0.0 -->
      <g transform="translate(26.685 328.978984) scale(0.13 -0.13)">
       <defs>
        <path id="DejaVuSerif-2e" d="M 603 325 
Q 603 500 722 622 
Q 841 744 1019 744 
Q 1191 744 1312 622 
Q 1434 500 1434 325 
Q 1434 153 1312 31 
Q 1191 -91 1019 -91 
Q 841 -91 722 29 
Q 603 150 603 325 
z
" transform="scale(0.015625)"/>
       </defs>
       <use xlink:href="#DejaVuSerif-30"/>
       <use xlink:href="#DejaVuSerif-2e" transform="translate(63.623047 0)"/>
       <use xlink:href="#DejaVuSerif-30" transform="translate(95.410156 0)"/>
      </g>
     </g>
    </g>
    <g id="ytick_2">
     <g id="line2d_21">
      <path d="M 54.359063 271.69913 
L 611.639062 271.69913 
" clip-path="url(#p3e06cc7cc0)" style="fill: none; stroke: #b0b0b0; stroke-opacity: 0.15; stroke-width: 0.8; stroke-linecap: square"/>
     </g>
     <g id="line2d_22">
      <g>
       <use xlink:href="#m19bfafcbc7" x="54.359063" y="271.69913" style="stroke: #000000; stroke-width: 0.8"/>
      </g>
     </g>
     <g id="text_12">
      <!-- 0.2 -->
      <g transform="translate(26.685 276.638115) scale(0.13 -0.13)">
       <use xlink:href="#DejaVuSerif-30"/>
       <use xlink:href="#DejaVuSerif-2e" transform="translate(63.623047 0)"/>
       <use xlink:href="#DejaVuSerif-32" transform="translate(95.410156 0)"/>
      </g>
     </g>
    </g>
    <g id="ytick_3">
     <g id="line2d_23">
      <path d="M 54.359063 219.358261 
L 611.639062 219.358261 
" clip-path="url(#p3e06cc7cc0)" style="fill: none; stroke: #b0b0b0; stroke-opacity: 0.15; stroke-width: 0.8; stroke-linecap: square"/>
     </g>
     <g id="line2d_24">
      <g>
       <use xlink:href="#m19bfafcbc7" x="54.359063" y="219.358261" style="stroke: #000000; stroke-width: 0.8"/>
      </g>
     </g>
     <g id="text_13">
      <!-- 0.4 -->
      <g transform="translate(26.685 224.297245) scale(0.13 -0.13)">
       <use xlink:href="#DejaVuSerif-30"/>
       <use xlink:href="#DejaVuSerif-2e" transform="translate(63.623047 0)"/>
       <use xlink:href="#DejaVuSerif-34" transform="translate(95.410156 0)"/>
      </g>
     </g>
    </g>
    <g id="ytick_4">
     <g id="line2d_25">
      <path d="M 54.359063 167.017391 
L 611.639062 167.017391 
" clip-path="url(#p3e06cc7cc0)" style="fill: none; stroke: #b0b0b0; stroke-opacity: 0.15; stroke-width: 0.8; stroke-linecap: square"/>
     </g>
     <g id="line2d_26">
      <g>
       <use xlink:href="#m19bfafcbc7" x="54.359063" y="167.017391" style="stroke: #000000; stroke-width: 0.8"/>
      </g>
     </g>
     <g id="text_14">
      <!-- 0.6 -->
      <g transform="translate(26.685 171.956376) scale(0.13 -0.13)">
       <use xlink:href="#DejaVuSerif-30"/>
       <use xlink:href="#DejaVuSerif-2e" transform="translate(63.623047 0)"/>
       <use xlink:href="#DejaVuSerif-36" transform="translate(95.410156 0)"/>
      </g>
     </g>
    </g>
    <g id="ytick_5">
     <g id="line2d_27">
      <path d="M 54.359063 114.676522 
L 611.639062 114.676522 
" clip-path="url(#p3e06cc7cc0)" style="fill: none; stroke: #b0b0b0; stroke-opacity: 0.15; stroke-width: 0.8; stroke-linecap: square"/>
     </g>
     <g id="line2d_28">
      <g>
       <use xlink:href="#m19bfafcbc7" x="54.359063" y="114.676522" style="stroke: #000000; stroke-width: 0.8"/>
      </g>
     </g>
     <g id="text_15">
      <!-- 0.8 -->
      <g transform="translate(26.685 119.615506) scale(0.13 -0.13)">
       <use xlink:href="#DejaVuSerif-30"/>
       <use xlink:href="#DejaVuSerif-2e" transform="translate(63.623047 0)"/>
       <use xlink:href="#DejaVuSerif-38" transform="translate(95.410156 0)"/>
      </g>
     </g>
    </g>
    <g id="ytick_6">
     <g id="line2d_29">
      <path d="M 54.359063 62.335652 
L 611.639062 62.335652 
" clip-path="url(#p3e06cc7cc0)" style="fill: none; stroke: #b0b0b0; stroke-opacity: 0.15; stroke-width: 0.8; stroke-linecap: square"/>
     </g>
     <g id="line2d_30">
      <g>
       <use xlink:href="#m19bfafcbc7" x="54.359063" y="62.335652" style="stroke: #000000; stroke-width: 0.8"/>
      </g>
     </g>
     <g id="text_16">
      <!-- 1.0 -->
      <g transform="translate(26.685 67.274637) scale(0.13 -0.13)">
       <use xlink:href="#DejaVuSerif-31"/>
       <use xlink:href="#DejaVuSerif-2e" transform="translate(63.623047 0)"/>
       <use xlink:href="#DejaVuSerif-30" transform="translate(95.410156 0)"/>
      </g>
     </g>
    </g>
    <g id="text_17">
     <!-- Density -->
     <g transform="translate(19.13 204.26) rotate(-90) scale(0.16 -0.16)">
      <defs>
       <path id="DejaVuSerif-44" d="M 1581 331 
L 2163 331 
Q 3072 331 3558 850 
Q 4044 1369 4044 2338 
Q 4044 3306 3559 3818 
Q 3075 4331 2163 4331 
L 1581 4331 
L 1581 331 
z
M 353 0 
L 353 331 
L 947 331 
L 947 4331 
L 353 4331 
L 353 4666 
L 2209 4666 
Q 3416 4666 4089 4050 
Q 4763 3434 4763 2338 
Q 4763 1238 4088 619 
Q 3413 0 2209 0 
L 353 0 
z
" transform="scale(0.015625)"/>
       <path id="DejaVuSerif-65" d="M 3469 1600 
L 991 1600 
L 991 1575 
Q 991 903 1244 561 
Q 1497 219 1991 219 
Q 2369 219 2611 417 
Q 2853 616 2950 1006 
L 3413 1006 
Q 3275 459 2904 184 
Q 2534 -91 1931 -91 
Q 1203 -91 761 389 
Q 319 869 319 1663 
Q 319 2450 753 2931 
Q 1188 3413 1894 3413 
Q 2647 3413 3050 2948 
Q 3453 2484 3469 1600 
z
M 2791 1931 
Q 2772 2513 2545 2808 
Q 2319 3103 1894 3103 
Q 1497 3103 1269 2806 
Q 1041 2509 991 1931 
L 2791 1931 
z
" transform="scale(0.015625)"/>
       <path id="DejaVuSerif-6e" d="M 263 0 
L 263 331 
L 781 331 
L 781 2988 
L 231 2988 
L 231 3322 
L 1356 3322 
L 1356 2731 
Q 1516 3069 1770 3241 
Q 2025 3413 2363 3413 
Q 2913 3413 3172 3097 
Q 3431 2781 3431 2113 
L 3431 331 
L 3944 331 
L 3944 0 
L 2356 0 
L 2356 331 
L 2853 331 
L 2853 1931 
Q 2853 2541 2703 2767 
Q 2553 2994 2175 2994 
Q 1775 2994 1565 2701 
Q 1356 2409 1356 1850 
L 1356 331 
L 1856 331 
L 1856 0 
L 263 0 
z
" transform="scale(0.015625)"/>
       <path id="DejaVuSerif-73" d="M 359 184 
L 359 959 
L 691 959 
Q 703 588 923 403 
Q 1144 219 1575 219 
Q 1963 219 2166 364 
Q 2369 509 2369 788 
Q 2369 1006 2220 1140 
Q 2072 1275 1594 1428 
L 1178 1569 
Q 750 1706 558 1912 
Q 366 2119 366 2438 
Q 366 2894 700 3153 
Q 1034 3413 1625 3413 
Q 1888 3413 2178 3344 
Q 2469 3275 2778 3144 
L 2778 2419 
L 2447 2419 
Q 2434 2741 2221 2922 
Q 2009 3103 1644 3103 
Q 1281 3103 1095 2975 
Q 909 2847 909 2591 
Q 909 2381 1050 2254 
Q 1191 2128 1613 1997 
L 2069 1856 
Q 2541 1709 2748 1489 
Q 2956 1269 2956 922 
Q 2956 450 2595 179 
Q 2234 -91 1600 -91 
Q 1278 -91 972 -22 
Q 666 47 359 184 
z
" transform="scale(0.015625)"/>
       <path id="DejaVuSerif-69" d="M 622 4353 
Q 622 4497 726 4603 
Q 831 4709 978 4709 
Q 1122 4709 1226 4603 
Q 1331 4497 1331 4353 
Q 1331 4206 1228 4103 
Q 1125 4000 978 4000 
Q 831 4000 726 4103 
Q 622 4206 622 4353 
z
M 1356 331 
L 1900 331 
L 1900 0 
L 231 0 
L 231 331 
L 781 331 
L 781 2988 
L 231 2988 
L 231 3322 
L 1356 3322 
L 1356 331 
z
" transform="scale(0.015625)"/>
       <path id="DejaVuSerif-74" d="M 691 2988 
L 184 2988 
L 184 3322 
L 691 3322 
L 691 4353 
L 1269 4353 
L 1269 3322 
L 2350 3322 
L 2350 2988 
L 1269 2988 
L 1269 878 
Q 1269 456 1350 337 
Q 1431 219 1650 219 
Q 1875 219 1978 351 
Q 2081 484 2088 781 
L 2522 781 
Q 2497 328 2275 118 
Q 2053 -91 1600 -91 
Q 1103 -91 897 129 
Q 691 350 691 878 
L 691 2988 
z
" transform="scale(0.015625)"/>
       <path id="DejaVuSerif-79" d="M 1381 -609 
L 1600 -56 
L 359 2988 
L -19 2988 
L -19 3322 
L 1509 3322 
L 1509 2988 
L 978 2988 
L 1913 703 
L 2847 2988 
L 2350 2988 
L 2350 3322 
L 3597 3322 
L 3597 2988 
L 3225 2988 
L 1703 -750 
Q 1547 -1138 1356 -1280 
Q 1166 -1422 819 -1422 
Q 672 -1422 517 -1397 
Q 363 -1372 206 -1325 
L 206 -691 
L 500 -691 
Q 519 -903 608 -995 
Q 697 -1088 884 -1088 
Q 1056 -1088 1161 -992 
Q 1266 -897 1381 -609 
z
" transform="scale(0.015625)"/>
      </defs>
      <use xlink:href="#DejaVuSerif-44"/>
      <use xlink:href="#DejaVuSerif-65" transform="translate(80.175781 0)"/>
      <use xlink:href="#DejaVuSerif-6e" transform="translate(139.355469 0)"/>
      <use xlink:href="#DejaVuSerif-73" transform="translate(203.759766 0)"/>
      <use xlink:href="#DejaVuSerif-69" transform="translate(255.078125 0)"/>
      <use xlink:href="#DejaVuSerif-74" transform="translate(287.060547 0)"/>
      <use xlink:href="#DejaVuSerif-79" transform="translate(327.246094 0)"/>
     </g>
    </g>
   </g>
   <g id="line2d_31">
    <path d="M 54.359063 62.335652 
L 58.086688 75.971798 
L 61.814313 88.89743 
L 65.541939 101.14957 
L 69.269564 112.76331 
L 72.99719 123.771915 
L 76.724815 134.206914 
L 80.45244 144.098197 
L 84.180066 153.474092 
L 87.907691 162.361455 
L 91.635317 170.785741 
L 95.362942 178.771078 
L 99.090568 186.340337 
L 102.818193 193.5152 
L 106.545818 200.316215 
L 110.273444 206.762862 
L 114.001069 212.873605 
L 117.728695 218.665947 
L 121.45632 224.156479 
L 125.183945 229.360925 
L 128.911571 234.294193 
L 132.639196 238.970412 
L 136.366822 243.402976 
L 141.95826 249.622559 
L 147.549698 255.362421 
L 153.141136 260.659565 
L 158.732574 265.548136 
L 164.324012 270.059649 
L 169.91545 274.223187 
L 175.506889 278.065588 
L 181.098327 281.611622 
L 186.689765 284.884149 
L 192.281203 287.904263 
L 197.872641 290.691435 
L 203.464079 293.26363 
L 209.055517 295.63743 
L 216.510768 298.520159 
L 223.966019 301.110305 
L 231.42127 303.437562 
L 238.876521 305.528614 
L 246.331772 307.407434 
L 255.650835 309.490112 
L 264.969899 311.312003 
L 274.288962 312.905763 
L 285.471838 314.557105 
L 296.654715 315.963533 
L 307.837591 317.16137 
L 320.88428 318.336224 
L 335.794782 319.435281 
L 352.569096 320.420706 
L 371.207223 321.270351 
L 391.709163 321.976495 
L 415.938728 322.582708 
L 445.759731 323.090209 
L 483.035986 323.483802 
L 533.358929 323.76992 
L 607.911437 323.947382 
L 611.639062 323.952208 
L 611.639062 323.952208 
" clip-path="url(#p3e06cc7cc0)" style="fill: none; stroke: #000000; stroke-opacity: 0.7; stroke-width: 2.5; stroke-linecap: square"/>
   </g>
   <g id="patch_121">
    <path d="M 54.359063 324.04 
L 54.359063 23.08 
" style="fill: none; stroke: #000000; stroke-width: 0.8; stroke-linejoin: miter; stroke-linecap: square"/>
   </g>
   <g id="patch_122">
    <path d="M 54.359063 324.04 
L 611.639062 324.04 
" style="fill: none; stroke: #000000; stroke-width: 0.8; stroke-linejoin: miter; stroke-linecap: square"/>
   </g>
   <g id="text_18">
    <!-- Empirical test: $T - s \mid T &gt; s$ has the same distribution as $T$  ($s = 2$,  $N = 200$k samples) -->
    <g transform="translate(42.774062 17.08) scale(0.13 -0.13)">
     <defs>
      <path id="DejaVuSerif-Bold-45" d="M 300 0 
L 300 378 
L 897 378 
L 897 4288 
L 300 4288 
L 300 4666 
L 4494 4666 
L 4494 3566 
L 4063 3566 
L 4063 4238 
L 2100 4238 
L 2100 2741 
L 3322 2741 
L 3322 3334 
L 3750 3334 
L 3750 1722 
L 3322 1722 
L 3322 2316 
L 2100 2316 
L 2100 428 
L 4122 428 
L 4122 1100 
L 4550 1100 
L 4550 0 
L 300 0 
z
" transform="scale(0.015625)"/>
      <path id="DejaVuSerif-Bold-6d" d="M 3884 2778 
Q 4116 3109 4384 3261 
Q 4653 3413 5013 3413 
Q 5584 3413 5867 3089 
Q 6150 2766 6150 2113 
L 6150 378 
L 6625 378 
L 6625 0 
L 4647 0 
L 4647 378 
L 5044 378 
L 5044 1947 
Q 5044 2569 4948 2731 
Q 4853 2894 4594 2894 
Q 4300 2894 4137 2667 
Q 3975 2441 3975 2022 
L 3975 378 
L 4372 378 
L 4372 0 
L 2472 0 
L 2472 378 
L 2869 378 
L 2869 1947 
Q 2869 2569 2772 2731 
Q 2675 2894 2419 2894 
Q 2122 2894 1959 2667 
Q 1797 2441 1797 2022 
L 1797 378 
L 2194 378 
L 2194 0 
L 219 0 
L 219 378 
L 691 378 
L 691 2944 
L 219 2944 
L 219 3322 
L 1797 3322 
L 1797 2853 
Q 1991 3144 2241 3278 
Q 2491 3413 2834 3413 
Q 3241 3413 3494 3258 
Q 3747 3103 3884 2778 
z
" transform="scale(0.015625)"/>
      <path id="DejaVuSerif-Bold-70" d="M 1728 1825 
L 1728 1497 
Q 1728 916 1876 656 
Q 2025 397 2356 397 
Q 2697 397 2836 672 
Q 2975 947 2975 1663 
Q 2975 2378 2836 2651 
Q 2697 2925 2356 2925 
Q 2025 2925 1876 2665 
Q 1728 2406 1728 1825 
z
M 622 2944 
L 147 2944 
L 147 3322 
L 1728 3322 
L 1728 2900 
Q 1869 3159 2106 3286 
Q 2344 3413 2694 3413 
Q 3403 3413 3811 2945 
Q 4219 2478 4219 1663 
Q 4219 847 3811 378 
Q 3403 -91 2694 -91 
Q 2344 -91 2106 36 
Q 1869 163 1728 422 
L 1728 -953 
L 2241 -953 
L 2241 -1331 
L 147 -1331 
L 147 -953 
L 622 -953 
L 622 2944 
z
" transform="scale(0.015625)"/>
      <path id="DejaVuSerif-Bold-69" d="M 588 4263 
Q 588 4516 763 4689 
Q 938 4863 1191 4863 
Q 1438 4863 1611 4689 
Q 1784 4516 1784 4263 
Q 1784 4016 1611 3842 
Q 1438 3669 1191 3669 
Q 938 3669 763 3841 
Q 588 4013 588 4263 
z
M 1797 378 
L 2272 378 
L 2272 0 
L 219 0 
L 219 378 
L 691 378 
L 691 2944 
L 219 2944 
L 219 3322 
L 1797 3322 
L 1797 378 
z
" transform="scale(0.015625)"/>
      <path id="DejaVuSerif-Bold-72" d="M 3438 3359 
L 3438 2369 
L 3084 2369 
Q 3066 2634 2941 2764 
Q 2816 2894 2578 2894 
Q 2216 2894 2006 2575 
Q 1797 2256 1797 1691 
L 1797 378 
L 2400 378 
L 2400 0 
L 219 0 
L 219 378 
L 691 378 
L 691 2944 
L 184 2944 
L 184 3322 
L 1797 3322 
L 1797 2731 
Q 1959 3078 2226 3245 
Q 2494 3413 2881 3413 
Q 2978 3413 3117 3398 
Q 3256 3384 3438 3359 
z
" transform="scale(0.015625)"/>
      <path id="DejaVuSerif-Bold-63" d="M 3609 1038 
Q 3491 469 3123 189 
Q 2756 -91 2125 -91 
Q 1238 -91 750 368 
Q 263 828 263 1663 
Q 263 2488 744 2950 
Q 1225 3413 2081 3413 
Q 2428 3413 2781 3347 
Q 3134 3281 3500 3150 
L 3500 2228 
L 3150 2228 
Q 3100 2650 2903 2854 
Q 2706 3059 2350 3059 
Q 1888 3059 1692 2746 
Q 1497 2434 1497 1663 
Q 1497 909 1687 586 
Q 1878 263 2309 263 
Q 2644 263 2845 463 
Q 3047 663 3091 1038 
L 3609 1038 
z
" transform="scale(0.015625)"/>
      <path id="DejaVuSerif-Bold-61" d="M 3525 2041 
L 3525 378 
L 4000 378 
L 4000 0 
L 2419 0 
L 2419 422 
Q 2200 159 1931 34 
Q 1663 -91 1319 -91 
Q 809 -91 536 182 
Q 263 456 263 966 
Q 263 1525 655 1803 
Q 1047 2081 1838 2081 
L 2419 2081 
L 2419 2278 
Q 2419 2681 2228 2873 
Q 2038 3066 1638 3066 
Q 1306 3066 1126 2930 
Q 947 2794 872 2484 
L 519 2484 
L 519 3200 
Q 816 3306 1134 3359 
Q 1453 3413 1806 3413 
Q 2697 3413 3111 3081 
Q 3525 2750 3525 2041 
z
M 2419 1044 
L 2419 1709 
L 2003 1709 
Q 1694 1709 1528 1540 
Q 1363 1372 1363 1056 
Q 1363 741 1483 584 
Q 1603 428 1850 428 
Q 2106 428 2262 597 
Q 2419 766 2419 1044 
z
" transform="scale(0.015625)"/>
      <path id="DejaVuSerif-Bold-6c" d="M 1797 378 
L 2272 378 
L 2272 0 
L 219 0 
L 219 378 
L 691 378 
L 691 4488 
L 219 4488 
L 219 4863 
L 1797 4863 
L 1797 378 
z
" transform="scale(0.015625)"/>
      <path id="DejaVuSerif-Bold-20" transform="scale(0.015625)"/>
      <path id="DejaVuSerif-Bold-74" d="M 634 2944 
L 153 2944 
L 153 3322 
L 634 3322 
L 634 4353 
L 1741 4353 
L 1741 3322 
L 2663 3322 
L 2663 2944 
L 1741 2944 
L 1741 909 
Q 1741 475 1809 369 
Q 1878 263 2059 263 
Q 2259 263 2356 397 
Q 2453 531 2459 813 
L 2925 813 
Q 2897 313 2651 111 
Q 2406 -91 1806 -91 
Q 1122 -91 878 123 
Q 634 338 634 909 
L 634 2944 
z
" transform="scale(0.015625)"/>
      <path id="DejaVuSerif-Bold-65" d="M 2566 1875 
Q 2566 2531 2444 2795 
Q 2322 3059 2028 3059 
Q 1744 3059 1620 2800 
Q 1497 2541 1497 1931 
L 1497 1875 
L 2566 1875 
z
M 3781 1503 
L 1497 1503 
L 1497 1478 
Q 1497 834 1690 548 
Q 1884 263 2316 263 
Q 2675 263 2897 453 
Q 3119 644 3181 1006 
L 3700 1006 
Q 3566 441 3166 175 
Q 2766 -91 2047 -91 
Q 1184 -91 723 364 
Q 263 819 263 1663 
Q 263 2488 734 2950 
Q 1206 3413 2047 3413 
Q 2872 3413 3312 2927 
Q 3753 2441 3781 1503 
z
" transform="scale(0.015625)"/>
      <path id="DejaVuSerif-Bold-73" d="M 300 97 
L 300 1025 
L 653 1025 
Q 697 653 931 458 
Q 1166 263 1569 263 
Q 1906 263 2086 380 
Q 2266 497 2266 716 
Q 2266 916 2152 1025 
Q 2038 1134 1709 1216 
L 1253 1331 
Q 738 1459 506 1698 
Q 275 1938 275 2344 
Q 275 2884 650 3148 
Q 1025 3413 1806 3413 
Q 2100 3413 2433 3364 
Q 2766 3316 3169 3213 
L 3169 2375 
L 2816 2375 
Q 2788 2716 2573 2887 
Q 2359 3059 1959 3059 
Q 1622 3059 1448 2951 
Q 1275 2844 1275 2638 
Q 1275 2469 1375 2372 
Q 1475 2275 1734 2209 
L 2188 2094 
Q 2841 1928 3091 1684 
Q 3341 1441 3341 1006 
Q 3341 444 2939 176 
Q 2538 -91 1691 -91 
Q 1381 -91 1034 -44 
Q 688 3 300 97 
z
" transform="scale(0.015625)"/>
      <path id="DejaVuSerif-Bold-3a" d="M 588 2541 
Q 588 2788 761 2963 
Q 934 3138 1178 3138 
Q 1422 3138 1597 2961 
Q 1772 2784 1772 2541 
Q 1772 2297 1598 2125 
Q 1425 1953 1178 1953 
Q 931 1953 759 2125 
Q 588 2297 588 2541 
z
M 588 506 
Q 588 750 761 925 
Q 934 1100 1178 1100 
Q 1422 1100 1597 925 
Q 1772 750 1772 506 
Q 1772 259 1597 84 
Q 1422 -91 1178 -91 
Q 934 -91 761 84 
Q 588 259 588 506 
z
" transform="scale(0.015625)"/>
      <path id="Cmmi10-54" d="M 294 84 
Q 297 100 308 140 
Q 319 181 336 203 
Q 353 225 384 225 
Q 934 225 1113 256 
Q 1284 300 1319 441 
L 2194 3956 
Q 2222 4034 2222 4097 
Q 2222 4147 1997 4147 
L 1625 4147 
Q 1197 4147 964 4015 
Q 731 3884 622 3668 
Q 513 3453 341 2963 
Q 319 2906 275 2906 
L 219 2906 
Q 153 2906 153 2988 
L 609 4313 
Q 622 4372 672 4372 
L 4453 4372 
Q 4519 4372 4519 4288 
L 4306 2963 
Q 4306 2944 4284 2925 
Q 4263 2906 4244 2906 
L 4184 2906 
Q 4122 2906 4122 2988 
Q 4191 3441 4191 3628 
Q 4191 3853 4097 3968 
Q 4003 4084 3853 4115 
Q 3703 4147 3463 4147 
L 3084 4147 
Q 2913 4147 2853 4115 
Q 2794 4084 2753 3928 
L 1875 416 
Q 1872 403 1870 390 
Q 1869 378 1863 359 
Q 1863 278 1959 256 
Q 2125 225 2669 225 
Q 2731 225 2731 141 
Q 2709 50 2696 25 
Q 2684 0 2625 0 
L 359 0 
Q 294 0 294 84 
z
" transform="scale(0.015625)"/>
      <path id="Cmsy10-a1" d="M 653 1472 
Q 600 1472 565 1512 
Q 531 1553 531 1600 
Q 531 1647 565 1687 
Q 600 1728 653 1728 
L 4325 1728 
Q 4375 1728 4408 1687 
Q 4441 1647 4441 1600 
Q 4441 1553 4408 1512 
Q 4375 1472 4325 1472 
L 653 1472 
z
" transform="scale(0.015625)"/>
      <path id="Cmmi10-73" d="M 556 391 
Q 728 97 1247 97 
Q 1472 97 1675 173 
Q 1878 250 2011 403 
Q 2144 556 2144 775 
Q 2144 941 2025 1047 
Q 1906 1153 1734 1191 
L 1388 1259 
Q 1150 1319 997 1481 
Q 844 1644 844 1875 
Q 844 2159 998 2378 
Q 1153 2597 1406 2712 
Q 1659 2828 1931 2828 
Q 2222 2828 2451 2689 
Q 2681 2550 2681 2278 
Q 2681 2131 2598 2018 
Q 2516 1906 2369 1906 
Q 2284 1906 2223 1961 
Q 2163 2016 2163 2100 
Q 2163 2175 2205 2245 
Q 2247 2316 2317 2358 
Q 2388 2400 2463 2400 
Q 2406 2538 2251 2600 
Q 2097 2663 1919 2663 
Q 1756 2663 1593 2597 
Q 1431 2531 1332 2404 
Q 1234 2278 1234 2106 
Q 1234 1991 1315 1903 
Q 1397 1816 1516 1778 
L 1888 1703 
Q 2066 1666 2214 1570 
Q 2363 1475 2448 1329 
Q 2534 1184 2534 997 
Q 2534 759 2401 528 
Q 2269 297 2075 159 
Q 1734 -72 1241 -72 
Q 900 -72 615 84 
Q 331 241 331 550 
Q 331 725 432 854 
Q 534 984 709 984 
Q 813 984 883 921 
Q 953 859 953 756 
Q 953 609 843 500 
Q 734 391 588 391 
L 556 391 
z
" transform="scale(0.015625)"/>
      <path id="Cmsy10-6a" d="M 763 -1484 
L 763 4684 
Q 763 4734 800 4767 
Q 838 4800 891 4800 
Q 938 4800 978 4767 
Q 1019 4734 1019 4684 
L 1019 -1484 
Q 1019 -1534 978 -1567 
Q 938 -1600 891 -1600 
Q 838 -1600 800 -1567 
Q 763 -1534 763 -1484 
z
" transform="scale(0.015625)"/>
      <path id="Cmmi10-3e" d="M 531 -128 
Q 531 -47 616 -6 
L 4013 1600 
L 594 3219 
Q 531 3238 531 3328 
Q 531 3372 567 3414 
Q 603 3456 659 3456 
Q 672 3456 709 3444 
L 4384 1709 
Q 4441 1681 4441 1600 
Q 4441 1516 4366 1484 
L 709 -244 
Q 672 -256 659 -256 
Q 603 -256 567 -214 
Q 531 -172 531 -128 
z
" transform="scale(0.015625)"/>
      <path id="DejaVuSerif-Bold-68" d="M 219 0 
L 219 378 
L 691 378 
L 691 4488 
L 197 4488 
L 197 4863 
L 1797 4863 
L 1797 2853 
Q 1997 3150 2253 3281 
Q 2509 3413 2900 3413 
Q 3459 3413 3745 3083 
Q 4031 2753 4031 2113 
L 4031 378 
L 4506 378 
L 4506 0 
L 2522 0 
L 2522 378 
L 2925 378 
L 2925 2144 
Q 2925 2566 2817 2730 
Q 2709 2894 2444 2894 
Q 2109 2894 1953 2648 
Q 1797 2403 1797 1869 
L 1797 378 
L 2203 378 
L 2203 0 
L 219 0 
z
" transform="scale(0.015625)"/>
      <path id="DejaVuSerif-Bold-64" d="M 2747 1497 
L 2747 1825 
Q 2747 2406 2597 2665 
Q 2447 2925 2119 2925 
Q 1775 2925 1636 2651 
Q 1497 2378 1497 1663 
Q 1497 947 1637 672 
Q 1778 397 2119 397 
Q 2447 397 2597 656 
Q 2747 916 2747 1497 
z
M 3853 378 
L 4325 378 
L 4325 0 
L 2747 0 
L 2747 422 
Q 2606 163 2367 36 
Q 2128 -91 1778 -91 
Q 1072 -91 667 378 
Q 263 847 263 1663 
Q 263 2481 667 2947 
Q 1072 3413 1778 3413 
Q 2128 3413 2367 3286 
Q 2606 3159 2747 2900 
L 2747 4488 
L 2272 4488 
L 2272 4863 
L 3853 4863 
L 3853 378 
z
" transform="scale(0.015625)"/>
      <path id="DejaVuSerif-Bold-62" d="M 622 378 
L 622 4488 
L 147 4488 
L 147 4863 
L 1728 4863 
L 1728 2900 
Q 1869 3159 2106 3286 
Q 2344 3413 2694 3413 
Q 3403 3413 3811 2945 
Q 4219 2478 4219 1663 
Q 4219 847 3811 378 
Q 3403 -91 2694 -91 
Q 2344 -91 2106 36 
Q 1869 163 1728 422 
L 1728 0 
L 147 0 
L 147 378 
L 622 378 
z
M 1728 1497 
Q 1728 916 1876 656 
Q 2025 397 2356 397 
Q 2697 397 2836 672 
Q 2975 947 2975 1663 
Q 2975 2378 2836 2651 
Q 2697 2925 2356 2925 
Q 2025 2925 1876 2665 
Q 1728 2406 1728 1825 
L 1728 1497 
z
" transform="scale(0.015625)"/>
      <path id="DejaVuSerif-Bold-75" d="M 3963 3322 
L 3963 378 
L 4434 378 
L 4434 0 
L 2853 0 
L 2853 469 
Q 2656 172 2400 40 
Q 2144 -91 1753 -91 
Q 1194 -91 908 239 
Q 622 569 622 1209 
L 622 2944 
L 147 2944 
L 147 3322 
L 1728 3322 
L 1728 1381 
Q 1728 763 1831 595 
Q 1934 428 2209 428 
Q 2544 428 2698 675 
Q 2853 922 2853 1459 
L 2853 2944 
L 2450 2944 
L 2450 3322 
L 3963 3322 
z
" transform="scale(0.015625)"/>
      <path id="DejaVuSerif-Bold-6f" d="M 2138 263 
Q 2488 263 2630 563 
Q 2772 863 2772 1663 
Q 2772 2463 2631 2761 
Q 2491 3059 2138 3059 
Q 1784 3059 1640 2757 
Q 1497 2456 1497 1663 
Q 1497 869 1640 566 
Q 1784 263 2138 263 
z
M 2138 -91 
Q 1259 -91 761 376 
Q 263 844 263 1663 
Q 263 2484 761 2948 
Q 1259 3413 2138 3413 
Q 3019 3413 3516 2948 
Q 4013 2484 4013 1663 
Q 4013 844 3514 376 
Q 3016 -91 2138 -91 
z
" transform="scale(0.015625)"/>
      <path id="DejaVuSerif-Bold-6e" d="M 219 0 
L 219 378 
L 691 378 
L 691 2944 
L 219 2944 
L 219 3322 
L 1797 3322 
L 1797 2853 
Q 1997 3150 2253 3281 
Q 2509 3413 2900 3413 
Q 3459 3413 3745 3083 
Q 4031 2753 4031 2113 
L 4031 378 
L 4506 378 
L 4506 0 
L 2522 0 
L 2522 378 
L 2925 378 
L 2925 2144 
Q 2925 2566 2817 2730 
Q 2709 2894 2444 2894 
Q 2109 2894 1953 2648 
Q 1797 2403 1797 1869 
L 1797 378 
L 2203 378 
L 2203 0 
L 219 0 
z
" transform="scale(0.015625)"/>
      <path id="DejaVuSerif-Bold-28" d="M 2694 -997 
Q 1641 -606 1122 122 
Q 603 850 603 1931 
Q 603 3013 1115 3731 
Q 1628 4450 2694 4863 
L 2694 4488 
Q 2200 4188 1983 3598 
Q 1766 3009 1766 1931 
Q 1766 856 1983 267 
Q 2200 -322 2694 -622 
L 2694 -997 
z
" transform="scale(0.015625)"/>
      <path id="Cmr10-3d" d="M 481 850 
Q 428 850 393 890 
Q 359 931 359 978 
Q 359 1031 393 1068 
Q 428 1106 481 1106 
L 4500 1106 
Q 4547 1106 4581 1068 
Q 4616 1031 4616 978 
Q 4616 931 4581 890 
Q 4547 850 4500 850 
L 481 850 
z
M 481 2094 
Q 428 2094 393 2131 
Q 359 2169 359 2222 
Q 359 2269 393 2309 
Q 428 2350 481 2350 
L 4500 2350 
Q 4547 2350 4581 2309 
Q 4616 2269 4616 2222 
Q 4616 2169 4581 2131 
Q 4547 2094 4500 2094 
L 481 2094 
z
" transform="scale(0.015625)"/>
      <path id="Cmr10-32" d="M 319 0 
L 319 172 
Q 319 188 331 206 
L 1325 1306 
Q 1550 1550 1690 1715 
Q 1831 1881 1968 2097 
Q 2106 2313 2186 2536 
Q 2266 2759 2266 3009 
Q 2266 3272 2169 3511 
Q 2072 3750 1880 3894 
Q 1688 4038 1416 4038 
Q 1138 4038 916 3870 
Q 694 3703 603 3438 
Q 628 3444 672 3444 
Q 816 3444 917 3347 
Q 1019 3250 1019 3097 
Q 1019 2950 917 2848 
Q 816 2747 672 2747 
Q 522 2747 420 2851 
Q 319 2956 319 3097 
Q 319 3338 409 3548 
Q 500 3759 670 3923 
Q 841 4088 1055 4175 
Q 1269 4263 1509 4263 
Q 1875 4263 2190 4108 
Q 2506 3953 2690 3670 
Q 2875 3388 2875 3009 
Q 2875 2731 2753 2481 
Q 2631 2231 2440 2026 
Q 2250 1822 1953 1562 
Q 1656 1303 1563 1216 
L 838 519 
L 1453 519 
Q 1906 519 2211 526 
Q 2516 534 2534 550 
Q 2609 631 2688 1141 
L 2875 1141 
L 2694 0 
L 319 0 
z
" transform="scale(0.015625)"/>
      <path id="DejaVuSerif-Bold-2c" d="M 84 -616 
Q 409 -353 562 -28 
Q 716 297 716 728 
L 716 997 
L 1606 997 
L 1606 972 
Q 1606 281 1317 -217 
Q 1028 -716 428 -1056 
L 84 -616 
z
" transform="scale(0.015625)"/>
      <path id="Cmmi10-4e" d="M 300 0 
Q 238 0 238 84 
Q 241 100 250 139 
Q 259 178 276 201 
Q 294 225 319 225 
Q 931 225 1031 616 
L 1900 4116 
Q 1722 4147 1338 4147 
Q 1275 4147 1275 4231 
Q 1278 4247 1287 4286 
Q 1297 4325 1314 4348 
Q 1331 4372 1356 4372 
L 2463 4372 
Q 2509 4372 2522 4331 
L 3944 947 
L 4653 3781 
Q 4666 3850 4666 3878 
Q 4666 4147 4172 4147 
Q 4109 4147 4109 4231 
Q 4131 4313 4143 4342 
Q 4156 4372 4219 4372 
L 5588 4372 
Q 5650 4372 5650 4288 
Q 5647 4272 5637 4233 
Q 5628 4194 5611 4170 
Q 5594 4147 5569 4147 
Q 4956 4147 4856 3756 
L 3938 56 
Q 3916 0 3872 0 
L 3794 0 
Q 3750 0 3738 44 
L 2106 3916 
L 2094 3956 
Q 2081 3969 2081 3975 
L 1234 588 
Q 1228 572 1225 548 
Q 1222 525 1216 494 
Q 1216 328 1359 276 
Q 1503 225 1716 225 
Q 1778 225 1778 141 
Q 1756 53 1740 26 
Q 1725 0 1672 0 
L 300 0 
z
" transform="scale(0.015625)"/>
      <path id="Cmr10-30" d="M 1600 -141 
Q 816 -141 533 504 
Q 250 1150 250 2041 
Q 250 2597 351 3087 
Q 453 3578 754 3920 
Q 1056 4263 1600 4263 
Q 2022 4263 2290 4056 
Q 2559 3850 2700 3523 
Q 2841 3197 2892 2823 
Q 2944 2450 2944 2041 
Q 2944 1491 2842 1011 
Q 2741 531 2444 195 
Q 2147 -141 1600 -141 
z
M 1600 25 
Q 1956 25 2131 390 
Q 2306 756 2347 1200 
Q 2388 1644 2388 2144 
Q 2388 2625 2347 3031 
Q 2306 3438 2132 3767 
Q 1959 4097 1600 4097 
Q 1238 4097 1063 3765 
Q 888 3434 847 3029 
Q 806 2625 806 2144 
Q 806 1788 823 1472 
Q 841 1156 916 820 
Q 991 484 1158 254 
Q 1325 25 1600 25 
z
" transform="scale(0.015625)"/>
      <path id="DejaVuSerif-Bold-6b" d="M 2216 0 
L 219 0 
L 219 378 
L 691 378 
L 691 4488 
L 219 4488 
L 219 4863 
L 1797 4863 
L 1797 1741 
L 3138 2944 
L 2741 2944 
L 2741 3322 
L 4256 3322 
L 4256 2944 
L 3641 2944 
L 2784 2175 
L 4184 378 
L 4544 378 
L 4544 0 
L 2638 0 
L 2638 378 
L 3028 378 
L 2106 1563 
L 1797 1288 
L 1797 378 
L 2216 378 
L 2216 0 
z
" transform="scale(0.015625)"/>
      <path id="DejaVuSerif-Bold-29" d="M 325 -997 
L 325 -622 
Q 819 -322 1036 267 
Q 1253 856 1253 1931 
Q 1253 3009 1036 3598 
Q 819 4188 325 4488 
L 325 4863 
Q 1391 4450 1905 3731 
Q 2419 3013 2419 1931 
Q 2419 850 1898 122 
Q 1378 -606 325 -997 
z
" transform="scale(0.015625)"/>
     </defs>
     <use xlink:href="#DejaVuSerif-Bold-45" transform="translate(0 0.015625)"/>
     <use xlink:href="#DejaVuSerif-Bold-6d" transform="translate(76.220703 0.015625)"/>
     <use xlink:href="#DejaVuSerif-Bold-70" transform="translate(182.03125 0.015625)"/>
     <use xlink:href="#DejaVuSerif-Bold-69" transform="translate(251.953125 0.015625)"/>
     <use xlink:href="#DejaVuSerif-Bold-72" transform="translate(289.941406 0.015625)"/>
     <use xlink:href="#DejaVuSerif-Bold-69" transform="translate(342.626953 0.015625)"/>
     <use xlink:href="#DejaVuSerif-Bold-63" transform="translate(380.615234 0.015625)"/>
     <use xlink:href="#DejaVuSerif-Bold-61" transform="translate(441.503906 0.015625)"/>
     <use xlink:href="#DejaVuSerif-Bold-6c" transform="translate(506.298828 0.015625)"/>
     <use xlink:href="#DejaVuSerif-Bold-20" transform="translate(544.287109 0.015625)"/>
     <use xlink:href="#DejaVuSerif-Bold-74" transform="translate(579.101562 0.015625)"/>
     <use xlink:href="#DejaVuSerif-Bold-65" transform="translate(625.292969 0.015625)"/>
     <use xlink:href="#DejaVuSerif-Bold-73" transform="translate(688.916016 0.015625)"/>
     <use xlink:href="#DejaVuSerif-Bold-74" transform="translate(745.214844 0.015625)"/>
     <use xlink:href="#DejaVuSerif-Bold-3a" transform="translate(791.40625 0.015625)"/>
     <use xlink:href="#DejaVuSerif-Bold-20" transform="translate(828.320312 0.015625)"/>
     <use xlink:href="#Cmmi10-54" transform="translate(863.134766 0.015625)"/>
     <use xlink:href="#Cmsy10-a1" transform="translate(939.091797 0.015625)"/>
     <use xlink:href="#Cmmi10-73" transform="translate(1034.335938 0.015625)"/>
     <use xlink:href="#Cmsy10-6a" transform="translate(1098.671875 0.015625)"/>
     <use xlink:href="#Cmmi10-54" transform="translate(1143.916016 0.015625)"/>
     <use xlink:href="#Cmmi10-3e" transform="translate(1219.873047 0.015625)"/>
     <use xlink:href="#Cmmi10-73" transform="translate(1315.117188 0.015625)"/>
     <use xlink:href="#DejaVuSerif-Bold-20" transform="translate(1361.894531 0.015625)"/>
     <use xlink:href="#DejaVuSerif-Bold-68" transform="translate(1396.708984 0.015625)"/>
     <use xlink:href="#DejaVuSerif-Bold-61" transform="translate(1469.414062 0.015625)"/>
     <use xlink:href="#DejaVuSerif-Bold-73" transform="translate(1534.208984 0.015625)"/>
     <use xlink:href="#DejaVuSerif-Bold-20" transform="translate(1590.507812 0.015625)"/>
     <use xlink:href="#DejaVuSerif-Bold-74" transform="translate(1625.322266 0.015625)"/>
     <use xlink:href="#DejaVuSerif-Bold-68" transform="translate(1671.513672 0.015625)"/>
     <use xlink:href="#DejaVuSerif-Bold-65" transform="translate(1744.21875 0.015625)"/>
     <use xlink:href="#DejaVuSerif-Bold-20" transform="translate(1807.841797 0.015625)"/>
     <use xlink:href="#DejaVuSerif-Bold-73" transform="translate(1842.65625 0.015625)"/>
     <use xlink:href="#DejaVuSerif-Bold-61" transform="translate(1898.955078 0.015625)"/>
     <use xlink:href="#DejaVuSerif-Bold-6d" transform="translate(1963.75 0.015625)"/>
     <use xlink:href="#DejaVuSerif-Bold-65" transform="translate(2069.560547 0.015625)"/>
     <use xlink:href="#DejaVuSerif-Bold-20" transform="translate(2133.183594 0.015625)"/>
     <use xlink:href="#DejaVuSerif-Bold-64" transform="translate(2167.998047 0.015625)"/>
     <use xlink:href="#DejaVuSerif-Bold-69" transform="translate(2237.919922 0.015625)"/>
     <use xlink:href="#DejaVuSerif-Bold-73" transform="translate(2275.908203 0.015625)"/>
     <use xlink:href="#DejaVuSerif-Bold-74" transform="translate(2332.207031 0.015625)"/>
     <use xlink:href="#DejaVuSerif-Bold-72" transform="translate(2378.398438 0.015625)"/>
     <use xlink:href="#DejaVuSerif-Bold-69" transform="translate(2431.083984 0.015625)"/>
     <use xlink:href="#DejaVuSerif-Bold-62" transform="translate(2469.072266 0.015625)"/>
     <use xlink:href="#DejaVuSerif-Bold-75" transform="translate(2538.994141 0.015625)"/>
     <use xlink:href="#DejaVuSerif-Bold-74" transform="translate(2611.699219 0.015625)"/>
     <use xlink:href="#DejaVuSerif-Bold-69" transform="translate(2657.890625 0.015625)"/>
     <use xlink:href="#DejaVuSerif-Bold-6f" transform="translate(2695.878906 0.015625)"/>
     <use xlink:href="#DejaVuSerif-Bold-6e" transform="translate(2762.578125 0.015625)"/>
     <use xlink:href="#DejaVuSerif-Bold-20" transform="translate(2835.283203 0.015625)"/>
     <use xlink:href="#DejaVuSerif-Bold-61" transform="translate(2870.097656 0.015625)"/>
     <use xlink:href="#DejaVuSerif-Bold-73" transform="translate(2934.892578 0.015625)"/>
     <use xlink:href="#DejaVuSerif-Bold-20" transform="translate(2991.191406 0.015625)"/>
     <use xlink:href="#Cmmi10-54" transform="translate(3026.005859 0.015625)"/>
     <use xlink:href="#DejaVuSerif-Bold-20" transform="translate(3084.404297 0.015625)"/>
     <use xlink:href="#DejaVuSerif-Bold-20" transform="translate(3119.21875 0.015625)"/>
     <use xlink:href="#DejaVuSerif-Bold-28" transform="translate(3154.033203 0.015625)"/>
     <use xlink:href="#Cmmi10-73" transform="translate(3201.347656 0.015625)"/>
     <use xlink:href="#Cmr10-3d" transform="translate(3265.683594 0.015625)"/>
     <use xlink:href="#Cmr10-32" transform="translate(3360.927734 0.015625)"/>
     <use xlink:href="#DejaVuSerif-Bold-2c" transform="translate(3410.927734 0.015625)"/>
     <use xlink:href="#DejaVuSerif-Bold-20" transform="translate(3445.742188 0.015625)"/>
     <use xlink:href="#DejaVuSerif-Bold-20" transform="translate(3480.556641 0.015625)"/>
     <use xlink:href="#Cmmi10-4e" transform="translate(3515.371094 0.015625)"/>
     <use xlink:href="#Cmr10-3d" transform="translate(3613.251953 0.015625)"/>
     <use xlink:href="#Cmr10-32" transform="translate(3708.496094 0.015625)"/>
     <use xlink:href="#Cmr10-30" transform="translate(3758.496094 0.015625)"/>
     <use xlink:href="#Cmr10-30" transform="translate(3808.496094 0.015625)"/>
     <use xlink:href="#DejaVuSerif-Bold-6b" transform="translate(3858.496094 0.015625)"/>
     <use xlink:href="#DejaVuSerif-Bold-20" transform="translate(3927.783203 0.015625)"/>
     <use xlink:href="#DejaVuSerif-Bold-73" transform="translate(3962.597656 0.015625)"/>
     <use xlink:href="#DejaVuSerif-Bold-61" transform="translate(4018.896484 0.015625)"/>
     <use xlink:href="#DejaVuSerif-Bold-6d" transform="translate(4083.691406 0.015625)"/>
     <use xlink:href="#DejaVuSerif-Bold-70" transform="translate(4189.501953 0.015625)"/>
     <use xlink:href="#DejaVuSerif-Bold-6c" transform="translate(4259.423828 0.015625)"/>
     <use xlink:href="#DejaVuSerif-Bold-65" transform="translate(4297.412109 0.015625)"/>
     <use xlink:href="#DejaVuSerif-Bold-73" transform="translate(4361.035156 0.015625)"/>
     <use xlink:href="#DejaVuSerif-Bold-29" transform="translate(4417.333984 0.015625)"/>
    </g>
   </g>
   <g id="legend_1">
    <g id="patch_123">
     <path d="M 449.059062 81.71 
L 603.939062 81.71 
Q 606.139062 81.71 606.139062 79.51 
L 606.139062 30.78 
Q 606.139062 28.58 603.939062 28.58 
L 449.059062 28.58 
Q 446.859062 28.58 446.859062 30.78 
L 446.859062 79.51 
Q 446.859062 81.71 449.059062 81.71 
z
" style="fill: #ffffff; opacity: 0.95; stroke: #bfbfbf; stroke-linejoin: miter"/>
    </g>
    <g id="patch_124">
     <path d="M 451.259062 41.34 
L 473.259062 41.34 
L 473.259062 33.64 
L 451.259062 33.64 
z
" style="fill: #0072bd; opacity: 0.5; stroke: #ffffff; stroke-width: 0.5; stroke-linejoin: miter"/>
    </g>
    <g id="text_19">
     <!-- All samples $T \sim \mathrm{Exp}(1)$ -->
     <g transform="translate(482.059062 41.34) scale(0.11 -0.11)">
      <defs>
       <path id="DejaVuSerif-41" d="M 1281 1691 
L 2994 1691 
L 2138 3909 
L 1281 1691 
z
M -38 0 
L -38 331 
L 372 331 
L 2034 4666 
L 2559 4666 
L 4225 331 
L 4684 331 
L 4684 0 
L 2988 0 
L 2988 331 
L 3506 331 
L 3116 1356 
L 1153 1356 
L 763 331 
L 1275 331 
L 1275 0 
L -38 0 
z
" transform="scale(0.015625)"/>
       <path id="DejaVuSerif-6c" d="M 1313 331 
L 1856 331 
L 1856 0 
L 184 0 
L 184 331 
L 738 331 
L 738 4531 
L 184 4531 
L 184 4863 
L 1313 4863 
L 1313 331 
z
" transform="scale(0.015625)"/>
       <path id="DejaVuSerif-20" transform="scale(0.015625)"/>
       <path id="DejaVuSerif-61" d="M 2547 1044 
L 2547 1747 
L 1806 1747 
Q 1378 1747 1168 1562 
Q 959 1378 959 997 
Q 959 650 1171 447 
Q 1384 244 1747 244 
Q 2106 244 2326 466 
Q 2547 688 2547 1044 
z
M 3122 2075 
L 3122 331 
L 3634 331 
L 3634 0 
L 2547 0 
L 2547 359 
Q 2356 128 2106 18 
Q 1856 -91 1522 -91 
Q 969 -91 644 203 
Q 319 497 319 997 
Q 319 1513 691 1797 
Q 1063 2081 1741 2081 
L 2547 2081 
L 2547 2309 
Q 2547 2688 2317 2895 
Q 2088 3103 1672 3103 
Q 1328 3103 1125 2947 
Q 922 2791 872 2484 
L 575 2484 
L 575 3156 
Q 875 3284 1158 3348 
Q 1441 3413 1709 3413 
Q 2400 3413 2761 3070 
Q 3122 2728 3122 2075 
z
" transform="scale(0.015625)"/>
       <path id="DejaVuSerif-6d" d="M 3316 2675 
Q 3481 3041 3739 3227 
Q 3997 3413 4341 3413 
Q 4863 3413 5119 3089 
Q 5375 2766 5375 2113 
L 5375 331 
L 5894 331 
L 5894 0 
L 4300 0 
L 4300 331 
L 4800 331 
L 4800 2047 
Q 4800 2556 4650 2772 
Q 4500 2988 4153 2988 
Q 3769 2988 3567 2697 
Q 3366 2406 3366 1850 
L 3366 331 
L 3866 331 
L 3866 0 
L 2291 0 
L 2291 331 
L 2791 331 
L 2791 2069 
Q 2791 2566 2641 2777 
Q 2491 2988 2144 2988 
Q 1759 2988 1557 2697 
Q 1356 2406 1356 1850 
L 1356 331 
L 1856 331 
L 1856 0 
L 263 0 
L 263 331 
L 781 331 
L 781 2994 
L 231 2994 
L 231 3322 
L 1356 3322 
L 1356 2731 
Q 1516 3063 1762 3238 
Q 2009 3413 2322 3413 
Q 2709 3413 2968 3220 
Q 3228 3028 3316 2675 
z
" transform="scale(0.015625)"/>
       <path id="DejaVuSerif-70" d="M 1313 1825 
L 1313 1497 
Q 1313 897 1542 583 
Q 1772 269 2209 269 
Q 2650 269 2876 622 
Q 3103 975 3103 1663 
Q 3103 2353 2876 2703 
Q 2650 3053 2209 3053 
Q 1772 3053 1542 2737 
Q 1313 2422 1313 1825 
z
M 738 2988 
L 184 2988 
L 184 3322 
L 1313 3322 
L 1313 2803 
Q 1481 3116 1742 3264 
Q 2003 3413 2388 3413 
Q 3000 3413 3387 2928 
Q 3775 2444 3775 1663 
Q 3775 881 3387 395 
Q 3000 -91 2388 -91 
Q 2003 -91 1742 57 
Q 1481 206 1313 519 
L 1313 -997 
L 1856 -997 
L 1856 -1331 
L 184 -1331 
L 184 -997 
L 738 -997 
L 738 2988 
z
" transform="scale(0.015625)"/>
       <path id="Cmsy10-bb" d="M 447 850 
Q 378 850 359 1013 
L 359 1050 
Q 359 1544 654 1947 
Q 950 2350 1422 2350 
Q 1716 2350 1955 2204 
Q 2194 2059 2516 1768 
Q 2838 1478 3055 1343 
Q 3272 1209 3553 1209 
Q 3806 1209 4006 1346 
Q 4206 1484 4320 1712 
Q 4434 1941 4434 2188 
Q 4453 2350 4525 2350 
Q 4597 2350 4616 2188 
L 4616 2150 
Q 4616 1841 4486 1537 
Q 4356 1234 4115 1042 
Q 3875 850 3553 850 
Q 3259 850 3031 989 
Q 2803 1128 2481 1417 
Q 2159 1706 1931 1848 
Q 1703 1991 1422 1991 
Q 1172 1991 969 1853 
Q 766 1716 652 1487 
Q 538 1259 538 1013 
Q 519 850 447 850 
z
" transform="scale(0.015625)"/>
       <path id="Cmr10-45" d="M 197 0 
L 197 225 
Q 856 225 856 428 
L 856 3944 
Q 856 4147 197 4147 
L 197 4372 
L 3816 4372 
L 3994 2906 
L 3809 2906 
Q 3741 3459 3617 3709 
Q 3494 3959 3222 4053 
Q 2950 4147 2406 4147 
L 1778 4147 
Q 1663 4147 1598 4137 
Q 1534 4128 1493 4083 
Q 1453 4038 1453 3944 
L 1453 2381 
L 1925 2381 
Q 2250 2381 2411 2436 
Q 2572 2491 2633 2645 
Q 2694 2800 2694 3128 
L 2881 3128 
L 2881 1409 
L 2694 1409 
Q 2694 1734 2633 1890 
Q 2572 2047 2411 2101 
Q 2250 2156 1925 2156 
L 1453 2156 
L 1453 428 
Q 1453 291 1531 258 
Q 1609 225 1778 225 
L 2456 225 
Q 2900 225 3173 295 
Q 3447 366 3598 530 
Q 3750 694 3833 955 
Q 3916 1216 3988 1678 
L 4172 1678 
L 3903 0 
L 197 0 
z
" transform="scale(0.015625)"/>
       <path id="Cmr10-78" d="M 78 0 
L 78 225 
Q 322 225 537 320 
Q 753 416 903 603 
L 1484 1344 
L 728 2328 
Q 616 2469 483 2501 
Q 350 2534 109 2534 
L 109 2759 
L 1441 2759 
L 1441 2534 
Q 1356 2534 1282 2496 
Q 1209 2459 1209 2388 
Q 1209 2363 1228 2328 
L 1741 1663 
L 2125 2156 
Q 2203 2250 2203 2344 
Q 2203 2422 2151 2478 
Q 2100 2534 2016 2534 
L 2016 2759 
L 3194 2759 
L 3194 2534 
Q 2947 2534 2730 2439 
Q 2513 2344 2363 2156 
L 1856 1509 
L 2675 428 
Q 2797 288 2928 256 
Q 3059 225 3303 225 
L 3303 0 
L 1972 0 
L 1972 225 
Q 2050 225 2122 262 
Q 2194 300 2194 372 
Q 2194 400 2175 428 
L 1600 1191 
L 1141 603 
Q 1069 522 1069 416 
Q 1069 338 1122 281 
Q 1175 225 1247 225 
L 1247 0 
L 78 0 
z
" transform="scale(0.015625)"/>
       <path id="Cmr10-70" d="M 166 -1241 
L 166 -1019 
Q 384 -1019 525 -981 
Q 666 -944 666 -813 
L 666 2272 
Q 666 2447 541 2490 
Q 416 2534 166 2534 
L 166 2759 
L 1113 2828 
L 1113 2431 
Q 1288 2625 1520 2726 
Q 1753 2828 2016 2828 
Q 2394 2828 2697 2623 
Q 3000 2419 3170 2086 
Q 3341 1753 3341 1381 
Q 3341 994 3152 659 
Q 2963 325 2636 126 
Q 2309 -72 1919 -72 
Q 1453 -72 1131 306 
L 1131 -813 
Q 1131 -944 1273 -981 
Q 1416 -1019 1631 -1019 
L 1631 -1241 
L 166 -1241 
z
M 1131 622 
Q 1244 394 1444 245 
Q 1644 97 1881 97 
Q 2103 97 2273 215 
Q 2444 334 2559 534 
Q 2675 734 2729 954 
Q 2784 1175 2784 1381 
Q 2784 1638 2692 1936 
Q 2600 2234 2411 2439 
Q 2222 2644 1953 2644 
Q 1694 2644 1476 2511 
Q 1259 2378 1131 2150 
L 1131 622 
z
" transform="scale(0.015625)"/>
       <path id="Cmr10-28" d="M 1984 -1588 
Q 1628 -1306 1370 -942 
Q 1113 -578 948 -165 
Q 784 247 703 697 
Q 622 1147 622 1600 
Q 622 2059 703 2509 
Q 784 2959 951 3375 
Q 1119 3791 1378 4153 
Q 1638 4516 1984 4788 
Q 1984 4800 2016 4800 
L 2075 4800 
Q 2094 4800 2109 4783 
Q 2125 4766 2125 4744 
Q 2125 4716 2113 4703 
Q 1800 4397 1592 4047 
Q 1384 3697 1257 3301 
Q 1131 2906 1075 2482 
Q 1019 2059 1019 1600 
Q 1019 -434 2106 -1491 
Q 2125 -1509 2125 -1544 
Q 2125 -1559 2108 -1579 
Q 2091 -1600 2075 -1600 
L 2016 -1600 
Q 1984 -1600 1984 -1588 
z
" transform="scale(0.015625)"/>
       <path id="Cmr10-31" d="M 594 0 
L 594 225 
Q 1394 225 1394 428 
L 1394 3788 
Q 1063 3628 556 3628 
L 556 3853 
Q 1341 3853 1741 4263 
L 1831 4263 
Q 1853 4263 1873 4245 
Q 1894 4228 1894 4206 
L 1894 428 
Q 1894 225 2694 225 
L 2694 0 
L 594 0 
z
" transform="scale(0.015625)"/>
       <path id="Cmr10-29" d="M 416 -1600 
Q 359 -1600 359 -1544 
Q 359 -1516 372 -1503 
Q 1466 -434 1466 1600 
Q 1466 3634 384 4691 
Q 359 4706 359 4744 
Q 359 4766 376 4783 
Q 394 4800 416 4800 
L 475 4800 
Q 494 4800 506 4788 
Q 966 4425 1272 3906 
Q 1578 3388 1720 2800 
Q 1863 2213 1863 1600 
Q 1863 1147 1786 708 
Q 1709 269 1542 -157 
Q 1375 -584 1119 -945 
Q 863 -1306 506 -1588 
Q 494 -1600 475 -1600 
L 416 -1600 
z
" transform="scale(0.015625)"/>
      </defs>
      <use xlink:href="#DejaVuSerif-41" transform="translate(0 0.015625)"/>
      <use xlink:href="#DejaVuSerif-6c" transform="translate(72.216797 0.015625)"/>
      <use xlink:href="#DejaVuSerif-6c" transform="translate(104.199219 0.015625)"/>
      <use xlink:href="#DejaVuSerif-20" transform="translate(136.181641 0.015625)"/>
      <use xlink:href="#DejaVuSerif-73" transform="translate(167.96875 0.015625)"/>
      <use xlink:href="#DejaVuSerif-61" transform="translate(219.287109 0.015625)"/>
      <use xlink:href="#DejaVuSerif-6d" transform="translate(278.90625 0.015625)"/>
      <use xlink:href="#DejaVuSerif-70" transform="translate(373.730469 0.015625)"/>
      <use xlink:href="#DejaVuSerif-6c" transform="translate(437.744141 0.015625)"/>
      <use xlink:href="#DejaVuSerif-65" transform="translate(469.726562 0.015625)"/>
      <use xlink:href="#DejaVuSerif-73" transform="translate(528.90625 0.015625)"/>
      <use xlink:href="#DejaVuSerif-20" transform="translate(580.224609 0.015625)"/>
      <use xlink:href="#Cmmi10-54" transform="translate(612.011719 0.015625)"/>
      <use xlink:href="#Cmsy10-bb" transform="translate(687.96875 0.015625)"/>
      <use xlink:href="#Cmr10-45" transform="translate(783.212891 0.015625)"/>
      <use xlink:href="#Cmr10-78" transform="translate(851.230469 0.015625)"/>
      <use xlink:href="#Cmr10-70" transform="translate(903.916016 0.015625)"/>
      <use xlink:href="#Cmr10-28" transform="translate(959.433594 0.015625)"/>
      <use xlink:href="#Cmr10-31" transform="translate(998.251953 0.015625)"/>
      <use xlink:href="#Cmr10-29" transform="translate(1048.251953 0.015625)"/>
     </g>
    </g>
    <g id="patch_125">
     <path d="M 451.259062 57.95 
L 473.259062 57.95 
L 473.259062 50.25 
L 451.259062 50.25 
z
" style="fill: #d95319; opacity: 0.5; stroke: #ffffff; stroke-width: 0.5; stroke-linejoin: miter"/>
    </g>
    <g id="text_20">
     <!-- Residuals $T - 2 \mid T &gt; 2$ -->
     <g transform="translate(482.059062 57.95) scale(0.11 -0.11)">
      <defs>
       <path id="DejaVuSerif-52" d="M 3066 2316 
Q 3284 2256 3442 2114 
Q 3600 1972 3725 1716 
L 4403 331 
L 4972 331 
L 4972 0 
L 3872 0 
L 3144 1484 
Q 2934 1916 2759 2042 
Q 2584 2169 2278 2169 
L 1581 2169 
L 1581 331 
L 2241 331 
L 2241 0 
L 353 0 
L 353 331 
L 947 331 
L 947 4331 
L 353 4331 
L 353 4666 
L 2719 4666 
Q 3400 4666 3770 4341 
Q 4141 4016 4141 3419 
Q 4141 2938 3870 2661 
Q 3600 2384 3066 2316 
z
M 1581 2503 
L 2503 2503 
Q 2975 2503 3200 2726 
Q 3425 2950 3425 3419 
Q 3425 3888 3200 4109 
Q 2975 4331 2503 4331 
L 1581 4331 
L 1581 2503 
z
" transform="scale(0.015625)"/>
       <path id="DejaVuSerif-64" d="M 3359 331 
L 3909 331 
L 3909 0 
L 2784 0 
L 2784 519 
Q 2616 206 2355 57 
Q 2094 -91 1709 -91 
Q 1097 -91 708 395 
Q 319 881 319 1663 
Q 319 2444 706 2928 
Q 1094 3413 1709 3413 
Q 2094 3413 2355 3264 
Q 2616 3116 2784 2803 
L 2784 4531 
L 2241 4531 
L 2241 4863 
L 3359 4863 
L 3359 331 
z
M 2784 1497 
L 2784 1825 
Q 2784 2422 2554 2737 
Q 2325 3053 1888 3053 
Q 1444 3053 1217 2703 
Q 991 2353 991 1663 
Q 991 975 1217 622 
Q 1444 269 1888 269 
Q 2325 269 2554 583 
Q 2784 897 2784 1497 
z
" transform="scale(0.015625)"/>
       <path id="DejaVuSerif-75" d="M 2266 3322 
L 3341 3322 
L 3341 331 
L 3884 331 
L 3884 0 
L 2766 0 
L 2766 588 
Q 2606 256 2353 82 
Q 2100 -91 1766 -91 
Q 1213 -91 952 223 
Q 691 538 691 1209 
L 691 2988 
L 172 2988 
L 172 3322 
L 1269 3322 
L 1269 1388 
Q 1269 781 1417 556 
Q 1566 331 1947 331 
Q 2347 331 2556 625 
Q 2766 919 2766 1478 
L 2766 2988 
L 2266 2988 
L 2266 3322 
z
" transform="scale(0.015625)"/>
      </defs>
      <use xlink:href="#DejaVuSerif-52" transform="translate(0 0.015625)"/>
      <use xlink:href="#DejaVuSerif-65" transform="translate(75.292969 0.015625)"/>
      <use xlink:href="#DejaVuSerif-73" transform="translate(134.472656 0.015625)"/>
      <use xlink:href="#DejaVuSerif-69" transform="translate(185.791016 0.015625)"/>
      <use xlink:href="#DejaVuSerif-64" transform="translate(217.773438 0.015625)"/>
      <use xlink:href="#DejaVuSerif-75" transform="translate(281.787109 0.015625)"/>
      <use xlink:href="#DejaVuSerif-61" transform="translate(346.191406 0.015625)"/>
      <use xlink:href="#DejaVuSerif-6c" transform="translate(405.810547 0.015625)"/>
      <use xlink:href="#DejaVuSerif-73" transform="translate(437.792969 0.015625)"/>
      <use xlink:href="#DejaVuSerif-20" transform="translate(489.111328 0.015625)"/>
      <use xlink:href="#Cmmi10-54" transform="translate(520.898438 0.015625)"/>
      <use xlink:href="#Cmsy10-a1" transform="translate(596.855469 0.015625)"/>
      <use xlink:href="#Cmr10-32" transform="translate(692.099609 0.015625)"/>
      <use xlink:href="#Cmsy10-6a" transform="translate(759.658203 0.015625)"/>
      <use xlink:href="#Cmmi10-54" transform="translate(804.902344 0.015625)"/>
      <use xlink:href="#Cmmi10-3e" transform="translate(880.859375 0.015625)"/>
      <use xlink:href="#Cmr10-32" transform="translate(976.103516 0.015625)"/>
     </g>
    </g>
    <g id="line2d_32">
     <path d="M 451.259062 70.71 
L 462.259062 70.71 
L 473.259062 70.71 
" style="fill: none; stroke: #000000; stroke-opacity: 0.7; stroke-width: 2.5; stroke-linecap: square"/>
    </g>
    <g id="text_21">
     <!-- $\mathrm{Exp}(\lambda)$ density -->
     <g transform="translate(482.059062 74.56) scale(0.11 -0.11)">
      <defs>
       <path id="Cmmi10-b8" d="M 325 109 
Q 325 203 409 288 
L 2209 2053 
L 1575 3834 
Q 1500 4038 1417 4156 
Q 1334 4275 1178 4275 
Q 1106 4275 1106 4359 
Q 1113 4397 1138 4419 
Q 1163 4441 1203 4441 
Q 1875 4441 2016 4044 
L 3316 416 
Q 3400 144 3488 50 
Q 3519 3 3519 -13 
Q 3519 -72 3469 -72 
L 3122 -72 
Q 2963 -25 2869 206 
L 2284 1844 
L 738 25 
Q 622 -84 531 -84 
Q 450 -84 387 -28 
Q 325 28 325 109 
z
" transform="scale(0.015625)"/>
      </defs>
      <use xlink:href="#Cmr10-45" transform="translate(0 0.015625)"/>
      <use xlink:href="#Cmr10-78" transform="translate(68.017578 0.015625)"/>
      <use xlink:href="#Cmr10-70" transform="translate(120.703125 0.015625)"/>
      <use xlink:href="#Cmr10-28" transform="translate(176.220703 0.015625)"/>
      <use xlink:href="#Cmmi10-b8" transform="translate(215.039062 0.015625)"/>
      <use xlink:href="#Cmr10-29" transform="translate(273.339844 0.015625)"/>
      <use xlink:href="#DejaVuSerif-20" transform="translate(312.158203 0.015625)"/>
      <use xlink:href="#DejaVuSerif-64" transform="translate(343.945312 0.015625)"/>
      <use xlink:href="#DejaVuSerif-65" transform="translate(407.958984 0.015625)"/>
      <use xlink:href="#DejaVuSerif-6e" transform="translate(467.138672 0.015625)"/>
      <use xlink:href="#DejaVuSerif-73" transform="translate(531.542969 0.015625)"/>
      <use xlink:href="#DejaVuSerif-69" transform="translate(582.861328 0.015625)"/>
      <use xlink:href="#DejaVuSerif-74" transform="translate(614.84375 0.015625)"/>
      <use xlink:href="#DejaVuSerif-79" transform="translate(655.029297 0.015625)"/>
     </g>
    </g>
   </g>
  </g>
 </g>
 <defs>
  <clipPath id="p3e06cc7cc0">
   <rect x="54.359063" y="23.08" width="557.28" height="300.96"/>
  </clipPath>
 </defs>
</svg>
