<?xml version="1.0" encoding="utf-8" standalone="no"?>
<!DOCTYPE svg PUBLIC "-//W3C//DTD SVG 1.1//EN"
  "http://www.w3.org/Graphics/SVG/1.1/DTD/svg11.dtd">
<svg xmlns:xlink="http://www.w3.org/1999/xlink" width="469.527114pt" height="482.621006pt" viewBox="0 0 469.527114 482.621006" xmlns="http://www.w3.org/2000/svg" version="1.1">
 <metadata>
  <rdf:RDF xmlns:dc="http://purl.org/dc/elements/1.1/" xmlns:cc="http://creativecommons.org/ns#" xmlns:rdf="http://www.w3.org/1999/02/22-rdf-syntax-ns#">
   <cc:Work>
    <dc:type rdf:resource="http://purl.org/dc/dcmitype/StillImage"/>
    <dc:date>2026-06-06T12:40:53.751193</dc:date>
    <dc:format>image/svg+xml</dc:format>
    <dc:creator>
     <cc:Agent>
      <dc:title>Matplotlib v3.10.8, https://matplotlib.org/</dc:title>
     </cc:Agent>
    </dc:creator>
   </cc:Work>
  </rdf:RDF>
 </metadata>
 <defs>
  <style type="text/css">*{stroke-linejoin: round; stroke-linecap: butt}</style>
 </defs>
 <g id="figure_1">
  <g id="patch_1">
   <path d="M 0 482.621006 
L 469.527114 482.621006 
L 469.527114 0 
L 0 0 
z
" style="fill: #ffffff"/>
  </g>
  <g id="patch_2">
   <path d="M 7.205 469.64 
L 450.725 469.64 
L 450.725 26.12 
L 7.205 26.12 
z
" style="fill: #ffffff"/>
  </g>
  <g id="pane3d_1">
   <g id="patch_3">
    <path d="M 39.8017 355.841882 
L 193.431623 229.59332 
L 191.55304 55.47578 
L 30.186116 172.420713 
" style="fill: #f2f2f2; opacity: 0.5; stroke: #f2f2f2; stroke-linejoin: miter"/>
   </g>
  </g>
  <g id="pane3d_2">
   <g id="patch_4">
    <path d="M 193.431623 229.59332 
L 424.086772 306.045235 
L 433.103741 126.186105 
L 191.55304 55.47578 
" style="fill: #e6e6e6; opacity: 0.5; stroke: #e6e6e6; stroke-linejoin: miter"/>
   </g>
  </g>
  <g id="pane3d_3">
   <g id="patch_5">
    <path d="M 39.8017 355.841882 
L 282.540433 446.233511 
L 424.086772 306.045235 
L 193.431623 229.59332 
" style="fill: #ececec; opacity: 0.5; stroke: #ececec; stroke-linejoin: miter"/>
   </g>
  </g>
  <g id="grid3d_1">
   <g id="Line3DCollection_1">
    <path d="M 39.8017 355.841882 
L 193.431623 229.59332 
L 191.55304 55.47578 
" style="fill: none; stroke: #b0b0b0; stroke-width: 0.8"/>
    <path d="M 86.265152 373.144053 
L 237.738758 244.279163 
L 237.86583 69.033151 
" style="fill: none; stroke: #b0b0b0; stroke-width: 0.8"/>
    <path d="M 133.736831 390.82167 
L 282.930528 259.258224 
L 285.146004 82.873709 
" style="fill: none; stroke: #b0b0b0; stroke-width: 0.8"/>
    <path d="M 182.249912 408.887087 
L 329.033695 274.539371 
L 333.424193 97.006421 
" style="fill: none; stroke: #b0b0b0; stroke-width: 0.8"/>
    <path d="M 231.839046 427.353207 
L 376.07611 290.131838 
L 382.732334 111.440635 
" style="fill: none; stroke: #b0b0b0; stroke-width: 0.8"/>
    <path d="M 282.540433 446.233511 
L 424.086772 306.045235 
L 433.103741 126.186105 
" style="fill: none; stroke: #b0b0b0; stroke-width: 0.8"/>
   </g>
  </g>
  <g id="grid3d_2">
   <g id="Line3DCollection_2">
    <path d="M 30.186116 172.420713 
L 39.8017 355.841882 
L 282.540433 446.233511 
" style="fill: none; stroke: #b0b0b0; stroke-width: 0.8"/>
    <path d="M 59.049568 151.502953 
L 67.194452 333.331323 
L 307.86964 421.147325 
" style="fill: none; stroke: #b0b0b0; stroke-width: 0.8"/>
    <path d="M 87.079972 131.188916 
L 93.832704 311.440789 
L 332.463201 396.789726 
" style="fill: none; stroke: #b0b0b0; stroke-width: 0.8"/>
    <path d="M 114.31288 111.452836 
L 119.747207 290.145011 
L 356.352707 373.129428 
" style="fill: none; stroke: #b0b0b0; stroke-width: 0.8"/>
    <path d="M 140.781849 92.270393 
L 144.96706 269.420076 
L 379.567963 350.13691 
" style="fill: none; stroke: #b0b0b0; stroke-width: 0.8"/>
    <path d="M 166.518579 73.618615 
L 169.519824 249.243335 
L 402.137117 327.784295 
" style="fill: none; stroke: #b0b0b0; stroke-width: 0.8"/>
    <path d="M 191.55304 55.47578 
L 193.431623 229.59332 
L 424.086772 306.045235 
" style="fill: none; stroke: #b0b0b0; stroke-width: 0.8"/>
   </g>
  </g>
  <g id="grid3d_3">
   <g id="Line3DCollection_3">
    <path d="M 424.086772 306.045235 
L 193.431623 229.59332 
L 39.8017 355.841882 
" style="fill: none; stroke: #b0b0b0; stroke-width: 0.8"/>
    <path d="M 425.740465 273.059448 
L 193.086439 197.599714 
L 38.040411 322.244582 
" style="fill: none; stroke: #b0b0b0; stroke-width: 0.8"/>
    <path d="M 427.423332 239.491732 
L 192.735468 165.069767 
L 36.247042 288.035328 
" style="fill: none; stroke: #b0b0b0; stroke-width: 0.8"/>
    <path d="M 429.136153 205.326552 
L 192.378564 131.98988 
L 34.420706 253.197247 
" style="fill: none; stroke: #b0b0b0; stroke-width: 0.8"/>
    <path d="M 430.879733 170.547812 
L 192.015574 98.345988 
L 32.560489 217.71284 
" style="fill: none; stroke: #b0b0b0; stroke-width: 0.8"/>
    <path d="M 432.654909 135.138836 
L 191.646342 64.123543 
L 30.665437 181.563952 
" style="fill: none; stroke: #b0b0b0; stroke-width: 0.8"/>
   </g>
  </g>
  <g id="axis3d_1">
   <g id="line2d_1">
    <path d="M 39.8017 355.841882 
L 282.540433 446.233511 
" style="fill: none; stroke: #000000; stroke-width: 0.8; stroke-linecap: square"/>
   </g>
   <g id="xtick_1">
    <g id="line2d_2">
     <path d="M 41.134267 354.746817 
L 37.131124 358.036483 
" style="fill: none; stroke: #000000; stroke-width: 0.8; stroke-linecap: square"/>
    </g>
    <g id="text_1">
     <!-- 0 -->
     <g transform="translate(27.809299 381.27101) scale(0.13 -0.13)">
      <defs>
       <path id="DejaVuSerif-30" d="M 2034 219 
Q 2513 219 2750 744 
Q 2988 1269 2988 2328 
Q 2988 3391 2750 3916 
Q 2513 4441 2034 4441 
Q 1556 4441 1318 3916 
Q 1081 3391 1081 2328 
Q 1081 1269 1318 744 
Q 1556 219 2034 219 
z
M 2034 -91 
Q 1275 -91 848 546 
Q 422 1184 422 2328 
Q 422 3475 848 4112 
Q 1275 4750 2034 4750 
Q 2797 4750 3222 4112 
Q 3647 3475 3647 2328 
Q 3647 1184 3222 546 
Q 2797 -91 2034 -91 
z
" transform="scale(0.015625)"/>
      </defs>
      <use xlink:href="#DejaVuSerif-30"/>
     </g>
    </g>
   </g>
   <g id="xtick_2">
    <g id="line2d_3">
     <path d="M 87.580111 372.025363 
L 83.629807 375.38605 
" style="fill: none; stroke: #000000; stroke-width: 0.8; stroke-linecap: square"/>
    </g>
    <g id="text_2">
     <!-- 5 -->
     <g transform="translate(74.277306 398.773574) scale(0.13 -0.13)">
      <defs>
       <path id="DejaVuSerif-35" d="M 3219 4666 
L 3219 4153 
L 1081 4153 
L 1081 2816 
Q 1244 2928 1461 2984 
Q 1678 3041 1947 3041 
Q 2703 3041 3140 2622 
Q 3578 2203 3578 1478 
Q 3578 738 3136 323 
Q 2694 -91 1894 -91 
Q 1572 -91 1234 -12 
Q 897 66 544 225 
L 544 1131 
L 897 1131 
Q 925 688 1179 453 
Q 1434 219 1894 219 
Q 2388 219 2653 544 
Q 2919 869 2919 1478 
Q 2919 2084 2655 2407 
Q 2391 2731 1894 2731 
Q 1613 2731 1398 2631 
Q 1184 2531 1019 2322 
L 750 2322 
L 750 4666 
L 3219 4666 
z
" transform="scale(0.015625)"/>
      </defs>
      <use xlink:href="#DejaVuSerif-35"/>
     </g>
    </g>
   </g>
   <g id="xtick_3">
    <g id="line2d_4">
     <path d="M 135.033099 389.678582 
L 131.138886 393.112615 
" style="fill: none; stroke: #000000; stroke-width: 0.8; stroke-linecap: square"/>
    </g>
    <g id="text_3">
     <!-- 10 -->
     <g transform="translate(117.619967 416.656668) scale(0.13 -0.13)">
      <defs>
       <path id="DejaVuSerif-31" d="M 909 0 
L 909 331 
L 1722 331 
L 1722 4213 
L 781 3603 
L 781 4013 
L 1919 4750 
L 2350 4750 
L 2350 331 
L 3163 331 
L 3163 0 
L 909 0 
z
" transform="scale(0.015625)"/>
      </defs>
      <use xlink:href="#DejaVuSerif-31"/>
      <use xlink:href="#DejaVuSerif-30" transform="translate(63.623047 0)"/>
     </g>
    </g>
   </g>
   <g id="xtick_4">
    <g id="line2d_5">
     <path d="M 183.52635 407.718795 
L 179.691653 411.228601 
" style="fill: none; stroke: #000000; stroke-width: 0.8; stroke-linecap: square"/>
    </g>
    <g id="text_4">
     <!-- 15 -->
     <g transform="translate(166.141842 434.932838) scale(0.13 -0.13)">
      <use xlink:href="#DejaVuSerif-31"/>
      <use xlink:href="#DejaVuSerif-35" transform="translate(63.623047 0)"/>
     </g>
    </g>
   </g>
   <g id="xtick_5">
    <g id="line2d_6">
     <path d="M 233.094449 426.158867 
L 229.322884 429.746983 
" style="fill: none; stroke: #000000; stroke-width: 0.8; stroke-linecap: square"/>
    </g>
    <g id="text_5">
     <!-- 20 -->
     <g transform="translate(215.742094 453.615189) scale(0.13 -0.13)">
      <defs>
       <path id="DejaVuSerif-32" d="M 819 3553 
L 469 3553 
L 469 4384 
Q 803 4563 1142 4656 
Q 1481 4750 1806 4750 
Q 2534 4750 2956 4397 
Q 3378 4044 3378 3438 
Q 3378 2753 2422 1800 
Q 2347 1728 2309 1691 
L 1131 513 
L 3078 513 
L 3078 1088 
L 3444 1088 
L 3444 0 
L 434 0 
L 434 341 
L 1850 1753 
Q 2319 2222 2519 2614 
Q 2719 3006 2719 3438 
Q 2719 3909 2473 4175 
Q 2228 4441 1797 4441 
Q 1350 4441 1106 4219 
Q 863 3997 819 3553 
z
" transform="scale(0.015625)"/>
      </defs>
      <use xlink:href="#DejaVuSerif-32"/>
      <use xlink:href="#DejaVuSerif-30" transform="translate(63.623047 0)"/>
     </g>
    </g>
   </g>
   <g id="xtick_6">
    <g id="line2d_7">
     <path d="M 283.773534 445.012242 
L 280.068914 448.681318 
" style="fill: none; stroke: #000000; stroke-width: 0.8; stroke-linecap: square"/>
    </g>
    <g id="text_6">
     <!-- 25 -->
     <g transform="translate(266.457078 472.717412) scale(0.13 -0.13)">
      <use xlink:href="#DejaVuSerif-32"/>
      <use xlink:href="#DejaVuSerif-35" transform="translate(63.623047 0)"/>
     </g>
    </g>
   </g>
   <g id="text_7">
    <!-- $n$  ($X$ count) -->
    <g transform="translate(91.355018 427.759987) rotate(-339.575555) scale(0.16 -0.16)">
     <defs>
      <path id="Cmmi10-6e" d="M 494 109 
Q 494 147 500 166 
L 978 2075 
Q 1025 2253 1025 2388 
Q 1025 2663 838 2663 
Q 638 2663 541 2423 
Q 444 2184 353 1819 
Q 353 1800 334 1789 
Q 316 1778 300 1778 
L 225 1778 
Q 203 1778 187 1801 
Q 172 1825 172 1844 
Q 241 2122 305 2315 
Q 369 2509 505 2668 
Q 641 2828 844 2828 
Q 1084 2828 1268 2676 
Q 1453 2525 1453 2291 
Q 1644 2541 1900 2684 
Q 2156 2828 2444 2828 
Q 2672 2828 2837 2750 
Q 3003 2672 3095 2514 
Q 3188 2356 3188 2138 
Q 3188 1875 3070 1503 
Q 2953 1131 2778 672 
Q 2688 463 2688 288 
Q 2688 97 2834 97 
Q 3084 97 3251 365 
Q 3419 634 3488 941 
Q 3500 978 3541 978 
L 3616 978 
Q 3641 978 3658 962 
Q 3675 947 3675 922 
Q 3675 916 3669 903 
Q 3581 541 3364 234 
Q 3147 -72 2822 -72 
Q 2597 -72 2437 83 
Q 2278 238 2278 459 
Q 2278 578 2328 709 
Q 2409 919 2514 1209 
Q 2619 1500 2686 1765 
Q 2753 2031 2753 2234 
Q 2753 2413 2679 2538 
Q 2606 2663 2431 2663 
Q 2197 2663 2000 2559 
Q 1803 2456 1656 2286 
Q 1509 2116 1388 1881 
L 953 141 
Q 931 53 854 -9 
Q 778 -72 684 -72 
Q 606 -72 550 -22 
Q 494 28 494 109 
z
" transform="scale(0.015625)"/>
      <path id="DejaVuSerif-20" transform="scale(0.015625)"/>
      <path id="DejaVuSerif-28" d="M 2041 -997 
Q 1281 -656 893 83 
Q 506 822 506 1931 
Q 506 3044 893 3783 
Q 1281 4522 2041 4863 
L 2041 4556 
Q 1559 4225 1350 3623 
Q 1141 3022 1141 1931 
Q 1141 844 1350 242 
Q 1559 -359 2041 -691 
L 2041 -997 
z
" transform="scale(0.015625)"/>
      <path id="Cmmi10-58" d="M 231 0 
Q 166 0 166 84 
Q 169 100 180 140 
Q 191 181 208 203 
Q 225 225 256 225 
Q 838 225 1253 659 
Q 1259 666 1267 669 
Q 1275 672 1275 672 
L 2675 2181 
L 1913 4019 
Q 1847 4103 1700 4125 
Q 1553 4147 1356 4147 
Q 1294 4147 1294 4231 
Q 1316 4313 1328 4342 
Q 1341 4372 1403 4372 
L 3003 4372 
Q 3066 4372 3066 4288 
Q 3063 4272 3052 4231 
Q 3041 4191 3023 4169 
Q 3006 4147 2975 4147 
Q 2856 4147 2729 4108 
Q 2603 4069 2553 3981 
L 3103 2656 
L 4153 3781 
Q 4163 3803 4197 3858 
Q 4231 3913 4231 3963 
Q 4231 4056 4150 4101 
Q 4069 4147 3956 4147 
Q 3891 4147 3891 4231 
Q 3913 4313 3925 4342 
Q 3938 4372 4000 4372 
L 5388 4372 
Q 5422 4372 5437 4347 
Q 5453 4322 5453 4288 
Q 5450 4272 5440 4234 
Q 5431 4197 5415 4172 
Q 5400 4147 5369 4147 
Q 5072 4147 4823 4039 
Q 4575 3931 4366 3713 
Q 4363 3709 4358 3707 
Q 4353 3706 4347 3700 
L 3188 2450 
L 4063 353 
Q 4166 225 4622 225 
Q 4684 225 4684 141 
Q 4663 56 4648 28 
Q 4634 0 4575 0 
L 2975 0 
Q 2913 0 2913 84 
Q 2916 100 2925 139 
Q 2934 178 2951 201 
Q 2969 225 2994 225 
Q 3119 225 3247 264 
Q 3375 303 3425 391 
L 2759 1984 
L 1466 588 
Q 1456 566 1422 512 
Q 1388 459 1388 409 
Q 1388 316 1475 270 
Q 1563 225 1663 225 
Q 1728 225 1728 141 
Q 1706 50 1693 25 
Q 1681 0 1619 0 
L 231 0 
z
" transform="scale(0.015625)"/>
      <path id="DejaVuSerif-63" d="M 3291 997 
Q 3169 466 2822 187 
Q 2475 -91 1925 -91 
Q 1200 -91 759 389 
Q 319 869 319 1663 
Q 319 2459 759 2936 
Q 1200 3413 1925 3413 
Q 2241 3413 2553 3339 
Q 2866 3266 3181 3116 
L 3181 2266 
L 2847 2266 
Q 2781 2703 2561 2903 
Q 2341 3103 1931 3103 
Q 1466 3103 1228 2742 
Q 991 2381 991 1663 
Q 991 944 1227 581 
Q 1463 219 1931 219 
Q 2303 219 2525 412 
Q 2747 606 2828 997 
L 3291 997 
z
" transform="scale(0.015625)"/>
      <path id="DejaVuSerif-6f" d="M 1925 219 
Q 2388 219 2623 584 
Q 2859 950 2859 1663 
Q 2859 2375 2623 2739 
Q 2388 3103 1925 3103 
Q 1463 3103 1227 2739 
Q 991 2375 991 1663 
Q 991 950 1228 584 
Q 1466 219 1925 219 
z
M 1925 -91 
Q 1200 -91 759 389 
Q 319 869 319 1663 
Q 319 2456 758 2934 
Q 1197 3413 1925 3413 
Q 2653 3413 3092 2934 
Q 3531 2456 3531 1663 
Q 3531 869 3092 389 
Q 2653 -91 1925 -91 
z
" transform="scale(0.015625)"/>
      <path id="DejaVuSerif-75" d="M 2266 3322 
L 3341 3322 
L 3341 331 
L 3884 331 
L 3884 0 
L 2766 0 
L 2766 588 
Q 2606 256 2353 82 
Q 2100 -91 1766 -91 
Q 1213 -91 952 223 
Q 691 538 691 1209 
L 691 2988 
L 172 2988 
L 172 3322 
L 1269 3322 
L 1269 1388 
Q 1269 781 1417 556 
Q 1566 331 1947 331 
Q 2347 331 2556 625 
Q 2766 919 2766 1478 
L 2766 2988 
L 2266 2988 
L 2266 3322 
z
" transform="scale(0.015625)"/>
      <path id="DejaVuSerif-6e" d="M 263 0 
L 263 331 
L 781 331 
L 781 2988 
L 231 2988 
L 231 3322 
L 1356 3322 
L 1356 2731 
Q 1516 3069 1770 3241 
Q 2025 3413 2363 3413 
Q 2913 3413 3172 3097 
Q 3431 2781 3431 2113 
L 3431 331 
L 3944 331 
L 3944 0 
L 2356 0 
L 2356 331 
L 2853 331 
L 2853 1931 
Q 2853 2541 2703 2767 
Q 2553 2994 2175 2994 
Q 1775 2994 1565 2701 
Q 1356 2409 1356 1850 
L 1356 331 
L 1856 331 
L 1856 0 
L 263 0 
z
" transform="scale(0.015625)"/>
      <path id="DejaVuSerif-74" d="M 691 2988 
L 184 2988 
L 184 3322 
L 691 3322 
L 691 4353 
L 1269 4353 
L 1269 3322 
L 2350 3322 
L 2350 2988 
L 1269 2988 
L 1269 878 
Q 1269 456 1350 337 
Q 1431 219 1650 219 
Q 1875 219 1978 351 
Q 2081 484 2088 781 
L 2522 781 
Q 2497 328 2275 118 
Q 2053 -91 1600 -91 
Q 1103 -91 897 129 
Q 691 350 691 878 
L 691 2988 
z
" transform="scale(0.015625)"/>
      <path id="DejaVuSerif-29" d="M 453 -997 
L 453 -691 
Q 934 -359 1145 242 
Q 1356 844 1356 1931 
Q 1356 3022 1145 3623 
Q 934 4225 453 4556 
L 453 4863 
Q 1216 4522 1603 3783 
Q 1991 3044 1991 1931 
Q 1991 822 1603 83 
Q 1216 -656 453 -997 
z
" transform="scale(0.015625)"/>
     </defs>
     <use xlink:href="#Cmmi10-6e" transform="translate(0 0.015625)"/>
     <use xlink:href="#DejaVuSerif-20" transform="translate(60.009766 0.015625)"/>
     <use xlink:href="#DejaVuSerif-20" transform="translate(91.796875 0.015625)"/>
     <use xlink:href="#DejaVuSerif-28" transform="translate(123.583984 0.015625)"/>
     <use xlink:href="#Cmmi10-58" transform="translate(162.597656 0.015625)"/>
     <use xlink:href="#DejaVuSerif-20" transform="translate(245.410156 0.015625)"/>
     <use xlink:href="#DejaVuSerif-63" transform="translate(277.197266 0.015625)"/>
     <use xlink:href="#DejaVuSerif-6f" transform="translate(333.203125 0.015625)"/>
     <use xlink:href="#DejaVuSerif-75" transform="translate(393.408203 0.015625)"/>
     <use xlink:href="#DejaVuSerif-6e" transform="translate(457.8125 0.015625)"/>
     <use xlink:href="#DejaVuSerif-74" transform="translate(522.216797 0.015625)"/>
     <use xlink:href="#DejaVuSerif-29" transform="translate(562.402344 0.015625)"/>
    </g>
   </g>
  </g>
  <g id="axis3d_2">
   <g id="line2d_8">
    <path d="M 424.086772 306.045235 
L 282.540433 446.233511 
" style="fill: none; stroke: #000000; stroke-width: 0.8; stroke-linecap: square"/>
   </g>
   <g id="xtick_7">
    <g id="line2d_9">
     <path d="M 280.490553 445.470172 
L 286.645716 447.762246 
" style="fill: none; stroke: #000000; stroke-width: 0.8; stroke-linecap: square"/>
    </g>
    <g id="text_8">
     <!-- 0 -->
     <g transform="translate(291.053431 469.835654) scale(0.13 -0.13)">
      <use xlink:href="#DejaVuSerif-30"/>
     </g>
    </g>
   </g>
   <g id="xtick_8">
    <g id="line2d_10">
     <path d="M 305.838763 420.406311 
L 311.936784 422.631318 
" style="fill: none; stroke: #000000; stroke-width: 0.8; stroke-linecap: square"/>
    </g>
    <g id="text_9">
     <!-- 1 -->
     <g transform="translate(316.204249 444.539189) scale(0.13 -0.13)">
      <use xlink:href="#DejaVuSerif-31"/>
     </g>
    </g>
   </g>
   <g id="xtick_9">
    <g id="line2d_11">
     <path d="M 330.451096 396.070073 
L 336.492675 398.230913 
" style="fill: none; stroke: #000000; stroke-width: 0.8; stroke-linecap: square"/>
    </g>
    <g id="text_10">
     <!-- 2 -->
     <g transform="translate(340.624374 419.977649) scale(0.13 -0.13)">
      <use xlink:href="#DejaVuSerif-32"/>
     </g>
    </g>
   </g>
   <g id="xtick_10">
    <g id="line2d_12">
     <path d="M 354.359138 372.430225 
L 360.344984 374.529635 
" style="fill: none; stroke: #000000; stroke-width: 0.8; stroke-linecap: square"/>
    </g>
    <g id="text_11">
     <!-- 3 -->
     <g transform="translate(364.345193 396.119465) scale(0.13 -0.13)">
      <defs>
       <path id="DejaVuSerif-33" d="M 622 4469 
Q 988 4606 1323 4678 
Q 1659 4750 1953 4750 
Q 2638 4750 3022 4454 
Q 3406 4159 3406 3634 
Q 3406 3213 3140 2930 
Q 2875 2647 2388 2547 
Q 2963 2466 3280 2130 
Q 3597 1794 3597 1259 
Q 3597 606 3158 257 
Q 2719 -91 1894 -91 
Q 1528 -91 1179 -12 
Q 831 66 488 225 
L 488 1131 
L 838 1131 
Q 869 681 1141 450 
Q 1413 219 1906 219 
Q 2384 219 2661 495 
Q 2938 772 2938 1253 
Q 2938 1803 2653 2086 
Q 2369 2369 1819 2369 
L 1522 2369 
L 1522 2688 
L 1678 2688 
Q 2225 2688 2498 2914 
Q 2772 3141 2772 3597 
Q 2772 4006 2547 4223 
Q 2322 4441 1900 4441 
Q 1478 4441 1245 4241 
Q 1013 4041 972 3647 
L 622 3647 
L 622 4469 
z
" transform="scale(0.015625)"/>
      </defs>
      <use xlink:href="#DejaVuSerif-33"/>
     </g>
    </g>
   </g>
   <g id="xtick_11">
    <g id="line2d_13">
     <path d="M 377.592693 349.457298 
L 383.523523 351.497861 
" style="fill: none; stroke: #000000; stroke-width: 0.8; stroke-linecap: square"/>
    </g>
    <g id="text_12">
     <!-- 4 -->
     <g transform="translate(387.396319 372.934851) scale(0.13 -0.13)">
      <defs>
       <path id="DejaVuSerif-34" d="M 2234 1581 
L 2234 4063 
L 641 1581 
L 2234 1581 
z
M 3609 0 
L 1484 0 
L 1484 331 
L 2234 331 
L 2234 1247 
L 197 1247 
L 197 1588 
L 2241 4750 
L 2859 4750 
L 2859 1581 
L 3750 1581 
L 3750 1247 
L 2859 1247 
L 2859 331 
L 3609 331 
L 3609 0 
z
" transform="scale(0.015625)"/>
      </defs>
      <use xlink:href="#DejaVuSerif-34"/>
     </g>
    </g>
   </g>
   <g id="xtick_12">
    <g id="line2d_14">
     <path d="M 400.179906 327.123462 
L 406.056443 329.107617 
" style="fill: none; stroke: #000000; stroke-width: 0.8; stroke-linecap: square"/>
    </g>
    <g id="text_13">
     <!-- 5 -->
     <g transform="translate(409.805718 350.395681) scale(0.13 -0.13)">
      <use xlink:href="#DejaVuSerif-35"/>
     </g>
    </g>
   </g>
   <g id="xtick_13">
    <g id="line2d_15">
     <path d="M 422.14738 305.402413 
L 427.970349 307.332468 
" style="fill: none; stroke: #000000; stroke-width: 0.8; stroke-linecap: square"/>
    </g>
    <g id="text_14">
     <!-- 6 -->
     <g transform="translate(431.599821 328.47537) scale(0.13 -0.13)">
      <defs>
       <path id="DejaVuSerif-36" d="M 2094 219 
Q 2534 219 2771 542 
Q 3009 866 3009 1472 
Q 3009 2078 2771 2401 
Q 2534 2725 2094 2725 
Q 1647 2725 1412 2412 
Q 1178 2100 1178 1509 
Q 1178 888 1415 553 
Q 1653 219 2094 219 
z
M 1075 2569 
Q 1288 2803 1556 2918 
Q 1825 3034 2163 3034 
Q 2859 3034 3264 2615 
Q 3669 2197 3669 1472 
Q 3669 763 3233 336 
Q 2797 -91 2069 -91 
Q 1278 -91 853 498 
Q 428 1088 428 2181 
Q 428 3406 931 4078 
Q 1434 4750 2350 4750 
Q 2597 4750 2869 4703 
Q 3141 4656 3425 4563 
L 3425 3794 
L 3072 3794 
Q 3034 4109 2831 4275 
Q 2628 4441 2284 4441 
Q 1678 4441 1381 3981 
Q 1084 3522 1075 2569 
z
" transform="scale(0.015625)"/>
      </defs>
      <use xlink:href="#DejaVuSerif-36"/>
     </g>
    </g>
   </g>
   <g id="text_15">
    <!-- Time  $t$ -->
    <g transform="translate(369.993099 429.219295) rotate(-44.723816) scale(0.16 -0.16)">
     <defs>
      <path id="DejaVuSerif-54" d="M 1222 0 
L 1222 331 
L 1819 331 
L 1819 4294 
L 447 4294 
L 447 3566 
L 63 3566 
L 63 4666 
L 4206 4666 
L 4206 3566 
L 3822 3566 
L 3822 4294 
L 2450 4294 
L 2450 331 
L 3047 331 
L 3047 0 
L 1222 0 
z
" transform="scale(0.015625)"/>
      <path id="DejaVuSerif-69" d="M 622 4353 
Q 622 4497 726 4603 
Q 831 4709 978 4709 
Q 1122 4709 1226 4603 
Q 1331 4497 1331 4353 
Q 1331 4206 1228 4103 
Q 1125 4000 978 4000 
Q 831 4000 726 4103 
Q 622 4206 622 4353 
z
M 1356 331 
L 1900 331 
L 1900 0 
L 231 0 
L 231 331 
L 781 331 
L 781 2988 
L 231 2988 
L 231 3322 
L 1356 3322 
L 1356 331 
z
" transform="scale(0.015625)"/>
      <path id="DejaVuSerif-6d" d="M 3316 2675 
Q 3481 3041 3739 3227 
Q 3997 3413 4341 3413 
Q 4863 3413 5119 3089 
Q 5375 2766 5375 2113 
L 5375 331 
L 5894 331 
L 5894 0 
L 4300 0 
L 4300 331 
L 4800 331 
L 4800 2047 
Q 4800 2556 4650 2772 
Q 4500 2988 4153 2988 
Q 3769 2988 3567 2697 
Q 3366 2406 3366 1850 
L 3366 331 
L 3866 331 
L 3866 0 
L 2291 0 
L 2291 331 
L 2791 331 
L 2791 2069 
Q 2791 2566 2641 2777 
Q 2491 2988 2144 2988 
Q 1759 2988 1557 2697 
Q 1356 2406 1356 1850 
L 1356 331 
L 1856 331 
L 1856 0 
L 263 0 
L 263 331 
L 781 331 
L 781 2994 
L 231 2994 
L 231 3322 
L 1356 3322 
L 1356 2731 
Q 1516 3063 1762 3238 
Q 2009 3413 2322 3413 
Q 2709 3413 2968 3220 
Q 3228 3028 3316 2675 
z
" transform="scale(0.015625)"/>
      <path id="DejaVuSerif-65" d="M 3469 1600 
L 991 1600 
L 991 1575 
Q 991 903 1244 561 
Q 1497 219 1991 219 
Q 2369 219 2611 417 
Q 2853 616 2950 1006 
L 3413 1006 
Q 3275 459 2904 184 
Q 2534 -91 1931 -91 
Q 1203 -91 761 389 
Q 319 869 319 1663 
Q 319 2450 753 2931 
Q 1188 3413 1894 3413 
Q 2647 3413 3050 2948 
Q 3453 2484 3469 1600 
z
M 2791 1931 
Q 2772 2513 2545 2808 
Q 2319 3103 1894 3103 
Q 1497 3103 1269 2806 
Q 1041 2509 991 1931 
L 2791 1931 
z
" transform="scale(0.015625)"/>
      <path id="Cmmi10-74" d="M 397 519 
Q 397 613 416 697 
L 878 2534 
L 206 2534 
Q 141 2534 141 2619 
Q 166 2759 225 2759 
L 934 2759 
L 1191 3803 
Q 1216 3888 1291 3947 
Q 1366 4006 1459 4006 
Q 1541 4006 1595 3957 
Q 1650 3909 1650 3828 
Q 1650 3809 1648 3798 
Q 1647 3788 1644 3775 
L 1388 2759 
L 2047 2759 
Q 2113 2759 2113 2675 
Q 2109 2659 2100 2621 
Q 2091 2584 2075 2559 
Q 2059 2534 2028 2534 
L 1331 2534 
L 872 684 
Q 825 503 825 372 
Q 825 97 1013 97 
Q 1294 97 1511 361 
Q 1728 625 1844 941 
Q 1869 978 1894 978 
L 1972 978 
Q 1997 978 2012 961 
Q 2028 944 2028 922 
Q 2028 909 2022 903 
Q 1881 516 1612 222 
Q 1344 -72 997 -72 
Q 744 -72 570 93 
Q 397 259 397 519 
z
" transform="scale(0.015625)"/>
     </defs>
     <use xlink:href="#DejaVuSerif-54" transform="translate(0 0.421875)"/>
     <use xlink:href="#DejaVuSerif-69" transform="translate(66.699219 0.421875)"/>
     <use xlink:href="#DejaVuSerif-6d" transform="translate(98.681641 0.421875)"/>
     <use xlink:href="#DejaVuSerif-65" transform="translate(193.505859 0.421875)"/>
     <use xlink:href="#DejaVuSerif-20" transform="translate(252.685547 0.421875)"/>
     <use xlink:href="#DejaVuSerif-20" transform="translate(284.472656 0.421875)"/>
     <use xlink:href="#Cmmi10-74" transform="translate(316.259766 0.421875)"/>
    </g>
   </g>
  </g>
  <g id="axis3d_3">
   <g id="line2d_16">
    <path d="M 424.086772 306.045235 
L 433.103741 126.186105 
" style="fill: none; stroke: #000000; stroke-width: 0.8; stroke-linecap: square"/>
   </g>
   <g id="xtick_14">
    <g id="line2d_17">
     <path d="M 422.14738 305.402413 
L 427.970349 307.332468 
" style="fill: none; stroke: #000000; stroke-width: 0.8; stroke-linecap: square"/>
    </g>
    <g id="text_16">
     <!-- 0.0 -->
     <g transform="translate(432.261372 313.524419) scale(0.13 -0.13)">
      <defs>
       <path id="DejaVuSerif-2e" d="M 603 325 
Q 603 500 722 622 
Q 841 744 1019 744 
Q 1191 744 1312 622 
Q 1434 500 1434 325 
Q 1434 153 1312 31 
Q 1191 -91 1019 -91 
Q 841 -91 722 29 
Q 603 150 603 325 
z
" transform="scale(0.015625)"/>
      </defs>
      <use xlink:href="#DejaVuSerif-30"/>
      <use xlink:href="#DejaVuSerif-2e" transform="translate(63.623047 0)"/>
      <use xlink:href="#DejaVuSerif-30" transform="translate(95.410156 0)"/>
     </g>
    </g>
   </g>
   <g id="xtick_15">
    <g id="line2d_18">
     <path d="M 423.783436 272.424699 
L 429.659402 274.330528 
" style="fill: none; stroke: #000000; stroke-width: 0.8; stroke-linecap: square"/>
    </g>
    <g id="text_17">
     <!-- 0.2 -->
     <g transform="translate(434.074115 280.568781) scale(0.13 -0.13)">
      <use xlink:href="#DejaVuSerif-30"/>
      <use xlink:href="#DejaVuSerif-2e" transform="translate(63.623047 0)"/>
      <use xlink:href="#DejaVuSerif-32" transform="translate(95.410156 0)"/>
     </g>
    </g>
   </g>
   <g id="xtick_16">
    <g id="line2d_19">
     <path d="M 425.448344 238.865443 
L 431.378278 240.745887 
" style="fill: none; stroke: #000000; stroke-width: 0.8; stroke-linecap: square"/>
    </g>
    <g id="text_18">
     <!-- 0.4 -->
     <g transform="translate(435.918788 247.032656) scale(0.13 -0.13)">
      <use xlink:href="#DejaVuSerif-30"/>
      <use xlink:href="#DejaVuSerif-2e" transform="translate(63.623047 0)"/>
      <use xlink:href="#DejaVuSerif-34" transform="translate(95.410156 0)"/>
     </g>
    </g>
   </g>
   <g id="xtick_17">
    <g id="line2d_20">
     <path d="M 427.142872 204.709124 
L 433.127774 206.562973 
" style="fill: none; stroke: #000000; stroke-width: 0.8; stroke-linecap: square"/>
    </g>
    <g id="text_19">
     <!-- 0.6 -->
     <g transform="translate(437.796241 212.900569) scale(0.13 -0.13)">
      <use xlink:href="#DejaVuSerif-30"/>
      <use xlink:href="#DejaVuSerif-2e" transform="translate(63.623047 0)"/>
      <use xlink:href="#DejaVuSerif-36" transform="translate(95.410156 0)"/>
     </g>
    </g>
   </g>
   <g id="xtick_18">
    <g id="line2d_21">
     <path d="M 428.867818 169.939668 
L 434.908715 171.765659 
" style="fill: none; stroke: #000000; stroke-width: 0.8; stroke-linecap: square"/>
    </g>
    <g id="text_20">
     <!-- 0.8 -->
     <g transform="translate(439.707358 178.156492) scale(0.13 -0.13)">
      <defs>
       <path id="DejaVuSerif-38" d="M 2981 1275 
Q 2981 1775 2732 2051 
Q 2484 2328 2034 2328 
Q 1584 2328 1336 2051 
Q 1088 1775 1088 1275 
Q 1088 772 1336 495 
Q 1584 219 2034 219 
Q 2484 219 2732 495 
Q 2981 772 2981 1275 
z
M 2853 3541 
Q 2853 3966 2637 4203 
Q 2422 4441 2034 4441 
Q 1650 4441 1433 4203 
Q 1216 3966 1216 3541 
Q 1216 3113 1433 2875 
Q 1650 2638 2034 2638 
Q 2422 2638 2637 2875 
Q 2853 3113 2853 3541 
z
M 2516 2484 
Q 3047 2413 3344 2092 
Q 3641 1772 3641 1275 
Q 3641 619 3225 264 
Q 2809 -91 2034 -91 
Q 1263 -91 845 264 
Q 428 619 428 1275 
Q 428 1772 725 2092 
Q 1022 2413 1556 2484 
Q 1084 2569 832 2842 
Q 581 3116 581 3541 
Q 581 4103 968 4426 
Q 1356 4750 2034 4750 
Q 2713 4750 3100 4426 
Q 3488 4103 3488 3541 
Q 3488 3116 3236 2842 
Q 2984 2569 2516 2484 
z
" transform="scale(0.015625)"/>
      </defs>
      <use xlink:href="#DejaVuSerif-30"/>
      <use xlink:href="#DejaVuSerif-2e" transform="translate(63.623047 0)"/>
      <use xlink:href="#DejaVuSerif-38" transform="translate(95.410156 0)"/>
     </g>
    </g>
   </g>
   <g id="xtick_19">
    <g id="line2d_22">
     <path d="M 430.624009 134.540413 
L 436.721957 136.337227 
" style="fill: none; stroke: #000000; stroke-width: 0.8; stroke-linecap: square"/>
    </g>
    <g id="text_21">
     <!-- 1.0 -->
     <g transform="translate(441.653051 142.783817) scale(0.13 -0.13)">
      <use xlink:href="#DejaVuSerif-31"/>
      <use xlink:href="#DejaVuSerif-2e" transform="translate(63.623047 0)"/>
      <use xlink:href="#DejaVuSerif-30" transform="translate(95.410156 0)"/>
     </g>
    </g>
   </g>
   <g id="text_22">
    <!-- $P(X = n,\, t)$ -->
    <g transform="translate(478.14183 252.05245) rotate(-87.129964) scale(0.16 -0.16)">
     <defs>
      <path id="Cmmi10-50" d="M 313 0 
Q 250 0 250 84 
Q 253 100 262 139 
Q 272 178 289 201 
Q 306 225 331 225 
Q 722 225 878 269 
Q 959 297 997 441 
L 1875 3956 
Q 1888 4019 1888 4044 
Q 1888 4113 1813 4122 
Q 1691 4147 1350 4147 
Q 1288 4147 1288 4231 
Q 1291 4247 1300 4286 
Q 1309 4325 1326 4348 
Q 1344 4372 1369 4372 
L 3578 4372 
Q 3881 4372 4165 4264 
Q 4450 4156 4631 3934 
Q 4813 3713 4813 3397 
Q 4813 2991 4527 2672 
Q 4241 2353 3814 2175 
Q 3388 1997 2988 1997 
L 1947 1997 
L 1556 416 
Q 1544 353 1544 325 
Q 1544 300 1551 283 
Q 1559 266 1573 261 
Q 1588 256 1619 250 
Q 1741 225 2081 225 
Q 2144 225 2144 141 
Q 2122 50 2109 25 
Q 2097 0 2034 0 
L 313 0 
z
M 1978 2188 
L 2875 2188 
Q 3497 2188 3822 2522 
Q 3988 2688 4092 3000 
Q 4197 3313 4197 3566 
Q 4197 3881 3956 4014 
Q 3716 4147 3359 4147 
L 2747 4147 
Q 2572 4147 2515 4117 
Q 2459 4088 2413 3928 
L 1978 2188 
z
" transform="scale(0.015625)"/>
      <path id="Cmr10-28" d="M 1984 -1588 
Q 1628 -1306 1370 -942 
Q 1113 -578 948 -165 
Q 784 247 703 697 
Q 622 1147 622 1600 
Q 622 2059 703 2509 
Q 784 2959 951 3375 
Q 1119 3791 1378 4153 
Q 1638 4516 1984 4788 
Q 1984 4800 2016 4800 
L 2075 4800 
Q 2094 4800 2109 4783 
Q 2125 4766 2125 4744 
Q 2125 4716 2113 4703 
Q 1800 4397 1592 4047 
Q 1384 3697 1257 3301 
Q 1131 2906 1075 2482 
Q 1019 2059 1019 1600 
Q 1019 -434 2106 -1491 
Q 2125 -1509 2125 -1544 
Q 2125 -1559 2108 -1579 
Q 2091 -1600 2075 -1600 
L 2016 -1600 
Q 1984 -1600 1984 -1588 
z
" transform="scale(0.015625)"/>
      <path id="Cmr10-3d" d="M 481 850 
Q 428 850 393 890 
Q 359 931 359 978 
Q 359 1031 393 1068 
Q 428 1106 481 1106 
L 4500 1106 
Q 4547 1106 4581 1068 
Q 4616 1031 4616 978 
Q 4616 931 4581 890 
Q 4547 850 4500 850 
L 481 850 
z
M 481 2094 
Q 428 2094 393 2131 
Q 359 2169 359 2222 
Q 359 2269 393 2309 
Q 428 2350 481 2350 
L 4500 2350 
Q 4547 2350 4581 2309 
Q 4616 2269 4616 2222 
Q 4616 2169 4581 2131 
Q 4547 2094 4500 2094 
L 481 2094 
z
" transform="scale(0.015625)"/>
      <path id="Cmmi10-3b" d="M 634 -1153 
Q 634 -1125 659 -1100 
Q 891 -878 1019 -587 
Q 1147 -297 1147 25 
L 1147 103 
Q 1044 0 891 0 
Q 744 0 641 103 
Q 538 206 538 353 
Q 538 503 641 603 
Q 744 703 891 703 
Q 1119 703 1216 492 
Q 1313 281 1313 25 
Q 1313 -331 1170 -651 
Q 1028 -972 769 -1228 
Q 744 -1241 728 -1241 
Q 697 -1241 665 -1212 
Q 634 -1184 634 -1153 
z
" transform="scale(0.015625)"/>
      <path id="Cmr10-29" d="M 416 -1600 
Q 359 -1600 359 -1544 
Q 359 -1516 372 -1503 
Q 1466 -434 1466 1600 
Q 1466 3634 384 4691 
Q 359 4706 359 4744 
Q 359 4766 376 4783 
Q 394 4800 416 4800 
L 475 4800 
Q 494 4800 506 4788 
Q 966 4425 1272 3906 
Q 1578 3388 1720 2800 
Q 1863 2213 1863 1600 
Q 1863 1147 1786 708 
Q 1709 269 1542 -157 
Q 1375 -584 1119 -945 
Q 863 -1306 506 -1588 
Q 494 -1600 475 -1600 
L 416 -1600 
z
" transform="scale(0.015625)"/>
     </defs>
     <use xlink:href="#Cmmi10-50"/>
     <use xlink:href="#Cmr10-28" transform="translate(64.208984 0)"/>
     <use xlink:href="#Cmmi10-58" transform="translate(103.027344 0)"/>
     <use xlink:href="#Cmr10-3d" transform="translate(203.398438 0)"/>
     <use xlink:href="#Cmmi10-6e" transform="translate(298.642578 0)"/>
     <use xlink:href="#Cmmi10-3b" transform="translate(358.652344 0)"/>
     <use xlink:href="#Cmmi10-74" transform="translate(418.528938 0)"/>
     <use xlink:href="#Cmr10-29" transform="translate(454.612923 0)"/>
    </g>
   </g>
  </g>
  <g id="axes_1">
   <g id="Poly3DCollection_1">
    <path d="M 193.431623 229.59332 
L 193.396659 226.352651 
L 202.092052 217.060289 
L 210.846348 202.699193 
L 219.750521 197.360935 
L 228.752549 207.102869 
L 237.753557 223.870106 
L 246.733508 238.116304 
L 255.725048 247.059314 
L 264.752828 252.350831 
L 273.822152 256.040093 
L 282.930993 259.221172 
L 292.077462 262.284182 
L 301.260906 265.333147 
L 310.481305 268.38999 
L 319.738829 271.458528 
L 329.033695 274.539371 
L 338.366127 277.632657 
L 347.736354 280.73847 
L 357.144605 283.856887 
L 366.591112 286.987983 
L 376.07611 290.131838 
L 385.599834 293.288529 
L 395.162522 296.458134 
L 404.764412 299.640733 
L 414.405748 302.836407 
L 424.086772 306.045235 
L 424.086772 306.045235 
z
" clip-path="url(#p29fa7b79f8)" style="fill: #fde725; fill-opacity: 0.85; stroke: #000000; stroke-opacity: 0.85; stroke-width: 0.4"/>
    <path d="M 181.554266 239.353784 
L 181.509005 236.100079 
L 190.200367 226.796728 
L 198.935597 212.403392 
L 207.849886 207.069695 
L 216.909349 216.878928 
L 225.989381 233.742335 
L 235.0404 248.074045 
L 244.086815 257.080991 
L 253.158597 262.42184 
L 262.267405 266.154169 
L 271.414556 269.376464 
L 280.599341 272.480411 
L 289.821427 275.570454 
L 299.080859 278.668606 
L 308.377824 281.778701 
L 317.712543 284.901353 
L 327.085245 288.036703 
L 336.496163 291.184837 
L 345.94553 294.345832 
L 355.433584 297.519769 
L 364.960561 300.706727 
L 374.526702 303.906785 
L 384.132249 307.120026 
L 393.777446 310.346531 
L 403.462539 313.586381 
L 413.187777 316.83966 
L 413.187777 316.83966 
z
" clip-path="url(#p29fa7b79f8)" style="fill: #c8e020; fill-opacity: 0.85; stroke: #000000; stroke-opacity: 0.85; stroke-width: 0.4"/>
    <path d="M 169.519824 249.243335 
L 169.463998 245.976526 
L 178.150454 236.662701 
L 186.865328 222.237537 
L 195.789205 216.90902 
L 204.906838 226.786502 
L 214.067212 243.747163 
L 223.190404 258.1654 
L 232.292363 267.237192 
L 241.40852 272.628224 
L 250.557055 276.404447 
L 259.742724 279.668784 
L 268.966032 282.814498 
L 278.226967 285.946455 
L 287.525647 289.086759 
L 296.862273 292.239261 
L 306.237072 295.404579 
L 315.650278 298.582857 
L 325.102128 301.774182 
L 334.592859 304.978635 
L 344.122713 308.196297 
L 353.691931 311.42725 
L 363.300758 314.671577 
L 372.949441 317.92936 
L 382.638228 321.200685 
L 392.367369 324.485634 
L 402.137117 327.784295 
L 402.137117 327.784295 
z
" clip-path="url(#p29fa7b79f8)" style="fill: #90d743; fill-opacity: 0.85; stroke: #000000; stroke-opacity: 0.85; stroke-width: 0.4"/>
    <path d="M 157.325163 259.26455 
L 157.258491 255.984554 
L 165.939134 246.660753 
L 174.632315 232.204189 
L 183.565226 226.881543 
L 192.741781 236.828305 
L 201.983848 253.887336 
L 211.180342 268.393116 
L 220.338525 277.530663 
L 229.499431 282.972736 
L 238.687939 286.793699 
L 247.912333 290.100924 
L 257.174364 293.289258 
L 266.474355 296.463988 
L 275.812495 299.647311 
L 285.189001 302.843093 
L 294.604106 306.051957 
L 304.058048 309.274051 
L 313.551069 312.509462 
L 323.08341 315.758274 
L 332.655317 319.020572 
L 342.267036 322.296438 
L 351.918817 325.585957 
L 361.61091 328.889217 
L 371.343568 332.206301 
L 381.117048 335.537298 
L 390.931605 338.882296 
L 390.931605 338.882296 
z
" clip-path="url(#p29fa7b79f8)" style="fill: #5ec962; fill-opacity: 0.85; stroke: #000000; stroke-opacity: 0.85; stroke-width: 0.4"/>
    <path d="M 144.96706 269.420076 
L 144.889253 266.126732 
L 153.563136 256.793292 
L 162.233235 242.305733 
L 171.174608 236.989907 
L 180.410855 247.007269 
L 189.735999 264.165874 
L 199.006952 278.760149 
L 208.222049 287.964287 
L 217.428081 293.458227 
L 226.656805 297.324778 
L 235.920127 300.675755 
L 245.221082 303.907582 
L 254.560333 307.125969 
L 263.938142 310.3532 
L 273.354745 313.59316 
L 282.810379 316.846476 
L 292.305288 320.113296 
L 301.839717 323.393714 
L 311.413912 326.687814 
L 321.028124 329.995681 
L 330.682603 333.317403 
L 340.377604 336.653067 
L 350.113381 340.002761 
L 359.890193 343.366572 
L 369.708299 346.744592 
L 379.567963 350.13691 
L 379.567963 350.13691 
z
" clip-path="url(#p29fa7b79f8)" style="fill: #35b779; fill-opacity: 0.85; stroke: #000000; stroke-opacity: 0.85; stroke-width: 0.4"/>
    <path d="M 132.442207 279.712633 
L 132.352957 276.405417 
L 141.019072 267.061849 
L 149.664649 252.543496 
L 158.613912 247.236537 
L 167.910663 257.327079 
L 177.320306 274.5868 
L 186.66689 289.270168 
L 195.939598 298.541313 
L 205.191133 304.087724 
L 214.460313 308.00064 
L 223.762766 311.39623 
L 233.102841 314.672445 
L 242.481552 317.935394 
L 251.899239 321.207448 
L 261.356152 324.492508 
L 270.852537 327.791205 
L 280.38864 331.103692 
L 289.964712 334.430061 
L 299.581004 337.770401 
L 309.237771 341.124801 
L 318.935267 344.493348 
L 328.673752 347.876134 
L 338.453486 351.273248 
L 348.274732 354.684781 
L 358.137754 358.110826 
L 368.042819 361.551476 
L 368.042819 361.551476 
z
" clip-path="url(#p29fa7b79f8)" style="fill: #20a486; fill-opacity: 0.85; stroke: #000000; stroke-opacity: 0.85; stroke-width: 0.4"/>
    <path d="M 119.747207 290.145011 
L 119.64614 286.821733 
L 128.303324 277.463653 
L 136.922868 262.913681 
L 145.879568 257.622595 
L 155.237789 267.794611 
L 164.733409 285.158475 
L 174.156781 299.929836 
L 183.487767 309.266415 
L 192.785164 314.86479 
L 202.095033 318.824444 
L 211.436814 322.265413 
L 220.816203 325.586906 
L 230.234572 328.895344 
L 239.69234 332.21316 
L 249.189776 335.544268 
L 258.727129 338.889303 
L 268.304653 342.24842 
L 277.922601 345.621713 
L 287.58123 349.009275 
L 297.280799 352.411195 
L 307.021568 355.827565 
L 316.8038 359.258478 
L 326.627762 362.704027 
L 336.49372 366.164305 
L 346.401944 369.639406 
L 356.352707 373.129428 
L 356.352707 373.129428 
z
" clip-path="url(#p29fa7b79f8)" style="fill: #21918c; fill-opacity: 0.85; stroke: #000000; stroke-opacity: 0.85; stroke-width: 0.4"/>
    <path d="M 106.878568 300.720081 
L 106.765018 297.37085 
L 115.411466 287.975872 
L 124.003321 273.388738 
L 132.967723 268.143304 
L 142.389125 278.431203 
L 151.972358 295.908878 
L 161.473463 310.75922 
L 170.863181 320.150455 
L 180.206693 325.795144 
L 189.557447 329.799978 
L 198.938741 333.286565 
L 208.357632 336.65413 
L 217.815854 340.008988 
L 227.313905 343.373529 
L 236.852071 346.751661 
L 246.430609 350.144017 
L 256.049776 353.550754 
L 265.70983 356.971972 
L 275.411034 360.407763 
L 285.15365 363.858221 
L 294.937945 367.32344 
L 304.764186 370.803515 
L 314.632644 374.298541 
L 324.543592 377.808616 
L 334.497304 381.333835 
L 344.494058 384.874299 
L 344.494058 384.874299 
z
" clip-path="url(#p29fa7b79f8)" style="fill: #287c8e; fill-opacity: 0.85; stroke: #000000; stroke-opacity: 0.85; stroke-width: 0.4"/>
    <path d="M 93.832704 311.440789 
L 93.704541 308.019718 
L 102.33533 298.482417 
L 110.897351 283.832654 
L 119.873545 278.768682 
L 129.363596 289.325535 
L 139.036718 306.955182 
L 148.615294 321.838493 
L 158.063038 331.231651 
L 167.452343 336.893765 
L 176.843984 340.933518 
L 186.264927 344.46354 
L 195.723495 347.87746 
L 205.22176 351.279599 
L 214.760293 354.691841 
L 224.339394 358.117996 
L 233.959328 361.558684 
L 243.620358 365.014063 
L 253.322746 368.484233 
L 263.06676 371.969292 
L 272.852667 375.469334 
L 282.680738 378.984456 
L 292.551247 382.514757 
L 302.464468 386.060335 
L 312.420681 389.621288 
L 322.420164 393.197718 
L 332.463201 396.789726 
L 332.463201 396.789726 
z
" clip-path="url(#p29fa7b79f8)" style="fill: #31688e; fill-opacity: 0.85; stroke: #000000; stroke-opacity: 0.85; stroke-width: 0.4"/>
    <path d="M 80.605929 322.310165 
L 80.453243 318.594506 
L 89.047786 308.424779 
L 97.576765 293.62979 
L 106.589114 289.394872 
L 116.171576 300.894553 
L 125.939094 318.811324 
L 135.58839 333.502532 
L 145.087614 342.659805 
L 154.519589 348.212077 
L 163.951193 352.240686 
L 173.411689 355.802181 
L 182.910065 359.260649 
L 192.448551 362.710586 
L 202.027757 366.17148 
L 211.647996 369.64668 
L 221.309535 373.13674 
L 231.012644 376.641809 
L 240.757591 380.161991 
L 250.544646 383.697383 
L 260.374083 387.248086 
L 270.246179 390.814198 
L 280.161212 394.39582 
L 290.119461 397.993053 
L 300.121212 401.606001 
L 310.166748 405.234765 
L 320.256359 408.87945 
L 320.256359 408.87945 
z
" clip-path="url(#p29fa7b79f8)" style="fill: #3b528b; fill-opacity: 0.85; stroke: #000000; stroke-opacity: 0.85; stroke-width: 0.4"/>
    <path d="M 67.194452 333.331323 
L 66.958476 328.06334 
L 75.418801 315.016649 
L 83.932519 300.374148 
L 93.117929 300.267432 
L 102.889857 315.2774 
L 112.750245 333.547038 
L 122.428694 346.918137 
L 131.947854 354.897062 
L 141.408719 359.889962 
L 150.876139 363.756843 
L 160.375347 367.311957 
L 169.913517 370.80807 
L 179.49238 374.305522 
L 189.112447 377.815933 
L 198.774019 381.341218 
L 208.47737 384.881717 
L 218.22277 388.437556 
L 228.010495 392.008838 
L 237.840821 395.595663 
L 247.714026 399.198134 
L 257.630391 402.816353 
L 267.590201 406.450424 
L 277.59374 410.100451 
L 287.641299 413.766539 
L 297.733168 417.448794 
L 307.86964 421.147325 
L 307.86964 421.147325 
z
" clip-path="url(#p29fa7b79f8)" style="fill: #443983; fill-opacity: 0.85; stroke: #000000; stroke-opacity: 0.85; stroke-width: 0.4"/>
    <path d="M 53.594378 344.507464 
L 52.749408 327.110743 
L 60.790795 304.960854 
L 69.858873 302.572785 
L 79.841107 320.696683 
L 89.897253 341.571201 
L 99.655488 355.535632 
L 109.191199 363.304416 
L 118.651785 368.097783 
L 128.117183 371.902199 
L 137.614869 375.464874 
L 147.151908 378.99023 
L 156.729889 382.521969 
L 166.349286 386.067745 
L 176.010397 389.628748 
L 185.713496 393.205212 
L 195.458858 396.797252 
L 205.24676 400.404972 
L 215.07748 404.028475 
L 224.951301 407.667864 
L 234.868507 411.323243 
L 244.829383 414.99472 
L 254.83422 418.6824 
L 264.883308 422.386391 
L 274.976943 426.1068 
L 285.11542 429.843739 
L 295.29904 433.597316 
L 295.29904 433.597316 
z
" clip-path="url(#p29fa7b79f8)" style="fill: #481f70; fill-opacity: 0.85; stroke: #000000; stroke-opacity: 0.85; stroke-width: 0.4"/>
    <path d="M 39.8017 355.841882 
L 30.665437 181.563952 
L 49.015278 359.272856 
L 58.268158 362.718466 
L 67.560595 366.178805 
L 76.89284 369.653969 
L 86.265152 373.144053 
L 95.677789 376.649153 
L 105.131011 380.169366 
L 114.625081 383.704791 
L 124.160265 387.255526 
L 133.736831 390.82167 
L 143.355048 394.403325 
L 153.015189 398.000591 
L 162.717528 401.613571 
L 172.462343 405.242369 
L 182.249912 408.887087 
L 192.080519 412.547832 
L 201.954448 416.224709 
L 211.871985 419.917825 
L 221.83342 423.627288 
L 231.839046 427.353207 
L 241.889156 431.095691 
L 251.984049 434.854851 
L 262.124024 438.630799 
L 272.309383 442.423648 
L 282.540433 446.233511 
L 282.540433 446.233511 
z
" clip-path="url(#p29fa7b79f8)" style="fill: #440154; fill-opacity: 0.85; stroke: #000000; stroke-opacity: 0.85; stroke-width: 0.4"/>
   </g>
   <g id="text_23">
    <!-- FSP solution:  $\varnothing \to X,\;\; 2X \to \varnothing$,  $N_{\max} = 25$  (adequate) -->
    <g transform="translate(7.2 20.12) scale(0.17 -0.17)">
     <defs>
      <path id="DejaVuSerif-46" d="M 353 0 
L 353 331 
L 947 331 
L 947 4331 
L 353 4331 
L 353 4666 
L 4172 4666 
L 4172 3628 
L 3788 3628 
L 3788 4281 
L 1581 4281 
L 1581 2719 
L 3175 2719 
L 3175 3303 
L 3559 3303 
L 3559 1753 
L 3175 1753 
L 3175 2338 
L 1581 2338 
L 1581 331 
L 2328 331 
L 2328 0 
L 353 0 
z
" transform="scale(0.015625)"/>
      <path id="DejaVuSerif-53" d="M 594 225 
L 594 1288 
L 953 1284 
Q 969 753 1261 498 
Q 1553 244 2150 244 
Q 2706 244 2998 464 
Q 3291 684 3291 1106 
Q 3291 1444 3114 1625 
Q 2938 1806 2369 1978 
L 1753 2163 
Q 1084 2366 811 2669 
Q 538 2972 538 3500 
Q 538 4094 959 4422 
Q 1381 4750 2144 4750 
Q 2469 4750 2856 4679 
Q 3244 4609 3681 4475 
L 3681 3481 
L 3328 3481 
Q 3275 3975 2998 4195 
Q 2722 4416 2156 4416 
Q 1663 4416 1405 4214 
Q 1147 4013 1147 3628 
Q 1147 3294 1340 3103 
Q 1534 2913 2163 2725 
L 2741 2553 
Q 3375 2363 3645 2067 
Q 3916 1772 3916 1275 
Q 3916 597 3481 253 
Q 3047 -91 2188 -91 
Q 1803 -91 1404 -12 
Q 1006 66 594 225 
z
" transform="scale(0.015625)"/>
      <path id="DejaVuSerif-50" d="M 1581 2375 
L 2406 2375 
Q 2872 2375 3115 2626 
Q 3359 2878 3359 3353 
Q 3359 3831 3115 4081 
Q 2872 4331 2406 4331 
L 1581 4331 
L 1581 2375 
z
M 353 0 
L 353 331 
L 947 331 
L 947 4331 
L 353 4331 
L 353 4666 
L 2559 4666 
Q 3259 4666 3668 4311 
Q 4078 3956 4078 3353 
Q 4078 2753 3668 2397 
Q 3259 2041 2559 2041 
L 1581 2041 
L 1581 331 
L 2303 331 
L 2303 0 
L 353 0 
z
" transform="scale(0.015625)"/>
      <path id="DejaVuSerif-73" d="M 359 184 
L 359 959 
L 691 959 
Q 703 588 923 403 
Q 1144 219 1575 219 
Q 1963 219 2166 364 
Q 2369 509 2369 788 
Q 2369 1006 2220 1140 
Q 2072 1275 1594 1428 
L 1178 1569 
Q 750 1706 558 1912 
Q 366 2119 366 2438 
Q 366 2894 700 3153 
Q 1034 3413 1625 3413 
Q 1888 3413 2178 3344 
Q 2469 3275 2778 3144 
L 2778 2419 
L 2447 2419 
Q 2434 2741 2221 2922 
Q 2009 3103 1644 3103 
Q 1281 3103 1095 2975 
Q 909 2847 909 2591 
Q 909 2381 1050 2254 
Q 1191 2128 1613 1997 
L 2069 1856 
Q 2541 1709 2748 1489 
Q 2956 1269 2956 922 
Q 2956 450 2595 179 
Q 2234 -91 1600 -91 
Q 1278 -91 972 -22 
Q 666 47 359 184 
z
" transform="scale(0.015625)"/>
      <path id="DejaVuSerif-6c" d="M 1313 331 
L 1856 331 
L 1856 0 
L 184 0 
L 184 331 
L 738 331 
L 738 4531 
L 184 4531 
L 184 4863 
L 1313 4863 
L 1313 331 
z
" transform="scale(0.015625)"/>
      <path id="DejaVuSerif-3a" d="M 666 325 
Q 666 500 786 622 
Q 906 744 1081 744 
Q 1256 744 1376 622 
Q 1497 500 1497 325 
Q 1497 150 1378 29 
Q 1259 -91 1081 -91 
Q 903 -91 784 29 
Q 666 150 666 325 
z
M 666 2363 
Q 666 2538 786 2658 
Q 906 2778 1081 2778 
Q 1259 2778 1378 2659 
Q 1497 2541 1497 2363 
Q 1497 2184 1378 2065 
Q 1259 1947 1081 1947 
Q 906 1947 786 2067 
Q 666 2188 666 2363 
z
" transform="scale(0.015625)"/>
      <path id="STIXGeneral-Regular-2205" d="M 4512 3731 
L 3949 3085 
Q 4557 2458 4557 1613 
Q 4557 742 3933 118 
Q 3309 -506 2438 -506 
Q 1754 -506 1178 -83 
L 806 -506 
L 365 -506 
L 922 134 
Q 320 749 320 1613 
Q 320 2483 944 3107 
Q 1568 3731 2438 3731 
Q 3098 3731 3699 3309 
L 4070 3731 
L 4512 3731 
z
M 3680 2778 
L 1453 230 
Q 1894 -83 2438 -83 
Q 3142 -83 3638 416 
Q 4134 915 4134 1619 
Q 4134 2272 3680 2778 
z
M 1203 454 
L 3418 2982 
Q 3270 3123 2985 3216 
Q 2701 3309 2438 3309 
Q 1734 3309 1238 2816 
Q 742 2323 742 1619 
Q 742 928 1203 454 
z
" transform="scale(0.015625)"/>
      <path id="Cmsy10-21" d="M 481 1472 
Q 428 1472 393 1512 
Q 359 1553 359 1600 
Q 359 1647 393 1687 
Q 428 1728 481 1728 
L 5338 1728 
Q 5094 1903 4906 2133 
Q 4719 2363 4594 2627 
Q 4469 2891 4416 3188 
Q 4416 3272 4481 3272 
L 4609 3272 
Q 4631 3272 4648 3253 
Q 4666 3234 4672 3213 
Q 4725 2938 4839 2702 
Q 4953 2466 5125 2262 
Q 5297 2059 5509 1912 
Q 5722 1766 5991 1672 
Q 6034 1644 6034 1600 
Q 6034 1550 5991 1538 
Q 5656 1422 5378 1192 
Q 5100 963 4919 652 
Q 4738 341 4672 -13 
Q 4666 -34 4647 -53 
Q 4628 -72 4609 -72 
L 4481 -72 
Q 4416 -72 4416 13 
Q 4497 450 4740 836 
Q 4984 1222 5338 1472 
L 481 1472 
z
" transform="scale(0.015625)"/>
      <path id="Cmr10-32" d="M 319 0 
L 319 172 
Q 319 188 331 206 
L 1325 1306 
Q 1550 1550 1690 1715 
Q 1831 1881 1968 2097 
Q 2106 2313 2186 2536 
Q 2266 2759 2266 3009 
Q 2266 3272 2169 3511 
Q 2072 3750 1880 3894 
Q 1688 4038 1416 4038 
Q 1138 4038 916 3870 
Q 694 3703 603 3438 
Q 628 3444 672 3444 
Q 816 3444 917 3347 
Q 1019 3250 1019 3097 
Q 1019 2950 917 2848 
Q 816 2747 672 2747 
Q 522 2747 420 2851 
Q 319 2956 319 3097 
Q 319 3338 409 3548 
Q 500 3759 670 3923 
Q 841 4088 1055 4175 
Q 1269 4263 1509 4263 
Q 1875 4263 2190 4108 
Q 2506 3953 2690 3670 
Q 2875 3388 2875 3009 
Q 2875 2731 2753 2481 
Q 2631 2231 2440 2026 
Q 2250 1822 1953 1562 
Q 1656 1303 1563 1216 
L 838 519 
L 1453 519 
Q 1906 519 2211 526 
Q 2516 534 2534 550 
Q 2609 631 2688 1141 
L 2875 1141 
L 2694 0 
L 319 0 
z
" transform="scale(0.015625)"/>
      <path id="DejaVuSerif-2c" d="M 231 -622 
Q 525 -406 662 -114 
Q 800 178 800 594 
L 800 709 
L 1416 709 
Q 1391 175 1164 -208 
Q 938 -591 481 -872 
L 231 -622 
z
" transform="scale(0.015625)"/>
      <path id="Cmmi10-4e" d="M 300 0 
Q 238 0 238 84 
Q 241 100 250 139 
Q 259 178 276 201 
Q 294 225 319 225 
Q 931 225 1031 616 
L 1900 4116 
Q 1722 4147 1338 4147 
Q 1275 4147 1275 4231 
Q 1278 4247 1287 4286 
Q 1297 4325 1314 4348 
Q 1331 4372 1356 4372 
L 2463 4372 
Q 2509 4372 2522 4331 
L 3944 947 
L 4653 3781 
Q 4666 3850 4666 3878 
Q 4666 4147 4172 4147 
Q 4109 4147 4109 4231 
Q 4131 4313 4143 4342 
Q 4156 4372 4219 4372 
L 5588 4372 
Q 5650 4372 5650 4288 
Q 5647 4272 5637 4233 
Q 5628 4194 5611 4170 
Q 5594 4147 5569 4147 
Q 4956 4147 4856 3756 
L 3938 56 
Q 3916 0 3872 0 
L 3794 0 
Q 3750 0 3738 44 
L 2106 3916 
L 2094 3956 
Q 2081 3969 2081 3975 
L 1234 588 
Q 1228 572 1225 548 
Q 1222 525 1216 494 
Q 1216 328 1359 276 
Q 1503 225 1716 225 
Q 1778 225 1778 141 
Q 1756 53 1740 26 
Q 1725 0 1672 0 
L 300 0 
z
" transform="scale(0.015625)"/>
      <path id="Cmr10-6d" d="M 191 0 
L 191 225 
Q 409 225 550 259 
Q 691 294 691 428 
L 691 2175 
Q 691 2347 639 2423 
Q 588 2500 491 2517 
Q 394 2534 191 2534 
L 191 2759 
L 1119 2828 
L 1119 2203 
Q 1247 2478 1498 2653 
Q 1750 2828 2047 2828 
Q 2784 2828 2913 2228 
Q 3041 2497 3287 2662 
Q 3534 2828 3828 2828 
Q 4119 2828 4317 2734 
Q 4516 2641 4616 2448 
Q 4716 2256 4716 1966 
L 4716 428 
Q 4716 294 4858 259 
Q 5000 225 5216 225 
L 5216 0 
L 3750 0 
L 3750 225 
Q 3969 225 4109 259 
Q 4250 294 4250 428 
L 4250 1947 
Q 4250 2269 4159 2466 
Q 4069 2663 3788 2663 
Q 3419 2663 3178 2366 
Q 2938 2069 2938 1691 
L 2938 428 
Q 2938 294 3078 259 
Q 3219 225 3438 225 
L 3438 0 
L 1972 0 
L 1972 225 
Q 2191 225 2331 259 
Q 2472 294 2472 428 
L 2472 1947 
Q 2472 2259 2381 2461 
Q 2291 2663 2009 2663 
Q 1638 2663 1398 2366 
Q 1159 2069 1159 1691 
L 1159 428 
Q 1159 294 1300 259 
Q 1441 225 1656 225 
L 1656 0 
L 191 0 
z
" transform="scale(0.015625)"/>
      <path id="Cmr10-61" d="M 256 628 
Q 256 1009 556 1248 
Q 856 1488 1276 1586 
Q 1697 1684 2075 1684 
L 2075 1947 
Q 2075 2131 1994 2304 
Q 1913 2478 1759 2589 
Q 1606 2700 1422 2700 
Q 997 2700 775 2509 
Q 897 2509 976 2417 
Q 1056 2325 1056 2203 
Q 1056 2075 965 1984 
Q 875 1894 750 1894 
Q 622 1894 531 1984 
Q 441 2075 441 2203 
Q 441 2541 747 2705 
Q 1053 2869 1422 2869 
Q 1681 2869 1943 2758 
Q 2206 2647 2373 2440 
Q 2541 2234 2541 1959 
L 2541 519 
Q 2541 394 2594 289 
Q 2647 184 2759 184 
Q 2866 184 2917 290 
Q 2969 397 2969 519 
L 2969 928 
L 3156 928 
L 3156 519 
Q 3156 375 3081 245 
Q 3006 116 2879 39 
Q 2753 -38 2606 -38 
Q 2419 -38 2283 107 
Q 2147 253 2131 453 
Q 2013 213 1781 70 
Q 1550 -72 1288 -72 
Q 1044 -72 808 0 
Q 572 72 414 226 
Q 256 381 256 628 
z
M 775 628 
Q 775 403 940 250 
Q 1106 97 1331 97 
Q 1538 97 1706 200 
Q 1875 303 1975 481 
Q 2075 659 2075 856 
L 2075 1522 
Q 1784 1522 1479 1426 
Q 1175 1331 975 1128 
Q 775 925 775 628 
z
" transform="scale(0.015625)"/>
      <path id="Cmr10-78" d="M 78 0 
L 78 225 
Q 322 225 537 320 
Q 753 416 903 603 
L 1484 1344 
L 728 2328 
Q 616 2469 483 2501 
Q 350 2534 109 2534 
L 109 2759 
L 1441 2759 
L 1441 2534 
Q 1356 2534 1282 2496 
Q 1209 2459 1209 2388 
Q 1209 2363 1228 2328 
L 1741 1663 
L 2125 2156 
Q 2203 2250 2203 2344 
Q 2203 2422 2151 2478 
Q 2100 2534 2016 2534 
L 2016 2759 
L 3194 2759 
L 3194 2534 
Q 2947 2534 2730 2439 
Q 2513 2344 2363 2156 
L 1856 1509 
L 2675 428 
Q 2797 288 2928 256 
Q 3059 225 3303 225 
L 3303 0 
L 1972 0 
L 1972 225 
Q 2050 225 2122 262 
Q 2194 300 2194 372 
Q 2194 400 2175 428 
L 1600 1191 
L 1141 603 
Q 1069 522 1069 416 
Q 1069 338 1122 281 
Q 1175 225 1247 225 
L 1247 0 
L 78 0 
z
" transform="scale(0.015625)"/>
      <path id="Cmr10-35" d="M 556 728 
Q 622 541 758 387 
Q 894 234 1080 148 
Q 1266 63 1466 63 
Q 1928 63 2103 422 
Q 2278 781 2278 1294 
Q 2278 1516 2270 1667 
Q 2263 1819 2228 1959 
Q 2169 2184 2020 2353 
Q 1872 2522 1656 2522 
Q 1441 2522 1286 2456 
Q 1131 2391 1034 2303 
Q 938 2216 863 2119 
Q 788 2022 769 2016 
L 697 2016 
Q 681 2016 657 2036 
Q 634 2056 634 2075 
L 634 4213 
Q 634 4228 654 4245 
Q 675 4263 697 4263 
L 716 4263 
Q 1147 4056 1631 4056 
Q 2106 4056 2547 4263 
L 2566 4263 
Q 2588 4263 2606 4247 
Q 2625 4231 2625 4213 
L 2625 4153 
Q 2625 4122 2613 4122 
Q 2394 3831 2064 3668 
Q 1734 3506 1381 3506 
Q 1125 3506 856 3578 
L 856 2369 
Q 1069 2541 1236 2614 
Q 1403 2688 1663 2688 
Q 2016 2688 2295 2484 
Q 2575 2281 2725 1954 
Q 2875 1628 2875 1288 
Q 2875 903 2686 575 
Q 2497 247 2172 53 
Q 1847 -141 1466 -141 
Q 1150 -141 886 21 
Q 622 184 470 459 
Q 319 734 319 1044 
Q 319 1188 412 1278 
Q 506 1369 647 1369 
Q 788 1369 883 1276 
Q 978 1184 978 1044 
Q 978 906 883 811 
Q 788 716 647 716 
Q 625 716 597 720 
Q 569 725 556 728 
z
" transform="scale(0.015625)"/>
      <path id="DejaVuSerif-61" d="M 2547 1044 
L 2547 1747 
L 1806 1747 
Q 1378 1747 1168 1562 
Q 959 1378 959 997 
Q 959 650 1171 447 
Q 1384 244 1747 244 
Q 2106 244 2326 466 
Q 2547 688 2547 1044 
z
M 3122 2075 
L 3122 331 
L 3634 331 
L 3634 0 
L 2547 0 
L 2547 359 
Q 2356 128 2106 18 
Q 1856 -91 1522 -91 
Q 969 -91 644 203 
Q 319 497 319 997 
Q 319 1513 691 1797 
Q 1063 2081 1741 2081 
L 2547 2081 
L 2547 2309 
Q 2547 2688 2317 2895 
Q 2088 3103 1672 3103 
Q 1328 3103 1125 2947 
Q 922 2791 872 2484 
L 575 2484 
L 575 3156 
Q 875 3284 1158 3348 
Q 1441 3413 1709 3413 
Q 2400 3413 2761 3070 
Q 3122 2728 3122 2075 
z
" transform="scale(0.015625)"/>
      <path id="DejaVuSerif-64" d="M 3359 331 
L 3909 331 
L 3909 0 
L 2784 0 
L 2784 519 
Q 2616 206 2355 57 
Q 2094 -91 1709 -91 
Q 1097 -91 708 395 
Q 319 881 319 1663 
Q 319 2444 706 2928 
Q 1094 3413 1709 3413 
Q 2094 3413 2355 3264 
Q 2616 3116 2784 2803 
L 2784 4531 
L 2241 4531 
L 2241 4863 
L 3359 4863 
L 3359 331 
z
M 2784 1497 
L 2784 1825 
Q 2784 2422 2554 2737 
Q 2325 3053 1888 3053 
Q 1444 3053 1217 2703 
Q 991 2353 991 1663 
Q 991 975 1217 622 
Q 1444 269 1888 269 
Q 2325 269 2554 583 
Q 2784 897 2784 1497 
z
" transform="scale(0.015625)"/>
      <path id="DejaVuSerif-71" d="M 3359 2988 
L 3359 -997 
L 3909 -997 
L 3909 -1331 
L 2241 -1331 
L 2241 -997 
L 2784 -997 
L 2784 519 
Q 2616 206 2355 57 
Q 2094 -91 1709 -91 
Q 1097 -91 708 395 
Q 319 881 319 1663 
Q 319 2444 706 2928 
Q 1094 3413 1709 3413 
Q 2094 3413 2355 3264 
Q 2616 3116 2784 2803 
L 2784 3322 
L 3909 3322 
L 3909 2988 
L 3359 2988 
z
M 2784 1825 
Q 2784 2422 2554 2737 
Q 2325 3053 1888 3053 
Q 1444 3053 1217 2703 
Q 991 2353 991 1663 
Q 991 975 1217 622 
Q 1444 269 1888 269 
Q 2325 269 2554 583 
Q 2784 897 2784 1497 
L 2784 1825 
z
" transform="scale(0.015625)"/>
     </defs>
     <use xlink:href="#DejaVuSerif-46" transform="translate(0 0.015625)"/>
     <use xlink:href="#DejaVuSerif-53" transform="translate(69.384766 0.015625)"/>
     <use xlink:href="#DejaVuSerif-50" transform="translate(137.890625 0.015625)"/>
     <use xlink:href="#DejaVuSerif-20" transform="translate(205.175781 0.015625)"/>
     <use xlink:href="#DejaVuSerif-73" transform="translate(236.962891 0.015625)"/>
     <use xlink:href="#DejaVuSerif-6f" transform="translate(288.28125 0.015625)"/>
     <use xlink:href="#DejaVuSerif-6c" transform="translate(348.486328 0.015625)"/>
     <use xlink:href="#DejaVuSerif-75" transform="translate(380.46875 0.015625)"/>
     <use xlink:href="#DejaVuSerif-74" transform="translate(444.873047 0.015625)"/>
     <use xlink:href="#DejaVuSerif-69" transform="translate(485.058594 0.015625)"/>
     <use xlink:href="#DejaVuSerif-6f" transform="translate(517.041016 0.015625)"/>
     <use xlink:href="#DejaVuSerif-6e" transform="translate(577.246094 0.015625)"/>
     <use xlink:href="#DejaVuSerif-3a" transform="translate(641.650391 0.015625)"/>
     <use xlink:href="#DejaVuSerif-20" transform="translate(675.341797 0.015625)"/>
     <use xlink:href="#DejaVuSerif-20" transform="translate(707.128906 0.015625)"/>
     <use xlink:href="#STIXGeneral-Regular-2205" transform="translate(738.916016 0.015625)"/>
     <use xlink:href="#Cmsy10-21" transform="translate(832.674591 0.015625)"/>
     <use xlink:href="#Cmmi10-58" transform="translate(950.233185 0.015625)"/>
     <use xlink:href="#Cmmi10-3b" transform="translate(1033.045685 0.015625)"/>
     <use xlink:href="#Cmr10-32" transform="translate(1127.064087 0.015625)"/>
     <use xlink:href="#Cmmi10-58" transform="translate(1177.064087 0.015625)"/>
     <use xlink:href="#Cmsy10-21" transform="translate(1277.435181 0.015625)"/>
     <use xlink:href="#STIXGeneral-Regular-2205" transform="translate(1394.993775 0.015625)"/>
     <use xlink:href="#DejaVuSerif-2c" transform="translate(1471.193756 0.015625)"/>
     <use xlink:href="#DejaVuSerif-20" transform="translate(1502.980866 0.015625)"/>
     <use xlink:href="#DejaVuSerif-20" transform="translate(1534.767975 0.015625)"/>
     <use xlink:href="#Cmmi10-4e" transform="translate(1566.555084 0.015625)"/>
     <use xlink:href="#Cmr10-6d" transform="translate(1646.87735 -16.990625) scale(0.7)"/>
     <use xlink:href="#Cmr10-61" transform="translate(1705.187897 -16.990625) scale(0.7)"/>
     <use xlink:href="#Cmr10-78" transform="translate(1740.187897 -16.990625) scale(0.7)"/>
     <use xlink:href="#Cmr10-3d" transform="translate(1801.003717 0.015625)"/>
     <use xlink:href="#Cmr10-32" transform="translate(1896.247858 0.015625)"/>
     <use xlink:href="#Cmr10-35" transform="translate(1946.247858 0.015625)"/>
     <use xlink:href="#DejaVuSerif-20" transform="translate(1996.247858 0.015625)"/>
     <use xlink:href="#DejaVuSerif-20" transform="translate(2028.034967 0.015625)"/>
     <use xlink:href="#DejaVuSerif-28" transform="translate(2059.822077 0.015625)"/>
     <use xlink:href="#DejaVuSerif-61" transform="translate(2098.835749 0.015625)"/>
     <use xlink:href="#DejaVuSerif-64" transform="translate(2158.454889 0.015625)"/>
     <use xlink:href="#DejaVuSerif-65" transform="translate(2222.468561 0.015625)"/>
     <use xlink:href="#DejaVuSerif-71" transform="translate(2281.648249 0.015625)"/>
     <use xlink:href="#DejaVuSerif-75" transform="translate(2345.66192 0.015625)"/>
     <use xlink:href="#DejaVuSerif-61" transform="translate(2410.066217 0.015625)"/>
     <use xlink:href="#DejaVuSerif-74" transform="translate(2469.685358 0.015625)"/>
     <use xlink:href="#DejaVuSerif-65" transform="translate(2509.870905 0.015625)"/>
     <use xlink:href="#DejaVuSerif-29" transform="translate(2569.050592 0.015625)"/>
    </g>
   </g>
  </g>
 </g>
 <defs>
  <clipPath id="p29fa7b79f8">
   <rect x="7.205" y="26.12" width="443.52" height="443.52"/>
  </clipPath>
 </defs>
</svg>
