<?xml version="1.0" encoding="utf-8" standalone="no"?>
<!DOCTYPE svg PUBLIC "-//W3C//DTD SVG 1.1//EN"
  "http://www.w3.org/Graphics/SVG/1.1/DTD/svg11.dtd">
<svg xmlns:xlink="http://www.w3.org/1999/xlink" width="997.705312pt" height="307.482563pt" viewBox="0 0 997.705312 307.482563" xmlns="http://www.w3.org/2000/svg" version="1.1">
 <metadata>
  <rdf:RDF xmlns:dc="http://purl.org/dc/elements/1.1/" xmlns:cc="http://creativecommons.org/ns#" xmlns:rdf="http://www.w3.org/1999/02/22-rdf-syntax-ns#">
   <cc:Work>
    <dc:type rdf:resource="http://purl.org/dc/dcmitype/StillImage"/>
    <dc:date>2026-06-06T12:40:54.873555</dc:date>
    <dc:format>image/svg+xml</dc:format>
    <dc:creator>
     <cc:Agent>
      <dc:title>Matplotlib v3.10.8, https://matplotlib.org/</dc:title>
     </cc:Agent>
    </dc:creator>
   </cc:Work>
  </rdf:RDF>
 </metadata>
 <defs>
  <style type="text/css">*{stroke-linejoin: round; stroke-linecap: butt}</style>
 </defs>
 <g id="figure_1">
  <g id="patch_1">
   <path d="M 0 307.482563 
L 997.705312 307.482563 
L 997.705312 0 
L 0 0 
z
" style="fill: #ffffff"/>
  </g>
  <g id="axes_1">
   <g id="patch_2">
    <path d="M 63.145313 261.216 
L 278.810429 261.216 
L 278.810429 55.584 
L 63.145313 55.584 
z
" style="fill: #ffffff"/>
   </g>
   <g id="patch_3">
    <path d="M 68.245501 261.216 
L 81.360272 261.216 
L 81.360272 190.523084 
L 68.245501 190.523084 
z
" clip-path="url(#p0c12c78607)" style="fill: #0072bd; opacity: 0.55"/>
   </g>
   <g id="patch_4">
    <path d="M 82.817468 261.216 
L 95.932239 261.216 
L 95.932239 88.158547 
L 82.817468 88.158547 
z
" clip-path="url(#p0c12c78607)" style="fill: #0072bd; opacity: 0.55"/>
   </g>
   <g id="patch_5">
    <path d="M 97.389436 261.216 
L 110.504206 261.216 
L 110.504206 65.376 
L 97.389436 65.376 
z
" clip-path="url(#p0c12c78607)" style="fill: #0072bd; opacity: 0.55"/>
   </g>
   <g id="patch_6">
    <path d="M 111.961403 261.216 
L 125.076174 261.216 
L 125.076174 124.153173 
L 111.961403 124.153173 
z
" clip-path="url(#p0c12c78607)" style="fill: #0072bd; opacity: 0.55"/>
   </g>
   <g id="patch_7">
    <path d="M 126.53337 261.216 
L 139.648141 261.216 
L 139.648141 194.256968 
L 126.53337 194.256968 
z
" clip-path="url(#p0c12c78607)" style="fill: #0072bd; opacity: 0.55"/>
   </g>
   <g id="patch_8">
    <path d="M 141.105338 261.216 
L 154.220108 261.216 
L 154.220108 236.78484 
L 141.105338 236.78484 
z
" clip-path="url(#p0c12c78607)" style="fill: #0072bd; opacity: 0.55"/>
   </g>
   <g id="patch_9">
    <path d="M 155.677305 261.216 
L 168.792076 261.216 
L 168.792076 254.260471 
L 155.677305 254.260471 
z
" clip-path="url(#p0c12c78607)" style="fill: #0072bd; opacity: 0.55"/>
   </g>
   <g id="patch_10">
    <path d="M 170.249272 261.216 
L 183.364043 261.216 
L 183.364043 259.622289 
L 170.249272 259.622289 
z
" clip-path="url(#p0c12c78607)" style="fill: #0072bd; opacity: 0.55"/>
   </g>
   <g id="patch_11">
    <path d="M 184.82124 261.216 
L 197.93601 261.216 
L 197.93601 260.9152 
L 184.82124 260.9152 
z
" clip-path="url(#p0c12c78607)" style="fill: #0072bd; opacity: 0.55"/>
   </g>
   <g id="patch_12">
    <path d="M 199.393207 261.216 
L 212.507977 261.216 
L 212.507977 261.168374 
L 199.393207 261.168374 
z
" clip-path="url(#p0c12c78607)" style="fill: #0072bd; opacity: 0.55"/>
   </g>
   <g id="patch_13">
    <path d="M 213.965174 261.216 
L 227.079945 261.216 
L 227.079945 261.20958 
L 213.965174 261.20958 
z
" clip-path="url(#p0c12c78607)" style="fill: #0072bd; opacity: 0.55"/>
   </g>
   <g id="patch_14">
    <path d="M 228.537142 261.216 
L 241.651912 261.216 
L 241.651912 261.215254 
L 228.537142 261.215254 
z
" clip-path="url(#p0c12c78607)" style="fill: #0072bd; opacity: 0.55"/>
   </g>
   <g id="patch_15">
    <path d="M 243.109109 261.216 
L 256.223879 261.216 
L 256.223879 261.215925 
L 243.109109 261.215925 
z
" clip-path="url(#p0c12c78607)" style="fill: #0072bd; opacity: 0.55"/>
   </g>
   <g id="patch_16">
    <path d="M 257.681076 261.216 
L 270.795847 261.216 
L 270.795847 261.215993 
L 257.681076 261.215993 
z
" clip-path="url(#p0c12c78607)" style="fill: #0072bd; opacity: 0.55"/>
   </g>
   <g id="patch_17">
    <path d="M 272.253043 261.216 
L 285.367814 261.216 
L 285.367814 261.215999 
L 272.253043 261.215999 
z
" clip-path="url(#p0c12c78607)" style="fill: #0072bd; opacity: 0.55"/>
   </g>
   <g id="patch_18">
    <path d="M 286.825011 261.216 
L 299.939781 261.216 
L 299.939781 261.216 
L 286.825011 261.216 
z
" clip-path="url(#p0c12c78607)" style="fill: #0072bd; opacity: 0.55"/>
   </g>
   <g id="patch_19">
    <path d="M 301.396978 261.216 
L 314.511749 261.216 
L 314.511749 261.216 
L 301.396978 261.216 
z
" clip-path="url(#p0c12c78607)" style="fill: #0072bd; opacity: 0.55"/>
   </g>
   <g id="patch_20">
    <path d="M 315.968945 261.216 
L 329.083716 261.216 
L 329.083716 261.216 
L 315.968945 261.216 
z
" clip-path="url(#p0c12c78607)" style="fill: #0072bd; opacity: 0.55"/>
   </g>
   <g id="patch_21">
    <path d="M 330.540913 261.216 
L 343.655683 261.216 
L 343.655683 261.216 
L 330.540913 261.216 
z
" clip-path="url(#p0c12c78607)" style="fill: #0072bd; opacity: 0.55"/>
   </g>
   <g id="patch_22">
    <path d="M 345.11288 261.216 
L 358.227651 261.216 
L 358.227651 261.216 
L 345.11288 261.216 
z
" clip-path="url(#p0c12c78607)" style="fill: #0072bd; opacity: 0.55"/>
   </g>
   <g id="patch_23">
    <path d="M 359.684847 261.216 
L 372.799618 261.216 
L 372.799618 261.216 
L 359.684847 261.216 
z
" clip-path="url(#p0c12c78607)" style="fill: #0072bd; opacity: 0.55"/>
   </g>
   <g id="patch_24">
    <path d="M 374.256815 261.216 
L 387.371585 261.216 
L 387.371585 261.216 
L 374.256815 261.216 
z
" clip-path="url(#p0c12c78607)" style="fill: #0072bd; opacity: 0.55"/>
   </g>
   <g id="patch_25">
    <path d="M 388.828782 261.216 
L 401.943553 261.216 
L 401.943553 261.216 
L 388.828782 261.216 
z
" clip-path="url(#p0c12c78607)" style="fill: #0072bd; opacity: 0.55"/>
   </g>
   <g id="patch_26">
    <path d="M 403.400749 261.216 
L 416.51552 261.216 
L 416.51552 261.216 
L 403.400749 261.216 
z
" clip-path="url(#p0c12c78607)" style="fill: #0072bd; opacity: 0.55"/>
   </g>
   <g id="patch_27">
    <path d="M 417.972717 261.216 
L 431.087487 261.216 
L 431.087487 261.216 
L 417.972717 261.216 
z
" clip-path="url(#p0c12c78607)" style="fill: #0072bd; opacity: 0.55"/>
   </g>
   <g id="patch_28">
    <path d="M 432.544684 261.216 
L 445.659455 261.216 
L 445.659455 261.216 
L 432.544684 261.216 
z
" clip-path="url(#p0c12c78607)" style="fill: #0072bd; opacity: 0.55"/>
   </g>
   <g id="patch_29">
    <path d="M 70.795595 261.216 
L 78.810177 261.216 
L 78.810177 190.544871 
L 70.795595 190.544871 
z
" clip-path="url(#p0c12c78607)" style="fill: #d95319; opacity: 0.75"/>
   </g>
   <g id="patch_30">
    <path d="M 85.367563 261.216 
L 93.382145 261.216 
L 93.382145 88.225355 
L 85.367563 88.225355 
z
" clip-path="url(#p0c12c78607)" style="fill: #d95319; opacity: 0.75"/>
   </g>
   <g id="patch_31">
    <path d="M 99.93953 261.216 
L 107.954112 261.216 
L 107.954112 66.104295 
L 99.93953 66.104295 
z
" clip-path="url(#p0c12c78607)" style="fill: #d95319; opacity: 0.75"/>
   </g>
   <g id="patch_32">
    <path d="M 114.511497 261.216 
L 122.526079 261.216 
L 122.526079 124.888468 
L 114.511497 124.888468 
z
" clip-path="url(#p0c12c78607)" style="fill: #d95319; opacity: 0.75"/>
   </g>
   <g id="patch_33">
    <path d="M 129.083465 261.216 
L 137.098047 261.216 
L 137.098047 197.834491 
L 129.083465 197.834491 
z
" clip-path="url(#p0c12c78607)" style="fill: #d95319; opacity: 0.75"/>
   </g>
   <g id="patch_34">
    <path d="M 143.655432 261.216 
L 151.670014 261.216 
L 151.670014 238.626538 
L 143.655432 238.626538 
z
" clip-path="url(#p0c12c78607)" style="fill: #d95319; opacity: 0.75"/>
   </g>
   <g id="matplotlib.axis_1">
    <g id="xtick_1">
     <g id="line2d_1">
      <defs>
       <path id="md26ecb4712" d="M 0 0 
L 0 3.5 
" style="stroke: #000000; stroke-width: 0.8"/>
      </defs>
      <g>
       <use xlink:href="#md26ecb4712" x="74.802886" y="261.216" style="stroke: #000000; stroke-width: 0.8"/>
      </g>
     </g>
     <g id="text_1">
      <!-- 0 -->
      <g transform="translate(70.667261 278.093969) scale(0.13 -0.13)">
       <defs>
        <path id="DejaVuSerif-30" d="M 2034 219 
Q 2513 219 2750 744 
Q 2988 1269 2988 2328 
Q 2988 3391 2750 3916 
Q 2513 4441 2034 4441 
Q 1556 4441 1318 3916 
Q 1081 3391 1081 2328 
Q 1081 1269 1318 744 
Q 1556 219 2034 219 
z
M 2034 -91 
Q 1275 -91 848 546 
Q 422 1184 422 2328 
Q 422 3475 848 4112 
Q 1275 4750 2034 4750 
Q 2797 4750 3222 4112 
Q 3647 3475 3647 2328 
Q 3647 1184 3222 546 
Q 2797 -91 2034 -91 
z
" transform="scale(0.015625)"/>
       </defs>
       <use xlink:href="#DejaVuSerif-30"/>
      </g>
     </g>
    </g>
    <g id="xtick_2">
     <g id="line2d_2">
      <g>
       <use xlink:href="#md26ecb4712" x="147.662723" y="261.216" style="stroke: #000000; stroke-width: 0.8"/>
      </g>
     </g>
     <g id="text_2">
      <!-- 5 -->
      <g transform="translate(143.527098 278.093969) scale(0.13 -0.13)">
       <defs>
        <path id="DejaVuSerif-35" d="M 3219 4666 
L 3219 4153 
L 1081 4153 
L 1081 2816 
Q 1244 2928 1461 2984 
Q 1678 3041 1947 3041 
Q 2703 3041 3140 2622 
Q 3578 2203 3578 1478 
Q 3578 738 3136 323 
Q 2694 -91 1894 -91 
Q 1572 -91 1234 -12 
Q 897 66 544 225 
L 544 1131 
L 897 1131 
Q 925 688 1179 453 
Q 1434 219 1894 219 
Q 2388 219 2653 544 
Q 2919 869 2919 1478 
Q 2919 2084 2655 2407 
Q 2391 2731 1894 2731 
Q 1613 2731 1398 2631 
Q 1184 2531 1019 2322 
L 750 2322 
L 750 4666 
L 3219 4666 
z
" transform="scale(0.015625)"/>
       </defs>
       <use xlink:href="#DejaVuSerif-35"/>
      </g>
     </g>
    </g>
    <g id="xtick_3">
     <g id="line2d_3">
      <g>
       <use xlink:href="#md26ecb4712" x="220.52256" y="261.216" style="stroke: #000000; stroke-width: 0.8"/>
      </g>
     </g>
     <g id="text_3">
      <!-- 10 -->
      <g transform="translate(212.25131 278.093969) scale(0.13 -0.13)">
       <defs>
        <path id="DejaVuSerif-31" d="M 909 0 
L 909 331 
L 1722 331 
L 1722 4213 
L 781 3603 
L 781 4013 
L 1919 4750 
L 2350 4750 
L 2350 331 
L 3163 331 
L 3163 0 
L 909 0 
z
" transform="scale(0.015625)"/>
       </defs>
       <use xlink:href="#DejaVuSerif-31"/>
       <use xlink:href="#DejaVuSerif-30" transform="translate(63.623047 0)"/>
      </g>
     </g>
    </g>
    <g id="text_4">
     <!-- $n$ -->
     <g transform="translate(166.097871 296.955063) scale(0.16 -0.16)">
      <defs>
       <path id="Cmmi10-6e" d="M 494 109 
Q 494 147 500 166 
L 978 2075 
Q 1025 2253 1025 2388 
Q 1025 2663 838 2663 
Q 638 2663 541 2423 
Q 444 2184 353 1819 
Q 353 1800 334 1789 
Q 316 1778 300 1778 
L 225 1778 
Q 203 1778 187 1801 
Q 172 1825 172 1844 
Q 241 2122 305 2315 
Q 369 2509 505 2668 
Q 641 2828 844 2828 
Q 1084 2828 1268 2676 
Q 1453 2525 1453 2291 
Q 1644 2541 1900 2684 
Q 2156 2828 2444 2828 
Q 2672 2828 2837 2750 
Q 3003 2672 3095 2514 
Q 3188 2356 3188 2138 
Q 3188 1875 3070 1503 
Q 2953 1131 2778 672 
Q 2688 463 2688 288 
Q 2688 97 2834 97 
Q 3084 97 3251 365 
Q 3419 634 3488 941 
Q 3500 978 3541 978 
L 3616 978 
Q 3641 978 3658 962 
Q 3675 947 3675 922 
Q 3675 916 3669 903 
Q 3581 541 3364 234 
Q 3147 -72 2822 -72 
Q 2597 -72 2437 83 
Q 2278 238 2278 459 
Q 2278 578 2328 709 
Q 2409 919 2514 1209 
Q 2619 1500 2686 1765 
Q 2753 2031 2753 2234 
Q 2753 2413 2679 2538 
Q 2606 2663 2431 2663 
Q 2197 2663 2000 2559 
Q 1803 2456 1656 2286 
Q 1509 2116 1388 1881 
L 953 141 
Q 931 53 854 -9 
Q 778 -72 684 -72 
Q 606 -72 550 -22 
Q 494 28 494 109 
z
" transform="scale(0.015625)"/>
      </defs>
      <use xlink:href="#Cmmi10-6e" transform="translate(0 0.8125)"/>
     </g>
    </g>
   </g>
   <g id="matplotlib.axis_2">
    <g id="ytick_1">
     <g id="line2d_4">
      <defs>
       <path id="m36a5b7c607" d="M 0 0 
L -3.5 0 
" style="stroke: #000000; stroke-width: 0.8"/>
      </defs>
      <g>
       <use xlink:href="#m36a5b7c607" x="63.145313" y="261.216" style="stroke: #000000; stroke-width: 0.8"/>
      </g>
     </g>
     <g id="text_5">
      <!-- 0.00 -->
      <g transform="translate(27.2 266.154984) scale(0.13 -0.13)">
       <defs>
        <path id="DejaVuSerif-2e" d="M 603 325 
Q 603 500 722 622 
Q 841 744 1019 744 
Q 1191 744 1312 622 
Q 1434 500 1434 325 
Q 1434 153 1312 31 
Q 1191 -91 1019 -91 
Q 841 -91 722 29 
Q 603 150 603 325 
z
" transform="scale(0.015625)"/>
       </defs>
       <use xlink:href="#DejaVuSerif-30"/>
       <use xlink:href="#DejaVuSerif-2e" transform="translate(63.623047 0)"/>
       <use xlink:href="#DejaVuSerif-30" transform="translate(95.410156 0)"/>
       <use xlink:href="#DejaVuSerif-30" transform="translate(159.033203 0)"/>
      </g>
     </g>
    </g>
    <g id="ytick_2">
     <g id="line2d_5">
      <g>
       <use xlink:href="#m36a5b7c607" x="63.145313" y="227.368585" style="stroke: #000000; stroke-width: 0.8"/>
      </g>
     </g>
     <g id="text_6">
      <!-- 0.05 -->
      <g transform="translate(27.2 232.307569) scale(0.13 -0.13)">
       <use xlink:href="#DejaVuSerif-30"/>
       <use xlink:href="#DejaVuSerif-2e" transform="translate(63.623047 0)"/>
       <use xlink:href="#DejaVuSerif-30" transform="translate(95.410156 0)"/>
       <use xlink:href="#DejaVuSerif-35" transform="translate(159.033203 0)"/>
      </g>
     </g>
    </g>
    <g id="ytick_3">
     <g id="line2d_6">
      <g>
       <use xlink:href="#m36a5b7c607" x="63.145313" y="193.52117" style="stroke: #000000; stroke-width: 0.8"/>
      </g>
     </g>
     <g id="text_7">
      <!-- 0.10 -->
      <g transform="translate(27.2 198.460154) scale(0.13 -0.13)">
       <use xlink:href="#DejaVuSerif-30"/>
       <use xlink:href="#DejaVuSerif-2e" transform="translate(63.623047 0)"/>
       <use xlink:href="#DejaVuSerif-31" transform="translate(95.410156 0)"/>
       <use xlink:href="#DejaVuSerif-30" transform="translate(159.033203 0)"/>
      </g>
     </g>
    </g>
    <g id="ytick_4">
     <g id="line2d_7">
      <g>
       <use xlink:href="#m36a5b7c607" x="63.145313" y="159.673755" style="stroke: #000000; stroke-width: 0.8"/>
      </g>
     </g>
     <g id="text_8">
      <!-- 0.15 -->
      <g transform="translate(27.2 164.612739) scale(0.13 -0.13)">
       <use xlink:href="#DejaVuSerif-30"/>
       <use xlink:href="#DejaVuSerif-2e" transform="translate(63.623047 0)"/>
       <use xlink:href="#DejaVuSerif-31" transform="translate(95.410156 0)"/>
       <use xlink:href="#DejaVuSerif-35" transform="translate(159.033203 0)"/>
      </g>
     </g>
    </g>
    <g id="ytick_5">
     <g id="line2d_8">
      <g>
       <use xlink:href="#m36a5b7c607" x="63.145313" y="125.82634" style="stroke: #000000; stroke-width: 0.8"/>
      </g>
     </g>
     <g id="text_9">
      <!-- 0.20 -->
      <g transform="translate(27.2 130.765324) scale(0.13 -0.13)">
       <defs>
        <path id="DejaVuSerif-32" d="M 819 3553 
L 469 3553 
L 469 4384 
Q 803 4563 1142 4656 
Q 1481 4750 1806 4750 
Q 2534 4750 2956 4397 
Q 3378 4044 3378 3438 
Q 3378 2753 2422 1800 
Q 2347 1728 2309 1691 
L 1131 513 
L 3078 513 
L 3078 1088 
L 3444 1088 
L 3444 0 
L 434 0 
L 434 341 
L 1850 1753 
Q 2319 2222 2519 2614 
Q 2719 3006 2719 3438 
Q 2719 3909 2473 4175 
Q 2228 4441 1797 4441 
Q 1350 4441 1106 4219 
Q 863 3997 819 3553 
z
" transform="scale(0.015625)"/>
       </defs>
       <use xlink:href="#DejaVuSerif-30"/>
       <use xlink:href="#DejaVuSerif-2e" transform="translate(63.623047 0)"/>
       <use xlink:href="#DejaVuSerif-32" transform="translate(95.410156 0)"/>
       <use xlink:href="#DejaVuSerif-30" transform="translate(159.033203 0)"/>
      </g>
     </g>
    </g>
    <g id="ytick_6">
     <g id="line2d_9">
      <g>
       <use xlink:href="#m36a5b7c607" x="63.145313" y="91.978925" style="stroke: #000000; stroke-width: 0.8"/>
      </g>
     </g>
     <g id="text_10">
      <!-- 0.25 -->
      <g transform="translate(27.2 96.917909) scale(0.13 -0.13)">
       <use xlink:href="#DejaVuSerif-30"/>
       <use xlink:href="#DejaVuSerif-2e" transform="translate(63.623047 0)"/>
       <use xlink:href="#DejaVuSerif-32" transform="translate(95.410156 0)"/>
       <use xlink:href="#DejaVuSerif-35" transform="translate(159.033203 0)"/>
      </g>
     </g>
    </g>
    <g id="ytick_7">
     <g id="line2d_10">
      <g>
       <use xlink:href="#m36a5b7c607" x="63.145313" y="58.131509" style="stroke: #000000; stroke-width: 0.8"/>
      </g>
     </g>
     <g id="text_11">
      <!-- 0.30 -->
      <g transform="translate(27.2 63.070494) scale(0.13 -0.13)">
       <defs>
        <path id="DejaVuSerif-33" d="M 622 4469 
Q 988 4606 1323 4678 
Q 1659 4750 1953 4750 
Q 2638 4750 3022 4454 
Q 3406 4159 3406 3634 
Q 3406 3213 3140 2930 
Q 2875 2647 2388 2547 
Q 2963 2466 3280 2130 
Q 3597 1794 3597 1259 
Q 3597 606 3158 257 
Q 2719 -91 1894 -91 
Q 1528 -91 1179 -12 
Q 831 66 488 225 
L 488 1131 
L 838 1131 
Q 869 681 1141 450 
Q 1413 219 1906 219 
Q 2384 219 2661 495 
Q 2938 772 2938 1253 
Q 2938 1803 2653 2086 
Q 2369 2369 1819 2369 
L 1522 2369 
L 1522 2688 
L 1678 2688 
Q 2225 2688 2498 2914 
Q 2772 3141 2772 3597 
Q 2772 4006 2547 4223 
Q 2322 4441 1900 4441 
Q 1478 4441 1245 4241 
Q 1013 4041 972 3647 
L 622 3647 
L 622 4469 
z
" transform="scale(0.015625)"/>
       </defs>
       <use xlink:href="#DejaVuSerif-30"/>
       <use xlink:href="#DejaVuSerif-2e" transform="translate(63.623047 0)"/>
       <use xlink:href="#DejaVuSerif-33" transform="translate(95.410156 0)"/>
       <use xlink:href="#DejaVuSerif-30" transform="translate(159.033203 0)"/>
      </g>
     </g>
    </g>
    <g id="text_12">
     <!-- $P(X = n,\, t)$ -->
     <g transform="translate(19.2 197.92) rotate(-90) scale(0.16 -0.16)">
      <defs>
       <path id="Cmmi10-50" d="M 313 0 
Q 250 0 250 84 
Q 253 100 262 139 
Q 272 178 289 201 
Q 306 225 331 225 
Q 722 225 878 269 
Q 959 297 997 441 
L 1875 3956 
Q 1888 4019 1888 4044 
Q 1888 4113 1813 4122 
Q 1691 4147 1350 4147 
Q 1288 4147 1288 4231 
Q 1291 4247 1300 4286 
Q 1309 4325 1326 4348 
Q 1344 4372 1369 4372 
L 3578 4372 
Q 3881 4372 4165 4264 
Q 4450 4156 4631 3934 
Q 4813 3713 4813 3397 
Q 4813 2991 4527 2672 
Q 4241 2353 3814 2175 
Q 3388 1997 2988 1997 
L 1947 1997 
L 1556 416 
Q 1544 353 1544 325 
Q 1544 300 1551 283 
Q 1559 266 1573 261 
Q 1588 256 1619 250 
Q 1741 225 2081 225 
Q 2144 225 2144 141 
Q 2122 50 2109 25 
Q 2097 0 2034 0 
L 313 0 
z
M 1978 2188 
L 2875 2188 
Q 3497 2188 3822 2522 
Q 3988 2688 4092 3000 
Q 4197 3313 4197 3566 
Q 4197 3881 3956 4014 
Q 3716 4147 3359 4147 
L 2747 4147 
Q 2572 4147 2515 4117 
Q 2459 4088 2413 3928 
L 1978 2188 
z
" transform="scale(0.015625)"/>
       <path id="Cmr10-28" d="M 1984 -1588 
Q 1628 -1306 1370 -942 
Q 1113 -578 948 -165 
Q 784 247 703 697 
Q 622 1147 622 1600 
Q 622 2059 703 2509 
Q 784 2959 951 3375 
Q 1119 3791 1378 4153 
Q 1638 4516 1984 4788 
Q 1984 4800 2016 4800 
L 2075 4800 
Q 2094 4800 2109 4783 
Q 2125 4766 2125 4744 
Q 2125 4716 2113 4703 
Q 1800 4397 1592 4047 
Q 1384 3697 1257 3301 
Q 1131 2906 1075 2482 
Q 1019 2059 1019 1600 
Q 1019 -434 2106 -1491 
Q 2125 -1509 2125 -1544 
Q 2125 -1559 2108 -1579 
Q 2091 -1600 2075 -1600 
L 2016 -1600 
Q 1984 -1600 1984 -1588 
z
" transform="scale(0.015625)"/>
       <path id="Cmmi10-58" d="M 231 0 
Q 166 0 166 84 
Q 169 100 180 140 
Q 191 181 208 203 
Q 225 225 256 225 
Q 838 225 1253 659 
Q 1259 666 1267 669 
Q 1275 672 1275 672 
L 2675 2181 
L 1913 4019 
Q 1847 4103 1700 4125 
Q 1553 4147 1356 4147 
Q 1294 4147 1294 4231 
Q 1316 4313 1328 4342 
Q 1341 4372 1403 4372 
L 3003 4372 
Q 3066 4372 3066 4288 
Q 3063 4272 3052 4231 
Q 3041 4191 3023 4169 
Q 3006 4147 2975 4147 
Q 2856 4147 2729 4108 
Q 2603 4069 2553 3981 
L 3103 2656 
L 4153 3781 
Q 4163 3803 4197 3858 
Q 4231 3913 4231 3963 
Q 4231 4056 4150 4101 
Q 4069 4147 3956 4147 
Q 3891 4147 3891 4231 
Q 3913 4313 3925 4342 
Q 3938 4372 4000 4372 
L 5388 4372 
Q 5422 4372 5437 4347 
Q 5453 4322 5453 4288 
Q 5450 4272 5440 4234 
Q 5431 4197 5415 4172 
Q 5400 4147 5369 4147 
Q 5072 4147 4823 4039 
Q 4575 3931 4366 3713 
Q 4363 3709 4358 3707 
Q 4353 3706 4347 3700 
L 3188 2450 
L 4063 353 
Q 4166 225 4622 225 
Q 4684 225 4684 141 
Q 4663 56 4648 28 
Q 4634 0 4575 0 
L 2975 0 
Q 2913 0 2913 84 
Q 2916 100 2925 139 
Q 2934 178 2951 201 
Q 2969 225 2994 225 
Q 3119 225 3247 264 
Q 3375 303 3425 391 
L 2759 1984 
L 1466 588 
Q 1456 566 1422 512 
Q 1388 459 1388 409 
Q 1388 316 1475 270 
Q 1563 225 1663 225 
Q 1728 225 1728 141 
Q 1706 50 1693 25 
Q 1681 0 1619 0 
L 231 0 
z
" transform="scale(0.015625)"/>
       <path id="Cmr10-3d" d="M 481 850 
Q 428 850 393 890 
Q 359 931 359 978 
Q 359 1031 393 1068 
Q 428 1106 481 1106 
L 4500 1106 
Q 4547 1106 4581 1068 
Q 4616 1031 4616 978 
Q 4616 931 4581 890 
Q 4547 850 4500 850 
L 481 850 
z
M 481 2094 
Q 428 2094 393 2131 
Q 359 2169 359 2222 
Q 359 2269 393 2309 
Q 428 2350 481 2350 
L 4500 2350 
Q 4547 2350 4581 2309 
Q 4616 2269 4616 2222 
Q 4616 2169 4581 2131 
Q 4547 2094 4500 2094 
L 481 2094 
z
" transform="scale(0.015625)"/>
       <path id="Cmmi10-3b" d="M 634 -1153 
Q 634 -1125 659 -1100 
Q 891 -878 1019 -587 
Q 1147 -297 1147 25 
L 1147 103 
Q 1044 0 891 0 
Q 744 0 641 103 
Q 538 206 538 353 
Q 538 503 641 603 
Q 744 703 891 703 
Q 1119 703 1216 492 
Q 1313 281 1313 25 
Q 1313 -331 1170 -651 
Q 1028 -972 769 -1228 
Q 744 -1241 728 -1241 
Q 697 -1241 665 -1212 
Q 634 -1184 634 -1153 
z
" transform="scale(0.015625)"/>
       <path id="Cmmi10-74" d="M 397 519 
Q 397 613 416 697 
L 878 2534 
L 206 2534 
Q 141 2534 141 2619 
Q 166 2759 225 2759 
L 934 2759 
L 1191 3803 
Q 1216 3888 1291 3947 
Q 1366 4006 1459 4006 
Q 1541 4006 1595 3957 
Q 1650 3909 1650 3828 
Q 1650 3809 1648 3798 
Q 1647 3788 1644 3775 
L 1388 2759 
L 2047 2759 
Q 2113 2759 2113 2675 
Q 2109 2659 2100 2621 
Q 2091 2584 2075 2559 
Q 2059 2534 2028 2534 
L 1331 2534 
L 872 684 
Q 825 503 825 372 
Q 825 97 1013 97 
Q 1294 97 1511 361 
Q 1728 625 1844 941 
Q 1869 978 1894 978 
L 1972 978 
Q 1997 978 2012 961 
Q 2028 944 2028 922 
Q 2028 909 2022 903 
Q 1881 516 1612 222 
Q 1344 -72 997 -72 
Q 744 -72 570 93 
Q 397 259 397 519 
z
" transform="scale(0.015625)"/>
       <path id="Cmr10-29" d="M 416 -1600 
Q 359 -1600 359 -1544 
Q 359 -1516 372 -1503 
Q 1466 -434 1466 1600 
Q 1466 3634 384 4691 
Q 359 4706 359 4744 
Q 359 4766 376 4783 
Q 394 4800 416 4800 
L 475 4800 
Q 494 4800 506 4788 
Q 966 4425 1272 3906 
Q 1578 3388 1720 2800 
Q 1863 2213 1863 1600 
Q 1863 1147 1786 708 
Q 1709 269 1542 -157 
Q 1375 -584 1119 -945 
Q 863 -1306 506 -1588 
Q 494 -1600 475 -1600 
L 416 -1600 
z
" transform="scale(0.015625)"/>
      </defs>
      <use xlink:href="#Cmmi10-50"/>
      <use xlink:href="#Cmr10-28" transform="translate(64.208984 0)"/>
      <use xlink:href="#Cmmi10-58" transform="translate(103.027344 0)"/>
      <use xlink:href="#Cmr10-3d" transform="translate(203.398438 0)"/>
      <use xlink:href="#Cmmi10-6e" transform="translate(298.642578 0)"/>
      <use xlink:href="#Cmmi10-3b" transform="translate(358.652344 0)"/>
      <use xlink:href="#Cmmi10-74" transform="translate(418.528938 0)"/>
      <use xlink:href="#Cmr10-29" transform="translate(454.612923 0)"/>
     </g>
    </g>
   </g>
   <g id="patch_35">
    <path d="M 63.145313 261.216 
L 63.145313 55.584 
" style="fill: none; stroke: #000000; stroke-width: 0.8; stroke-linejoin: miter; stroke-linecap: square"/>
   </g>
   <g id="patch_36">
    <path d="M 63.145312 261.216 
L 278.810429 261.216 
" style="fill: none; stroke: #000000; stroke-width: 0.8; stroke-linejoin: miter; stroke-linecap: square"/>
   </g>
   <g id="text_13">
    <g id="patch_37">
     <path d="M 214.440475 78.543725 
L 272.340475 78.543725 
Q 275.340475 78.543725 275.340475 75.543725 
L 275.340475 65.8656 
Q 275.340475 62.8656 272.340475 62.8656 
L 214.440475 62.8656 
Q 211.440475 62.8656 211.440475 65.8656 
L 211.440475 75.543725 
Q 211.440475 78.543725 214.440475 78.543725 
z
" style="fill: #ffffff; opacity: 0.85; stroke: #d95319; stroke-linejoin: miter"/>
    </g>
    <!-- leak $= 2.3$% -->
    <g style="fill: #d95319" transform="translate(214.440475 73.464037) scale(0.1 -0.1)">
     <defs>
      <path id="DejaVuSerif-6c" d="M 1313 331 
L 1856 331 
L 1856 0 
L 184 0 
L 184 331 
L 738 331 
L 738 4531 
L 184 4531 
L 184 4863 
L 1313 4863 
L 1313 331 
z
" transform="scale(0.015625)"/>
      <path id="DejaVuSerif-65" d="M 3469 1600 
L 991 1600 
L 991 1575 
Q 991 903 1244 561 
Q 1497 219 1991 219 
Q 2369 219 2611 417 
Q 2853 616 2950 1006 
L 3413 1006 
Q 3275 459 2904 184 
Q 2534 -91 1931 -91 
Q 1203 -91 761 389 
Q 319 869 319 1663 
Q 319 2450 753 2931 
Q 1188 3413 1894 3413 
Q 2647 3413 3050 2948 
Q 3453 2484 3469 1600 
z
M 2791 1931 
Q 2772 2513 2545 2808 
Q 2319 3103 1894 3103 
Q 1497 3103 1269 2806 
Q 1041 2509 991 1931 
L 2791 1931 
z
" transform="scale(0.015625)"/>
      <path id="DejaVuSerif-61" d="M 2547 1044 
L 2547 1747 
L 1806 1747 
Q 1378 1747 1168 1562 
Q 959 1378 959 997 
Q 959 650 1171 447 
Q 1384 244 1747 244 
Q 2106 244 2326 466 
Q 2547 688 2547 1044 
z
M 3122 2075 
L 3122 331 
L 3634 331 
L 3634 0 
L 2547 0 
L 2547 359 
Q 2356 128 2106 18 
Q 1856 -91 1522 -91 
Q 969 -91 644 203 
Q 319 497 319 997 
Q 319 1513 691 1797 
Q 1063 2081 1741 2081 
L 2547 2081 
L 2547 2309 
Q 2547 2688 2317 2895 
Q 2088 3103 1672 3103 
Q 1328 3103 1125 2947 
Q 922 2791 872 2484 
L 575 2484 
L 575 3156 
Q 875 3284 1158 3348 
Q 1441 3413 1709 3413 
Q 2400 3413 2761 3070 
Q 3122 2728 3122 2075 
z
" transform="scale(0.015625)"/>
      <path id="DejaVuSerif-6b" d="M 1831 0 
L 219 0 
L 219 331 
L 738 331 
L 738 4531 
L 184 4531 
L 184 4863 
L 1313 4863 
L 1313 1697 
L 2713 2988 
L 2234 2988 
L 2234 3322 
L 3738 3322 
L 3738 2988 
L 3169 2988 
L 2181 2075 
L 3444 331 
L 3922 331 
L 3922 0 
L 2284 0 
L 2284 331 
L 2759 331 
L 1766 1697 
L 1313 1275 
L 1313 331 
L 1831 331 
L 1831 0 
z
" transform="scale(0.015625)"/>
      <path id="DejaVuSerif-20" transform="scale(0.015625)"/>
      <path id="Cmr10-32" d="M 319 0 
L 319 172 
Q 319 188 331 206 
L 1325 1306 
Q 1550 1550 1690 1715 
Q 1831 1881 1968 2097 
Q 2106 2313 2186 2536 
Q 2266 2759 2266 3009 
Q 2266 3272 2169 3511 
Q 2072 3750 1880 3894 
Q 1688 4038 1416 4038 
Q 1138 4038 916 3870 
Q 694 3703 603 3438 
Q 628 3444 672 3444 
Q 816 3444 917 3347 
Q 1019 3250 1019 3097 
Q 1019 2950 917 2848 
Q 816 2747 672 2747 
Q 522 2747 420 2851 
Q 319 2956 319 3097 
Q 319 3338 409 3548 
Q 500 3759 670 3923 
Q 841 4088 1055 4175 
Q 1269 4263 1509 4263 
Q 1875 4263 2190 4108 
Q 2506 3953 2690 3670 
Q 2875 3388 2875 3009 
Q 2875 2731 2753 2481 
Q 2631 2231 2440 2026 
Q 2250 1822 1953 1562 
Q 1656 1303 1563 1216 
L 838 519 
L 1453 519 
Q 1906 519 2211 526 
Q 2516 534 2534 550 
Q 2609 631 2688 1141 
L 2875 1141 
L 2694 0 
L 319 0 
z
" transform="scale(0.015625)"/>
      <path id="Cmmi10-3a" d="M 538 353 
Q 538 497 644 600 
Q 750 703 891 703 
Q 978 703 1062 656 
Q 1147 609 1194 525 
Q 1241 441 1241 353 
Q 1241 213 1137 106 
Q 1034 0 891 0 
Q 750 0 644 106 
Q 538 213 538 353 
z
" transform="scale(0.015625)"/>
      <path id="Cmr10-33" d="M 609 494 
Q 759 275 1012 169 
Q 1266 63 1556 63 
Q 1928 63 2084 380 
Q 2241 697 2241 1100 
Q 2241 1281 2208 1462 
Q 2175 1644 2097 1800 
Q 2019 1956 1883 2050 
Q 1747 2144 1550 2144 
L 1125 2144 
Q 1069 2144 1069 2203 
L 1069 2259 
Q 1069 2309 1125 2309 
L 1478 2338 
Q 1703 2338 1851 2506 
Q 2000 2675 2069 2917 
Q 2138 3159 2138 3378 
Q 2138 3684 1994 3881 
Q 1850 4078 1556 4078 
Q 1313 4078 1091 3986 
Q 869 3894 738 3706 
Q 750 3709 759 3711 
Q 769 3713 781 3713 
Q 925 3713 1022 3613 
Q 1119 3513 1119 3372 
Q 1119 3234 1022 3134 
Q 925 3034 781 3034 
Q 641 3034 541 3134 
Q 441 3234 441 3372 
Q 441 3647 606 3850 
Q 772 4053 1033 4158 
Q 1294 4263 1556 4263 
Q 1750 4263 1965 4205 
Q 2181 4147 2356 4039 
Q 2531 3931 2642 3762 
Q 2753 3594 2753 3378 
Q 2753 3109 2633 2881 
Q 2513 2653 2303 2487 
Q 2094 2322 1844 2241 
Q 2122 2188 2372 2031 
Q 2622 1875 2773 1631 
Q 2925 1388 2925 1106 
Q 2925 753 2731 467 
Q 2538 181 2222 20 
Q 1906 -141 1556 -141 
Q 1256 -141 954 -26 
Q 653 88 461 316 
Q 269 544 269 863 
Q 269 1022 375 1128 
Q 481 1234 641 1234 
Q 744 1234 830 1186 
Q 916 1138 964 1050 
Q 1013 963 1013 863 
Q 1013 706 903 600 
Q 794 494 641 494 
L 609 494 
z
" transform="scale(0.015625)"/>
      <path id="DejaVuSerif-25" d="M 1434 4459 
Q 1159 4459 1004 4200 
Q 850 3941 850 3475 
Q 850 3016 1008 2753 
Q 1166 2491 1434 2491 
Q 1700 2491 1854 2752 
Q 2009 3013 2009 3475 
Q 2009 3938 1854 4198 
Q 1700 4459 1434 4459 
z
M 4653 2169 
Q 4381 2169 4226 1906 
Q 4072 1644 4072 1178 
Q 4072 719 4228 458 
Q 4384 197 4653 197 
Q 4922 197 5075 458 
Q 5228 719 5228 1178 
Q 5228 1641 5073 1905 
Q 4919 2169 4653 2169 
z
M 4653 2450 
Q 5147 2450 5437 2106 
Q 5728 1763 5728 1178 
Q 5728 594 5436 251 
Q 5144 -91 4653 -91 
Q 4153 -91 3862 251 
Q 3572 594 3572 1178 
Q 3572 1766 3864 2108 
Q 4156 2450 4653 2450 
z
M 4263 4750 
L 4738 4750 
L 1819 -91 
L 1344 -91 
L 4263 4750 
z
M 1428 4750 
Q 1922 4750 2215 4408 
Q 2509 4066 2509 3481 
Q 2509 2891 2217 2550 
Q 1925 2209 1428 2209 
Q 931 2209 642 2551 
Q 353 2894 353 3481 
Q 353 4063 643 4406 
Q 934 4750 1428 4750 
z
" transform="scale(0.015625)"/>
     </defs>
     <use xlink:href="#DejaVuSerif-6c" transform="translate(0 0.015625)"/>
     <use xlink:href="#DejaVuSerif-65" transform="translate(31.982422 0.015625)"/>
     <use xlink:href="#DejaVuSerif-61" transform="translate(91.162109 0.015625)"/>
     <use xlink:href="#DejaVuSerif-6b" transform="translate(150.78125 0.015625)"/>
     <use xlink:href="#DejaVuSerif-20" transform="translate(211.376953 0.015625)"/>
     <use xlink:href="#Cmr10-3d" transform="translate(260.722656 0.015625)"/>
     <use xlink:href="#Cmr10-32" transform="translate(355.966797 0.015625)"/>
     <use xlink:href="#Cmmi10-3a" transform="translate(405.966797 0.015625)"/>
     <use xlink:href="#Cmr10-33" transform="translate(433.652344 0.015625)"/>
     <use xlink:href="#DejaVuSerif-25" transform="translate(483.652344 0.015625)"/>
    </g>
   </g>
   <g id="text_14">
    <!-- $t = 0.5$ -->
    <g transform="translate(152.972871 49.584) scale(0.13 -0.13)">
     <defs>
      <path id="Cmr10-30" d="M 1600 -141 
Q 816 -141 533 504 
Q 250 1150 250 2041 
Q 250 2597 351 3087 
Q 453 3578 754 3920 
Q 1056 4263 1600 4263 
Q 2022 4263 2290 4056 
Q 2559 3850 2700 3523 
Q 2841 3197 2892 2823 
Q 2944 2450 2944 2041 
Q 2944 1491 2842 1011 
Q 2741 531 2444 195 
Q 2147 -141 1600 -141 
z
M 1600 25 
Q 1956 25 2131 390 
Q 2306 756 2347 1200 
Q 2388 1644 2388 2144 
Q 2388 2625 2347 3031 
Q 2306 3438 2132 3767 
Q 1959 4097 1600 4097 
Q 1238 4097 1063 3765 
Q 888 3434 847 3029 
Q 806 2625 806 2144 
Q 806 1788 823 1472 
Q 841 1156 916 820 
Q 991 484 1158 254 
Q 1325 25 1600 25 
z
" transform="scale(0.015625)"/>
      <path id="Cmr10-35" d="M 556 728 
Q 622 541 758 387 
Q 894 234 1080 148 
Q 1266 63 1466 63 
Q 1928 63 2103 422 
Q 2278 781 2278 1294 
Q 2278 1516 2270 1667 
Q 2263 1819 2228 1959 
Q 2169 2184 2020 2353 
Q 1872 2522 1656 2522 
Q 1441 2522 1286 2456 
Q 1131 2391 1034 2303 
Q 938 2216 863 2119 
Q 788 2022 769 2016 
L 697 2016 
Q 681 2016 657 2036 
Q 634 2056 634 2075 
L 634 4213 
Q 634 4228 654 4245 
Q 675 4263 697 4263 
L 716 4263 
Q 1147 4056 1631 4056 
Q 2106 4056 2547 4263 
L 2566 4263 
Q 2588 4263 2606 4247 
Q 2625 4231 2625 4213 
L 2625 4153 
Q 2625 4122 2613 4122 
Q 2394 3831 2064 3668 
Q 1734 3506 1381 3506 
Q 1125 3506 856 3578 
L 856 2369 
Q 1069 2541 1236 2614 
Q 1403 2688 1663 2688 
Q 2016 2688 2295 2484 
Q 2575 2281 2725 1954 
Q 2875 1628 2875 1288 
Q 2875 903 2686 575 
Q 2497 247 2172 53 
Q 1847 -141 1466 -141 
Q 1150 -141 886 21 
Q 622 184 470 459 
Q 319 734 319 1044 
Q 319 1188 412 1278 
Q 506 1369 647 1369 
Q 788 1369 883 1276 
Q 978 1184 978 1044 
Q 978 906 883 811 
Q 788 716 647 716 
Q 625 716 597 720 
Q 569 725 556 728 
z
" transform="scale(0.015625)"/>
     </defs>
     <use xlink:href="#Cmmi10-74" transform="translate(0 0.390625)"/>
     <use xlink:href="#Cmr10-3d" transform="translate(53.642578 0.390625)"/>
     <use xlink:href="#Cmr10-30" transform="translate(148.886719 0.390625)"/>
     <use xlink:href="#Cmmi10-3a" transform="translate(198.886719 0.390625)"/>
     <use xlink:href="#Cmr10-35" transform="translate(226.572266 0.390625)"/>
    </g>
   </g>
   <g id="legend_1">
    <g id="patch_38">
     <path d="M 70.145313 92.94025 
L 145.145312 92.94025 
Q 147.145312 92.94025 147.145312 90.94025 
L 147.145312 62.584 
Q 147.145312 60.584 145.145312 60.584 
L 70.145313 60.584 
Q 68.145313 60.584 68.145313 62.584 
L 68.145313 90.94025 
Q 68.145313 92.94025 70.145313 92.94025 
z
" style="fill: #ffffff; opacity: 0.95; stroke: #cccccc; stroke-linejoin: miter"/>
    </g>
    <g id="patch_39">
     <path d="M 72.145313 72.182438 
L 92.145313 72.182438 
L 92.145313 65.182438 
L 72.145313 65.182438 
z
" style="fill: #0072bd; opacity: 0.55"/>
    </g>
    <g id="text_15">
     <!-- $N_{\max} = 25$ -->
     <g transform="translate(100.145313 72.182438) scale(0.1 -0.1)">
      <defs>
       <path id="Cmmi10-4e" d="M 300 0 
Q 238 0 238 84 
Q 241 100 250 139 
Q 259 178 276 201 
Q 294 225 319 225 
Q 931 225 1031 616 
L 1900 4116 
Q 1722 4147 1338 4147 
Q 1275 4147 1275 4231 
Q 1278 4247 1287 4286 
Q 1297 4325 1314 4348 
Q 1331 4372 1356 4372 
L 2463 4372 
Q 2509 4372 2522 4331 
L 3944 947 
L 4653 3781 
Q 4666 3850 4666 3878 
Q 4666 4147 4172 4147 
Q 4109 4147 4109 4231 
Q 4131 4313 4143 4342 
Q 4156 4372 4219 4372 
L 5588 4372 
Q 5650 4372 5650 4288 
Q 5647 4272 5637 4233 
Q 5628 4194 5611 4170 
Q 5594 4147 5569 4147 
Q 4956 4147 4856 3756 
L 3938 56 
Q 3916 0 3872 0 
L 3794 0 
Q 3750 0 3738 44 
L 2106 3916 
L 2094 3956 
Q 2081 3969 2081 3975 
L 1234 588 
Q 1228 572 1225 548 
Q 1222 525 1216 494 
Q 1216 328 1359 276 
Q 1503 225 1716 225 
Q 1778 225 1778 141 
Q 1756 53 1740 26 
Q 1725 0 1672 0 
L 300 0 
z
" transform="scale(0.015625)"/>
       <path id="Cmr10-6d" d="M 191 0 
L 191 225 
Q 409 225 550 259 
Q 691 294 691 428 
L 691 2175 
Q 691 2347 639 2423 
Q 588 2500 491 2517 
Q 394 2534 191 2534 
L 191 2759 
L 1119 2828 
L 1119 2203 
Q 1247 2478 1498 2653 
Q 1750 2828 2047 2828 
Q 2784 2828 2913 2228 
Q 3041 2497 3287 2662 
Q 3534 2828 3828 2828 
Q 4119 2828 4317 2734 
Q 4516 2641 4616 2448 
Q 4716 2256 4716 1966 
L 4716 428 
Q 4716 294 4858 259 
Q 5000 225 5216 225 
L 5216 0 
L 3750 0 
L 3750 225 
Q 3969 225 4109 259 
Q 4250 294 4250 428 
L 4250 1947 
Q 4250 2269 4159 2466 
Q 4069 2663 3788 2663 
Q 3419 2663 3178 2366 
Q 2938 2069 2938 1691 
L 2938 428 
Q 2938 294 3078 259 
Q 3219 225 3438 225 
L 3438 0 
L 1972 0 
L 1972 225 
Q 2191 225 2331 259 
Q 2472 294 2472 428 
L 2472 1947 
Q 2472 2259 2381 2461 
Q 2291 2663 2009 2663 
Q 1638 2663 1398 2366 
Q 1159 2069 1159 1691 
L 1159 428 
Q 1159 294 1300 259 
Q 1441 225 1656 225 
L 1656 0 
L 191 0 
z
" transform="scale(0.015625)"/>
       <path id="Cmr10-61" d="M 256 628 
Q 256 1009 556 1248 
Q 856 1488 1276 1586 
Q 1697 1684 2075 1684 
L 2075 1947 
Q 2075 2131 1994 2304 
Q 1913 2478 1759 2589 
Q 1606 2700 1422 2700 
Q 997 2700 775 2509 
Q 897 2509 976 2417 
Q 1056 2325 1056 2203 
Q 1056 2075 965 1984 
Q 875 1894 750 1894 
Q 622 1894 531 1984 
Q 441 2075 441 2203 
Q 441 2541 747 2705 
Q 1053 2869 1422 2869 
Q 1681 2869 1943 2758 
Q 2206 2647 2373 2440 
Q 2541 2234 2541 1959 
L 2541 519 
Q 2541 394 2594 289 
Q 2647 184 2759 184 
Q 2866 184 2917 290 
Q 2969 397 2969 519 
L 2969 928 
L 3156 928 
L 3156 519 
Q 3156 375 3081 245 
Q 3006 116 2879 39 
Q 2753 -38 2606 -38 
Q 2419 -38 2283 107 
Q 2147 253 2131 453 
Q 2013 213 1781 70 
Q 1550 -72 1288 -72 
Q 1044 -72 808 0 
Q 572 72 414 226 
Q 256 381 256 628 
z
M 775 628 
Q 775 403 940 250 
Q 1106 97 1331 97 
Q 1538 97 1706 200 
Q 1875 303 1975 481 
Q 2075 659 2075 856 
L 2075 1522 
Q 1784 1522 1479 1426 
Q 1175 1331 975 1128 
Q 775 925 775 628 
z
" transform="scale(0.015625)"/>
       <path id="Cmr10-78" d="M 78 0 
L 78 225 
Q 322 225 537 320 
Q 753 416 903 603 
L 1484 1344 
L 728 2328 
Q 616 2469 483 2501 
Q 350 2534 109 2534 
L 109 2759 
L 1441 2759 
L 1441 2534 
Q 1356 2534 1282 2496 
Q 1209 2459 1209 2388 
Q 1209 2363 1228 2328 
L 1741 1663 
L 2125 2156 
Q 2203 2250 2203 2344 
Q 2203 2422 2151 2478 
Q 2100 2534 2016 2534 
L 2016 2759 
L 3194 2759 
L 3194 2534 
Q 2947 2534 2730 2439 
Q 2513 2344 2363 2156 
L 1856 1509 
L 2675 428 
Q 2797 288 2928 256 
Q 3059 225 3303 225 
L 3303 0 
L 1972 0 
L 1972 225 
Q 2050 225 2122 262 
Q 2194 300 2194 372 
Q 2194 400 2175 428 
L 1600 1191 
L 1141 603 
Q 1069 522 1069 416 
Q 1069 338 1122 281 
Q 1175 225 1247 225 
L 1247 0 
L 78 0 
z
" transform="scale(0.015625)"/>
      </defs>
      <use xlink:href="#Cmmi10-4e" transform="translate(0 0.6875)"/>
      <use xlink:href="#Cmr10-6d" transform="translate(80.322266 -16.31875) scale(0.7)"/>
      <use xlink:href="#Cmr10-61" transform="translate(138.632812 -16.31875) scale(0.7)"/>
      <use xlink:href="#Cmr10-78" transform="translate(173.632812 -16.31875) scale(0.7)"/>
      <use xlink:href="#Cmr10-3d" transform="translate(234.448633 0.6875)"/>
      <use xlink:href="#Cmr10-32" transform="translate(329.692773 0.6875)"/>
      <use xlink:href="#Cmr10-35" transform="translate(379.692773 0.6875)"/>
     </g>
    </g>
    <g id="patch_40">
     <path d="M 72.145313 86.860563 
L 92.145313 86.860563 
L 92.145313 79.860563 
L 72.145313 79.860563 
z
" style="fill: #d95319; opacity: 0.75"/>
    </g>
    <g id="text_16">
     <!-- $N_{\max} = 5$ -->
     <g transform="translate(100.145313 86.860563) scale(0.1 -0.1)">
      <use xlink:href="#Cmmi10-4e" transform="translate(0 0.6875)"/>
      <use xlink:href="#Cmr10-6d" transform="translate(80.322266 -16.31875) scale(0.7)"/>
      <use xlink:href="#Cmr10-61" transform="translate(138.632812 -16.31875) scale(0.7)"/>
      <use xlink:href="#Cmr10-78" transform="translate(173.632812 -16.31875) scale(0.7)"/>
      <use xlink:href="#Cmr10-3d" transform="translate(234.448633 0.6875)"/>
      <use xlink:href="#Cmr10-35" transform="translate(329.692773 0.6875)"/>
     </g>
    </g>
   </g>
  </g>
  <g id="axes_2">
   <g id="patch_41">
    <path d="M 300.37694 261.216 
L 516.042057 261.216 
L 516.042057 55.584 
L 300.37694 55.584 
z
" style="fill: #ffffff"/>
   </g>
   <g id="patch_42">
    <path d="M 305.477129 261.216 
L 318.5919 261.216 
L 318.5919 245.93949 
L 305.477129 245.93949 
z
" clip-path="url(#pbc832f3504)" style="fill: #0072bd; opacity: 0.55"/>
   </g>
   <g id="patch_43">
    <path d="M 320.049096 261.216 
L 333.163867 261.216 
L 333.163867 190.94001 
L 320.049096 190.94001 
z
" clip-path="url(#pbc832f3504)" style="fill: #0072bd; opacity: 0.55"/>
   </g>
   <g id="patch_44">
    <path d="M 334.621064 261.216 
L 347.735834 261.216 
L 347.735834 117.749703 
L 334.621064 117.749703 
z
" clip-path="url(#pbc832f3504)" style="fill: #0072bd; opacity: 0.55"/>
   </g>
   <g id="patch_45">
    <path d="M 349.193031 261.216 
L 362.307802 261.216 
L 362.307802 87.59137 
L 349.193031 87.59137 
z
" clip-path="url(#pbc832f3504)" style="fill: #0072bd; opacity: 0.55"/>
   </g>
   <g id="patch_46">
    <path d="M 363.764998 261.216 
L 376.879769 261.216 
L 376.879769 120.576243 
L 363.764998 120.576243 
z
" clip-path="url(#pbc832f3504)" style="fill: #0072bd; opacity: 0.55"/>
   </g>
   <g id="patch_47">
    <path d="M 378.336966 261.216 
L 391.451736 261.216 
L 391.451736 179.492789 
L 378.336966 179.492789 
z
" clip-path="url(#pbc832f3504)" style="fill: #0072bd; opacity: 0.55"/>
   </g>
   <g id="patch_48">
    <path d="M 392.908933 261.216 
L 406.023703 261.216 
L 406.023703 225.53691 
L 392.908933 225.53691 
z
" clip-path="url(#pbc832f3504)" style="fill: #0072bd; opacity: 0.55"/>
   </g>
   <g id="patch_49">
    <path d="M 407.4809 261.216 
L 420.595671 261.216 
L 420.595671 249.109604 
L 407.4809 249.109604 
z
" clip-path="url(#pbc832f3504)" style="fill: #0072bd; opacity: 0.55"/>
   </g>
   <g id="patch_50">
    <path d="M 422.052867 261.216 
L 435.167638 261.216 
L 435.167638 257.938427 
L 422.052867 257.938427 
z
" clip-path="url(#pbc832f3504)" style="fill: #0072bd; opacity: 0.55"/>
   </g>
   <g id="patch_51">
    <path d="M 436.624835 261.216 
L 449.739605 261.216 
L 449.739605 260.492865 
L 436.624835 260.492865 
z
" clip-path="url(#pbc832f3504)" style="fill: #0072bd; opacity: 0.55"/>
   </g>
   <g id="patch_52">
    <path d="M 451.196802 261.216 
L 464.311573 261.216 
L 464.311573 261.083679 
L 451.196802 261.083679 
z
" clip-path="url(#pbc832f3504)" style="fill: #0072bd; opacity: 0.55"/>
   </g>
   <g id="patch_53">
    <path d="M 465.768769 261.216 
L 478.88354 261.216 
L 478.88354 261.19562 
L 465.768769 261.19562 
z
" clip-path="url(#pbc832f3504)" style="fill: #0072bd; opacity: 0.55"/>
   </g>
   <g id="patch_54">
    <path d="M 480.340737 261.216 
L 493.455507 261.216 
L 493.455507 261.213324 
L 480.340737 261.213324 
z
" clip-path="url(#pbc832f3504)" style="fill: #0072bd; opacity: 0.55"/>
   </g>
   <g id="patch_55">
    <path d="M 494.912704 261.216 
L 508.027475 261.216 
L 508.027475 261.215697 
L 494.912704 261.215697 
z
" clip-path="url(#pbc832f3504)" style="fill: #0072bd; opacity: 0.55"/>
   </g>
   <g id="patch_56">
    <path d="M 509.484671 261.216 
L 522.599442 261.216 
L 522.599442 261.21597 
L 509.484671 261.21597 
z
" clip-path="url(#pbc832f3504)" style="fill: #0072bd; opacity: 0.55"/>
   </g>
   <g id="patch_57">
    <path d="M 524.056639 261.216 
L 537.171409 261.216 
L 537.171409 261.215997 
L 524.056639 261.215997 
z
" clip-path="url(#pbc832f3504)" style="fill: #0072bd; opacity: 0.55"/>
   </g>
   <g id="patch_58">
    <path d="M 538.628606 261.216 
L 551.743377 261.216 
L 551.743377 261.216 
L 538.628606 261.216 
z
" clip-path="url(#pbc832f3504)" style="fill: #0072bd; opacity: 0.55"/>
   </g>
   <g id="patch_59">
    <path d="M 553.200573 261.216 
L 566.315344 261.216 
L 566.315344 261.216 
L 553.200573 261.216 
z
" clip-path="url(#pbc832f3504)" style="fill: #0072bd; opacity: 0.55"/>
   </g>
   <g id="patch_60">
    <path d="M 567.772541 261.216 
L 580.887311 261.216 
L 580.887311 261.216 
L 567.772541 261.216 
z
" clip-path="url(#pbc832f3504)" style="fill: #0072bd; opacity: 0.55"/>
   </g>
   <g id="patch_61">
    <path d="M 582.344508 261.216 
L 595.459279 261.216 
L 595.459279 261.216 
L 582.344508 261.216 
z
" clip-path="url(#pbc832f3504)" style="fill: #0072bd; opacity: 0.55"/>
   </g>
   <g id="patch_62">
    <path d="M 596.916475 261.216 
L 610.031246 261.216 
L 610.031246 261.216 
L 596.916475 261.216 
z
" clip-path="url(#pbc832f3504)" style="fill: #0072bd; opacity: 0.55"/>
   </g>
   <g id="patch_63">
    <path d="M 611.488443 261.216 
L 624.603213 261.216 
L 624.603213 261.216 
L 611.488443 261.216 
z
" clip-path="url(#pbc832f3504)" style="fill: #0072bd; opacity: 0.55"/>
   </g>
   <g id="patch_64">
    <path d="M 626.06041 261.216 
L 639.175181 261.216 
L 639.175181 261.216 
L 626.06041 261.216 
z
" clip-path="url(#pbc832f3504)" style="fill: #0072bd; opacity: 0.55"/>
   </g>
   <g id="patch_65">
    <path d="M 640.632377 261.216 
L 653.747148 261.216 
L 653.747148 261.216 
L 640.632377 261.216 
z
" clip-path="url(#pbc832f3504)" style="fill: #0072bd; opacity: 0.55"/>
   </g>
   <g id="patch_66">
    <path d="M 655.204345 261.216 
L 668.319115 261.216 
L 668.319115 261.216 
L 655.204345 261.216 
z
" clip-path="url(#pbc832f3504)" style="fill: #0072bd; opacity: 0.55"/>
   </g>
   <g id="patch_67">
    <path d="M 669.776312 261.216 
L 682.891082 261.216 
L 682.891082 261.216 
L 669.776312 261.216 
z
" clip-path="url(#pbc832f3504)" style="fill: #0072bd; opacity: 0.55"/>
   </g>
   <g id="patch_68">
    <path d="M 308.027223 261.216 
L 316.041805 261.216 
L 316.041805 248.318809 
L 308.027223 248.318809 
z
" clip-path="url(#pbc832f3504)" style="fill: #d95319; opacity: 0.75"/>
   </g>
   <g id="patch_69">
    <path d="M 322.599191 261.216 
L 330.613773 261.216 
L 330.613773 202.400983 
L 322.599191 202.400983 
z
" clip-path="url(#pbc832f3504)" style="fill: #d95319; opacity: 0.75"/>
   </g>
   <g id="patch_70">
    <path d="M 337.171158 261.216 
L 345.18574 261.216 
L 345.18574 149.922376 
L 337.171158 149.922376 
z
" clip-path="url(#pbc832f3504)" style="fill: #d95319; opacity: 0.75"/>
   </g>
   <g id="patch_71">
    <path d="M 351.743125 261.216 
L 359.757707 261.216 
L 359.757707 131.676449 
L 351.743125 131.676449 
z
" clip-path="url(#pbc832f3504)" style="fill: #d95319; opacity: 0.75"/>
   </g>
   <g id="patch_72">
    <path d="M 366.315093 261.216 
L 374.329675 261.216 
L 374.329675 175.489103 
L 366.315093 175.489103 
z
" clip-path="url(#pbc832f3504)" style="fill: #d95319; opacity: 0.75"/>
   </g>
   <g id="patch_73">
    <path d="M 380.88706 261.216 
L 388.901642 261.216 
L 388.901642 216.571503 
L 380.88706 216.571503 
z
" clip-path="url(#pbc832f3504)" style="fill: #d95319; opacity: 0.75"/>
   </g>
   <g id="matplotlib.axis_3">
    <g id="xtick_4">
     <g id="line2d_11">
      <g>
       <use xlink:href="#md26ecb4712" x="312.034514" y="261.216" style="stroke: #000000; stroke-width: 0.8"/>
      </g>
     </g>
     <g id="text_17">
      <!-- 0 -->
      <g transform="translate(307.898889 278.093969) scale(0.13 -0.13)">
       <use xlink:href="#DejaVuSerif-30"/>
      </g>
     </g>
    </g>
    <g id="xtick_5">
     <g id="line2d_12">
      <g>
       <use xlink:href="#md26ecb4712" x="384.894351" y="261.216" style="stroke: #000000; stroke-width: 0.8"/>
      </g>
     </g>
     <g id="text_18">
      <!-- 5 -->
      <g transform="translate(380.758726 278.093969) scale(0.13 -0.13)">
       <use xlink:href="#DejaVuSerif-35"/>
      </g>
     </g>
    </g>
    <g id="xtick_6">
     <g id="line2d_13">
      <g>
       <use xlink:href="#md26ecb4712" x="457.754187" y="261.216" style="stroke: #000000; stroke-width: 0.8"/>
      </g>
     </g>
     <g id="text_19">
      <!-- 10 -->
      <g transform="translate(449.482937 278.093969) scale(0.13 -0.13)">
       <use xlink:href="#DejaVuSerif-31"/>
       <use xlink:href="#DejaVuSerif-30" transform="translate(63.623047 0)"/>
      </g>
     </g>
    </g>
    <g id="text_20">
     <!-- $n$ -->
     <g transform="translate(403.329499 296.955063) scale(0.16 -0.16)">
      <use xlink:href="#Cmmi10-6e" transform="translate(0 0.8125)"/>
     </g>
    </g>
   </g>
   <g id="matplotlib.axis_4">
    <g id="ytick_8">
     <g id="line2d_14">
      <g>
       <use xlink:href="#m36a5b7c607" x="300.37694" y="261.216" style="stroke: #000000; stroke-width: 0.8"/>
      </g>
     </g>
    </g>
    <g id="ytick_9">
     <g id="line2d_15">
      <g>
       <use xlink:href="#m36a5b7c607" x="300.37694" y="227.368585" style="stroke: #000000; stroke-width: 0.8"/>
      </g>
     </g>
    </g>
    <g id="ytick_10">
     <g id="line2d_16">
      <g>
       <use xlink:href="#m36a5b7c607" x="300.37694" y="193.52117" style="stroke: #000000; stroke-width: 0.8"/>
      </g>
     </g>
    </g>
    <g id="ytick_11">
     <g id="line2d_17">
      <g>
       <use xlink:href="#m36a5b7c607" x="300.37694" y="159.673755" style="stroke: #000000; stroke-width: 0.8"/>
      </g>
     </g>
    </g>
    <g id="ytick_12">
     <g id="line2d_18">
      <g>
       <use xlink:href="#m36a5b7c607" x="300.37694" y="125.82634" style="stroke: #000000; stroke-width: 0.8"/>
      </g>
     </g>
    </g>
    <g id="ytick_13">
     <g id="line2d_19">
      <g>
       <use xlink:href="#m36a5b7c607" x="300.37694" y="91.978925" style="stroke: #000000; stroke-width: 0.8"/>
      </g>
     </g>
    </g>
    <g id="ytick_14">
     <g id="line2d_20">
      <g>
       <use xlink:href="#m36a5b7c607" x="300.37694" y="58.131509" style="stroke: #000000; stroke-width: 0.8"/>
      </g>
     </g>
    </g>
   </g>
   <g id="patch_74">
    <path d="M 300.37694 261.216 
L 300.37694 55.584 
" style="fill: none; stroke: #000000; stroke-width: 0.8; stroke-linejoin: miter; stroke-linecap: square"/>
   </g>
   <g id="patch_75">
    <path d="M 300.37694 261.216 
L 516.042057 261.216 
" style="fill: none; stroke: #000000; stroke-width: 0.8; stroke-linejoin: miter; stroke-linecap: square"/>
   </g>
   <g id="text_21">
    <g id="patch_76">
     <path d="M 446.672103 78.543725 
L 509.572103 78.543725 
Q 512.572103 78.543725 512.572103 75.543725 
L 512.572103 65.8656 
Q 512.572103 62.8656 509.572103 62.8656 
L 446.672103 62.8656 
Q 443.672103 62.8656 443.672103 65.8656 
L 443.672103 75.543725 
Q 443.672103 78.543725 446.672103 78.543725 
z
" style="fill: #ffffff; opacity: 0.85; stroke: #d95319; stroke-linejoin: miter"/>
    </g>
    <!-- leak $= 34.6$% -->
    <g style="fill: #d95319" transform="translate(446.672103 73.464037) scale(0.1 -0.1)">
     <defs>
      <path id="Cmr10-34" d="M 178 1056 
L 178 1281 
L 2156 4231 
Q 2178 4263 2222 4263 
L 2316 4263 
Q 2388 4263 2388 4191 
L 2388 1281 
L 3016 1281 
L 3016 1056 
L 2388 1056 
L 2388 428 
Q 2388 297 2575 261 
Q 2763 225 3009 225 
L 3009 0 
L 1247 0 
L 1247 225 
Q 1494 225 1681 261 
Q 1869 297 1869 428 
L 1869 1056 
L 178 1056 
z
M 391 1281 
L 1906 1281 
L 1906 3547 
L 391 1281 
z
" transform="scale(0.015625)"/>
      <path id="Cmr10-36" d="M 1600 -141 
Q 1203 -141 937 70 
Q 672 281 526 617 
Q 381 953 325 1322 
Q 269 1691 269 2069 
Q 269 2575 466 3084 
Q 663 3594 1045 3928 
Q 1428 4263 1953 4263 
Q 2172 4263 2361 4180 
Q 2550 4097 2658 3936 
Q 2766 3775 2766 3547 
Q 2766 3416 2677 3327 
Q 2588 3238 2456 3238 
Q 2331 3238 2240 3328 
Q 2150 3419 2150 3547 
Q 2150 3672 2240 3762 
Q 2331 3853 2456 3853 
L 2491 3853 
Q 2409 3969 2261 4023 
Q 2113 4078 1953 4078 
Q 1759 4078 1595 3993 
Q 1431 3909 1300 3765 
Q 1169 3622 1081 3448 
Q 994 3275 945 3053 
Q 897 2831 884 2637 
Q 872 2444 872 2150 
Q 984 2413 1190 2580 
Q 1397 2747 1656 2747 
Q 1941 2747 2175 2631 
Q 2409 2516 2578 2311 
Q 2747 2106 2836 1843 
Q 2925 1581 2925 1313 
Q 2925 938 2758 598 
Q 2591 259 2287 59 
Q 1984 -141 1600 -141 
z
M 1600 63 
Q 1847 63 1997 175 
Q 2147 288 2217 473 
Q 2288 659 2305 848 
Q 2322 1038 2322 1313 
Q 2322 1675 2287 1931 
Q 2253 2188 2100 2383 
Q 1947 2578 1631 2578 
Q 1372 2578 1205 2403 
Q 1038 2228 961 1961 
Q 884 1694 884 1447 
Q 884 1363 891 1319 
Q 891 1309 889 1303 
Q 888 1297 884 1288 
Q 884 1013 940 731 
Q 997 450 1156 256 
Q 1316 63 1600 63 
z
" transform="scale(0.015625)"/>
     </defs>
     <use xlink:href="#DejaVuSerif-6c" transform="translate(0 0.015625)"/>
     <use xlink:href="#DejaVuSerif-65" transform="translate(31.982422 0.015625)"/>
     <use xlink:href="#DejaVuSerif-61" transform="translate(91.162109 0.015625)"/>
     <use xlink:href="#DejaVuSerif-6b" transform="translate(150.78125 0.015625)"/>
     <use xlink:href="#DejaVuSerif-20" transform="translate(211.376953 0.015625)"/>
     <use xlink:href="#Cmr10-3d" transform="translate(260.722656 0.015625)"/>
     <use xlink:href="#Cmr10-33" transform="translate(355.966797 0.015625)"/>
     <use xlink:href="#Cmr10-34" transform="translate(405.966797 0.015625)"/>
     <use xlink:href="#Cmmi10-3a" transform="translate(455.966797 0.015625)"/>
     <use xlink:href="#Cmr10-36" transform="translate(483.652344 0.015625)"/>
     <use xlink:href="#DejaVuSerif-25" transform="translate(533.652344 0.015625)"/>
    </g>
   </g>
   <g id="text_22">
    <!-- $t = 1.5$ -->
    <g transform="translate(390.204499 49.584) scale(0.13 -0.13)">
     <defs>
      <path id="Cmr10-31" d="M 594 0 
L 594 225 
Q 1394 225 1394 428 
L 1394 3788 
Q 1063 3628 556 3628 
L 556 3853 
Q 1341 3853 1741 4263 
L 1831 4263 
Q 1853 4263 1873 4245 
Q 1894 4228 1894 4206 
L 1894 428 
Q 1894 225 2694 225 
L 2694 0 
L 594 0 
z
" transform="scale(0.015625)"/>
     </defs>
     <use xlink:href="#Cmmi10-74" transform="translate(0 0.390625)"/>
     <use xlink:href="#Cmr10-3d" transform="translate(53.642578 0.390625)"/>
     <use xlink:href="#Cmr10-31" transform="translate(148.886719 0.390625)"/>
     <use xlink:href="#Cmmi10-3a" transform="translate(198.886719 0.390625)"/>
     <use xlink:href="#Cmr10-35" transform="translate(226.572266 0.390625)"/>
    </g>
   </g>
  </g>
  <g id="axes_3">
   <g id="patch_77">
    <path d="M 537.608568 261.216 
L 753.273685 261.216 
L 753.273685 55.584 
L 537.608568 55.584 
z
" style="fill: #ffffff"/>
   </g>
   <g id="patch_78">
    <path d="M 542.708757 261.216 
L 555.823527 261.216 
L 555.823527 247.385381 
L 542.708757 247.385381 
z
" clip-path="url(#pe0e7cfe28e)" style="fill: #0072bd; opacity: 0.55"/>
   </g>
   <g id="patch_79">
    <path d="M 557.280724 261.216 
L 570.395495 261.216 
L 570.395495 195.598167 
L 557.280724 195.598167 
z
" clip-path="url(#pe0e7cfe28e)" style="fill: #0072bd; opacity: 0.55"/>
   </g>
   <g id="patch_80">
    <path d="M 571.852692 261.216 
L 584.967462 261.216 
L 584.967462 122.997991 
L 571.852692 122.997991 
z
" clip-path="url(#pe0e7cfe28e)" style="fill: #0072bd; opacity: 0.55"/>
   </g>
   <g id="patch_81">
    <path d="M 586.424659 261.216 
L 599.539429 261.216 
L 599.539429 88.689627 
L 586.424659 88.689627 
z
" clip-path="url(#pe0e7cfe28e)" style="fill: #0072bd; opacity: 0.55"/>
   </g>
   <g id="patch_82">
    <path d="M 600.996626 261.216 
L 614.111397 261.216 
L 614.111397 117.236809 
L 600.996626 117.236809 
z
" clip-path="url(#pe0e7cfe28e)" style="fill: #0072bd; opacity: 0.55"/>
   </g>
   <g id="patch_83">
    <path d="M 615.568593 261.216 
L 628.683364 261.216 
L 628.683364 175.158555 
L 615.568593 175.158555 
z
" clip-path="url(#pe0e7cfe28e)" style="fill: #0072bd; opacity: 0.55"/>
   </g>
   <g id="patch_84">
    <path d="M 630.140561 261.216 
L 643.255331 261.216 
L 643.255331 222.642061 
L 630.140561 222.642061 
z
" clip-path="url(#pe0e7cfe28e)" style="fill: #0072bd; opacity: 0.55"/>
   </g>
   <g id="patch_85">
    <path d="M 644.712528 261.216 
L 657.827299 261.216 
L 657.827299 247.804561 
L 644.712528 247.804561 
z
" clip-path="url(#pe0e7cfe28e)" style="fill: #0072bd; opacity: 0.55"/>
   </g>
   <g id="patch_86">
    <path d="M 659.284495 261.216 
L 672.399266 261.216 
L 672.399266 257.502828 
L 659.284495 257.502828 
z
" clip-path="url(#pe0e7cfe28e)" style="fill: #0072bd; opacity: 0.55"/>
   </g>
   <g id="patch_87">
    <path d="M 673.856463 261.216 
L 686.971233 261.216 
L 686.971233 260.37975 
L 673.856463 260.37975 
z
" clip-path="url(#pe0e7cfe28e)" style="fill: #0072bd; opacity: 0.55"/>
   </g>
   <g id="patch_88">
    <path d="M 688.42843 261.216 
L 701.543201 261.216 
L 701.543201 261.060075 
L 688.42843 261.060075 
z
" clip-path="url(#pe0e7cfe28e)" style="fill: #0072bd; opacity: 0.55"/>
   </g>
   <g id="patch_89">
    <path d="M 703.000397 261.216 
L 716.115168 261.216 
L 716.115168 261.191567 
L 703.000397 261.191567 
z
" clip-path="url(#pe0e7cfe28e)" style="fill: #0072bd; opacity: 0.55"/>
   </g>
   <g id="patch_90">
    <path d="M 717.572365 261.216 
L 730.687135 261.216 
L 730.687135 261.212741 
L 717.572365 261.212741 
z
" clip-path="url(#pe0e7cfe28e)" style="fill: #0072bd; opacity: 0.55"/>
   </g>
   <g id="patch_91">
    <path d="M 732.144332 261.216 
L 745.259103 261.216 
L 745.259103 261.215626 
L 732.144332 261.215626 
z
" clip-path="url(#pe0e7cfe28e)" style="fill: #0072bd; opacity: 0.55"/>
   </g>
   <g id="patch_92">
    <path d="M 746.716299 261.216 
L 759.83107 261.216 
L 759.83107 261.215963 
L 746.716299 261.215963 
z
" clip-path="url(#pe0e7cfe28e)" style="fill: #0072bd; opacity: 0.55"/>
   </g>
   <g id="patch_93">
    <path d="M 761.288267 261.216 
L 774.403037 261.216 
L 774.403037 261.215997 
L 761.288267 261.215997 
z
" clip-path="url(#pe0e7cfe28e)" style="fill: #0072bd; opacity: 0.55"/>
   </g>
   <g id="patch_94">
    <path d="M 775.860234 261.216 
L 788.975005 261.216 
L 788.975005 261.216 
L 775.860234 261.216 
z
" clip-path="url(#pe0e7cfe28e)" style="fill: #0072bd; opacity: 0.55"/>
   </g>
   <g id="patch_95">
    <path d="M 790.432201 261.216 
L 803.546972 261.216 
L 803.546972 261.216 
L 790.432201 261.216 
z
" clip-path="url(#pe0e7cfe28e)" style="fill: #0072bd; opacity: 0.55"/>
   </g>
   <g id="patch_96">
    <path d="M 805.004169 261.216 
L 818.118939 261.216 
L 818.118939 261.216 
L 805.004169 261.216 
z
" clip-path="url(#pe0e7cfe28e)" style="fill: #0072bd; opacity: 0.55"/>
   </g>
   <g id="patch_97">
    <path d="M 819.576136 261.216 
L 832.690906 261.216 
L 832.690906 261.216 
L 819.576136 261.216 
z
" clip-path="url(#pe0e7cfe28e)" style="fill: #0072bd; opacity: 0.55"/>
   </g>
   <g id="patch_98">
    <path d="M 834.148103 261.216 
L 847.262874 261.216 
L 847.262874 261.216 
L 834.148103 261.216 
z
" clip-path="url(#pe0e7cfe28e)" style="fill: #0072bd; opacity: 0.55"/>
   </g>
   <g id="patch_99">
    <path d="M 848.720071 261.216 
L 861.834841 261.216 
L 861.834841 261.216 
L 848.720071 261.216 
z
" clip-path="url(#pe0e7cfe28e)" style="fill: #0072bd; opacity: 0.55"/>
   </g>
   <g id="patch_100">
    <path d="M 863.292038 261.216 
L 876.406808 261.216 
L 876.406808 261.216 
L 863.292038 261.216 
z
" clip-path="url(#pe0e7cfe28e)" style="fill: #0072bd; opacity: 0.55"/>
   </g>
   <g id="patch_101">
    <path d="M 877.864005 261.216 
L 890.978776 261.216 
L 890.978776 261.216 
L 877.864005 261.216 
z
" clip-path="url(#pe0e7cfe28e)" style="fill: #0072bd; opacity: 0.55"/>
   </g>
   <g id="patch_102">
    <path d="M 892.435972 261.216 
L 905.550743 261.216 
L 905.550743 261.216 
L 892.435972 261.216 
z
" clip-path="url(#pe0e7cfe28e)" style="fill: #0072bd; opacity: 0.55"/>
   </g>
   <g id="patch_103">
    <path d="M 907.00794 261.216 
L 920.12271 261.216 
L 920.12271 261.216 
L 907.00794 261.216 
z
" clip-path="url(#pe0e7cfe28e)" style="fill: #0072bd; opacity: 0.55"/>
   </g>
   <g id="patch_104">
    <path d="M 545.258851 261.216 
L 553.273433 261.216 
L 553.273433 255.555339 
L 545.258851 255.555339 
z
" clip-path="url(#pe0e7cfe28e)" style="fill: #d95319; opacity: 0.75"/>
   </g>
   <g id="patch_105">
    <path d="M 559.830818 261.216 
L 567.8454 261.216 
L 567.8454 234.778954 
L 559.830818 234.778954 
z
" clip-path="url(#pe0e7cfe28e)" style="fill: #d95319; opacity: 0.75"/>
   </g>
   <g id="patch_106">
    <path d="M 574.402786 261.216 
L 582.417368 261.216 
L 582.417368 210.487175 
L 574.402786 210.487175 
z
" clip-path="url(#pe0e7cfe28e)" style="fill: #d95319; opacity: 0.75"/>
   </g>
   <g id="patch_107">
    <path d="M 588.974753 261.216 
L 596.989335 261.216 
L 596.989335 201.105395 
L 588.974753 201.105395 
z
" clip-path="url(#pe0e7cfe28e)" style="fill: #d95319; opacity: 0.75"/>
   </g>
   <g id="patch_108">
    <path d="M 603.54672 261.216 
L 611.561302 261.216 
L 611.561302 221.044622 
L 603.54672 221.044622 
z
" clip-path="url(#pe0e7cfe28e)" style="fill: #d95319; opacity: 0.75"/>
   </g>
   <g id="patch_109">
    <path d="M 618.118688 261.216 
L 626.13327 261.216 
L 626.13327 240.03292 
L 618.118688 240.03292 
z
" clip-path="url(#pe0e7cfe28e)" style="fill: #d95319; opacity: 0.75"/>
   </g>
   <g id="matplotlib.axis_5">
    <g id="xtick_7">
     <g id="line2d_21">
      <g>
       <use xlink:href="#md26ecb4712" x="549.266142" y="261.216" style="stroke: #000000; stroke-width: 0.8"/>
      </g>
     </g>
     <g id="text_23">
      <!-- 0 -->
      <g transform="translate(545.130517 278.093969) scale(0.13 -0.13)">
       <use xlink:href="#DejaVuSerif-30"/>
      </g>
     </g>
    </g>
    <g id="xtick_8">
     <g id="line2d_22">
      <g>
       <use xlink:href="#md26ecb4712" x="622.125979" y="261.216" style="stroke: #000000; stroke-width: 0.8"/>
      </g>
     </g>
     <g id="text_24">
      <!-- 5 -->
      <g transform="translate(617.990354 278.093969) scale(0.13 -0.13)">
       <use xlink:href="#DejaVuSerif-35"/>
      </g>
     </g>
    </g>
    <g id="xtick_9">
     <g id="line2d_23">
      <g>
       <use xlink:href="#md26ecb4712" x="694.985815" y="261.216" style="stroke: #000000; stroke-width: 0.8"/>
      </g>
     </g>
     <g id="text_25">
      <!-- 10 -->
      <g transform="translate(686.714565 278.093969) scale(0.13 -0.13)">
       <use xlink:href="#DejaVuSerif-31"/>
       <use xlink:href="#DejaVuSerif-30" transform="translate(63.623047 0)"/>
      </g>
     </g>
    </g>
    <g id="text_26">
     <!-- $n$ -->
     <g transform="translate(640.561126 296.955063) scale(0.16 -0.16)">
      <use xlink:href="#Cmmi10-6e" transform="translate(0 0.8125)"/>
     </g>
    </g>
   </g>
   <g id="matplotlib.axis_6">
    <g id="ytick_15">
     <g id="line2d_24">
      <g>
       <use xlink:href="#m36a5b7c607" x="537.608568" y="261.216" style="stroke: #000000; stroke-width: 0.8"/>
      </g>
     </g>
    </g>
    <g id="ytick_16">
     <g id="line2d_25">
      <g>
       <use xlink:href="#m36a5b7c607" x="537.608568" y="227.368585" style="stroke: #000000; stroke-width: 0.8"/>
      </g>
     </g>
    </g>
    <g id="ytick_17">
     <g id="line2d_26">
      <g>
       <use xlink:href="#m36a5b7c607" x="537.608568" y="193.52117" style="stroke: #000000; stroke-width: 0.8"/>
      </g>
     </g>
    </g>
    <g id="ytick_18">
     <g id="line2d_27">
      <g>
       <use xlink:href="#m36a5b7c607" x="537.608568" y="159.673755" style="stroke: #000000; stroke-width: 0.8"/>
      </g>
     </g>
    </g>
    <g id="ytick_19">
     <g id="line2d_28">
      <g>
       <use xlink:href="#m36a5b7c607" x="537.608568" y="125.82634" style="stroke: #000000; stroke-width: 0.8"/>
      </g>
     </g>
    </g>
    <g id="ytick_20">
     <g id="line2d_29">
      <g>
       <use xlink:href="#m36a5b7c607" x="537.608568" y="91.978925" style="stroke: #000000; stroke-width: 0.8"/>
      </g>
     </g>
    </g>
    <g id="ytick_21">
     <g id="line2d_30">
      <g>
       <use xlink:href="#m36a5b7c607" x="537.608568" y="58.131509" style="stroke: #000000; stroke-width: 0.8"/>
      </g>
     </g>
    </g>
   </g>
   <g id="patch_110">
    <path d="M 537.608568 261.216 
L 537.608568 55.584 
" style="fill: none; stroke: #000000; stroke-width: 0.8; stroke-linejoin: miter; stroke-linecap: square"/>
   </g>
   <g id="patch_111">
    <path d="M 537.608568 261.216 
L 753.273685 261.216 
" style="fill: none; stroke: #000000; stroke-width: 0.8; stroke-linejoin: miter; stroke-linecap: square"/>
   </g>
   <g id="text_27">
    <g id="patch_112">
     <path d="M 683.903731 78.543725 
L 746.803731 78.543725 
Q 749.803731 78.543725 749.803731 75.543725 
L 749.803731 65.8656 
Q 749.803731 62.8656 746.803731 62.8656 
L 683.903731 62.8656 
Q 680.903731 62.8656 680.903731 65.8656 
L 680.903731 75.543725 
Q 680.903731 78.543725 683.903731 78.543725 
z
" style="fill: #ffffff; opacity: 0.85; stroke: #d95319; stroke-linejoin: miter"/>
    </g>
    <!-- leak $= 69.8$% -->
    <g style="fill: #d95319" transform="translate(683.903731 73.464037) scale(0.1 -0.1)">
     <defs>
      <path id="Cmr10-39" d="M 722 269 
Q 897 63 1331 63 
Q 1575 63 1786 228 
Q 1997 394 2113 634 
Q 2247 906 2284 1214 
Q 2322 1522 2322 1978 
Q 2213 1719 2008 1553 
Q 1803 1388 1538 1388 
Q 1166 1388 873 1589 
Q 581 1791 425 2120 
Q 269 2450 269 2822 
Q 269 3206 444 3539 
Q 619 3872 928 4067 
Q 1238 4263 1631 4263 
Q 2019 4263 2280 4052 
Q 2541 3841 2678 3508 
Q 2816 3175 2870 2803 
Q 2925 2431 2925 2069 
Q 2925 1575 2744 1061 
Q 2563 547 2202 203 
Q 1841 -141 1331 -141 
Q 953 -141 690 37 
Q 428 216 428 575 
Q 428 706 517 795 
Q 606 884 738 884 
Q 866 884 955 795 
Q 1044 706 1044 575 
Q 1044 450 953 359 
Q 863 269 738 269 
L 722 269 
z
M 1563 1556 
Q 1825 1556 1992 1732 
Q 2159 1909 2234 2171 
Q 2309 2434 2309 2694 
L 2309 2816 
L 2309 2841 
Q 2309 3322 2168 3700 
Q 2028 4078 1631 4078 
Q 1378 4078 1220 3967 
Q 1063 3856 988 3672 
Q 913 3488 892 3278 
Q 872 3069 872 2822 
Q 872 2459 906 2203 
Q 941 1947 1094 1751 
Q 1247 1556 1563 1556 
z
" transform="scale(0.015625)"/>
      <path id="Cmr10-38" d="M 269 972 
Q 269 1356 522 1651 
Q 775 1947 1172 2144 
L 934 2297 
Q 716 2441 578 2680 
Q 441 2919 441 3181 
Q 441 3488 602 3734 
Q 763 3981 1030 4122 
Q 1297 4263 1600 4263 
Q 1884 4263 2148 4147 
Q 2413 4031 2583 3815 
Q 2753 3600 2753 3303 
Q 2753 3088 2651 2903 
Q 2550 2719 2373 2572 
Q 2197 2425 1997 2322 
L 2363 2088 
Q 2616 1922 2770 1653 
Q 2925 1384 2925 1088 
Q 2925 741 2739 456 
Q 2553 172 2247 15 
Q 1941 -141 1600 -141 
Q 1269 -141 961 -6 
Q 653 128 461 383 
Q 269 638 269 972 
z
M 616 972 
Q 616 719 755 509 
Q 894 300 1122 181 
Q 1350 63 1600 63 
Q 1972 63 2275 280 
Q 2578 497 2578 856 
Q 2578 978 2529 1098 
Q 2481 1219 2395 1317 
Q 2309 1416 2203 1478 
L 1344 2034 
Q 1144 1928 976 1765 
Q 809 1603 712 1400 
Q 616 1197 616 972 
z
M 1056 2925 
L 1831 2425 
Q 2100 2581 2272 2803 
Q 2444 3025 2444 3303 
Q 2444 3519 2323 3698 
Q 2203 3878 2009 3978 
Q 1816 4078 1594 4078 
Q 1400 4078 1203 4003 
Q 1006 3928 878 3779 
Q 750 3631 750 3431 
Q 750 3131 1056 2925 
z
" transform="scale(0.015625)"/>
     </defs>
     <use xlink:href="#DejaVuSerif-6c" transform="translate(0 0.015625)"/>
     <use xlink:href="#DejaVuSerif-65" transform="translate(31.982422 0.015625)"/>
     <use xlink:href="#DejaVuSerif-61" transform="translate(91.162109 0.015625)"/>
     <use xlink:href="#DejaVuSerif-6b" transform="translate(150.78125 0.015625)"/>
     <use xlink:href="#DejaVuSerif-20" transform="translate(211.376953 0.015625)"/>
     <use xlink:href="#Cmr10-3d" transform="translate(260.722656 0.015625)"/>
     <use xlink:href="#Cmr10-36" transform="translate(355.966797 0.015625)"/>
     <use xlink:href="#Cmr10-39" transform="translate(405.966797 0.015625)"/>
     <use xlink:href="#Cmmi10-3a" transform="translate(455.966797 0.015625)"/>
     <use xlink:href="#Cmr10-38" transform="translate(483.652344 0.015625)"/>
     <use xlink:href="#DejaVuSerif-25" transform="translate(533.652344 0.015625)"/>
    </g>
   </g>
   <g id="text_28">
    <!-- $t = 3$ -->
    <g transform="translate(632.506126 49.584) scale(0.13 -0.13)">
     <use xlink:href="#Cmmi10-74" transform="translate(0 0.390625)"/>
     <use xlink:href="#Cmr10-3d" transform="translate(53.642578 0.390625)"/>
     <use xlink:href="#Cmr10-33" transform="translate(148.886719 0.390625)"/>
    </g>
   </g>
  </g>
  <g id="axes_4">
   <g id="patch_113">
    <path d="M 774.840196 261.216 
L 990.505313 261.216 
L 990.505313 55.584 
L 774.840196 55.584 
z
" style="fill: #ffffff"/>
   </g>
   <g id="patch_114">
    <path d="M 779.940385 261.216 
L 793.055155 261.216 
L 793.055155 247.399865 
L 779.940385 247.399865 
z
" clip-path="url(#p1307a748b5)" style="fill: #0072bd; opacity: 0.55"/>
   </g>
   <g id="patch_115">
    <path d="M 794.512352 261.216 
L 807.627123 261.216 
L 807.627123 195.646317 
L 794.512352 195.646317 
z
" clip-path="url(#p1307a748b5)" style="fill: #0072bd; opacity: 0.55"/>
   </g>
   <g id="patch_116">
    <path d="M 809.084319 261.216 
L 822.19909 261.216 
L 822.19909 123.054655 
L 809.084319 123.054655 
z
" clip-path="url(#p1307a748b5)" style="fill: #0072bd; opacity: 0.55"/>
   </g>
   <g id="patch_117">
    <path d="M 823.656287 261.216 
L 836.771057 261.216 
L 836.771057 88.704187 
L 823.656287 88.704187 
z
" clip-path="url(#p1307a748b5)" style="fill: #0072bd; opacity: 0.55"/>
   </g>
   <g id="patch_118">
    <path d="M 838.228254 261.216 
L 851.343025 261.216 
L 851.343025 117.203012 
L 838.228254 117.203012 
z
" clip-path="url(#p1307a748b5)" style="fill: #0072bd; opacity: 0.55"/>
   </g>
   <g id="patch_119">
    <path d="M 852.800221 261.216 
L 865.914992 261.216 
L 865.914992 175.111988 
L 852.800221 175.111988 
z
" clip-path="url(#p1307a748b5)" style="fill: #0072bd; opacity: 0.55"/>
   </g>
   <g id="patch_120">
    <path d="M 867.372189 261.216 
L 880.486959 261.216 
L 880.486959 222.61002 
L 867.372189 222.61002 
z
" clip-path="url(#p1307a748b5)" style="fill: #0072bd; opacity: 0.55"/>
   </g>
   <g id="patch_121">
    <path d="M 881.944156 261.216 
L 895.058927 261.216 
L 895.058927 247.789791 
L 881.944156 247.789791 
z
" clip-path="url(#p1307a748b5)" style="fill: #0072bd; opacity: 0.55"/>
   </g>
   <g id="patch_122">
    <path d="M 896.516123 261.216 
L 909.630894 261.216 
L 909.630894 257.497807 
L 896.516123 257.497807 
z
" clip-path="url(#p1307a748b5)" style="fill: #0072bd; opacity: 0.55"/>
   </g>
   <g id="patch_123">
    <path d="M 911.088091 261.216 
L 924.202861 261.216 
L 924.202861 260.378426 
L 911.088091 260.378426 
z
" clip-path="url(#p1307a748b5)" style="fill: #0072bd; opacity: 0.55"/>
   </g>
   <g id="patch_124">
    <path d="M 925.660058 261.216 
L 938.774829 261.216 
L 938.774829 261.059794 
L 925.660058 261.059794 
z
" clip-path="url(#p1307a748b5)" style="fill: #0072bd; opacity: 0.55"/>
   </g>
   <g id="patch_125">
    <path d="M 940.232025 261.216 
L 953.346796 261.216 
L 953.346796 261.191518 
L 940.232025 261.191518 
z
" clip-path="url(#p1307a748b5)" style="fill: #0072bd; opacity: 0.55"/>
   </g>
   <g id="patch_126">
    <path d="M 954.803993 261.216 
L 967.918763 261.216 
L 967.918763 261.212734 
L 954.803993 261.212734 
z
" clip-path="url(#p1307a748b5)" style="fill: #0072bd; opacity: 0.55"/>
   </g>
   <g id="patch_127">
    <path d="M 969.37596 261.216 
L 982.49073 261.216 
L 982.49073 261.215625 
L 969.37596 261.215625 
z
" clip-path="url(#p1307a748b5)" style="fill: #0072bd; opacity: 0.55"/>
   </g>
   <g id="patch_128">
    <path d="M 983.947927 261.216 
L 997.062698 261.216 
L 997.062698 261.215963 
L 983.947927 261.215963 
z
" clip-path="url(#p1307a748b5)" style="fill: #0072bd; opacity: 0.55"/>
   </g>
   <g id="patch_129">
    <path d="M 998.519895 261.216 
L 1011.634665 261.216 
L 1011.634665 261.215997 
L 998.519895 261.215997 
z
" clip-path="url(#p1307a748b5)" style="fill: #0072bd; opacity: 0.55"/>
   </g>
   <g id="patch_130">
    <path d="M 1013.091862 261.216 
L 1026.206632 261.216 
L 1026.206632 261.216 
L 1013.091862 261.216 
z
" clip-path="url(#p1307a748b5)" style="fill: #0072bd; opacity: 0.55"/>
   </g>
   <g id="patch_131">
    <path d="M 1027.663829 261.216 
L 1040.7786 261.216 
L 1040.7786 261.216 
L 1027.663829 261.216 
z
" clip-path="url(#p1307a748b5)" style="fill: #0072bd; opacity: 0.55"/>
   </g>
   <g id="patch_132">
    <path d="M 1042.235796 261.216 
L 1055.350567 261.216 
L 1055.350567 261.216 
L 1042.235796 261.216 
z
" clip-path="url(#p1307a748b5)" style="fill: #0072bd; opacity: 0.55"/>
   </g>
   <g id="patch_133">
    <path d="M 1056.807764 261.216 
L 1069.922534 261.216 
L 1069.922534 261.216 
L 1056.807764 261.216 
z
" clip-path="url(#p1307a748b5)" style="fill: #0072bd; opacity: 0.55"/>
   </g>
   <g id="patch_134">
    <path d="M 1071.379731 261.216 
L 1084.494502 261.216 
L 1084.494502 261.216 
L 1071.379731 261.216 
z
" clip-path="url(#p1307a748b5)" style="fill: #0072bd; opacity: 0.55"/>
   </g>
   <g id="patch_135">
    <path d="M 1085.951698 261.216 
L 1099.066469 261.216 
L 1099.066469 261.216 
L 1085.951698 261.216 
z
" clip-path="url(#p1307a748b5)" style="fill: #0072bd; opacity: 0.55"/>
   </g>
   <g id="patch_136">
    <path d="M 1100.523666 261.216 
L 1113.638436 261.216 
L 1113.638436 261.216 
L 1100.523666 261.216 
z
" clip-path="url(#p1307a748b5)" style="fill: #0072bd; opacity: 0.55"/>
   </g>
   <g id="patch_137">
    <path d="M 1115.095633 261.216 
L 1128.210404 261.216 
L 1128.210404 261.216 
L 1115.095633 261.216 
z
" clip-path="url(#p1307a748b5)" style="fill: #0072bd; opacity: 0.55"/>
   </g>
   <g id="patch_138">
    <path d="M 1129.6676 261.216 
L 1142.782371 261.216 
L 1142.782371 261.216 
L 1129.6676 261.216 
z
" clip-path="url(#p1307a748b5)" style="fill: #0072bd; opacity: 0.55"/>
   </g>
   <g id="patch_139">
    <path d="M 1144.239568 261.216 
L 1157.354338 261.216 
L 1157.354338 261.216 
L 1144.239568 261.216 
z
" clip-path="url(#p1307a748b5)" style="fill: #0072bd; opacity: 0.55"/>
   </g>
   <g id="patch_140">
    <path d="M 782.490479 261.216 
L 790.505061 261.216 
L 790.505061 260.021371 
L 782.490479 260.021371 
z
" clip-path="url(#p1307a748b5)" style="fill: #d95319; opacity: 0.75"/>
   </g>
   <g id="patch_141">
    <path d="M 797.062446 261.216 
L 805.077028 261.216 
L 805.077028 255.63617 
L 797.062446 255.63617 
z
" clip-path="url(#p1307a748b5)" style="fill: #d95319; opacity: 0.75"/>
   </g>
   <g id="patch_142">
    <path d="M 811.634414 261.216 
L 819.648996 261.216 
L 819.648996 250.508561 
L 811.634414 250.508561 
z
" clip-path="url(#p1307a748b5)" style="fill: #d95319; opacity: 0.75"/>
   </g>
   <g id="patch_143">
    <path d="M 826.206381 261.216 
L 834.220963 261.216 
L 834.220963 248.527455 
L 826.206381 248.527455 
z
" clip-path="url(#p1307a748b5)" style="fill: #d95319; opacity: 0.75"/>
   </g>
   <g id="patch_144">
    <path d="M 840.778348 261.216 
L 848.79293 261.216 
L 848.79293 252.736043 
L 840.778348 252.736043 
z
" clip-path="url(#p1307a748b5)" style="fill: #d95319; opacity: 0.75"/>
   </g>
   <g id="patch_145">
    <path d="M 855.350316 261.216 
L 863.364898 261.216 
L 863.364898 256.744153 
L 855.350316 256.744153 
z
" clip-path="url(#p1307a748b5)" style="fill: #d95319; opacity: 0.75"/>
   </g>
   <g id="matplotlib.axis_7">
    <g id="xtick_10">
     <g id="line2d_31">
      <g>
       <use xlink:href="#md26ecb4712" x="786.49777" y="261.216" style="stroke: #000000; stroke-width: 0.8"/>
      </g>
     </g>
     <g id="text_29">
      <!-- 0 -->
      <g transform="translate(782.362145 278.093969) scale(0.13 -0.13)">
       <use xlink:href="#DejaVuSerif-30"/>
      </g>
     </g>
    </g>
    <g id="xtick_11">
     <g id="line2d_32">
      <g>
       <use xlink:href="#md26ecb4712" x="859.357607" y="261.216" style="stroke: #000000; stroke-width: 0.8"/>
      </g>
     </g>
     <g id="text_30">
      <!-- 5 -->
      <g transform="translate(855.221982 278.093969) scale(0.13 -0.13)">
       <use xlink:href="#DejaVuSerif-35"/>
      </g>
     </g>
    </g>
    <g id="xtick_12">
     <g id="line2d_33">
      <g>
       <use xlink:href="#md26ecb4712" x="932.217443" y="261.216" style="stroke: #000000; stroke-width: 0.8"/>
      </g>
     </g>
     <g id="text_31">
      <!-- 10 -->
      <g transform="translate(923.946193 278.093969) scale(0.13 -0.13)">
       <use xlink:href="#DejaVuSerif-31"/>
       <use xlink:href="#DejaVuSerif-30" transform="translate(63.623047 0)"/>
      </g>
     </g>
    </g>
    <g id="text_32">
     <!-- $n$ -->
     <g transform="translate(877.792754 296.955063) scale(0.16 -0.16)">
      <use xlink:href="#Cmmi10-6e" transform="translate(0 0.8125)"/>
     </g>
    </g>
   </g>
   <g id="matplotlib.axis_8">
    <g id="ytick_22">
     <g id="line2d_34">
      <g>
       <use xlink:href="#m36a5b7c607" x="774.840196" y="261.216" style="stroke: #000000; stroke-width: 0.8"/>
      </g>
     </g>
    </g>
    <g id="ytick_23">
     <g id="line2d_35">
      <g>
       <use xlink:href="#m36a5b7c607" x="774.840196" y="227.368585" style="stroke: #000000; stroke-width: 0.8"/>
      </g>
     </g>
    </g>
    <g id="ytick_24">
     <g id="line2d_36">
      <g>
       <use xlink:href="#m36a5b7c607" x="774.840196" y="193.52117" style="stroke: #000000; stroke-width: 0.8"/>
      </g>
     </g>
    </g>
    <g id="ytick_25">
     <g id="line2d_37">
      <g>
       <use xlink:href="#m36a5b7c607" x="774.840196" y="159.673755" style="stroke: #000000; stroke-width: 0.8"/>
      </g>
     </g>
    </g>
    <g id="ytick_26">
     <g id="line2d_38">
      <g>
       <use xlink:href="#m36a5b7c607" x="774.840196" y="125.82634" style="stroke: #000000; stroke-width: 0.8"/>
      </g>
     </g>
    </g>
    <g id="ytick_27">
     <g id="line2d_39">
      <g>
       <use xlink:href="#m36a5b7c607" x="774.840196" y="91.978925" style="stroke: #000000; stroke-width: 0.8"/>
      </g>
     </g>
    </g>
    <g id="ytick_28">
     <g id="line2d_40">
      <g>
       <use xlink:href="#m36a5b7c607" x="774.840196" y="58.131509" style="stroke: #000000; stroke-width: 0.8"/>
      </g>
     </g>
    </g>
   </g>
   <g id="patch_146">
    <path d="M 774.840196 261.216 
L 774.840196 55.584 
" style="fill: none; stroke: #000000; stroke-width: 0.8; stroke-linejoin: miter; stroke-linecap: square"/>
   </g>
   <g id="patch_147">
    <path d="M 774.840196 261.216 
L 990.505313 261.216 
" style="fill: none; stroke: #000000; stroke-width: 0.8; stroke-linejoin: miter; stroke-linecap: square"/>
   </g>
   <g id="text_33">
    <g id="patch_148">
     <path d="M 921.135359 78.543725 
L 984.035359 78.543725 
Q 987.035359 78.543725 987.035359 75.543725 
L 987.035359 65.8656 
Q 987.035359 62.8656 984.035359 62.8656 
L 921.135359 62.8656 
Q 918.135359 62.8656 918.135359 65.8656 
L 918.135359 75.543725 
Q 918.135359 78.543725 921.135359 78.543725 
z
" style="fill: #ffffff; opacity: 0.85; stroke: #d95319; stroke-linejoin: miter"/>
    </g>
    <!-- leak $= 93.6$% -->
    <g style="fill: #d95319" transform="translate(921.135359 73.464037) scale(0.1 -0.1)">
     <use xlink:href="#DejaVuSerif-6c" transform="translate(0 0.015625)"/>
     <use xlink:href="#DejaVuSerif-65" transform="translate(31.982422 0.015625)"/>
     <use xlink:href="#DejaVuSerif-61" transform="translate(91.162109 0.015625)"/>
     <use xlink:href="#DejaVuSerif-6b" transform="translate(150.78125 0.015625)"/>
     <use xlink:href="#DejaVuSerif-20" transform="translate(211.376953 0.015625)"/>
     <use xlink:href="#Cmr10-3d" transform="translate(260.722656 0.015625)"/>
     <use xlink:href="#Cmr10-39" transform="translate(355.966797 0.015625)"/>
     <use xlink:href="#Cmr10-33" transform="translate(405.966797 0.015625)"/>
     <use xlink:href="#Cmmi10-3a" transform="translate(455.966797 0.015625)"/>
     <use xlink:href="#Cmr10-36" transform="translate(483.652344 0.015625)"/>
     <use xlink:href="#DejaVuSerif-25" transform="translate(533.652344 0.015625)"/>
    </g>
   </g>
   <g id="text_34">
    <!-- $t = 6$ -->
    <g transform="translate(869.737754 49.584) scale(0.13 -0.13)">
     <use xlink:href="#Cmmi10-74" transform="translate(0 0.390625)"/>
     <use xlink:href="#Cmr10-3d" transform="translate(53.642578 0.390625)"/>
     <use xlink:href="#Cmr10-36" transform="translate(148.886719 0.390625)"/>
    </g>
   </g>
  </g>
  <g id="text_35">
   <!-- FSP distribution snapshots:  adequate ($N_{\max}\!=\!25$)  vs.  truncated ($N_{\max}\!=\!5$) -->
   <g transform="translate(227.505313 17.84) scale(0.14 -0.14)">
    <defs>
     <path id="DejaVuSerif-Bold-46" d="M 300 0 
L 300 378 
L 897 378 
L 897 4288 
L 300 4288 
L 300 4666 
L 4459 4666 
L 4459 3566 
L 4031 3566 
L 4031 4238 
L 2106 4238 
L 2106 2741 
L 3291 2741 
L 3291 3334 
L 3719 3334 
L 3719 1722 
L 3291 1722 
L 3291 2316 
L 2106 2316 
L 2106 378 
L 2841 378 
L 2841 0 
L 300 0 
z
" transform="scale(0.015625)"/>
     <path id="DejaVuSerif-Bold-53" d="M 494 225 
L 494 1331 
L 891 1331 
Q 981 806 1318 547 
Q 1656 288 2253 288 
Q 2738 288 2991 472 
Q 3244 656 3244 1013 
Q 3244 1294 3072 1450 
Q 2900 1606 2363 1741 
L 1663 1913 
Q 978 2088 700 2398 
Q 422 2709 422 3284 
Q 422 3978 883 4364 
Q 1344 4750 2175 4750 
Q 2584 4750 3026 4681 
Q 3469 4613 3944 4475 
L 3944 3444 
L 3547 3444 
Q 3456 3925 3150 4148 
Q 2844 4372 2278 4372 
Q 1816 4372 1580 4211 
Q 1344 4050 1344 3731 
Q 1344 3441 1506 3289 
Q 1669 3138 2303 2975 
L 3003 2803 
Q 3653 2641 3945 2297 
Q 4238 1953 4238 1350 
Q 4238 644 3750 276 
Q 3263 -91 2316 -91 
Q 1859 -91 1409 -12 
Q 959 66 494 225 
z
" transform="scale(0.015625)"/>
     <path id="DejaVuSerif-Bold-50" d="M 300 0 
L 300 378 
L 897 378 
L 897 4288 
L 300 4288 
L 300 4666 
L 2956 4666 
Q 3734 4666 4193 4295 
Q 4653 3925 4653 3303 
Q 4653 2678 4192 2304 
Q 3731 1931 2956 1931 
L 2100 1931 
L 2100 378 
L 2853 378 
L 2853 0 
L 300 0 
z
M 2100 2309 
L 2450 2309 
Q 2856 2309 3098 2579 
Q 3341 2850 3341 3303 
Q 3341 3753 3100 4020 
Q 2859 4288 2450 4288 
L 2100 4288 
L 2100 2309 
z
" transform="scale(0.015625)"/>
     <path id="DejaVuSerif-Bold-20" transform="scale(0.015625)"/>
     <path id="DejaVuSerif-Bold-64" d="M 2747 1497 
L 2747 1825 
Q 2747 2406 2597 2665 
Q 2447 2925 2119 2925 
Q 1775 2925 1636 2651 
Q 1497 2378 1497 1663 
Q 1497 947 1637 672 
Q 1778 397 2119 397 
Q 2447 397 2597 656 
Q 2747 916 2747 1497 
z
M 3853 378 
L 4325 378 
L 4325 0 
L 2747 0 
L 2747 422 
Q 2606 163 2367 36 
Q 2128 -91 1778 -91 
Q 1072 -91 667 378 
Q 263 847 263 1663 
Q 263 2481 667 2947 
Q 1072 3413 1778 3413 
Q 2128 3413 2367 3286 
Q 2606 3159 2747 2900 
L 2747 4488 
L 2272 4488 
L 2272 4863 
L 3853 4863 
L 3853 378 
z
" transform="scale(0.015625)"/>
     <path id="DejaVuSerif-Bold-69" d="M 588 4263 
Q 588 4516 763 4689 
Q 938 4863 1191 4863 
Q 1438 4863 1611 4689 
Q 1784 4516 1784 4263 
Q 1784 4016 1611 3842 
Q 1438 3669 1191 3669 
Q 938 3669 763 3841 
Q 588 4013 588 4263 
z
M 1797 378 
L 2272 378 
L 2272 0 
L 219 0 
L 219 378 
L 691 378 
L 691 2944 
L 219 2944 
L 219 3322 
L 1797 3322 
L 1797 378 
z
" transform="scale(0.015625)"/>
     <path id="DejaVuSerif-Bold-73" d="M 300 97 
L 300 1025 
L 653 1025 
Q 697 653 931 458 
Q 1166 263 1569 263 
Q 1906 263 2086 380 
Q 2266 497 2266 716 
Q 2266 916 2152 1025 
Q 2038 1134 1709 1216 
L 1253 1331 
Q 738 1459 506 1698 
Q 275 1938 275 2344 
Q 275 2884 650 3148 
Q 1025 3413 1806 3413 
Q 2100 3413 2433 3364 
Q 2766 3316 3169 3213 
L 3169 2375 
L 2816 2375 
Q 2788 2716 2573 2887 
Q 2359 3059 1959 3059 
Q 1622 3059 1448 2951 
Q 1275 2844 1275 2638 
Q 1275 2469 1375 2372 
Q 1475 2275 1734 2209 
L 2188 2094 
Q 2841 1928 3091 1684 
Q 3341 1441 3341 1006 
Q 3341 444 2939 176 
Q 2538 -91 1691 -91 
Q 1381 -91 1034 -44 
Q 688 3 300 97 
z
" transform="scale(0.015625)"/>
     <path id="DejaVuSerif-Bold-74" d="M 634 2944 
L 153 2944 
L 153 3322 
L 634 3322 
L 634 4353 
L 1741 4353 
L 1741 3322 
L 2663 3322 
L 2663 2944 
L 1741 2944 
L 1741 909 
Q 1741 475 1809 369 
Q 1878 263 2059 263 
Q 2259 263 2356 397 
Q 2453 531 2459 813 
L 2925 813 
Q 2897 313 2651 111 
Q 2406 -91 1806 -91 
Q 1122 -91 878 123 
Q 634 338 634 909 
L 634 2944 
z
" transform="scale(0.015625)"/>
     <path id="DejaVuSerif-Bold-72" d="M 3438 3359 
L 3438 2369 
L 3084 2369 
Q 3066 2634 2941 2764 
Q 2816 2894 2578 2894 
Q 2216 2894 2006 2575 
Q 1797 2256 1797 1691 
L 1797 378 
L 2400 378 
L 2400 0 
L 219 0 
L 219 378 
L 691 378 
L 691 2944 
L 184 2944 
L 184 3322 
L 1797 3322 
L 1797 2731 
Q 1959 3078 2226 3245 
Q 2494 3413 2881 3413 
Q 2978 3413 3117 3398 
Q 3256 3384 3438 3359 
z
" transform="scale(0.015625)"/>
     <path id="DejaVuSerif-Bold-62" d="M 622 378 
L 622 4488 
L 147 4488 
L 147 4863 
L 1728 4863 
L 1728 2900 
Q 1869 3159 2106 3286 
Q 2344 3413 2694 3413 
Q 3403 3413 3811 2945 
Q 4219 2478 4219 1663 
Q 4219 847 3811 378 
Q 3403 -91 2694 -91 
Q 2344 -91 2106 36 
Q 1869 163 1728 422 
L 1728 0 
L 147 0 
L 147 378 
L 622 378 
z
M 1728 1497 
Q 1728 916 1876 656 
Q 2025 397 2356 397 
Q 2697 397 2836 672 
Q 2975 947 2975 1663 
Q 2975 2378 2836 2651 
Q 2697 2925 2356 2925 
Q 2025 2925 1876 2665 
Q 1728 2406 1728 1825 
L 1728 1497 
z
" transform="scale(0.015625)"/>
     <path id="DejaVuSerif-Bold-75" d="M 3963 3322 
L 3963 378 
L 4434 378 
L 4434 0 
L 2853 0 
L 2853 469 
Q 2656 172 2400 40 
Q 2144 -91 1753 -91 
Q 1194 -91 908 239 
Q 622 569 622 1209 
L 622 2944 
L 147 2944 
L 147 3322 
L 1728 3322 
L 1728 1381 
Q 1728 763 1831 595 
Q 1934 428 2209 428 
Q 2544 428 2698 675 
Q 2853 922 2853 1459 
L 2853 2944 
L 2450 2944 
L 2450 3322 
L 3963 3322 
z
" transform="scale(0.015625)"/>
     <path id="DejaVuSerif-Bold-6f" d="M 2138 263 
Q 2488 263 2630 563 
Q 2772 863 2772 1663 
Q 2772 2463 2631 2761 
Q 2491 3059 2138 3059 
Q 1784 3059 1640 2757 
Q 1497 2456 1497 1663 
Q 1497 869 1640 566 
Q 1784 263 2138 263 
z
M 2138 -91 
Q 1259 -91 761 376 
Q 263 844 263 1663 
Q 263 2484 761 2948 
Q 1259 3413 2138 3413 
Q 3019 3413 3516 2948 
Q 4013 2484 4013 1663 
Q 4013 844 3514 376 
Q 3016 -91 2138 -91 
z
" transform="scale(0.015625)"/>
     <path id="DejaVuSerif-Bold-6e" d="M 219 0 
L 219 378 
L 691 378 
L 691 2944 
L 219 2944 
L 219 3322 
L 1797 3322 
L 1797 2853 
Q 1997 3150 2253 3281 
Q 2509 3413 2900 3413 
Q 3459 3413 3745 3083 
Q 4031 2753 4031 2113 
L 4031 378 
L 4506 378 
L 4506 0 
L 2522 0 
L 2522 378 
L 2925 378 
L 2925 2144 
Q 2925 2566 2817 2730 
Q 2709 2894 2444 2894 
Q 2109 2894 1953 2648 
Q 1797 2403 1797 1869 
L 1797 378 
L 2203 378 
L 2203 0 
L 219 0 
z
" transform="scale(0.015625)"/>
     <path id="DejaVuSerif-Bold-61" d="M 3525 2041 
L 3525 378 
L 4000 378 
L 4000 0 
L 2419 0 
L 2419 422 
Q 2200 159 1931 34 
Q 1663 -91 1319 -91 
Q 809 -91 536 182 
Q 263 456 263 966 
Q 263 1525 655 1803 
Q 1047 2081 1838 2081 
L 2419 2081 
L 2419 2278 
Q 2419 2681 2228 2873 
Q 2038 3066 1638 3066 
Q 1306 3066 1126 2930 
Q 947 2794 872 2484 
L 519 2484 
L 519 3200 
Q 816 3306 1134 3359 
Q 1453 3413 1806 3413 
Q 2697 3413 3111 3081 
Q 3525 2750 3525 2041 
z
M 2419 1044 
L 2419 1709 
L 2003 1709 
Q 1694 1709 1528 1540 
Q 1363 1372 1363 1056 
Q 1363 741 1483 584 
Q 1603 428 1850 428 
Q 2106 428 2262 597 
Q 2419 766 2419 1044 
z
" transform="scale(0.015625)"/>
     <path id="DejaVuSerif-Bold-70" d="M 1728 1825 
L 1728 1497 
Q 1728 916 1876 656 
Q 2025 397 2356 397 
Q 2697 397 2836 672 
Q 2975 947 2975 1663 
Q 2975 2378 2836 2651 
Q 2697 2925 2356 2925 
Q 2025 2925 1876 2665 
Q 1728 2406 1728 1825 
z
M 622 2944 
L 147 2944 
L 147 3322 
L 1728 3322 
L 1728 2900 
Q 1869 3159 2106 3286 
Q 2344 3413 2694 3413 
Q 3403 3413 3811 2945 
Q 4219 2478 4219 1663 
Q 4219 847 3811 378 
Q 3403 -91 2694 -91 
Q 2344 -91 2106 36 
Q 1869 163 1728 422 
L 1728 -953 
L 2241 -953 
L 2241 -1331 
L 147 -1331 
L 147 -953 
L 622 -953 
L 622 2944 
z
" transform="scale(0.015625)"/>
     <path id="DejaVuSerif-Bold-68" d="M 219 0 
L 219 378 
L 691 378 
L 691 4488 
L 197 4488 
L 197 4863 
L 1797 4863 
L 1797 2853 
Q 1997 3150 2253 3281 
Q 2509 3413 2900 3413 
Q 3459 3413 3745 3083 
Q 4031 2753 4031 2113 
L 4031 378 
L 4506 378 
L 4506 0 
L 2522 0 
L 2522 378 
L 2925 378 
L 2925 2144 
Q 2925 2566 2817 2730 
Q 2709 2894 2444 2894 
Q 2109 2894 1953 2648 
Q 1797 2403 1797 1869 
L 1797 378 
L 2203 378 
L 2203 0 
L 219 0 
z
" transform="scale(0.015625)"/>
     <path id="DejaVuSerif-Bold-3a" d="M 588 2541 
Q 588 2788 761 2963 
Q 934 3138 1178 3138 
Q 1422 3138 1597 2961 
Q 1772 2784 1772 2541 
Q 1772 2297 1598 2125 
Q 1425 1953 1178 1953 
Q 931 1953 759 2125 
Q 588 2297 588 2541 
z
M 588 506 
Q 588 750 761 925 
Q 934 1100 1178 1100 
Q 1422 1100 1597 925 
Q 1772 750 1772 506 
Q 1772 259 1597 84 
Q 1422 -91 1178 -91 
Q 934 -91 761 84 
Q 588 259 588 506 
z
" transform="scale(0.015625)"/>
     <path id="DejaVuSerif-Bold-65" d="M 2566 1875 
Q 2566 2531 2444 2795 
Q 2322 3059 2028 3059 
Q 1744 3059 1620 2800 
Q 1497 2541 1497 1931 
L 1497 1875 
L 2566 1875 
z
M 3781 1503 
L 1497 1503 
L 1497 1478 
Q 1497 834 1690 548 
Q 1884 263 2316 263 
Q 2675 263 2897 453 
Q 3119 644 3181 1006 
L 3700 1006 
Q 3566 441 3166 175 
Q 2766 -91 2047 -91 
Q 1184 -91 723 364 
Q 263 819 263 1663 
Q 263 2488 734 2950 
Q 1206 3413 2047 3413 
Q 2872 3413 3312 2927 
Q 3753 2441 3781 1503 
z
" transform="scale(0.015625)"/>
     <path id="DejaVuSerif-Bold-71" d="M 3853 2944 
L 3853 -953 
L 4325 -953 
L 4325 -1331 
L 2234 -1331 
L 2234 -953 
L 2747 -953 
L 2747 422 
Q 2606 163 2367 36 
Q 2128 -91 1778 -91 
Q 1072 -91 667 378 
Q 263 847 263 1663 
Q 263 2481 667 2947 
Q 1072 3413 1778 3413 
Q 2128 3413 2367 3286 
Q 2606 3159 2747 2900 
L 2747 3322 
L 4325 3322 
L 4325 2944 
L 3853 2944 
z
M 2747 1825 
Q 2747 2406 2597 2665 
Q 2447 2925 2119 2925 
Q 1775 2925 1636 2651 
Q 1497 2378 1497 1663 
Q 1497 947 1637 672 
Q 1778 397 2119 397 
Q 2447 397 2597 656 
Q 2747 916 2747 1497 
L 2747 1825 
z
" transform="scale(0.015625)"/>
     <path id="DejaVuSerif-Bold-28" d="M 2694 -997 
Q 1641 -606 1122 122 
Q 603 850 603 1931 
Q 603 3013 1115 3731 
Q 1628 4450 2694 4863 
L 2694 4488 
Q 2200 4188 1983 3598 
Q 1766 3009 1766 1931 
Q 1766 856 1983 267 
Q 2200 -322 2694 -622 
L 2694 -997 
z
" transform="scale(0.015625)"/>
     <path id="DejaVuSerif-Bold-29" d="M 325 -997 
L 325 -622 
Q 819 -322 1036 267 
Q 1253 856 1253 1931 
Q 1253 3009 1036 3598 
Q 819 4188 325 4488 
L 325 4863 
Q 1391 4450 1905 3731 
Q 2419 3013 2419 1931 
Q 2419 850 1898 122 
Q 1378 -606 325 -997 
z
" transform="scale(0.015625)"/>
     <path id="DejaVuSerif-Bold-76" d="M 1428 0 
L 250 2944 
L -116 2944 
L -116 3322 
L 1791 3322 
L 1791 2944 
L 1388 2944 
L 2228 844 
L 3066 2944 
L 2631 2944 
L 2631 3322 
L 3878 3322 
L 3878 2944 
L 3494 2944 
L 2316 0 
L 1428 0 
z
" transform="scale(0.015625)"/>
     <path id="DejaVuSerif-Bold-2e" d="M 519 506 
Q 519 750 694 925 
Q 869 1100 1113 1100 
Q 1359 1100 1534 925 
Q 1709 750 1709 506 
Q 1709 259 1534 84 
Q 1359 -91 1113 -91 
Q 869 -91 694 84 
Q 519 259 519 506 
z
" transform="scale(0.015625)"/>
     <path id="DejaVuSerif-Bold-63" d="M 3609 1038 
Q 3491 469 3123 189 
Q 2756 -91 2125 -91 
Q 1238 -91 750 368 
Q 263 828 263 1663 
Q 263 2488 744 2950 
Q 1225 3413 2081 3413 
Q 2428 3413 2781 3347 
Q 3134 3281 3500 3150 
L 3500 2228 
L 3150 2228 
Q 3100 2650 2903 2854 
Q 2706 3059 2350 3059 
Q 1888 3059 1692 2746 
Q 1497 2434 1497 1663 
Q 1497 909 1687 586 
Q 1878 263 2309 263 
Q 2644 263 2845 463 
Q 3047 663 3091 1038 
L 3609 1038 
z
" transform="scale(0.015625)"/>
    </defs>
    <use xlink:href="#DejaVuSerif-Bold-46" transform="translate(0 0.015625)"/>
    <use xlink:href="#DejaVuSerif-Bold-53" transform="translate(70.996094 0.015625)"/>
    <use xlink:href="#DejaVuSerif-Bold-50" transform="translate(143.212891 0.015625)"/>
    <use xlink:href="#DejaVuSerif-Bold-20" transform="translate(218.408203 0.015625)"/>
    <use xlink:href="#DejaVuSerif-Bold-64" transform="translate(253.222656 0.015625)"/>
    <use xlink:href="#DejaVuSerif-Bold-69" transform="translate(323.144531 0.015625)"/>
    <use xlink:href="#DejaVuSerif-Bold-73" transform="translate(361.132812 0.015625)"/>
    <use xlink:href="#DejaVuSerif-Bold-74" transform="translate(417.431641 0.015625)"/>
    <use xlink:href="#DejaVuSerif-Bold-72" transform="translate(463.623047 0.015625)"/>
    <use xlink:href="#DejaVuSerif-Bold-69" transform="translate(516.308594 0.015625)"/>
    <use xlink:href="#DejaVuSerif-Bold-62" transform="translate(554.296875 0.015625)"/>
    <use xlink:href="#DejaVuSerif-Bold-75" transform="translate(624.21875 0.015625)"/>
    <use xlink:href="#DejaVuSerif-Bold-74" transform="translate(696.923828 0.015625)"/>
    <use xlink:href="#DejaVuSerif-Bold-69" transform="translate(743.115234 0.015625)"/>
    <use xlink:href="#DejaVuSerif-Bold-6f" transform="translate(781.103516 0.015625)"/>
    <use xlink:href="#DejaVuSerif-Bold-6e" transform="translate(847.802734 0.015625)"/>
    <use xlink:href="#DejaVuSerif-Bold-20" transform="translate(920.507812 0.015625)"/>
    <use xlink:href="#DejaVuSerif-Bold-73" transform="translate(955.322266 0.015625)"/>
    <use xlink:href="#DejaVuSerif-Bold-6e" transform="translate(1011.621094 0.015625)"/>
    <use xlink:href="#DejaVuSerif-Bold-61" transform="translate(1084.326172 0.015625)"/>
    <use xlink:href="#DejaVuSerif-Bold-70" transform="translate(1149.121094 0.015625)"/>
    <use xlink:href="#DejaVuSerif-Bold-73" transform="translate(1219.042969 0.015625)"/>
    <use xlink:href="#DejaVuSerif-Bold-68" transform="translate(1275.341797 0.015625)"/>
    <use xlink:href="#DejaVuSerif-Bold-6f" transform="translate(1348.046875 0.015625)"/>
    <use xlink:href="#DejaVuSerif-Bold-74" transform="translate(1414.746094 0.015625)"/>
    <use xlink:href="#DejaVuSerif-Bold-73" transform="translate(1460.9375 0.015625)"/>
    <use xlink:href="#DejaVuSerif-Bold-3a" transform="translate(1517.236328 0.015625)"/>
    <use xlink:href="#DejaVuSerif-Bold-20" transform="translate(1554.150391 0.015625)"/>
    <use xlink:href="#DejaVuSerif-Bold-20" transform="translate(1588.964844 0.015625)"/>
    <use xlink:href="#DejaVuSerif-Bold-61" transform="translate(1623.779297 0.015625)"/>
    <use xlink:href="#DejaVuSerif-Bold-64" transform="translate(1688.574219 0.015625)"/>
    <use xlink:href="#DejaVuSerif-Bold-65" transform="translate(1758.496094 0.015625)"/>
    <use xlink:href="#DejaVuSerif-Bold-71" transform="translate(1822.119141 0.015625)"/>
    <use xlink:href="#DejaVuSerif-Bold-75" transform="translate(1892.041016 0.015625)"/>
    <use xlink:href="#DejaVuSerif-Bold-61" transform="translate(1964.746094 0.015625)"/>
    <use xlink:href="#DejaVuSerif-Bold-74" transform="translate(2029.541016 0.015625)"/>
    <use xlink:href="#DejaVuSerif-Bold-65" transform="translate(2075.732422 0.015625)"/>
    <use xlink:href="#DejaVuSerif-Bold-20" transform="translate(2139.355469 0.015625)"/>
    <use xlink:href="#DejaVuSerif-Bold-28" transform="translate(2174.169922 0.015625)"/>
    <use xlink:href="#Cmmi10-4e" transform="translate(2221.484375 0.015625)"/>
    <use xlink:href="#Cmr10-6d" transform="translate(2301.806641 -16.990625) scale(0.7)"/>
    <use xlink:href="#Cmr10-61" transform="translate(2360.117188 -16.990625) scale(0.7)"/>
    <use xlink:href="#Cmr10-78" transform="translate(2395.117188 -16.990625) scale(0.7)"/>
    <use xlink:href="#Cmr10-3d" transform="translate(2441.300554 0.015625)"/>
    <use xlink:href="#Cmr10-32" transform="translate(2521.91224 0.015625)"/>
    <use xlink:href="#Cmr10-35" transform="translate(2571.91224 0.015625)"/>
    <use xlink:href="#DejaVuSerif-Bold-29" transform="translate(2621.91224 0.015625)"/>
    <use xlink:href="#DejaVuSerif-Bold-20" transform="translate(2669.226693 0.015625)"/>
    <use xlink:href="#DejaVuSerif-Bold-20" transform="translate(2704.041146 0.015625)"/>
    <use xlink:href="#DejaVuSerif-Bold-76" transform="translate(2738.8556 0.015625)"/>
    <use xlink:href="#DejaVuSerif-Bold-73" transform="translate(2796.961068 0.015625)"/>
    <use xlink:href="#DejaVuSerif-Bold-2e" transform="translate(2853.259896 0.015625)"/>
    <use xlink:href="#DejaVuSerif-Bold-20" transform="translate(2888.07435 0.015625)"/>
    <use xlink:href="#DejaVuSerif-Bold-20" transform="translate(2922.888803 0.015625)"/>
    <use xlink:href="#DejaVuSerif-Bold-74" transform="translate(2957.703256 0.015625)"/>
    <use xlink:href="#DejaVuSerif-Bold-72" transform="translate(3003.894662 0.015625)"/>
    <use xlink:href="#DejaVuSerif-Bold-75" transform="translate(3056.580209 0.015625)"/>
    <use xlink:href="#DejaVuSerif-Bold-6e" transform="translate(3129.285287 0.015625)"/>
    <use xlink:href="#DejaVuSerif-Bold-63" transform="translate(3201.990365 0.015625)"/>
    <use xlink:href="#DejaVuSerif-Bold-61" transform="translate(3262.879037 0.015625)"/>
    <use xlink:href="#DejaVuSerif-Bold-74" transform="translate(3327.673959 0.015625)"/>
    <use xlink:href="#DejaVuSerif-Bold-65" transform="translate(3373.865365 0.015625)"/>
    <use xlink:href="#DejaVuSerif-Bold-64" transform="translate(3437.488412 0.015625)"/>
    <use xlink:href="#DejaVuSerif-Bold-20" transform="translate(3507.410287 0.015625)"/>
    <use xlink:href="#DejaVuSerif-Bold-28" transform="translate(3542.22474 0.015625)"/>
    <use xlink:href="#Cmmi10-4e" transform="translate(3589.539193 0.015625)"/>
    <use xlink:href="#Cmr10-6d" transform="translate(3669.861459 -16.990625) scale(0.7)"/>
    <use xlink:href="#Cmr10-61" transform="translate(3728.172006 -16.990625) scale(0.7)"/>
    <use xlink:href="#Cmr10-78" transform="translate(3763.172006 -16.990625) scale(0.7)"/>
    <use xlink:href="#Cmr10-3d" transform="translate(3809.355372 0.015625)"/>
    <use xlink:href="#Cmr10-35" transform="translate(3889.967059 0.015625)"/>
    <use xlink:href="#DejaVuSerif-Bold-29" transform="translate(3939.967059 0.015625)"/>
   </g>
  </g>
 </g>
 <defs>
  <clipPath id="p0c12c78607">
   <rect x="63.145313" y="55.584" width="215.665116" height="205.632"/>
  </clipPath>
  <clipPath id="pbc832f3504">
   <rect x="300.37694" y="55.584" width="215.665116" height="205.632"/>
  </clipPath>
  <clipPath id="pe0e7cfe28e">
   <rect x="537.608568" y="55.584" width="215.665116" height="205.632"/>
  </clipPath>
  <clipPath id="p1307a748b5">
   <rect x="774.840196" y="55.584" width="215.665116" height="205.632"/>
  </clipPath>
 </defs>
</svg>
