<?xml version="1.0" encoding="utf-8" standalone="no"?>
<!DOCTYPE svg PUBLIC "-//W3C//DTD SVG 1.1//EN"
  "http://www.w3.org/Graphics/SVG/1.1/DTD/svg11.dtd">
<svg xmlns:xlink="http://www.w3.org/1999/xlink" width="530.4pt" height="498.24pt" viewBox="0 0 530.4 498.24" xmlns="http://www.w3.org/2000/svg" version="1.1">
 <metadata>
  <rdf:RDF xmlns:dc="http://purl.org/dc/elements/1.1/" xmlns:cc="http://creativecommons.org/ns#" xmlns:rdf="http://www.w3.org/1999/02/22-rdf-syntax-ns#">
   <cc:Work>
    <dc:type rdf:resource="http://purl.org/dc/dcmitype/StillImage"/>
    <dc:date>2026-06-08T13:37:28.888850</dc:date>
    <dc:format>image/svg+xml</dc:format>
    <dc:creator>
     <cc:Agent>
      <dc:title>Matplotlib v3.10.8, https://matplotlib.org/</dc:title>
     </cc:Agent>
    </dc:creator>
   </cc:Work>
  </rdf:RDF>
 </metadata>
 <defs>
  <style type="text/css">*{stroke-linejoin: round; stroke-linecap: butt}</style>
 </defs>
 <g id="figure_1">
  <g id="patch_1">
   <path d="M 0 498.24 
L 530.4 498.24 
L 530.4 0 
L 0 0 
z
" style="fill: #ffffff"/>
  </g>
  <g id="axes_1">
   <g id="patch_2">
    <path d="M 145.372354 155.063989 
Q 182.640859 163.564047 216.20323 155.908917 
" style="fill: none; stroke: #a2142f; stroke-width: 3.4; stroke-linecap: round"/>
    <path d="M 209.773228 154.339496 
L 216.20323 155.908917 
L 211.089692 160.111266 
z
" style="fill: #a2142f; stroke: #a2142f; stroke-width: 3.4; stroke-linecap: round"/>
   </g>
   <g id="patch_3">
    <path d="M 219.907646 166.536011 
Q 182.639141 158.035953 149.07677 165.691083 
" style="fill: none; stroke: #a2142f; stroke-width: 3.4; stroke-linecap: round"/>
    <path d="M 155.506772 167.260504 
L 149.07677 165.691083 
L 154.190308 161.488734 
z
" style="fill: #a2142f; stroke: #a2142f; stroke-width: 3.4; stroke-linecap: round"/>
   </g>
   <g id="patch_4">
    <path d="M 310.492354 155.063989 
Q 347.760859 163.564047 379.579166 156.306715 
" style="fill: none; stroke: #edb120; stroke-width: 5; stroke-linecap: round"/>
    <path d="M 371.758894 154.397959 
L 379.579166 156.306715 
L 373.359999 161.417679 
z
" style="fill: #edb120; stroke: #edb120; stroke-width: 5; stroke-linecap: round"/>
   </g>
   <g id="patch_5">
    <path d="M 385.027646 166.536011 
Q 347.759141 158.035953 314.242861 165.68057 
" style="fill: none; stroke: #edb120; stroke-width: 3.442284; stroke-linecap: round"/>
    <path d="M 320.709604 167.258959 
L 314.242861 165.68057 
L 319.385618 161.454209 
z
" style="fill: #edb120; stroke: #edb120; stroke-width: 3.442284; stroke-linecap: round"/>
   </g>
   <g id="patch_6">
    <path d="M 225.867598 330.504397 
Q 265.200831 339.498993 300.106451 331.516552 
" style="fill: none; stroke: #7e2f8e; stroke-width: 4.062412; stroke-linecap: round"/>
    <path d="M 293.099893 329.810637 
L 300.106451 331.516552 
L 294.537784 336.098249 
z
" style="fill: #7e2f8e; stroke: #7e2f8e; stroke-width: 4.062412; stroke-linecap: round"/>
   </g>
   <g id="patch_7">
    <path d="M 304.532402 341.975603 
Q 265.199169 332.981007 228.595798 341.351701 
" style="fill: none; stroke: #7e2f8e; stroke-width: 2.504696; stroke-linecap: round"/>
    <path d="M 234.248638 342.72802 
L 228.595798 341.351701 
L 233.088558 337.65522 
z
" style="fill: #7e2f8e; stroke: #7e2f8e; stroke-width: 2.504696; stroke-linecap: round"/>
   </g>
   <g id="patch_8">
    <path d="M 100.08 196.92 
C 109.659136 196.92 118.847225 193.114169 125.620697 186.340697 
C 132.394169 179.567225 136.2 170.379136 136.2 160.8 
C 136.2 151.220864 132.394169 142.032775 125.620697 135.259303 
C 118.847225 128.485831 109.659136 124.68 100.08 124.68 
C 90.500864 124.68 81.312775 128.485831 74.539303 135.259303 
C 67.765831 142.032775 63.96 151.220864 63.96 160.8 
C 63.96 170.379136 67.765831 179.567225 74.539303 186.340697 
C 81.312775 193.114169 90.500864 196.92 100.08 196.92 
z
" clip-path="url(#pb7a2e33be2)" style="fill: #ffffff; stroke: #737373; stroke-width: 2.5; stroke-linejoin: miter"/>
   </g>
   <g id="patch_9">
    <path d="M 265.2 207.24 
C 277.516032 207.24 289.329289 202.346789 298.038039 193.638039 
C 306.746789 184.929289 311.64 173.116032 311.64 160.8 
C 311.64 148.483968 306.746789 136.670711 298.038039 127.961961 
C 289.329289 119.253211 277.516032 114.36 265.2 114.36 
C 252.883968 114.36 241.070711 119.253211 232.361961 127.961961 
C 223.653211 136.670711 218.76 148.483968 218.76 160.8 
C 218.76 173.116032 223.653211 184.929289 232.361961 193.638039 
C 241.070711 202.346789 252.883968 207.24 265.2 207.24 
z
" clip-path="url(#pb7a2e33be2)" style="fill: #ffffff; stroke: #7e2f8e; stroke-width: 2.5; stroke-linejoin: miter"/>
   </g>
   <g id="patch_10">
    <path d="M 430.32 196.92 
C 439.899136 196.92 449.087225 193.114169 455.860697 186.340697 
C 462.634169 179.567225 466.44 170.379136 466.44 160.8 
C 466.44 151.220864 462.634169 142.032775 455.860697 135.259303 
C 449.087225 128.485831 439.899136 124.68 430.32 124.68 
C 420.740864 124.68 411.552775 128.485831 404.779303 135.259303 
C 398.005831 142.032775 394.2 151.220864 394.2 160.8 
C 394.2 170.379136 398.005831 179.567225 404.779303 186.340697 
C 411.552775 193.114169 420.740864 196.92 430.32 196.92 
z
" clip-path="url(#pb7a2e33be2)" style="fill: #ffffff; stroke: #0072bd; stroke-width: 2.5; stroke-linejoin: miter"/>
   </g>
   <g id="patch_11">
    <path d="M 182.64 369.264 
C 191.398067 369.264 199.798606 365.784383 205.991494 359.591494 
C 212.184383 353.398606 215.664 344.998067 215.664 336.24 
C 215.664 327.481933 212.184383 319.081394 205.991494 312.888506 
C 199.798606 306.695617 191.398067 303.216 182.64 303.216 
C 173.881933 303.216 165.481394 306.695617 159.288506 312.888506 
C 153.095617 319.081394 149.616 327.481933 149.616 336.24 
C 149.616 344.998067 153.095617 353.398606 159.288506 359.591494 
C 165.481394 365.784383 173.881933 369.264 182.64 369.264 
z
" clip-path="url(#pb7a2e33be2)" style="fill: #ffffff; stroke: #77ac30; stroke-width: 2.5; stroke-linejoin: miter"/>
   </g>
   <g id="patch_12">
    <path d="M 347.76 369.264 
C 356.518067 369.264 364.918606 365.784383 371.111494 359.591494 
C 377.304383 353.398606 380.784 344.998067 380.784 336.24 
C 380.784 327.481933 377.304383 319.081394 371.111494 312.888506 
C 364.918606 306.695617 356.518067 303.216 347.76 303.216 
C 339.001933 303.216 330.601394 306.695617 324.408506 312.888506 
C 318.215617 319.081394 314.736 327.481933 314.736 336.24 
C 314.736 344.998067 318.215617 353.398606 324.408506 359.591494 
C 330.601394 365.784383 339.001933 369.264 347.76 369.264 
z
" clip-path="url(#pb7a2e33be2)" style="fill: #ffffff; stroke: #d95319; stroke-width: 2.5; stroke-linejoin: miter"/>
   </g>
   <g id="text_1">
    <g id="patch_13">
     <path d="M 171.938125 139.67645 
L 193.341875 139.67645 
L 193.341875 130.01395 
L 171.938125 130.01395 
z
" style="fill: #ffffff; opacity: 0.85"/>
    </g>
    <!-- 2.00 -->
    <g style="fill: #a2142f" transform="translate(172.898125 137.0527) scale(0.08 -0.08)">
     <defs>
      <path id="DejaVuSerif-Bold-32" d="M 844 3513 
L 469 3513 
L 469 4519 
Q 850 4634 1223 4692 
Q 1597 4750 1978 4750 
Q 2869 4750 3367 4386 
Q 3866 4022 3866 3372 
Q 3866 2909 3591 2542 
Q 3316 2175 2541 1672 
L 1241 819 
L 3450 819 
L 3450 1369 
L 3878 1369 
L 3878 0 
L 428 0 
L 428 763 
L 1119 1241 
Q 2003 1850 2297 2278 
Q 2591 2706 2591 3278 
Q 2591 3819 2367 4101 
Q 2144 4384 1716 4384 
Q 1347 4384 1125 4161 
Q 903 3938 844 3513 
z
" transform="scale(0.015625)"/>
      <path id="DejaVuSerif-Bold-2e" d="M 519 506 
Q 519 750 694 925 
Q 869 1100 1113 1100 
Q 1359 1100 1534 925 
Q 1709 750 1709 506 
Q 1709 259 1534 84 
Q 1359 -91 1113 -91 
Q 869 -91 694 84 
Q 519 259 519 506 
z
" transform="scale(0.015625)"/>
      <path id="DejaVuSerif-Bold-30" d="M 2228 275 
Q 2603 275 2742 615 
Q 2881 956 2881 2328 
Q 2881 3691 2742 4037 
Q 2603 4384 2228 4384 
Q 1853 4384 1714 4043 
Q 1575 3703 1575 2328 
Q 1575 956 1714 615 
Q 1853 275 2228 275 
z
M 2228 -91 
Q 1294 -91 797 532 
Q 300 1156 300 2328 
Q 300 3500 797 4125 
Q 1294 4750 2228 4750 
Q 3159 4750 3656 4125 
Q 4153 3500 4153 2328 
Q 4153 1156 3656 532 
Q 3159 -91 2228 -91 
z
" transform="scale(0.015625)"/>
     </defs>
     <use xlink:href="#DejaVuSerif-Bold-32"/>
     <use xlink:href="#DejaVuSerif-Bold-2e" transform="translate(69.580078 0)"/>
     <use xlink:href="#DejaVuSerif-Bold-30" transform="translate(104.394531 0)"/>
     <use xlink:href="#DejaVuSerif-Bold-30" transform="translate(173.974609 0)"/>
    </g>
   </g>
   <g id="text_2">
    <g id="patch_14">
     <path d="M 171.938125 191.58605 
L 193.341875 191.58605 
L 193.341875 181.92355 
L 171.938125 181.92355 
z
" style="fill: #ffffff; opacity: 0.85"/>
    </g>
    <!-- 2.00 -->
    <g style="fill: #a2142f" transform="translate(172.898125 188.9623) scale(0.08 -0.08)">
     <use xlink:href="#DejaVuSerif-Bold-32"/>
     <use xlink:href="#DejaVuSerif-Bold-2e" transform="translate(69.580078 0)"/>
     <use xlink:href="#DejaVuSerif-Bold-30" transform="translate(104.394531 0)"/>
     <use xlink:href="#DejaVuSerif-Bold-30" transform="translate(173.974609 0)"/>
    </g>
   </g>
   <g id="text_3">
    <g id="patch_15">
     <path d="M 337.058125 139.67645 
L 358.461875 139.67645 
L 358.461875 130.01395 
L 337.058125 130.01395 
z
" style="fill: #ffffff; opacity: 0.85"/>
    </g>
    <!-- 3.33 -->
    <g style="fill: #edb120" transform="translate(338.018125 137.0527) scale(0.08 -0.08)">
     <defs>
      <path id="DejaVuSerif-Bold-33" d="M 550 4531 
Q 963 4641 1350 4695 
Q 1738 4750 2106 4750 
Q 2950 4750 3401 4448 
Q 3853 4147 3853 3584 
Q 3853 3163 3593 2900 
Q 3334 2638 2834 2547 
Q 3444 2450 3744 2131 
Q 4044 1813 4044 1259 
Q 4044 606 3526 257 
Q 3009 -91 2028 -91 
Q 1659 -91 1267 -28 
Q 875 34 447 159 
L 447 1184 
L 825 1184 
Q 859 741 1103 508 
Q 1347 275 1778 275 
Q 2253 275 2512 539 
Q 2772 803 2772 1288 
Q 2772 1794 2501 2069 
Q 2231 2344 1734 2344 
L 1528 2344 
L 1528 2719 
L 1691 2719 
Q 2150 2719 2381 2931 
Q 2613 3144 2613 3566 
Q 2613 3963 2395 4173 
Q 2178 4384 1772 4384 
Q 1403 4384 1187 4182 
Q 972 3981 928 3597 
L 550 3597 
L 550 4531 
z
" transform="scale(0.015625)"/>
     </defs>
     <use xlink:href="#DejaVuSerif-Bold-33"/>
     <use xlink:href="#DejaVuSerif-Bold-2e" transform="translate(69.580078 0)"/>
     <use xlink:href="#DejaVuSerif-Bold-33" transform="translate(104.394531 0)"/>
     <use xlink:href="#DejaVuSerif-Bold-33" transform="translate(173.974609 0)"/>
    </g>
   </g>
   <g id="text_4">
    <g id="patch_16">
     <path d="M 337.058125 191.58605 
L 358.461875 191.58605 
L 358.461875 181.92355 
L 337.058125 181.92355 
z
" style="fill: #ffffff; opacity: 0.85"/>
    </g>
    <!-- 2.04 -->
    <g style="fill: #edb120" transform="translate(338.018125 188.9623) scale(0.08 -0.08)">
     <defs>
      <path id="DejaVuSerif-Bold-34" d="M 4084 0 
L 1516 0 
L 1516 378 
L 2209 378 
L 2209 1228 
L 263 1228 
L 263 1588 
L 2216 4750 
L 3391 4750 
L 3391 1631 
L 4191 1631 
L 4191 1228 
L 3391 1228 
L 3391 378 
L 4084 378 
L 4084 0 
z
M 2209 1631 
L 2209 3897 
L 819 1631 
L 2209 1631 
z
" transform="scale(0.015625)"/>
     </defs>
     <use xlink:href="#DejaVuSerif-Bold-32"/>
     <use xlink:href="#DejaVuSerif-Bold-2e" transform="translate(69.580078 0)"/>
     <use xlink:href="#DejaVuSerif-Bold-30" transform="translate(104.394531 0)"/>
     <use xlink:href="#DejaVuSerif-Bold-34" transform="translate(173.974609 0)"/>
    </g>
   </g>
   <g id="text_5">
    <g id="patch_17">
     <path d="M 254.498125 315.27125 
L 275.901875 315.27125 
L 275.901875 305.60875 
L 254.498125 305.60875 
z
" style="fill: #ffffff; opacity: 0.85"/>
    </g>
    <!-- 2.55 -->
    <g style="fill: #7e2f8e" transform="translate(255.458125 312.6475) scale(0.08 -0.08)">
     <defs>
      <path id="DejaVuSerif-Bold-35" d="M 3609 4666 
L 3609 3847 
L 1113 3847 
L 1113 2822 
Q 1319 2981 1572 3062 
Q 1825 3144 2106 3144 
Q 2969 3144 3469 2708 
Q 3969 2272 3969 1522 
Q 3969 759 3469 334 
Q 2969 -91 2069 -91 
Q 1688 -91 1311 -28 
Q 934 34 525 166 
L 525 1184 
L 900 1184 
Q 919 725 1139 500 
Q 1359 275 1791 275 
Q 2250 275 2472 583 
Q 2694 891 2694 1522 
Q 2694 2144 2476 2451 
Q 2259 2759 1819 2759 
Q 1581 2759 1395 2661 
Q 1209 2563 1050 2356 
L 738 2356 
L 738 4666 
L 3609 4666 
z
" transform="scale(0.015625)"/>
     </defs>
     <use xlink:href="#DejaVuSerif-Bold-32"/>
     <use xlink:href="#DejaVuSerif-Bold-2e" transform="translate(69.580078 0)"/>
     <use xlink:href="#DejaVuSerif-Bold-35" transform="translate(104.394531 0)"/>
     <use xlink:href="#DejaVuSerif-Bold-35" transform="translate(173.974609 0)"/>
    </g>
   </g>
   <g id="text_6">
    <g id="patch_18">
     <path d="M 254.498125 366.87125 
L 275.901875 366.87125 
L 275.901875 357.20875 
L 254.498125 357.20875 
z
" style="fill: #ffffff; opacity: 0.85"/>
    </g>
    <!-- 1.25 -->
    <g style="fill: #7e2f8e" transform="translate(255.458125 364.2475) scale(0.08 -0.08)">
     <defs>
      <path id="DejaVuSerif-Bold-31" d="M 878 0 
L 878 378 
L 1753 378 
L 1753 4153 
L 781 3578 
L 781 4044 
L 1953 4750 
L 2938 4750 
L 2938 378 
L 3816 378 
L 3816 0 
L 878 0 
z
" transform="scale(0.015625)"/>
     </defs>
     <use xlink:href="#DejaVuSerif-Bold-31"/>
     <use xlink:href="#DejaVuSerif-Bold-2e" transform="translate(69.580078 0)"/>
     <use xlink:href="#DejaVuSerif-Bold-32" transform="translate(104.394531 0)"/>
     <use xlink:href="#DejaVuSerif-Bold-35" transform="translate(173.974609 0)"/>
    </g>
   </g>
   <g id="text_7">
    <g id="patch_19">
     <path d="M 82.019062 246.906609 
L 118.140937 246.906609 
Q 120.390937 246.906609 120.390937 244.656609 
L 120.390937 228.912 
Q 120.390937 226.662 118.140937 226.662 
L 82.019062 226.662 
Q 79.769062 226.662 79.769062 228.912 
L 79.769062 244.656609 
Q 79.769062 246.906609 82.019062 246.906609 
z
" style="fill: #ffffff; opacity: 0.95; stroke: #77ac30; stroke-width: 1.5; stroke-linejoin: miter"/>
    </g>
    <!-- in=2.00 -->
    <g style="fill: #77ac30" transform="translate(84.27668 234.650672) scale(0.075 -0.075)">
     <defs>
      <path id="DejaVuSansMono-69" d="M 800 3500 
L 2272 3500 
L 2272 447 
L 3413 447 
L 3413 0 
L 556 0 
L 556 447 
L 1697 447 
L 1697 3053 
L 800 3053 
L 800 3500 
z
M 1697 4863 
L 2272 4863 
L 2272 4134 
L 1697 4134 
L 1697 4863 
z
" transform="scale(0.015625)"/>
      <path id="DejaVuSansMono-6e" d="M 3284 2169 
L 3284 0 
L 2706 0 
L 2706 2169 
Q 2706 2641 2540 2862 
Q 2375 3084 2022 3084 
Q 1619 3084 1401 2798 
Q 1184 2513 1184 1978 
L 1184 0 
L 609 0 
L 609 3500 
L 1184 3500 
L 1184 2975 
Q 1338 3275 1600 3429 
Q 1863 3584 2222 3584 
Q 2756 3584 3020 3232 
Q 3284 2881 3284 2169 
z
" transform="scale(0.015625)"/>
      <path id="DejaVuSansMono-3d" d="M 275 1638 
L 3578 1638 
L 3578 1100 
L 275 1100 
L 275 1638 
z
M 275 2906 
L 3578 2906 
L 3578 2375 
L 275 2375 
L 275 2906 
z
" transform="scale(0.015625)"/>
      <path id="DejaVuSansMono-32" d="M 1166 531 
L 3309 531 
L 3309 0 
L 475 0 
L 475 531 
Q 1059 1147 1496 1619 
Q 1934 2091 2100 2284 
Q 2413 2666 2522 2902 
Q 2631 3138 2631 3384 
Q 2631 3775 2401 3997 
Q 2172 4219 1772 4219 
Q 1488 4219 1175 4116 
Q 863 4013 513 3803 
L 513 4441 
Q 834 4594 1145 4672 
Q 1456 4750 1759 4750 
Q 2444 4750 2861 4386 
Q 3278 4022 3278 3431 
Q 3278 3131 3139 2831 
Q 3000 2531 2688 2169 
Q 2513 1966 2180 1606 
Q 1847 1247 1166 531 
z
" transform="scale(0.015625)"/>
      <path id="DejaVuSansMono-2e" d="M 1528 953 
L 2316 953 
L 2316 0 
L 1528 0 
L 1528 953 
z
" transform="scale(0.015625)"/>
      <path id="DejaVuSansMono-30" d="M 1509 2344 
Q 1509 2516 1629 2641 
Q 1750 2766 1919 2766 
Q 2094 2766 2219 2641 
Q 2344 2516 2344 2344 
Q 2344 2169 2220 2047 
Q 2097 1925 1919 1925 
Q 1744 1925 1626 2044 
Q 1509 2163 1509 2344 
z
M 1925 4250 
Q 1484 4250 1267 3775 
Q 1050 3300 1050 2328 
Q 1050 1359 1267 884 
Q 1484 409 1925 409 
Q 2369 409 2586 884 
Q 2803 1359 2803 2328 
Q 2803 3300 2586 3775 
Q 2369 4250 1925 4250 
z
M 1925 4750 
Q 2672 4750 3055 4137 
Q 3438 3525 3438 2328 
Q 3438 1134 3055 521 
Q 2672 -91 1925 -91 
Q 1178 -91 797 521 
Q 416 1134 416 2328 
Q 416 3525 797 4137 
Q 1178 4750 1925 4750 
z
" transform="scale(0.015625)"/>
     </defs>
     <use xlink:href="#DejaVuSansMono-69"/>
     <use xlink:href="#DejaVuSansMono-6e" transform="translate(60.205078 0)"/>
     <use xlink:href="#DejaVuSansMono-3d" transform="translate(120.410156 0)"/>
     <use xlink:href="#DejaVuSansMono-32" transform="translate(180.615234 0)"/>
     <use xlink:href="#DejaVuSansMono-2e" transform="translate(240.820312 0)"/>
     <use xlink:href="#DejaVuSansMono-30" transform="translate(301.025391 0)"/>
     <use xlink:href="#DejaVuSansMono-30" transform="translate(361.230469 0)"/>
    </g>
    <!-- out=2.00 -->
    <g style="fill: #77ac30" transform="translate(82.019062 243.096844) scale(0.075 -0.075)">
     <defs>
      <path id="DejaVuSansMono-6f" d="M 1925 3097 
Q 1488 3097 1263 2756 
Q 1038 2416 1038 1747 
Q 1038 1081 1263 739 
Q 1488 397 1925 397 
Q 2366 397 2591 739 
Q 2816 1081 2816 1747 
Q 2816 2416 2591 2756 
Q 2366 3097 1925 3097 
z
M 1925 3584 
Q 2653 3584 3039 3112 
Q 3425 2641 3425 1747 
Q 3425 850 3040 379 
Q 2656 -91 1925 -91 
Q 1197 -91 812 379 
Q 428 850 428 1747 
Q 428 2641 812 3112 
Q 1197 3584 1925 3584 
z
" transform="scale(0.015625)"/>
      <path id="DejaVuSansMono-75" d="M 609 1325 
L 609 3494 
L 1184 3494 
L 1184 1325 
Q 1184 853 1351 631 
Q 1519 409 1869 409 
Q 2275 409 2490 695 
Q 2706 981 2706 1516 
L 2706 3494 
L 3284 3494 
L 3284 0 
L 2706 0 
L 2706 525 
Q 2553 222 2289 65 
Q 2025 -91 1672 -91 
Q 1134 -91 871 261 
Q 609 613 609 1325 
z
" transform="scale(0.015625)"/>
      <path id="DejaVuSansMono-74" d="M 1919 4494 
L 1919 3500 
L 3225 3500 
L 3225 3053 
L 1919 3053 
L 1919 1153 
Q 1919 766 2066 612 
Q 2213 459 2578 459 
L 3225 459 
L 3225 0 
L 2522 0 
Q 1875 0 1609 259 
Q 1344 519 1344 1153 
L 1344 3053 
L 409 3053 
L 409 3500 
L 1344 3500 
L 1344 4494 
L 1919 4494 
z
" transform="scale(0.015625)"/>
     </defs>
     <use xlink:href="#DejaVuSansMono-6f"/>
     <use xlink:href="#DejaVuSansMono-75" transform="translate(60.205078 0)"/>
     <use xlink:href="#DejaVuSansMono-74" transform="translate(120.410156 0)"/>
     <use xlink:href="#DejaVuSansMono-3d" transform="translate(180.615234 0)"/>
     <use xlink:href="#DejaVuSansMono-32" transform="translate(240.820312 0)"/>
     <use xlink:href="#DejaVuSansMono-2e" transform="translate(301.025391 0)"/>
     <use xlink:href="#DejaVuSansMono-30" transform="translate(361.230469 0)"/>
     <use xlink:href="#DejaVuSansMono-30" transform="translate(421.435547 0)"/>
    </g>
   </g>
   <g id="text_8">
    <g id="patch_20">
     <path d="M 247.139062 246.906609 
L 283.260937 246.906609 
Q 285.510937 246.906609 285.510937 244.656609 
L 285.510937 228.912 
Q 285.510937 226.662 283.260937 226.662 
L 247.139062 226.662 
Q 244.889062 226.662 244.889062 228.912 
L 244.889062 244.656609 
Q 244.889062 246.906609 247.139062 246.906609 
z
" style="fill: #ffffff; opacity: 0.95; stroke: #a2142f; stroke-width: 1.5; stroke-linejoin: miter"/>
    </g>
    <!-- in=4.04 -->
    <g style="fill: #a2142f" transform="translate(249.39668 234.650672) scale(0.075 -0.075)">
     <defs>
      <path id="DejaVuSansMono-34" d="M 2297 4091 
L 825 1625 
L 2297 1625 
L 2297 4091 
z
M 2194 4666 
L 2925 4666 
L 2925 1625 
L 3547 1625 
L 3547 1113 
L 2925 1113 
L 2925 0 
L 2297 0 
L 2297 1113 
L 319 1113 
L 319 1709 
L 2194 4666 
z
" transform="scale(0.015625)"/>
     </defs>
     <use xlink:href="#DejaVuSansMono-69"/>
     <use xlink:href="#DejaVuSansMono-6e" transform="translate(60.205078 0)"/>
     <use xlink:href="#DejaVuSansMono-3d" transform="translate(120.410156 0)"/>
     <use xlink:href="#DejaVuSansMono-34" transform="translate(180.615234 0)"/>
     <use xlink:href="#DejaVuSansMono-2e" transform="translate(240.820312 0)"/>
     <use xlink:href="#DejaVuSansMono-30" transform="translate(301.025391 0)"/>
     <use xlink:href="#DejaVuSansMono-34" transform="translate(361.230469 0)"/>
    </g>
    <!-- out=5.33 -->
    <g style="fill: #a2142f" transform="translate(247.139062 243.096844) scale(0.075 -0.075)">
     <defs>
      <path id="DejaVuSansMono-35" d="M 647 4666 
L 3009 4666 
L 3009 4134 
L 1222 4134 
L 1222 2988 
Q 1356 3038 1492 3061 
Q 1628 3084 1766 3084 
Q 2491 3084 2916 2656 
Q 3341 2228 3341 1497 
Q 3341 759 2895 334 
Q 2450 -91 1678 -91 
Q 1306 -91 998 -41 
Q 691 9 447 109 
L 447 750 
Q 734 594 1025 517 
Q 1316 441 1619 441 
Q 2141 441 2423 716 
Q 2706 991 2706 1497 
Q 2706 1997 2414 2275 
Q 2122 2553 1600 2553 
Q 1347 2553 1106 2495 
Q 866 2438 647 2322 
L 647 4666 
z
" transform="scale(0.015625)"/>
      <path id="DejaVuSansMono-33" d="M 2425 2497 
Q 2884 2375 3128 2064 
Q 3372 1753 3372 1288 
Q 3372 644 2939 276 
Q 2506 -91 1741 -91 
Q 1419 -91 1084 -31 
Q 750 28 428 141 
L 428 769 
Q 747 603 1056 522 
Q 1366 441 1672 441 
Q 2191 441 2469 675 
Q 2747 909 2747 1350 
Q 2747 1756 2469 1995 
Q 2191 2234 1716 2234 
L 1234 2234 
L 1234 2753 
L 1716 2753 
Q 2150 2753 2394 2943 
Q 2638 3134 2638 3475 
Q 2638 3834 2411 4026 
Q 2184 4219 1766 4219 
Q 1488 4219 1191 4156 
Q 894 4094 569 3969 
L 569 4550 
Q 947 4650 1242 4700 
Q 1538 4750 1766 4750 
Q 2447 4750 2855 4408 
Q 3263 4066 3263 3500 
Q 3263 3116 3048 2859 
Q 2834 2603 2425 2497 
z
" transform="scale(0.015625)"/>
     </defs>
     <use xlink:href="#DejaVuSansMono-6f"/>
     <use xlink:href="#DejaVuSansMono-75" transform="translate(60.205078 0)"/>
     <use xlink:href="#DejaVuSansMono-74" transform="translate(120.410156 0)"/>
     <use xlink:href="#DejaVuSansMono-3d" transform="translate(180.615234 0)"/>
     <use xlink:href="#DejaVuSansMono-35" transform="translate(240.820312 0)"/>
     <use xlink:href="#DejaVuSansMono-2e" transform="translate(301.025391 0)"/>
     <use xlink:href="#DejaVuSansMono-33" transform="translate(361.230469 0)"/>
     <use xlink:href="#DejaVuSansMono-33" transform="translate(421.435547 0)"/>
    </g>
   </g>
   <g id="text_9">
    <g id="patch_21">
     <path d="M 412.259062 246.906609 
L 448.380937 246.906609 
Q 450.630937 246.906609 450.630937 244.656609 
L 450.630937 228.912 
Q 450.630937 226.662 448.380937 226.662 
L 412.259062 226.662 
Q 410.009062 226.662 410.009062 228.912 
L 410.009062 244.656609 
Q 410.009062 246.906609 412.259062 246.906609 
z
" style="fill: #ffffff; opacity: 0.95; stroke: #a2142f; stroke-width: 1.5; stroke-linejoin: miter"/>
    </g>
    <!-- in=3.33 -->
    <g style="fill: #a2142f" transform="translate(414.51668 234.650672) scale(0.075 -0.075)">
     <use xlink:href="#DejaVuSansMono-69"/>
     <use xlink:href="#DejaVuSansMono-6e" transform="translate(60.205078 0)"/>
     <use xlink:href="#DejaVuSansMono-3d" transform="translate(120.410156 0)"/>
     <use xlink:href="#DejaVuSansMono-33" transform="translate(180.615234 0)"/>
     <use xlink:href="#DejaVuSansMono-2e" transform="translate(240.820312 0)"/>
     <use xlink:href="#DejaVuSansMono-33" transform="translate(301.025391 0)"/>
     <use xlink:href="#DejaVuSansMono-33" transform="translate(361.230469 0)"/>
    </g>
    <!-- out=2.04 -->
    <g style="fill: #a2142f" transform="translate(412.259062 243.096844) scale(0.075 -0.075)">
     <use xlink:href="#DejaVuSansMono-6f"/>
     <use xlink:href="#DejaVuSansMono-75" transform="translate(60.205078 0)"/>
     <use xlink:href="#DejaVuSansMono-74" transform="translate(120.410156 0)"/>
     <use xlink:href="#DejaVuSansMono-3d" transform="translate(180.615234 0)"/>
     <use xlink:href="#DejaVuSansMono-32" transform="translate(240.820312 0)"/>
     <use xlink:href="#DejaVuSansMono-2e" transform="translate(301.025391 0)"/>
     <use xlink:href="#DejaVuSansMono-30" transform="translate(361.230469 0)"/>
     <use xlink:href="#DejaVuSansMono-34" transform="translate(421.435547 0)"/>
    </g>
   </g>
   <g id="text_10">
    <g id="patch_22">
     <path d="M 164.579062 422.346609 
L 200.700937 422.346609 
Q 202.950937 422.346609 202.950937 420.096609 
L 202.950937 404.352 
Q 202.950937 402.102 200.700937 402.102 
L 164.579062 402.102 
Q 162.329062 402.102 162.329062 404.352 
L 162.329062 420.096609 
Q 162.329062 422.346609 164.579062 422.346609 
z
" style="fill: #ffffff; opacity: 0.95; stroke: #a2142f; stroke-width: 1.5; stroke-linejoin: miter"/>
    </g>
    <!-- in=1.25 -->
    <g style="fill: #a2142f" transform="translate(166.83668 410.090672) scale(0.075 -0.075)">
     <defs>
      <path id="DejaVuSansMono-31" d="M 844 531 
L 1825 531 
L 1825 4097 
L 769 3859 
L 769 4434 
L 1819 4666 
L 2450 4666 
L 2450 531 
L 3419 531 
L 3419 0 
L 844 0 
L 844 531 
z
" transform="scale(0.015625)"/>
     </defs>
     <use xlink:href="#DejaVuSansMono-69"/>
     <use xlink:href="#DejaVuSansMono-6e" transform="translate(60.205078 0)"/>
     <use xlink:href="#DejaVuSansMono-3d" transform="translate(120.410156 0)"/>
     <use xlink:href="#DejaVuSansMono-31" transform="translate(180.615234 0)"/>
     <use xlink:href="#DejaVuSansMono-2e" transform="translate(240.820312 0)"/>
     <use xlink:href="#DejaVuSansMono-32" transform="translate(301.025391 0)"/>
     <use xlink:href="#DejaVuSansMono-35" transform="translate(361.230469 0)"/>
    </g>
    <!-- out=2.55 -->
    <g style="fill: #a2142f" transform="translate(164.579062 418.536844) scale(0.075 -0.075)">
     <use xlink:href="#DejaVuSansMono-6f"/>
     <use xlink:href="#DejaVuSansMono-75" transform="translate(60.205078 0)"/>
     <use xlink:href="#DejaVuSansMono-74" transform="translate(120.410156 0)"/>
     <use xlink:href="#DejaVuSansMono-3d" transform="translate(180.615234 0)"/>
     <use xlink:href="#DejaVuSansMono-32" transform="translate(240.820312 0)"/>
     <use xlink:href="#DejaVuSansMono-2e" transform="translate(301.025391 0)"/>
     <use xlink:href="#DejaVuSansMono-35" transform="translate(361.230469 0)"/>
     <use xlink:href="#DejaVuSansMono-35" transform="translate(421.435547 0)"/>
    </g>
   </g>
   <g id="text_11">
    <g id="patch_23">
     <path d="M 329.699062 422.346609 
L 365.820937 422.346609 
Q 368.070937 422.346609 368.070937 420.096609 
L 368.070937 404.352 
Q 368.070937 402.102 365.820937 402.102 
L 329.699062 402.102 
Q 327.449062 402.102 327.449062 404.352 
L 327.449062 420.096609 
Q 327.449062 422.346609 329.699062 422.346609 
z
" style="fill: #ffffff; opacity: 0.95; stroke: #a2142f; stroke-width: 1.5; stroke-linejoin: miter"/>
    </g>
    <!-- in=2.55 -->
    <g style="fill: #a2142f" transform="translate(331.95668 410.090672) scale(0.075 -0.075)">
     <use xlink:href="#DejaVuSansMono-69"/>
     <use xlink:href="#DejaVuSansMono-6e" transform="translate(60.205078 0)"/>
     <use xlink:href="#DejaVuSansMono-3d" transform="translate(120.410156 0)"/>
     <use xlink:href="#DejaVuSansMono-32" transform="translate(180.615234 0)"/>
     <use xlink:href="#DejaVuSansMono-2e" transform="translate(240.820312 0)"/>
     <use xlink:href="#DejaVuSansMono-35" transform="translate(301.025391 0)"/>
     <use xlink:href="#DejaVuSansMono-35" transform="translate(361.230469 0)"/>
    </g>
    <!-- out=1.25 -->
    <g style="fill: #a2142f" transform="translate(329.699062 418.536844) scale(0.075 -0.075)">
     <use xlink:href="#DejaVuSansMono-6f"/>
     <use xlink:href="#DejaVuSansMono-75" transform="translate(60.205078 0)"/>
     <use xlink:href="#DejaVuSansMono-74" transform="translate(120.410156 0)"/>
     <use xlink:href="#DejaVuSansMono-3d" transform="translate(180.615234 0)"/>
     <use xlink:href="#DejaVuSansMono-31" transform="translate(240.820312 0)"/>
     <use xlink:href="#DejaVuSansMono-2e" transform="translate(301.025391 0)"/>
     <use xlink:href="#DejaVuSansMono-32" transform="translate(361.230469 0)"/>
     <use xlink:href="#DejaVuSansMono-35" transform="translate(421.435547 0)"/>
    </g>
   </g>
   <g id="text_12">
    <!-- $\sum_{\mathrm{in}} \neq \sum_{\mathrm{out}}$ at $A\!+\!B$, $2A$, $A$, $B$  $\Rightarrow$  not complex-balanced -->
    <g style="fill: #a2142f" transform="translate(84.825 465.24) scale(0.13 -0.13)">
     <defs>
      <path id="Cmex10-58" d="M 422 -8959 
Q 359 -8959 359 -8891 
Q 359 -8863 378 -8844 
L 3756 -4909 
L 378 -281 
Q 359 -263 359 -250 
L 359 -56 
Q 359 -34 379 -17 
Q 400 0 422 0 
L 8103 0 
L 8878 -1797 
L 8691 -1797 
Q 8394 -1116 7697 -787 
Q 7000 -459 6242 -382 
Q 5484 -306 4481 -306 
L 1522 -306 
L 4544 -4434 
Q 4556 -4459 4556 -4481 
Q 4556 -4500 4544 -4525 
L 1222 -8391 
L 4544 -8391 
Q 5528 -8391 6289 -8314 
Q 7050 -8238 7739 -7908 
Q 8428 -7578 8691 -6900 
L 8878 -6900 
L 8103 -8959 
L 422 -8959 
z
" transform="scale(0.015625)"/>
      <path id="Cmr10-69" d="M 197 0 
L 197 225 
Q 416 225 556 259 
Q 697 294 697 428 
L 697 2175 
Q 697 2422 601 2478 
Q 506 2534 225 2534 
L 225 2759 
L 1147 2828 
L 1147 428 
Q 1147 294 1269 259 
Q 1391 225 1594 225 
L 1594 0 
L 197 0 
z
M 469 3928 
Q 469 4069 575 4175 
Q 681 4281 819 4281 
Q 909 4281 993 4234 
Q 1078 4188 1125 4103 
Q 1172 4019 1172 3928 
Q 1172 3791 1065 3684 
Q 959 3578 819 3578 
Q 681 3578 575 3684 
Q 469 3791 469 3928 
z
" transform="scale(0.015625)"/>
      <path id="Cmr10-6e" d="M 191 0 
L 191 225 
Q 409 225 550 259 
Q 691 294 691 428 
L 691 2175 
Q 691 2347 639 2423 
Q 588 2500 491 2517 
Q 394 2534 191 2534 
L 191 2759 
L 1119 2828 
L 1119 2203 
Q 1247 2478 1498 2653 
Q 1750 2828 2047 2828 
Q 2491 2828 2714 2615 
Q 2938 2403 2938 1966 
L 2938 428 
Q 2938 294 3078 259 
Q 3219 225 3438 225 
L 3438 0 
L 1972 0 
L 1972 225 
Q 2191 225 2331 259 
Q 2472 294 2472 428 
L 2472 1947 
Q 2472 2259 2381 2461 
Q 2291 2663 2009 2663 
Q 1638 2663 1398 2366 
Q 1159 2069 1159 1691 
L 1159 428 
Q 1159 294 1300 259 
Q 1441 225 1656 225 
L 1656 0 
L 191 0 
z
" transform="scale(0.015625)"/>
      <path id="STIXGeneral-Regular-2260" d="M 4077 768 
L 1990 768 
L 1222 -998 
L 877 -998 
L 1645 768 
L 307 768 
L 307 1190 
L 1830 1190 
L 2208 2048 
L 307 2048 
L 307 2470 
L 2394 2470 
L 3162 4237 
L 3507 4237 
L 2733 2470 
L 4077 2470 
L 4077 2048 
L 2554 2048 
L 2176 1190 
L 4077 1190 
L 4077 768 
z
" transform="scale(0.015625)"/>
      <path id="Cmr10-6f" d="M 1600 -72 
Q 1216 -72 887 123 
Q 559 319 368 647 
Q 178 975 178 1363 
Q 178 1656 283 1928 
Q 388 2200 583 2414 
Q 778 2628 1037 2748 
Q 1297 2869 1600 2869 
Q 1994 2869 2317 2661 
Q 2641 2453 2828 2104 
Q 3016 1756 3016 1363 
Q 3016 978 2825 648 
Q 2634 319 2307 123 
Q 1981 -72 1600 -72 
z
M 1600 116 
Q 2113 116 2284 487 
Q 2456 859 2456 1434 
Q 2456 1756 2422 1967 
Q 2388 2178 2272 2350 
Q 2200 2456 2089 2536 
Q 1978 2616 1854 2658 
Q 1731 2700 1600 2700 
Q 1400 2700 1220 2609 
Q 1041 2519 922 2350 
Q 803 2169 770 1951 
Q 738 1734 738 1434 
Q 738 1075 800 789 
Q 863 503 1052 309 
Q 1241 116 1600 116 
z
" transform="scale(0.015625)"/>
      <path id="Cmr10-75" d="M 691 763 
L 691 2175 
Q 691 2347 639 2423 
Q 588 2500 491 2517 
Q 394 2534 191 2534 
L 191 2759 
L 1159 2828 
L 1159 763 
Q 1159 513 1195 373 
Q 1231 234 1348 165 
Q 1466 97 1722 97 
Q 2066 97 2269 384 
Q 2472 672 2472 1038 
L 2472 2175 
Q 2472 2347 2419 2423 
Q 2366 2500 2270 2517 
Q 2175 2534 1972 2534 
L 1972 2759 
L 2938 2828 
L 2938 581 
Q 2938 413 2989 336 
Q 3041 259 3137 242 
Q 3234 225 3438 225 
L 3438 0 
L 2491 -72 
L 2491 469 
Q 2372 228 2159 78 
Q 1947 -72 1691 -72 
Q 1231 -72 961 123 
Q 691 319 691 763 
z
" transform="scale(0.015625)"/>
      <path id="Cmr10-74" d="M 653 769 
L 653 2534 
L 122 2534 
L 122 2700 
Q 541 2700 737 3090 
Q 934 3481 934 3938 
L 1119 3938 
L 1119 2759 
L 2022 2759 
L 2022 2534 
L 1119 2534 
L 1119 781 
Q 1119 516 1208 316 
Q 1297 116 1528 116 
Q 1747 116 1844 327 
Q 1941 538 1941 781 
L 1941 1159 
L 2125 1159 
L 2125 769 
Q 2125 569 2051 373 
Q 1978 178 1834 53 
Q 1691 -72 1484 -72 
Q 1100 -72 876 158 
Q 653 388 653 769 
z
" transform="scale(0.015625)"/>
      <path id="DejaVuSerif-Bold-20" transform="scale(0.015625)"/>
      <path id="DejaVuSerif-Bold-61" d="M 3525 2041 
L 3525 378 
L 4000 378 
L 4000 0 
L 2419 0 
L 2419 422 
Q 2200 159 1931 34 
Q 1663 -91 1319 -91 
Q 809 -91 536 182 
Q 263 456 263 966 
Q 263 1525 655 1803 
Q 1047 2081 1838 2081 
L 2419 2081 
L 2419 2278 
Q 2419 2681 2228 2873 
Q 2038 3066 1638 3066 
Q 1306 3066 1126 2930 
Q 947 2794 872 2484 
L 519 2484 
L 519 3200 
Q 816 3306 1134 3359 
Q 1453 3413 1806 3413 
Q 2697 3413 3111 3081 
Q 3525 2750 3525 2041 
z
M 2419 1044 
L 2419 1709 
L 2003 1709 
Q 1694 1709 1528 1540 
Q 1363 1372 1363 1056 
Q 1363 741 1483 584 
Q 1603 428 1850 428 
Q 2106 428 2262 597 
Q 2419 766 2419 1044 
z
" transform="scale(0.015625)"/>
      <path id="DejaVuSerif-Bold-74" d="M 634 2944 
L 153 2944 
L 153 3322 
L 634 3322 
L 634 4353 
L 1741 4353 
L 1741 3322 
L 2663 3322 
L 2663 2944 
L 1741 2944 
L 1741 909 
Q 1741 475 1809 369 
Q 1878 263 2059 263 
Q 2259 263 2356 397 
Q 2453 531 2459 813 
L 2925 813 
Q 2897 313 2651 111 
Q 2406 -91 1806 -91 
Q 1122 -91 878 123 
Q 634 338 634 909 
L 634 2944 
z
" transform="scale(0.015625)"/>
      <path id="Cmmi10-41" d="M 288 0 
Q 225 0 225 84 
Q 250 225 306 225 
Q 566 225 755 328 
Q 944 431 1081 647 
Q 1094 659 1094 659 
L 3378 4513 
Q 3428 4581 3500 4581 
L 3584 4581 
Q 3603 4581 3622 4573 
Q 3641 4566 3655 4548 
Q 3669 4531 3669 4513 
L 4056 378 
Q 4056 350 4084 294 
Q 4147 225 4563 225 
Q 4628 225 4628 141 
Q 4606 56 4592 28 
Q 4578 0 4519 0 
L 2919 0 
Q 2859 0 2859 84 
Q 2894 225 2944 225 
Q 3450 225 3481 397 
L 3384 1453 
L 1806 1453 
L 1294 594 
Q 1247 525 1247 434 
Q 1247 322 1355 273 
Q 1463 225 1594 225 
Q 1656 225 1656 141 
Q 1634 50 1621 25 
Q 1609 0 1550 0 
L 288 0 
z
M 1931 1678 
L 3359 1678 
L 3169 3750 
L 1931 1678 
z
" transform="scale(0.015625)"/>
      <path id="Cmr10-2b" d="M 481 1472 
Q 428 1472 393 1512 
Q 359 1553 359 1600 
Q 359 1647 393 1687 
Q 428 1728 481 1728 
L 2363 1728 
L 2363 3616 
Q 2363 3666 2400 3698 
Q 2438 3731 2491 3731 
Q 2538 3731 2578 3698 
Q 2619 3666 2619 3616 
L 2619 1728 
L 4500 1728 
Q 4547 1728 4581 1687 
Q 4616 1647 4616 1600 
Q 4616 1553 4581 1512 
Q 4547 1472 4500 1472 
L 2619 1472 
L 2619 -416 
Q 2619 -466 2578 -498 
Q 2538 -531 2491 -531 
Q 2438 -531 2400 -498 
Q 2363 -466 2363 -416 
L 2363 1472 
L 481 1472 
z
" transform="scale(0.015625)"/>
      <path id="Cmmi10-42" d="M 319 0 
Q 256 0 256 84 
Q 259 100 268 137 
Q 278 175 293 200 
Q 309 225 341 225 
Q 522 225 656 234 
Q 791 244 884 269 
Q 959 297 1006 441 
L 1881 3956 
Q 1894 4019 1894 4044 
Q 1894 4113 1819 4122 
Q 1697 4147 1356 4147 
Q 1294 4147 1294 4231 
Q 1297 4247 1306 4286 
Q 1316 4325 1333 4348 
Q 1350 4372 1375 4372 
L 3669 4372 
Q 3878 4372 4083 4320 
Q 4288 4269 4461 4156 
Q 4634 4044 4736 3876 
Q 4838 3709 4838 3488 
Q 4838 3247 4714 3040 
Q 4591 2834 4395 2681 
Q 4200 2528 3973 2429 
Q 3747 2331 3500 2284 
Q 3675 2284 3854 2215 
Q 4034 2147 4175 2028 
Q 4316 1909 4402 1743 
Q 4488 1578 4488 1388 
Q 4488 1003 4219 684 
Q 3950 366 3542 183 
Q 3134 0 2753 0 
L 319 0 
z
M 1497 275 
Q 1497 225 1716 225 
L 2631 225 
Q 2944 225 3231 398 
Q 3519 572 3692 859 
Q 3866 1147 3866 1459 
Q 3866 1650 3786 1820 
Q 3706 1991 3556 2089 
Q 3406 2188 3213 2188 
L 1966 2188 
L 1522 416 
Q 1497 328 1497 275 
z
M 2009 2356 
L 2981 2356 
Q 3288 2356 3577 2512 
Q 3866 2669 4048 2937 
Q 4231 3206 4231 3506 
Q 4231 3784 4057 3965 
Q 3884 4147 3609 4147 
L 2731 4147 
Q 2559 4147 2500 4115 
Q 2441 4084 2400 3928 
L 2009 2356 
z
" transform="scale(0.015625)"/>
      <path id="DejaVuSerif-Bold-2c" d="M 84 -616 
Q 409 -353 562 -28 
Q 716 297 716 728 
L 716 997 
L 1606 997 
L 1606 972 
Q 1606 281 1317 -217 
Q 1028 -716 428 -1056 
L 84 -616 
z
" transform="scale(0.015625)"/>
      <path id="Cmr10-32" d="M 319 0 
L 319 172 
Q 319 188 331 206 
L 1325 1306 
Q 1550 1550 1690 1715 
Q 1831 1881 1968 2097 
Q 2106 2313 2186 2536 
Q 2266 2759 2266 3009 
Q 2266 3272 2169 3511 
Q 2072 3750 1880 3894 
Q 1688 4038 1416 4038 
Q 1138 4038 916 3870 
Q 694 3703 603 3438 
Q 628 3444 672 3444 
Q 816 3444 917 3347 
Q 1019 3250 1019 3097 
Q 1019 2950 917 2848 
Q 816 2747 672 2747 
Q 522 2747 420 2851 
Q 319 2956 319 3097 
Q 319 3338 409 3548 
Q 500 3759 670 3923 
Q 841 4088 1055 4175 
Q 1269 4263 1509 4263 
Q 1875 4263 2190 4108 
Q 2506 3953 2690 3670 
Q 2875 3388 2875 3009 
Q 2875 2731 2753 2481 
Q 2631 2231 2440 2026 
Q 2250 1822 1953 1562 
Q 1656 1303 1563 1216 
L 838 519 
L 1453 519 
Q 1906 519 2211 526 
Q 2516 534 2534 550 
Q 2609 631 2688 1141 
L 2875 1141 
L 2694 0 
L 319 0 
z
" transform="scale(0.015625)"/>
      <path id="Cmsy10-29" d="M 481 850 
Q 428 850 393 890 
Q 359 931 359 978 
Q 359 1031 393 1068 
Q 428 1106 481 1106 
L 4634 1106 
Q 5009 1416 5453 1600 
Q 5009 1784 4634 2094 
L 481 2094 
Q 428 2094 393 2131 
Q 359 2169 359 2222 
Q 359 2269 393 2309 
Q 428 2350 481 2350 
L 4353 2350 
Q 4194 2516 3950 2850 
Q 3706 3184 3706 3291 
Q 3706 3319 3723 3339 
Q 3741 3359 3769 3359 
L 3897 3359 
Q 3938 3359 3950 3322 
Q 4109 3009 4314 2750 
Q 4519 2491 4787 2272 
Q 5056 2053 5353 1906 
Q 5650 1759 5991 1672 
Q 6034 1644 6034 1600 
Q 6034 1550 5991 1538 
Q 5325 1369 4792 934 
Q 4259 500 3950 -122 
Q 3938 -159 3897 -159 
L 3769 -159 
Q 3706 -159 3706 -91 
Q 3706 -16 3832 179 
Q 3959 375 4111 567 
Q 4263 759 4353 850 
L 481 850 
z
" transform="scale(0.015625)"/>
      <path id="DejaVuSerif-Bold-6e" d="M 219 0 
L 219 378 
L 691 378 
L 691 2944 
L 219 2944 
L 219 3322 
L 1797 3322 
L 1797 2853 
Q 1997 3150 2253 3281 
Q 2509 3413 2900 3413 
Q 3459 3413 3745 3083 
Q 4031 2753 4031 2113 
L 4031 378 
L 4506 378 
L 4506 0 
L 2522 0 
L 2522 378 
L 2925 378 
L 2925 2144 
Q 2925 2566 2817 2730 
Q 2709 2894 2444 2894 
Q 2109 2894 1953 2648 
Q 1797 2403 1797 1869 
L 1797 378 
L 2203 378 
L 2203 0 
L 219 0 
z
" transform="scale(0.015625)"/>
      <path id="DejaVuSerif-Bold-6f" d="M 2138 263 
Q 2488 263 2630 563 
Q 2772 863 2772 1663 
Q 2772 2463 2631 2761 
Q 2491 3059 2138 3059 
Q 1784 3059 1640 2757 
Q 1497 2456 1497 1663 
Q 1497 869 1640 566 
Q 1784 263 2138 263 
z
M 2138 -91 
Q 1259 -91 761 376 
Q 263 844 263 1663 
Q 263 2484 761 2948 
Q 1259 3413 2138 3413 
Q 3019 3413 3516 2948 
Q 4013 2484 4013 1663 
Q 4013 844 3514 376 
Q 3016 -91 2138 -91 
z
" transform="scale(0.015625)"/>
      <path id="DejaVuSerif-Bold-63" d="M 3609 1038 
Q 3491 469 3123 189 
Q 2756 -91 2125 -91 
Q 1238 -91 750 368 
Q 263 828 263 1663 
Q 263 2488 744 2950 
Q 1225 3413 2081 3413 
Q 2428 3413 2781 3347 
Q 3134 3281 3500 3150 
L 3500 2228 
L 3150 2228 
Q 3100 2650 2903 2854 
Q 2706 3059 2350 3059 
Q 1888 3059 1692 2746 
Q 1497 2434 1497 1663 
Q 1497 909 1687 586 
Q 1878 263 2309 263 
Q 2644 263 2845 463 
Q 3047 663 3091 1038 
L 3609 1038 
z
" transform="scale(0.015625)"/>
      <path id="DejaVuSerif-Bold-6d" d="M 3884 2778 
Q 4116 3109 4384 3261 
Q 4653 3413 5013 3413 
Q 5584 3413 5867 3089 
Q 6150 2766 6150 2113 
L 6150 378 
L 6625 378 
L 6625 0 
L 4647 0 
L 4647 378 
L 5044 378 
L 5044 1947 
Q 5044 2569 4948 2731 
Q 4853 2894 4594 2894 
Q 4300 2894 4137 2667 
Q 3975 2441 3975 2022 
L 3975 378 
L 4372 378 
L 4372 0 
L 2472 0 
L 2472 378 
L 2869 378 
L 2869 1947 
Q 2869 2569 2772 2731 
Q 2675 2894 2419 2894 
Q 2122 2894 1959 2667 
Q 1797 2441 1797 2022 
L 1797 378 
L 2194 378 
L 2194 0 
L 219 0 
L 219 378 
L 691 378 
L 691 2944 
L 219 2944 
L 219 3322 
L 1797 3322 
L 1797 2853 
Q 1991 3144 2241 3278 
Q 2491 3413 2834 3413 
Q 3241 3413 3494 3258 
Q 3747 3103 3884 2778 
z
" transform="scale(0.015625)"/>
      <path id="DejaVuSerif-Bold-70" d="M 1728 1825 
L 1728 1497 
Q 1728 916 1876 656 
Q 2025 397 2356 397 
Q 2697 397 2836 672 
Q 2975 947 2975 1663 
Q 2975 2378 2836 2651 
Q 2697 2925 2356 2925 
Q 2025 2925 1876 2665 
Q 1728 2406 1728 1825 
z
M 622 2944 
L 147 2944 
L 147 3322 
L 1728 3322 
L 1728 2900 
Q 1869 3159 2106 3286 
Q 2344 3413 2694 3413 
Q 3403 3413 3811 2945 
Q 4219 2478 4219 1663 
Q 4219 847 3811 378 
Q 3403 -91 2694 -91 
Q 2344 -91 2106 36 
Q 1869 163 1728 422 
L 1728 -953 
L 2241 -953 
L 2241 -1331 
L 147 -1331 
L 147 -953 
L 622 -953 
L 622 2944 
z
" transform="scale(0.015625)"/>
      <path id="DejaVuSerif-Bold-6c" d="M 1797 378 
L 2272 378 
L 2272 0 
L 219 0 
L 219 378 
L 691 378 
L 691 4488 
L 219 4488 
L 219 4863 
L 1797 4863 
L 1797 378 
z
" transform="scale(0.015625)"/>
      <path id="DejaVuSerif-Bold-65" d="M 2566 1875 
Q 2566 2531 2444 2795 
Q 2322 3059 2028 3059 
Q 1744 3059 1620 2800 
Q 1497 2541 1497 1931 
L 1497 1875 
L 2566 1875 
z
M 3781 1503 
L 1497 1503 
L 1497 1478 
Q 1497 834 1690 548 
Q 1884 263 2316 263 
Q 2675 263 2897 453 
Q 3119 644 3181 1006 
L 3700 1006 
Q 3566 441 3166 175 
Q 2766 -91 2047 -91 
Q 1184 -91 723 364 
Q 263 819 263 1663 
Q 263 2488 734 2950 
Q 1206 3413 2047 3413 
Q 2872 3413 3312 2927 
Q 3753 2441 3781 1503 
z
" transform="scale(0.015625)"/>
      <path id="DejaVuSerif-Bold-78" d="M 2247 2119 
L 2834 2944 
L 2425 2944 
L 2425 3322 
L 3719 3322 
L 3719 2944 
L 3278 2944 
L 2431 1759 
L 3419 378 
L 3859 378 
L 3859 0 
L 1747 0 
L 1747 378 
L 2175 378 
L 1550 1253 
L 922 378 
L 1369 378 
L 1369 0 
L 0 0 
L 0 378 
L 475 378 
L 1356 1619 
L 403 2944 
L 31 2944 
L 31 3322 
L 2059 3322 
L 2059 2944 
L 1656 2944 
L 2247 2119 
z
" transform="scale(0.015625)"/>
      <path id="DejaVuSerif-Bold-2d" d="M 347 2138 
L 2309 2138 
L 2309 1294 
L 347 1294 
L 347 2138 
z
" transform="scale(0.015625)"/>
      <path id="DejaVuSerif-Bold-62" d="M 622 378 
L 622 4488 
L 147 4488 
L 147 4863 
L 1728 4863 
L 1728 2900 
Q 1869 3159 2106 3286 
Q 2344 3413 2694 3413 
Q 3403 3413 3811 2945 
Q 4219 2478 4219 1663 
Q 4219 847 3811 378 
Q 3403 -91 2694 -91 
Q 2344 -91 2106 36 
Q 1869 163 1728 422 
L 1728 0 
L 147 0 
L 147 378 
L 622 378 
z
M 1728 1497 
Q 1728 916 1876 656 
Q 2025 397 2356 397 
Q 2697 397 2836 672 
Q 2975 947 2975 1663 
Q 2975 2378 2836 2651 
Q 2697 2925 2356 2925 
Q 2025 2925 1876 2665 
Q 1728 2406 1728 1825 
L 1728 1497 
z
" transform="scale(0.015625)"/>
      <path id="DejaVuSerif-Bold-64" d="M 2747 1497 
L 2747 1825 
Q 2747 2406 2597 2665 
Q 2447 2925 2119 2925 
Q 1775 2925 1636 2651 
Q 1497 2378 1497 1663 
Q 1497 947 1637 672 
Q 1778 397 2119 397 
Q 2447 397 2597 656 
Q 2747 916 2747 1497 
z
M 3853 378 
L 4325 378 
L 4325 0 
L 2747 0 
L 2747 422 
Q 2606 163 2367 36 
Q 2128 -91 1778 -91 
Q 1072 -91 667 378 
Q 263 847 263 1663 
Q 263 2481 667 2947 
Q 1072 3413 1778 3413 
Q 2128 3413 2367 3286 
Q 2606 3159 2747 2900 
L 2747 4488 
L 2272 4488 
L 2272 4863 
L 3853 4863 
L 3853 378 
z
" transform="scale(0.015625)"/>
     </defs>
     <use xlink:href="#Cmex10-58" transform="translate(0 104)"/>
     <use xlink:href="#Cmr10-69" transform="translate(37 -101.557813) scale(0.7)"/>
     <use xlink:href="#Cmr10-6e" transform="translate(56.379883 -101.557813) scale(0.7)"/>
     <use xlink:href="#STIXGeneral-Regular-2260" transform="translate(150.652344 0.674479)"/>
     <use xlink:href="#Cmex10-58" transform="translate(236.710922 104)"/>
     <use xlink:href="#Cmr10-6f" transform="translate(252.710922 -97.80625) scale(0.7)"/>
     <use xlink:href="#Cmr10-75" transform="translate(287.710922 -97.80625) scale(0.7)"/>
     <use xlink:href="#Cmr10-74" transform="translate(326.573227 -97.80625) scale(0.7)"/>
     <use xlink:href="#DejaVuSerif-Bold-20" transform="translate(369.804672 0.674479)"/>
     <use xlink:href="#DejaVuSerif-Bold-61" transform="translate(404.619125 0.674479)"/>
     <use xlink:href="#DejaVuSerif-Bold-74" transform="translate(469.414047 0.674479)"/>
     <use xlink:href="#DejaVuSerif-Bold-20" transform="translate(515.605453 0.674479)"/>
     <use xlink:href="#Cmmi10-41" transform="translate(550.419907 0.674479)"/>
     <use xlink:href="#Cmr10-2b" transform="translate(628.346046 0.674479)"/>
     <use xlink:href="#Cmmi10-42" transform="translate(708.957733 0.674479)"/>
     <use xlink:href="#DejaVuSerif-Bold-2c" transform="translate(784.738983 0.674479)"/>
     <use xlink:href="#DejaVuSerif-Bold-20" transform="translate(819.553436 0.674479)"/>
     <use xlink:href="#Cmr10-32" transform="translate(854.367889 0.674479)"/>
     <use xlink:href="#Cmmi10-41" transform="translate(904.367889 0.674479)"/>
     <use xlink:href="#DejaVuSerif-Bold-2c" transform="translate(979.367889 0.674479)"/>
     <use xlink:href="#DejaVuSerif-Bold-20" transform="translate(1014.182342 0.674479)"/>
     <use xlink:href="#Cmmi10-41" transform="translate(1048.996795 0.674479)"/>
     <use xlink:href="#DejaVuSerif-Bold-2c" transform="translate(1123.996795 0.674479)"/>
     <use xlink:href="#DejaVuSerif-Bold-20" transform="translate(1158.811248 0.674479)"/>
     <use xlink:href="#Cmmi10-42" transform="translate(1193.625702 0.674479)"/>
     <use xlink:href="#DejaVuSerif-Bold-20" transform="translate(1269.406952 0.674479)"/>
     <use xlink:href="#DejaVuSerif-Bold-20" transform="translate(1304.221405 0.674479)"/>
     <use xlink:href="#Cmsy10-29" transform="translate(1356.594452 0.674479)"/>
     <use xlink:href="#DejaVuSerif-Bold-20" transform="translate(1474.153045 0.674479)"/>
     <use xlink:href="#DejaVuSerif-Bold-20" transform="translate(1508.967498 0.674479)"/>
     <use xlink:href="#DejaVuSerif-Bold-6e" transform="translate(1543.781952 0.674479)"/>
     <use xlink:href="#DejaVuSerif-Bold-6f" transform="translate(1616.48703 0.674479)"/>
     <use xlink:href="#DejaVuSerif-Bold-74" transform="translate(1683.186248 0.674479)"/>
     <use xlink:href="#DejaVuSerif-Bold-20" transform="translate(1729.377655 0.674479)"/>
     <use xlink:href="#DejaVuSerif-Bold-63" transform="translate(1764.192108 0.674479)"/>
     <use xlink:href="#DejaVuSerif-Bold-6f" transform="translate(1825.08078 0.674479)"/>
     <use xlink:href="#DejaVuSerif-Bold-6d" transform="translate(1891.779998 0.674479)"/>
     <use xlink:href="#DejaVuSerif-Bold-70" transform="translate(1997.590545 0.674479)"/>
     <use xlink:href="#DejaVuSerif-Bold-6c" transform="translate(2067.51242 0.674479)"/>
     <use xlink:href="#DejaVuSerif-Bold-65" transform="translate(2105.500702 0.674479)"/>
     <use xlink:href="#DejaVuSerif-Bold-78" transform="translate(2169.123748 0.674479)"/>
     <use xlink:href="#DejaVuSerif-Bold-2d" transform="translate(2228.742889 0.674479)"/>
     <use xlink:href="#DejaVuSerif-Bold-62" transform="translate(2270.246795 0.674479)"/>
     <use xlink:href="#DejaVuSerif-Bold-61" transform="translate(2340.16867 0.674479)"/>
     <use xlink:href="#DejaVuSerif-Bold-6c" transform="translate(2404.963592 0.674479)"/>
     <use xlink:href="#DejaVuSerif-Bold-61" transform="translate(2442.951873 0.674479)"/>
     <use xlink:href="#DejaVuSerif-Bold-6e" transform="translate(2507.746795 0.674479)"/>
     <use xlink:href="#DejaVuSerif-Bold-63" transform="translate(2580.451873 0.674479)"/>
     <use xlink:href="#DejaVuSerif-Bold-65" transform="translate(2641.340545 0.674479)"/>
     <use xlink:href="#DejaVuSerif-Bold-64" transform="translate(2704.963592 0.674479)"/>
    </g>
   </g>
   <g id="text_13">
    <!-- Arrow thickness $\propto$ reaction rate at $x^*$ -->
    <g style="fill: #666666" transform="translate(157.84 51.6) scale(0.11 -0.11)">
     <defs>
      <path id="DejaVuSerif-41" d="M 1281 1691 
L 2994 1691 
L 2138 3909 
L 1281 1691 
z
M -38 0 
L -38 331 
L 372 331 
L 2034 4666 
L 2559 4666 
L 4225 331 
L 4684 331 
L 4684 0 
L 2988 0 
L 2988 331 
L 3506 331 
L 3116 1356 
L 1153 1356 
L 763 331 
L 1275 331 
L 1275 0 
L -38 0 
z
" transform="scale(0.015625)"/>
      <path id="DejaVuSerif-72" d="M 3059 3328 
L 3059 2497 
L 2728 2497 
Q 2713 2744 2591 2866 
Q 2469 2988 2234 2988 
Q 1809 2988 1582 2694 
Q 1356 2400 1356 1850 
L 1356 331 
L 2022 331 
L 2022 0 
L 263 0 
L 263 331 
L 781 331 
L 781 2994 
L 231 2994 
L 231 3322 
L 1356 3322 
L 1356 2731 
Q 1525 3078 1790 3245 
Q 2056 3413 2438 3413 
Q 2578 3413 2733 3391 
Q 2888 3369 3059 3328 
z
" transform="scale(0.015625)"/>
      <path id="DejaVuSerif-6f" d="M 1925 219 
Q 2388 219 2623 584 
Q 2859 950 2859 1663 
Q 2859 2375 2623 2739 
Q 2388 3103 1925 3103 
Q 1463 3103 1227 2739 
Q 991 2375 991 1663 
Q 991 950 1228 584 
Q 1466 219 1925 219 
z
M 1925 -91 
Q 1200 -91 759 389 
Q 319 869 319 1663 
Q 319 2456 758 2934 
Q 1197 3413 1925 3413 
Q 2653 3413 3092 2934 
Q 3531 2456 3531 1663 
Q 3531 869 3092 389 
Q 2653 -91 1925 -91 
z
" transform="scale(0.015625)"/>
      <path id="DejaVuSerif-77" d="M 3072 3322 
L 3922 728 
L 4672 2988 
L 4191 2988 
L 4191 3322 
L 5394 3322 
L 5394 2988 
L 5025 2988 
L 4038 0 
L 3559 0 
L 2741 2484 
L 1919 0 
L 1459 0 
L 475 2988 
L 103 2988 
L 103 3322 
L 1606 3322 
L 1606 2988 
L 1069 2988 
L 1813 728 
L 2669 3322 
L 3072 3322 
z
" transform="scale(0.015625)"/>
      <path id="DejaVuSerif-20" transform="scale(0.015625)"/>
      <path id="DejaVuSerif-74" d="M 691 2988 
L 184 2988 
L 184 3322 
L 691 3322 
L 691 4353 
L 1269 4353 
L 1269 3322 
L 2350 3322 
L 2350 2988 
L 1269 2988 
L 1269 878 
Q 1269 456 1350 337 
Q 1431 219 1650 219 
Q 1875 219 1978 351 
Q 2081 484 2088 781 
L 2522 781 
Q 2497 328 2275 118 
Q 2053 -91 1600 -91 
Q 1103 -91 897 129 
Q 691 350 691 878 
L 691 2988 
z
" transform="scale(0.015625)"/>
      <path id="DejaVuSerif-68" d="M 263 0 
L 263 331 
L 781 331 
L 781 4531 
L 231 4531 
L 231 4863 
L 1356 4863 
L 1356 2731 
Q 1516 3069 1770 3241 
Q 2025 3413 2363 3413 
Q 2913 3413 3172 3097 
Q 3431 2781 3431 2113 
L 3431 331 
L 3944 331 
L 3944 0 
L 2356 0 
L 2356 331 
L 2853 331 
L 2853 1931 
Q 2853 2541 2704 2764 
Q 2556 2988 2175 2988 
Q 1775 2988 1565 2697 
Q 1356 2406 1356 1850 
L 1356 331 
L 1856 331 
L 1856 0 
L 263 0 
z
" transform="scale(0.015625)"/>
      <path id="DejaVuSerif-69" d="M 622 4353 
Q 622 4497 726 4603 
Q 831 4709 978 4709 
Q 1122 4709 1226 4603 
Q 1331 4497 1331 4353 
Q 1331 4206 1228 4103 
Q 1125 4000 978 4000 
Q 831 4000 726 4103 
Q 622 4206 622 4353 
z
M 1356 331 
L 1900 331 
L 1900 0 
L 231 0 
L 231 331 
L 781 331 
L 781 2988 
L 231 2988 
L 231 3322 
L 1356 3322 
L 1356 331 
z
" transform="scale(0.015625)"/>
      <path id="DejaVuSerif-63" d="M 3291 997 
Q 3169 466 2822 187 
Q 2475 -91 1925 -91 
Q 1200 -91 759 389 
Q 319 869 319 1663 
Q 319 2459 759 2936 
Q 1200 3413 1925 3413 
Q 2241 3413 2553 3339 
Q 2866 3266 3181 3116 
L 3181 2266 
L 2847 2266 
Q 2781 2703 2561 2903 
Q 2341 3103 1931 3103 
Q 1466 3103 1228 2742 
Q 991 2381 991 1663 
Q 991 944 1227 581 
Q 1463 219 1931 219 
Q 2303 219 2525 412 
Q 2747 606 2828 997 
L 3291 997 
z
" transform="scale(0.015625)"/>
      <path id="DejaVuSerif-6b" d="M 1831 0 
L 219 0 
L 219 331 
L 738 331 
L 738 4531 
L 184 4531 
L 184 4863 
L 1313 4863 
L 1313 1697 
L 2713 2988 
L 2234 2988 
L 2234 3322 
L 3738 3322 
L 3738 2988 
L 3169 2988 
L 2181 2075 
L 3444 331 
L 3922 331 
L 3922 0 
L 2284 0 
L 2284 331 
L 2759 331 
L 1766 1697 
L 1313 1275 
L 1313 331 
L 1831 331 
L 1831 0 
z
" transform="scale(0.015625)"/>
      <path id="DejaVuSerif-6e" d="M 263 0 
L 263 331 
L 781 331 
L 781 2988 
L 231 2988 
L 231 3322 
L 1356 3322 
L 1356 2731 
Q 1516 3069 1770 3241 
Q 2025 3413 2363 3413 
Q 2913 3413 3172 3097 
Q 3431 2781 3431 2113 
L 3431 331 
L 3944 331 
L 3944 0 
L 2356 0 
L 2356 331 
L 2853 331 
L 2853 1931 
Q 2853 2541 2703 2767 
Q 2553 2994 2175 2994 
Q 1775 2994 1565 2701 
Q 1356 2409 1356 1850 
L 1356 331 
L 1856 331 
L 1856 0 
L 263 0 
z
" transform="scale(0.015625)"/>
      <path id="DejaVuSerif-65" d="M 3469 1600 
L 991 1600 
L 991 1575 
Q 991 903 1244 561 
Q 1497 219 1991 219 
Q 2369 219 2611 417 
Q 2853 616 2950 1006 
L 3413 1006 
Q 3275 459 2904 184 
Q 2534 -91 1931 -91 
Q 1203 -91 761 389 
Q 319 869 319 1663 
Q 319 2450 753 2931 
Q 1188 3413 1894 3413 
Q 2647 3413 3050 2948 
Q 3453 2484 3469 1600 
z
M 2791 1931 
Q 2772 2513 2545 2808 
Q 2319 3103 1894 3103 
Q 1497 3103 1269 2806 
Q 1041 2509 991 1931 
L 2791 1931 
z
" transform="scale(0.015625)"/>
      <path id="DejaVuSerif-73" d="M 359 184 
L 359 959 
L 691 959 
Q 703 588 923 403 
Q 1144 219 1575 219 
Q 1963 219 2166 364 
Q 2369 509 2369 788 
Q 2369 1006 2220 1140 
Q 2072 1275 1594 1428 
L 1178 1569 
Q 750 1706 558 1912 
Q 366 2119 366 2438 
Q 366 2894 700 3153 
Q 1034 3413 1625 3413 
Q 1888 3413 2178 3344 
Q 2469 3275 2778 3144 
L 2778 2419 
L 2447 2419 
Q 2434 2741 2221 2922 
Q 2009 3103 1644 3103 
Q 1281 3103 1095 2975 
Q 909 2847 909 2591 
Q 909 2381 1050 2254 
Q 1191 2128 1613 1997 
L 2069 1856 
Q 2541 1709 2748 1489 
Q 2956 1269 2956 922 
Q 2956 450 2595 179 
Q 2234 -91 1600 -91 
Q 1278 -91 972 -22 
Q 666 47 359 184 
z
" transform="scale(0.015625)"/>
      <path id="Cmsy10-2f" d="M 1466 -72 
Q 947 -72 653 379 
Q 359 831 359 1381 
Q 359 1725 487 2059 
Q 616 2394 872 2611 
Q 1128 2828 1484 2828 
Q 1891 2828 2234 2587 
Q 2578 2347 2822 1966 
L 2963 1753 
Q 3200 2222 3562 2525 
Q 3925 2828 4397 2828 
Q 4519 2828 4616 2803 
L 4622 2606 
Q 4534 2625 4453 2625 
Q 4144 2625 3889 2465 
Q 3634 2306 3440 2051 
Q 3247 1797 3122 1503 
L 3419 1050 
Q 3563 822 3709 644 
Q 3856 466 4048 342 
Q 4241 219 4469 219 
Q 4516 219 4622 231 
L 4622 -38 
Q 4469 -72 4378 -72 
Q 3978 -72 3628 173 
Q 3278 419 3041 794 
L 2900 1006 
Q 2747 706 2539 464 
Q 2331 222 2057 75 
Q 1784 -72 1466 -72 
z
M 1409 134 
Q 1859 134 2196 457 
Q 2534 781 2741 1253 
L 2444 1709 
Q 2219 2075 1967 2308 
Q 1716 2541 1394 2541 
Q 1113 2541 917 2364 
Q 722 2188 623 1917 
Q 525 1647 525 1375 
Q 525 1097 620 808 
Q 716 519 916 326 
Q 1116 134 1409 134 
z
" transform="scale(0.015625)"/>
      <path id="DejaVuSerif-61" d="M 2547 1044 
L 2547 1747 
L 1806 1747 
Q 1378 1747 1168 1562 
Q 959 1378 959 997 
Q 959 650 1171 447 
Q 1384 244 1747 244 
Q 2106 244 2326 466 
Q 2547 688 2547 1044 
z
M 3122 2075 
L 3122 331 
L 3634 331 
L 3634 0 
L 2547 0 
L 2547 359 
Q 2356 128 2106 18 
Q 1856 -91 1522 -91 
Q 969 -91 644 203 
Q 319 497 319 997 
Q 319 1513 691 1797 
Q 1063 2081 1741 2081 
L 2547 2081 
L 2547 2309 
Q 2547 2688 2317 2895 
Q 2088 3103 1672 3103 
Q 1328 3103 1125 2947 
Q 922 2791 872 2484 
L 575 2484 
L 575 3156 
Q 875 3284 1158 3348 
Q 1441 3413 1709 3413 
Q 2400 3413 2761 3070 
Q 3122 2728 3122 2075 
z
" transform="scale(0.015625)"/>
      <path id="Cmmi10-78" d="M 500 184 
Q 613 97 819 97 
Q 1019 97 1172 289 
Q 1325 481 1381 709 
L 1672 1844 
Q 1741 2153 1741 2266 
Q 1741 2425 1652 2544 
Q 1563 2663 1403 2663 
Q 1200 2663 1022 2536 
Q 844 2409 722 2214 
Q 600 2019 550 1819 
Q 538 1778 500 1778 
L 422 1778 
Q 372 1778 372 1838 
L 372 1856 
Q 434 2094 584 2320 
Q 734 2547 951 2687 
Q 1169 2828 1416 2828 
Q 1650 2828 1839 2703 
Q 2028 2578 2106 2363 
Q 2216 2559 2386 2693 
Q 2556 2828 2759 2828 
Q 2897 2828 3040 2779 
Q 3184 2731 3275 2631 
Q 3366 2531 3366 2381 
Q 3366 2219 3261 2101 
Q 3156 1984 2994 1984 
Q 2891 1984 2822 2050 
Q 2753 2116 2753 2216 
Q 2753 2350 2845 2451 
Q 2938 2553 3066 2572 
Q 2950 2663 2747 2663 
Q 2541 2663 2389 2472 
Q 2238 2281 2175 2047 
L 1894 916 
Q 1825 659 1825 494 
Q 1825 331 1917 214 
Q 2009 97 2163 97 
Q 2463 97 2698 361 
Q 2934 625 3009 941 
Q 3022 978 3059 978 
L 3138 978 
Q 3163 978 3178 961 
Q 3194 944 3194 922 
Q 3194 916 3188 903 
Q 3097 522 2806 225 
Q 2516 -72 2150 -72 
Q 1916 -72 1727 54 
Q 1538 181 1459 397 
Q 1359 209 1182 68 
Q 1006 -72 806 -72 
Q 669 -72 523 -23 
Q 378 25 287 125 
Q 197 225 197 378 
Q 197 528 301 651 
Q 406 775 563 775 
Q 669 775 741 711 
Q 813 647 813 544 
Q 813 409 723 309 
Q 634 209 500 184 
z
" transform="scale(0.015625)"/>
      <path id="Cmsy10-a4" d="M 603 813 
Q 531 813 473 873 
Q 416 934 416 1006 
Q 416 1116 506 1159 
L 1428 1600 
L 506 2034 
Q 416 2072 416 2188 
Q 416 2259 473 2320 
Q 531 2381 603 2381 
Q 650 2381 691 2350 
L 1509 1753 
L 1416 2797 
Q 1416 2875 1469 2925 
Q 1522 2975 1600 2975 
Q 1675 2975 1726 2928 
Q 1778 2881 1778 2809 
L 1778 2797 
L 1684 1753 
L 2503 2350 
Q 2544 2381 2591 2381 
Q 2669 2381 2723 2320 
Q 2778 2259 2778 2188 
Q 2778 2072 2688 2034 
L 1766 1600 
L 2688 1159 
Q 2778 1116 2778 1006 
Q 2778 934 2723 873 
Q 2669 813 2591 813 
Q 2544 813 2503 844 
L 1684 1441 
L 1778 403 
L 1778 384 
Q 1778 313 1723 266 
Q 1669 219 1600 219 
Q 1525 219 1470 270 
Q 1416 322 1416 397 
L 1509 1441 
L 691 844 
Q 650 813 603 813 
z
" transform="scale(0.015625)"/>
     </defs>
     <use xlink:href="#DejaVuSerif-41" transform="translate(0 0.015625)"/>
     <use xlink:href="#DejaVuSerif-72" transform="translate(72.216797 0.015625)"/>
     <use xlink:href="#DejaVuSerif-72" transform="translate(120.019531 0.015625)"/>
     <use xlink:href="#DejaVuSerif-6f" transform="translate(167.822266 0.015625)"/>
     <use xlink:href="#DejaVuSerif-77" transform="translate(228.027344 0.015625)"/>
     <use xlink:href="#DejaVuSerif-20" transform="translate(313.623047 0.015625)"/>
     <use xlink:href="#DejaVuSerif-74" transform="translate(345.410156 0.015625)"/>
     <use xlink:href="#DejaVuSerif-68" transform="translate(385.595703 0.015625)"/>
     <use xlink:href="#DejaVuSerif-69" transform="translate(450 0.015625)"/>
     <use xlink:href="#DejaVuSerif-63" transform="translate(481.982422 0.015625)"/>
     <use xlink:href="#DejaVuSerif-6b" transform="translate(537.988281 0.015625)"/>
     <use xlink:href="#DejaVuSerif-6e" transform="translate(598.583984 0.015625)"/>
     <use xlink:href="#DejaVuSerif-65" transform="translate(662.988281 0.015625)"/>
     <use xlink:href="#DejaVuSerif-73" transform="translate(722.167969 0.015625)"/>
     <use xlink:href="#DejaVuSerif-73" transform="translate(773.486328 0.015625)"/>
     <use xlink:href="#DejaVuSerif-20" transform="translate(824.804688 0.015625)"/>
     <use xlink:href="#Cmsy10-2f" transform="translate(874.150391 0.015625)"/>
     <use xlink:href="#DejaVuSerif-20" transform="translate(969.394531 0.015625)"/>
     <use xlink:href="#DejaVuSerif-72" transform="translate(1001.181641 0.015625)"/>
     <use xlink:href="#DejaVuSerif-65" transform="translate(1048.984375 0.015625)"/>
     <use xlink:href="#DejaVuSerif-61" transform="translate(1108.164062 0.015625)"/>
     <use xlink:href="#DejaVuSerif-63" transform="translate(1167.783203 0.015625)"/>
     <use xlink:href="#DejaVuSerif-74" transform="translate(1223.789062 0.015625)"/>
     <use xlink:href="#DejaVuSerif-69" transform="translate(1263.974609 0.015625)"/>
     <use xlink:href="#DejaVuSerif-6f" transform="translate(1295.957031 0.015625)"/>
     <use xlink:href="#DejaVuSerif-6e" transform="translate(1356.162109 0.015625)"/>
     <use xlink:href="#DejaVuSerif-20" transform="translate(1420.566406 0.015625)"/>
     <use xlink:href="#DejaVuSerif-72" transform="translate(1452.353516 0.015625)"/>
     <use xlink:href="#DejaVuSerif-61" transform="translate(1500.15625 0.015625)"/>
     <use xlink:href="#DejaVuSerif-74" transform="translate(1559.775391 0.015625)"/>
     <use xlink:href="#DejaVuSerif-65" transform="translate(1599.960938 0.015625)"/>
     <use xlink:href="#DejaVuSerif-20" transform="translate(1659.140625 0.015625)"/>
     <use xlink:href="#DejaVuSerif-61" transform="translate(1690.927734 0.015625)"/>
     <use xlink:href="#DejaVuSerif-74" transform="translate(1750.546875 0.015625)"/>
     <use xlink:href="#DejaVuSerif-20" transform="translate(1790.732422 0.015625)"/>
     <use xlink:href="#Cmmi10-78" transform="translate(1822.519531 0.015625)"/>
     <use xlink:href="#Cmsy10-a4" transform="translate(1898.193906 38.279688) scale(0.7)"/>
    </g>
   </g>
   <g id="text_14">
    <!-- $\varnothing$ -->
    <g style="fill: #737373" transform="translate(93.535 165.490938) scale(0.17 -0.17)">
     <defs>
      <path id="STIXGeneral-Regular-2205" d="M 4512 3731 
L 3949 3085 
Q 4557 2458 4557 1613 
Q 4557 742 3933 118 
Q 3309 -506 2438 -506 
Q 1754 -506 1178 -83 
L 806 -506 
L 365 -506 
L 922 134 
Q 320 749 320 1613 
Q 320 2483 944 3107 
Q 1568 3731 2438 3731 
Q 3098 3731 3699 3309 
L 4070 3731 
L 4512 3731 
z
M 3680 2778 
L 1453 230 
Q 1894 -83 2438 -83 
Q 3142 -83 3638 416 
Q 4134 915 4134 1619 
Q 4134 2272 3680 2778 
z
M 1203 454 
L 3418 2982 
Q 3270 3123 2985 3216 
Q 2701 3309 2438 3309 
Q 1734 3309 1238 2816 
Q 742 2323 742 1619 
Q 742 928 1203 454 
z
" transform="scale(0.015625)"/>
     </defs>
     <use xlink:href="#STIXGeneral-Regular-2205" transform="translate(0 0.703125)"/>
    </g>
   </g>
   <g id="text_15">
    <!-- $A\!+\!B$ -->
    <g style="fill: #7e2f8e" transform="translate(248.75 164.663125) scale(0.14 -0.14)">
     <use xlink:href="#Cmmi10-41" transform="translate(0 0.421875)"/>
     <use xlink:href="#Cmr10-2b" transform="translate(77.92614 0.421875)"/>
     <use xlink:href="#Cmmi10-42" transform="translate(158.537826 0.421875)"/>
    </g>
   </g>
   <g id="text_16">
    <!-- $2A$ -->
    <g style="fill: #0072bd" transform="translate(420.945 164.939063) scale(0.15 -0.15)">
     <use xlink:href="#Cmr10-32" transform="translate(0 0.421875)"/>
     <use xlink:href="#Cmmi10-41" transform="translate(50 0.421875)"/>
    </g>
   </g>
   <g id="text_17">
    <!-- $A$ -->
    <g style="fill: #77ac30" transform="translate(176.64 340.655) scale(0.16 -0.16)">
     <use xlink:href="#Cmmi10-41" transform="translate(0 0.421875)"/>
    </g>
   </g>
   <g id="text_18">
    <!-- $B$ -->
    <g style="fill: #d95319" transform="translate(341.68 340.655) scale(0.16 -0.16)">
     <use xlink:href="#Cmmi10-42" transform="translate(0 0.6875)"/>
    </g>
   </g>
  </g>
  <g id="text_19">
   <!-- Deficiency $\delta\!=\!1$: equilibrium is NOT complex-balanced -->
   <g transform="translate(40.8 18.6) scale(0.15 -0.15)">
    <defs>
     <path id="DejaVuSerif-Bold-44" d="M 2100 378 
L 2534 378 
Q 3266 378 3605 847 
Q 3944 1316 3944 2338 
Q 3944 3353 3606 3820 
Q 3269 4288 2534 4288 
L 2100 4288 
L 2100 378 
z
M 300 0 
L 300 378 
L 897 378 
L 897 4288 
L 300 4288 
L 300 4666 
L 2694 4666 
Q 3950 4666 4615 4066 
Q 5281 3466 5281 2338 
Q 5281 1203 4614 601 
Q 3947 0 2694 0 
L 300 0 
z
" transform="scale(0.015625)"/>
     <path id="DejaVuSerif-Bold-66" d="M 3097 4031 
L 2747 4031 
Q 2722 4275 2605 4394 
Q 2488 4513 2272 4513 
Q 2022 4513 1909 4333 
Q 1797 4153 1797 3750 
L 1797 3322 
L 2631 3322 
L 2631 2944 
L 1797 2944 
L 1797 378 
L 2438 378 
L 2438 0 
L 219 0 
L 219 378 
L 691 378 
L 691 2944 
L 197 2944 
L 197 3322 
L 691 3322 
L 691 3738 
Q 691 4291 1044 4577 
Q 1397 4863 2081 4863 
Q 2347 4863 2600 4833 
Q 2853 4803 3097 4744 
L 3097 4031 
z
" transform="scale(0.015625)"/>
     <path id="DejaVuSerif-Bold-69" d="M 588 4263 
Q 588 4516 763 4689 
Q 938 4863 1191 4863 
Q 1438 4863 1611 4689 
Q 1784 4516 1784 4263 
Q 1784 4016 1611 3842 
Q 1438 3669 1191 3669 
Q 938 3669 763 3841 
Q 588 4013 588 4263 
z
M 1797 378 
L 2272 378 
L 2272 0 
L 219 0 
L 219 378 
L 691 378 
L 691 2944 
L 219 2944 
L 219 3322 
L 1797 3322 
L 1797 378 
z
" transform="scale(0.015625)"/>
     <path id="DejaVuSerif-Bold-79" d="M 1997 -750 
Q 1847 -1116 1634 -1269 
Q 1422 -1422 1063 -1422 
Q 909 -1422 721 -1387 
Q 534 -1353 313 -1288 
L 313 -594 
L 666 -597 
Q 675 -838 779 -953 
Q 884 -1069 1094 -1069 
Q 1297 -1069 1422 -958 
Q 1547 -847 1672 -538 
L 1722 -422 
L 275 2944 
L -84 2944 
L -84 3322 
L 1831 3322 
L 1831 2944 
L 1434 2944 
L 2278 978 
L 3066 2944 
L 2625 2944 
L 2625 3322 
L 3872 3322 
L 3872 2944 
L 3469 2944 
L 1997 -750 
z
" transform="scale(0.015625)"/>
     <path id="Cmmi10-b1" d="M 1281 -97 
Q 1059 -97 868 -14 
Q 678 69 536 225 
Q 394 381 325 573 
Q 256 766 256 991 
Q 256 1391 445 1767 
Q 634 2144 961 2419 
Q 1288 2694 1672 2791 
Q 1484 3138 1386 3389 
Q 1288 3641 1288 3903 
Q 1288 4097 1378 4245 
Q 1469 4394 1628 4478 
Q 1788 4563 1984 4563 
Q 2175 4563 2741 4434 
Q 2888 4400 2888 4263 
Q 2888 4156 2809 4068 
Q 2731 3981 2625 3981 
Q 2547 3981 2484 4017 
Q 2422 4053 2287 4143 
Q 2153 4234 2047 4282 
Q 1941 4331 1825 4331 
Q 1694 4331 1589 4251 
Q 1484 4172 1484 4044 
Q 1484 3841 1664 3577 
Q 1844 3313 2175 2900 
Q 2553 2419 2553 1838 
Q 2553 1550 2470 1215 
Q 2388 881 2230 584 
Q 2072 288 1826 95 
Q 1581 -97 1281 -97 
z
M 1294 78 
Q 1544 78 1723 337 
Q 1903 597 1995 955 
Q 2088 1313 2088 1556 
Q 2088 2034 1753 2631 
Q 1416 2538 1172 2238 
Q 928 1938 803 1547 
Q 678 1156 678 806 
Q 678 500 837 289 
Q 997 78 1294 78 
z
" transform="scale(0.015625)"/>
     <path id="Cmr10-3d" d="M 481 850 
Q 428 850 393 890 
Q 359 931 359 978 
Q 359 1031 393 1068 
Q 428 1106 481 1106 
L 4500 1106 
Q 4547 1106 4581 1068 
Q 4616 1031 4616 978 
Q 4616 931 4581 890 
Q 4547 850 4500 850 
L 481 850 
z
M 481 2094 
Q 428 2094 393 2131 
Q 359 2169 359 2222 
Q 359 2269 393 2309 
Q 428 2350 481 2350 
L 4500 2350 
Q 4547 2350 4581 2309 
Q 4616 2269 4616 2222 
Q 4616 2169 4581 2131 
Q 4547 2094 4500 2094 
L 481 2094 
z
" transform="scale(0.015625)"/>
     <path id="Cmr10-31" d="M 594 0 
L 594 225 
Q 1394 225 1394 428 
L 1394 3788 
Q 1063 3628 556 3628 
L 556 3853 
Q 1341 3853 1741 4263 
L 1831 4263 
Q 1853 4263 1873 4245 
Q 1894 4228 1894 4206 
L 1894 428 
Q 1894 225 2694 225 
L 2694 0 
L 594 0 
z
" transform="scale(0.015625)"/>
     <path id="DejaVuSerif-Bold-3a" d="M 588 2541 
Q 588 2788 761 2963 
Q 934 3138 1178 3138 
Q 1422 3138 1597 2961 
Q 1772 2784 1772 2541 
Q 1772 2297 1598 2125 
Q 1425 1953 1178 1953 
Q 931 1953 759 2125 
Q 588 2297 588 2541 
z
M 588 506 
Q 588 750 761 925 
Q 934 1100 1178 1100 
Q 1422 1100 1597 925 
Q 1772 750 1772 506 
Q 1772 259 1597 84 
Q 1422 -91 1178 -91 
Q 934 -91 761 84 
Q 588 259 588 506 
z
" transform="scale(0.015625)"/>
     <path id="DejaVuSerif-Bold-71" d="M 3853 2944 
L 3853 -953 
L 4325 -953 
L 4325 -1331 
L 2234 -1331 
L 2234 -953 
L 2747 -953 
L 2747 422 
Q 2606 163 2367 36 
Q 2128 -91 1778 -91 
Q 1072 -91 667 378 
Q 263 847 263 1663 
Q 263 2481 667 2947 
Q 1072 3413 1778 3413 
Q 2128 3413 2367 3286 
Q 2606 3159 2747 2900 
L 2747 3322 
L 4325 3322 
L 4325 2944 
L 3853 2944 
z
M 2747 1825 
Q 2747 2406 2597 2665 
Q 2447 2925 2119 2925 
Q 1775 2925 1636 2651 
Q 1497 2378 1497 1663 
Q 1497 947 1637 672 
Q 1778 397 2119 397 
Q 2447 397 2597 656 
Q 2747 916 2747 1497 
L 2747 1825 
z
" transform="scale(0.015625)"/>
     <path id="DejaVuSerif-Bold-75" d="M 3963 3322 
L 3963 378 
L 4434 378 
L 4434 0 
L 2853 0 
L 2853 469 
Q 2656 172 2400 40 
Q 2144 -91 1753 -91 
Q 1194 -91 908 239 
Q 622 569 622 1209 
L 622 2944 
L 147 2944 
L 147 3322 
L 1728 3322 
L 1728 1381 
Q 1728 763 1831 595 
Q 1934 428 2209 428 
Q 2544 428 2698 675 
Q 2853 922 2853 1459 
L 2853 2944 
L 2450 2944 
L 2450 3322 
L 3963 3322 
z
" transform="scale(0.015625)"/>
     <path id="DejaVuSerif-Bold-72" d="M 3438 3359 
L 3438 2369 
L 3084 2369 
Q 3066 2634 2941 2764 
Q 2816 2894 2578 2894 
Q 2216 2894 2006 2575 
Q 1797 2256 1797 1691 
L 1797 378 
L 2400 378 
L 2400 0 
L 219 0 
L 219 378 
L 691 378 
L 691 2944 
L 184 2944 
L 184 3322 
L 1797 3322 
L 1797 2731 
Q 1959 3078 2226 3245 
Q 2494 3413 2881 3413 
Q 2978 3413 3117 3398 
Q 3256 3384 3438 3359 
z
" transform="scale(0.015625)"/>
     <path id="DejaVuSerif-Bold-73" d="M 300 97 
L 300 1025 
L 653 1025 
Q 697 653 931 458 
Q 1166 263 1569 263 
Q 1906 263 2086 380 
Q 2266 497 2266 716 
Q 2266 916 2152 1025 
Q 2038 1134 1709 1216 
L 1253 1331 
Q 738 1459 506 1698 
Q 275 1938 275 2344 
Q 275 2884 650 3148 
Q 1025 3413 1806 3413 
Q 2100 3413 2433 3364 
Q 2766 3316 3169 3213 
L 3169 2375 
L 2816 2375 
Q 2788 2716 2573 2887 
Q 2359 3059 1959 3059 
Q 1622 3059 1448 2951 
Q 1275 2844 1275 2638 
Q 1275 2469 1375 2372 
Q 1475 2275 1734 2209 
L 2188 2094 
Q 2841 1928 3091 1684 
Q 3341 1441 3341 1006 
Q 3341 444 2939 176 
Q 2538 -91 1691 -91 
Q 1381 -91 1034 -44 
Q 688 3 300 97 
z
" transform="scale(0.015625)"/>
     <path id="DejaVuSerif-Bold-4e" d="M 281 0 
L 281 378 
L 878 378 
L 878 4288 
L 281 4288 
L 281 4666 
L 1741 4666 
L 4556 1363 
L 4556 4288 
L 3963 4288 
L 3963 4666 
L 5594 4666 
L 5594 4288 
L 4997 4288 
L 4997 0 
L 4178 0 
L 1319 3372 
L 1319 378 
L 1913 378 
L 1913 0 
L 281 0 
z
" transform="scale(0.015625)"/>
     <path id="DejaVuSerif-Bold-4f" d="M 2784 288 
Q 3381 288 3672 791 
Q 3963 1294 3963 2328 
Q 3963 3366 3672 3869 
Q 3381 4372 2784 4372 
Q 2191 4372 1898 3864 
Q 1606 3356 1606 2328 
Q 1606 1303 1898 795 
Q 2191 288 2784 288 
z
M 2784 -91 
Q 1606 -91 937 553 
Q 269 1197 269 2328 
Q 269 3459 939 4104 
Q 1609 4750 2784 4750 
Q 3963 4750 4631 4106 
Q 5300 3463 5300 2328 
Q 5300 1197 4629 553 
Q 3959 -91 2784 -91 
z
" transform="scale(0.015625)"/>
     <path id="DejaVuSerif-Bold-54" d="M 1159 0 
L 1159 378 
L 1778 378 
L 1778 4238 
L 500 4238 
L 500 3500 
L 72 3500 
L 72 4666 
L 4697 4666 
L 4697 3500 
L 4275 3500 
L 4275 4238 
L 2988 4238 
L 2988 378 
L 3609 378 
L 3609 0 
L 1159 0 
z
" transform="scale(0.015625)"/>
    </defs>
    <use xlink:href="#DejaVuSerif-Bold-44" transform="translate(0 0.015625)"/>
    <use xlink:href="#DejaVuSerif-Bold-65" transform="translate(86.71875 0.015625)"/>
    <use xlink:href="#DejaVuSerif-Bold-66" transform="translate(150.341797 0.015625)"/>
    <use xlink:href="#DejaVuSerif-Bold-69" transform="translate(193.359375 0.015625)"/>
    <use xlink:href="#DejaVuSerif-Bold-63" transform="translate(231.347656 0.015625)"/>
    <use xlink:href="#DejaVuSerif-Bold-69" transform="translate(292.236328 0.015625)"/>
    <use xlink:href="#DejaVuSerif-Bold-65" transform="translate(330.224609 0.015625)"/>
    <use xlink:href="#DejaVuSerif-Bold-6e" transform="translate(393.847656 0.015625)"/>
    <use xlink:href="#DejaVuSerif-Bold-63" transform="translate(466.552734 0.015625)"/>
    <use xlink:href="#DejaVuSerif-Bold-79" transform="translate(527.441406 0.015625)"/>
    <use xlink:href="#DejaVuSerif-Bold-20" transform="translate(585.546875 0.015625)"/>
    <use xlink:href="#Cmmi10-b1" transform="translate(620.361328 0.015625)"/>
    <use xlink:href="#Cmr10-3d" transform="translate(667.672233 0.015625)"/>
    <use xlink:href="#Cmr10-31" transform="translate(748.28392 0.015625)"/>
    <use xlink:href="#DejaVuSerif-Bold-3a" transform="translate(798.28392 0.015625)"/>
    <use xlink:href="#DejaVuSerif-Bold-20" transform="translate(835.197982 0.015625)"/>
    <use xlink:href="#DejaVuSerif-Bold-65" transform="translate(870.012436 0.015625)"/>
    <use xlink:href="#DejaVuSerif-Bold-71" transform="translate(933.635482 0.015625)"/>
    <use xlink:href="#DejaVuSerif-Bold-75" transform="translate(1003.557357 0.015625)"/>
    <use xlink:href="#DejaVuSerif-Bold-69" transform="translate(1076.262436 0.015625)"/>
    <use xlink:href="#DejaVuSerif-Bold-6c" transform="translate(1114.250717 0.015625)"/>
    <use xlink:href="#DejaVuSerif-Bold-69" transform="translate(1152.238998 0.015625)"/>
    <use xlink:href="#DejaVuSerif-Bold-62" transform="translate(1190.227279 0.015625)"/>
    <use xlink:href="#DejaVuSerif-Bold-72" transform="translate(1260.149154 0.015625)"/>
    <use xlink:href="#DejaVuSerif-Bold-69" transform="translate(1312.834701 0.015625)"/>
    <use xlink:href="#DejaVuSerif-Bold-75" transform="translate(1350.822982 0.015625)"/>
    <use xlink:href="#DejaVuSerif-Bold-6d" transform="translate(1423.528061 0.015625)"/>
    <use xlink:href="#DejaVuSerif-Bold-20" transform="translate(1529.338607 0.015625)"/>
    <use xlink:href="#DejaVuSerif-Bold-69" transform="translate(1564.153061 0.015625)"/>
    <use xlink:href="#DejaVuSerif-Bold-73" transform="translate(1602.141342 0.015625)"/>
    <use xlink:href="#DejaVuSerif-Bold-20" transform="translate(1658.44017 0.015625)"/>
    <use xlink:href="#DejaVuSerif-Bold-4e" transform="translate(1693.254623 0.015625)"/>
    <use xlink:href="#DejaVuSerif-Bold-4f" transform="translate(1784.660873 0.015625)"/>
    <use xlink:href="#DejaVuSerif-Bold-54" transform="translate(1871.770248 0.015625)"/>
    <use xlink:href="#DejaVuSerif-Bold-20" transform="translate(1946.184311 0.015625)"/>
    <use xlink:href="#DejaVuSerif-Bold-63" transform="translate(1980.998764 0.015625)"/>
    <use xlink:href="#DejaVuSerif-Bold-6f" transform="translate(2041.887436 0.015625)"/>
    <use xlink:href="#DejaVuSerif-Bold-6d" transform="translate(2108.586654 0.015625)"/>
    <use xlink:href="#DejaVuSerif-Bold-70" transform="translate(2214.397201 0.015625)"/>
    <use xlink:href="#DejaVuSerif-Bold-6c" transform="translate(2284.319076 0.015625)"/>
    <use xlink:href="#DejaVuSerif-Bold-65" transform="translate(2322.307357 0.015625)"/>
    <use xlink:href="#DejaVuSerif-Bold-78" transform="translate(2385.930404 0.015625)"/>
    <use xlink:href="#DejaVuSerif-Bold-2d" transform="translate(2445.549545 0.015625)"/>
    <use xlink:href="#DejaVuSerif-Bold-62" transform="translate(2487.053451 0.015625)"/>
    <use xlink:href="#DejaVuSerif-Bold-61" transform="translate(2556.975326 0.015625)"/>
    <use xlink:href="#DejaVuSerif-Bold-6c" transform="translate(2621.770248 0.015625)"/>
    <use xlink:href="#DejaVuSerif-Bold-61" transform="translate(2659.758529 0.015625)"/>
    <use xlink:href="#DejaVuSerif-Bold-6e" transform="translate(2724.553451 0.015625)"/>
    <use xlink:href="#DejaVuSerif-Bold-63" transform="translate(2797.258529 0.015625)"/>
    <use xlink:href="#DejaVuSerif-Bold-65" transform="translate(2858.147201 0.015625)"/>
    <use xlink:href="#DejaVuSerif-Bold-64" transform="translate(2921.770248 0.015625)"/>
   </g>
  </g>
 </g>
 <defs>
  <clipPath id="pb7a2e33be2">
   <rect x="7.2" y="57.6" width="516" height="433.44"/>
  </clipPath>
 </defs>
</svg>
