<?xml version="1.0" encoding="utf-8" standalone="no"?>
<!DOCTYPE svg PUBLIC "-//W3C//DTD SVG 1.1//EN"
  "http://www.w3.org/Graphics/SVG/1.1/DTD/svg11.dtd">
<svg xmlns:xlink="http://www.w3.org/1999/xlink" width="391.392pt" height="452.721141pt" viewBox="0 0 391.392 452.721141" xmlns="http://www.w3.org/2000/svg" version="1.1">
 <metadata>
  <rdf:RDF xmlns:dc="http://purl.org/dc/elements/1.1/" xmlns:cc="http://creativecommons.org/ns#" xmlns:rdf="http://www.w3.org/1999/02/22-rdf-syntax-ns#">
   <cc:Work>
    <dc:type rdf:resource="http://purl.org/dc/dcmitype/StillImage"/>
    <dc:date>2026-06-08T13:36:33.220651</dc:date>
    <dc:format>image/svg+xml</dc:format>
    <dc:creator>
     <cc:Agent>
      <dc:title>Matplotlib v3.10.8, https://matplotlib.org/</dc:title>
     </cc:Agent>
    </dc:creator>
   </cc:Work>
  </rdf:RDF>
 </metadata>
 <defs>
  <style type="text/css">*{stroke-linejoin: round; stroke-linecap: butt}</style>
 </defs>
 <g id="figure_1">
  <g id="patch_1">
   <path d="M 0 452.721141 
L 391.392 452.721141 
L 391.392 -0 
L 0 -0 
z
" style="fill: #ffffff"/>
  </g>
  <g id="axes_1">
   <g id="patch_2">
    <path d="M 103.395201 303.553701 
Q 195.697518 325.248576 285.823089 304.06463 
" style="fill: none; stroke: #77ac30; stroke-width: 2; stroke-linecap: round"/>
    <path d="M 279.730977 302.620268 
L 285.823089 304.06463 
L 281.012333 308.071702 
z
" style="fill: #77ac30; stroke: #77ac30; stroke-width: 2; stroke-linecap: round"/>
   </g>
   <g id="patch_3">
    <path d="M 287.996799 315.934299 
Q 195.694482 294.239424 105.568911 315.42337 
" style="fill: none; stroke: #77ac30; stroke-width: 2; stroke-linecap: round"/>
    <path d="M 111.661023 316.867732 
L 105.568911 315.42337 
L 110.379667 311.416298 
z
" style="fill: #77ac30; stroke: #77ac30; stroke-width: 2; stroke-linecap: round"/>
   </g>
   <g id="patch_4">
    <path d="M 300.190489 280.017601 
Q 271.420823 209.000242 215.808433 159.595783 
" style="fill: none; stroke: #edb120; stroke-width: 2; stroke-linecap: round"/>
    <path d="M 218.135387 165.408294 
L 215.808433 159.595783 
L 221.854615 161.221727 
z
" style="fill: #edb120; stroke: #edb120; stroke-width: 2; stroke-linecap: round"/>
   </g>
   <g id="patch_5">
    <path d="M 224.257511 150.974399 
Q 253.027177 221.991758 308.639567 271.396217 
" style="fill: none; stroke: #edb120; stroke-width: 2; stroke-linecap: round"/>
    <path d="M 306.312613 265.583706 
L 308.639567 271.396217 
L 302.593385 269.770273 
z
" style="fill: #edb120; stroke: #edb120; stroke-width: 2; stroke-linecap: round"/>
   </g>
   <g id="patch_6">
    <path d="M 177.250384 158.115031 
Q 119.967519 209.005425 92.038598 277.951156 
" style="fill: none; stroke: #a2142f; stroke-width: 2; stroke-linecap: round"/>
    <path d="M 96.736279 273.8121 
L 92.038598 277.951156 
L 91.545962 271.709577 
z
" style="fill: #a2142f; stroke: #a2142f; stroke-width: 2; stroke-linecap: round"/>
   </g>
   <g id="patch_7">
    <path d="M 81.085616 272.876969 
Q 138.368481 221.986575 166.297402 153.040844 
" style="fill: none; stroke: #a2142f; stroke-width: 2; stroke-linecap: round"/>
    <path d="M 161.599721 157.1799 
L 166.297402 153.040844 
L 166.790038 159.282423 
z
" style="fill: #a2142f; stroke: #a2142f; stroke-width: 2; stroke-linecap: round"/>
   </g>
   <g id="patch_8">
    <path d="M 195.696 167.8176 
C 208.046402 167.8176 219.892627 162.910733 228.62568 154.17768 
C 237.358733 145.444627 242.2656 133.598402 242.2656 121.248 
C 242.2656 108.897598 237.358733 97.051373 228.62568 88.31832 
C 219.892627 79.585267 208.046402 74.6784 195.696 74.6784 
C 183.345598 74.6784 171.499373 79.585267 162.76632 88.31832 
C 154.033267 97.051373 149.1264 108.897598 149.1264 121.248 
C 149.1264 133.598402 154.033267 145.444627 162.76632 154.17768 
C 171.499373 162.910733 183.345598 167.8176 195.696 167.8176 
z
" clip-path="url(#p7e9bdae95d)" style="fill: #ffffff; stroke: #7e2f8e; stroke-width: 2.5; stroke-linejoin: miter"/>
   </g>
   <g id="patch_9">
    <path d="M 62.64 351.8784 
C 73.814173 351.8784 84.532186 347.438854 92.43352 339.53752 
C 100.334854 331.636186 104.7744 320.918173 104.7744 309.744 
C 104.7744 298.569827 100.334854 287.851814 92.43352 279.95048 
C 84.532186 272.049146 73.814173 267.6096 62.64 267.6096 
C 51.465827 267.6096 40.747814 272.049146 32.84648 279.95048 
C 24.945146 287.851814 20.5056 298.569827 20.5056 309.744 
C 20.5056 320.918173 24.945146 331.636186 32.84648 339.53752 
C 40.747814 347.438854 51.465827 351.8784 62.64 351.8784 
z
" clip-path="url(#p7e9bdae95d)" style="fill: #ffffff; stroke: #0072bd; stroke-width: 2.5; stroke-linejoin: miter"/>
   </g>
   <g id="patch_10">
    <path d="M 328.752 351.8784 
C 339.926173 351.8784 350.644186 347.438854 358.54552 339.53752 
C 366.446854 331.636186 370.8864 320.918173 370.8864 309.744 
C 370.8864 298.569827 366.446854 287.851814 358.54552 279.95048 
C 350.644186 272.049146 339.926173 267.6096 328.752 267.6096 
C 317.577827 267.6096 306.859814 272.049146 298.95848 279.95048 
C 291.057146 287.851814 286.6176 298.569827 286.6176 309.744 
C 286.6176 320.918173 291.057146 331.636186 298.95848 339.53752 
C 306.859814 347.438854 317.577827 351.8784 328.752 351.8784 
z
" clip-path="url(#p7e9bdae95d)" style="fill: #ffffff; stroke: #d95319; stroke-width: 2.5; stroke-linejoin: miter"/>
   </g>
   <g id="text_1">
    <g id="patch_11">
     <path d="M 120.368344 449.721141 
L 271.023656 449.721141 
Q 275.223656 449.721141 275.223656 445.521141 
L 275.223656 376.421297 
Q 275.223656 372.221297 271.023656 372.221297 
L 120.368344 372.221297 
Q 116.168344 372.221297 116.168344 376.421297 
L 116.168344 445.521141 
Q 116.168344 449.721141 120.368344 449.721141 
z
" style="fill: #ebf5e0; stroke: #77ac30; stroke-linejoin: miter"/>
    </g>
    <!-- $n=3,\;\ell=1,\;s=2$ -->
    <g transform="translate(154.9035 384.250359) scale(0.105 -0.105)">
     <defs>
      <path id="Cmmi10-6e" d="M 494 109 
Q 494 147 500 166 
L 978 2075 
Q 1025 2253 1025 2388 
Q 1025 2663 838 2663 
Q 638 2663 541 2423 
Q 444 2184 353 1819 
Q 353 1800 334 1789 
Q 316 1778 300 1778 
L 225 1778 
Q 203 1778 187 1801 
Q 172 1825 172 1844 
Q 241 2122 305 2315 
Q 369 2509 505 2668 
Q 641 2828 844 2828 
Q 1084 2828 1268 2676 
Q 1453 2525 1453 2291 
Q 1644 2541 1900 2684 
Q 2156 2828 2444 2828 
Q 2672 2828 2837 2750 
Q 3003 2672 3095 2514 
Q 3188 2356 3188 2138 
Q 3188 1875 3070 1503 
Q 2953 1131 2778 672 
Q 2688 463 2688 288 
Q 2688 97 2834 97 
Q 3084 97 3251 365 
Q 3419 634 3488 941 
Q 3500 978 3541 978 
L 3616 978 
Q 3641 978 3658 962 
Q 3675 947 3675 922 
Q 3675 916 3669 903 
Q 3581 541 3364 234 
Q 3147 -72 2822 -72 
Q 2597 -72 2437 83 
Q 2278 238 2278 459 
Q 2278 578 2328 709 
Q 2409 919 2514 1209 
Q 2619 1500 2686 1765 
Q 2753 2031 2753 2234 
Q 2753 2413 2679 2538 
Q 2606 2663 2431 2663 
Q 2197 2663 2000 2559 
Q 1803 2456 1656 2286 
Q 1509 2116 1388 1881 
L 953 141 
Q 931 53 854 -9 
Q 778 -72 684 -72 
Q 606 -72 550 -22 
Q 494 28 494 109 
z
" transform="scale(0.015625)"/>
      <path id="Cmr10-3d" d="M 481 850 
Q 428 850 393 890 
Q 359 931 359 978 
Q 359 1031 393 1068 
Q 428 1106 481 1106 
L 4500 1106 
Q 4547 1106 4581 1068 
Q 4616 1031 4616 978 
Q 4616 931 4581 890 
Q 4547 850 4500 850 
L 481 850 
z
M 481 2094 
Q 428 2094 393 2131 
Q 359 2169 359 2222 
Q 359 2269 393 2309 
Q 428 2350 481 2350 
L 4500 2350 
Q 4547 2350 4581 2309 
Q 4616 2269 4616 2222 
Q 4616 2169 4581 2131 
Q 4547 2094 4500 2094 
L 481 2094 
z
" transform="scale(0.015625)"/>
      <path id="Cmr10-33" d="M 609 494 
Q 759 275 1012 169 
Q 1266 63 1556 63 
Q 1928 63 2084 380 
Q 2241 697 2241 1100 
Q 2241 1281 2208 1462 
Q 2175 1644 2097 1800 
Q 2019 1956 1883 2050 
Q 1747 2144 1550 2144 
L 1125 2144 
Q 1069 2144 1069 2203 
L 1069 2259 
Q 1069 2309 1125 2309 
L 1478 2338 
Q 1703 2338 1851 2506 
Q 2000 2675 2069 2917 
Q 2138 3159 2138 3378 
Q 2138 3684 1994 3881 
Q 1850 4078 1556 4078 
Q 1313 4078 1091 3986 
Q 869 3894 738 3706 
Q 750 3709 759 3711 
Q 769 3713 781 3713 
Q 925 3713 1022 3613 
Q 1119 3513 1119 3372 
Q 1119 3234 1022 3134 
Q 925 3034 781 3034 
Q 641 3034 541 3134 
Q 441 3234 441 3372 
Q 441 3647 606 3850 
Q 772 4053 1033 4158 
Q 1294 4263 1556 4263 
Q 1750 4263 1965 4205 
Q 2181 4147 2356 4039 
Q 2531 3931 2642 3762 
Q 2753 3594 2753 3378 
Q 2753 3109 2633 2881 
Q 2513 2653 2303 2487 
Q 2094 2322 1844 2241 
Q 2122 2188 2372 2031 
Q 2622 1875 2773 1631 
Q 2925 1388 2925 1106 
Q 2925 753 2731 467 
Q 2538 181 2222 20 
Q 1906 -141 1556 -141 
Q 1256 -141 954 -26 
Q 653 88 461 316 
Q 269 544 269 863 
Q 269 1022 375 1128 
Q 481 1234 641 1234 
Q 744 1234 830 1186 
Q 916 1138 964 1050 
Q 1013 963 1013 863 
Q 1013 706 903 600 
Q 794 494 641 494 
L 609 494 
z
" transform="scale(0.015625)"/>
      <path id="Cmmi10-3b" d="M 634 -1153 
Q 634 -1125 659 -1100 
Q 891 -878 1019 -587 
Q 1147 -297 1147 25 
L 1147 103 
Q 1044 0 891 0 
Q 744 0 641 103 
Q 538 206 538 353 
Q 538 503 641 603 
Q 744 703 891 703 
Q 1119 703 1216 492 
Q 1313 281 1313 25 
Q 1313 -331 1170 -651 
Q 1028 -972 769 -1228 
Q 744 -1241 728 -1241 
Q 697 -1241 665 -1212 
Q 634 -1184 634 -1153 
z
" transform="scale(0.015625)"/>
      <path id="Cmmi10-60" d="M 153 475 
Q 125 475 94 509 
Q 63 544 63 575 
Q 63 628 594 1113 
Q 594 1141 592 1159 
Q 591 1178 588 1197 
Q 588 1472 631 1758 
Q 675 2044 751 2328 
Q 828 2613 943 2922 
Q 1059 3231 1178 3463 
Q 1384 3884 1628 4198 
Q 1872 4513 2169 4513 
Q 2372 4513 2459 4373 
Q 2547 4234 2547 4025 
Q 2547 2853 991 1269 
Q 966 994 966 878 
Q 966 78 1331 78 
Q 1488 78 1642 161 
Q 1797 244 1908 341 
Q 2019 438 2216 628 
Q 2228 641 2253 641 
Q 2288 641 2319 603 
Q 2350 566 2350 531 
Q 2350 509 2322 488 
Q 2038 209 1809 56 
Q 1581 -97 1319 -97 
Q 981 -97 817 193 
Q 653 484 609 884 
Q 438 713 191 488 
Q 184 475 153 475 
z
M 1044 1575 
Q 1384 1938 1681 2338 
Q 1978 2738 2176 3180 
Q 2375 3622 2375 4044 
Q 2375 4347 2163 4347 
Q 1934 4347 1696 3801 
Q 1459 3256 1290 2622 
Q 1122 1988 1044 1575 
z
" transform="scale(0.015625)"/>
      <path id="Cmr10-31" d="M 594 0 
L 594 225 
Q 1394 225 1394 428 
L 1394 3788 
Q 1063 3628 556 3628 
L 556 3853 
Q 1341 3853 1741 4263 
L 1831 4263 
Q 1853 4263 1873 4245 
Q 1894 4228 1894 4206 
L 1894 428 
Q 1894 225 2694 225 
L 2694 0 
L 594 0 
z
" transform="scale(0.015625)"/>
      <path id="Cmmi10-73" d="M 556 391 
Q 728 97 1247 97 
Q 1472 97 1675 173 
Q 1878 250 2011 403 
Q 2144 556 2144 775 
Q 2144 941 2025 1047 
Q 1906 1153 1734 1191 
L 1388 1259 
Q 1150 1319 997 1481 
Q 844 1644 844 1875 
Q 844 2159 998 2378 
Q 1153 2597 1406 2712 
Q 1659 2828 1931 2828 
Q 2222 2828 2451 2689 
Q 2681 2550 2681 2278 
Q 2681 2131 2598 2018 
Q 2516 1906 2369 1906 
Q 2284 1906 2223 1961 
Q 2163 2016 2163 2100 
Q 2163 2175 2205 2245 
Q 2247 2316 2317 2358 
Q 2388 2400 2463 2400 
Q 2406 2538 2251 2600 
Q 2097 2663 1919 2663 
Q 1756 2663 1593 2597 
Q 1431 2531 1332 2404 
Q 1234 2278 1234 2106 
Q 1234 1991 1315 1903 
Q 1397 1816 1516 1778 
L 1888 1703 
Q 2066 1666 2214 1570 
Q 2363 1475 2448 1329 
Q 2534 1184 2534 997 
Q 2534 759 2401 528 
Q 2269 297 2075 159 
Q 1734 -72 1241 -72 
Q 900 -72 615 84 
Q 331 241 331 550 
Q 331 725 432 854 
Q 534 984 709 984 
Q 813 984 883 921 
Q 953 859 953 756 
Q 953 609 843 500 
Q 734 391 588 391 
L 556 391 
z
" transform="scale(0.015625)"/>
      <path id="Cmr10-32" d="M 319 0 
L 319 172 
Q 319 188 331 206 
L 1325 1306 
Q 1550 1550 1690 1715 
Q 1831 1881 1968 2097 
Q 2106 2313 2186 2536 
Q 2266 2759 2266 3009 
Q 2266 3272 2169 3511 
Q 2072 3750 1880 3894 
Q 1688 4038 1416 4038 
Q 1138 4038 916 3870 
Q 694 3703 603 3438 
Q 628 3444 672 3444 
Q 816 3444 917 3347 
Q 1019 3250 1019 3097 
Q 1019 2950 917 2848 
Q 816 2747 672 2747 
Q 522 2747 420 2851 
Q 319 2956 319 3097 
Q 319 3338 409 3548 
Q 500 3759 670 3923 
Q 841 4088 1055 4175 
Q 1269 4263 1509 4263 
Q 1875 4263 2190 4108 
Q 2506 3953 2690 3670 
Q 2875 3388 2875 3009 
Q 2875 2731 2753 2481 
Q 2631 2231 2440 2026 
Q 2250 1822 1953 1562 
Q 1656 1303 1563 1216 
L 838 519 
L 1453 519 
Q 1906 519 2211 526 
Q 2516 534 2534 550 
Q 2609 631 2688 1141 
L 2875 1141 
L 2694 0 
L 319 0 
z
" transform="scale(0.015625)"/>
     </defs>
     <use xlink:href="#Cmmi10-6e" transform="translate(0 0.484375)"/>
     <use xlink:href="#Cmr10-3d" transform="translate(77.568359 0.484375)"/>
     <use xlink:href="#Cmr10-33" transform="translate(172.8125 0.484375)"/>
     <use xlink:href="#Cmmi10-3b" transform="translate(222.8125 0.484375)"/>
     <use xlink:href="#Cmmi10-60" transform="translate(292.443771 0.484375)"/>
     <use xlink:href="#Cmr10-3d" transform="translate(351.603928 0.484375)"/>
     <use xlink:href="#Cmr10-31" transform="translate(446.848068 0.484375)"/>
     <use xlink:href="#Cmmi10-3b" transform="translate(496.848068 0.484375)"/>
     <use xlink:href="#Cmmi10-73" transform="translate(566.47934 0.484375)"/>
     <use xlink:href="#Cmr10-3d" transform="translate(630.815277 0.484375)"/>
     <use xlink:href="#Cmr10-32" transform="translate(726.059418 0.484375)"/>
    </g>
    <!-- $\delta = 3-1-2 = 0$ -->
    <g transform="translate(159.156 396.008062) scale(0.105 -0.105)">
     <defs>
      <path id="Cmmi10-b1" d="M 1281 -97 
Q 1059 -97 868 -14 
Q 678 69 536 225 
Q 394 381 325 573 
Q 256 766 256 991 
Q 256 1391 445 1767 
Q 634 2144 961 2419 
Q 1288 2694 1672 2791 
Q 1484 3138 1386 3389 
Q 1288 3641 1288 3903 
Q 1288 4097 1378 4245 
Q 1469 4394 1628 4478 
Q 1788 4563 1984 4563 
Q 2175 4563 2741 4434 
Q 2888 4400 2888 4263 
Q 2888 4156 2809 4068 
Q 2731 3981 2625 3981 
Q 2547 3981 2484 4017 
Q 2422 4053 2287 4143 
Q 2153 4234 2047 4282 
Q 1941 4331 1825 4331 
Q 1694 4331 1589 4251 
Q 1484 4172 1484 4044 
Q 1484 3841 1664 3577 
Q 1844 3313 2175 2900 
Q 2553 2419 2553 1838 
Q 2553 1550 2470 1215 
Q 2388 881 2230 584 
Q 2072 288 1826 95 
Q 1581 -97 1281 -97 
z
M 1294 78 
Q 1544 78 1723 337 
Q 1903 597 1995 955 
Q 2088 1313 2088 1556 
Q 2088 2034 1753 2631 
Q 1416 2538 1172 2238 
Q 928 1938 803 1547 
Q 678 1156 678 806 
Q 678 500 837 289 
Q 997 78 1294 78 
z
" transform="scale(0.015625)"/>
      <path id="Cmsy10-a1" d="M 653 1472 
Q 600 1472 565 1512 
Q 531 1553 531 1600 
Q 531 1647 565 1687 
Q 600 1728 653 1728 
L 4325 1728 
Q 4375 1728 4408 1687 
Q 4441 1647 4441 1600 
Q 4441 1553 4408 1512 
Q 4375 1472 4325 1472 
L 653 1472 
z
" transform="scale(0.015625)"/>
      <path id="Cmr10-30" d="M 1600 -141 
Q 816 -141 533 504 
Q 250 1150 250 2041 
Q 250 2597 351 3087 
Q 453 3578 754 3920 
Q 1056 4263 1600 4263 
Q 2022 4263 2290 4056 
Q 2559 3850 2700 3523 
Q 2841 3197 2892 2823 
Q 2944 2450 2944 2041 
Q 2944 1491 2842 1011 
Q 2741 531 2444 195 
Q 2147 -141 1600 -141 
z
M 1600 25 
Q 1956 25 2131 390 
Q 2306 756 2347 1200 
Q 2388 1644 2388 2144 
Q 2388 2625 2347 3031 
Q 2306 3438 2132 3767 
Q 1959 4097 1600 4097 
Q 1238 4097 1063 3765 
Q 888 3434 847 3029 
Q 806 2625 806 2144 
Q 806 1788 823 1472 
Q 841 1156 916 820 
Q 991 484 1158 254 
Q 1325 25 1600 25 
z
" transform="scale(0.015625)"/>
     </defs>
     <use xlink:href="#Cmmi10-b1" transform="translate(0 0.703125)"/>
     <use xlink:href="#Cmr10-3d" transform="translate(61.943359 0.703125)"/>
     <use xlink:href="#Cmr10-33" transform="translate(157.1875 0.703125)"/>
     <use xlink:href="#Cmsy10-a1" transform="translate(224.746094 0.703125)"/>
     <use xlink:href="#Cmr10-31" transform="translate(319.990234 0.703125)"/>
     <use xlink:href="#Cmsy10-a1" transform="translate(387.548828 0.703125)"/>
     <use xlink:href="#Cmr10-32" transform="translate(482.792969 0.703125)"/>
     <use xlink:href="#Cmr10-3d" transform="translate(550.351562 0.703125)"/>
     <use xlink:href="#Cmr10-30" transform="translate(645.595703 0.703125)"/>
    </g>
    <!--  -->
    <g transform="translate(195.696 407.765766) scale(0.105 -0.105)"/>
    <!-- Deficiency Zero Thm: -->
    <g transform="translate(138.350414 419.523469) scale(0.105 -0.105)">
     <defs>
      <path id="DejaVuSerif-44" d="M 1581 331 
L 2163 331 
Q 3072 331 3558 850 
Q 4044 1369 4044 2338 
Q 4044 3306 3559 3818 
Q 3075 4331 2163 4331 
L 1581 4331 
L 1581 331 
z
M 353 0 
L 353 331 
L 947 331 
L 947 4331 
L 353 4331 
L 353 4666 
L 2209 4666 
Q 3416 4666 4089 4050 
Q 4763 3434 4763 2338 
Q 4763 1238 4088 619 
Q 3413 0 2209 0 
L 353 0 
z
" transform="scale(0.015625)"/>
      <path id="DejaVuSerif-65" d="M 3469 1600 
L 991 1600 
L 991 1575 
Q 991 903 1244 561 
Q 1497 219 1991 219 
Q 2369 219 2611 417 
Q 2853 616 2950 1006 
L 3413 1006 
Q 3275 459 2904 184 
Q 2534 -91 1931 -91 
Q 1203 -91 761 389 
Q 319 869 319 1663 
Q 319 2450 753 2931 
Q 1188 3413 1894 3413 
Q 2647 3413 3050 2948 
Q 3453 2484 3469 1600 
z
M 2791 1931 
Q 2772 2513 2545 2808 
Q 2319 3103 1894 3103 
Q 1497 3103 1269 2806 
Q 1041 2509 991 1931 
L 2791 1931 
z
" transform="scale(0.015625)"/>
      <path id="DejaVuSerif-66" d="M 2753 4078 
L 2450 4078 
Q 2447 4313 2317 4434 
Q 2188 4556 1941 4556 
Q 1619 4556 1487 4379 
Q 1356 4203 1356 3750 
L 1356 3322 
L 2284 3322 
L 2284 2988 
L 1356 2988 
L 1356 331 
L 2094 331 
L 2094 0 
L 231 0 
L 231 331 
L 781 331 
L 781 2988 
L 231 2988 
L 231 3322 
L 781 3322 
L 781 3738 
Q 781 4294 1070 4578 
Q 1359 4863 1919 4863 
Q 2128 4863 2337 4825 
Q 2547 4788 2753 4709 
L 2753 4078 
z
" transform="scale(0.015625)"/>
      <path id="DejaVuSerif-69" d="M 622 4353 
Q 622 4497 726 4603 
Q 831 4709 978 4709 
Q 1122 4709 1226 4603 
Q 1331 4497 1331 4353 
Q 1331 4206 1228 4103 
Q 1125 4000 978 4000 
Q 831 4000 726 4103 
Q 622 4206 622 4353 
z
M 1356 331 
L 1900 331 
L 1900 0 
L 231 0 
L 231 331 
L 781 331 
L 781 2988 
L 231 2988 
L 231 3322 
L 1356 3322 
L 1356 331 
z
" transform="scale(0.015625)"/>
      <path id="DejaVuSerif-63" d="M 3291 997 
Q 3169 466 2822 187 
Q 2475 -91 1925 -91 
Q 1200 -91 759 389 
Q 319 869 319 1663 
Q 319 2459 759 2936 
Q 1200 3413 1925 3413 
Q 2241 3413 2553 3339 
Q 2866 3266 3181 3116 
L 3181 2266 
L 2847 2266 
Q 2781 2703 2561 2903 
Q 2341 3103 1931 3103 
Q 1466 3103 1228 2742 
Q 991 2381 991 1663 
Q 991 944 1227 581 
Q 1463 219 1931 219 
Q 2303 219 2525 412 
Q 2747 606 2828 997 
L 3291 997 
z
" transform="scale(0.015625)"/>
      <path id="DejaVuSerif-6e" d="M 263 0 
L 263 331 
L 781 331 
L 781 2988 
L 231 2988 
L 231 3322 
L 1356 3322 
L 1356 2731 
Q 1516 3069 1770 3241 
Q 2025 3413 2363 3413 
Q 2913 3413 3172 3097 
Q 3431 2781 3431 2113 
L 3431 331 
L 3944 331 
L 3944 0 
L 2356 0 
L 2356 331 
L 2853 331 
L 2853 1931 
Q 2853 2541 2703 2767 
Q 2553 2994 2175 2994 
Q 1775 2994 1565 2701 
Q 1356 2409 1356 1850 
L 1356 331 
L 1856 331 
L 1856 0 
L 263 0 
z
" transform="scale(0.015625)"/>
      <path id="DejaVuSerif-79" d="M 1381 -609 
L 1600 -56 
L 359 2988 
L -19 2988 
L -19 3322 
L 1509 3322 
L 1509 2988 
L 978 2988 
L 1913 703 
L 2847 2988 
L 2350 2988 
L 2350 3322 
L 3597 3322 
L 3597 2988 
L 3225 2988 
L 1703 -750 
Q 1547 -1138 1356 -1280 
Q 1166 -1422 819 -1422 
Q 672 -1422 517 -1397 
Q 363 -1372 206 -1325 
L 206 -691 
L 500 -691 
Q 519 -903 608 -995 
Q 697 -1088 884 -1088 
Q 1056 -1088 1161 -992 
Q 1266 -897 1381 -609 
z
" transform="scale(0.015625)"/>
      <path id="DejaVuSerif-20" transform="scale(0.015625)"/>
      <path id="DejaVuSerif-5a" d="M 288 0 
L 288 225 
L 3194 4281 
L 781 4281 
L 781 3584 
L 397 3584 
L 397 4666 
L 4084 4666 
L 4084 4441 
L 1178 384 
L 3816 384 
L 3816 1038 
L 4197 1038 
L 4197 0 
L 288 0 
z
" transform="scale(0.015625)"/>
      <path id="DejaVuSerif-72" d="M 3059 3328 
L 3059 2497 
L 2728 2497 
Q 2713 2744 2591 2866 
Q 2469 2988 2234 2988 
Q 1809 2988 1582 2694 
Q 1356 2400 1356 1850 
L 1356 331 
L 2022 331 
L 2022 0 
L 263 0 
L 263 331 
L 781 331 
L 781 2994 
L 231 2994 
L 231 3322 
L 1356 3322 
L 1356 2731 
Q 1525 3078 1790 3245 
Q 2056 3413 2438 3413 
Q 2578 3413 2733 3391 
Q 2888 3369 3059 3328 
z
" transform="scale(0.015625)"/>
      <path id="DejaVuSerif-6f" d="M 1925 219 
Q 2388 219 2623 584 
Q 2859 950 2859 1663 
Q 2859 2375 2623 2739 
Q 2388 3103 1925 3103 
Q 1463 3103 1227 2739 
Q 991 2375 991 1663 
Q 991 950 1228 584 
Q 1466 219 1925 219 
z
M 1925 -91 
Q 1200 -91 759 389 
Q 319 869 319 1663 
Q 319 2456 758 2934 
Q 1197 3413 1925 3413 
Q 2653 3413 3092 2934 
Q 3531 2456 3531 1663 
Q 3531 869 3092 389 
Q 2653 -91 1925 -91 
z
" transform="scale(0.015625)"/>
      <path id="DejaVuSerif-54" d="M 1222 0 
L 1222 331 
L 1819 331 
L 1819 4294 
L 447 4294 
L 447 3566 
L 63 3566 
L 63 4666 
L 4206 4666 
L 4206 3566 
L 3822 3566 
L 3822 4294 
L 2450 4294 
L 2450 331 
L 3047 331 
L 3047 0 
L 1222 0 
z
" transform="scale(0.015625)"/>
      <path id="DejaVuSerif-68" d="M 263 0 
L 263 331 
L 781 331 
L 781 4531 
L 231 4531 
L 231 4863 
L 1356 4863 
L 1356 2731 
Q 1516 3069 1770 3241 
Q 2025 3413 2363 3413 
Q 2913 3413 3172 3097 
Q 3431 2781 3431 2113 
L 3431 331 
L 3944 331 
L 3944 0 
L 2356 0 
L 2356 331 
L 2853 331 
L 2853 1931 
Q 2853 2541 2704 2764 
Q 2556 2988 2175 2988 
Q 1775 2988 1565 2697 
Q 1356 2406 1356 1850 
L 1356 331 
L 1856 331 
L 1856 0 
L 263 0 
z
" transform="scale(0.015625)"/>
      <path id="DejaVuSerif-6d" d="M 3316 2675 
Q 3481 3041 3739 3227 
Q 3997 3413 4341 3413 
Q 4863 3413 5119 3089 
Q 5375 2766 5375 2113 
L 5375 331 
L 5894 331 
L 5894 0 
L 4300 0 
L 4300 331 
L 4800 331 
L 4800 2047 
Q 4800 2556 4650 2772 
Q 4500 2988 4153 2988 
Q 3769 2988 3567 2697 
Q 3366 2406 3366 1850 
L 3366 331 
L 3866 331 
L 3866 0 
L 2291 0 
L 2291 331 
L 2791 331 
L 2791 2069 
Q 2791 2566 2641 2777 
Q 2491 2988 2144 2988 
Q 1759 2988 1557 2697 
Q 1356 2406 1356 1850 
L 1356 331 
L 1856 331 
L 1856 0 
L 263 0 
L 263 331 
L 781 331 
L 781 2994 
L 231 2994 
L 231 3322 
L 1356 3322 
L 1356 2731 
Q 1516 3063 1762 3238 
Q 2009 3413 2322 3413 
Q 2709 3413 2968 3220 
Q 3228 3028 3316 2675 
z
" transform="scale(0.015625)"/>
      <path id="DejaVuSerif-3a" d="M 666 325 
Q 666 500 786 622 
Q 906 744 1081 744 
Q 1256 744 1376 622 
Q 1497 500 1497 325 
Q 1497 150 1378 29 
Q 1259 -91 1081 -91 
Q 903 -91 784 29 
Q 666 150 666 325 
z
M 666 2363 
Q 666 2538 786 2658 
Q 906 2778 1081 2778 
Q 1259 2778 1378 2659 
Q 1497 2541 1497 2363 
Q 1497 2184 1378 2065 
Q 1259 1947 1081 1947 
Q 906 1947 786 2067 
Q 666 2188 666 2363 
z
" transform="scale(0.015625)"/>
     </defs>
     <use xlink:href="#DejaVuSerif-44"/>
     <use xlink:href="#DejaVuSerif-65" transform="translate(80.175781 0)"/>
     <use xlink:href="#DejaVuSerif-66" transform="translate(139.355469 0)"/>
     <use xlink:href="#DejaVuSerif-69" transform="translate(176.367188 0)"/>
     <use xlink:href="#DejaVuSerif-63" transform="translate(208.349609 0)"/>
     <use xlink:href="#DejaVuSerif-69" transform="translate(264.355469 0)"/>
     <use xlink:href="#DejaVuSerif-65" transform="translate(296.337891 0)"/>
     <use xlink:href="#DejaVuSerif-6e" transform="translate(355.517578 0)"/>
     <use xlink:href="#DejaVuSerif-63" transform="translate(419.921875 0)"/>
     <use xlink:href="#DejaVuSerif-79" transform="translate(475.927734 0)"/>
     <use xlink:href="#DejaVuSerif-20" transform="translate(532.421875 0)"/>
     <use xlink:href="#DejaVuSerif-5a" transform="translate(564.208984 0)"/>
     <use xlink:href="#DejaVuSerif-65" transform="translate(633.691406 0)"/>
     <use xlink:href="#DejaVuSerif-72" transform="translate(692.871094 0)"/>
     <use xlink:href="#DejaVuSerif-6f" transform="translate(740.673828 0)"/>
     <use xlink:href="#DejaVuSerif-20" transform="translate(800.878906 0)"/>
     <use xlink:href="#DejaVuSerif-54" transform="translate(832.666016 0)"/>
     <use xlink:href="#DejaVuSerif-68" transform="translate(899.365234 0)"/>
     <use xlink:href="#DejaVuSerif-6d" transform="translate(963.769531 0)"/>
     <use xlink:href="#DejaVuSerif-3a" transform="translate(1058.59375 0)"/>
    </g>
    <!-- unique complex-balanced -->
    <g transform="translate(127.776586 431.430469) scale(0.105 -0.105)">
     <defs>
      <path id="DejaVuSerif-75" d="M 2266 3322 
L 3341 3322 
L 3341 331 
L 3884 331 
L 3884 0 
L 2766 0 
L 2766 588 
Q 2606 256 2353 82 
Q 2100 -91 1766 -91 
Q 1213 -91 952 223 
Q 691 538 691 1209 
L 691 2988 
L 172 2988 
L 172 3322 
L 1269 3322 
L 1269 1388 
Q 1269 781 1417 556 
Q 1566 331 1947 331 
Q 2347 331 2556 625 
Q 2766 919 2766 1478 
L 2766 2988 
L 2266 2988 
L 2266 3322 
z
" transform="scale(0.015625)"/>
      <path id="DejaVuSerif-71" d="M 3359 2988 
L 3359 -997 
L 3909 -997 
L 3909 -1331 
L 2241 -1331 
L 2241 -997 
L 2784 -997 
L 2784 519 
Q 2616 206 2355 57 
Q 2094 -91 1709 -91 
Q 1097 -91 708 395 
Q 319 881 319 1663 
Q 319 2444 706 2928 
Q 1094 3413 1709 3413 
Q 2094 3413 2355 3264 
Q 2616 3116 2784 2803 
L 2784 3322 
L 3909 3322 
L 3909 2988 
L 3359 2988 
z
M 2784 1825 
Q 2784 2422 2554 2737 
Q 2325 3053 1888 3053 
Q 1444 3053 1217 2703 
Q 991 2353 991 1663 
Q 991 975 1217 622 
Q 1444 269 1888 269 
Q 2325 269 2554 583 
Q 2784 897 2784 1497 
L 2784 1825 
z
" transform="scale(0.015625)"/>
      <path id="DejaVuSerif-70" d="M 1313 1825 
L 1313 1497 
Q 1313 897 1542 583 
Q 1772 269 2209 269 
Q 2650 269 2876 622 
Q 3103 975 3103 1663 
Q 3103 2353 2876 2703 
Q 2650 3053 2209 3053 
Q 1772 3053 1542 2737 
Q 1313 2422 1313 1825 
z
M 738 2988 
L 184 2988 
L 184 3322 
L 1313 3322 
L 1313 2803 
Q 1481 3116 1742 3264 
Q 2003 3413 2388 3413 
Q 3000 3413 3387 2928 
Q 3775 2444 3775 1663 
Q 3775 881 3387 395 
Q 3000 -91 2388 -91 
Q 2003 -91 1742 57 
Q 1481 206 1313 519 
L 1313 -997 
L 1856 -997 
L 1856 -1331 
L 184 -1331 
L 184 -997 
L 738 -997 
L 738 2988 
z
" transform="scale(0.015625)"/>
      <path id="DejaVuSerif-6c" d="M 1313 331 
L 1856 331 
L 1856 0 
L 184 0 
L 184 331 
L 738 331 
L 738 4531 
L 184 4531 
L 184 4863 
L 1313 4863 
L 1313 331 
z
" transform="scale(0.015625)"/>
      <path id="DejaVuSerif-78" d="M 1863 2028 
L 2559 2988 
L 2113 2988 
L 2113 3322 
L 3391 3322 
L 3391 2988 
L 2950 2988 
L 2059 1759 
L 3097 331 
L 3531 331 
L 3531 0 
L 1997 0 
L 1997 331 
L 2419 331 
L 1697 1325 
L 972 331 
L 1403 331 
L 1403 0 
L 141 0 
L 141 331 
L 581 331 
L 1497 1594 
L 488 2988 
L 78 2988 
L 78 3322 
L 1563 3322 
L 1563 2988 
L 1166 2988 
L 1863 2028 
z
" transform="scale(0.015625)"/>
      <path id="DejaVuSerif-2d" d="M 281 1959 
L 1881 1959 
L 1881 1472 
L 281 1472 
L 281 1959 
z
" transform="scale(0.015625)"/>
      <path id="DejaVuSerif-62" d="M 738 331 
L 738 4531 
L 184 4531 
L 184 4863 
L 1313 4863 
L 1313 2803 
Q 1481 3116 1742 3264 
Q 2003 3413 2388 3413 
Q 3000 3413 3387 2928 
Q 3775 2444 3775 1663 
Q 3775 881 3387 395 
Q 3000 -91 2388 -91 
Q 2003 -91 1742 57 
Q 1481 206 1313 519 
L 1313 0 
L 184 0 
L 184 331 
L 738 331 
z
M 1313 1497 
Q 1313 897 1542 583 
Q 1772 269 2209 269 
Q 2650 269 2876 622 
Q 3103 975 3103 1663 
Q 3103 2353 2876 2703 
Q 2650 3053 2209 3053 
Q 1772 3053 1542 2737 
Q 1313 2422 1313 1825 
L 1313 1497 
z
" transform="scale(0.015625)"/>
      <path id="DejaVuSerif-61" d="M 2547 1044 
L 2547 1747 
L 1806 1747 
Q 1378 1747 1168 1562 
Q 959 1378 959 997 
Q 959 650 1171 447 
Q 1384 244 1747 244 
Q 2106 244 2326 466 
Q 2547 688 2547 1044 
z
M 3122 2075 
L 3122 331 
L 3634 331 
L 3634 0 
L 2547 0 
L 2547 359 
Q 2356 128 2106 18 
Q 1856 -91 1522 -91 
Q 969 -91 644 203 
Q 319 497 319 997 
Q 319 1513 691 1797 
Q 1063 2081 1741 2081 
L 2547 2081 
L 2547 2309 
Q 2547 2688 2317 2895 
Q 2088 3103 1672 3103 
Q 1328 3103 1125 2947 
Q 922 2791 872 2484 
L 575 2484 
L 575 3156 
Q 875 3284 1158 3348 
Q 1441 3413 1709 3413 
Q 2400 3413 2761 3070 
Q 3122 2728 3122 2075 
z
" transform="scale(0.015625)"/>
      <path id="DejaVuSerif-64" d="M 3359 331 
L 3909 331 
L 3909 0 
L 2784 0 
L 2784 519 
Q 2616 206 2355 57 
Q 2094 -91 1709 -91 
Q 1097 -91 708 395 
Q 319 881 319 1663 
Q 319 2444 706 2928 
Q 1094 3413 1709 3413 
Q 2094 3413 2355 3264 
Q 2616 3116 2784 2803 
L 2784 4531 
L 2241 4531 
L 2241 4863 
L 3359 4863 
L 3359 331 
z
M 2784 1497 
L 2784 1825 
Q 2784 2422 2554 2737 
Q 2325 3053 1888 3053 
Q 1444 3053 1217 2703 
Q 991 2353 991 1663 
Q 991 975 1217 622 
Q 1444 269 1888 269 
Q 2325 269 2554 583 
Q 2784 897 2784 1497 
z
" transform="scale(0.015625)"/>
     </defs>
     <use xlink:href="#DejaVuSerif-75"/>
     <use xlink:href="#DejaVuSerif-6e" transform="translate(64.404297 0)"/>
     <use xlink:href="#DejaVuSerif-69" transform="translate(128.808594 0)"/>
     <use xlink:href="#DejaVuSerif-71" transform="translate(160.791016 0)"/>
     <use xlink:href="#DejaVuSerif-75" transform="translate(224.804688 0)"/>
     <use xlink:href="#DejaVuSerif-65" transform="translate(289.208984 0)"/>
     <use xlink:href="#DejaVuSerif-20" transform="translate(348.388672 0)"/>
     <use xlink:href="#DejaVuSerif-63" transform="translate(380.175781 0)"/>
     <use xlink:href="#DejaVuSerif-6f" transform="translate(436.181641 0)"/>
     <use xlink:href="#DejaVuSerif-6d" transform="translate(496.386719 0)"/>
     <use xlink:href="#DejaVuSerif-70" transform="translate(591.210938 0)"/>
     <use xlink:href="#DejaVuSerif-6c" transform="translate(655.224609 0)"/>
     <use xlink:href="#DejaVuSerif-65" transform="translate(687.207031 0)"/>
     <use xlink:href="#DejaVuSerif-78" transform="translate(746.386719 0)"/>
     <use xlink:href="#DejaVuSerif-2d" transform="translate(801.033203 0)"/>
     <use xlink:href="#DejaVuSerif-62" transform="translate(834.822266 0)"/>
     <use xlink:href="#DejaVuSerif-61" transform="translate(898.835938 0)"/>
     <use xlink:href="#DejaVuSerif-6c" transform="translate(958.455078 0)"/>
     <use xlink:href="#DejaVuSerif-61" transform="translate(990.4375 0)"/>
     <use xlink:href="#DejaVuSerif-6e" transform="translate(1050.056641 0)"/>
     <use xlink:href="#DejaVuSerif-63" transform="translate(1114.460938 0)"/>
     <use xlink:href="#DejaVuSerif-65" transform="translate(1170.466797 0)"/>
     <use xlink:href="#DejaVuSerif-64" transform="translate(1229.646484 0)"/>
    </g>
    <!-- equilibrium (globally stable) -->
    <g transform="translate(120.368344 443.188172) scale(0.105 -0.105)">
     <defs>
      <path id="DejaVuSerif-28" d="M 2041 -997 
Q 1281 -656 893 83 
Q 506 822 506 1931 
Q 506 3044 893 3783 
Q 1281 4522 2041 4863 
L 2041 4556 
Q 1559 4225 1350 3623 
Q 1141 3022 1141 1931 
Q 1141 844 1350 242 
Q 1559 -359 2041 -691 
L 2041 -997 
z
" transform="scale(0.015625)"/>
      <path id="DejaVuSerif-67" d="M 3359 2988 
L 3359 72 
Q 3359 -644 2965 -1033 
Q 2572 -1422 1844 -1422 
Q 1516 -1422 1216 -1362 
Q 916 -1303 641 -1184 
L 641 -488 
L 941 -488 
Q 997 -813 1206 -963 
Q 1416 -1113 1806 -1113 
Q 2313 -1113 2548 -827 
Q 2784 -541 2784 72 
L 2784 519 
Q 2616 206 2355 57 
Q 2094 -91 1709 -91 
Q 1097 -91 708 395 
Q 319 881 319 1663 
Q 319 2444 706 2928 
Q 1094 3413 1709 3413 
Q 2094 3413 2355 3264 
Q 2616 3116 2784 2803 
L 2784 3322 
L 3909 3322 
L 3909 2988 
L 3359 2988 
z
M 2784 1825 
Q 2784 2422 2554 2737 
Q 2325 3053 1888 3053 
Q 1444 3053 1217 2703 
Q 991 2353 991 1663 
Q 991 975 1217 622 
Q 1444 269 1888 269 
Q 2325 269 2554 583 
Q 2784 897 2784 1497 
L 2784 1825 
z
" transform="scale(0.015625)"/>
      <path id="DejaVuSerif-73" d="M 359 184 
L 359 959 
L 691 959 
Q 703 588 923 403 
Q 1144 219 1575 219 
Q 1963 219 2166 364 
Q 2369 509 2369 788 
Q 2369 1006 2220 1140 
Q 2072 1275 1594 1428 
L 1178 1569 
Q 750 1706 558 1912 
Q 366 2119 366 2438 
Q 366 2894 700 3153 
Q 1034 3413 1625 3413 
Q 1888 3413 2178 3344 
Q 2469 3275 2778 3144 
L 2778 2419 
L 2447 2419 
Q 2434 2741 2221 2922 
Q 2009 3103 1644 3103 
Q 1281 3103 1095 2975 
Q 909 2847 909 2591 
Q 909 2381 1050 2254 
Q 1191 2128 1613 1997 
L 2069 1856 
Q 2541 1709 2748 1489 
Q 2956 1269 2956 922 
Q 2956 450 2595 179 
Q 2234 -91 1600 -91 
Q 1278 -91 972 -22 
Q 666 47 359 184 
z
" transform="scale(0.015625)"/>
      <path id="DejaVuSerif-74" d="M 691 2988 
L 184 2988 
L 184 3322 
L 691 3322 
L 691 4353 
L 1269 4353 
L 1269 3322 
L 2350 3322 
L 2350 2988 
L 1269 2988 
L 1269 878 
Q 1269 456 1350 337 
Q 1431 219 1650 219 
Q 1875 219 1978 351 
Q 2081 484 2088 781 
L 2522 781 
Q 2497 328 2275 118 
Q 2053 -91 1600 -91 
Q 1103 -91 897 129 
Q 691 350 691 878 
L 691 2988 
z
" transform="scale(0.015625)"/>
      <path id="DejaVuSerif-29" d="M 453 -997 
L 453 -691 
Q 934 -359 1145 242 
Q 1356 844 1356 1931 
Q 1356 3022 1145 3623 
Q 934 4225 453 4556 
L 453 4863 
Q 1216 4522 1603 3783 
Q 1991 3044 1991 1931 
Q 1991 822 1603 83 
Q 1216 -656 453 -997 
z
" transform="scale(0.015625)"/>
     </defs>
     <use xlink:href="#DejaVuSerif-65"/>
     <use xlink:href="#DejaVuSerif-71" transform="translate(59.179688 0)"/>
     <use xlink:href="#DejaVuSerif-75" transform="translate(123.193359 0)"/>
     <use xlink:href="#DejaVuSerif-69" transform="translate(187.597656 0)"/>
     <use xlink:href="#DejaVuSerif-6c" transform="translate(219.580078 0)"/>
     <use xlink:href="#DejaVuSerif-69" transform="translate(251.5625 0)"/>
     <use xlink:href="#DejaVuSerif-62" transform="translate(283.544922 0)"/>
     <use xlink:href="#DejaVuSerif-72" transform="translate(347.558594 0)"/>
     <use xlink:href="#DejaVuSerif-69" transform="translate(395.361328 0)"/>
     <use xlink:href="#DejaVuSerif-75" transform="translate(427.34375 0)"/>
     <use xlink:href="#DejaVuSerif-6d" transform="translate(491.748047 0)"/>
     <use xlink:href="#DejaVuSerif-20" transform="translate(586.572266 0)"/>
     <use xlink:href="#DejaVuSerif-28" transform="translate(618.359375 0)"/>
     <use xlink:href="#DejaVuSerif-67" transform="translate(657.373047 0)"/>
     <use xlink:href="#DejaVuSerif-6c" transform="translate(721.386719 0)"/>
     <use xlink:href="#DejaVuSerif-6f" transform="translate(753.369141 0)"/>
     <use xlink:href="#DejaVuSerif-62" transform="translate(813.574219 0)"/>
     <use xlink:href="#DejaVuSerif-61" transform="translate(877.587891 0)"/>
     <use xlink:href="#DejaVuSerif-6c" transform="translate(937.207031 0)"/>
     <use xlink:href="#DejaVuSerif-6c" transform="translate(969.189453 0)"/>
     <use xlink:href="#DejaVuSerif-79" transform="translate(1001.171875 0)"/>
     <use xlink:href="#DejaVuSerif-20" transform="translate(1057.666016 0)"/>
     <use xlink:href="#DejaVuSerif-73" transform="translate(1089.453125 0)"/>
     <use xlink:href="#DejaVuSerif-74" transform="translate(1140.771484 0)"/>
     <use xlink:href="#DejaVuSerif-61" transform="translate(1180.957031 0)"/>
     <use xlink:href="#DejaVuSerif-62" transform="translate(1240.576172 0)"/>
     <use xlink:href="#DejaVuSerif-6c" transform="translate(1304.589844 0)"/>
     <use xlink:href="#DejaVuSerif-65" transform="translate(1336.572266 0)"/>
     <use xlink:href="#DejaVuSerif-29" transform="translate(1395.751953 0)"/>
    </g>
   </g>
   <g id="text_2">
    <!-- Weakly reversible, single linkage class -->
    <g transform="translate(78.376312 48.72) scale(0.12 -0.12)">
     <defs>
      <path id="DejaVuSerif-57" d="M 4878 0 
L 4366 0 
L 3297 3794 
L 2228 0 
L 1716 0 
L 494 4331 
L 31 4331 
L 31 4666 
L 1734 4666 
L 1734 4331 
L 1153 4331 
L 2125 884 
L 3188 4666 
L 3694 4666 
L 4775 844 
L 5753 4331 
L 5216 4331 
L 5216 4666 
L 6559 4666 
L 6559 4331 
L 6100 4331 
L 4878 0 
z
" transform="scale(0.015625)"/>
      <path id="DejaVuSerif-6b" d="M 1831 0 
L 219 0 
L 219 331 
L 738 331 
L 738 4531 
L 184 4531 
L 184 4863 
L 1313 4863 
L 1313 1697 
L 2713 2988 
L 2234 2988 
L 2234 3322 
L 3738 3322 
L 3738 2988 
L 3169 2988 
L 2181 2075 
L 3444 331 
L 3922 331 
L 3922 0 
L 2284 0 
L 2284 331 
L 2759 331 
L 1766 1697 
L 1313 1275 
L 1313 331 
L 1831 331 
L 1831 0 
z
" transform="scale(0.015625)"/>
      <path id="DejaVuSerif-76" d="M 1581 0 
L 359 2988 
L -19 2988 
L -19 3322 
L 1509 3322 
L 1509 2988 
L 978 2988 
L 1913 703 
L 2847 2988 
L 2350 2988 
L 2350 3322 
L 3597 3322 
L 3597 2988 
L 3225 2988 
L 2003 0 
L 1581 0 
z
" transform="scale(0.015625)"/>
      <path id="DejaVuSerif-2c" d="M 231 -622 
Q 525 -406 662 -114 
Q 800 178 800 594 
L 800 709 
L 1416 709 
Q 1391 175 1164 -208 
Q 938 -591 481 -872 
L 231 -622 
z
" transform="scale(0.015625)"/>
     </defs>
     <use xlink:href="#DejaVuSerif-57"/>
     <use xlink:href="#DejaVuSerif-65" transform="translate(94.658203 0)"/>
     <use xlink:href="#DejaVuSerif-61" transform="translate(153.837891 0)"/>
     <use xlink:href="#DejaVuSerif-6b" transform="translate(213.457031 0)"/>
     <use xlink:href="#DejaVuSerif-6c" transform="translate(274.052734 0)"/>
     <use xlink:href="#DejaVuSerif-79" transform="translate(306.035156 0)"/>
     <use xlink:href="#DejaVuSerif-20" transform="translate(362.529297 0)"/>
     <use xlink:href="#DejaVuSerif-72" transform="translate(394.316406 0)"/>
     <use xlink:href="#DejaVuSerif-65" transform="translate(442.119141 0)"/>
     <use xlink:href="#DejaVuSerif-76" transform="translate(501.298828 0)"/>
     <use xlink:href="#DejaVuSerif-65" transform="translate(557.792969 0)"/>
     <use xlink:href="#DejaVuSerif-72" transform="translate(616.972656 0)"/>
     <use xlink:href="#DejaVuSerif-73" transform="translate(664.775391 0)"/>
     <use xlink:href="#DejaVuSerif-69" transform="translate(716.09375 0)"/>
     <use xlink:href="#DejaVuSerif-62" transform="translate(748.076172 0)"/>
     <use xlink:href="#DejaVuSerif-6c" transform="translate(812.089844 0)"/>
     <use xlink:href="#DejaVuSerif-65" transform="translate(844.072266 0)"/>
     <use xlink:href="#DejaVuSerif-2c" transform="translate(903.251953 0)"/>
     <use xlink:href="#DejaVuSerif-20" transform="translate(935.039062 0)"/>
     <use xlink:href="#DejaVuSerif-73" transform="translate(966.826172 0)"/>
     <use xlink:href="#DejaVuSerif-69" transform="translate(1018.144531 0)"/>
     <use xlink:href="#DejaVuSerif-6e" transform="translate(1050.126953 0)"/>
     <use xlink:href="#DejaVuSerif-67" transform="translate(1114.53125 0)"/>
     <use xlink:href="#DejaVuSerif-6c" transform="translate(1178.544922 0)"/>
     <use xlink:href="#DejaVuSerif-65" transform="translate(1210.527344 0)"/>
     <use xlink:href="#DejaVuSerif-20" transform="translate(1269.707031 0)"/>
     <use xlink:href="#DejaVuSerif-6c" transform="translate(1301.494141 0)"/>
     <use xlink:href="#DejaVuSerif-69" transform="translate(1333.476562 0)"/>
     <use xlink:href="#DejaVuSerif-6e" transform="translate(1365.458984 0)"/>
     <use xlink:href="#DejaVuSerif-6b" transform="translate(1429.863281 0)"/>
     <use xlink:href="#DejaVuSerif-61" transform="translate(1490.458984 0)"/>
     <use xlink:href="#DejaVuSerif-67" transform="translate(1550.078125 0)"/>
     <use xlink:href="#DejaVuSerif-65" transform="translate(1614.091797 0)"/>
     <use xlink:href="#DejaVuSerif-20" transform="translate(1673.271484 0)"/>
     <use xlink:href="#DejaVuSerif-63" transform="translate(1705.058594 0)"/>
     <use xlink:href="#DejaVuSerif-6c" transform="translate(1761.064453 0)"/>
     <use xlink:href="#DejaVuSerif-61" transform="translate(1793.046875 0)"/>
     <use xlink:href="#DejaVuSerif-73" transform="translate(1852.666016 0)"/>
     <use xlink:href="#DejaVuSerif-73" transform="translate(1903.984375 0)"/>
    </g>
   </g>
   <g id="text_3">
    <!-- $A\!+\!B$ -->
    <g style="fill: #7e2f8e" transform="translate(178.071 125.387062) scale(0.15 -0.15)">
     <defs>
      <path id="Cmmi10-41" d="M 288 0 
Q 225 0 225 84 
Q 250 225 306 225 
Q 566 225 755 328 
Q 944 431 1081 647 
Q 1094 659 1094 659 
L 3378 4513 
Q 3428 4581 3500 4581 
L 3584 4581 
Q 3603 4581 3622 4573 
Q 3641 4566 3655 4548 
Q 3669 4531 3669 4513 
L 4056 378 
Q 4056 350 4084 294 
Q 4147 225 4563 225 
Q 4628 225 4628 141 
Q 4606 56 4592 28 
Q 4578 0 4519 0 
L 2919 0 
Q 2859 0 2859 84 
Q 2894 225 2944 225 
Q 3450 225 3481 397 
L 3384 1453 
L 1806 1453 
L 1294 594 
Q 1247 525 1247 434 
Q 1247 322 1355 273 
Q 1463 225 1594 225 
Q 1656 225 1656 141 
Q 1634 50 1621 25 
Q 1609 0 1550 0 
L 288 0 
z
M 1931 1678 
L 3359 1678 
L 3169 3750 
L 1931 1678 
z
" transform="scale(0.015625)"/>
      <path id="Cmr10-2b" d="M 481 1472 
Q 428 1472 393 1512 
Q 359 1553 359 1600 
Q 359 1647 393 1687 
Q 428 1728 481 1728 
L 2363 1728 
L 2363 3616 
Q 2363 3666 2400 3698 
Q 2438 3731 2491 3731 
Q 2538 3731 2578 3698 
Q 2619 3666 2619 3616 
L 2619 1728 
L 4500 1728 
Q 4547 1728 4581 1687 
Q 4616 1647 4616 1600 
Q 4616 1553 4581 1512 
Q 4547 1472 4500 1472 
L 2619 1472 
L 2619 -416 
Q 2619 -466 2578 -498 
Q 2538 -531 2491 -531 
Q 2438 -531 2400 -498 
Q 2363 -466 2363 -416 
L 2363 1472 
L 481 1472 
z
" transform="scale(0.015625)"/>
      <path id="Cmmi10-42" d="M 319 0 
Q 256 0 256 84 
Q 259 100 268 137 
Q 278 175 293 200 
Q 309 225 341 225 
Q 522 225 656 234 
Q 791 244 884 269 
Q 959 297 1006 441 
L 1881 3956 
Q 1894 4019 1894 4044 
Q 1894 4113 1819 4122 
Q 1697 4147 1356 4147 
Q 1294 4147 1294 4231 
Q 1297 4247 1306 4286 
Q 1316 4325 1333 4348 
Q 1350 4372 1375 4372 
L 3669 4372 
Q 3878 4372 4083 4320 
Q 4288 4269 4461 4156 
Q 4634 4044 4736 3876 
Q 4838 3709 4838 3488 
Q 4838 3247 4714 3040 
Q 4591 2834 4395 2681 
Q 4200 2528 3973 2429 
Q 3747 2331 3500 2284 
Q 3675 2284 3854 2215 
Q 4034 2147 4175 2028 
Q 4316 1909 4402 1743 
Q 4488 1578 4488 1388 
Q 4488 1003 4219 684 
Q 3950 366 3542 183 
Q 3134 0 2753 0 
L 319 0 
z
M 1497 275 
Q 1497 225 1716 225 
L 2631 225 
Q 2944 225 3231 398 
Q 3519 572 3692 859 
Q 3866 1147 3866 1459 
Q 3866 1650 3786 1820 
Q 3706 1991 3556 2089 
Q 3406 2188 3213 2188 
L 1966 2188 
L 1522 416 
Q 1497 328 1497 275 
z
M 2009 2356 
L 2981 2356 
Q 3288 2356 3577 2512 
Q 3866 2669 4048 2937 
Q 4231 3206 4231 3506 
Q 4231 3784 4057 3965 
Q 3884 4147 3609 4147 
L 2731 4147 
Q 2559 4147 2500 4115 
Q 2441 4084 2400 3928 
L 2009 2356 
z
" transform="scale(0.015625)"/>
     </defs>
     <use xlink:href="#Cmmi10-41" transform="translate(0 0.421875)"/>
     <use xlink:href="#Cmr10-2b" transform="translate(77.92614 0.421875)"/>
     <use xlink:href="#Cmmi10-42" transform="translate(158.537826 0.421875)"/>
    </g>
   </g>
   <g id="text_4">
    <!-- $A$ -->
    <g style="fill: #0072bd" transform="translate(56.64 314.159) scale(0.16 -0.16)">
     <use xlink:href="#Cmmi10-41" transform="translate(0 0.421875)"/>
    </g>
   </g>
   <g id="text_5">
    <!-- $B$ -->
    <g style="fill: #d95319" transform="translate(322.672 314.159) scale(0.16 -0.16)">
     <use xlink:href="#Cmmi10-42" transform="translate(0 0.6875)"/>
    </g>
   </g>
  </g>
  <g id="text_6">
   <!-- Example 1: deficiency $\delta = 0$ -->
   <g transform="translate(85.821 18.6) scale(0.15 -0.15)">
    <defs>
     <path id="DejaVuSerif-Bold-45" d="M 300 0 
L 300 378 
L 897 378 
L 897 4288 
L 300 4288 
L 300 4666 
L 4494 4666 
L 4494 3566 
L 4063 3566 
L 4063 4238 
L 2100 4238 
L 2100 2741 
L 3322 2741 
L 3322 3334 
L 3750 3334 
L 3750 1722 
L 3322 1722 
L 3322 2316 
L 2100 2316 
L 2100 428 
L 4122 428 
L 4122 1100 
L 4550 1100 
L 4550 0 
L 300 0 
z
" transform="scale(0.015625)"/>
     <path id="DejaVuSerif-Bold-78" d="M 2247 2119 
L 2834 2944 
L 2425 2944 
L 2425 3322 
L 3719 3322 
L 3719 2944 
L 3278 2944 
L 2431 1759 
L 3419 378 
L 3859 378 
L 3859 0 
L 1747 0 
L 1747 378 
L 2175 378 
L 1550 1253 
L 922 378 
L 1369 378 
L 1369 0 
L 0 0 
L 0 378 
L 475 378 
L 1356 1619 
L 403 2944 
L 31 2944 
L 31 3322 
L 2059 3322 
L 2059 2944 
L 1656 2944 
L 2247 2119 
z
" transform="scale(0.015625)"/>
     <path id="DejaVuSerif-Bold-61" d="M 3525 2041 
L 3525 378 
L 4000 378 
L 4000 0 
L 2419 0 
L 2419 422 
Q 2200 159 1931 34 
Q 1663 -91 1319 -91 
Q 809 -91 536 182 
Q 263 456 263 966 
Q 263 1525 655 1803 
Q 1047 2081 1838 2081 
L 2419 2081 
L 2419 2278 
Q 2419 2681 2228 2873 
Q 2038 3066 1638 3066 
Q 1306 3066 1126 2930 
Q 947 2794 872 2484 
L 519 2484 
L 519 3200 
Q 816 3306 1134 3359 
Q 1453 3413 1806 3413 
Q 2697 3413 3111 3081 
Q 3525 2750 3525 2041 
z
M 2419 1044 
L 2419 1709 
L 2003 1709 
Q 1694 1709 1528 1540 
Q 1363 1372 1363 1056 
Q 1363 741 1483 584 
Q 1603 428 1850 428 
Q 2106 428 2262 597 
Q 2419 766 2419 1044 
z
" transform="scale(0.015625)"/>
     <path id="DejaVuSerif-Bold-6d" d="M 3884 2778 
Q 4116 3109 4384 3261 
Q 4653 3413 5013 3413 
Q 5584 3413 5867 3089 
Q 6150 2766 6150 2113 
L 6150 378 
L 6625 378 
L 6625 0 
L 4647 0 
L 4647 378 
L 5044 378 
L 5044 1947 
Q 5044 2569 4948 2731 
Q 4853 2894 4594 2894 
Q 4300 2894 4137 2667 
Q 3975 2441 3975 2022 
L 3975 378 
L 4372 378 
L 4372 0 
L 2472 0 
L 2472 378 
L 2869 378 
L 2869 1947 
Q 2869 2569 2772 2731 
Q 2675 2894 2419 2894 
Q 2122 2894 1959 2667 
Q 1797 2441 1797 2022 
L 1797 378 
L 2194 378 
L 2194 0 
L 219 0 
L 219 378 
L 691 378 
L 691 2944 
L 219 2944 
L 219 3322 
L 1797 3322 
L 1797 2853 
Q 1991 3144 2241 3278 
Q 2491 3413 2834 3413 
Q 3241 3413 3494 3258 
Q 3747 3103 3884 2778 
z
" transform="scale(0.015625)"/>
     <path id="DejaVuSerif-Bold-70" d="M 1728 1825 
L 1728 1497 
Q 1728 916 1876 656 
Q 2025 397 2356 397 
Q 2697 397 2836 672 
Q 2975 947 2975 1663 
Q 2975 2378 2836 2651 
Q 2697 2925 2356 2925 
Q 2025 2925 1876 2665 
Q 1728 2406 1728 1825 
z
M 622 2944 
L 147 2944 
L 147 3322 
L 1728 3322 
L 1728 2900 
Q 1869 3159 2106 3286 
Q 2344 3413 2694 3413 
Q 3403 3413 3811 2945 
Q 4219 2478 4219 1663 
Q 4219 847 3811 378 
Q 3403 -91 2694 -91 
Q 2344 -91 2106 36 
Q 1869 163 1728 422 
L 1728 -953 
L 2241 -953 
L 2241 -1331 
L 147 -1331 
L 147 -953 
L 622 -953 
L 622 2944 
z
" transform="scale(0.015625)"/>
     <path id="DejaVuSerif-Bold-6c" d="M 1797 378 
L 2272 378 
L 2272 0 
L 219 0 
L 219 378 
L 691 378 
L 691 4488 
L 219 4488 
L 219 4863 
L 1797 4863 
L 1797 378 
z
" transform="scale(0.015625)"/>
     <path id="DejaVuSerif-Bold-65" d="M 2566 1875 
Q 2566 2531 2444 2795 
Q 2322 3059 2028 3059 
Q 1744 3059 1620 2800 
Q 1497 2541 1497 1931 
L 1497 1875 
L 2566 1875 
z
M 3781 1503 
L 1497 1503 
L 1497 1478 
Q 1497 834 1690 548 
Q 1884 263 2316 263 
Q 2675 263 2897 453 
Q 3119 644 3181 1006 
L 3700 1006 
Q 3566 441 3166 175 
Q 2766 -91 2047 -91 
Q 1184 -91 723 364 
Q 263 819 263 1663 
Q 263 2488 734 2950 
Q 1206 3413 2047 3413 
Q 2872 3413 3312 2927 
Q 3753 2441 3781 1503 
z
" transform="scale(0.015625)"/>
     <path id="DejaVuSerif-Bold-20" transform="scale(0.015625)"/>
     <path id="DejaVuSerif-Bold-31" d="M 878 0 
L 878 378 
L 1753 378 
L 1753 4153 
L 781 3578 
L 781 4044 
L 1953 4750 
L 2938 4750 
L 2938 378 
L 3816 378 
L 3816 0 
L 878 0 
z
" transform="scale(0.015625)"/>
     <path id="DejaVuSerif-Bold-3a" d="M 588 2541 
Q 588 2788 761 2963 
Q 934 3138 1178 3138 
Q 1422 3138 1597 2961 
Q 1772 2784 1772 2541 
Q 1772 2297 1598 2125 
Q 1425 1953 1178 1953 
Q 931 1953 759 2125 
Q 588 2297 588 2541 
z
M 588 506 
Q 588 750 761 925 
Q 934 1100 1178 1100 
Q 1422 1100 1597 925 
Q 1772 750 1772 506 
Q 1772 259 1597 84 
Q 1422 -91 1178 -91 
Q 934 -91 761 84 
Q 588 259 588 506 
z
" transform="scale(0.015625)"/>
     <path id="DejaVuSerif-Bold-64" d="M 2747 1497 
L 2747 1825 
Q 2747 2406 2597 2665 
Q 2447 2925 2119 2925 
Q 1775 2925 1636 2651 
Q 1497 2378 1497 1663 
Q 1497 947 1637 672 
Q 1778 397 2119 397 
Q 2447 397 2597 656 
Q 2747 916 2747 1497 
z
M 3853 378 
L 4325 378 
L 4325 0 
L 2747 0 
L 2747 422 
Q 2606 163 2367 36 
Q 2128 -91 1778 -91 
Q 1072 -91 667 378 
Q 263 847 263 1663 
Q 263 2481 667 2947 
Q 1072 3413 1778 3413 
Q 2128 3413 2367 3286 
Q 2606 3159 2747 2900 
L 2747 4488 
L 2272 4488 
L 2272 4863 
L 3853 4863 
L 3853 378 
z
" transform="scale(0.015625)"/>
     <path id="DejaVuSerif-Bold-66" d="M 3097 4031 
L 2747 4031 
Q 2722 4275 2605 4394 
Q 2488 4513 2272 4513 
Q 2022 4513 1909 4333 
Q 1797 4153 1797 3750 
L 1797 3322 
L 2631 3322 
L 2631 2944 
L 1797 2944 
L 1797 378 
L 2438 378 
L 2438 0 
L 219 0 
L 219 378 
L 691 378 
L 691 2944 
L 197 2944 
L 197 3322 
L 691 3322 
L 691 3738 
Q 691 4291 1044 4577 
Q 1397 4863 2081 4863 
Q 2347 4863 2600 4833 
Q 2853 4803 3097 4744 
L 3097 4031 
z
" transform="scale(0.015625)"/>
     <path id="DejaVuSerif-Bold-69" d="M 588 4263 
Q 588 4516 763 4689 
Q 938 4863 1191 4863 
Q 1438 4863 1611 4689 
Q 1784 4516 1784 4263 
Q 1784 4016 1611 3842 
Q 1438 3669 1191 3669 
Q 938 3669 763 3841 
Q 588 4013 588 4263 
z
M 1797 378 
L 2272 378 
L 2272 0 
L 219 0 
L 219 378 
L 691 378 
L 691 2944 
L 219 2944 
L 219 3322 
L 1797 3322 
L 1797 378 
z
" transform="scale(0.015625)"/>
     <path id="DejaVuSerif-Bold-63" d="M 3609 1038 
Q 3491 469 3123 189 
Q 2756 -91 2125 -91 
Q 1238 -91 750 368 
Q 263 828 263 1663 
Q 263 2488 744 2950 
Q 1225 3413 2081 3413 
Q 2428 3413 2781 3347 
Q 3134 3281 3500 3150 
L 3500 2228 
L 3150 2228 
Q 3100 2650 2903 2854 
Q 2706 3059 2350 3059 
Q 1888 3059 1692 2746 
Q 1497 2434 1497 1663 
Q 1497 909 1687 586 
Q 1878 263 2309 263 
Q 2644 263 2845 463 
Q 3047 663 3091 1038 
L 3609 1038 
z
" transform="scale(0.015625)"/>
     <path id="DejaVuSerif-Bold-6e" d="M 219 0 
L 219 378 
L 691 378 
L 691 2944 
L 219 2944 
L 219 3322 
L 1797 3322 
L 1797 2853 
Q 1997 3150 2253 3281 
Q 2509 3413 2900 3413 
Q 3459 3413 3745 3083 
Q 4031 2753 4031 2113 
L 4031 378 
L 4506 378 
L 4506 0 
L 2522 0 
L 2522 378 
L 2925 378 
L 2925 2144 
Q 2925 2566 2817 2730 
Q 2709 2894 2444 2894 
Q 2109 2894 1953 2648 
Q 1797 2403 1797 1869 
L 1797 378 
L 2203 378 
L 2203 0 
L 219 0 
z
" transform="scale(0.015625)"/>
     <path id="DejaVuSerif-Bold-79" d="M 1997 -750 
Q 1847 -1116 1634 -1269 
Q 1422 -1422 1063 -1422 
Q 909 -1422 721 -1387 
Q 534 -1353 313 -1288 
L 313 -594 
L 666 -597 
Q 675 -838 779 -953 
Q 884 -1069 1094 -1069 
Q 1297 -1069 1422 -958 
Q 1547 -847 1672 -538 
L 1722 -422 
L 275 2944 
L -84 2944 
L -84 3322 
L 1831 3322 
L 1831 2944 
L 1434 2944 
L 2278 978 
L 3066 2944 
L 2625 2944 
L 2625 3322 
L 3872 3322 
L 3872 2944 
L 3469 2944 
L 1997 -750 
z
" transform="scale(0.015625)"/>
    </defs>
    <use xlink:href="#DejaVuSerif-Bold-45" transform="translate(0 0.015625)"/>
    <use xlink:href="#DejaVuSerif-Bold-78" transform="translate(76.220703 0.015625)"/>
    <use xlink:href="#DejaVuSerif-Bold-61" transform="translate(135.839844 0.015625)"/>
    <use xlink:href="#DejaVuSerif-Bold-6d" transform="translate(200.634766 0.015625)"/>
    <use xlink:href="#DejaVuSerif-Bold-70" transform="translate(306.445312 0.015625)"/>
    <use xlink:href="#DejaVuSerif-Bold-6c" transform="translate(376.367188 0.015625)"/>
    <use xlink:href="#DejaVuSerif-Bold-65" transform="translate(414.355469 0.015625)"/>
    <use xlink:href="#DejaVuSerif-Bold-20" transform="translate(477.978516 0.015625)"/>
    <use xlink:href="#DejaVuSerif-Bold-31" transform="translate(512.792969 0.015625)"/>
    <use xlink:href="#DejaVuSerif-Bold-3a" transform="translate(582.373047 0.015625)"/>
    <use xlink:href="#DejaVuSerif-Bold-20" transform="translate(619.287109 0.015625)"/>
    <use xlink:href="#DejaVuSerif-Bold-64" transform="translate(654.101562 0.015625)"/>
    <use xlink:href="#DejaVuSerif-Bold-65" transform="translate(724.023438 0.015625)"/>
    <use xlink:href="#DejaVuSerif-Bold-66" transform="translate(787.646484 0.015625)"/>
    <use xlink:href="#DejaVuSerif-Bold-69" transform="translate(830.664062 0.015625)"/>
    <use xlink:href="#DejaVuSerif-Bold-63" transform="translate(868.652344 0.015625)"/>
    <use xlink:href="#DejaVuSerif-Bold-69" transform="translate(929.541016 0.015625)"/>
    <use xlink:href="#DejaVuSerif-Bold-65" transform="translate(967.529297 0.015625)"/>
    <use xlink:href="#DejaVuSerif-Bold-6e" transform="translate(1031.152344 0.015625)"/>
    <use xlink:href="#DejaVuSerif-Bold-63" transform="translate(1103.857422 0.015625)"/>
    <use xlink:href="#DejaVuSerif-Bold-79" transform="translate(1164.746094 0.015625)"/>
    <use xlink:href="#DejaVuSerif-Bold-20" transform="translate(1222.851562 0.015625)"/>
    <use xlink:href="#Cmmi10-b1" transform="translate(1257.666016 0.015625)"/>
    <use xlink:href="#Cmr10-3d" transform="translate(1319.609375 0.015625)"/>
    <use xlink:href="#Cmr10-30" transform="translate(1414.853516 0.015625)"/>
   </g>
  </g>
 </g>
 <defs>
  <clipPath id="p7e9bdae95d">
   <rect x="7.2" y="54.72" width="376.992" height="332.64"/>
  </clipPath>
 </defs>
</svg>
