<?xml version="1.0" encoding="utf-8" standalone="no"?>
<!DOCTYPE svg PUBLIC "-//W3C//DTD SVG 1.1//EN"
  "http://www.w3.org/Graphics/SVG/1.1/DTD/svg11.dtd">
<svg xmlns:xlink="http://www.w3.org/1999/xlink" width="892.07125pt" height="394.026562pt" viewBox="0 0 892.07125 394.026562" xmlns="http://www.w3.org/2000/svg" version="1.1">
 <metadata>
  <rdf:RDF xmlns:dc="http://purl.org/dc/elements/1.1/" xmlns:cc="http://creativecommons.org/ns#" xmlns:rdf="http://www.w3.org/1999/02/22-rdf-syntax-ns#">
   <cc:Work>
    <dc:type rdf:resource="http://purl.org/dc/dcmitype/StillImage"/>
    <dc:date>2026-06-07T10:55:40.561165</dc:date>
    <dc:format>image/svg+xml</dc:format>
    <dc:creator>
     <cc:Agent>
      <dc:title>Matplotlib v3.10.8, https://matplotlib.org/</dc:title>
     </cc:Agent>
    </dc:creator>
   </cc:Work>
  </rdf:RDF>
 </metadata>
 <defs>
  <style type="text/css">*{stroke-linejoin: round; stroke-linecap: butt}</style>
 </defs>
 <g id="figure_1">
  <g id="patch_1">
   <path d="M 0 394.026562 
L 892.07125 394.026562 
L 892.07125 0 
L 0 0 
z
" style="fill: #ffffff"/>
  </g>
  <g id="axes_1">
   <g id="patch_2">
    <path d="M 42.47125 347.76 
L 421.930709 347.76 
L 421.930709 46.8 
L 42.47125 46.8 
z
" style="fill: #ffffff"/>
   </g>
   <g id="matplotlib.axis_1">
    <g id="xtick_1">
     <g id="line2d_1">
      <path d="M 80.417196 347.76 
L 80.417196 46.8 
" clip-path="url(#pda7dc3291d)" style="fill: none; stroke: #b0b0b0; stroke-opacity: 0.15; stroke-width: 0.8; stroke-linecap: square"/>
     </g>
     <g id="line2d_2">
      <defs>
       <path id="me8fa844a29" d="M 0 0 
L 0 3.5 
" style="stroke: #000000; stroke-width: 0.8"/>
      </defs>
      <g>
       <use xlink:href="#me8fa844a29" x="80.417196" y="347.76" style="stroke: #000000; stroke-width: 0.8"/>
      </g>
     </g>
     <g id="text_1">
      <!-- −4 -->
      <g transform="translate(70.834774 364.637969) scale(0.13 -0.13)">
       <defs>
        <path id="DejaVuSerif-2212" d="M 678 2259 
L 4684 2259 
L 4684 1753 
L 678 1753 
L 678 2259 
z
" transform="scale(0.015625)"/>
        <path id="DejaVuSerif-34" d="M 2234 1581 
L 2234 4063 
L 641 1581 
L 2234 1581 
z
M 3609 0 
L 1484 0 
L 1484 331 
L 2234 331 
L 2234 1247 
L 197 1247 
L 197 1588 
L 2241 4750 
L 2859 4750 
L 2859 1581 
L 3750 1581 
L 3750 1247 
L 2859 1247 
L 2859 331 
L 3609 331 
L 3609 0 
z
" transform="scale(0.015625)"/>
       </defs>
       <use xlink:href="#DejaVuSerif-2212"/>
       <use xlink:href="#DejaVuSerif-34" transform="translate(83.789062 0)"/>
      </g>
     </g>
    </g>
    <g id="xtick_2">
     <g id="line2d_3">
      <path d="M 156.309088 347.76 
L 156.309088 46.8 
" clip-path="url(#pda7dc3291d)" style="fill: none; stroke: #b0b0b0; stroke-opacity: 0.15; stroke-width: 0.8; stroke-linecap: square"/>
     </g>
     <g id="line2d_4">
      <g>
       <use xlink:href="#me8fa844a29" x="156.309088" y="347.76" style="stroke: #000000; stroke-width: 0.8"/>
      </g>
     </g>
     <g id="text_2">
      <!-- −2 -->
      <g transform="translate(146.726666 364.637969) scale(0.13 -0.13)">
       <defs>
        <path id="DejaVuSerif-32" d="M 819 3553 
L 469 3553 
L 469 4384 
Q 803 4563 1142 4656 
Q 1481 4750 1806 4750 
Q 2534 4750 2956 4397 
Q 3378 4044 3378 3438 
Q 3378 2753 2422 1800 
Q 2347 1728 2309 1691 
L 1131 513 
L 3078 513 
L 3078 1088 
L 3444 1088 
L 3444 0 
L 434 0 
L 434 341 
L 1850 1753 
Q 2319 2222 2519 2614 
Q 2719 3006 2719 3438 
Q 2719 3909 2473 4175 
Q 2228 4441 1797 4441 
Q 1350 4441 1106 4219 
Q 863 3997 819 3553 
z
" transform="scale(0.015625)"/>
       </defs>
       <use xlink:href="#DejaVuSerif-2212"/>
       <use xlink:href="#DejaVuSerif-32" transform="translate(83.789062 0)"/>
      </g>
     </g>
    </g>
    <g id="xtick_3">
     <g id="line2d_5">
      <path d="M 232.20098 347.76 
L 232.20098 46.8 
" clip-path="url(#pda7dc3291d)" style="fill: none; stroke: #b0b0b0; stroke-opacity: 0.15; stroke-width: 0.8; stroke-linecap: square"/>
     </g>
     <g id="line2d_6">
      <g>
       <use xlink:href="#me8fa844a29" x="232.20098" y="347.76" style="stroke: #000000; stroke-width: 0.8"/>
      </g>
     </g>
     <g id="text_3">
      <!-- 0 -->
      <g transform="translate(228.065355 364.637969) scale(0.13 -0.13)">
       <defs>
        <path id="DejaVuSerif-30" d="M 2034 219 
Q 2513 219 2750 744 
Q 2988 1269 2988 2328 
Q 2988 3391 2750 3916 
Q 2513 4441 2034 4441 
Q 1556 4441 1318 3916 
Q 1081 3391 1081 2328 
Q 1081 1269 1318 744 
Q 1556 219 2034 219 
z
M 2034 -91 
Q 1275 -91 848 546 
Q 422 1184 422 2328 
Q 422 3475 848 4112 
Q 1275 4750 2034 4750 
Q 2797 4750 3222 4112 
Q 3647 3475 3647 2328 
Q 3647 1184 3222 546 
Q 2797 -91 2034 -91 
z
" transform="scale(0.015625)"/>
       </defs>
       <use xlink:href="#DejaVuSerif-30"/>
      </g>
     </g>
    </g>
    <g id="xtick_4">
     <g id="line2d_7">
      <path d="M 308.092872 347.76 
L 308.092872 46.8 
" clip-path="url(#pda7dc3291d)" style="fill: none; stroke: #b0b0b0; stroke-opacity: 0.15; stroke-width: 0.8; stroke-linecap: square"/>
     </g>
     <g id="line2d_8">
      <g>
       <use xlink:href="#me8fa844a29" x="308.092872" y="347.76" style="stroke: #000000; stroke-width: 0.8"/>
      </g>
     </g>
     <g id="text_4">
      <!-- 2 -->
      <g transform="translate(303.957247 364.637969) scale(0.13 -0.13)">
       <use xlink:href="#DejaVuSerif-32"/>
      </g>
     </g>
    </g>
    <g id="xtick_5">
     <g id="line2d_9">
      <path d="M 383.984764 347.76 
L 383.984764 46.8 
" clip-path="url(#pda7dc3291d)" style="fill: none; stroke: #b0b0b0; stroke-opacity: 0.15; stroke-width: 0.8; stroke-linecap: square"/>
     </g>
     <g id="line2d_10">
      <g>
       <use xlink:href="#me8fa844a29" x="383.984764" y="347.76" style="stroke: #000000; stroke-width: 0.8"/>
      </g>
     </g>
     <g id="text_5">
      <!-- 4 -->
      <g transform="translate(379.849139 364.637969) scale(0.13 -0.13)">
       <use xlink:href="#DejaVuSerif-34"/>
      </g>
     </g>
    </g>
    <g id="text_6">
     <!-- $x$ -->
     <g transform="translate(227.56098 383.499062) scale(0.16 -0.16)">
      <defs>
       <path id="Cmmi10-78" d="M 500 184 
Q 613 97 819 97 
Q 1019 97 1172 289 
Q 1325 481 1381 709 
L 1672 1844 
Q 1741 2153 1741 2266 
Q 1741 2425 1652 2544 
Q 1563 2663 1403 2663 
Q 1200 2663 1022 2536 
Q 844 2409 722 2214 
Q 600 2019 550 1819 
Q 538 1778 500 1778 
L 422 1778 
Q 372 1778 372 1838 
L 372 1856 
Q 434 2094 584 2320 
Q 734 2547 951 2687 
Q 1169 2828 1416 2828 
Q 1650 2828 1839 2703 
Q 2028 2578 2106 2363 
Q 2216 2559 2386 2693 
Q 2556 2828 2759 2828 
Q 2897 2828 3040 2779 
Q 3184 2731 3275 2631 
Q 3366 2531 3366 2381 
Q 3366 2219 3261 2101 
Q 3156 1984 2994 1984 
Q 2891 1984 2822 2050 
Q 2753 2116 2753 2216 
Q 2753 2350 2845 2451 
Q 2938 2553 3066 2572 
Q 2950 2663 2747 2663 
Q 2541 2663 2389 2472 
Q 2238 2281 2175 2047 
L 1894 916 
Q 1825 659 1825 494 
Q 1825 331 1917 214 
Q 2009 97 2163 97 
Q 2463 97 2698 361 
Q 2934 625 3009 941 
Q 3022 978 3059 978 
L 3138 978 
Q 3163 978 3178 961 
Q 3194 944 3194 922 
Q 3194 916 3188 903 
Q 3097 522 2806 225 
Q 2516 -72 2150 -72 
Q 1916 -72 1727 54 
Q 1538 181 1459 397 
Q 1359 209 1182 68 
Q 1006 -72 806 -72 
Q 669 -72 523 -23 
Q 378 25 287 125 
Q 197 225 197 378 
Q 197 528 301 651 
Q 406 775 563 775 
Q 669 775 741 711 
Q 813 647 813 544 
Q 813 409 723 309 
Q 634 209 500 184 
z
" transform="scale(0.015625)"/>
      </defs>
      <use xlink:href="#Cmmi10-78" transform="translate(0 0.8125)"/>
     </g>
    </g>
   </g>
   <g id="matplotlib.axis_2">
    <g id="ytick_1">
     <g id="line2d_11">
      <path d="M 42.47125 339.769912 
L 421.930709 339.769912 
" clip-path="url(#pda7dc3291d)" style="fill: none; stroke: #b0b0b0; stroke-opacity: 0.15; stroke-width: 0.8; stroke-linecap: square"/>
     </g>
     <g id="line2d_12">
      <defs>
       <path id="m17b3080ba3" d="M 0 0 
L -3.5 0 
" style="stroke: #000000; stroke-width: 0.8"/>
      </defs>
      <g>
       <use xlink:href="#m17b3080ba3" x="42.47125" y="339.769912" style="stroke: #000000; stroke-width: 0.8"/>
      </g>
     </g>
     <g id="text_7">
      <!-- 0 -->
      <g transform="translate(27.2 344.708896) scale(0.13 -0.13)">
       <use xlink:href="#DejaVuSerif-30"/>
      </g>
     </g>
    </g>
    <g id="ytick_2">
     <g id="line2d_13">
      <path d="M 42.47125 286.502655 
L 421.930709 286.502655 
" clip-path="url(#pda7dc3291d)" style="fill: none; stroke: #b0b0b0; stroke-opacity: 0.15; stroke-width: 0.8; stroke-linecap: square"/>
     </g>
     <g id="line2d_14">
      <g>
       <use xlink:href="#m17b3080ba3" x="42.47125" y="286.502655" style="stroke: #000000; stroke-width: 0.8"/>
      </g>
     </g>
     <g id="text_8">
      <!-- 1 -->
      <g transform="translate(27.2 291.441639) scale(0.13 -0.13)">
       <defs>
        <path id="DejaVuSerif-31" d="M 909 0 
L 909 331 
L 1722 331 
L 1722 4213 
L 781 3603 
L 781 4013 
L 1919 4750 
L 2350 4750 
L 2350 331 
L 3163 331 
L 3163 0 
L 909 0 
z
" transform="scale(0.015625)"/>
       </defs>
       <use xlink:href="#DejaVuSerif-31"/>
      </g>
     </g>
    </g>
    <g id="ytick_3">
     <g id="line2d_15">
      <path d="M 42.47125 233.235398 
L 421.930709 233.235398 
" clip-path="url(#pda7dc3291d)" style="fill: none; stroke: #b0b0b0; stroke-opacity: 0.15; stroke-width: 0.8; stroke-linecap: square"/>
     </g>
     <g id="line2d_16">
      <g>
       <use xlink:href="#m17b3080ba3" x="42.47125" y="233.235398" style="stroke: #000000; stroke-width: 0.8"/>
      </g>
     </g>
     <g id="text_9">
      <!-- 2 -->
      <g transform="translate(27.2 238.174383) scale(0.13 -0.13)">
       <use xlink:href="#DejaVuSerif-32"/>
      </g>
     </g>
    </g>
    <g id="ytick_4">
     <g id="line2d_17">
      <path d="M 42.47125 179.968142 
L 421.930709 179.968142 
" clip-path="url(#pda7dc3291d)" style="fill: none; stroke: #b0b0b0; stroke-opacity: 0.15; stroke-width: 0.8; stroke-linecap: square"/>
     </g>
     <g id="line2d_18">
      <g>
       <use xlink:href="#m17b3080ba3" x="42.47125" y="179.968142" style="stroke: #000000; stroke-width: 0.8"/>
      </g>
     </g>
     <g id="text_10">
      <!-- 3 -->
      <g transform="translate(27.2 184.907126) scale(0.13 -0.13)">
       <defs>
        <path id="DejaVuSerif-33" d="M 622 4469 
Q 988 4606 1323 4678 
Q 1659 4750 1953 4750 
Q 2638 4750 3022 4454 
Q 3406 4159 3406 3634 
Q 3406 3213 3140 2930 
Q 2875 2647 2388 2547 
Q 2963 2466 3280 2130 
Q 3597 1794 3597 1259 
Q 3597 606 3158 257 
Q 2719 -91 1894 -91 
Q 1528 -91 1179 -12 
Q 831 66 488 225 
L 488 1131 
L 838 1131 
Q 869 681 1141 450 
Q 1413 219 1906 219 
Q 2384 219 2661 495 
Q 2938 772 2938 1253 
Q 2938 1803 2653 2086 
Q 2369 2369 1819 2369 
L 1522 2369 
L 1522 2688 
L 1678 2688 
Q 2225 2688 2498 2914 
Q 2772 3141 2772 3597 
Q 2772 4006 2547 4223 
Q 2322 4441 1900 4441 
Q 1478 4441 1245 4241 
Q 1013 4041 972 3647 
L 622 3647 
L 622 4469 
z
" transform="scale(0.015625)"/>
       </defs>
       <use xlink:href="#DejaVuSerif-33"/>
      </g>
     </g>
    </g>
    <g id="ytick_5">
     <g id="line2d_19">
      <path d="M 42.47125 126.700885 
L 421.930709 126.700885 
" clip-path="url(#pda7dc3291d)" style="fill: none; stroke: #b0b0b0; stroke-opacity: 0.15; stroke-width: 0.8; stroke-linecap: square"/>
     </g>
     <g id="line2d_20">
      <g>
       <use xlink:href="#m17b3080ba3" x="42.47125" y="126.700885" style="stroke: #000000; stroke-width: 0.8"/>
      </g>
     </g>
     <g id="text_11">
      <!-- 4 -->
      <g transform="translate(27.2 131.639869) scale(0.13 -0.13)">
       <use xlink:href="#DejaVuSerif-34"/>
      </g>
     </g>
    </g>
    <g id="ytick_6">
     <g id="line2d_21">
      <path d="M 42.47125 73.433628 
L 421.930709 73.433628 
" clip-path="url(#pda7dc3291d)" style="fill: none; stroke: #b0b0b0; stroke-opacity: 0.15; stroke-width: 0.8; stroke-linecap: square"/>
     </g>
     <g id="line2d_22">
      <g>
       <use xlink:href="#m17b3080ba3" x="42.47125" y="73.433628" style="stroke: #000000; stroke-width: 0.8"/>
      </g>
     </g>
     <g id="text_12">
      <!-- 5 -->
      <g transform="translate(27.2 78.372613) scale(0.13 -0.13)">
       <defs>
        <path id="DejaVuSerif-35" d="M 3219 4666 
L 3219 4153 
L 1081 4153 
L 1081 2816 
Q 1244 2928 1461 2984 
Q 1678 3041 1947 3041 
Q 2703 3041 3140 2622 
Q 3578 2203 3578 1478 
Q 3578 738 3136 323 
Q 2694 -91 1894 -91 
Q 1572 -91 1234 -12 
Q 897 66 544 225 
L 544 1131 
L 897 1131 
Q 925 688 1179 453 
Q 1434 219 1894 219 
Q 2388 219 2653 544 
Q 2919 869 2919 1478 
Q 2919 2084 2655 2407 
Q 2391 2731 1894 2731 
Q 1613 2731 1398 2631 
Q 1184 2531 1019 2322 
L 750 2322 
L 750 4666 
L 3219 4666 
z
" transform="scale(0.015625)"/>
       </defs>
       <use xlink:href="#DejaVuSerif-35"/>
      </g>
     </g>
    </g>
    <g id="text_13">
     <!-- $\varphi(x)$ -->
     <g transform="translate(19.2 213.36) rotate(-90) scale(0.16 -0.16)">
      <defs>
       <path id="Cmmi10-27" d="M 1044 -1216 
Q 1044 -1191 1056 -1141 
L 1416 -13 
Q 938 106 628 428 
Q 319 750 319 1216 
Q 319 1450 406 1744 
Q 494 2038 631 2302 
Q 769 2566 928 2741 
Q 966 2759 972 2759 
L 1050 2759 
Q 1069 2759 1084 2740 
Q 1100 2722 1100 2700 
Q 1100 2675 1088 2663 
Q 981 2547 879 2380 
Q 778 2213 698 2028 
Q 619 1844 566 1641 
Q 513 1438 513 1288 
Q 513 909 814 676 
Q 1116 444 1528 366 
L 1709 941 
Q 1828 1313 1945 1605 
Q 2063 1897 2239 2176 
Q 2416 2456 2666 2642 
Q 2916 2828 3225 2828 
Q 3469 2828 3633 2706 
Q 3797 2584 3876 2381 
Q 3956 2178 3956 1947 
Q 3956 1566 3787 1202 
Q 3619 838 3325 548 
Q 3031 259 2662 93 
Q 2294 -72 1919 -72 
Q 1869 -69 1811 -66 
Q 1753 -63 1716 -63 
L 1503 -1178 
Q 1484 -1272 1407 -1333 
Q 1331 -1394 1234 -1394 
Q 1156 -1394 1100 -1345 
Q 1044 -1297 1044 -1216 
z
M 1784 331 
Q 1856 325 1991 325 
Q 2388 325 2798 520 
Q 3209 716 3479 1056 
Q 3750 1397 3750 1797 
Q 3750 1978 3676 2122 
Q 3603 2266 3470 2348 
Q 3338 2431 3163 2431 
Q 2666 2431 2331 1950 
Q 1997 1469 1894 916 
L 1784 331 
z
" transform="scale(0.015625)"/>
       <path id="Cmr10-28" d="M 1984 -1588 
Q 1628 -1306 1370 -942 
Q 1113 -578 948 -165 
Q 784 247 703 697 
Q 622 1147 622 1600 
Q 622 2059 703 2509 
Q 784 2959 951 3375 
Q 1119 3791 1378 4153 
Q 1638 4516 1984 4788 
Q 1984 4800 2016 4800 
L 2075 4800 
Q 2094 4800 2109 4783 
Q 2125 4766 2125 4744 
Q 2125 4716 2113 4703 
Q 1800 4397 1592 4047 
Q 1384 3697 1257 3301 
Q 1131 2906 1075 2482 
Q 1019 2059 1019 1600 
Q 1019 -434 2106 -1491 
Q 2125 -1509 2125 -1544 
Q 2125 -1559 2108 -1579 
Q 2091 -1600 2075 -1600 
L 2016 -1600 
Q 1984 -1600 1984 -1588 
z
" transform="scale(0.015625)"/>
       <path id="Cmr10-29" d="M 416 -1600 
Q 359 -1600 359 -1544 
Q 359 -1516 372 -1503 
Q 1466 -434 1466 1600 
Q 1466 3634 384 4691 
Q 359 4706 359 4744 
Q 359 4766 376 4783 
Q 394 4800 416 4800 
L 475 4800 
Q 494 4800 506 4788 
Q 966 4425 1272 3906 
Q 1578 3388 1720 2800 
Q 1863 2213 1863 1600 
Q 1863 1147 1786 708 
Q 1709 269 1542 -157 
Q 1375 -584 1119 -945 
Q 863 -1306 506 -1588 
Q 494 -1600 475 -1600 
L 416 -1600 
z
" transform="scale(0.015625)"/>
      </defs>
      <use xlink:href="#Cmmi10-27"/>
      <use xlink:href="#Cmr10-28" transform="translate(65.380859 0)"/>
      <use xlink:href="#Cmmi10-78" transform="translate(104.199219 0)"/>
      <use xlink:href="#Cmr10-29" transform="translate(161.279297 0)"/>
     </g>
    </g>
   </g>
   <g id="line2d_23">
    <path d="M 42.47125 339.769912 
L 232.01106 339.769912 
L 232.390899 339.503309 
L 421.930709 73.433628 
L 421.930709 73.433628 
" clip-path="url(#pda7dc3291d)" style="fill: none; stroke-dasharray: 7.4,3.2; stroke-dashoffset: 0; stroke: #000000; stroke-width: 2"/>
   </g>
   <g id="line2d_24">
    <path d="M 42.47125 313.801985 
L 421.930709 312.470581 
L 421.930709 312.470581 
" clip-path="url(#pda7dc3291d)" style="fill: none; stroke: #0072bd; stroke-width: 2.5; stroke-linecap: square"/>
   </g>
   <g id="line2d_25">
    <path d="M 42.47125 319.659356 
L 155.283522 315.826433 
L 421.930709 306.613211 
L 421.930709 306.613211 
" clip-path="url(#pda7dc3291d)" style="fill: none; stroke: #d95319; stroke-width: 2.5; stroke-linecap: square"/>
   </g>
   <g id="line2d_26">
    <path d="M 42.47125 339.413402 
L 69.060001 339.056334 
L 88.811644 338.579916 
L 104.764895 337.978932 
L 118.05927 337.262866 
L 129.834289 336.40825 
L 140.08995 335.449671 
L 149.585932 334.346304 
L 158.322236 333.117543 
L 166.678701 331.726196 
L 175.035165 330.104189 
L 183.011791 328.328691 
L 190.988416 326.327599 
L 199.34488 323.996664 
L 208.081184 321.326988 
L 218.336845 317.948373 
L 233.530417 312.669776 
L 250.243346 306.921118 
L 260.119168 303.757907 
L 268.855472 301.187655 
L 277.211937 298.964089 
L 285.188562 297.07027 
L 293.165187 295.401497 
L 301.521652 293.886387 
L 309.878116 292.593824 
L 318.994259 291.4129 
L 328.490242 290.405451 
L 339.125742 289.505271 
L 350.900761 288.737845 
L 364.195136 288.096988 
L 380.148387 287.560635 
L 399.520191 287.142726 
L 421.930709 286.859165 
L 421.930709 286.859165 
" clip-path="url(#pda7dc3291d)" style="fill: none; stroke: #edb120; stroke-width: 2.5; stroke-linecap: square"/>
   </g>
   <g id="line2d_27">
    <path d="M 42.47125 339.769912 
L 208.461024 339.667918 
L 213.019095 339.432378 
L 215.67797 339.094073 
L 217.577167 338.664197 
L 219.096524 338.136416 
L 220.615881 337.368312 
L 221.755399 336.577532 
L 222.894917 335.547981 
L 224.034435 334.223177 
L 225.173953 332.543909 
L 226.313471 330.455477 
L 227.452988 327.91882 
L 228.972346 323.82945 
L 230.491703 319.035436 
L 235.809453 301.347899 
L 237.32881 297.457041 
L 238.468328 295.072603 
L 239.607846 293.125941 
L 240.747364 291.57132 
L 241.886882 290.351491 
L 243.0264 289.407533 
L 244.545757 288.484738 
L 246.065114 287.847261 
L 247.964311 287.325976 
L 250.243346 286.957405 
L 253.282061 286.707789 
L 258.219972 286.558645 
L 269.615151 286.505437 
L 421.930709 286.502655 
L 421.930709 286.502655 
" clip-path="url(#pda7dc3291d)" style="fill: none; stroke: #7e2f8e; stroke-width: 2.5; stroke-linecap: square"/>
   </g>
   <g id="line2d_28">
    <path d="M 42.47125 286.502655 
L 421.930709 286.502655 
" clip-path="url(#pda7dc3291d)" style="fill: none; stroke-dasharray: 1,1.65; stroke-dashoffset: 0; stroke: #666666"/>
   </g>
   <g id="line2d_29">
    <path d="M 42.47125 339.769912 
L 421.930709 339.769912 
" clip-path="url(#pda7dc3291d)" style="fill: none; stroke: #808080; stroke-width: 0.5; stroke-linecap: square"/>
   </g>
   <g id="line2d_30">
    <path d="M 232.20098 347.76 
L 232.20098 46.8 
" clip-path="url(#pda7dc3291d)" style="fill: none; stroke: #808080; stroke-width: 0.5; stroke-linecap: square"/>
   </g>
   <g id="patch_3">
    <path d="M 42.47125 347.76 
L 42.47125 46.8 
" style="fill: none; stroke: #000000; stroke-width: 0.8; stroke-linejoin: miter; stroke-linecap: square"/>
   </g>
   <g id="patch_4">
    <path d="M 42.47125 347.76 
L 421.930709 347.76 
" style="fill: none; stroke: #000000; stroke-width: 0.8; stroke-linejoin: miter; stroke-linecap: square"/>
   </g>
   <g id="text_14">
    <!-- $\beta = 1$ -->
    <g style="fill: #666666" transform="translate(384.752331 282.292277) scale(0.1 -0.1)">
     <defs>
      <path id="Cmmi10-af" d="M 172 -1241 
Q 153 -1241 137 -1219 
Q 122 -1197 122 -1178 
L 1106 2778 
Q 1191 3097 1353 3397 
Q 1516 3697 1761 3955 
Q 2006 4213 2300 4363 
Q 2594 4513 2925 4513 
Q 3163 4513 3355 4408 
Q 3547 4303 3658 4114 
Q 3769 3925 3769 3688 
Q 3769 3459 3681 3251 
Q 3594 3044 3437 2864 
Q 3281 2684 3103 2572 
Q 3206 2506 3287 2404 
Q 3369 2303 3419 2192 
Q 3469 2081 3497 1945 
Q 3525 1809 3525 1691 
Q 3525 1363 3384 1044 
Q 3244 725 3001 465 
Q 2759 206 2446 54 
Q 2134 -97 1806 -97 
Q 1447 -97 1159 100 
Q 872 297 763 634 
L 300 -1203 
Q 300 -1241 250 -1241 
L 172 -1241 
z
M 1819 78 
Q 2106 78 2339 267 
Q 2572 456 2723 742 
Q 2875 1028 2954 1348 
Q 3034 1669 3034 1931 
Q 3034 2256 2847 2444 
Q 2628 2363 2419 2363 
Q 1913 2363 1913 2534 
Q 1913 2759 2491 2759 
Q 2697 2759 2869 2694 
Q 3006 2800 3118 3006 
Q 3231 3213 3289 3438 
Q 3347 3663 3347 3859 
Q 3347 4069 3236 4208 
Q 3125 4347 2913 4347 
Q 2522 4347 2186 4106 
Q 1850 3866 1619 3498 
Q 1388 3131 1288 2741 
L 934 1325 
Q 900 1178 891 997 
Q 891 597 1153 337 
Q 1416 78 1819 78 
z
M 2106 2553 
Q 2203 2528 2425 2528 
Q 2534 2528 2644 2566 
Q 2638 2572 2619 2572 
Q 2550 2591 2472 2591 
Q 2181 2591 2106 2553 
z
" transform="scale(0.015625)"/>
      <path id="Cmr10-3d" d="M 481 850 
Q 428 850 393 890 
Q 359 931 359 978 
Q 359 1031 393 1068 
Q 428 1106 481 1106 
L 4500 1106 
Q 4547 1106 4581 1068 
Q 4616 1031 4616 978 
Q 4616 931 4581 890 
Q 4547 850 4500 850 
L 481 850 
z
M 481 2094 
Q 428 2094 393 2131 
Q 359 2169 359 2222 
Q 359 2269 393 2309 
Q 428 2350 481 2350 
L 4500 2350 
Q 4547 2350 4581 2309 
Q 4616 2269 4616 2222 
Q 4616 2169 4581 2131 
Q 4547 2094 4500 2094 
L 481 2094 
z
" transform="scale(0.015625)"/>
      <path id="Cmr10-31" d="M 594 0 
L 594 225 
Q 1394 225 1394 428 
L 1394 3788 
Q 1063 3628 556 3628 
L 556 3853 
Q 1341 3853 1741 4263 
L 1831 4263 
Q 1853 4263 1873 4245 
Q 1894 4228 1894 4206 
L 1894 428 
Q 1894 225 2694 225 
L 2694 0 
L 594 0 
z
" transform="scale(0.015625)"/>
     </defs>
     <use xlink:href="#Cmmi10-af" transform="translate(0 0.484375)"/>
     <use xlink:href="#Cmr10-3d" transform="translate(74.052734 0.484375)"/>
     <use xlink:href="#Cmr10-31" transform="translate(169.296875 0.484375)"/>
    </g>
   </g>
   <g id="text_15">
    <!-- $\beta = 1$ -->
    <g transform="translate(216.80098 40.8) scale(0.14 -0.14)">
     <use xlink:href="#Cmmi10-af" transform="translate(0 0.484375)"/>
     <use xlink:href="#Cmr10-3d" transform="translate(74.052734 0.484375)"/>
     <use xlink:href="#Cmr10-31" transform="translate(169.296875 0.484375)"/>
    </g>
   </g>
   <g id="legend_1">
    <g id="patch_5">
     <path d="M 50.17125 136.792031 
L 131.13125 136.792031 
Q 133.33125 136.792031 133.33125 134.592031 
L 133.33125 54.5 
Q 133.33125 52.3 131.13125 52.3 
L 50.17125 52.3 
Q 47.97125 52.3 47.97125 54.5 
L 47.97125 134.592031 
Q 47.97125 136.792031 50.17125 136.792031 
z
" style="fill: #ffffff; opacity: 0.95; stroke: #bfbfbf; stroke-linejoin: miter"/>
    </g>
    <g id="line2d_31">
     <path d="M 52.37125 61.208281 
L 63.37125 61.208281 
L 74.37125 61.208281 
" style="fill: none; stroke-dasharray: 7.4,3.2; stroke-dashoffset: 0; stroke: #000000; stroke-width: 2"/>
    </g>
    <g id="text_16">
     <!-- $\max(0,x)$ -->
     <g transform="translate(83.17125 65.058281) scale(0.11 -0.11)">
      <defs>
       <path id="Cmr10-6d" d="M 191 0 
L 191 225 
Q 409 225 550 259 
Q 691 294 691 428 
L 691 2175 
Q 691 2347 639 2423 
Q 588 2500 491 2517 
Q 394 2534 191 2534 
L 191 2759 
L 1119 2828 
L 1119 2203 
Q 1247 2478 1498 2653 
Q 1750 2828 2047 2828 
Q 2784 2828 2913 2228 
Q 3041 2497 3287 2662 
Q 3534 2828 3828 2828 
Q 4119 2828 4317 2734 
Q 4516 2641 4616 2448 
Q 4716 2256 4716 1966 
L 4716 428 
Q 4716 294 4858 259 
Q 5000 225 5216 225 
L 5216 0 
L 3750 0 
L 3750 225 
Q 3969 225 4109 259 
Q 4250 294 4250 428 
L 4250 1947 
Q 4250 2269 4159 2466 
Q 4069 2663 3788 2663 
Q 3419 2663 3178 2366 
Q 2938 2069 2938 1691 
L 2938 428 
Q 2938 294 3078 259 
Q 3219 225 3438 225 
L 3438 0 
L 1972 0 
L 1972 225 
Q 2191 225 2331 259 
Q 2472 294 2472 428 
L 2472 1947 
Q 2472 2259 2381 2461 
Q 2291 2663 2009 2663 
Q 1638 2663 1398 2366 
Q 1159 2069 1159 1691 
L 1159 428 
Q 1159 294 1300 259 
Q 1441 225 1656 225 
L 1656 0 
L 191 0 
z
" transform="scale(0.015625)"/>
       <path id="Cmr10-61" d="M 256 628 
Q 256 1009 556 1248 
Q 856 1488 1276 1586 
Q 1697 1684 2075 1684 
L 2075 1947 
Q 2075 2131 1994 2304 
Q 1913 2478 1759 2589 
Q 1606 2700 1422 2700 
Q 997 2700 775 2509 
Q 897 2509 976 2417 
Q 1056 2325 1056 2203 
Q 1056 2075 965 1984 
Q 875 1894 750 1894 
Q 622 1894 531 1984 
Q 441 2075 441 2203 
Q 441 2541 747 2705 
Q 1053 2869 1422 2869 
Q 1681 2869 1943 2758 
Q 2206 2647 2373 2440 
Q 2541 2234 2541 1959 
L 2541 519 
Q 2541 394 2594 289 
Q 2647 184 2759 184 
Q 2866 184 2917 290 
Q 2969 397 2969 519 
L 2969 928 
L 3156 928 
L 3156 519 
Q 3156 375 3081 245 
Q 3006 116 2879 39 
Q 2753 -38 2606 -38 
Q 2419 -38 2283 107 
Q 2147 253 2131 453 
Q 2013 213 1781 70 
Q 1550 -72 1288 -72 
Q 1044 -72 808 0 
Q 572 72 414 226 
Q 256 381 256 628 
z
M 775 628 
Q 775 403 940 250 
Q 1106 97 1331 97 
Q 1538 97 1706 200 
Q 1875 303 1975 481 
Q 2075 659 2075 856 
L 2075 1522 
Q 1784 1522 1479 1426 
Q 1175 1331 975 1128 
Q 775 925 775 628 
z
" transform="scale(0.015625)"/>
       <path id="Cmr10-78" d="M 78 0 
L 78 225 
Q 322 225 537 320 
Q 753 416 903 603 
L 1484 1344 
L 728 2328 
Q 616 2469 483 2501 
Q 350 2534 109 2534 
L 109 2759 
L 1441 2759 
L 1441 2534 
Q 1356 2534 1282 2496 
Q 1209 2459 1209 2388 
Q 1209 2363 1228 2328 
L 1741 1663 
L 2125 2156 
Q 2203 2250 2203 2344 
Q 2203 2422 2151 2478 
Q 2100 2534 2016 2534 
L 2016 2759 
L 3194 2759 
L 3194 2534 
Q 2947 2534 2730 2439 
Q 2513 2344 2363 2156 
L 1856 1509 
L 2675 428 
Q 2797 288 2928 256 
Q 3059 225 3303 225 
L 3303 0 
L 1972 0 
L 1972 225 
Q 2050 225 2122 262 
Q 2194 300 2194 372 
Q 2194 400 2175 428 
L 1600 1191 
L 1141 603 
Q 1069 522 1069 416 
Q 1069 338 1122 281 
Q 1175 225 1247 225 
L 1247 0 
L 78 0 
z
" transform="scale(0.015625)"/>
       <path id="Cmr10-30" d="M 1600 -141 
Q 816 -141 533 504 
Q 250 1150 250 2041 
Q 250 2597 351 3087 
Q 453 3578 754 3920 
Q 1056 4263 1600 4263 
Q 2022 4263 2290 4056 
Q 2559 3850 2700 3523 
Q 2841 3197 2892 2823 
Q 2944 2450 2944 2041 
Q 2944 1491 2842 1011 
Q 2741 531 2444 195 
Q 2147 -141 1600 -141 
z
M 1600 25 
Q 1956 25 2131 390 
Q 2306 756 2347 1200 
Q 2388 1644 2388 2144 
Q 2388 2625 2347 3031 
Q 2306 3438 2132 3767 
Q 1959 4097 1600 4097 
Q 1238 4097 1063 3765 
Q 888 3434 847 3029 
Q 806 2625 806 2144 
Q 806 1788 823 1472 
Q 841 1156 916 820 
Q 991 484 1158 254 
Q 1325 25 1600 25 
z
" transform="scale(0.015625)"/>
       <path id="Cmmi10-3b" d="M 634 -1153 
Q 634 -1125 659 -1100 
Q 891 -878 1019 -587 
Q 1147 -297 1147 25 
L 1147 103 
Q 1044 0 891 0 
Q 744 0 641 103 
Q 538 206 538 353 
Q 538 503 641 603 
Q 744 703 891 703 
Q 1119 703 1216 492 
Q 1313 281 1313 25 
Q 1313 -331 1170 -651 
Q 1028 -972 769 -1228 
Q 744 -1241 728 -1241 
Q 697 -1241 665 -1212 
Q 634 -1184 634 -1153 
z
" transform="scale(0.015625)"/>
      </defs>
      <use xlink:href="#Cmr10-6d"/>
      <use xlink:href="#Cmr10-61" transform="translate(83.300781 0)"/>
      <use xlink:href="#Cmr10-78" transform="translate(133.300781 0)"/>
      <use xlink:href="#Cmr10-28" transform="translate(185.986328 0)"/>
      <use xlink:href="#Cmr10-30" transform="translate(224.804688 0)"/>
      <use xlink:href="#Cmmi10-3b" transform="translate(274.804688 0)"/>
      <use xlink:href="#Cmmi10-78" transform="translate(320.048828 0)"/>
      <use xlink:href="#Cmr10-29" transform="translate(377.128906 0)"/>
     </g>
    </g>
    <g id="line2d_32">
     <path d="M 52.37125 77.816562 
L 63.37125 77.816562 
L 74.37125 77.816562 
" style="fill: none; stroke: #0072bd; stroke-width: 2.5; stroke-linecap: square"/>
    </g>
    <g id="text_17">
     <!-- $\alpha = 0.01$ -->
     <g transform="translate(83.17125 81.666562) scale(0.11 -0.11)">
      <defs>
       <path id="Cmmi10-ae" d="M 1288 -72 
Q 984 -72 748 72 
Q 513 216 384 459 
Q 256 703 256 1013 
Q 256 1447 498 1872 
Q 741 2297 1142 2562 
Q 1544 2828 1984 2828 
Q 2309 2828 2556 2658 
Q 2803 2488 2931 2205 
Q 3059 1922 3059 1600 
L 3066 1172 
Q 3284 1475 3436 1801 
Q 3588 2128 3669 2478 
Q 3681 2516 3719 2516 
L 3794 2516 
Q 3853 2516 3853 2456 
Q 3853 2450 3847 2438 
Q 3772 2144 3659 1873 
Q 3547 1603 3395 1350 
Q 3244 1097 3066 891 
Q 3066 97 3250 97 
Q 3369 97 3445 167 
Q 3522 238 3580 341 
Q 3638 444 3653 447 
L 3731 447 
Q 3781 447 3781 384 
Q 3781 225 3598 76 
Q 3416 -72 3238 -72 
Q 3006 -72 2853 78 
Q 2700 228 2644 469 
Q 2344 213 1994 70 
Q 1644 -72 1288 -72 
z
M 1300 97 
Q 1984 97 2613 659 
Q 2609 697 2603 751 
Q 2597 806 2597 813 
L 2597 1503 
Q 2597 2663 1972 2663 
Q 1597 2663 1315 2342 
Q 1034 2022 892 1576 
Q 750 1131 750 763 
Q 750 484 892 290 
Q 1034 97 1300 97 
z
" transform="scale(0.015625)"/>
       <path id="Cmmi10-3a" d="M 538 353 
Q 538 497 644 600 
Q 750 703 891 703 
Q 978 703 1062 656 
Q 1147 609 1194 525 
Q 1241 441 1241 353 
Q 1241 213 1137 106 
Q 1034 0 891 0 
Q 750 0 644 106 
Q 538 213 538 353 
z
" transform="scale(0.015625)"/>
      </defs>
      <use xlink:href="#Cmmi10-ae" transform="translate(0 0.390625)"/>
      <use xlink:href="#Cmr10-3d" transform="translate(81.474609 0.390625)"/>
      <use xlink:href="#Cmr10-30" transform="translate(176.71875 0.390625)"/>
      <use xlink:href="#Cmmi10-3a" transform="translate(226.71875 0.390625)"/>
      <use xlink:href="#Cmr10-30" transform="translate(254.404297 0.390625)"/>
      <use xlink:href="#Cmr10-31" transform="translate(304.404297 0.390625)"/>
     </g>
    </g>
    <g id="line2d_33">
     <path d="M 52.37125 93.9625 
L 63.37125 93.9625 
L 74.37125 93.9625 
" style="fill: none; stroke: #d95319; stroke-width: 2.5; stroke-linecap: square"/>
    </g>
    <g id="text_18">
     <!-- $\alpha = 0.1$ -->
     <g transform="translate(83.17125 97.8125) scale(0.11 -0.11)">
      <use xlink:href="#Cmmi10-ae" transform="translate(0 0.390625)"/>
      <use xlink:href="#Cmr10-3d" transform="translate(81.474609 0.390625)"/>
      <use xlink:href="#Cmr10-30" transform="translate(176.71875 0.390625)"/>
      <use xlink:href="#Cmmi10-3a" transform="translate(226.71875 0.390625)"/>
      <use xlink:href="#Cmr10-31" transform="translate(254.404297 0.390625)"/>
     </g>
    </g>
    <g id="line2d_34">
     <path d="M 52.37125 110.108437 
L 63.37125 110.108437 
L 74.37125 110.108437 
" style="fill: none; stroke: #edb120; stroke-width: 2.5; stroke-linecap: square"/>
    </g>
    <g id="text_19">
     <!-- $\alpha = 1.0$ -->
     <g transform="translate(83.17125 113.958437) scale(0.11 -0.11)">
      <use xlink:href="#Cmmi10-ae" transform="translate(0 0.390625)"/>
      <use xlink:href="#Cmr10-3d" transform="translate(81.474609 0.390625)"/>
      <use xlink:href="#Cmr10-31" transform="translate(176.71875 0.390625)"/>
      <use xlink:href="#Cmmi10-3a" transform="translate(226.71875 0.390625)"/>
      <use xlink:href="#Cmr10-30" transform="translate(254.404297 0.390625)"/>
     </g>
    </g>
    <g id="line2d_35">
     <path d="M 52.37125 126.254375 
L 63.37125 126.254375 
L 74.37125 126.254375 
" style="fill: none; stroke: #7e2f8e; stroke-width: 2.5; stroke-linecap: square"/>
    </g>
    <g id="text_20">
     <!-- $\alpha = 10.0$ -->
     <g transform="translate(83.17125 130.104375) scale(0.11 -0.11)">
      <use xlink:href="#Cmmi10-ae" transform="translate(0 0.390625)"/>
      <use xlink:href="#Cmr10-3d" transform="translate(81.474609 0.390625)"/>
      <use xlink:href="#Cmr10-31" transform="translate(176.71875 0.390625)"/>
      <use xlink:href="#Cmr10-30" transform="translate(226.71875 0.390625)"/>
      <use xlink:href="#Cmmi10-3a" transform="translate(276.71875 0.390625)"/>
      <use xlink:href="#Cmr10-30" transform="translate(304.404297 0.390625)"/>
     </g>
    </g>
   </g>
  </g>
  <g id="axes_2">
   <g id="patch_6">
    <path d="M 505.411791 347.76 
L 884.87125 347.76 
L 884.87125 46.8 
L 505.411791 46.8 
z
" style="fill: #ffffff"/>
   </g>
   <g id="matplotlib.axis_3">
    <g id="xtick_6">
     <g id="line2d_36">
      <path d="M 543.357736 347.76 
L 543.357736 46.8 
" clip-path="url(#p9ee479e1b2)" style="fill: none; stroke: #b0b0b0; stroke-opacity: 0.15; stroke-width: 0.8; stroke-linecap: square"/>
     </g>
     <g id="line2d_37">
      <g>
       <use xlink:href="#me8fa844a29" x="543.357736" y="347.76" style="stroke: #000000; stroke-width: 0.8"/>
      </g>
     </g>
     <g id="text_21">
      <!-- −4 -->
      <g transform="translate(533.775315 364.637969) scale(0.13 -0.13)">
       <use xlink:href="#DejaVuSerif-2212"/>
       <use xlink:href="#DejaVuSerif-34" transform="translate(83.789062 0)"/>
      </g>
     </g>
    </g>
    <g id="xtick_7">
     <g id="line2d_38">
      <path d="M 619.249628 347.76 
L 619.249628 46.8 
" clip-path="url(#p9ee479e1b2)" style="fill: none; stroke: #b0b0b0; stroke-opacity: 0.15; stroke-width: 0.8; stroke-linecap: square"/>
     </g>
     <g id="line2d_39">
      <g>
       <use xlink:href="#me8fa844a29" x="619.249628" y="347.76" style="stroke: #000000; stroke-width: 0.8"/>
      </g>
     </g>
     <g id="text_22">
      <!-- −2 -->
      <g transform="translate(609.667207 364.637969) scale(0.13 -0.13)">
       <use xlink:href="#DejaVuSerif-2212"/>
       <use xlink:href="#DejaVuSerif-32" transform="translate(83.789062 0)"/>
      </g>
     </g>
    </g>
    <g id="xtick_8">
     <g id="line2d_40">
      <path d="M 695.14152 347.76 
L 695.14152 46.8 
" clip-path="url(#p9ee479e1b2)" style="fill: none; stroke: #b0b0b0; stroke-opacity: 0.15; stroke-width: 0.8; stroke-linecap: square"/>
     </g>
     <g id="line2d_41">
      <g>
       <use xlink:href="#me8fa844a29" x="695.14152" y="347.76" style="stroke: #000000; stroke-width: 0.8"/>
      </g>
     </g>
     <g id="text_23">
      <!-- 0 -->
      <g transform="translate(691.005895 364.637969) scale(0.13 -0.13)">
       <use xlink:href="#DejaVuSerif-30"/>
      </g>
     </g>
    </g>
    <g id="xtick_9">
     <g id="line2d_42">
      <path d="M 771.033412 347.76 
L 771.033412 46.8 
" clip-path="url(#p9ee479e1b2)" style="fill: none; stroke: #b0b0b0; stroke-opacity: 0.15; stroke-width: 0.8; stroke-linecap: square"/>
     </g>
     <g id="line2d_43">
      <g>
       <use xlink:href="#me8fa844a29" x="771.033412" y="347.76" style="stroke: #000000; stroke-width: 0.8"/>
      </g>
     </g>
     <g id="text_24">
      <!-- 2 -->
      <g transform="translate(766.897787 364.637969) scale(0.13 -0.13)">
       <use xlink:href="#DejaVuSerif-32"/>
      </g>
     </g>
    </g>
    <g id="xtick_10">
     <g id="line2d_44">
      <path d="M 846.925304 347.76 
L 846.925304 46.8 
" clip-path="url(#p9ee479e1b2)" style="fill: none; stroke: #b0b0b0; stroke-opacity: 0.15; stroke-width: 0.8; stroke-linecap: square"/>
     </g>
     <g id="line2d_45">
      <g>
       <use xlink:href="#me8fa844a29" x="846.925304" y="347.76" style="stroke: #000000; stroke-width: 0.8"/>
      </g>
     </g>
     <g id="text_25">
      <!-- 4 -->
      <g transform="translate(842.789679 364.637969) scale(0.13 -0.13)">
       <use xlink:href="#DejaVuSerif-34"/>
      </g>
     </g>
    </g>
    <g id="text_26">
     <!-- $x$ -->
     <g transform="translate(690.50152 383.499062) scale(0.16 -0.16)">
      <use xlink:href="#Cmmi10-78" transform="translate(0 0.8125)"/>
     </g>
    </g>
   </g>
   <g id="matplotlib.axis_4">
    <g id="ytick_7">
     <g id="line2d_46">
      <path d="M 505.411791 315.514286 
L 884.87125 315.514286 
" clip-path="url(#p9ee479e1b2)" style="fill: none; stroke: #b0b0b0; stroke-opacity: 0.15; stroke-width: 0.8; stroke-linecap: square"/>
     </g>
     <g id="line2d_47">
      <g>
       <use xlink:href="#m17b3080ba3" x="505.411791" y="315.514286" style="stroke: #000000; stroke-width: 0.8"/>
      </g>
     </g>
     <g id="text_27">
      <!-- 0 -->
      <g transform="translate(490.140541 320.45327) scale(0.13 -0.13)">
       <use xlink:href="#DejaVuSerif-30"/>
      </g>
     </g>
    </g>
    <g id="ytick_8">
     <g id="line2d_48">
      <path d="M 505.411791 272.52 
L 884.87125 272.52 
" clip-path="url(#p9ee479e1b2)" style="fill: none; stroke: #b0b0b0; stroke-opacity: 0.15; stroke-width: 0.8; stroke-linecap: square"/>
     </g>
     <g id="line2d_49">
      <g>
       <use xlink:href="#m17b3080ba3" x="505.411791" y="272.52" style="stroke: #000000; stroke-width: 0.8"/>
      </g>
     </g>
     <g id="text_28">
      <!-- 2 -->
      <g transform="translate(490.140541 277.458984) scale(0.13 -0.13)">
       <use xlink:href="#DejaVuSerif-32"/>
      </g>
     </g>
    </g>
    <g id="ytick_9">
     <g id="line2d_50">
      <path d="M 505.411791 229.525714 
L 884.87125 229.525714 
" clip-path="url(#p9ee479e1b2)" style="fill: none; stroke: #b0b0b0; stroke-opacity: 0.15; stroke-width: 0.8; stroke-linecap: square"/>
     </g>
     <g id="line2d_51">
      <g>
       <use xlink:href="#m17b3080ba3" x="505.411791" y="229.525714" style="stroke: #000000; stroke-width: 0.8"/>
      </g>
     </g>
     <g id="text_29">
      <!-- 4 -->
      <g transform="translate(490.140541 234.464699) scale(0.13 -0.13)">
       <use xlink:href="#DejaVuSerif-34"/>
      </g>
     </g>
    </g>
    <g id="ytick_10">
     <g id="line2d_52">
      <path d="M 505.411791 186.531429 
L 884.87125 186.531429 
" clip-path="url(#p9ee479e1b2)" style="fill: none; stroke: #b0b0b0; stroke-opacity: 0.15; stroke-width: 0.8; stroke-linecap: square"/>
     </g>
     <g id="line2d_53">
      <g>
       <use xlink:href="#m17b3080ba3" x="505.411791" y="186.531429" style="stroke: #000000; stroke-width: 0.8"/>
      </g>
     </g>
     <g id="text_30">
      <!-- 6 -->
      <g transform="translate(490.140541 191.470413) scale(0.13 -0.13)">
       <defs>
        <path id="DejaVuSerif-36" d="M 2094 219 
Q 2534 219 2771 542 
Q 3009 866 3009 1472 
Q 3009 2078 2771 2401 
Q 2534 2725 2094 2725 
Q 1647 2725 1412 2412 
Q 1178 2100 1178 1509 
Q 1178 888 1415 553 
Q 1653 219 2094 219 
z
M 1075 2569 
Q 1288 2803 1556 2918 
Q 1825 3034 2163 3034 
Q 2859 3034 3264 2615 
Q 3669 2197 3669 1472 
Q 3669 763 3233 336 
Q 2797 -91 2069 -91 
Q 1278 -91 853 498 
Q 428 1088 428 2181 
Q 428 3406 931 4078 
Q 1434 4750 2350 4750 
Q 2597 4750 2869 4703 
Q 3141 4656 3425 4563 
L 3425 3794 
L 3072 3794 
Q 3034 4109 2831 4275 
Q 2628 4441 2284 4441 
Q 1678 4441 1381 3981 
Q 1084 3522 1075 2569 
z
" transform="scale(0.015625)"/>
       </defs>
       <use xlink:href="#DejaVuSerif-36"/>
      </g>
     </g>
    </g>
    <g id="ytick_11">
     <g id="line2d_54">
      <path d="M 505.411791 143.537143 
L 884.87125 143.537143 
" clip-path="url(#p9ee479e1b2)" style="fill: none; stroke: #b0b0b0; stroke-opacity: 0.15; stroke-width: 0.8; stroke-linecap: square"/>
     </g>
     <g id="line2d_55">
      <g>
       <use xlink:href="#m17b3080ba3" x="505.411791" y="143.537143" style="stroke: #000000; stroke-width: 0.8"/>
      </g>
     </g>
     <g id="text_31">
      <!-- 8 -->
      <g transform="translate(490.140541 148.476127) scale(0.13 -0.13)">
       <defs>
        <path id="DejaVuSerif-38" d="M 2981 1275 
Q 2981 1775 2732 2051 
Q 2484 2328 2034 2328 
Q 1584 2328 1336 2051 
Q 1088 1775 1088 1275 
Q 1088 772 1336 495 
Q 1584 219 2034 219 
Q 2484 219 2732 495 
Q 2981 772 2981 1275 
z
M 2853 3541 
Q 2853 3966 2637 4203 
Q 2422 4441 2034 4441 
Q 1650 4441 1433 4203 
Q 1216 3966 1216 3541 
Q 1216 3113 1433 2875 
Q 1650 2638 2034 2638 
Q 2422 2638 2637 2875 
Q 2853 3113 2853 3541 
z
M 2516 2484 
Q 3047 2413 3344 2092 
Q 3641 1772 3641 1275 
Q 3641 619 3225 264 
Q 2809 -91 2034 -91 
Q 1263 -91 845 264 
Q 428 619 428 1275 
Q 428 1772 725 2092 
Q 1022 2413 1556 2484 
Q 1084 2569 832 2842 
Q 581 3116 581 3541 
Q 581 4103 968 4426 
Q 1356 4750 2034 4750 
Q 2713 4750 3100 4426 
Q 3488 4103 3488 3541 
Q 3488 3116 3236 2842 
Q 2984 2569 2516 2484 
z
" transform="scale(0.015625)"/>
       </defs>
       <use xlink:href="#DejaVuSerif-38"/>
      </g>
     </g>
    </g>
    <g id="ytick_12">
     <g id="line2d_56">
      <path d="M 505.411791 100.542857 
L 884.87125 100.542857 
" clip-path="url(#p9ee479e1b2)" style="fill: none; stroke: #b0b0b0; stroke-opacity: 0.15; stroke-width: 0.8; stroke-linecap: square"/>
     </g>
     <g id="line2d_57">
      <g>
       <use xlink:href="#m17b3080ba3" x="505.411791" y="100.542857" style="stroke: #000000; stroke-width: 0.8"/>
      </g>
     </g>
     <g id="text_32">
      <!-- 10 -->
      <g transform="translate(481.869291 105.481842) scale(0.13 -0.13)">
       <use xlink:href="#DejaVuSerif-31"/>
       <use xlink:href="#DejaVuSerif-30" transform="translate(63.623047 0)"/>
      </g>
     </g>
    </g>
    <g id="ytick_13">
     <g id="line2d_58">
      <path d="M 505.411791 57.548571 
L 884.87125 57.548571 
" clip-path="url(#p9ee479e1b2)" style="fill: none; stroke: #b0b0b0; stroke-opacity: 0.15; stroke-width: 0.8; stroke-linecap: square"/>
     </g>
     <g id="line2d_59">
      <g>
       <use xlink:href="#m17b3080ba3" x="505.411791" y="57.548571" style="stroke: #000000; stroke-width: 0.8"/>
      </g>
     </g>
     <g id="text_33">
      <!-- 12 -->
      <g transform="translate(481.869291 62.487556) scale(0.13 -0.13)">
       <use xlink:href="#DejaVuSerif-31"/>
       <use xlink:href="#DejaVuSerif-32" transform="translate(63.623047 0)"/>
      </g>
     </g>
    </g>
    <g id="text_34">
     <!-- $\varphi(x)$ -->
     <g transform="translate(473.869291 213.36) rotate(-90) scale(0.16 -0.16)">
      <use xlink:href="#Cmmi10-27"/>
      <use xlink:href="#Cmr10-28" transform="translate(65.380859 0)"/>
      <use xlink:href="#Cmmi10-78" transform="translate(104.199219 0)"/>
      <use xlink:href="#Cmr10-29" transform="translate(161.279297 0)"/>
     </g>
    </g>
   </g>
   <g id="line2d_60">
    <path d="M 505.411791 315.514286 
L 695.33144 315.406692 
L 884.87125 208.028571 
L 884.87125 208.028571 
" clip-path="url(#p9ee479e1b2)" style="fill: none; stroke-dasharray: 7.4,3.2; stroke-dashoffset: 0; stroke: #000000; stroke-width: 2"/>
   </g>
   <g id="line2d_61">
    <path d="M 505.411791 210.715155 
L 884.87125 205.341988 
L 884.87125 205.341988 
" clip-path="url(#p9ee479e1b2)" style="fill: none; stroke: #0072bd; stroke-width: 2.5; stroke-linecap: square"/>
   </g>
   <g id="line2d_62">
    <path d="M 505.411791 234.353829 
L 558.589292 227.162428 
L 622.402295 218.2992 
L 739.392799 201.768354 
L 819.91873 190.513906 
L 877.654303 182.666351 
L 884.87125 181.703314 
L 884.87125 181.703314 
" clip-path="url(#p9ee479e1b2)" style="fill: none; stroke: #d95319; stroke-width: 2.5; stroke-linecap: square"/>
   </g>
   <g id="line2d_63">
    <path d="M 505.411791 314.075514 
L 519.465845 313.436787 
L 531.240863 312.690821 
L 541.496524 311.829666 
L 550.612667 310.850796 
L 558.969132 309.732837 
L 566.565918 308.493247 
L 573.403025 307.160926 
L 579.860293 305.682197 
L 585.937722 304.06533 
L 591.635311 302.324306 
L 596.953062 300.478851 
L 602.270812 298.397097 
L 607.208723 296.231592 
L 612.146633 293.822164 
L 617.084544 291.149156 
L 621.642616 288.431164 
L 626.200688 285.457783 
L 630.758759 282.215816 
L 635.316831 278.693793 
L 639.874902 274.882558 
L 644.432974 270.775895 
L 648.991045 266.37117 
L 653.549117 261.669944 
L 658.487028 256.249823 
L 663.424939 250.504232 
L 668.742689 243.978837 
L 674.440278 236.641593 
L 681.277386 227.448792 
L 689.63385 215.81542 
L 710.904851 186.018575 
L 717.741959 176.933384 
L 723.439548 169.709697 
L 728.757298 163.305822 
L 733.695209 157.683157 
L 738.63312 152.392613 
L 743.191192 147.814446 
L 747.749263 143.533978 
L 752.307335 139.55095 
L 756.865406 135.861159 
L 761.423478 132.457085 
L 765.981549 129.328535 
L 770.539621 126.46325 
L 775.097693 123.847472 
L 780.035604 121.278153 
L 784.973514 118.964874 
L 789.911425 116.887952 
L 795.229175 114.893287 
L 800.926765 113.008551 
L 806.624354 111.358006 
L 812.701783 109.826565 
L 819.159051 108.427141 
L 825.996159 107.167237 
L 833.592945 105.995842 
L 841.949409 104.940063 
L 851.065552 104.016164 
L 861.321213 103.203773 
L 873.096232 102.500357 
L 884.87125 101.981629 
L 884.87125 101.981629 
" clip-path="url(#p9ee479e1b2)" style="fill: none; stroke: #edb120; stroke-width: 2.5; stroke-linecap: square"/>
   </g>
   <g id="line2d_64">
    <path d="M 505.411791 315.514286 
L 666.083814 315.412778 
L 670.641886 315.177235 
L 673.300761 314.836152 
L 675.199957 314.397959 
L 676.719314 313.852505 
L 678.238671 313.043611 
L 679.378189 312.191598 
L 680.517707 311.051938 
L 681.657225 309.53243 
L 682.796743 307.515164 
L 683.936261 304.852319 
L 685.075779 301.36364 
L 686.215297 296.837788 
L 687.354815 291.040821 
L 688.494333 283.735836 
L 689.63385 274.717376 
L 690.773368 263.861191 
L 692.292726 246.582034 
L 694.191922 221.407984 
L 697.990315 169.475109 
L 699.509672 152.195952 
L 700.64919 141.339767 
L 701.788708 132.321307 
L 702.928226 125.016322 
L 704.067744 119.219355 
L 705.207262 114.693503 
L 706.34678 111.204824 
L 707.486297 108.541979 
L 708.625815 106.524713 
L 709.765333 105.005204 
L 710.904851 103.865544 
L 712.044369 103.013531 
L 713.563726 102.204638 
L 715.083083 101.659184 
L 716.98228 101.220991 
L 719.641155 100.879908 
L 723.439548 100.66685 
L 730.276655 100.563326 
L 755.725888 100.542882 
L 884.87125 100.542857 
L 884.87125 100.542857 
" clip-path="url(#p9ee479e1b2)" style="fill: none; stroke: #7e2f8e; stroke-width: 2.5; stroke-linecap: square"/>
   </g>
   <g id="line2d_65">
    <path d="M 505.411791 100.542857 
L 884.87125 100.542857 
" clip-path="url(#p9ee479e1b2)" style="fill: none; stroke-dasharray: 1,1.65; stroke-dashoffset: 0; stroke: #666666"/>
   </g>
   <g id="line2d_66">
    <path d="M 505.411791 315.514286 
L 884.87125 315.514286 
" clip-path="url(#p9ee479e1b2)" style="fill: none; stroke: #808080; stroke-width: 0.5; stroke-linecap: square"/>
   </g>
   <g id="line2d_67">
    <path d="M 695.14152 347.76 
L 695.14152 46.8 
" clip-path="url(#p9ee479e1b2)" style="fill: none; stroke: #808080; stroke-width: 0.5; stroke-linecap: square"/>
   </g>
   <g id="patch_7">
    <path d="M 505.411791 347.76 
L 505.411791 46.8 
" style="fill: none; stroke: #000000; stroke-width: 0.8; stroke-linejoin: miter; stroke-linecap: square"/>
   </g>
   <g id="patch_8">
    <path d="M 505.411791 347.76 
L 884.87125 347.76 
" style="fill: none; stroke: #000000; stroke-width: 0.8; stroke-linejoin: miter; stroke-linecap: square"/>
   </g>
   <g id="text_35">
    <!-- $\beta = 10$ -->
    <g style="fill: #666666" transform="translate(842.692872 89.864312) scale(0.1 -0.1)">
     <use xlink:href="#Cmmi10-af" transform="translate(0 0.484375)"/>
     <use xlink:href="#Cmr10-3d" transform="translate(74.052734 0.484375)"/>
     <use xlink:href="#Cmr10-31" transform="translate(169.296875 0.484375)"/>
     <use xlink:href="#Cmr10-30" transform="translate(219.296875 0.484375)"/>
    </g>
   </g>
   <g id="text_36">
    <!-- $\beta = 10$ -->
    <g transform="translate(676.24152 40.8) scale(0.14 -0.14)">
     <use xlink:href="#Cmmi10-af" transform="translate(0 0.484375)"/>
     <use xlink:href="#Cmr10-3d" transform="translate(74.052734 0.484375)"/>
     <use xlink:href="#Cmr10-31" transform="translate(169.296875 0.484375)"/>
     <use xlink:href="#Cmr10-30" transform="translate(219.296875 0.484375)"/>
    </g>
   </g>
   <g id="legend_2">
    <g id="patch_9">
     <path d="M 513.111791 136.792031 
L 594.071791 136.792031 
Q 596.271791 136.792031 596.271791 134.592031 
L 596.271791 54.5 
Q 596.271791 52.3 594.071791 52.3 
L 513.111791 52.3 
Q 510.911791 52.3 510.911791 54.5 
L 510.911791 134.592031 
Q 510.911791 136.792031 513.111791 136.792031 
z
" style="fill: #ffffff; opacity: 0.95; stroke: #bfbfbf; stroke-linejoin: miter"/>
    </g>
    <g id="line2d_68">
     <path d="M 515.311791 61.208281 
L 526.311791 61.208281 
L 537.311791 61.208281 
" style="fill: none; stroke-dasharray: 7.4,3.2; stroke-dashoffset: 0; stroke: #000000; stroke-width: 2"/>
    </g>
    <g id="text_37">
     <!-- $\max(0,x)$ -->
     <g transform="translate(546.111791 65.058281) scale(0.11 -0.11)">
      <use xlink:href="#Cmr10-6d"/>
      <use xlink:href="#Cmr10-61" transform="translate(83.300781 0)"/>
      <use xlink:href="#Cmr10-78" transform="translate(133.300781 0)"/>
      <use xlink:href="#Cmr10-28" transform="translate(185.986328 0)"/>
      <use xlink:href="#Cmr10-30" transform="translate(224.804688 0)"/>
      <use xlink:href="#Cmmi10-3b" transform="translate(274.804688 0)"/>
      <use xlink:href="#Cmmi10-78" transform="translate(320.048828 0)"/>
      <use xlink:href="#Cmr10-29" transform="translate(377.128906 0)"/>
     </g>
    </g>
    <g id="line2d_69">
     <path d="M 515.311791 77.816562 
L 526.311791 77.816562 
L 537.311791 77.816562 
" style="fill: none; stroke: #0072bd; stroke-width: 2.5; stroke-linecap: square"/>
    </g>
    <g id="text_38">
     <!-- $\alpha = 0.01$ -->
     <g transform="translate(546.111791 81.666562) scale(0.11 -0.11)">
      <use xlink:href="#Cmmi10-ae" transform="translate(0 0.390625)"/>
      <use xlink:href="#Cmr10-3d" transform="translate(81.474609 0.390625)"/>
      <use xlink:href="#Cmr10-30" transform="translate(176.71875 0.390625)"/>
      <use xlink:href="#Cmmi10-3a" transform="translate(226.71875 0.390625)"/>
      <use xlink:href="#Cmr10-30" transform="translate(254.404297 0.390625)"/>
      <use xlink:href="#Cmr10-31" transform="translate(304.404297 0.390625)"/>
     </g>
    </g>
    <g id="line2d_70">
     <path d="M 515.311791 93.9625 
L 526.311791 93.9625 
L 537.311791 93.9625 
" style="fill: none; stroke: #d95319; stroke-width: 2.5; stroke-linecap: square"/>
    </g>
    <g id="text_39">
     <!-- $\alpha = 0.1$ -->
     <g transform="translate(546.111791 97.8125) scale(0.11 -0.11)">
      <use xlink:href="#Cmmi10-ae" transform="translate(0 0.390625)"/>
      <use xlink:href="#Cmr10-3d" transform="translate(81.474609 0.390625)"/>
      <use xlink:href="#Cmr10-30" transform="translate(176.71875 0.390625)"/>
      <use xlink:href="#Cmmi10-3a" transform="translate(226.71875 0.390625)"/>
      <use xlink:href="#Cmr10-31" transform="translate(254.404297 0.390625)"/>
     </g>
    </g>
    <g id="line2d_71">
     <path d="M 515.311791 110.108437 
L 526.311791 110.108437 
L 537.311791 110.108437 
" style="fill: none; stroke: #edb120; stroke-width: 2.5; stroke-linecap: square"/>
    </g>
    <g id="text_40">
     <!-- $\alpha = 1.0$ -->
     <g transform="translate(546.111791 113.958437) scale(0.11 -0.11)">
      <use xlink:href="#Cmmi10-ae" transform="translate(0 0.390625)"/>
      <use xlink:href="#Cmr10-3d" transform="translate(81.474609 0.390625)"/>
      <use xlink:href="#Cmr10-31" transform="translate(176.71875 0.390625)"/>
      <use xlink:href="#Cmmi10-3a" transform="translate(226.71875 0.390625)"/>
      <use xlink:href="#Cmr10-30" transform="translate(254.404297 0.390625)"/>
     </g>
    </g>
    <g id="line2d_72">
     <path d="M 515.311791 126.254375 
L 526.311791 126.254375 
L 537.311791 126.254375 
" style="fill: none; stroke: #7e2f8e; stroke-width: 2.5; stroke-linecap: square"/>
    </g>
    <g id="text_41">
     <!-- $\alpha = 10.0$ -->
     <g transform="translate(546.111791 130.104375) scale(0.11 -0.11)">
      <use xlink:href="#Cmmi10-ae" transform="translate(0 0.390625)"/>
      <use xlink:href="#Cmr10-3d" transform="translate(81.474609 0.390625)"/>
      <use xlink:href="#Cmr10-31" transform="translate(176.71875 0.390625)"/>
      <use xlink:href="#Cmr10-30" transform="translate(226.71875 0.390625)"/>
      <use xlink:href="#Cmmi10-3a" transform="translate(276.71875 0.390625)"/>
      <use xlink:href="#Cmr10-30" transform="translate(304.404297 0.390625)"/>
     </g>
    </g>
   </g>
  </g>
  <g id="text_42">
   <!-- $\varphi(x) = \beta\, e^{\alpha x}\!/\!\left(1 + e^{\alpha x}\right)$ -->
   <g transform="translate(367.09125 19.95) scale(0.17 -0.17)">
    <defs>
     <path id="Cmmi10-65" d="M 1288 -72 
Q 981 -72 751 87 
Q 522 247 401 517 
Q 281 788 281 1088 
Q 281 1544 511 1945 
Q 741 2347 1134 2587 
Q 1528 2828 1978 2828 
Q 2253 2828 2458 2686 
Q 2663 2544 2663 2278 
Q 2663 1909 2369 1729 
Q 2075 1550 1706 1508 
Q 1338 1466 891 1466 
L 872 1466 
Q 769 1084 769 813 
Q 769 528 900 312 
Q 1031 97 1300 97 
Q 1681 97 2032 272 
Q 2384 447 2606 756 
Q 2625 775 2656 775 
Q 2688 775 2720 739 
Q 2753 703 2753 672 
Q 2753 647 2741 634 
Q 2506 306 2109 117 
Q 1713 -72 1288 -72 
z
M 909 1631 
Q 1281 1631 1597 1665 
Q 1913 1700 2169 1839 
Q 2425 1978 2425 2272 
Q 2425 2391 2359 2480 
Q 2294 2569 2189 2616 
Q 2084 2663 1972 2663 
Q 1700 2663 1483 2516 
Q 1266 2369 1125 2133 
Q 984 1897 909 1631 
z
" transform="scale(0.015625)"/>
     <path id="Cmmi10-3d" d="M 359 -1472 
Q 359 -1453 366 -1447 
L 2591 4722 
Q 2603 4759 2634 4779 
Q 2666 4800 2706 4800 
Q 2763 4800 2798 4765 
Q 2834 4731 2834 4672 
L 2834 4647 
L 609 -1522 
Q 572 -1600 488 -1600 
Q 434 -1600 396 -1562 
Q 359 -1525 359 -1472 
z
" transform="scale(0.015625)"/>
     <path id="Cmr10-2b" d="M 481 1472 
Q 428 1472 393 1512 
Q 359 1553 359 1600 
Q 359 1647 393 1687 
Q 428 1728 481 1728 
L 2363 1728 
L 2363 3616 
Q 2363 3666 2400 3698 
Q 2438 3731 2491 3731 
Q 2538 3731 2578 3698 
Q 2619 3666 2619 3616 
L 2619 1728 
L 4500 1728 
Q 4547 1728 4581 1687 
Q 4616 1647 4616 1600 
Q 4616 1553 4581 1512 
Q 4547 1472 4500 1472 
L 2619 1472 
L 2619 -416 
Q 2619 -466 2578 -498 
Q 2538 -531 2491 -531 
Q 2438 -531 2400 -498 
Q 2363 -466 2363 -416 
L 2363 1472 
L 481 1472 
z
" transform="scale(0.015625)"/>
    </defs>
    <use xlink:href="#Cmmi10-27"/>
    <use xlink:href="#Cmr10-28" transform="translate(65.380859 0)"/>
    <use xlink:href="#Cmmi10-78" transform="translate(104.199219 0)"/>
    <use xlink:href="#Cmr10-29" transform="translate(161.279297 0)"/>
    <use xlink:href="#Cmr10-3d" transform="translate(217.65625 0)"/>
    <use xlink:href="#Cmmi10-af" transform="translate(312.900391 0)"/>
    <use xlink:href="#Cmmi10-65" transform="translate(384.026985 0)"/>
    <use xlink:href="#Cmmi10-ae" transform="translate(436.814642 38.264063) scale(0.7)"/>
    <use xlink:href="#Cmmi10-78" transform="translate(481.555853 38.264063) scale(0.7)"/>
    <use xlink:href="#Cmmi10-3d" transform="translate(513.256797 0)"/>
    <use xlink:href="#Cmr10-28" transform="translate(548.624343 11.078125) scale(0.774922)"/>
    <use xlink:href="#Cmr10-31" transform="translate(578.702498 0)"/>
    <use xlink:href="#Cmr10-2b" transform="translate(646.261092 0)"/>
    <use xlink:href="#Cmmi10-65" transform="translate(741.505233 0)"/>
    <use xlink:href="#Cmmi10-ae" transform="translate(794.292889 38.264063) scale(0.7)"/>
    <use xlink:href="#Cmmi10-78" transform="translate(839.0341 38.264063) scale(0.7)"/>
    <use xlink:href="#Cmr10-29" transform="translate(885.367498 11.078125) scale(0.774922)"/>
   </g>
  </g>
 </g>
 <defs>
  <clipPath id="pda7dc3291d">
   <rect x="42.47125" y="46.8" width="379.459459" height="300.96"/>
  </clipPath>
  <clipPath id="p9ee479e1b2">
   <rect x="505.411791" y="46.8" width="379.459459" height="300.96"/>
  </clipPath>
 </defs>
</svg>
