<?xml version="1.0" encoding="utf-8" standalone="no"?>
<!DOCTYPE svg PUBLIC "-//W3C//DTD SVG 1.1//EN"
  "http://www.w3.org/Graphics/SVG/1.1/DTD/svg11.dtd">
<svg xmlns:xlink="http://www.w3.org/1999/xlink" width="677.1425pt" height="332.906562pt" viewBox="0 0 677.1425 332.906562" xmlns="http://www.w3.org/2000/svg" version="1.1">
 <metadata>
  <rdf:RDF xmlns:dc="http://purl.org/dc/elements/1.1/" xmlns:cc="http://creativecommons.org/ns#" xmlns:rdf="http://www.w3.org/1999/02/22-rdf-syntax-ns#">
   <cc:Work>
    <dc:type rdf:resource="http://purl.org/dc/dcmitype/StillImage"/>
    <dc:date>2026-06-11T06:12:54.572584</dc:date>
    <dc:format>image/svg+xml</dc:format>
    <dc:creator>
     <cc:Agent>
      <dc:title>Matplotlib v3.10.8, https://matplotlib.org/</dc:title>
     </cc:Agent>
    </dc:creator>
   </cc:Work>
  </rdf:RDF>
 </metadata>
 <defs>
  <style type="text/css">*{stroke-linejoin: round; stroke-linecap: butt}</style>
 </defs>
 <g id="figure_1">
  <g id="patch_1">
   <path d="M 0 332.906562 
L 677.1425 332.906562 
L 677.1425 0 
L 0 0 
z
" style="fill: #ffffff"/>
  </g>
  <g id="axes_1">
   <g id="patch_2">
    <path d="M 42.47125 286.64 
L 661.67125 286.64 
L 661.67125 23.84 
L 42.47125 23.84 
z
" style="fill: #ffffff"/>
   </g>
   <g id="matplotlib.axis_1">
    <g id="xtick_1">
     <g id="line2d_1">
      <path d="M 42.47125 286.64 
L 42.47125 23.84 
" clip-path="url(#pdddbd32b2b)" style="fill: none; stroke: #b0b0b0; stroke-opacity: 0.15; stroke-width: 0.8; stroke-linecap: square"/>
     </g>
     <g id="line2d_2">
      <defs>
       <path id="mc1b6dfd103" d="M 0 0 
L 0 3.5 
" style="stroke: #000000; stroke-width: 0.8"/>
      </defs>
      <g>
       <use xlink:href="#mc1b6dfd103" x="42.47125" y="286.64" style="stroke: #000000; stroke-width: 0.8"/>
      </g>
     </g>
     <g id="text_1">
      <!-- 0 -->
      <g transform="translate(38.335625 303.517969) scale(0.13 -0.13)">
       <defs>
        <path id="DejaVuSerif-30" d="M 2034 219 
Q 2513 219 2750 744 
Q 2988 1269 2988 2328 
Q 2988 3391 2750 3916 
Q 2513 4441 2034 4441 
Q 1556 4441 1318 3916 
Q 1081 3391 1081 2328 
Q 1081 1269 1318 744 
Q 1556 219 2034 219 
z
M 2034 -91 
Q 1275 -91 848 546 
Q 422 1184 422 2328 
Q 422 3475 848 4112 
Q 1275 4750 2034 4750 
Q 2797 4750 3222 4112 
Q 3647 3475 3647 2328 
Q 3647 1184 3222 546 
Q 2797 -91 2034 -91 
z
" transform="scale(0.015625)"/>
       </defs>
       <use xlink:href="#DejaVuSerif-30"/>
      </g>
     </g>
    </g>
    <g id="xtick_2">
     <g id="line2d_3">
      <path d="M 119.87125 286.64 
L 119.87125 23.84 
" clip-path="url(#pdddbd32b2b)" style="fill: none; stroke: #b0b0b0; stroke-opacity: 0.15; stroke-width: 0.8; stroke-linecap: square"/>
     </g>
     <g id="line2d_4">
      <g>
       <use xlink:href="#mc1b6dfd103" x="119.87125" y="286.64" style="stroke: #000000; stroke-width: 0.8"/>
      </g>
     </g>
     <g id="text_2">
      <!-- 10 -->
      <g transform="translate(111.6 303.517969) scale(0.13 -0.13)">
       <defs>
        <path id="DejaVuSerif-31" d="M 909 0 
L 909 331 
L 1722 331 
L 1722 4213 
L 781 3603 
L 781 4013 
L 1919 4750 
L 2350 4750 
L 2350 331 
L 3163 331 
L 3163 0 
L 909 0 
z
" transform="scale(0.015625)"/>
       </defs>
       <use xlink:href="#DejaVuSerif-31"/>
       <use xlink:href="#DejaVuSerif-30" transform="translate(63.623047 0)"/>
      </g>
     </g>
    </g>
    <g id="xtick_3">
     <g id="line2d_5">
      <path d="M 197.27125 286.64 
L 197.27125 23.84 
" clip-path="url(#pdddbd32b2b)" style="fill: none; stroke: #b0b0b0; stroke-opacity: 0.15; stroke-width: 0.8; stroke-linecap: square"/>
     </g>
     <g id="line2d_6">
      <g>
       <use xlink:href="#mc1b6dfd103" x="197.27125" y="286.64" style="stroke: #000000; stroke-width: 0.8"/>
      </g>
     </g>
     <g id="text_3">
      <!-- 20 -->
      <g transform="translate(189 303.517969) scale(0.13 -0.13)">
       <defs>
        <path id="DejaVuSerif-32" d="M 819 3553 
L 469 3553 
L 469 4384 
Q 803 4563 1142 4656 
Q 1481 4750 1806 4750 
Q 2534 4750 2956 4397 
Q 3378 4044 3378 3438 
Q 3378 2753 2422 1800 
Q 2347 1728 2309 1691 
L 1131 513 
L 3078 513 
L 3078 1088 
L 3444 1088 
L 3444 0 
L 434 0 
L 434 341 
L 1850 1753 
Q 2319 2222 2519 2614 
Q 2719 3006 2719 3438 
Q 2719 3909 2473 4175 
Q 2228 4441 1797 4441 
Q 1350 4441 1106 4219 
Q 863 3997 819 3553 
z
" transform="scale(0.015625)"/>
       </defs>
       <use xlink:href="#DejaVuSerif-32"/>
       <use xlink:href="#DejaVuSerif-30" transform="translate(63.623047 0)"/>
      </g>
     </g>
    </g>
    <g id="xtick_4">
     <g id="line2d_7">
      <path d="M 274.67125 286.64 
L 274.67125 23.84 
" clip-path="url(#pdddbd32b2b)" style="fill: none; stroke: #b0b0b0; stroke-opacity: 0.15; stroke-width: 0.8; stroke-linecap: square"/>
     </g>
     <g id="line2d_8">
      <g>
       <use xlink:href="#mc1b6dfd103" x="274.67125" y="286.64" style="stroke: #000000; stroke-width: 0.8"/>
      </g>
     </g>
     <g id="text_4">
      <!-- 30 -->
      <g transform="translate(266.4 303.517969) scale(0.13 -0.13)">
       <defs>
        <path id="DejaVuSerif-33" d="M 622 4469 
Q 988 4606 1323 4678 
Q 1659 4750 1953 4750 
Q 2638 4750 3022 4454 
Q 3406 4159 3406 3634 
Q 3406 3213 3140 2930 
Q 2875 2647 2388 2547 
Q 2963 2466 3280 2130 
Q 3597 1794 3597 1259 
Q 3597 606 3158 257 
Q 2719 -91 1894 -91 
Q 1528 -91 1179 -12 
Q 831 66 488 225 
L 488 1131 
L 838 1131 
Q 869 681 1141 450 
Q 1413 219 1906 219 
Q 2384 219 2661 495 
Q 2938 772 2938 1253 
Q 2938 1803 2653 2086 
Q 2369 2369 1819 2369 
L 1522 2369 
L 1522 2688 
L 1678 2688 
Q 2225 2688 2498 2914 
Q 2772 3141 2772 3597 
Q 2772 4006 2547 4223 
Q 2322 4441 1900 4441 
Q 1478 4441 1245 4241 
Q 1013 4041 972 3647 
L 622 3647 
L 622 4469 
z
" transform="scale(0.015625)"/>
       </defs>
       <use xlink:href="#DejaVuSerif-33"/>
       <use xlink:href="#DejaVuSerif-30" transform="translate(63.623047 0)"/>
      </g>
     </g>
    </g>
    <g id="xtick_5">
     <g id="line2d_9">
      <path d="M 352.07125 286.64 
L 352.07125 23.84 
" clip-path="url(#pdddbd32b2b)" style="fill: none; stroke: #b0b0b0; stroke-opacity: 0.15; stroke-width: 0.8; stroke-linecap: square"/>
     </g>
     <g id="line2d_10">
      <g>
       <use xlink:href="#mc1b6dfd103" x="352.07125" y="286.64" style="stroke: #000000; stroke-width: 0.8"/>
      </g>
     </g>
     <g id="text_5">
      <!-- 40 -->
      <g transform="translate(343.8 303.517969) scale(0.13 -0.13)">
       <defs>
        <path id="DejaVuSerif-34" d="M 2234 1581 
L 2234 4063 
L 641 1581 
L 2234 1581 
z
M 3609 0 
L 1484 0 
L 1484 331 
L 2234 331 
L 2234 1247 
L 197 1247 
L 197 1588 
L 2241 4750 
L 2859 4750 
L 2859 1581 
L 3750 1581 
L 3750 1247 
L 2859 1247 
L 2859 331 
L 3609 331 
L 3609 0 
z
" transform="scale(0.015625)"/>
       </defs>
       <use xlink:href="#DejaVuSerif-34"/>
       <use xlink:href="#DejaVuSerif-30" transform="translate(63.623047 0)"/>
      </g>
     </g>
    </g>
    <g id="xtick_6">
     <g id="line2d_11">
      <path d="M 429.47125 286.64 
L 429.47125 23.84 
" clip-path="url(#pdddbd32b2b)" style="fill: none; stroke: #b0b0b0; stroke-opacity: 0.15; stroke-width: 0.8; stroke-linecap: square"/>
     </g>
     <g id="line2d_12">
      <g>
       <use xlink:href="#mc1b6dfd103" x="429.47125" y="286.64" style="stroke: #000000; stroke-width: 0.8"/>
      </g>
     </g>
     <g id="text_6">
      <!-- 50 -->
      <g transform="translate(421.2 303.517969) scale(0.13 -0.13)">
       <defs>
        <path id="DejaVuSerif-35" d="M 3219 4666 
L 3219 4153 
L 1081 4153 
L 1081 2816 
Q 1244 2928 1461 2984 
Q 1678 3041 1947 3041 
Q 2703 3041 3140 2622 
Q 3578 2203 3578 1478 
Q 3578 738 3136 323 
Q 2694 -91 1894 -91 
Q 1572 -91 1234 -12 
Q 897 66 544 225 
L 544 1131 
L 897 1131 
Q 925 688 1179 453 
Q 1434 219 1894 219 
Q 2388 219 2653 544 
Q 2919 869 2919 1478 
Q 2919 2084 2655 2407 
Q 2391 2731 1894 2731 
Q 1613 2731 1398 2631 
Q 1184 2531 1019 2322 
L 750 2322 
L 750 4666 
L 3219 4666 
z
" transform="scale(0.015625)"/>
       </defs>
       <use xlink:href="#DejaVuSerif-35"/>
       <use xlink:href="#DejaVuSerif-30" transform="translate(63.623047 0)"/>
      </g>
     </g>
    </g>
    <g id="xtick_7">
     <g id="line2d_13">
      <path d="M 506.87125 286.64 
L 506.87125 23.84 
" clip-path="url(#pdddbd32b2b)" style="fill: none; stroke: #b0b0b0; stroke-opacity: 0.15; stroke-width: 0.8; stroke-linecap: square"/>
     </g>
     <g id="line2d_14">
      <g>
       <use xlink:href="#mc1b6dfd103" x="506.87125" y="286.64" style="stroke: #000000; stroke-width: 0.8"/>
      </g>
     </g>
     <g id="text_7">
      <!-- 60 -->
      <g transform="translate(498.6 303.517969) scale(0.13 -0.13)">
       <defs>
        <path id="DejaVuSerif-36" d="M 2094 219 
Q 2534 219 2771 542 
Q 3009 866 3009 1472 
Q 3009 2078 2771 2401 
Q 2534 2725 2094 2725 
Q 1647 2725 1412 2412 
Q 1178 2100 1178 1509 
Q 1178 888 1415 553 
Q 1653 219 2094 219 
z
M 1075 2569 
Q 1288 2803 1556 2918 
Q 1825 3034 2163 3034 
Q 2859 3034 3264 2615 
Q 3669 2197 3669 1472 
Q 3669 763 3233 336 
Q 2797 -91 2069 -91 
Q 1278 -91 853 498 
Q 428 1088 428 2181 
Q 428 3406 931 4078 
Q 1434 4750 2350 4750 
Q 2597 4750 2869 4703 
Q 3141 4656 3425 4563 
L 3425 3794 
L 3072 3794 
Q 3034 4109 2831 4275 
Q 2628 4441 2284 4441 
Q 1678 4441 1381 3981 
Q 1084 3522 1075 2569 
z
" transform="scale(0.015625)"/>
       </defs>
       <use xlink:href="#DejaVuSerif-36"/>
       <use xlink:href="#DejaVuSerif-30" transform="translate(63.623047 0)"/>
      </g>
     </g>
    </g>
    <g id="xtick_8">
     <g id="line2d_15">
      <path d="M 584.27125 286.64 
L 584.27125 23.84 
" clip-path="url(#pdddbd32b2b)" style="fill: none; stroke: #b0b0b0; stroke-opacity: 0.15; stroke-width: 0.8; stroke-linecap: square"/>
     </g>
     <g id="line2d_16">
      <g>
       <use xlink:href="#mc1b6dfd103" x="584.27125" y="286.64" style="stroke: #000000; stroke-width: 0.8"/>
      </g>
     </g>
     <g id="text_8">
      <!-- 70 -->
      <g transform="translate(576 303.517969) scale(0.13 -0.13)">
       <defs>
        <path id="DejaVuSerif-37" d="M 3609 4347 
L 1784 0 
L 1319 0 
L 3059 4153 
L 903 4153 
L 903 3578 
L 538 3578 
L 538 4666 
L 3609 4666 
L 3609 4347 
z
" transform="scale(0.015625)"/>
       </defs>
       <use xlink:href="#DejaVuSerif-37"/>
       <use xlink:href="#DejaVuSerif-30" transform="translate(63.623047 0)"/>
      </g>
     </g>
    </g>
    <g id="xtick_9">
     <g id="line2d_17">
      <path d="M 661.67125 286.64 
L 661.67125 23.84 
" clip-path="url(#pdddbd32b2b)" style="fill: none; stroke: #b0b0b0; stroke-opacity: 0.15; stroke-width: 0.8; stroke-linecap: square"/>
     </g>
     <g id="line2d_18">
      <g>
       <use xlink:href="#mc1b6dfd103" x="661.67125" y="286.64" style="stroke: #000000; stroke-width: 0.8"/>
      </g>
     </g>
     <g id="text_9">
      <!-- 80 -->
      <g transform="translate(653.4 303.517969) scale(0.13 -0.13)">
       <defs>
        <path id="DejaVuSerif-38" d="M 2981 1275 
Q 2981 1775 2732 2051 
Q 2484 2328 2034 2328 
Q 1584 2328 1336 2051 
Q 1088 1775 1088 1275 
Q 1088 772 1336 495 
Q 1584 219 2034 219 
Q 2484 219 2732 495 
Q 2981 772 2981 1275 
z
M 2853 3541 
Q 2853 3966 2637 4203 
Q 2422 4441 2034 4441 
Q 1650 4441 1433 4203 
Q 1216 3966 1216 3541 
Q 1216 3113 1433 2875 
Q 1650 2638 2034 2638 
Q 2422 2638 2637 2875 
Q 2853 3113 2853 3541 
z
M 2516 2484 
Q 3047 2413 3344 2092 
Q 3641 1772 3641 1275 
Q 3641 619 3225 264 
Q 2809 -91 2034 -91 
Q 1263 -91 845 264 
Q 428 619 428 1275 
Q 428 1772 725 2092 
Q 1022 2413 1556 2484 
Q 1084 2569 832 2842 
Q 581 3116 581 3541 
Q 581 4103 968 4426 
Q 1356 4750 2034 4750 
Q 2713 4750 3100 4426 
Q 3488 4103 3488 3541 
Q 3488 3116 3236 2842 
Q 2984 2569 2516 2484 
z
" transform="scale(0.015625)"/>
       </defs>
       <use xlink:href="#DejaVuSerif-38"/>
       <use xlink:href="#DejaVuSerif-30" transform="translate(63.623047 0)"/>
      </g>
     </g>
    </g>
    <g id="text_10">
     <!-- Time $t$ -->
     <g transform="translate(326.39125 322.379062) scale(0.16 -0.16)">
      <defs>
       <path id="DejaVuSerif-54" d="M 1222 0 
L 1222 331 
L 1819 331 
L 1819 4294 
L 447 4294 
L 447 3566 
L 63 3566 
L 63 4666 
L 4206 4666 
L 4206 3566 
L 3822 3566 
L 3822 4294 
L 2450 4294 
L 2450 331 
L 3047 331 
L 3047 0 
L 1222 0 
z
" transform="scale(0.015625)"/>
       <path id="DejaVuSerif-69" d="M 622 4353 
Q 622 4497 726 4603 
Q 831 4709 978 4709 
Q 1122 4709 1226 4603 
Q 1331 4497 1331 4353 
Q 1331 4206 1228 4103 
Q 1125 4000 978 4000 
Q 831 4000 726 4103 
Q 622 4206 622 4353 
z
M 1356 331 
L 1900 331 
L 1900 0 
L 231 0 
L 231 331 
L 781 331 
L 781 2988 
L 231 2988 
L 231 3322 
L 1356 3322 
L 1356 331 
z
" transform="scale(0.015625)"/>
       <path id="DejaVuSerif-6d" d="M 3316 2675 
Q 3481 3041 3739 3227 
Q 3997 3413 4341 3413 
Q 4863 3413 5119 3089 
Q 5375 2766 5375 2113 
L 5375 331 
L 5894 331 
L 5894 0 
L 4300 0 
L 4300 331 
L 4800 331 
L 4800 2047 
Q 4800 2556 4650 2772 
Q 4500 2988 4153 2988 
Q 3769 2988 3567 2697 
Q 3366 2406 3366 1850 
L 3366 331 
L 3866 331 
L 3866 0 
L 2291 0 
L 2291 331 
L 2791 331 
L 2791 2069 
Q 2791 2566 2641 2777 
Q 2491 2988 2144 2988 
Q 1759 2988 1557 2697 
Q 1356 2406 1356 1850 
L 1356 331 
L 1856 331 
L 1856 0 
L 263 0 
L 263 331 
L 781 331 
L 781 2994 
L 231 2994 
L 231 3322 
L 1356 3322 
L 1356 2731 
Q 1516 3063 1762 3238 
Q 2009 3413 2322 3413 
Q 2709 3413 2968 3220 
Q 3228 3028 3316 2675 
z
" transform="scale(0.015625)"/>
       <path id="DejaVuSerif-65" d="M 3469 1600 
L 991 1600 
L 991 1575 
Q 991 903 1244 561 
Q 1497 219 1991 219 
Q 2369 219 2611 417 
Q 2853 616 2950 1006 
L 3413 1006 
Q 3275 459 2904 184 
Q 2534 -91 1931 -91 
Q 1203 -91 761 389 
Q 319 869 319 1663 
Q 319 2450 753 2931 
Q 1188 3413 1894 3413 
Q 2647 3413 3050 2948 
Q 3453 2484 3469 1600 
z
M 2791 1931 
Q 2772 2513 2545 2808 
Q 2319 3103 1894 3103 
Q 1497 3103 1269 2806 
Q 1041 2509 991 1931 
L 2791 1931 
z
" transform="scale(0.015625)"/>
       <path id="DejaVuSerif-20" transform="scale(0.015625)"/>
       <path id="Cmmi10-74" d="M 397 519 
Q 397 613 416 697 
L 878 2534 
L 206 2534 
Q 141 2534 141 2619 
Q 166 2759 225 2759 
L 934 2759 
L 1191 3803 
Q 1216 3888 1291 3947 
Q 1366 4006 1459 4006 
Q 1541 4006 1595 3957 
Q 1650 3909 1650 3828 
Q 1650 3809 1648 3798 
Q 1647 3788 1644 3775 
L 1388 2759 
L 2047 2759 
Q 2113 2759 2113 2675 
Q 2109 2659 2100 2621 
Q 2091 2584 2075 2559 
Q 2059 2534 2028 2534 
L 1331 2534 
L 872 684 
Q 825 503 825 372 
Q 825 97 1013 97 
Q 1294 97 1511 361 
Q 1728 625 1844 941 
Q 1869 978 1894 978 
L 1972 978 
Q 1997 978 2012 961 
Q 2028 944 2028 922 
Q 2028 909 2022 903 
Q 1881 516 1612 222 
Q 1344 -72 997 -72 
Q 744 -72 570 93 
Q 397 259 397 519 
z
" transform="scale(0.015625)"/>
      </defs>
      <use xlink:href="#DejaVuSerif-54" transform="translate(0 0.421875)"/>
      <use xlink:href="#DejaVuSerif-69" transform="translate(66.699219 0.421875)"/>
      <use xlink:href="#DejaVuSerif-6d" transform="translate(98.681641 0.421875)"/>
      <use xlink:href="#DejaVuSerif-65" transform="translate(193.505859 0.421875)"/>
      <use xlink:href="#DejaVuSerif-20" transform="translate(252.685547 0.421875)"/>
      <use xlink:href="#Cmmi10-74" transform="translate(284.472656 0.421875)"/>
     </g>
    </g>
   </g>
   <g id="matplotlib.axis_2">
    <g id="ytick_1">
     <g id="line2d_19">
      <path d="M 42.47125 274.694545 
L 661.67125 274.694545 
" clip-path="url(#pdddbd32b2b)" style="fill: none; stroke: #b0b0b0; stroke-opacity: 0.15; stroke-width: 0.8; stroke-linecap: square"/>
     </g>
     <g id="line2d_20">
      <defs>
       <path id="m4412f63b81" d="M 0 0 
L -3.5 0 
" style="stroke: #000000; stroke-width: 0.8"/>
      </defs>
      <g>
       <use xlink:href="#m4412f63b81" x="42.47125" y="274.694545" style="stroke: #000000; stroke-width: 0.8"/>
      </g>
     </g>
     <g id="text_11">
      <!-- 0 -->
      <g transform="translate(27.2 279.63353) scale(0.13 -0.13)">
       <use xlink:href="#DejaVuSerif-30"/>
      </g>
     </g>
    </g>
    <g id="ytick_2">
     <g id="line2d_21">
      <path d="M 42.47125 234.876364 
L 661.67125 234.876364 
" clip-path="url(#pdddbd32b2b)" style="fill: none; stroke: #b0b0b0; stroke-opacity: 0.15; stroke-width: 0.8; stroke-linecap: square"/>
     </g>
     <g id="line2d_22">
      <g>
       <use xlink:href="#m4412f63b81" x="42.47125" y="234.876364" style="stroke: #000000; stroke-width: 0.8"/>
      </g>
     </g>
     <g id="text_12">
      <!-- 1 -->
      <g transform="translate(27.2 239.815348) scale(0.13 -0.13)">
       <use xlink:href="#DejaVuSerif-31"/>
      </g>
     </g>
    </g>
    <g id="ytick_3">
     <g id="line2d_23">
      <path d="M 42.47125 195.058182 
L 661.67125 195.058182 
" clip-path="url(#pdddbd32b2b)" style="fill: none; stroke: #b0b0b0; stroke-opacity: 0.15; stroke-width: 0.8; stroke-linecap: square"/>
     </g>
     <g id="line2d_24">
      <g>
       <use xlink:href="#m4412f63b81" x="42.47125" y="195.058182" style="stroke: #000000; stroke-width: 0.8"/>
      </g>
     </g>
     <g id="text_13">
      <!-- 2 -->
      <g transform="translate(27.2 199.997166) scale(0.13 -0.13)">
       <use xlink:href="#DejaVuSerif-32"/>
      </g>
     </g>
    </g>
    <g id="ytick_4">
     <g id="line2d_25">
      <path d="M 42.47125 155.24 
L 661.67125 155.24 
" clip-path="url(#pdddbd32b2b)" style="fill: none; stroke: #b0b0b0; stroke-opacity: 0.15; stroke-width: 0.8; stroke-linecap: square"/>
     </g>
     <g id="line2d_26">
      <g>
       <use xlink:href="#m4412f63b81" x="42.47125" y="155.24" style="stroke: #000000; stroke-width: 0.8"/>
      </g>
     </g>
     <g id="text_14">
      <!-- 3 -->
      <g transform="translate(27.2 160.178984) scale(0.13 -0.13)">
       <use xlink:href="#DejaVuSerif-33"/>
      </g>
     </g>
    </g>
    <g id="ytick_5">
     <g id="line2d_27">
      <path d="M 42.47125 115.421818 
L 661.67125 115.421818 
" clip-path="url(#pdddbd32b2b)" style="fill: none; stroke: #b0b0b0; stroke-opacity: 0.15; stroke-width: 0.8; stroke-linecap: square"/>
     </g>
     <g id="line2d_28">
      <g>
       <use xlink:href="#m4412f63b81" x="42.47125" y="115.421818" style="stroke: #000000; stroke-width: 0.8"/>
      </g>
     </g>
     <g id="text_15">
      <!-- 4 -->
      <g transform="translate(27.2 120.360803) scale(0.13 -0.13)">
       <use xlink:href="#DejaVuSerif-34"/>
      </g>
     </g>
    </g>
    <g id="ytick_6">
     <g id="line2d_29">
      <path d="M 42.47125 75.603636 
L 661.67125 75.603636 
" clip-path="url(#pdddbd32b2b)" style="fill: none; stroke: #b0b0b0; stroke-opacity: 0.15; stroke-width: 0.8; stroke-linecap: square"/>
     </g>
     <g id="line2d_30">
      <g>
       <use xlink:href="#m4412f63b81" x="42.47125" y="75.603636" style="stroke: #000000; stroke-width: 0.8"/>
      </g>
     </g>
     <g id="text_16">
      <!-- 5 -->
      <g transform="translate(27.2 80.542621) scale(0.13 -0.13)">
       <use xlink:href="#DejaVuSerif-35"/>
      </g>
     </g>
    </g>
    <g id="ytick_7">
     <g id="line2d_31">
      <path d="M 42.47125 35.785455 
L 661.67125 35.785455 
" clip-path="url(#pdddbd32b2b)" style="fill: none; stroke: #b0b0b0; stroke-opacity: 0.15; stroke-width: 0.8; stroke-linecap: square"/>
     </g>
     <g id="line2d_32">
      <g>
       <use xlink:href="#m4412f63b81" x="42.47125" y="35.785455" style="stroke: #000000; stroke-width: 0.8"/>
      </g>
     </g>
     <g id="text_17">
      <!-- 6 -->
      <g transform="translate(27.2 40.724439) scale(0.13 -0.13)">
       <use xlink:href="#DejaVuSerif-36"/>
      </g>
     </g>
    </g>
    <g id="text_18">
     <!-- Protein $P(t)$ -->
     <g transform="translate(19.2 201.72) rotate(-90) scale(0.16 -0.16)">
      <defs>
       <path id="DejaVuSerif-50" d="M 1581 2375 
L 2406 2375 
Q 2872 2375 3115 2626 
Q 3359 2878 3359 3353 
Q 3359 3831 3115 4081 
Q 2872 4331 2406 4331 
L 1581 4331 
L 1581 2375 
z
M 353 0 
L 353 331 
L 947 331 
L 947 4331 
L 353 4331 
L 353 4666 
L 2559 4666 
Q 3259 4666 3668 4311 
Q 4078 3956 4078 3353 
Q 4078 2753 3668 2397 
Q 3259 2041 2559 2041 
L 1581 2041 
L 1581 331 
L 2303 331 
L 2303 0 
L 353 0 
z
" transform="scale(0.015625)"/>
       <path id="DejaVuSerif-72" d="M 3059 3328 
L 3059 2497 
L 2728 2497 
Q 2713 2744 2591 2866 
Q 2469 2988 2234 2988 
Q 1809 2988 1582 2694 
Q 1356 2400 1356 1850 
L 1356 331 
L 2022 331 
L 2022 0 
L 263 0 
L 263 331 
L 781 331 
L 781 2994 
L 231 2994 
L 231 3322 
L 1356 3322 
L 1356 2731 
Q 1525 3078 1790 3245 
Q 2056 3413 2438 3413 
Q 2578 3413 2733 3391 
Q 2888 3369 3059 3328 
z
" transform="scale(0.015625)"/>
       <path id="DejaVuSerif-6f" d="M 1925 219 
Q 2388 219 2623 584 
Q 2859 950 2859 1663 
Q 2859 2375 2623 2739 
Q 2388 3103 1925 3103 
Q 1463 3103 1227 2739 
Q 991 2375 991 1663 
Q 991 950 1228 584 
Q 1466 219 1925 219 
z
M 1925 -91 
Q 1200 -91 759 389 
Q 319 869 319 1663 
Q 319 2456 758 2934 
Q 1197 3413 1925 3413 
Q 2653 3413 3092 2934 
Q 3531 2456 3531 1663 
Q 3531 869 3092 389 
Q 2653 -91 1925 -91 
z
" transform="scale(0.015625)"/>
       <path id="DejaVuSerif-74" d="M 691 2988 
L 184 2988 
L 184 3322 
L 691 3322 
L 691 4353 
L 1269 4353 
L 1269 3322 
L 2350 3322 
L 2350 2988 
L 1269 2988 
L 1269 878 
Q 1269 456 1350 337 
Q 1431 219 1650 219 
Q 1875 219 1978 351 
Q 2081 484 2088 781 
L 2522 781 
Q 2497 328 2275 118 
Q 2053 -91 1600 -91 
Q 1103 -91 897 129 
Q 691 350 691 878 
L 691 2988 
z
" transform="scale(0.015625)"/>
       <path id="DejaVuSerif-6e" d="M 263 0 
L 263 331 
L 781 331 
L 781 2988 
L 231 2988 
L 231 3322 
L 1356 3322 
L 1356 2731 
Q 1516 3069 1770 3241 
Q 2025 3413 2363 3413 
Q 2913 3413 3172 3097 
Q 3431 2781 3431 2113 
L 3431 331 
L 3944 331 
L 3944 0 
L 2356 0 
L 2356 331 
L 2853 331 
L 2853 1931 
Q 2853 2541 2703 2767 
Q 2553 2994 2175 2994 
Q 1775 2994 1565 2701 
Q 1356 2409 1356 1850 
L 1356 331 
L 1856 331 
L 1856 0 
L 263 0 
z
" transform="scale(0.015625)"/>
       <path id="Cmmi10-50" d="M 313 0 
Q 250 0 250 84 
Q 253 100 262 139 
Q 272 178 289 201 
Q 306 225 331 225 
Q 722 225 878 269 
Q 959 297 997 441 
L 1875 3956 
Q 1888 4019 1888 4044 
Q 1888 4113 1813 4122 
Q 1691 4147 1350 4147 
Q 1288 4147 1288 4231 
Q 1291 4247 1300 4286 
Q 1309 4325 1326 4348 
Q 1344 4372 1369 4372 
L 3578 4372 
Q 3881 4372 4165 4264 
Q 4450 4156 4631 3934 
Q 4813 3713 4813 3397 
Q 4813 2991 4527 2672 
Q 4241 2353 3814 2175 
Q 3388 1997 2988 1997 
L 1947 1997 
L 1556 416 
Q 1544 353 1544 325 
Q 1544 300 1551 283 
Q 1559 266 1573 261 
Q 1588 256 1619 250 
Q 1741 225 2081 225 
Q 2144 225 2144 141 
Q 2122 50 2109 25 
Q 2097 0 2034 0 
L 313 0 
z
M 1978 2188 
L 2875 2188 
Q 3497 2188 3822 2522 
Q 3988 2688 4092 3000 
Q 4197 3313 4197 3566 
Q 4197 3881 3956 4014 
Q 3716 4147 3359 4147 
L 2747 4147 
Q 2572 4147 2515 4117 
Q 2459 4088 2413 3928 
L 1978 2188 
z
" transform="scale(0.015625)"/>
       <path id="Cmr10-28" d="M 1984 -1588 
Q 1628 -1306 1370 -942 
Q 1113 -578 948 -165 
Q 784 247 703 697 
Q 622 1147 622 1600 
Q 622 2059 703 2509 
Q 784 2959 951 3375 
Q 1119 3791 1378 4153 
Q 1638 4516 1984 4788 
Q 1984 4800 2016 4800 
L 2075 4800 
Q 2094 4800 2109 4783 
Q 2125 4766 2125 4744 
Q 2125 4716 2113 4703 
Q 1800 4397 1592 4047 
Q 1384 3697 1257 3301 
Q 1131 2906 1075 2482 
Q 1019 2059 1019 1600 
Q 1019 -434 2106 -1491 
Q 2125 -1509 2125 -1544 
Q 2125 -1559 2108 -1579 
Q 2091 -1600 2075 -1600 
L 2016 -1600 
Q 1984 -1600 1984 -1588 
z
" transform="scale(0.015625)"/>
       <path id="Cmr10-29" d="M 416 -1600 
Q 359 -1600 359 -1544 
Q 359 -1516 372 -1503 
Q 1466 -434 1466 1600 
Q 1466 3634 384 4691 
Q 359 4706 359 4744 
Q 359 4766 376 4783 
Q 394 4800 416 4800 
L 475 4800 
Q 494 4800 506 4788 
Q 966 4425 1272 3906 
Q 1578 3388 1720 2800 
Q 1863 2213 1863 1600 
Q 1863 1147 1786 708 
Q 1709 269 1542 -157 
Q 1375 -584 1119 -945 
Q 863 -1306 506 -1588 
Q 494 -1600 475 -1600 
L 416 -1600 
z
" transform="scale(0.015625)"/>
      </defs>
      <use xlink:href="#DejaVuSerif-50"/>
      <use xlink:href="#DejaVuSerif-72" transform="translate(67.285156 0)"/>
      <use xlink:href="#DejaVuSerif-6f" transform="translate(115.087891 0)"/>
      <use xlink:href="#DejaVuSerif-74" transform="translate(175.292969 0)"/>
      <use xlink:href="#DejaVuSerif-65" transform="translate(215.478516 0)"/>
      <use xlink:href="#DejaVuSerif-69" transform="translate(274.658203 0)"/>
      <use xlink:href="#DejaVuSerif-6e" transform="translate(306.640625 0)"/>
      <use xlink:href="#DejaVuSerif-20" transform="translate(371.044922 0)"/>
      <use xlink:href="#Cmmi10-50" transform="translate(402.832031 0)"/>
      <use xlink:href="#Cmr10-28" transform="translate(467.041016 0)"/>
      <use xlink:href="#Cmmi10-74" transform="translate(505.859375 0)"/>
      <use xlink:href="#Cmr10-29" transform="translate(541.943359 0)"/>
     </g>
    </g>
   </g>
   <g id="line2d_33">
    <path d="M 42.47125 274.694545 
L 51.770875 274.694545 
L 53.320812 195.058182 
L 54.095781 234.876364 
L 54.870749 234.876364 
L 55.645718 274.694545 
L 65.720311 274.694545 
L 66.49528 234.876364 
L 67.270249 234.876364 
L 68.045217 195.058182 
L 68.820186 234.876364 
L 69.595155 234.876364 
L 70.370124 155.24 
L 72.69503 155.24 
L 73.469998 195.058182 
L 75.794905 195.058182 
L 77.344842 115.421818 
L 78.894779 115.421818 
L 79.669748 75.603636 
L 80.444717 75.603636 
L 81.219686 115.421818 
L 81.994654 35.785455 
L 82.769623 35.785455 
L 83.544592 75.603636 
L 85.869498 75.603636 
L 87.419435 155.24 
L 93.619185 155.24 
L 95.169122 234.876364 
L 99.818935 234.876364 
L 100.593903 274.694545 
L 108.34359 274.694545 
L 109.118559 234.876364 
L 116.868246 234.876364 
L 117.643215 195.058182 
L 123.842965 195.058182 
L 124.617933 234.876364 
L 126.942839 234.876364 
L 127.717808 195.058182 
L 130.042714 195.058182 
L 130.817683 234.876364 
L 131.592652 234.876364 
L 132.36762 195.058182 
L 147.092026 195.058182 
L 147.866995 234.876364 
L 157.166619 234.876364 
L 157.941588 195.058182 
L 159.491525 195.058182 
L 160.266494 234.876364 
L 164.141338 234.876364 
L 164.916306 195.058182 
L 171.116056 195.058182 
L 171.891025 274.694545 
L 176.540837 274.694545 
L 177.315806 234.876364 
L 178.090774 234.876364 
L 178.865743 274.694545 
L 198.239961 274.694545 
L 199.01493 234.876364 
L 199.789898 234.876364 
L 200.564867 195.058182 
L 201.339836 195.058182 
L 202.114804 234.876364 
L 217.614179 234.876364 
L 218.389147 274.694545 
L 249.387896 274.694545 
L 250.937833 195.058182 
L 251.712802 195.058182 
L 252.487771 155.24 
L 253.262739 155.24 
L 254.037708 115.421818 
L 254.812677 155.24 
L 257.137583 155.24 
L 257.912552 195.058182 
L 261.012426 195.058182 
L 261.787395 234.876364 
L 264.88727 234.876364 
L 265.662239 195.058182 
L 273.411926 195.058182 
L 274.186895 234.876364 
L 281.161613 234.876364 
L 281.936582 274.694545 
L 323.784892 274.694545 
L 326.109798 155.24 
L 327.659736 155.24 
L 328.434704 195.058182 
L 330.75961 195.058182 
L 331.534579 234.876364 
L 333.084517 234.876364 
L 333.859485 195.058182 
L 334.634454 195.058182 
L 335.409423 234.876364 
L 343.15911 234.876364 
L 343.934079 195.058182 
L 348.583891 195.058182 
L 349.35886 234.876364 
L 350.133828 195.058182 
L 351.683766 195.058182 
L 353.233703 274.694545 
L 367.18314 274.694545 
L 367.958109 234.876364 
L 374.157858 234.876364 
L 374.932827 274.694545 
L 376.482764 274.694545 
L 377.257733 234.876364 
L 379.582639 234.876364 
L 380.357608 274.694545 
L 381.132577 234.876364 
L 381.907545 234.876364 
L 382.682514 195.058182 
L 383.457483 195.058182 
L 384.232452 155.24 
L 385.00742 155.24 
L 385.782389 195.058182 
L 386.557358 155.24 
L 387.332326 155.24 
L 388.107295 234.876364 
L 389.657232 234.876364 
L 390.432201 274.694545 
L 391.20717 234.876364 
L 391.982139 234.876364 
L 392.757107 195.058182 
L 394.307045 195.058182 
L 395.082013 155.24 
L 395.856982 155.24 
L 396.631951 195.058182 
L 397.40692 195.058182 
L 398.181888 234.876364 
L 399.731826 234.876364 
L 400.506794 274.694545 
L 404.381638 274.694545 
L 405.156607 234.876364 
L 409.03145 234.876364 
L 409.806419 274.694545 
L 416.781137 274.694545 
L 417.556106 234.876364 
L 418.331075 274.694545 
L 419.881012 274.694545 
L 420.655981 234.876364 
L 424.530824 234.876364 
L 425.305793 195.058182 
L 426.080762 234.876364 
L 426.855731 234.876364 
L 427.630699 195.058182 
L 428.405668 234.876364 
L 429.955605 234.876364 
L 430.730574 274.694545 
L 433.830449 274.694545 
L 434.605418 234.876364 
L 441.580136 234.876364 
L 442.355105 195.058182 
L 443.130074 234.876364 
L 447.779886 234.876364 
L 448.554855 274.694545 
L 450.104792 274.694545 
L 450.879761 195.058182 
L 451.654729 155.24 
L 452.429698 195.058182 
L 453.204667 155.24 
L 453.979635 155.24 
L 454.754604 195.058182 
L 455.529573 195.058182 
L 456.304542 155.24 
L 457.07951 195.058182 
L 460.954354 195.058182 
L 461.729323 234.876364 
L 463.27926 234.876364 
L 464.054229 274.694545 
L 472.578885 274.694545 
L 473.353853 234.876364 
L 474.128822 274.694545 
L 477.228697 274.694545 
L 478.003666 234.876364 
L 478.778634 234.876364 
L 479.553603 274.694545 
L 480.328572 234.876364 
L 481.10354 274.694545 
L 485.753353 274.694545 
L 487.30329 195.058182 
L 488.078259 195.058182 
L 488.853227 234.876364 
L 489.628196 195.058182 
L 490.403165 195.058182 
L 491.178134 155.24 
L 494.278008 155.24 
L 495.052977 234.876364 
L 497.377883 234.876364 
L 498.152852 195.058182 
L 502.027696 195.058182 
L 502.802664 234.876364 
L 505.902539 234.876364 
L 506.677508 274.694545 
L 521.401913 274.694545 
L 522.176882 234.876364 
L 526.051726 234.876364 
L 526.826694 274.694545 
L 547.750849 274.694545 
L 548.525818 234.876364 
L 553.950599 234.876364 
L 554.725568 274.694545 
L 567.125067 274.694545 
L 567.900036 234.876364 
L 569.449973 234.876364 
L 570.224942 195.058182 
L 570.999911 195.058182 
L 571.77488 234.876364 
L 572.549848 195.058182 
L 574.099786 195.058182 
L 575.649723 274.694545 
L 605.098534 274.694545 
L 605.873503 234.876364 
L 612.848221 234.876364 
L 613.62319 274.694545 
L 657.021438 274.694545 
L 657.796406 234.876364 
L 661.67125 234.876364 
L 661.67125 234.876364 
" clip-path="url(#pdddbd32b2b)" style="fill: none; stroke: #0072bd; stroke-opacity: 0.2; stroke-width: 0.5; stroke-linecap: square"/>
   </g>
   <g id="line2d_34">
    <path d="M 42.47125 274.694545 
L 91.294279 274.694545 
L 92.069247 234.876364 
L 94.394154 234.876364 
L 95.169122 274.694545 
L 95.944091 274.694545 
L 96.71906 195.058182 
L 98.268997 274.694545 
L 100.593903 274.694545 
L 101.368872 234.876364 
L 102.143841 234.876364 
L 102.918809 195.058182 
L 108.34359 195.058182 
L 109.118559 234.876364 
L 109.893528 195.058182 
L 112.218434 195.058182 
L 112.993403 155.24 
L 116.093278 155.24 
L 116.868246 195.058182 
L 117.643215 195.058182 
L 118.418184 234.876364 
L 120.74309 234.876364 
L 121.518059 274.694545 
L 122.293027 234.876364 
L 123.067996 234.876364 
L 123.842965 274.694545 
L 128.492777 274.694545 
L 129.267746 234.876364 
L 139.342339 234.876364 
L 140.117308 274.694545 
L 155.616682 274.694545 
L 156.391651 234.876364 
L 157.941588 234.876364 
L 158.716557 274.694545 
L 159.491525 274.694545 
L 160.266494 234.876364 
L 162.5914 234.876364 
L 163.366369 195.058182 
L 164.141338 195.058182 
L 164.916306 155.24 
L 165.691275 195.058182 
L 170.341087 195.058182 
L 171.116056 234.876364 
L 185.840462 234.876364 
L 186.61543 195.058182 
L 187.390399 234.876364 
L 194.365117 234.876364 
L 195.140086 195.058182 
L 195.915055 195.058182 
L 196.690023 234.876364 
L 197.464992 195.058182 
L 199.789898 195.058182 
L 200.564867 234.876364 
L 209.864492 234.876364 
L 210.63946 274.694545 
L 226.138834 274.694545 
L 226.913803 234.876364 
L 230.013678 234.876364 
L 230.788647 195.058182 
L 233.113553 195.058182 
L 233.888522 234.876364 
L 239.313303 234.876364 
L 240.088271 195.058182 
L 247.06299 195.058182 
L 247.837958 274.694545 
L 302.085768 274.694545 
L 302.860737 234.876364 
L 303.635706 274.694545 
L 307.510549 274.694545 
L 308.285518 234.876364 
L 309.835455 234.876364 
L 310.610424 274.694545 
L 311.385393 195.058182 
L 312.160361 234.876364 
L 312.93533 234.876364 
L 314.485268 75.603636 
L 315.260236 115.421818 
L 316.810174 115.421818 
L 318.360111 195.058182 
L 321.459986 195.058182 
L 322.234955 155.24 
L 324.559861 155.24 
L 325.334829 195.058182 
L 331.534579 195.058182 
L 333.084517 274.694545 
L 341.609172 274.694545 
L 342.384141 234.876364 
L 354.008672 234.876364 
L 354.78364 274.694545 
L 360.208421 274.694545 
L 360.98339 234.876364 
L 363.308296 234.876364 
L 364.083265 274.694545 
L 366.408171 274.694545 
L 367.18314 234.876364 
L 367.958109 234.876364 
L 368.733077 274.694545 
L 369.508046 234.876364 
L 373.38289 234.876364 
L 374.157858 274.694545 
L 392.757107 274.694545 
L 393.532076 234.876364 
L 395.856982 234.876364 
L 396.631951 195.058182 
L 398.181888 195.058182 
L 398.956857 155.24 
L 399.731826 234.876364 
L 404.381638 234.876364 
L 405.156607 195.058182 
L 405.931575 234.876364 
L 406.706544 155.24 
L 408.256482 75.603636 
L 409.03145 155.24 
L 412.906294 155.24 
L 413.681263 195.058182 
L 414.456231 115.421818 
L 416.006169 115.421818 
L 416.781137 35.785455 
L 417.556106 115.421818 
L 418.331075 75.603636 
L 419.106043 75.603636 
L 419.881012 115.421818 
L 420.655981 75.603636 
L 421.43095 155.24 
L 422.205918 195.058182 
L 422.980887 155.24 
L 425.305793 155.24 
L 426.080762 234.876364 
L 427.630699 234.876364 
L 428.405668 195.058182 
L 429.180637 195.058182 
L 429.955605 155.24 
L 430.730574 155.24 
L 431.505543 115.421818 
L 435.380386 115.421818 
L 436.155355 75.603636 
L 437.705293 234.876364 
L 438.480261 155.24 
L 441.580136 155.24 
L 442.355105 234.876364 
L 443.905042 234.876364 
L 444.680011 274.694545 
L 494.278008 274.694545 
L 495.827946 115.421818 
L 496.602915 155.24 
L 498.152852 75.603636 
L 498.927821 75.603636 
L 499.702789 115.421818 
L 500.477758 115.421818 
L 501.252727 155.24 
L 502.802664 155.24 
L 503.577633 115.421818 
L 505.12757 195.058182 
L 505.902539 195.058182 
L 506.677508 234.876364 
L 508.227445 234.876364 
L 509.002414 195.058182 
L 509.777383 234.876364 
L 510.552351 234.876364 
L 511.32732 274.694545 
L 536.126319 274.694545 
L 536.901288 234.876364 
L 538.451225 234.876364 
L 539.226194 274.694545 
L 560.150349 274.694545 
L 560.925318 234.876364 
L 561.700286 234.876364 
L 562.475255 274.694545 
L 566.350099 274.694545 
L 567.125067 234.876364 
L 569.449973 234.876364 
L 570.224942 274.694545 
L 577.974629 274.694545 
L 579.524567 195.058182 
L 581.074504 195.058182 
L 581.849473 234.876364 
L 584.174379 234.876364 
L 584.949348 274.694545 
L 590.374129 274.694545 
L 591.149097 234.876364 
L 591.924066 234.876364 
L 592.699035 195.058182 
L 593.474003 195.058182 
L 594.248972 234.876364 
L 595.023941 234.876364 
L 595.79891 274.694545 
L 601.223691 274.694545 
L 601.998659 234.876364 
L 606.648472 234.876364 
L 607.42344 274.694545 
L 613.62319 274.694545 
L 614.398159 234.876364 
L 622.147846 234.876364 
L 623.697783 155.24 
L 624.472752 195.058182 
L 627.572627 195.058182 
L 628.347595 234.876364 
L 635.322314 234.876364 
L 636.097283 274.694545 
L 645.396907 274.694545 
L 646.171876 234.876364 
L 648.496782 234.876364 
L 649.271751 274.694545 
L 650.821688 195.058182 
L 651.596657 115.421818 
L 652.371625 115.421818 
L 653.146594 155.24 
L 653.921563 155.24 
L 654.696532 195.058182 
L 657.021438 195.058182 
L 658.571375 274.694545 
L 661.67125 274.694545 
L 661.67125 274.694545 
" clip-path="url(#pdddbd32b2b)" style="fill: none; stroke: #d95319; stroke-opacity: 0.2; stroke-width: 0.5; stroke-linecap: square"/>
   </g>
   <g id="line2d_35">
    <path d="M 42.47125 274.694545 
L 45.055557 274.591085 
L 46.606141 274.312755 
L 48.156726 273.799251 
L 49.70731 273.027785 
L 51.257894 271.997174 
L 52.808479 270.721433 
L 54.875924 268.682258 
L 56.94337 266.326292 
L 60.044539 262.385204 
L 69.348045 250.204567 
L 71.932352 247.295564 
L 74.516659 244.751479 
L 76.584105 243.00786 
L 78.651551 241.535461 
L 80.718996 240.336095 
L 82.786442 239.404037 
L 84.853888 238.727196 
L 86.921333 238.288303 
L 88.988779 238.066089 
L 91.056225 238.036406 
L 93.640532 238.230376 
L 96.741701 238.732743 
L 100.359731 239.577827 
L 106.562068 241.321131 
L 112.764405 242.998694 
L 117.416158 244.011812 
L 121.55105 244.674371 
L 125.685941 245.103792 
L 129.820833 245.317533 
L 134.472586 245.343477 
L 140.674923 245.129838 
L 154.11332 244.335743 
L 163.416826 243.933517 
L 172.20347 243.780214 
L 183.574422 243.827143 
L 218.204138 244.114476 
L 352.07125 244.053178 
L 352.07125 244.053178 
L 353.104973 247.644401 
L 354.138696 250.39172 
L 355.172419 252.488428 
L 356.206141 254.080832 
L 357.239864 255.280079 
L 358.273587 256.170968 
L 359.30731 256.818528 
L 360.341033 257.27292 
L 361.891617 257.675152 
L 363.442202 257.826285 
L 365.509647 257.753483 
L 368.093955 257.372227 
L 371.195123 256.668035 
L 377.39746 254.964563 
L 384.116659 253.202676 
L 389.285273 252.090917 
L 394.453888 251.229112 
L 399.622502 250.60237 
L 405.307978 250.141327 
L 412.027177 249.829557 
L 420.813821 249.667034 
L 434.76908 249.667828 
L 488.005808 249.806264 
L 661.67125 249.803517 
L 661.67125 249.803517 
" clip-path="url(#pdddbd32b2b)" style="fill: none; stroke-dasharray: 6.66,2.88; stroke-dashoffset: 0; stroke: #d95319; stroke-opacity: 0.7; stroke-width: 1.8"/>
   </g>
   <g id="line2d_36">
    <path d="M 42.47125 274.694545 
L 44.021187 274.694545 
L 44.796156 274.455636 
L 45.571125 274.376 
L 47.121062 273.938 
L 47.896031 273.619455 
L 48.671 273.101818 
L 49.445968 272.942545 
L 50.995906 272.225818 
L 51.770875 271.389636 
L 52.545843 270.832182 
L 53.320812 269.717273 
L 54.870749 268.164364 
L 55.645718 267.885636 
L 56.420687 267.248545 
L 57.195656 266.173455 
L 57.970624 264.540909 
L 58.745593 263.585273 
L 59.520562 262.072182 
L 61.070499 259.643273 
L 61.845468 259.085818 
L 62.620436 257.771818 
L 63.395405 256.139273 
L 64.170374 255.542 
L 65.720311 253.949273 
L 66.49528 252.555636 
L 67.270249 251.759273 
L 68.045217 251.361091 
L 68.820186 250.604545 
L 70.370124 248.056182 
L 71.145092 247.339455 
L 71.920061 246.184727 
L 72.69503 246.065273 
L 73.469998 245.507818 
L 74.244967 244.711455 
L 75.019936 244.711455 
L 75.794905 242.720545 
L 76.569873 241.924182 
L 77.344842 240.610182 
L 78.119811 240.172182 
L 79.669748 238.738727 
L 80.444717 238.937818 
L 81.219686 238.300727 
L 81.994654 238.221091 
L 82.769623 237.703455 
L 83.544592 238.101636 
L 84.31956 238.022 
L 85.094529 236.986727 
L 85.869498 236.946909 
L 86.644467 236.230182 
L 88.194404 235.632909 
L 88.969373 234.995818 
L 89.744341 235.632909 
L 90.51931 235.394 
L 91.294279 235.513455 
L 92.069247 234.557818 
L 92.844216 234.159636 
L 93.619185 234.199455 
L 94.394154 234.000364 
L 96.71906 235.075455 
L 97.494028 234.836545 
L 98.268997 234.478182 
L 99.043966 233.562364 
L 99.818935 233.283636 
L 101.368872 234.478182 
L 102.143841 234.279091 
L 102.918809 234.318909 
L 103.693778 233.721636 
L 104.468747 232.487273 
L 105.243716 231.89 
L 106.018684 232.367818 
L 106.793653 232.208545 
L 107.568622 232.527091 
L 108.34359 233.243818 
L 109.893528 233.164182 
L 110.668497 233.403091 
L 111.443465 233.124364 
L 112.218434 234.199455 
L 112.993403 234.040182 
L 113.768371 234.08 
L 114.54334 234.358727 
L 115.318309 235.911636 
L 117.643215 236.986727 
L 118.418184 236.668182 
L 119.193152 237.106182 
L 119.968121 236.946909 
L 120.74309 237.265455 
L 121.518059 237.345091 
L 122.293027 238.221091 
L 123.067996 238.46 
L 123.842965 238.818364 
L 124.617933 238.380364 
L 125.392902 237.783091 
L 126.942839 237.464545 
L 127.717808 237.066364 
L 128.492777 237.902545 
L 130.042714 236.986727 
L 130.817683 238.061818 
L 131.592652 238.619273 
L 132.36762 239.375818 
L 133.142589 239.774 
L 133.917558 239.375818 
L 134.692527 238.738727 
L 135.467495 238.260909 
L 136.242464 238.260909 
L 137.017433 239.336 
L 137.792401 240.012909 
L 138.56737 240.411091 
L 139.342339 239.176727 
L 140.117308 239.256364 
L 140.892276 239.574909 
L 141.667245 239.057273 
L 142.442214 239.097091 
L 143.217182 239.933273 
L 143.992151 240.251818 
L 144.76712 240.928727 
L 145.542089 241.048182 
L 146.317057 241.326909 
L 147.092026 241.207455 
L 147.866995 241.645455 
L 148.641963 241.366727 
L 149.416932 242.163091 
L 150.191901 242.123273 
L 150.96687 242.322364 
L 151.741838 243.278 
L 152.516807 242.959455 
L 153.291776 243.915091 
L 154.066744 243.317818 
L 154.841713 242.561273 
L 155.616682 242.163091 
L 156.391651 242.043636 
L 157.166619 242.043636 
L 157.941588 241.565818 
L 158.716557 241.446364 
L 159.491525 242.163091 
L 160.266494 242.003818 
L 161.041463 242.521455 
L 161.816431 242.640909 
L 163.366369 244.154 
L 165.691275 243.078909 
L 166.466244 243.477091 
L 167.241212 243.477091 
L 168.016181 243.317818 
L 168.79115 242.959455 
L 169.566119 242.163091 
L 170.341087 242.163091 
L 171.116056 240.530545 
L 171.891025 240.729636 
L 172.665993 240.052727 
L 173.440962 239.574909 
L 174.215931 239.893455 
L 174.9909 240.450909 
L 175.765868 240.769455 
L 176.540837 240.012909 
L 177.315806 239.694364 
L 178.090774 240.092545 
L 179.640712 240.371273 
L 180.415681 239.973091 
L 181.190649 240.212 
L 181.965618 240.012909 
L 182.740587 240.212 
L 183.515555 241.127818 
L 184.290524 240.888909 
L 186.61543 241.446364 
L 187.390399 240.928727 
L 188.165368 240.570364 
L 189.715305 241.725091 
L 190.490274 241.924182 
L 191.265242 242.282545 
L 192.040211 242.919636 
L 192.81518 242.999273 
L 193.590149 242.84 
L 194.365117 241.804727 
L 195.140086 241.446364 
L 195.915055 241.645455 
L 196.690023 241.247273 
L 198.239961 242.123273 
L 199.789898 242.760364 
L 200.564867 243.278 
L 202.114804 243.516909 
L 202.889773 242.84 
L 203.664742 243.158545 
L 204.439711 242.959455 
L 205.214679 242.640909 
L 205.989648 242.84 
L 206.764617 243.238182 
L 208.314554 243.636364 
L 209.089523 244.193818 
L 209.864492 244.313273 
L 210.63946 243.556727 
L 211.414429 242.521455 
L 212.189398 242.242727 
L 212.964366 243.556727 
L 213.739335 243.317818 
L 214.514304 242.322364 
L 215.289273 241.565818 
L 216.064241 241.884364 
L 216.83921 241.964 
L 217.614179 241.406545 
L 218.389147 240.371273 
L 219.164116 240.212 
L 219.939085 239.853636 
L 220.714054 240.251818 
L 222.263991 240.490727 
L 223.03896 240.849091 
L 223.813928 240.65 
L 225.363866 240.729636 
L 226.138834 240.411091 
L 226.913803 239.654545 
L 228.463741 239.176727 
L 229.238709 238.778545 
L 230.013678 238.937818 
L 230.788647 238.898 
L 231.563615 237.982182 
L 232.338584 236.27 
L 233.113553 235.951455 
L 233.888522 235.394 
L 234.66349 236.110727 
L 235.438459 236.429273 
L 236.988396 236.389455 
L 237.763365 235.792182 
L 238.538334 236.429273 
L 239.313303 235.871818 
L 240.088271 236.349636 
L 240.86324 236.508909 
L 241.638209 237.464545 
L 242.413177 237.106182 
L 243.963115 238.101636 
L 244.738084 237.942364 
L 246.288021 238.539636 
L 247.06299 238.659091 
L 247.837958 238.260909 
L 248.612927 238.778545 
L 249.387896 238.738727 
L 250.162865 239.136909 
L 250.937833 239.017455 
L 251.712802 239.057273 
L 252.487771 238.380364 
L 253.262739 238.898 
L 254.037708 237.703455 
L 254.812677 237.305273 
L 255.587645 236.429273 
L 256.362614 236.946909 
L 257.137583 237.265455 
L 257.912552 237.265455 
L 258.68752 236.827455 
L 259.462489 237.822909 
L 260.237458 238.022 
L 261.012426 238.101636 
L 261.787395 237.424727 
L 262.562364 238.340545 
L 263.337333 238.539636 
L 264.112301 239.415636 
L 264.88727 239.495273 
L 265.662239 239.973091 
L 266.437207 239.933273 
L 267.212176 239.694364 
L 267.987145 239.296182 
L 268.762114 239.176727 
L 269.537082 239.535091 
L 270.312051 240.052727 
L 271.08702 239.973091 
L 273.411926 240.172182 
L 274.186895 239.734182 
L 274.961863 239.694364 
L 275.736832 239.017455 
L 276.511801 239.057273 
L 277.286769 239.535091 
L 278.061738 239.336 
L 278.836707 239.256364 
L 279.611676 239.057273 
L 281.161613 238.499818 
L 281.936582 239.097091 
L 282.71155 238.499818 
L 283.486519 238.898 
L 284.261488 239.734182 
L 285.036457 240.251818 
L 285.811425 239.933273 
L 286.586394 240.490727 
L 287.361363 240.052727 
L 288.136331 239.415636 
L 288.9113 240.092545 
L 289.686269 239.774 
L 290.461237 240.371273 
L 291.236206 240.570364 
L 292.786144 240.331455 
L 293.561112 241.008364 
L 294.336081 239.853636 
L 295.11105 239.256364 
L 295.886018 239.057273 
L 296.660987 239.017455 
L 298.210925 239.853636 
L 299.760862 239.296182 
L 300.535831 239.774 
L 301.310799 239.893455 
L 302.085768 240.212 
L 302.860737 240.092545 
L 303.635706 240.371273 
L 304.410674 240.052727 
L 305.185643 240.65 
L 306.73558 240.251818 
L 307.510549 239.734182 
L 308.285518 239.853636 
L 309.060487 240.610182 
L 309.835455 241.127818 
L 310.610424 240.371273 
L 312.160361 239.495273 
L 312.93533 240.052727 
L 314.485268 240.689818 
L 315.260236 240.530545 
L 316.035205 239.574909 
L 317.585142 238.738727 
L 318.360111 239.296182 
L 319.13508 238.619273 
L 319.910048 240.212 
L 320.685017 240.888909 
L 323.009923 241.764909 
L 323.784892 242.441818 
L 324.559861 242.640909 
L 325.334829 241.565818 
L 326.109798 241.406545 
L 326.884767 242.282545 
L 327.659736 242.919636 
L 328.434704 242.481636 
L 329.209673 243.078909 
L 329.984642 243.278 
L 330.75961 243.954909 
L 331.534579 243.596545 
L 332.309548 243.556727 
L 333.084517 243.397455 
L 333.859485 243.954909 
L 334.634454 244.034545 
L 336.184391 242.123273 
L 336.95936 242.242727 
L 337.734329 241.326909 
L 338.509298 241.486182 
L 339.284266 242.402 
L 340.059235 241.884364 
L 340.834204 241.964 
L 341.609172 241.048182 
L 342.384141 240.570364 
L 343.15911 240.928727 
L 343.934079 240.888909 
L 344.709047 241.565818 
L 345.484016 241.605636 
L 346.258985 241.326909 
L 347.808922 241.844545 
L 348.583891 242.083455 
L 349.35886 241.725091 
L 350.133828 241.804727 
L 350.908797 242.123273 
L 351.683766 242.043636 
L 352.458734 241.446364 
L 353.233703 242.919636 
L 354.008672 245.786545 
L 355.558609 249.489636 
L 357.108547 252.117636 
L 357.883515 253.033455 
L 358.658484 254.745636 
L 359.433453 255.661455 
L 360.208421 255.342909 
L 360.98339 255.661455 
L 362.533328 256.776364 
L 363.308296 256.537455 
L 364.083265 256.736545 
L 364.858234 258.050545 
L 365.633202 258.050545 
L 367.18314 258.209818 
L 367.958109 258.249636 
L 368.733077 257.294 
L 369.508046 257.652364 
L 370.283015 257.453273 
L 371.057983 257.692182 
L 371.832952 257.214364 
L 372.607921 257.294 
L 373.38289 256.258727 
L 374.157858 256.298545 
L 374.932827 256.696727 
L 376.482764 255.780909 
L 377.257733 255.263273 
L 378.032702 255.661455 
L 378.807671 255.820727 
L 379.582639 256.856 
L 380.357608 257.015273 
L 381.132577 256.656909 
L 381.907545 256.617091 
L 383.457483 256.895818 
L 384.232452 256.816182 
L 385.00742 256.258727 
L 386.557358 254.546545 
L 387.332326 254.666 
L 388.107295 254.347455 
L 388.882264 254.466909 
L 389.657232 254.228 
L 390.432201 254.825273 
L 391.20717 254.028909 
L 391.982139 254.307636 
L 392.757107 253.471455 
L 393.532076 253.232545 
L 394.307045 253.232545 
L 395.082013 252.635273 
L 395.856982 252.635273 
L 396.631951 253.232545 
L 397.40692 253.670545 
L 398.181888 253.630727 
L 398.956857 253.073273 
L 399.731826 252.237091 
L 400.506794 252.316727 
L 401.281763 251.042545 
L 402.056732 252.077818 
L 402.831701 251.958364 
L 403.606669 251.361091 
L 404.381638 251.122182 
L 405.156607 251.838909 
L 405.931575 251.321273 
L 406.706544 251.480545 
L 407.481513 250.843455 
L 408.256482 250.724 
L 409.806419 248.892364 
L 410.581388 248.772909 
L 411.356356 249.250727 
L 412.131325 249.210909 
L 412.906294 248.812727 
L 413.681263 249.808182 
L 414.456231 249.728545 
L 415.2312 248.932182 
L 416.006169 247.777455 
L 416.781137 248.215455 
L 417.556106 247.976545 
L 418.331075 248.852545 
L 419.106043 249.051636 
L 419.881012 248.653455 
L 420.655981 249.091455 
L 421.43095 248.255273 
L 422.205918 248.693273 
L 423.755856 247.857091 
L 424.530824 248.175636 
L 425.305793 247.896909 
L 426.080762 249.370182 
L 426.855731 250.007273 
L 427.630699 249.967455 
L 428.405668 249.489636 
L 429.180637 248.733091 
L 430.730574 247.618182 
L 431.505543 248.454364 
L 432.280512 248.096 
L 433.05548 248.016364 
L 434.605418 249.210909 
L 435.380386 249.848 
L 436.155355 249.330364 
L 436.930324 250.365636 
L 437.705293 250.763818 
L 438.480261 249.171091 
L 439.25523 249.330364 
L 440.030199 248.295091 
L 440.805167 249.131273 
L 441.580136 248.175636 
L 443.130074 247.020909 
L 443.905042 246.941273 
L 444.680011 247.976545 
L 446.229948 247.777455 
L 447.004917 248.016364 
L 447.779886 248.812727 
L 448.554855 249.250727 
L 449.329823 249.131273 
L 450.104792 249.688727 
L 450.879761 248.932182 
L 451.654729 249.648909 
L 452.429698 249.250727 
L 453.204667 249.449818 
L 453.979635 249.011818 
L 454.754604 249.41 
L 455.529573 249.051636 
L 456.304542 249.848 
L 457.854479 251.082364 
L 458.629448 251.122182 
L 459.404416 249.967455 
L 460.179385 249.41 
L 460.954354 249.529455 
L 461.729323 249.370182 
L 462.504291 249.848 
L 463.27926 248.852545 
L 464.054229 248.812727 
L 464.829197 249.728545 
L 465.604166 249.091455 
L 466.379135 249.051636 
L 467.154104 249.449818 
L 467.929072 249.569273 
L 468.704041 249.529455 
L 469.47901 250.206364 
L 470.253978 250.445273 
L 471.028947 250.803636 
L 471.803916 250.206364 
L 472.578885 250.325818 
L 473.353853 249.091455 
L 474.128822 249.609091 
L 474.903791 249.808182 
L 475.678759 249.609091 
L 476.453728 249.768364 
L 477.228697 249.449818 
L 478.003666 250.086909 
L 479.553603 248.454364 
L 480.328572 248.812727 
L 481.10354 249.370182 
L 482.653478 249.529455 
L 483.428446 249.370182 
L 484.203415 249.887818 
L 484.978384 249.927636 
L 485.753353 249.011818 
L 486.528321 249.250727 
L 487.30329 248.733091 
L 488.078259 249.449818 
L 488.853227 249.171091 
L 489.628196 249.330364 
L 490.403165 250.166545 
L 491.178134 250.325818 
L 491.953102 250.803636 
L 492.728071 250.206364 
L 493.50304 249.449818 
L 494.278008 249.091455 
L 495.052977 249.210909 
L 495.827946 249.967455 
L 496.602915 250.007273 
L 497.377883 248.972 
L 498.152852 249.330364 
L 498.927821 248.454364 
L 499.702789 247.339455 
L 500.477758 249.011818 
L 501.252727 249.449818 
L 502.802664 248.653455 
L 503.577633 249.210909 
L 504.352602 249.41 
L 505.12757 248.693273 
L 505.902539 250.126727 
L 506.677508 249.927636 
L 508.227445 251.6 
L 509.002414 250.923091 
L 509.777383 250.644364 
L 510.552351 250.763818 
L 511.32732 251.400909 
L 512.877258 250.564727 
L 513.652226 250.763818 
L 514.427195 250.086909 
L 515.202164 248.295091 
L 515.977132 248.573818 
L 517.52707 249.609091 
L 518.302038 249.529455 
L 519.077007 248.972 
L 519.851976 248.255273 
L 520.626945 249.290545 
L 521.401913 249.688727 
L 522.176882 249.768364 
L 522.951851 249.210909 
L 523.726819 249.091455 
L 524.501788 249.171091 
L 525.276757 250.325818 
L 526.051726 250.286 
L 526.826694 249.011818 
L 527.601663 248.972 
L 528.376632 248.414545 
L 529.1516 249.250727 
L 529.926569 249.011818 
L 530.701538 249.768364 
L 531.476507 249.529455 
L 532.251475 249.489636 
L 533.026444 249.569273 
L 533.801413 249.449818 
L 534.576381 249.768364 
L 535.35135 249.648909 
L 536.126319 250.604545 
L 536.901288 250.007273 
L 537.676256 250.086909 
L 538.451225 249.648909 
L 539.226194 249.529455 
L 540.776131 248.693273 
L 541.5511 249.131273 
L 542.326069 249.330364 
L 543.101037 250.007273 
L 543.876006 250.206364 
L 544.650975 251.281455 
L 545.425943 250.724 
L 546.200912 250.365636 
L 546.975881 250.286 
L 547.750849 249.848 
L 548.525818 248.295091 
L 549.300787 249.449818 
L 550.075756 249.569273 
L 550.850724 248.733091 
L 551.625693 248.494182 
L 553.17563 248.573818 
L 553.950599 248.772909 
L 554.725568 248.096 
L 555.500537 248.454364 
L 556.275505 248.494182 
L 557.050474 248.215455 
L 557.825443 249.250727 
L 559.37538 249.091455 
L 560.925318 249.091455 
L 561.700286 248.932182 
L 562.475255 248.334909 
L 563.250224 248.812727 
L 564.025192 249.489636 
L 564.800161 249.529455 
L 565.57513 250.286 
L 566.350099 249.609091 
L 567.125067 250.365636 
L 567.900036 250.166545 
L 568.675005 249.648909 
L 569.449973 250.007273 
L 570.224942 249.927636 
L 570.999911 250.166545 
L 572.549848 249.927636 
L 573.324817 249.370182 
L 574.874754 248.932182 
L 576.424692 248.772909 
L 577.199661 248.932182 
L 577.974629 250.325818 
L 578.749598 249.927636 
L 579.524567 250.246182 
L 580.299535 250.246182 
L 581.074504 249.449818 
L 581.849473 249.011818 
L 582.624441 248.255273 
L 583.39941 248.534 
L 584.174379 249.171091 
L 584.949348 249.489636 
L 585.724316 248.972 
L 586.499285 248.932182 
L 587.274254 249.250727 
L 588.049222 250.286 
L 588.824191 250.286 
L 589.59916 249.967455 
L 590.374129 250.126727 
L 591.149097 250.524909 
L 591.924066 249.529455 
L 592.699035 249.449818 
L 593.474003 249.210909 
L 594.248972 249.290545 
L 595.023941 248.334909 
L 595.79891 248.653455 
L 596.573878 248.096 
L 597.348847 248.494182 
L 598.123816 248.255273 
L 598.898784 247.538545 
L 599.673753 247.22 
L 600.448722 247.498727 
L 601.223691 247.896909 
L 601.998659 249.290545 
L 602.773628 249.330364 
L 603.548597 248.852545 
L 604.323565 248.772909 
L 605.098534 249.131273 
L 605.873503 249.210909 
L 606.648472 249.648909 
L 607.42344 251.042545 
L 608.198409 250.047091 
L 608.973378 250.086909 
L 609.748346 249.609091 
L 611.298284 250.405455 
L 612.073253 250.047091 
L 612.848221 250.604545 
L 614.398159 249.449818 
L 615.173127 249.808182 
L 615.948096 249.609091 
L 616.723065 248.573818 
L 617.498033 248.056182 
L 618.273002 247.777455 
L 619.047971 248.494182 
L 619.82294 248.534 
L 620.597908 246.901455 
L 621.372877 247.618182 
L 622.147846 248.056182 
L 622.922814 247.737636 
L 623.697783 248.932182 
L 624.472752 249.848 
L 625.247721 250.962909 
L 626.797658 250.206364 
L 627.572627 250.923091 
L 628.347595 250.405455 
L 629.122564 250.405455 
L 630.672502 251.002727 
L 631.44747 251.042545 
L 632.222439 251.440727 
L 632.997408 251.122182 
L 633.772376 250.405455 
L 634.547345 250.803636 
L 635.322314 250.445273 
L 637.64722 249.808182 
L 638.422189 249.370182 
L 639.197157 248.772909 
L 640.747095 248.295091 
L 642.297032 248.932182 
L 643.072001 249.011818 
L 643.84697 249.449818 
L 644.621938 249.330364 
L 645.396907 249.370182 
L 646.171876 249.848 
L 646.946844 250.086909 
L 647.721813 249.171091 
L 648.496782 250.166545 
L 649.271751 249.569273 
L 650.046719 248.454364 
L 650.821688 247.976545 
L 651.596657 248.374727 
L 652.371625 247.060727 
L 653.146594 247.976545 
L 653.921563 247.737636 
L 654.696532 247.817273 
L 655.4715 247.538545 
L 657.021438 248.255273 
L 658.571375 248.494182 
L 659.346344 247.498727 
L 660.121313 248.215455 
L 660.896281 248.772909 
L 661.67125 248.812727 
L 661.67125 248.812727 
" clip-path="url(#pdddbd32b2b)" style="fill: none; stroke: #0072bd; stroke-width: 2.5; stroke-linecap: square"/>
   </g>
   <g id="line2d_37">
    <path d="M 42.47125 234.876364 
L 661.67125 234.876364 
" clip-path="url(#pdddbd32b2b)" style="fill: none; stroke-dasharray: 7.4,3.2; stroke-dashoffset: 0; stroke: #77ac30; stroke-width: 2"/>
   </g>
   <g id="line2d_38">
    <path d="M 352.07125 286.64 
L 352.07125 23.84 
" clip-path="url(#pdddbd32b2b)" style="fill: none; stroke-dasharray: 1.5,2.475; stroke-dashoffset: 0; stroke: #8c8c8c; stroke-opacity: 0.5; stroke-width: 1.5"/>
   </g>
   <g id="patch_3">
    <path d="M 42.47125 286.64 
L 42.47125 23.84 
" style="fill: none; stroke: #000000; stroke-width: 0.8; stroke-linejoin: miter; stroke-linecap: square"/>
   </g>
   <g id="patch_4">
    <path d="M 42.47125 286.64 
L 661.67125 286.64 
" style="fill: none; stroke: #000000; stroke-width: 0.8; stroke-linejoin: miter; stroke-linecap: square"/>
   </g>
   <g id="text_19">
    <!-- $\delta_p: 1 \to 2$ -->
    <g style="fill: #595959" transform="translate(359.81125 228.767273) scale(0.12 -0.12)">
     <defs>
      <path id="Cmmi10-b1" d="M 1281 -97 
Q 1059 -97 868 -14 
Q 678 69 536 225 
Q 394 381 325 573 
Q 256 766 256 991 
Q 256 1391 445 1767 
Q 634 2144 961 2419 
Q 1288 2694 1672 2791 
Q 1484 3138 1386 3389 
Q 1288 3641 1288 3903 
Q 1288 4097 1378 4245 
Q 1469 4394 1628 4478 
Q 1788 4563 1984 4563 
Q 2175 4563 2741 4434 
Q 2888 4400 2888 4263 
Q 2888 4156 2809 4068 
Q 2731 3981 2625 3981 
Q 2547 3981 2484 4017 
Q 2422 4053 2287 4143 
Q 2153 4234 2047 4282 
Q 1941 4331 1825 4331 
Q 1694 4331 1589 4251 
Q 1484 4172 1484 4044 
Q 1484 3841 1664 3577 
Q 1844 3313 2175 2900 
Q 2553 2419 2553 1838 
Q 2553 1550 2470 1215 
Q 2388 881 2230 584 
Q 2072 288 1826 95 
Q 1581 -97 1281 -97 
z
M 1294 78 
Q 1544 78 1723 337 
Q 1903 597 1995 955 
Q 2088 1313 2088 1556 
Q 2088 2034 1753 2631 
Q 1416 2538 1172 2238 
Q 928 1938 803 1547 
Q 678 1156 678 806 
Q 678 500 837 289 
Q 997 78 1294 78 
z
" transform="scale(0.015625)"/>
      <path id="Cmmi10-70" d="M -159 -1241 
Q -219 -1241 -219 -1159 
Q -197 -1019 -134 -1019 
Q 66 -1019 145 -983 
Q 225 -947 269 -800 
L 991 2081 
Q 1038 2200 1038 2388 
Q 1038 2663 850 2663 
Q 650 2663 553 2423 
Q 456 2184 366 1819 
Q 366 1778 313 1778 
L 238 1778 
Q 222 1778 203 1801 
Q 184 1825 184 1844 
Q 253 2122 317 2315 
Q 381 2509 517 2668 
Q 653 2828 856 2828 
Q 1075 2828 1240 2704 
Q 1406 2581 1453 2369 
Q 1628 2572 1840 2700 
Q 2053 2828 2278 2828 
Q 2547 2828 2745 2684 
Q 2944 2541 3044 2308 
Q 3144 2075 3144 1806 
Q 3144 1394 2933 953 
Q 2722 513 2361 220 
Q 2000 -72 1588 -72 
Q 1400 -72 1248 34 
Q 1097 141 1013 313 
L 722 -825 
Q 706 -919 703 -934 
Q 703 -1019 1125 -1019 
Q 1191 -1019 1191 -1100 
Q 1169 -1184 1155 -1212 
Q 1141 -1241 1081 -1241 
L -159 -1241 
z
M 1594 97 
Q 1816 97 2006 280 
Q 2197 463 2316 691 
Q 2403 863 2479 1111 
Q 2556 1359 2612 1640 
Q 2669 1922 2669 2088 
Q 2669 2234 2630 2362 
Q 2591 2491 2502 2577 
Q 2413 2663 2266 2663 
Q 2031 2663 1823 2495 
Q 1616 2328 1447 2081 
L 1447 2059 
L 1094 647 
Q 1138 419 1263 258 
Q 1388 97 1594 97 
z
" transform="scale(0.015625)"/>
      <path id="Cmr10-3a" d="M 538 353 
Q 538 497 644 600 
Q 750 703 891 703 
Q 978 703 1062 656 
Q 1147 609 1194 525 
Q 1241 441 1241 353 
Q 1241 213 1137 106 
Q 1034 0 891 0 
Q 750 0 644 106 
Q 538 213 538 353 
z
M 538 2406 
Q 538 2497 584 2578 
Q 631 2659 714 2709 
Q 797 2759 891 2759 
Q 981 2759 1064 2709 
Q 1147 2659 1194 2578 
Q 1241 2497 1241 2406 
Q 1241 2263 1139 2158 
Q 1038 2053 891 2053 
Q 747 2053 642 2158 
Q 538 2263 538 2406 
z
" transform="scale(0.015625)"/>
      <path id="Cmr10-31" d="M 594 0 
L 594 225 
Q 1394 225 1394 428 
L 1394 3788 
Q 1063 3628 556 3628 
L 556 3853 
Q 1341 3853 1741 4263 
L 1831 4263 
Q 1853 4263 1873 4245 
Q 1894 4228 1894 4206 
L 1894 428 
Q 1894 225 2694 225 
L 2694 0 
L 594 0 
z
" transform="scale(0.015625)"/>
      <path id="Cmsy10-21" d="M 481 1472 
Q 428 1472 393 1512 
Q 359 1553 359 1600 
Q 359 1647 393 1687 
Q 428 1728 481 1728 
L 5338 1728 
Q 5094 1903 4906 2133 
Q 4719 2363 4594 2627 
Q 4469 2891 4416 3188 
Q 4416 3272 4481 3272 
L 4609 3272 
Q 4631 3272 4648 3253 
Q 4666 3234 4672 3213 
Q 4725 2938 4839 2702 
Q 4953 2466 5125 2262 
Q 5297 2059 5509 1912 
Q 5722 1766 5991 1672 
Q 6034 1644 6034 1600 
Q 6034 1550 5991 1538 
Q 5656 1422 5378 1192 
Q 5100 963 4919 652 
Q 4738 341 4672 -13 
Q 4666 -34 4647 -53 
Q 4628 -72 4609 -72 
L 4481 -72 
Q 4416 -72 4416 13 
Q 4497 450 4740 836 
Q 4984 1222 5338 1472 
L 481 1472 
z
" transform="scale(0.015625)"/>
      <path id="Cmr10-32" d="M 319 0 
L 319 172 
Q 319 188 331 206 
L 1325 1306 
Q 1550 1550 1690 1715 
Q 1831 1881 1968 2097 
Q 2106 2313 2186 2536 
Q 2266 2759 2266 3009 
Q 2266 3272 2169 3511 
Q 2072 3750 1880 3894 
Q 1688 4038 1416 4038 
Q 1138 4038 916 3870 
Q 694 3703 603 3438 
Q 628 3444 672 3444 
Q 816 3444 917 3347 
Q 1019 3250 1019 3097 
Q 1019 2950 917 2848 
Q 816 2747 672 2747 
Q 522 2747 420 2851 
Q 319 2956 319 3097 
Q 319 3338 409 3548 
Q 500 3759 670 3923 
Q 841 4088 1055 4175 
Q 1269 4263 1509 4263 
Q 1875 4263 2190 4108 
Q 2506 3953 2690 3670 
Q 2875 3388 2875 3009 
Q 2875 2731 2753 2481 
Q 2631 2231 2440 2026 
Q 2250 1822 1953 1562 
Q 1656 1303 1563 1216 
L 838 519 
L 1453 519 
Q 1906 519 2211 526 
Q 2516 534 2534 550 
Q 2609 631 2688 1141 
L 2875 1141 
L 2694 0 
L 319 0 
z
" transform="scale(0.015625)"/>
     </defs>
     <use xlink:href="#Cmmi10-b1" transform="translate(0 0.703125)"/>
     <use xlink:href="#Cmmi10-70" transform="translate(44.384766 -16.303125) scale(0.7)"/>
     <use xlink:href="#Cmr10-3a" transform="translate(103.525781 0.703125)"/>
     <use xlink:href="#Cmr10-31" transform="translate(148.769922 0.703125)"/>
     <use xlink:href="#Cmsy10-21" transform="translate(216.328516 0.703125)"/>
     <use xlink:href="#Cmr10-32" transform="translate(333.887109 0.703125)"/>
    </g>
   </g>
   <g id="text_20">
    <!-- Near-perfect adaptation (stochastic, $\gamma_c = 0.15$) -->
    <g transform="translate(177.07125 17.84) scale(0.14 -0.14)">
     <defs>
      <path id="DejaVuSerif-Bold-4e" d="M 281 0 
L 281 378 
L 878 378 
L 878 4288 
L 281 4288 
L 281 4666 
L 1741 4666 
L 4556 1363 
L 4556 4288 
L 3963 4288 
L 3963 4666 
L 5594 4666 
L 5594 4288 
L 4997 4288 
L 4997 0 
L 4178 0 
L 1319 3372 
L 1319 378 
L 1913 378 
L 1913 0 
L 281 0 
z
" transform="scale(0.015625)"/>
      <path id="DejaVuSerif-Bold-65" d="M 2566 1875 
Q 2566 2531 2444 2795 
Q 2322 3059 2028 3059 
Q 1744 3059 1620 2800 
Q 1497 2541 1497 1931 
L 1497 1875 
L 2566 1875 
z
M 3781 1503 
L 1497 1503 
L 1497 1478 
Q 1497 834 1690 548 
Q 1884 263 2316 263 
Q 2675 263 2897 453 
Q 3119 644 3181 1006 
L 3700 1006 
Q 3566 441 3166 175 
Q 2766 -91 2047 -91 
Q 1184 -91 723 364 
Q 263 819 263 1663 
Q 263 2488 734 2950 
Q 1206 3413 2047 3413 
Q 2872 3413 3312 2927 
Q 3753 2441 3781 1503 
z
" transform="scale(0.015625)"/>
      <path id="DejaVuSerif-Bold-61" d="M 3525 2041 
L 3525 378 
L 4000 378 
L 4000 0 
L 2419 0 
L 2419 422 
Q 2200 159 1931 34 
Q 1663 -91 1319 -91 
Q 809 -91 536 182 
Q 263 456 263 966 
Q 263 1525 655 1803 
Q 1047 2081 1838 2081 
L 2419 2081 
L 2419 2278 
Q 2419 2681 2228 2873 
Q 2038 3066 1638 3066 
Q 1306 3066 1126 2930 
Q 947 2794 872 2484 
L 519 2484 
L 519 3200 
Q 816 3306 1134 3359 
Q 1453 3413 1806 3413 
Q 2697 3413 3111 3081 
Q 3525 2750 3525 2041 
z
M 2419 1044 
L 2419 1709 
L 2003 1709 
Q 1694 1709 1528 1540 
Q 1363 1372 1363 1056 
Q 1363 741 1483 584 
Q 1603 428 1850 428 
Q 2106 428 2262 597 
Q 2419 766 2419 1044 
z
" transform="scale(0.015625)"/>
      <path id="DejaVuSerif-Bold-72" d="M 3438 3359 
L 3438 2369 
L 3084 2369 
Q 3066 2634 2941 2764 
Q 2816 2894 2578 2894 
Q 2216 2894 2006 2575 
Q 1797 2256 1797 1691 
L 1797 378 
L 2400 378 
L 2400 0 
L 219 0 
L 219 378 
L 691 378 
L 691 2944 
L 184 2944 
L 184 3322 
L 1797 3322 
L 1797 2731 
Q 1959 3078 2226 3245 
Q 2494 3413 2881 3413 
Q 2978 3413 3117 3398 
Q 3256 3384 3438 3359 
z
" transform="scale(0.015625)"/>
      <path id="DejaVuSerif-Bold-2d" d="M 347 2138 
L 2309 2138 
L 2309 1294 
L 347 1294 
L 347 2138 
z
" transform="scale(0.015625)"/>
      <path id="DejaVuSerif-Bold-70" d="M 1728 1825 
L 1728 1497 
Q 1728 916 1876 656 
Q 2025 397 2356 397 
Q 2697 397 2836 672 
Q 2975 947 2975 1663 
Q 2975 2378 2836 2651 
Q 2697 2925 2356 2925 
Q 2025 2925 1876 2665 
Q 1728 2406 1728 1825 
z
M 622 2944 
L 147 2944 
L 147 3322 
L 1728 3322 
L 1728 2900 
Q 1869 3159 2106 3286 
Q 2344 3413 2694 3413 
Q 3403 3413 3811 2945 
Q 4219 2478 4219 1663 
Q 4219 847 3811 378 
Q 3403 -91 2694 -91 
Q 2344 -91 2106 36 
Q 1869 163 1728 422 
L 1728 -953 
L 2241 -953 
L 2241 -1331 
L 147 -1331 
L 147 -953 
L 622 -953 
L 622 2944 
z
" transform="scale(0.015625)"/>
      <path id="DejaVuSerif-Bold-66" d="M 3097 4031 
L 2747 4031 
Q 2722 4275 2605 4394 
Q 2488 4513 2272 4513 
Q 2022 4513 1909 4333 
Q 1797 4153 1797 3750 
L 1797 3322 
L 2631 3322 
L 2631 2944 
L 1797 2944 
L 1797 378 
L 2438 378 
L 2438 0 
L 219 0 
L 219 378 
L 691 378 
L 691 2944 
L 197 2944 
L 197 3322 
L 691 3322 
L 691 3738 
Q 691 4291 1044 4577 
Q 1397 4863 2081 4863 
Q 2347 4863 2600 4833 
Q 2853 4803 3097 4744 
L 3097 4031 
z
" transform="scale(0.015625)"/>
      <path id="DejaVuSerif-Bold-63" d="M 3609 1038 
Q 3491 469 3123 189 
Q 2756 -91 2125 -91 
Q 1238 -91 750 368 
Q 263 828 263 1663 
Q 263 2488 744 2950 
Q 1225 3413 2081 3413 
Q 2428 3413 2781 3347 
Q 3134 3281 3500 3150 
L 3500 2228 
L 3150 2228 
Q 3100 2650 2903 2854 
Q 2706 3059 2350 3059 
Q 1888 3059 1692 2746 
Q 1497 2434 1497 1663 
Q 1497 909 1687 586 
Q 1878 263 2309 263 
Q 2644 263 2845 463 
Q 3047 663 3091 1038 
L 3609 1038 
z
" transform="scale(0.015625)"/>
      <path id="DejaVuSerif-Bold-74" d="M 634 2944 
L 153 2944 
L 153 3322 
L 634 3322 
L 634 4353 
L 1741 4353 
L 1741 3322 
L 2663 3322 
L 2663 2944 
L 1741 2944 
L 1741 909 
Q 1741 475 1809 369 
Q 1878 263 2059 263 
Q 2259 263 2356 397 
Q 2453 531 2459 813 
L 2925 813 
Q 2897 313 2651 111 
Q 2406 -91 1806 -91 
Q 1122 -91 878 123 
Q 634 338 634 909 
L 634 2944 
z
" transform="scale(0.015625)"/>
      <path id="DejaVuSerif-Bold-20" transform="scale(0.015625)"/>
      <path id="DejaVuSerif-Bold-64" d="M 2747 1497 
L 2747 1825 
Q 2747 2406 2597 2665 
Q 2447 2925 2119 2925 
Q 1775 2925 1636 2651 
Q 1497 2378 1497 1663 
Q 1497 947 1637 672 
Q 1778 397 2119 397 
Q 2447 397 2597 656 
Q 2747 916 2747 1497 
z
M 3853 378 
L 4325 378 
L 4325 0 
L 2747 0 
L 2747 422 
Q 2606 163 2367 36 
Q 2128 -91 1778 -91 
Q 1072 -91 667 378 
Q 263 847 263 1663 
Q 263 2481 667 2947 
Q 1072 3413 1778 3413 
Q 2128 3413 2367 3286 
Q 2606 3159 2747 2900 
L 2747 4488 
L 2272 4488 
L 2272 4863 
L 3853 4863 
L 3853 378 
z
" transform="scale(0.015625)"/>
      <path id="DejaVuSerif-Bold-69" d="M 588 4263 
Q 588 4516 763 4689 
Q 938 4863 1191 4863 
Q 1438 4863 1611 4689 
Q 1784 4516 1784 4263 
Q 1784 4016 1611 3842 
Q 1438 3669 1191 3669 
Q 938 3669 763 3841 
Q 588 4013 588 4263 
z
M 1797 378 
L 2272 378 
L 2272 0 
L 219 0 
L 219 378 
L 691 378 
L 691 2944 
L 219 2944 
L 219 3322 
L 1797 3322 
L 1797 378 
z
" transform="scale(0.015625)"/>
      <path id="DejaVuSerif-Bold-6f" d="M 2138 263 
Q 2488 263 2630 563 
Q 2772 863 2772 1663 
Q 2772 2463 2631 2761 
Q 2491 3059 2138 3059 
Q 1784 3059 1640 2757 
Q 1497 2456 1497 1663 
Q 1497 869 1640 566 
Q 1784 263 2138 263 
z
M 2138 -91 
Q 1259 -91 761 376 
Q 263 844 263 1663 
Q 263 2484 761 2948 
Q 1259 3413 2138 3413 
Q 3019 3413 3516 2948 
Q 4013 2484 4013 1663 
Q 4013 844 3514 376 
Q 3016 -91 2138 -91 
z
" transform="scale(0.015625)"/>
      <path id="DejaVuSerif-Bold-6e" d="M 219 0 
L 219 378 
L 691 378 
L 691 2944 
L 219 2944 
L 219 3322 
L 1797 3322 
L 1797 2853 
Q 1997 3150 2253 3281 
Q 2509 3413 2900 3413 
Q 3459 3413 3745 3083 
Q 4031 2753 4031 2113 
L 4031 378 
L 4506 378 
L 4506 0 
L 2522 0 
L 2522 378 
L 2925 378 
L 2925 2144 
Q 2925 2566 2817 2730 
Q 2709 2894 2444 2894 
Q 2109 2894 1953 2648 
Q 1797 2403 1797 1869 
L 1797 378 
L 2203 378 
L 2203 0 
L 219 0 
z
" transform="scale(0.015625)"/>
      <path id="DejaVuSerif-Bold-28" d="M 2694 -997 
Q 1641 -606 1122 122 
Q 603 850 603 1931 
Q 603 3013 1115 3731 
Q 1628 4450 2694 4863 
L 2694 4488 
Q 2200 4188 1983 3598 
Q 1766 3009 1766 1931 
Q 1766 856 1983 267 
Q 2200 -322 2694 -622 
L 2694 -997 
z
" transform="scale(0.015625)"/>
      <path id="DejaVuSerif-Bold-73" d="M 300 97 
L 300 1025 
L 653 1025 
Q 697 653 931 458 
Q 1166 263 1569 263 
Q 1906 263 2086 380 
Q 2266 497 2266 716 
Q 2266 916 2152 1025 
Q 2038 1134 1709 1216 
L 1253 1331 
Q 738 1459 506 1698 
Q 275 1938 275 2344 
Q 275 2884 650 3148 
Q 1025 3413 1806 3413 
Q 2100 3413 2433 3364 
Q 2766 3316 3169 3213 
L 3169 2375 
L 2816 2375 
Q 2788 2716 2573 2887 
Q 2359 3059 1959 3059 
Q 1622 3059 1448 2951 
Q 1275 2844 1275 2638 
Q 1275 2469 1375 2372 
Q 1475 2275 1734 2209 
L 2188 2094 
Q 2841 1928 3091 1684 
Q 3341 1441 3341 1006 
Q 3341 444 2939 176 
Q 2538 -91 1691 -91 
Q 1381 -91 1034 -44 
Q 688 3 300 97 
z
" transform="scale(0.015625)"/>
      <path id="DejaVuSerif-Bold-68" d="M 219 0 
L 219 378 
L 691 378 
L 691 4488 
L 197 4488 
L 197 4863 
L 1797 4863 
L 1797 2853 
Q 1997 3150 2253 3281 
Q 2509 3413 2900 3413 
Q 3459 3413 3745 3083 
Q 4031 2753 4031 2113 
L 4031 378 
L 4506 378 
L 4506 0 
L 2522 0 
L 2522 378 
L 2925 378 
L 2925 2144 
Q 2925 2566 2817 2730 
Q 2709 2894 2444 2894 
Q 2109 2894 1953 2648 
Q 1797 2403 1797 1869 
L 1797 378 
L 2203 378 
L 2203 0 
L 219 0 
z
" transform="scale(0.015625)"/>
      <path id="DejaVuSerif-Bold-2c" d="M 84 -616 
Q 409 -353 562 -28 
Q 716 297 716 728 
L 716 997 
L 1606 997 
L 1606 972 
Q 1606 281 1317 -217 
Q 1028 -716 428 -1056 
L 84 -616 
z
" transform="scale(0.015625)"/>
      <path id="Cmmi10-b0" d="M 1888 -1253 
Q 1888 -1109 1952 -834 
Q 2016 -559 2108 -248 
Q 2200 63 2266 263 
Q 2291 581 2291 744 
Q 2291 1156 2209 1511 
Q 2128 1866 1903 2105 
Q 1678 2344 1275 2344 
Q 1063 2344 852 2253 
Q 641 2163 489 2000 
Q 338 1838 281 1631 
Q 269 1594 231 1594 
L 153 1594 
Q 103 1594 103 1650 
L 103 1672 
Q 175 1959 358 2226 
Q 541 2494 805 2661 
Q 1069 2828 1363 2828 
Q 1663 2828 1881 2625 
Q 2100 2422 2231 2109 
Q 2363 1797 2420 1478 
Q 2478 1159 2478 878 
Q 2800 1753 3200 2534 
L 3297 2741 
Q 3316 2759 3341 2759 
L 3419 2759 
Q 3469 2759 3469 2700 
Q 3469 2688 3456 2663 
L 3359 2463 
Q 3081 1909 2848 1340 
Q 2616 772 2450 244 
Q 2425 28 2354 -347 
Q 2284 -722 2184 -1045 
Q 2084 -1369 1984 -1381 
Q 1888 -1381 1888 -1253 
z
" transform="scale(0.015625)"/>
      <path id="Cmmi10-63" d="M 750 763 
Q 750 484 892 290 
Q 1034 97 1300 97 
Q 1681 97 2032 272 
Q 2384 447 2606 756 
Q 2625 775 2656 775 
Q 2688 775 2720 739 
Q 2753 703 2753 672 
Q 2753 647 2741 634 
Q 2506 306 2109 117 
Q 1713 -72 1288 -72 
Q 981 -72 747 73 
Q 513 219 384 462 
Q 256 706 256 1013 
Q 256 1444 497 1869 
Q 738 2294 1138 2561 
Q 1538 2828 1978 2828 
Q 2266 2828 2495 2689 
Q 2725 2550 2725 2278 
Q 2725 2103 2623 1979 
Q 2522 1856 2350 1856 
Q 2247 1856 2176 1920 
Q 2106 1984 2106 2088 
Q 2106 2238 2215 2344 
Q 2325 2450 2472 2450 
L 2484 2450 
Q 2409 2559 2267 2611 
Q 2125 2663 1972 2663 
Q 1597 2663 1315 2342 
Q 1034 2022 892 1576 
Q 750 1131 750 763 
z
" transform="scale(0.015625)"/>
      <path id="Cmr10-3d" d="M 481 850 
Q 428 850 393 890 
Q 359 931 359 978 
Q 359 1031 393 1068 
Q 428 1106 481 1106 
L 4500 1106 
Q 4547 1106 4581 1068 
Q 4616 1031 4616 978 
Q 4616 931 4581 890 
Q 4547 850 4500 850 
L 481 850 
z
M 481 2094 
Q 428 2094 393 2131 
Q 359 2169 359 2222 
Q 359 2269 393 2309 
Q 428 2350 481 2350 
L 4500 2350 
Q 4547 2350 4581 2309 
Q 4616 2269 4616 2222 
Q 4616 2169 4581 2131 
Q 4547 2094 4500 2094 
L 481 2094 
z
" transform="scale(0.015625)"/>
      <path id="Cmr10-30" d="M 1600 -141 
Q 816 -141 533 504 
Q 250 1150 250 2041 
Q 250 2597 351 3087 
Q 453 3578 754 3920 
Q 1056 4263 1600 4263 
Q 2022 4263 2290 4056 
Q 2559 3850 2700 3523 
Q 2841 3197 2892 2823 
Q 2944 2450 2944 2041 
Q 2944 1491 2842 1011 
Q 2741 531 2444 195 
Q 2147 -141 1600 -141 
z
M 1600 25 
Q 1956 25 2131 390 
Q 2306 756 2347 1200 
Q 2388 1644 2388 2144 
Q 2388 2625 2347 3031 
Q 2306 3438 2132 3767 
Q 1959 4097 1600 4097 
Q 1238 4097 1063 3765 
Q 888 3434 847 3029 
Q 806 2625 806 2144 
Q 806 1788 823 1472 
Q 841 1156 916 820 
Q 991 484 1158 254 
Q 1325 25 1600 25 
z
" transform="scale(0.015625)"/>
      <path id="Cmmi10-3a" d="M 538 353 
Q 538 497 644 600 
Q 750 703 891 703 
Q 978 703 1062 656 
Q 1147 609 1194 525 
Q 1241 441 1241 353 
Q 1241 213 1137 106 
Q 1034 0 891 0 
Q 750 0 644 106 
Q 538 213 538 353 
z
" transform="scale(0.015625)"/>
      <path id="Cmr10-35" d="M 556 728 
Q 622 541 758 387 
Q 894 234 1080 148 
Q 1266 63 1466 63 
Q 1928 63 2103 422 
Q 2278 781 2278 1294 
Q 2278 1516 2270 1667 
Q 2263 1819 2228 1959 
Q 2169 2184 2020 2353 
Q 1872 2522 1656 2522 
Q 1441 2522 1286 2456 
Q 1131 2391 1034 2303 
Q 938 2216 863 2119 
Q 788 2022 769 2016 
L 697 2016 
Q 681 2016 657 2036 
Q 634 2056 634 2075 
L 634 4213 
Q 634 4228 654 4245 
Q 675 4263 697 4263 
L 716 4263 
Q 1147 4056 1631 4056 
Q 2106 4056 2547 4263 
L 2566 4263 
Q 2588 4263 2606 4247 
Q 2625 4231 2625 4213 
L 2625 4153 
Q 2625 4122 2613 4122 
Q 2394 3831 2064 3668 
Q 1734 3506 1381 3506 
Q 1125 3506 856 3578 
L 856 2369 
Q 1069 2541 1236 2614 
Q 1403 2688 1663 2688 
Q 2016 2688 2295 2484 
Q 2575 2281 2725 1954 
Q 2875 1628 2875 1288 
Q 2875 903 2686 575 
Q 2497 247 2172 53 
Q 1847 -141 1466 -141 
Q 1150 -141 886 21 
Q 622 184 470 459 
Q 319 734 319 1044 
Q 319 1188 412 1278 
Q 506 1369 647 1369 
Q 788 1369 883 1276 
Q 978 1184 978 1044 
Q 978 906 883 811 
Q 788 716 647 716 
Q 625 716 597 720 
Q 569 725 556 728 
z
" transform="scale(0.015625)"/>
      <path id="DejaVuSerif-Bold-29" d="M 325 -997 
L 325 -622 
Q 819 -322 1036 267 
Q 1253 856 1253 1931 
Q 1253 3009 1036 3598 
Q 819 4188 325 4488 
L 325 4863 
Q 1391 4450 1905 3731 
Q 2419 3013 2419 1931 
Q 2419 850 1898 122 
Q 1378 -606 325 -997 
z
" transform="scale(0.015625)"/>
     </defs>
     <use xlink:href="#DejaVuSerif-Bold-4e" transform="translate(0 0.015625)"/>
     <use xlink:href="#DejaVuSerif-Bold-65" transform="translate(91.40625 0.015625)"/>
     <use xlink:href="#DejaVuSerif-Bold-61" transform="translate(155.029297 0.015625)"/>
     <use xlink:href="#DejaVuSerif-Bold-72" transform="translate(219.824219 0.015625)"/>
     <use xlink:href="#DejaVuSerif-Bold-2d" transform="translate(272.509766 0.015625)"/>
     <use xlink:href="#DejaVuSerif-Bold-70" transform="translate(314.013672 0.015625)"/>
     <use xlink:href="#DejaVuSerif-Bold-65" transform="translate(383.935547 0.015625)"/>
     <use xlink:href="#DejaVuSerif-Bold-72" transform="translate(447.558594 0.015625)"/>
     <use xlink:href="#DejaVuSerif-Bold-66" transform="translate(500.244141 0.015625)"/>
     <use xlink:href="#DejaVuSerif-Bold-65" transform="translate(543.261719 0.015625)"/>
     <use xlink:href="#DejaVuSerif-Bold-63" transform="translate(606.884766 0.015625)"/>
     <use xlink:href="#DejaVuSerif-Bold-74" transform="translate(667.773438 0.015625)"/>
     <use xlink:href="#DejaVuSerif-Bold-20" transform="translate(713.964844 0.015625)"/>
     <use xlink:href="#DejaVuSerif-Bold-61" transform="translate(748.779297 0.015625)"/>
     <use xlink:href="#DejaVuSerif-Bold-64" transform="translate(813.574219 0.015625)"/>
     <use xlink:href="#DejaVuSerif-Bold-61" transform="translate(883.496094 0.015625)"/>
     <use xlink:href="#DejaVuSerif-Bold-70" transform="translate(948.291016 0.015625)"/>
     <use xlink:href="#DejaVuSerif-Bold-74" transform="translate(1018.212891 0.015625)"/>
     <use xlink:href="#DejaVuSerif-Bold-61" transform="translate(1064.404297 0.015625)"/>
     <use xlink:href="#DejaVuSerif-Bold-74" transform="translate(1129.199219 0.015625)"/>
     <use xlink:href="#DejaVuSerif-Bold-69" transform="translate(1175.390625 0.015625)"/>
     <use xlink:href="#DejaVuSerif-Bold-6f" transform="translate(1213.378906 0.015625)"/>
     <use xlink:href="#DejaVuSerif-Bold-6e" transform="translate(1280.078125 0.015625)"/>
     <use xlink:href="#DejaVuSerif-Bold-20" transform="translate(1352.783203 0.015625)"/>
     <use xlink:href="#DejaVuSerif-Bold-28" transform="translate(1387.597656 0.015625)"/>
     <use xlink:href="#DejaVuSerif-Bold-73" transform="translate(1434.912109 0.015625)"/>
     <use xlink:href="#DejaVuSerif-Bold-74" transform="translate(1491.210938 0.015625)"/>
     <use xlink:href="#DejaVuSerif-Bold-6f" transform="translate(1537.402344 0.015625)"/>
     <use xlink:href="#DejaVuSerif-Bold-63" transform="translate(1604.101562 0.015625)"/>
     <use xlink:href="#DejaVuSerif-Bold-68" transform="translate(1664.990234 0.015625)"/>
     <use xlink:href="#DejaVuSerif-Bold-61" transform="translate(1737.695312 0.015625)"/>
     <use xlink:href="#DejaVuSerif-Bold-73" transform="translate(1802.490234 0.015625)"/>
     <use xlink:href="#DejaVuSerif-Bold-74" transform="translate(1858.789062 0.015625)"/>
     <use xlink:href="#DejaVuSerif-Bold-69" transform="translate(1904.980469 0.015625)"/>
     <use xlink:href="#DejaVuSerif-Bold-63" transform="translate(1942.96875 0.015625)"/>
     <use xlink:href="#DejaVuSerif-Bold-2c" transform="translate(2003.857422 0.015625)"/>
     <use xlink:href="#DejaVuSerif-Bold-20" transform="translate(2038.671875 0.015625)"/>
     <use xlink:href="#Cmmi10-b0" transform="translate(2073.486328 0.015625)"/>
     <use xlink:href="#Cmmi10-63" transform="translate(2125.195312 -16.990625) scale(0.7)"/>
     <use xlink:href="#Cmr10-3d" transform="translate(2179.380273 0.015625)"/>
     <use xlink:href="#Cmr10-30" transform="translate(2274.624414 0.015625)"/>
     <use xlink:href="#Cmmi10-3a" transform="translate(2324.624414 0.015625)"/>
     <use xlink:href="#Cmr10-31" transform="translate(2352.309961 0.015625)"/>
     <use xlink:href="#Cmr10-35" transform="translate(2402.309961 0.015625)"/>
     <use xlink:href="#DejaVuSerif-Bold-29" transform="translate(2452.309961 0.015625)"/>
    </g>
   </g>
   <g id="legend_1">
    <g id="patch_5">
     <path d="M 522.86125 94.772422 
L 654.32125 94.772422 
Q 656.42125 94.772422 656.42125 92.672422 
L 656.42125 31.19 
Q 656.42125 29.09 654.32125 29.09 
L 522.86125 29.09 
Q 520.76125 29.09 520.76125 31.19 
L 520.76125 92.672422 
Q 520.76125 94.772422 522.86125 94.772422 
z
" style="fill: #ffffff; opacity: 0.95; stroke: #bfbfbf; stroke-linejoin: miter"/>
    </g>
    <g id="line2d_39">
     <path d="M 524.96125 37.593359 
L 535.46125 37.593359 
L 545.96125 37.593359 
" style="fill: none; stroke: #0072bd; stroke-opacity: 0.2; stroke-width: 0.5; stroke-linecap: square"/>
    </g>
    <g id="text_21">
     <!-- Sample paths -->
     <g transform="translate(554.36125 41.268359) scale(0.105 -0.105)">
      <defs>
       <path id="DejaVuSerif-53" d="M 594 225 
L 594 1288 
L 953 1284 
Q 969 753 1261 498 
Q 1553 244 2150 244 
Q 2706 244 2998 464 
Q 3291 684 3291 1106 
Q 3291 1444 3114 1625 
Q 2938 1806 2369 1978 
L 1753 2163 
Q 1084 2366 811 2669 
Q 538 2972 538 3500 
Q 538 4094 959 4422 
Q 1381 4750 2144 4750 
Q 2469 4750 2856 4679 
Q 3244 4609 3681 4475 
L 3681 3481 
L 3328 3481 
Q 3275 3975 2998 4195 
Q 2722 4416 2156 4416 
Q 1663 4416 1405 4214 
Q 1147 4013 1147 3628 
Q 1147 3294 1340 3103 
Q 1534 2913 2163 2725 
L 2741 2553 
Q 3375 2363 3645 2067 
Q 3916 1772 3916 1275 
Q 3916 597 3481 253 
Q 3047 -91 2188 -91 
Q 1803 -91 1404 -12 
Q 1006 66 594 225 
z
" transform="scale(0.015625)"/>
       <path id="DejaVuSerif-61" d="M 2547 1044 
L 2547 1747 
L 1806 1747 
Q 1378 1747 1168 1562 
Q 959 1378 959 997 
Q 959 650 1171 447 
Q 1384 244 1747 244 
Q 2106 244 2326 466 
Q 2547 688 2547 1044 
z
M 3122 2075 
L 3122 331 
L 3634 331 
L 3634 0 
L 2547 0 
L 2547 359 
Q 2356 128 2106 18 
Q 1856 -91 1522 -91 
Q 969 -91 644 203 
Q 319 497 319 997 
Q 319 1513 691 1797 
Q 1063 2081 1741 2081 
L 2547 2081 
L 2547 2309 
Q 2547 2688 2317 2895 
Q 2088 3103 1672 3103 
Q 1328 3103 1125 2947 
Q 922 2791 872 2484 
L 575 2484 
L 575 3156 
Q 875 3284 1158 3348 
Q 1441 3413 1709 3413 
Q 2400 3413 2761 3070 
Q 3122 2728 3122 2075 
z
" transform="scale(0.015625)"/>
       <path id="DejaVuSerif-70" d="M 1313 1825 
L 1313 1497 
Q 1313 897 1542 583 
Q 1772 269 2209 269 
Q 2650 269 2876 622 
Q 3103 975 3103 1663 
Q 3103 2353 2876 2703 
Q 2650 3053 2209 3053 
Q 1772 3053 1542 2737 
Q 1313 2422 1313 1825 
z
M 738 2988 
L 184 2988 
L 184 3322 
L 1313 3322 
L 1313 2803 
Q 1481 3116 1742 3264 
Q 2003 3413 2388 3413 
Q 3000 3413 3387 2928 
Q 3775 2444 3775 1663 
Q 3775 881 3387 395 
Q 3000 -91 2388 -91 
Q 2003 -91 1742 57 
Q 1481 206 1313 519 
L 1313 -997 
L 1856 -997 
L 1856 -1331 
L 184 -1331 
L 184 -997 
L 738 -997 
L 738 2988 
z
" transform="scale(0.015625)"/>
       <path id="DejaVuSerif-6c" d="M 1313 331 
L 1856 331 
L 1856 0 
L 184 0 
L 184 331 
L 738 331 
L 738 4531 
L 184 4531 
L 184 4863 
L 1313 4863 
L 1313 331 
z
" transform="scale(0.015625)"/>
       <path id="DejaVuSerif-68" d="M 263 0 
L 263 331 
L 781 331 
L 781 4531 
L 231 4531 
L 231 4863 
L 1356 4863 
L 1356 2731 
Q 1516 3069 1770 3241 
Q 2025 3413 2363 3413 
Q 2913 3413 3172 3097 
Q 3431 2781 3431 2113 
L 3431 331 
L 3944 331 
L 3944 0 
L 2356 0 
L 2356 331 
L 2853 331 
L 2853 1931 
Q 2853 2541 2704 2764 
Q 2556 2988 2175 2988 
Q 1775 2988 1565 2697 
Q 1356 2406 1356 1850 
L 1356 331 
L 1856 331 
L 1856 0 
L 263 0 
z
" transform="scale(0.015625)"/>
       <path id="DejaVuSerif-73" d="M 359 184 
L 359 959 
L 691 959 
Q 703 588 923 403 
Q 1144 219 1575 219 
Q 1963 219 2166 364 
Q 2369 509 2369 788 
Q 2369 1006 2220 1140 
Q 2072 1275 1594 1428 
L 1178 1569 
Q 750 1706 558 1912 
Q 366 2119 366 2438 
Q 366 2894 700 3153 
Q 1034 3413 1625 3413 
Q 1888 3413 2178 3344 
Q 2469 3275 2778 3144 
L 2778 2419 
L 2447 2419 
Q 2434 2741 2221 2922 
Q 2009 3103 1644 3103 
Q 1281 3103 1095 2975 
Q 909 2847 909 2591 
Q 909 2381 1050 2254 
Q 1191 2128 1613 1997 
L 2069 1856 
Q 2541 1709 2748 1489 
Q 2956 1269 2956 922 
Q 2956 450 2595 179 
Q 2234 -91 1600 -91 
Q 1278 -91 972 -22 
Q 666 47 359 184 
z
" transform="scale(0.015625)"/>
      </defs>
      <use xlink:href="#DejaVuSerif-53"/>
      <use xlink:href="#DejaVuSerif-61" transform="translate(68.505859 0)"/>
      <use xlink:href="#DejaVuSerif-6d" transform="translate(128.125 0)"/>
      <use xlink:href="#DejaVuSerif-70" transform="translate(222.949219 0)"/>
      <use xlink:href="#DejaVuSerif-6c" transform="translate(286.962891 0)"/>
      <use xlink:href="#DejaVuSerif-65" transform="translate(318.945312 0)"/>
      <use xlink:href="#DejaVuSerif-20" transform="translate(378.125 0)"/>
      <use xlink:href="#DejaVuSerif-70" transform="translate(409.912109 0)"/>
      <use xlink:href="#DejaVuSerif-61" transform="translate(473.925781 0)"/>
      <use xlink:href="#DejaVuSerif-74" transform="translate(533.544922 0)"/>
      <use xlink:href="#DejaVuSerif-68" transform="translate(573.730469 0)"/>
      <use xlink:href="#DejaVuSerif-73" transform="translate(638.134766 0)"/>
     </g>
    </g>
    <g id="line2d_40">
     <path d="M 524.96125 53.005391 
L 535.46125 53.005391 
L 545.96125 53.005391 
" style="fill: none; stroke-dasharray: 6.66,2.88; stroke-dashoffset: 0; stroke: #d95319; stroke-opacity: 0.7; stroke-width: 1.8"/>
    </g>
    <g id="text_22">
     <!-- Deterministic -->
     <g transform="translate(554.36125 56.680391) scale(0.105 -0.105)">
      <defs>
       <path id="DejaVuSerif-44" d="M 1581 331 
L 2163 331 
Q 3072 331 3558 850 
Q 4044 1369 4044 2338 
Q 4044 3306 3559 3818 
Q 3075 4331 2163 4331 
L 1581 4331 
L 1581 331 
z
M 353 0 
L 353 331 
L 947 331 
L 947 4331 
L 353 4331 
L 353 4666 
L 2209 4666 
Q 3416 4666 4089 4050 
Q 4763 3434 4763 2338 
Q 4763 1238 4088 619 
Q 3413 0 2209 0 
L 353 0 
z
" transform="scale(0.015625)"/>
       <path id="DejaVuSerif-63" d="M 3291 997 
Q 3169 466 2822 187 
Q 2475 -91 1925 -91 
Q 1200 -91 759 389 
Q 319 869 319 1663 
Q 319 2459 759 2936 
Q 1200 3413 1925 3413 
Q 2241 3413 2553 3339 
Q 2866 3266 3181 3116 
L 3181 2266 
L 2847 2266 
Q 2781 2703 2561 2903 
Q 2341 3103 1931 3103 
Q 1466 3103 1228 2742 
Q 991 2381 991 1663 
Q 991 944 1227 581 
Q 1463 219 1931 219 
Q 2303 219 2525 412 
Q 2747 606 2828 997 
L 3291 997 
z
" transform="scale(0.015625)"/>
      </defs>
      <use xlink:href="#DejaVuSerif-44"/>
      <use xlink:href="#DejaVuSerif-65" transform="translate(80.175781 0)"/>
      <use xlink:href="#DejaVuSerif-74" transform="translate(139.355469 0)"/>
      <use xlink:href="#DejaVuSerif-65" transform="translate(179.541016 0)"/>
      <use xlink:href="#DejaVuSerif-72" transform="translate(238.720703 0)"/>
      <use xlink:href="#DejaVuSerif-6d" transform="translate(286.523438 0)"/>
      <use xlink:href="#DejaVuSerif-69" transform="translate(381.347656 0)"/>
      <use xlink:href="#DejaVuSerif-6e" transform="translate(413.330078 0)"/>
      <use xlink:href="#DejaVuSerif-69" transform="translate(477.734375 0)"/>
      <use xlink:href="#DejaVuSerif-73" transform="translate(509.716797 0)"/>
      <use xlink:href="#DejaVuSerif-74" transform="translate(561.035156 0)"/>
      <use xlink:href="#DejaVuSerif-69" transform="translate(601.220703 0)"/>
      <use xlink:href="#DejaVuSerif-63" transform="translate(633.203125 0)"/>
     </g>
    </g>
    <g id="line2d_41">
     <path d="M 524.96125 68.419062 
L 535.46125 68.419062 
L 545.96125 68.419062 
" style="fill: none; stroke: #0072bd; stroke-width: 2.5; stroke-linecap: square"/>
    </g>
    <g id="text_23">
     <!-- $E[P(t)]$ (1000 runs) -->
     <g transform="translate(554.36125 72.094062) scale(0.105 -0.105)">
      <defs>
       <path id="Cmmi10-45" d="M 300 0 
Q 238 0 238 84 
Q 241 100 250 139 
Q 259 178 276 201 
Q 294 225 319 225 
Q 709 225 863 269 
Q 947 297 984 441 
L 1863 3956 
Q 1875 4019 1875 4044 
Q 1875 4113 1797 4122 
Q 1678 4147 1338 4147 
Q 1275 4147 1275 4231 
Q 1278 4247 1287 4286 
Q 1297 4325 1314 4348 
Q 1331 4372 1356 4372 
L 4825 4372 
Q 4891 4372 4891 4288 
L 4738 2963 
Q 4738 2947 4714 2926 
Q 4691 2906 4672 2906 
L 4616 2906 
Q 4550 2906 4550 2988 
Q 4588 3300 4588 3450 
Q 4588 3706 4500 3848 
Q 4413 3991 4267 4053 
Q 4122 4116 3945 4131 
Q 3769 4147 3481 4147 
L 2753 4147 
Q 2578 4147 2522 4117 
Q 2466 4088 2419 3928 
L 2034 2381 
L 2534 2381 
Q 2859 2381 3025 2426 
Q 3191 2472 3287 2615 
Q 3384 2759 3463 3072 
Q 3469 3094 3486 3111 
Q 3503 3128 3525 3128 
L 3584 3128 
Q 3647 3128 3647 3047 
L 3250 1466 
Q 3238 1409 3188 1409 
L 3128 1409 
Q 3066 1409 3066 1491 
Q 3128 1747 3128 1869 
Q 3128 2056 2959 2106 
Q 2791 2156 2509 2156 
L 1978 2156 
L 1544 416 
Q 1516 338 1516 275 
Q 1516 225 1734 225 
L 2509 225 
Q 2972 225 3259 297 
Q 3547 369 3736 526 
Q 3925 684 4062 928 
Q 4200 1172 4397 1638 
Q 4409 1678 4453 1678 
L 4513 1678 
Q 4538 1678 4556 1656 
Q 4575 1634 4575 1606 
Q 4575 1594 4569 1581 
L 3909 38 
Q 3897 0 3859 0 
L 300 0 
z
" transform="scale(0.015625)"/>
       <path id="Cmr10-5b" d="M 756 -1600 
L 756 4800 
L 1631 4800 
L 1631 4544 
L 1013 4544 
L 1013 -1344 
L 1631 -1344 
L 1631 -1600 
L 756 -1600 
z
" transform="scale(0.015625)"/>
       <path id="Cmr10-5d" d="M 141 -1600 
L 141 -1344 
L 763 -1344 
L 763 4544 
L 141 4544 
L 141 4800 
L 1019 4800 
L 1019 -1600 
L 141 -1600 
z
" transform="scale(0.015625)"/>
       <path id="DejaVuSerif-28" d="M 2041 -997 
Q 1281 -656 893 83 
Q 506 822 506 1931 
Q 506 3044 893 3783 
Q 1281 4522 2041 4863 
L 2041 4556 
Q 1559 4225 1350 3623 
Q 1141 3022 1141 1931 
Q 1141 844 1350 242 
Q 1559 -359 2041 -691 
L 2041 -997 
z
" transform="scale(0.015625)"/>
       <path id="DejaVuSerif-75" d="M 2266 3322 
L 3341 3322 
L 3341 331 
L 3884 331 
L 3884 0 
L 2766 0 
L 2766 588 
Q 2606 256 2353 82 
Q 2100 -91 1766 -91 
Q 1213 -91 952 223 
Q 691 538 691 1209 
L 691 2988 
L 172 2988 
L 172 3322 
L 1269 3322 
L 1269 1388 
Q 1269 781 1417 556 
Q 1566 331 1947 331 
Q 2347 331 2556 625 
Q 2766 919 2766 1478 
L 2766 2988 
L 2266 2988 
L 2266 3322 
z
" transform="scale(0.015625)"/>
       <path id="DejaVuSerif-29" d="M 453 -997 
L 453 -691 
Q 934 -359 1145 242 
Q 1356 844 1356 1931 
Q 1356 3022 1145 3623 
Q 934 4225 453 4556 
L 453 4863 
Q 1216 4522 1603 3783 
Q 1991 3044 1991 1931 
Q 1991 822 1603 83 
Q 1216 -656 453 -997 
z
" transform="scale(0.015625)"/>
      </defs>
      <use xlink:href="#Cmmi10-45" transform="translate(0 0.015625)"/>
      <use xlink:href="#Cmr10-5b" transform="translate(73.779297 0.015625)"/>
      <use xlink:href="#Cmmi10-50" transform="translate(101.464844 0.015625)"/>
      <use xlink:href="#Cmr10-28" transform="translate(165.673828 0.015625)"/>
      <use xlink:href="#Cmmi10-74" transform="translate(204.492188 0.015625)"/>
      <use xlink:href="#Cmr10-29" transform="translate(240.576172 0.015625)"/>
      <use xlink:href="#Cmr10-5d" transform="translate(279.394531 0.015625)"/>
      <use xlink:href="#DejaVuSerif-20" transform="translate(307.080078 0.015625)"/>
      <use xlink:href="#DejaVuSerif-28" transform="translate(338.867188 0.015625)"/>
      <use xlink:href="#DejaVuSerif-31" transform="translate(377.880859 0.015625)"/>
      <use xlink:href="#DejaVuSerif-30" transform="translate(441.503906 0.015625)"/>
      <use xlink:href="#DejaVuSerif-30" transform="translate(505.126953 0.015625)"/>
      <use xlink:href="#DejaVuSerif-30" transform="translate(568.75 0.015625)"/>
      <use xlink:href="#DejaVuSerif-20" transform="translate(632.373047 0.015625)"/>
      <use xlink:href="#DejaVuSerif-72" transform="translate(664.160156 0.015625)"/>
      <use xlink:href="#DejaVuSerif-75" transform="translate(711.962891 0.015625)"/>
      <use xlink:href="#DejaVuSerif-6e" transform="translate(776.367188 0.015625)"/>
      <use xlink:href="#DejaVuSerif-73" transform="translate(840.771484 0.015625)"/>
      <use xlink:href="#DejaVuSerif-29" transform="translate(892.089844 0.015625)"/>
     </g>
    </g>
    <g id="line2d_42">
     <path d="M 524.96125 84.272422 
L 535.46125 84.272422 
L 545.96125 84.272422 
" style="fill: none; stroke-dasharray: 7.4,3.2; stroke-dashoffset: 0; stroke: #77ac30; stroke-width: 2"/>
    </g>
    <g id="text_24">
     <!-- $\mu/\theta = 1$ -->
     <g transform="translate(554.36125 87.947422) scale(0.105 -0.105)">
      <defs>
       <path id="Cmmi10-b9" d="M 178 -1203 
Q 178 -1166 184 -1153 
L 1125 2625 
Q 1153 2716 1226 2772 
Q 1300 2828 1394 2828 
Q 1475 2828 1531 2779 
Q 1588 2731 1588 2650 
Q 1588 2631 1586 2620 
Q 1584 2609 1581 2597 
L 1203 1100 
Q 1141 834 1141 641 
Q 1141 403 1253 250 
Q 1366 97 1594 97 
Q 2059 97 2413 678 
Q 2416 684 2417 687 
Q 2419 691 2419 697 
L 2881 2553 
Q 2903 2638 2981 2698 
Q 3059 2759 3150 2759 
Q 3225 2759 3283 2709 
Q 3341 2659 3341 2578 
Q 3341 2541 3334 2528 
L 2875 684 
Q 2828 503 2828 372 
Q 2828 97 3016 97 
Q 3216 97 3317 344 
Q 3419 591 3494 941 
Q 3506 978 3547 978 
L 3622 978 
Q 3647 978 3664 958 
Q 3681 938 3681 916 
Q 3569 469 3436 198 
Q 3303 -72 3003 -72 
Q 2791 -72 2627 50 
Q 2463 172 2413 378 
Q 2253 178 2039 53 
Q 1825 -72 1588 -72 
Q 1188 -72 959 116 
L 634 -1178 
Q 616 -1269 541 -1325 
Q 466 -1381 372 -1381 
Q 294 -1381 236 -1332 
Q 178 -1284 178 -1203 
z
" transform="scale(0.015625)"/>
       <path id="Cmmi10-3d" d="M 359 -1472 
Q 359 -1453 366 -1447 
L 2591 4722 
Q 2603 4759 2634 4779 
Q 2666 4800 2706 4800 
Q 2763 4800 2798 4765 
Q 2834 4731 2834 4672 
L 2834 4647 
L 609 -1522 
Q 572 -1600 488 -1600 
Q 434 -1600 396 -1562 
Q 359 -1525 359 -1472 
z
" transform="scale(0.015625)"/>
       <path id="Cmmi10-b5" d="M 1031 -72 
Q 741 -72 566 140 
Q 391 353 323 653 
Q 256 953 256 1247 
L 256 1253 
Q 256 1572 317 1915 
Q 378 2259 493 2601 
Q 609 2944 744 3213 
Q 838 3400 986 3631 
Q 1134 3863 1317 4064 
Q 1500 4266 1711 4389 
Q 1922 4513 2138 4513 
L 2144 4513 
Q 2375 4513 2529 4384 
Q 2684 4256 2770 4056 
Q 2856 3856 2890 3628 
Q 2925 3400 2925 3194 
Q 2925 2709 2794 2204 
Q 2663 1700 2431 1228 
Q 2344 1050 2189 809 
Q 2034 569 1861 378 
Q 1688 188 1472 58 
Q 1256 -72 1038 -72 
L 1031 -72 
z
M 1044 97 
Q 1256 97 1451 323 
Q 1647 550 1794 873 
Q 1941 1197 2052 1536 
Q 2163 1875 2216 2113 
L 909 2113 
Q 809 1709 753 1417 
Q 697 1125 697 844 
Q 697 97 1044 97 
z
M 959 2338 
L 2272 2338 
Q 2341 2619 2381 2808 
Q 2422 2997 2450 3206 
Q 2478 3416 2478 3597 
Q 2478 4347 2138 4347 
Q 1731 4347 1436 3692 
Q 1141 3038 959 2338 
z
" transform="scale(0.015625)"/>
      </defs>
      <use xlink:href="#Cmmi10-b9"/>
      <use xlink:href="#Cmmi10-3d" transform="translate(60.205078 0)"/>
      <use xlink:href="#Cmmi10-b5" transform="translate(110.205078 0)"/>
      <use xlink:href="#Cmr10-3d" transform="translate(174.6875 0)"/>
      <use xlink:href="#Cmr10-31" transform="translate(269.931641 0)"/>
     </g>
    </g>
   </g>
  </g>
 </g>
 <defs>
  <clipPath id="pdddbd32b2b">
   <rect x="42.47125" y="23.84" width="619.2" height="262.8"/>
  </clipPath>
 </defs>
</svg>
