<?xml version="1.0" encoding="utf-8" standalone="no"?>
<!DOCTYPE svg PUBLIC "-//W3C//DTD SVG 1.1//EN"
  "http://www.w3.org/Graphics/SVG/1.1/DTD/svg11.dtd">
<svg xmlns:xlink="http://www.w3.org/1999/xlink" width="677.1425pt" height="332.906562pt" viewBox="0 0 677.1425 332.906562" xmlns="http://www.w3.org/2000/svg" version="1.1">
 <metadata>
  <rdf:RDF xmlns:dc="http://purl.org/dc/elements/1.1/" xmlns:cc="http://creativecommons.org/ns#" xmlns:rdf="http://www.w3.org/1999/02/22-rdf-syntax-ns#">
   <cc:Work>
    <dc:type rdf:resource="http://purl.org/dc/dcmitype/StillImage"/>
    <dc:date>2026-06-11T06:12:52.710057</dc:date>
    <dc:format>image/svg+xml</dc:format>
    <dc:creator>
     <cc:Agent>
      <dc:title>Matplotlib v3.10.8, https://matplotlib.org/</dc:title>
     </cc:Agent>
    </dc:creator>
   </cc:Work>
  </rdf:RDF>
 </metadata>
 <defs>
  <style type="text/css">*{stroke-linejoin: round; stroke-linecap: butt}</style>
 </defs>
 <g id="figure_1">
  <g id="patch_1">
   <path d="M 0 332.906562 
L 677.1425 332.906562 
L 677.1425 0 
L 0 0 
z
" style="fill: #ffffff"/>
  </g>
  <g id="axes_1">
   <g id="patch_2">
    <path d="M 42.47125 286.64 
L 661.67125 286.64 
L 661.67125 23.84 
L 42.47125 23.84 
z
" style="fill: #ffffff"/>
   </g>
   <g id="matplotlib.axis_1">
    <g id="xtick_1">
     <g id="line2d_1">
      <path d="M 42.47125 286.64 
L 42.47125 23.84 
" clip-path="url(#p9a0da09d34)" style="fill: none; stroke: #b0b0b0; stroke-opacity: 0.15; stroke-width: 0.8; stroke-linecap: square"/>
     </g>
     <g id="line2d_2">
      <defs>
       <path id="m233862ee22" d="M 0 0 
L 0 3.5 
" style="stroke: #000000; stroke-width: 0.8"/>
      </defs>
      <g>
       <use xlink:href="#m233862ee22" x="42.47125" y="286.64" style="stroke: #000000; stroke-width: 0.8"/>
      </g>
     </g>
     <g id="text_1">
      <!-- 0 -->
      <g transform="translate(38.335625 303.517969) scale(0.13 -0.13)">
       <defs>
        <path id="DejaVuSerif-30" d="M 2034 219 
Q 2513 219 2750 744 
Q 2988 1269 2988 2328 
Q 2988 3391 2750 3916 
Q 2513 4441 2034 4441 
Q 1556 4441 1318 3916 
Q 1081 3391 1081 2328 
Q 1081 1269 1318 744 
Q 1556 219 2034 219 
z
M 2034 -91 
Q 1275 -91 848 546 
Q 422 1184 422 2328 
Q 422 3475 848 4112 
Q 1275 4750 2034 4750 
Q 2797 4750 3222 4112 
Q 3647 3475 3647 2328 
Q 3647 1184 3222 546 
Q 2797 -91 2034 -91 
z
" transform="scale(0.015625)"/>
       </defs>
       <use xlink:href="#DejaVuSerif-30"/>
      </g>
     </g>
    </g>
    <g id="xtick_2">
     <g id="line2d_3">
      <path d="M 119.87125 286.64 
L 119.87125 23.84 
" clip-path="url(#p9a0da09d34)" style="fill: none; stroke: #b0b0b0; stroke-opacity: 0.15; stroke-width: 0.8; stroke-linecap: square"/>
     </g>
     <g id="line2d_4">
      <g>
       <use xlink:href="#m233862ee22" x="119.87125" y="286.64" style="stroke: #000000; stroke-width: 0.8"/>
      </g>
     </g>
     <g id="text_2">
      <!-- 10 -->
      <g transform="translate(111.6 303.517969) scale(0.13 -0.13)">
       <defs>
        <path id="DejaVuSerif-31" d="M 909 0 
L 909 331 
L 1722 331 
L 1722 4213 
L 781 3603 
L 781 4013 
L 1919 4750 
L 2350 4750 
L 2350 331 
L 3163 331 
L 3163 0 
L 909 0 
z
" transform="scale(0.015625)"/>
       </defs>
       <use xlink:href="#DejaVuSerif-31"/>
       <use xlink:href="#DejaVuSerif-30" transform="translate(63.623047 0)"/>
      </g>
     </g>
    </g>
    <g id="xtick_3">
     <g id="line2d_5">
      <path d="M 197.27125 286.64 
L 197.27125 23.84 
" clip-path="url(#p9a0da09d34)" style="fill: none; stroke: #b0b0b0; stroke-opacity: 0.15; stroke-width: 0.8; stroke-linecap: square"/>
     </g>
     <g id="line2d_6">
      <g>
       <use xlink:href="#m233862ee22" x="197.27125" y="286.64" style="stroke: #000000; stroke-width: 0.8"/>
      </g>
     </g>
     <g id="text_3">
      <!-- 20 -->
      <g transform="translate(189 303.517969) scale(0.13 -0.13)">
       <defs>
        <path id="DejaVuSerif-32" d="M 819 3553 
L 469 3553 
L 469 4384 
Q 803 4563 1142 4656 
Q 1481 4750 1806 4750 
Q 2534 4750 2956 4397 
Q 3378 4044 3378 3438 
Q 3378 2753 2422 1800 
Q 2347 1728 2309 1691 
L 1131 513 
L 3078 513 
L 3078 1088 
L 3444 1088 
L 3444 0 
L 434 0 
L 434 341 
L 1850 1753 
Q 2319 2222 2519 2614 
Q 2719 3006 2719 3438 
Q 2719 3909 2473 4175 
Q 2228 4441 1797 4441 
Q 1350 4441 1106 4219 
Q 863 3997 819 3553 
z
" transform="scale(0.015625)"/>
       </defs>
       <use xlink:href="#DejaVuSerif-32"/>
       <use xlink:href="#DejaVuSerif-30" transform="translate(63.623047 0)"/>
      </g>
     </g>
    </g>
    <g id="xtick_4">
     <g id="line2d_7">
      <path d="M 274.67125 286.64 
L 274.67125 23.84 
" clip-path="url(#p9a0da09d34)" style="fill: none; stroke: #b0b0b0; stroke-opacity: 0.15; stroke-width: 0.8; stroke-linecap: square"/>
     </g>
     <g id="line2d_8">
      <g>
       <use xlink:href="#m233862ee22" x="274.67125" y="286.64" style="stroke: #000000; stroke-width: 0.8"/>
      </g>
     </g>
     <g id="text_4">
      <!-- 30 -->
      <g transform="translate(266.4 303.517969) scale(0.13 -0.13)">
       <defs>
        <path id="DejaVuSerif-33" d="M 622 4469 
Q 988 4606 1323 4678 
Q 1659 4750 1953 4750 
Q 2638 4750 3022 4454 
Q 3406 4159 3406 3634 
Q 3406 3213 3140 2930 
Q 2875 2647 2388 2547 
Q 2963 2466 3280 2130 
Q 3597 1794 3597 1259 
Q 3597 606 3158 257 
Q 2719 -91 1894 -91 
Q 1528 -91 1179 -12 
Q 831 66 488 225 
L 488 1131 
L 838 1131 
Q 869 681 1141 450 
Q 1413 219 1906 219 
Q 2384 219 2661 495 
Q 2938 772 2938 1253 
Q 2938 1803 2653 2086 
Q 2369 2369 1819 2369 
L 1522 2369 
L 1522 2688 
L 1678 2688 
Q 2225 2688 2498 2914 
Q 2772 3141 2772 3597 
Q 2772 4006 2547 4223 
Q 2322 4441 1900 4441 
Q 1478 4441 1245 4241 
Q 1013 4041 972 3647 
L 622 3647 
L 622 4469 
z
" transform="scale(0.015625)"/>
       </defs>
       <use xlink:href="#DejaVuSerif-33"/>
       <use xlink:href="#DejaVuSerif-30" transform="translate(63.623047 0)"/>
      </g>
     </g>
    </g>
    <g id="xtick_5">
     <g id="line2d_9">
      <path d="M 352.07125 286.64 
L 352.07125 23.84 
" clip-path="url(#p9a0da09d34)" style="fill: none; stroke: #b0b0b0; stroke-opacity: 0.15; stroke-width: 0.8; stroke-linecap: square"/>
     </g>
     <g id="line2d_10">
      <g>
       <use xlink:href="#m233862ee22" x="352.07125" y="286.64" style="stroke: #000000; stroke-width: 0.8"/>
      </g>
     </g>
     <g id="text_5">
      <!-- 40 -->
      <g transform="translate(343.8 303.517969) scale(0.13 -0.13)">
       <defs>
        <path id="DejaVuSerif-34" d="M 2234 1581 
L 2234 4063 
L 641 1581 
L 2234 1581 
z
M 3609 0 
L 1484 0 
L 1484 331 
L 2234 331 
L 2234 1247 
L 197 1247 
L 197 1588 
L 2241 4750 
L 2859 4750 
L 2859 1581 
L 3750 1581 
L 3750 1247 
L 2859 1247 
L 2859 331 
L 3609 331 
L 3609 0 
z
" transform="scale(0.015625)"/>
       </defs>
       <use xlink:href="#DejaVuSerif-34"/>
       <use xlink:href="#DejaVuSerif-30" transform="translate(63.623047 0)"/>
      </g>
     </g>
    </g>
    <g id="xtick_6">
     <g id="line2d_11">
      <path d="M 429.47125 286.64 
L 429.47125 23.84 
" clip-path="url(#p9a0da09d34)" style="fill: none; stroke: #b0b0b0; stroke-opacity: 0.15; stroke-width: 0.8; stroke-linecap: square"/>
     </g>
     <g id="line2d_12">
      <g>
       <use xlink:href="#m233862ee22" x="429.47125" y="286.64" style="stroke: #000000; stroke-width: 0.8"/>
      </g>
     </g>
     <g id="text_6">
      <!-- 50 -->
      <g transform="translate(421.2 303.517969) scale(0.13 -0.13)">
       <defs>
        <path id="DejaVuSerif-35" d="M 3219 4666 
L 3219 4153 
L 1081 4153 
L 1081 2816 
Q 1244 2928 1461 2984 
Q 1678 3041 1947 3041 
Q 2703 3041 3140 2622 
Q 3578 2203 3578 1478 
Q 3578 738 3136 323 
Q 2694 -91 1894 -91 
Q 1572 -91 1234 -12 
Q 897 66 544 225 
L 544 1131 
L 897 1131 
Q 925 688 1179 453 
Q 1434 219 1894 219 
Q 2388 219 2653 544 
Q 2919 869 2919 1478 
Q 2919 2084 2655 2407 
Q 2391 2731 1894 2731 
Q 1613 2731 1398 2631 
Q 1184 2531 1019 2322 
L 750 2322 
L 750 4666 
L 3219 4666 
z
" transform="scale(0.015625)"/>
       </defs>
       <use xlink:href="#DejaVuSerif-35"/>
       <use xlink:href="#DejaVuSerif-30" transform="translate(63.623047 0)"/>
      </g>
     </g>
    </g>
    <g id="xtick_7">
     <g id="line2d_13">
      <path d="M 506.87125 286.64 
L 506.87125 23.84 
" clip-path="url(#p9a0da09d34)" style="fill: none; stroke: #b0b0b0; stroke-opacity: 0.15; stroke-width: 0.8; stroke-linecap: square"/>
     </g>
     <g id="line2d_14">
      <g>
       <use xlink:href="#m233862ee22" x="506.87125" y="286.64" style="stroke: #000000; stroke-width: 0.8"/>
      </g>
     </g>
     <g id="text_7">
      <!-- 60 -->
      <g transform="translate(498.6 303.517969) scale(0.13 -0.13)">
       <defs>
        <path id="DejaVuSerif-36" d="M 2094 219 
Q 2534 219 2771 542 
Q 3009 866 3009 1472 
Q 3009 2078 2771 2401 
Q 2534 2725 2094 2725 
Q 1647 2725 1412 2412 
Q 1178 2100 1178 1509 
Q 1178 888 1415 553 
Q 1653 219 2094 219 
z
M 1075 2569 
Q 1288 2803 1556 2918 
Q 1825 3034 2163 3034 
Q 2859 3034 3264 2615 
Q 3669 2197 3669 1472 
Q 3669 763 3233 336 
Q 2797 -91 2069 -91 
Q 1278 -91 853 498 
Q 428 1088 428 2181 
Q 428 3406 931 4078 
Q 1434 4750 2350 4750 
Q 2597 4750 2869 4703 
Q 3141 4656 3425 4563 
L 3425 3794 
L 3072 3794 
Q 3034 4109 2831 4275 
Q 2628 4441 2284 4441 
Q 1678 4441 1381 3981 
Q 1084 3522 1075 2569 
z
" transform="scale(0.015625)"/>
       </defs>
       <use xlink:href="#DejaVuSerif-36"/>
       <use xlink:href="#DejaVuSerif-30" transform="translate(63.623047 0)"/>
      </g>
     </g>
    </g>
    <g id="xtick_8">
     <g id="line2d_15">
      <path d="M 584.27125 286.64 
L 584.27125 23.84 
" clip-path="url(#p9a0da09d34)" style="fill: none; stroke: #b0b0b0; stroke-opacity: 0.15; stroke-width: 0.8; stroke-linecap: square"/>
     </g>
     <g id="line2d_16">
      <g>
       <use xlink:href="#m233862ee22" x="584.27125" y="286.64" style="stroke: #000000; stroke-width: 0.8"/>
      </g>
     </g>
     <g id="text_8">
      <!-- 70 -->
      <g transform="translate(576 303.517969) scale(0.13 -0.13)">
       <defs>
        <path id="DejaVuSerif-37" d="M 3609 4347 
L 1784 0 
L 1319 0 
L 3059 4153 
L 903 4153 
L 903 3578 
L 538 3578 
L 538 4666 
L 3609 4666 
L 3609 4347 
z
" transform="scale(0.015625)"/>
       </defs>
       <use xlink:href="#DejaVuSerif-37"/>
       <use xlink:href="#DejaVuSerif-30" transform="translate(63.623047 0)"/>
      </g>
     </g>
    </g>
    <g id="xtick_9">
     <g id="line2d_17">
      <path d="M 661.67125 286.64 
L 661.67125 23.84 
" clip-path="url(#p9a0da09d34)" style="fill: none; stroke: #b0b0b0; stroke-opacity: 0.15; stroke-width: 0.8; stroke-linecap: square"/>
     </g>
     <g id="line2d_18">
      <g>
       <use xlink:href="#m233862ee22" x="661.67125" y="286.64" style="stroke: #000000; stroke-width: 0.8"/>
      </g>
     </g>
     <g id="text_9">
      <!-- 80 -->
      <g transform="translate(653.4 303.517969) scale(0.13 -0.13)">
       <defs>
        <path id="DejaVuSerif-38" d="M 2981 1275 
Q 2981 1775 2732 2051 
Q 2484 2328 2034 2328 
Q 1584 2328 1336 2051 
Q 1088 1775 1088 1275 
Q 1088 772 1336 495 
Q 1584 219 2034 219 
Q 2484 219 2732 495 
Q 2981 772 2981 1275 
z
M 2853 3541 
Q 2853 3966 2637 4203 
Q 2422 4441 2034 4441 
Q 1650 4441 1433 4203 
Q 1216 3966 1216 3541 
Q 1216 3113 1433 2875 
Q 1650 2638 2034 2638 
Q 2422 2638 2637 2875 
Q 2853 3113 2853 3541 
z
M 2516 2484 
Q 3047 2413 3344 2092 
Q 3641 1772 3641 1275 
Q 3641 619 3225 264 
Q 2809 -91 2034 -91 
Q 1263 -91 845 264 
Q 428 619 428 1275 
Q 428 1772 725 2092 
Q 1022 2413 1556 2484 
Q 1084 2569 832 2842 
Q 581 3116 581 3541 
Q 581 4103 968 4426 
Q 1356 4750 2034 4750 
Q 2713 4750 3100 4426 
Q 3488 4103 3488 3541 
Q 3488 3116 3236 2842 
Q 2984 2569 2516 2484 
z
" transform="scale(0.015625)"/>
       </defs>
       <use xlink:href="#DejaVuSerif-38"/>
       <use xlink:href="#DejaVuSerif-30" transform="translate(63.623047 0)"/>
      </g>
     </g>
    </g>
    <g id="text_10">
     <!-- Time $t$ -->
     <g transform="translate(326.39125 322.379062) scale(0.16 -0.16)">
      <defs>
       <path id="DejaVuSerif-54" d="M 1222 0 
L 1222 331 
L 1819 331 
L 1819 4294 
L 447 4294 
L 447 3566 
L 63 3566 
L 63 4666 
L 4206 4666 
L 4206 3566 
L 3822 3566 
L 3822 4294 
L 2450 4294 
L 2450 331 
L 3047 331 
L 3047 0 
L 1222 0 
z
" transform="scale(0.015625)"/>
       <path id="DejaVuSerif-69" d="M 622 4353 
Q 622 4497 726 4603 
Q 831 4709 978 4709 
Q 1122 4709 1226 4603 
Q 1331 4497 1331 4353 
Q 1331 4206 1228 4103 
Q 1125 4000 978 4000 
Q 831 4000 726 4103 
Q 622 4206 622 4353 
z
M 1356 331 
L 1900 331 
L 1900 0 
L 231 0 
L 231 331 
L 781 331 
L 781 2988 
L 231 2988 
L 231 3322 
L 1356 3322 
L 1356 331 
z
" transform="scale(0.015625)"/>
       <path id="DejaVuSerif-6d" d="M 3316 2675 
Q 3481 3041 3739 3227 
Q 3997 3413 4341 3413 
Q 4863 3413 5119 3089 
Q 5375 2766 5375 2113 
L 5375 331 
L 5894 331 
L 5894 0 
L 4300 0 
L 4300 331 
L 4800 331 
L 4800 2047 
Q 4800 2556 4650 2772 
Q 4500 2988 4153 2988 
Q 3769 2988 3567 2697 
Q 3366 2406 3366 1850 
L 3366 331 
L 3866 331 
L 3866 0 
L 2291 0 
L 2291 331 
L 2791 331 
L 2791 2069 
Q 2791 2566 2641 2777 
Q 2491 2988 2144 2988 
Q 1759 2988 1557 2697 
Q 1356 2406 1356 1850 
L 1356 331 
L 1856 331 
L 1856 0 
L 263 0 
L 263 331 
L 781 331 
L 781 2994 
L 231 2994 
L 231 3322 
L 1356 3322 
L 1356 2731 
Q 1516 3063 1762 3238 
Q 2009 3413 2322 3413 
Q 2709 3413 2968 3220 
Q 3228 3028 3316 2675 
z
" transform="scale(0.015625)"/>
       <path id="DejaVuSerif-65" d="M 3469 1600 
L 991 1600 
L 991 1575 
Q 991 903 1244 561 
Q 1497 219 1991 219 
Q 2369 219 2611 417 
Q 2853 616 2950 1006 
L 3413 1006 
Q 3275 459 2904 184 
Q 2534 -91 1931 -91 
Q 1203 -91 761 389 
Q 319 869 319 1663 
Q 319 2450 753 2931 
Q 1188 3413 1894 3413 
Q 2647 3413 3050 2948 
Q 3453 2484 3469 1600 
z
M 2791 1931 
Q 2772 2513 2545 2808 
Q 2319 3103 1894 3103 
Q 1497 3103 1269 2806 
Q 1041 2509 991 1931 
L 2791 1931 
z
" transform="scale(0.015625)"/>
       <path id="DejaVuSerif-20" transform="scale(0.015625)"/>
       <path id="Cmmi10-74" d="M 397 519 
Q 397 613 416 697 
L 878 2534 
L 206 2534 
Q 141 2534 141 2619 
Q 166 2759 225 2759 
L 934 2759 
L 1191 3803 
Q 1216 3888 1291 3947 
Q 1366 4006 1459 4006 
Q 1541 4006 1595 3957 
Q 1650 3909 1650 3828 
Q 1650 3809 1648 3798 
Q 1647 3788 1644 3775 
L 1388 2759 
L 2047 2759 
Q 2113 2759 2113 2675 
Q 2109 2659 2100 2621 
Q 2091 2584 2075 2559 
Q 2059 2534 2028 2534 
L 1331 2534 
L 872 684 
Q 825 503 825 372 
Q 825 97 1013 97 
Q 1294 97 1511 361 
Q 1728 625 1844 941 
Q 1869 978 1894 978 
L 1972 978 
Q 1997 978 2012 961 
Q 2028 944 2028 922 
Q 2028 909 2022 903 
Q 1881 516 1612 222 
Q 1344 -72 997 -72 
Q 744 -72 570 93 
Q 397 259 397 519 
z
" transform="scale(0.015625)"/>
      </defs>
      <use xlink:href="#DejaVuSerif-54" transform="translate(0 0.421875)"/>
      <use xlink:href="#DejaVuSerif-69" transform="translate(66.699219 0.421875)"/>
      <use xlink:href="#DejaVuSerif-6d" transform="translate(98.681641 0.421875)"/>
      <use xlink:href="#DejaVuSerif-65" transform="translate(193.505859 0.421875)"/>
      <use xlink:href="#DejaVuSerif-20" transform="translate(252.685547 0.421875)"/>
      <use xlink:href="#Cmmi10-74" transform="translate(284.472656 0.421875)"/>
     </g>
    </g>
   </g>
   <g id="matplotlib.axis_2">
    <g id="ytick_1">
     <g id="line2d_19">
      <path d="M 42.47125 274.694545 
L 661.67125 274.694545 
" clip-path="url(#p9a0da09d34)" style="fill: none; stroke: #b0b0b0; stroke-opacity: 0.15; stroke-width: 0.8; stroke-linecap: square"/>
     </g>
     <g id="line2d_20">
      <defs>
       <path id="m6bb4b1c56f" d="M 0 0 
L -3.5 0 
" style="stroke: #000000; stroke-width: 0.8"/>
      </defs>
      <g>
       <use xlink:href="#m6bb4b1c56f" x="42.47125" y="274.694545" style="stroke: #000000; stroke-width: 0.8"/>
      </g>
     </g>
     <g id="text_11">
      <!-- 0 -->
      <g transform="translate(27.2 279.63353) scale(0.13 -0.13)">
       <use xlink:href="#DejaVuSerif-30"/>
      </g>
     </g>
    </g>
    <g id="ytick_2">
     <g id="line2d_21">
      <path d="M 42.47125 240.564675 
L 661.67125 240.564675 
" clip-path="url(#p9a0da09d34)" style="fill: none; stroke: #b0b0b0; stroke-opacity: 0.15; stroke-width: 0.8; stroke-linecap: square"/>
     </g>
     <g id="line2d_22">
      <g>
       <use xlink:href="#m6bb4b1c56f" x="42.47125" y="240.564675" style="stroke: #000000; stroke-width: 0.8"/>
      </g>
     </g>
     <g id="text_12">
      <!-- 1 -->
      <g transform="translate(27.2 245.50366) scale(0.13 -0.13)">
       <use xlink:href="#DejaVuSerif-31"/>
      </g>
     </g>
    </g>
    <g id="ytick_3">
     <g id="line2d_23">
      <path d="M 42.47125 206.434805 
L 661.67125 206.434805 
" clip-path="url(#p9a0da09d34)" style="fill: none; stroke: #b0b0b0; stroke-opacity: 0.15; stroke-width: 0.8; stroke-linecap: square"/>
     </g>
     <g id="line2d_24">
      <g>
       <use xlink:href="#m6bb4b1c56f" x="42.47125" y="206.434805" style="stroke: #000000; stroke-width: 0.8"/>
      </g>
     </g>
     <g id="text_13">
      <!-- 2 -->
      <g transform="translate(27.2 211.37379) scale(0.13 -0.13)">
       <use xlink:href="#DejaVuSerif-32"/>
      </g>
     </g>
    </g>
    <g id="ytick_4">
     <g id="line2d_25">
      <path d="M 42.47125 172.304935 
L 661.67125 172.304935 
" clip-path="url(#p9a0da09d34)" style="fill: none; stroke: #b0b0b0; stroke-opacity: 0.15; stroke-width: 0.8; stroke-linecap: square"/>
     </g>
     <g id="line2d_26">
      <g>
       <use xlink:href="#m6bb4b1c56f" x="42.47125" y="172.304935" style="stroke: #000000; stroke-width: 0.8"/>
      </g>
     </g>
     <g id="text_14">
      <!-- 3 -->
      <g transform="translate(27.2 177.243919) scale(0.13 -0.13)">
       <use xlink:href="#DejaVuSerif-33"/>
      </g>
     </g>
    </g>
    <g id="ytick_5">
     <g id="line2d_27">
      <path d="M 42.47125 138.175065 
L 661.67125 138.175065 
" clip-path="url(#p9a0da09d34)" style="fill: none; stroke: #b0b0b0; stroke-opacity: 0.15; stroke-width: 0.8; stroke-linecap: square"/>
     </g>
     <g id="line2d_28">
      <g>
       <use xlink:href="#m6bb4b1c56f" x="42.47125" y="138.175065" style="stroke: #000000; stroke-width: 0.8"/>
      </g>
     </g>
     <g id="text_15">
      <!-- 4 -->
      <g transform="translate(27.2 143.114049) scale(0.13 -0.13)">
       <use xlink:href="#DejaVuSerif-34"/>
      </g>
     </g>
    </g>
    <g id="ytick_6">
     <g id="line2d_29">
      <path d="M 42.47125 104.045195 
L 661.67125 104.045195 
" clip-path="url(#p9a0da09d34)" style="fill: none; stroke: #b0b0b0; stroke-opacity: 0.15; stroke-width: 0.8; stroke-linecap: square"/>
     </g>
     <g id="line2d_30">
      <g>
       <use xlink:href="#m6bb4b1c56f" x="42.47125" y="104.045195" style="stroke: #000000; stroke-width: 0.8"/>
      </g>
     </g>
     <g id="text_16">
      <!-- 5 -->
      <g transform="translate(27.2 108.984179) scale(0.13 -0.13)">
       <use xlink:href="#DejaVuSerif-35"/>
      </g>
     </g>
    </g>
    <g id="ytick_7">
     <g id="line2d_31">
      <path d="M 42.47125 69.915325 
L 661.67125 69.915325 
" clip-path="url(#p9a0da09d34)" style="fill: none; stroke: #b0b0b0; stroke-opacity: 0.15; stroke-width: 0.8; stroke-linecap: square"/>
     </g>
     <g id="line2d_32">
      <g>
       <use xlink:href="#m6bb4b1c56f" x="42.47125" y="69.915325" style="stroke: #000000; stroke-width: 0.8"/>
      </g>
     </g>
     <g id="text_17">
      <!-- 6 -->
      <g transform="translate(27.2 74.854309) scale(0.13 -0.13)">
       <use xlink:href="#DejaVuSerif-36"/>
      </g>
     </g>
    </g>
    <g id="ytick_8">
     <g id="line2d_33">
      <path d="M 42.47125 35.785455 
L 661.67125 35.785455 
" clip-path="url(#p9a0da09d34)" style="fill: none; stroke: #b0b0b0; stroke-opacity: 0.15; stroke-width: 0.8; stroke-linecap: square"/>
     </g>
     <g id="line2d_34">
      <g>
       <use xlink:href="#m6bb4b1c56f" x="42.47125" y="35.785455" style="stroke: #000000; stroke-width: 0.8"/>
      </g>
     </g>
     <g id="text_18">
      <!-- 7 -->
      <g transform="translate(27.2 40.724439) scale(0.13 -0.13)">
       <use xlink:href="#DejaVuSerif-37"/>
      </g>
     </g>
    </g>
    <g id="text_19">
     <!-- Protein $P(t)$ -->
     <g transform="translate(19.2 201.72) rotate(-90) scale(0.16 -0.16)">
      <defs>
       <path id="DejaVuSerif-50" d="M 1581 2375 
L 2406 2375 
Q 2872 2375 3115 2626 
Q 3359 2878 3359 3353 
Q 3359 3831 3115 4081 
Q 2872 4331 2406 4331 
L 1581 4331 
L 1581 2375 
z
M 353 0 
L 353 331 
L 947 331 
L 947 4331 
L 353 4331 
L 353 4666 
L 2559 4666 
Q 3259 4666 3668 4311 
Q 4078 3956 4078 3353 
Q 4078 2753 3668 2397 
Q 3259 2041 2559 2041 
L 1581 2041 
L 1581 331 
L 2303 331 
L 2303 0 
L 353 0 
z
" transform="scale(0.015625)"/>
       <path id="DejaVuSerif-72" d="M 3059 3328 
L 3059 2497 
L 2728 2497 
Q 2713 2744 2591 2866 
Q 2469 2988 2234 2988 
Q 1809 2988 1582 2694 
Q 1356 2400 1356 1850 
L 1356 331 
L 2022 331 
L 2022 0 
L 263 0 
L 263 331 
L 781 331 
L 781 2994 
L 231 2994 
L 231 3322 
L 1356 3322 
L 1356 2731 
Q 1525 3078 1790 3245 
Q 2056 3413 2438 3413 
Q 2578 3413 2733 3391 
Q 2888 3369 3059 3328 
z
" transform="scale(0.015625)"/>
       <path id="DejaVuSerif-6f" d="M 1925 219 
Q 2388 219 2623 584 
Q 2859 950 2859 1663 
Q 2859 2375 2623 2739 
Q 2388 3103 1925 3103 
Q 1463 3103 1227 2739 
Q 991 2375 991 1663 
Q 991 950 1228 584 
Q 1466 219 1925 219 
z
M 1925 -91 
Q 1200 -91 759 389 
Q 319 869 319 1663 
Q 319 2456 758 2934 
Q 1197 3413 1925 3413 
Q 2653 3413 3092 2934 
Q 3531 2456 3531 1663 
Q 3531 869 3092 389 
Q 2653 -91 1925 -91 
z
" transform="scale(0.015625)"/>
       <path id="DejaVuSerif-74" d="M 691 2988 
L 184 2988 
L 184 3322 
L 691 3322 
L 691 4353 
L 1269 4353 
L 1269 3322 
L 2350 3322 
L 2350 2988 
L 1269 2988 
L 1269 878 
Q 1269 456 1350 337 
Q 1431 219 1650 219 
Q 1875 219 1978 351 
Q 2081 484 2088 781 
L 2522 781 
Q 2497 328 2275 118 
Q 2053 -91 1600 -91 
Q 1103 -91 897 129 
Q 691 350 691 878 
L 691 2988 
z
" transform="scale(0.015625)"/>
       <path id="DejaVuSerif-6e" d="M 263 0 
L 263 331 
L 781 331 
L 781 2988 
L 231 2988 
L 231 3322 
L 1356 3322 
L 1356 2731 
Q 1516 3069 1770 3241 
Q 2025 3413 2363 3413 
Q 2913 3413 3172 3097 
Q 3431 2781 3431 2113 
L 3431 331 
L 3944 331 
L 3944 0 
L 2356 0 
L 2356 331 
L 2853 331 
L 2853 1931 
Q 2853 2541 2703 2767 
Q 2553 2994 2175 2994 
Q 1775 2994 1565 2701 
Q 1356 2409 1356 1850 
L 1356 331 
L 1856 331 
L 1856 0 
L 263 0 
z
" transform="scale(0.015625)"/>
       <path id="Cmmi10-50" d="M 313 0 
Q 250 0 250 84 
Q 253 100 262 139 
Q 272 178 289 201 
Q 306 225 331 225 
Q 722 225 878 269 
Q 959 297 997 441 
L 1875 3956 
Q 1888 4019 1888 4044 
Q 1888 4113 1813 4122 
Q 1691 4147 1350 4147 
Q 1288 4147 1288 4231 
Q 1291 4247 1300 4286 
Q 1309 4325 1326 4348 
Q 1344 4372 1369 4372 
L 3578 4372 
Q 3881 4372 4165 4264 
Q 4450 4156 4631 3934 
Q 4813 3713 4813 3397 
Q 4813 2991 4527 2672 
Q 4241 2353 3814 2175 
Q 3388 1997 2988 1997 
L 1947 1997 
L 1556 416 
Q 1544 353 1544 325 
Q 1544 300 1551 283 
Q 1559 266 1573 261 
Q 1588 256 1619 250 
Q 1741 225 2081 225 
Q 2144 225 2144 141 
Q 2122 50 2109 25 
Q 2097 0 2034 0 
L 313 0 
z
M 1978 2188 
L 2875 2188 
Q 3497 2188 3822 2522 
Q 3988 2688 4092 3000 
Q 4197 3313 4197 3566 
Q 4197 3881 3956 4014 
Q 3716 4147 3359 4147 
L 2747 4147 
Q 2572 4147 2515 4117 
Q 2459 4088 2413 3928 
L 1978 2188 
z
" transform="scale(0.015625)"/>
       <path id="Cmr10-28" d="M 1984 -1588 
Q 1628 -1306 1370 -942 
Q 1113 -578 948 -165 
Q 784 247 703 697 
Q 622 1147 622 1600 
Q 622 2059 703 2509 
Q 784 2959 951 3375 
Q 1119 3791 1378 4153 
Q 1638 4516 1984 4788 
Q 1984 4800 2016 4800 
L 2075 4800 
Q 2094 4800 2109 4783 
Q 2125 4766 2125 4744 
Q 2125 4716 2113 4703 
Q 1800 4397 1592 4047 
Q 1384 3697 1257 3301 
Q 1131 2906 1075 2482 
Q 1019 2059 1019 1600 
Q 1019 -434 2106 -1491 
Q 2125 -1509 2125 -1544 
Q 2125 -1559 2108 -1579 
Q 2091 -1600 2075 -1600 
L 2016 -1600 
Q 1984 -1600 1984 -1588 
z
" transform="scale(0.015625)"/>
       <path id="Cmr10-29" d="M 416 -1600 
Q 359 -1600 359 -1544 
Q 359 -1516 372 -1503 
Q 1466 -434 1466 1600 
Q 1466 3634 384 4691 
Q 359 4706 359 4744 
Q 359 4766 376 4783 
Q 394 4800 416 4800 
L 475 4800 
Q 494 4800 506 4788 
Q 966 4425 1272 3906 
Q 1578 3388 1720 2800 
Q 1863 2213 1863 1600 
Q 1863 1147 1786 708 
Q 1709 269 1542 -157 
Q 1375 -584 1119 -945 
Q 863 -1306 506 -1588 
Q 494 -1600 475 -1600 
L 416 -1600 
z
" transform="scale(0.015625)"/>
      </defs>
      <use xlink:href="#DejaVuSerif-50"/>
      <use xlink:href="#DejaVuSerif-72" transform="translate(67.285156 0)"/>
      <use xlink:href="#DejaVuSerif-6f" transform="translate(115.087891 0)"/>
      <use xlink:href="#DejaVuSerif-74" transform="translate(175.292969 0)"/>
      <use xlink:href="#DejaVuSerif-65" transform="translate(215.478516 0)"/>
      <use xlink:href="#DejaVuSerif-69" transform="translate(274.658203 0)"/>
      <use xlink:href="#DejaVuSerif-6e" transform="translate(306.640625 0)"/>
      <use xlink:href="#DejaVuSerif-20" transform="translate(371.044922 0)"/>
      <use xlink:href="#Cmmi10-50" transform="translate(402.832031 0)"/>
      <use xlink:href="#Cmr10-28" transform="translate(467.041016 0)"/>
      <use xlink:href="#Cmmi10-74" transform="translate(505.859375 0)"/>
      <use xlink:href="#Cmr10-29" transform="translate(541.943359 0)"/>
     </g>
    </g>
   </g>
   <g id="line2d_35">
    <path d="M 42.47125 274.694545 
L 51.770875 274.694545 
L 53.320812 206.434805 
L 54.095781 240.564675 
L 55.645718 240.564675 
L 56.420687 274.694545 
L 62.620436 274.694545 
L 63.395405 240.564675 
L 64.170374 240.564675 
L 64.945343 138.175065 
L 65.720311 138.175065 
L 66.49528 104.045195 
L 68.045217 104.045195 
L 69.595155 172.304935 
L 70.370124 138.175065 
L 72.69503 138.175065 
L 73.469998 172.304935 
L 75.019936 172.304935 
L 75.794905 138.175065 
L 78.119811 138.175065 
L 79.669748 206.434805 
L 88.969373 206.434805 
L 89.744341 240.564675 
L 102.143841 240.564675 
L 102.918809 274.694545 
L 197.464992 274.694545 
L 198.239961 240.564675 
L 199.01493 240.564675 
L 199.789898 206.434805 
L 201.339836 206.434805 
L 202.114804 240.564675 
L 202.889773 240.564675 
L 203.664742 206.434805 
L 204.439711 206.434805 
L 205.214679 172.304935 
L 205.989648 172.304935 
L 206.764617 206.434805 
L 208.314554 206.434805 
L 209.864492 138.175065 
L 212.189398 138.175065 
L 213.739335 206.434805 
L 214.514304 206.434805 
L 215.289273 172.304935 
L 216.064241 104.045195 
L 216.83921 104.045195 
L 217.614179 35.785455 
L 218.389147 35.785455 
L 219.164116 69.915325 
L 221.489022 69.915325 
L 222.263991 104.045195 
L 223.813928 104.045195 
L 224.588897 69.915325 
L 225.363866 104.045195 
L 226.138834 104.045195 
L 226.913803 69.915325 
L 227.688772 138.175065 
L 228.463741 138.175065 
L 229.238709 104.045195 
L 230.013678 104.045195 
L 230.788647 138.175065 
L 231.563615 104.045195 
L 232.338584 104.045195 
L 233.113553 138.175065 
L 233.888522 138.175065 
L 235.438459 206.434805 
L 239.313303 206.434805 
L 240.088271 240.564675 
L 245.513052 240.564675 
L 246.288021 274.694545 
L 274.186895 274.694545 
L 274.961863 240.564675 
L 275.736832 274.694545 
L 298.985893 274.694545 
L 299.760862 240.564675 
L 304.410674 240.564675 
L 305.185643 206.434805 
L 306.73558 274.694545 
L 309.835455 274.694545 
L 310.610424 240.564675 
L 311.385393 240.564675 
L 312.160361 172.304935 
L 316.810174 172.304935 
L 317.585142 206.434805 
L 324.559861 206.434805 
L 325.334829 172.304935 
L 328.434704 172.304935 
L 329.209673 206.434805 
L 329.984642 172.304935 
L 330.75961 172.304935 
L 331.534579 206.434805 
L 332.309548 206.434805 
L 333.084517 240.564675 
L 333.859485 206.434805 
L 334.634454 206.434805 
L 335.409423 240.564675 
L 336.184391 240.564675 
L 336.95936 274.694545 
L 338.509298 274.694545 
L 339.284266 240.564675 
L 341.609172 240.564675 
L 342.384141 274.694545 
L 343.15911 206.434805 
L 343.934079 206.434805 
L 344.709047 172.304935 
L 345.484016 172.304935 
L 347.033953 104.045195 
L 348.583891 104.045195 
L 349.35886 138.175065 
L 350.133828 206.434805 
L 351.683766 138.175065 
L 353.233703 138.175065 
L 354.78364 206.434805 
L 359.433453 206.434805 
L 360.208421 274.694545 
L 360.98339 274.694545 
L 361.758359 240.564675 
L 362.533328 240.564675 
L 363.308296 274.694545 
L 365.633202 274.694545 
L 366.408171 240.564675 
L 374.932827 240.564675 
L 375.707796 206.434805 
L 376.482764 206.434805 
L 377.257733 240.564675 
L 378.032702 240.564675 
L 378.807671 206.434805 
L 379.582639 206.434805 
L 380.357608 240.564675 
L 381.907545 240.564675 
L 382.682514 274.694545 
L 386.557358 274.694545 
L 387.332326 240.564675 
L 388.107295 274.694545 
L 404.381638 274.694545 
L 405.156607 240.564675 
L 405.931575 172.304935 
L 406.706544 240.564675 
L 408.256482 240.564675 
L 409.03145 138.175065 
L 410.581388 69.915325 
L 411.356356 104.045195 
L 412.131325 104.045195 
L 412.906294 138.175065 
L 414.456231 138.175065 
L 416.006169 206.434805 
L 416.781137 172.304935 
L 419.881012 172.304935 
L 420.655981 206.434805 
L 421.43095 206.434805 
L 422.980887 274.694545 
L 424.530824 274.694545 
L 425.305793 240.564675 
L 426.855731 240.564675 
L 427.630699 274.694545 
L 429.180637 274.694545 
L 429.955605 240.564675 
L 430.730574 240.564675 
L 432.280512 172.304935 
L 433.05548 104.045195 
L 433.830449 138.175065 
L 434.605418 104.045195 
L 435.380386 104.045195 
L 436.930324 172.304935 
L 437.705293 172.304935 
L 440.030199 274.694545 
L 450.879761 274.694545 
L 451.654729 240.564675 
L 454.754604 240.564675 
L 455.529573 206.434805 
L 456.304542 206.434805 
L 457.07951 240.564675 
L 464.829197 240.564675 
L 465.604166 274.694545 
L 473.353853 274.694545 
L 474.128822 240.564675 
L 476.453728 240.564675 
L 477.228697 206.434805 
L 478.003666 206.434805 
L 478.778634 172.304935 
L 482.653478 172.304935 
L 483.428446 206.434805 
L 484.203415 206.434805 
L 484.978384 240.564675 
L 488.078259 240.564675 
L 488.853227 274.694545 
L 560.150349 274.694545 
L 561.700286 206.434805 
L 562.475255 206.434805 
L 563.250224 240.564675 
L 565.57513 240.564675 
L 566.350099 274.694545 
L 570.999911 274.694545 
L 571.77488 240.564675 
L 572.549848 240.564675 
L 573.324817 274.694545 
L 574.874754 274.694545 
L 575.649723 240.564675 
L 577.974629 240.564675 
L 579.524567 172.304935 
L 581.849473 172.304935 
L 582.624441 240.564675 
L 584.174379 240.564675 
L 584.949348 274.694545 
L 586.499285 274.694545 
L 587.274254 240.564675 
L 588.824191 240.564675 
L 589.59916 274.694545 
L 594.248972 274.694545 
L 595.023941 240.564675 
L 597.348847 240.564675 
L 598.898784 172.304935 
L 600.448722 240.564675 
L 607.42344 240.564675 
L 608.198409 274.694545 
L 612.073253 274.694545 
L 612.848221 240.564675 
L 615.948096 240.564675 
L 616.723065 206.434805 
L 617.498033 240.564675 
L 619.82294 240.564675 
L 620.597908 206.434805 
L 622.922814 206.434805 
L 623.697783 240.564675 
L 626.797658 240.564675 
L 627.572627 274.694545 
L 652.371625 274.694545 
L 653.146594 240.564675 
L 659.346344 240.564675 
L 660.121313 274.694545 
L 661.67125 274.694545 
L 661.67125 274.694545 
" clip-path="url(#p9a0da09d34)" style="fill: none; stroke: #0072bd; stroke-opacity: 0.2; stroke-width: 0.5; stroke-linecap: square"/>
   </g>
   <g id="line2d_36">
    <path d="M 42.47125 274.694545 
L 87.419435 274.694545 
L 88.969373 206.434805 
L 89.744341 206.434805 
L 90.51931 172.304935 
L 92.069247 172.304935 
L 92.844216 206.434805 
L 93.619185 172.304935 
L 94.394154 206.434805 
L 95.169122 206.434805 
L 96.71906 69.915325 
L 97.494028 104.045195 
L 98.268997 104.045195 
L 99.818935 172.304935 
L 100.593903 172.304935 
L 101.368872 138.175065 
L 102.918809 206.434805 
L 111.443465 206.434805 
L 112.218434 240.564675 
L 112.993403 206.434805 
L 114.54334 206.434805 
L 116.093278 274.694545 
L 120.74309 274.694545 
L 121.518059 240.564675 
L 128.492777 240.564675 
L 129.267746 274.694545 
L 130.042714 240.564675 
L 130.817683 240.564675 
L 131.592652 206.434805 
L 134.692527 206.434805 
L 135.467495 240.564675 
L 138.56737 240.564675 
L 139.342339 274.694545 
L 152.516807 274.694545 
L 153.291776 240.564675 
L 154.066744 240.564675 
L 154.841713 206.434805 
L 155.616682 206.434805 
L 156.391651 240.564675 
L 157.166619 240.564675 
L 157.941588 274.694545 
L 159.491525 274.694545 
L 160.266494 240.564675 
L 163.366369 240.564675 
L 164.141338 206.434805 
L 167.241212 206.434805 
L 168.016181 240.564675 
L 170.341087 240.564675 
L 171.116056 206.434805 
L 171.891025 206.434805 
L 172.665993 104.045195 
L 174.215931 104.045195 
L 174.9909 69.915325 
L 175.765868 69.915325 
L 178.090774 172.304935 
L 179.640712 104.045195 
L 180.415681 104.045195 
L 181.190649 69.915325 
L 183.515555 69.915325 
L 184.290524 104.045195 
L 185.065493 104.045195 
L 186.61543 35.785455 
L 187.390399 69.915325 
L 188.165368 69.915325 
L 188.940336 138.175065 
L 191.265242 138.175065 
L 192.040211 172.304935 
L 199.01493 172.304935 
L 199.789898 206.434805 
L 206.764617 206.434805 
L 207.539585 240.564675 
L 210.63946 240.564675 
L 211.414429 274.694545 
L 244.738084 274.694545 
L 245.513052 240.564675 
L 247.06299 240.564675 
L 247.837958 274.694545 
L 252.487771 274.694545 
L 253.262739 240.564675 
L 254.812677 240.564675 
L 255.587645 274.694545 
L 261.012426 274.694545 
L 261.787395 240.564675 
L 264.112301 240.564675 
L 264.88727 274.694545 
L 265.662239 240.564675 
L 267.212176 240.564675 
L 269.537082 138.175065 
L 271.861988 138.175065 
L 272.636957 172.304935 
L 273.411926 172.304935 
L 274.186895 206.434805 
L 278.061738 206.434805 
L 278.836707 240.564675 
L 279.611676 206.434805 
L 281.936582 206.434805 
L 282.71155 240.564675 
L 284.261488 240.564675 
L 285.811425 172.304935 
L 287.361363 172.304935 
L 288.136331 138.175065 
L 289.686269 138.175065 
L 291.236206 206.434805 
L 294.336081 206.434805 
L 295.11105 240.564675 
L 296.660987 240.564675 
L 297.435956 206.434805 
L 303.635706 206.434805 
L 305.185643 274.694545 
L 341.609172 274.694545 
L 342.384141 240.564675 
L 343.934079 240.564675 
L 345.484016 172.304935 
L 350.133828 172.304935 
L 350.908797 206.434805 
L 354.008672 206.434805 
L 354.78364 138.175065 
L 355.558609 104.045195 
L 357.108547 104.045195 
L 357.883515 206.434805 
L 362.533328 206.434805 
L 365.633202 69.915325 
L 366.408171 69.915325 
L 367.18314 35.785455 
L 367.958109 35.785455 
L 368.733077 69.915325 
L 369.508046 138.175065 
L 370.283015 172.304935 
L 372.607921 172.304935 
L 374.157858 240.564675 
L 374.932827 206.434805 
L 376.482764 206.434805 
L 377.257733 138.175065 
L 378.032702 104.045195 
L 378.807671 138.175065 
L 379.582639 206.434805 
L 380.357608 206.434805 
L 381.132577 240.564675 
L 381.907545 206.434805 
L 382.682514 138.175065 
L 383.457483 138.175065 
L 385.00742 206.434805 
L 385.782389 206.434805 
L 386.557358 240.564675 
L 387.332326 206.434805 
L 388.882264 206.434805 
L 389.657232 240.564675 
L 390.432201 206.434805 
L 391.20717 240.564675 
L 394.307045 240.564675 
L 395.856982 172.304935 
L 397.40692 172.304935 
L 398.181888 206.434805 
L 402.056732 206.434805 
L 402.831701 240.564675 
L 403.606669 240.564675 
L 404.381638 274.694545 
L 425.305793 274.694545 
L 426.855731 206.434805 
L 427.630699 240.564675 
L 430.730574 240.564675 
L 431.505543 206.434805 
L 432.280512 206.434805 
L 433.05548 240.564675 
L 438.480261 240.564675 
L 439.25523 274.694545 
L 440.030199 240.564675 
L 447.779886 240.564675 
L 448.554855 274.694545 
L 467.929072 274.694545 
L 468.704041 240.564675 
L 470.253978 240.564675 
L 471.028947 274.694545 
L 491.953102 274.694545 
L 492.728071 240.564675 
L 497.377883 240.564675 
L 498.152852 274.694545 
L 507.452477 274.694545 
L 508.227445 240.564675 
L 509.002414 240.564675 
L 509.777383 274.694545 
L 512.102289 274.694545 
L 512.877258 240.564675 
L 513.652226 240.564675 
L 514.427195 206.434805 
L 518.302038 206.434805 
L 519.077007 172.304935 
L 520.626945 240.564675 
L 521.401913 172.304935 
L 522.951851 172.304935 
L 523.726819 206.434805 
L 526.826694 206.434805 
L 528.376632 138.175065 
L 529.926569 206.434805 
L 530.701538 35.785455 
L 531.476507 35.785455 
L 533.801413 138.175065 
L 534.576381 206.434805 
L 536.126319 206.434805 
L 536.901288 172.304935 
L 537.676256 206.434805 
L 541.5511 206.434805 
L 542.326069 240.564675 
L 543.101037 206.434805 
L 545.425943 206.434805 
L 546.200912 240.564675 
L 554.725568 240.564675 
L 555.500537 274.694545 
L 615.173127 274.694545 
L 615.948096 240.564675 
L 618.273002 240.564675 
L 619.047971 274.694545 
L 619.82294 274.694545 
L 620.597908 240.564675 
L 621.372877 240.564675 
L 622.147846 172.304935 
L 622.922814 172.304935 
L 624.472752 240.564675 
L 625.247721 240.564675 
L 626.022689 206.434805 
L 627.572627 206.434805 
L 628.347595 172.304935 
L 629.897533 172.304935 
L 630.672502 206.434805 
L 632.222439 206.434805 
L 632.997408 240.564675 
L 633.772376 206.434805 
L 634.547345 240.564675 
L 635.322314 172.304935 
L 636.872251 172.304935 
L 637.64722 206.434805 
L 638.422189 172.304935 
L 639.972126 172.304935 
L 640.747095 138.175065 
L 641.522064 138.175065 
L 642.297032 172.304935 
L 643.84697 172.304935 
L 644.621938 206.434805 
L 645.396907 206.434805 
L 646.946844 274.694545 
L 648.496782 274.694545 
L 649.271751 240.564675 
L 651.596657 240.564675 
L 652.371625 274.694545 
L 661.67125 274.694545 
L 661.67125 274.694545 
" clip-path="url(#p9a0da09d34)" style="fill: none; stroke: #d95319; stroke-opacity: 0.2; stroke-width: 0.5; stroke-linecap: square"/>
   </g>
   <g id="line2d_37">
    <path d="M 42.47125 274.694545 
L 45.055557 274.604715 
L 46.606141 274.360361 
L 48.156726 273.904328 
L 49.70731 273.210723 
L 51.257894 272.27195 
L 52.808479 271.093717 
L 54.875924 269.177582 
L 56.94337 266.917035 
L 59.527677 263.707726 
L 62.628846 259.479299 
L 71.41549 247.222206 
L 74.516659 243.393428 
L 77.100966 240.566668 
L 79.168412 238.578996 
L 81.235858 236.852046 
L 83.303303 235.394176 
L 85.370749 234.207098 
L 87.438195 233.286557 
L 89.505641 232.623064 
L 91.573086 232.202665 
L 93.640532 232.007727 
L 95.707978 232.017716 
L 98.292285 232.28369 
L 100.876592 232.787095 
L 103.977761 233.636049 
L 108.112652 235.047646 
L 122.067911 240.083141 
L 126.202803 241.197074 
L 129.820833 241.941375 
L 133.438863 242.462666 
L 137.056893 242.769226 
L 141.191784 242.882989 
L 145.843537 242.761955 
L 151.529013 242.359816 
L 161.866242 241.327765 
L 170.652886 240.5444 
L 177.888946 240.129815 
L 185.125006 239.950896 
L 193.394789 239.983851 
L 206.316325 240.297771 
L 223.372753 240.668664 
L 237.328011 240.730633 
L 269.890282 240.536984 
L 300.385106 240.546773 
L 352.07125 240.566862 
L 352.07125 240.566862 
L 353.104973 244.566186 
L 354.138696 247.625616 
L 355.172419 249.960325 
L 356.206141 251.733062 
L 357.239864 253.067317 
L 358.273587 254.057149 
L 359.30731 254.774527 
L 360.341033 255.274815 
L 361.891617 255.709301 
L 363.442202 255.856771 
L 364.992786 255.792367 
L 367.060232 255.467724 
L 369.644539 254.798509 
L 372.745707 253.756816 
L 377.914322 251.753394 
L 386.700966 248.344843 
L 391.869581 246.592197 
L 396.521333 245.237522 
L 401.173086 244.101154 
L 406.341701 243.081666 
L 411.510315 242.291203 
L 417.195791 241.645695 
L 423.91499 241.123922 
L 431.667911 240.760248 
L 441.488278 240.537197 
L 455.960399 240.456097 
L 509.713988 240.555141 
L 661.67125 240.564671 
L 661.67125 240.564671 
" clip-path="url(#p9a0da09d34)" style="fill: none; stroke-dasharray: 6.66,2.88; stroke-dashoffset: 0; stroke: #d95319; stroke-opacity: 0.7; stroke-width: 1.8"/>
   </g>
   <g id="line2d_38">
    <path d="M 42.47125 274.694545 
L 44.796156 274.592156 
L 45.571125 274.387377 
L 47.121062 274.216727 
L 48.671 273.363481 
L 49.445968 272.953922 
L 50.220937 272.817403 
L 50.995906 272.373714 
L 51.770875 271.725247 
L 52.545843 271.349818 
L 53.320812 270.360052 
L 54.095781 269.643325 
L 54.870749 268.517039 
L 55.645718 267.936831 
L 56.420687 267.049455 
L 57.195656 266.947065 
L 59.520562 263.772987 
L 61.070499 261.144987 
L 61.845468 260.735429 
L 62.620436 258.960675 
L 63.395405 258.619377 
L 64.945343 256.127896 
L 65.720311 255.888987 
L 66.49528 255.104 
L 67.270249 253.943584 
L 68.820186 251.076675 
L 69.595155 250.325818 
L 70.370124 250.394078 
L 71.920061 246.537403 
L 72.69503 245.411117 
L 73.469998 244.52374 
L 74.244967 244.080052 
L 75.019936 242.885506 
L 75.794905 241.964 
L 77.344842 239.062961 
L 78.119811 238.073195 
L 78.894779 237.766026 
L 81.994654 235.206286 
L 82.769623 234.421299 
L 83.544592 233.875221 
L 85.094529 234.694338 
L 85.869498 235.240416 
L 87.419435 233.875221 
L 88.194404 233.499792 
L 88.969373 232.373506 
L 89.744341 232.987844 
L 91.294279 231.895688 
L 92.069247 232.202857 
L 92.844216 232.748935 
L 93.619185 232.748935 
L 94.394154 230.803532 
L 95.169122 229.608987 
L 95.944091 229.233558 
L 96.71906 228.346182 
L 97.494028 228.243792 
L 98.268997 228.380312 
L 99.043966 229.335948 
L 99.818935 229.472468 
L 100.593903 229.335948 
L 101.368872 229.062909 
L 102.143841 229.097039 
L 103.693778 229.779636 
L 105.243716 229.506597 
L 106.018684 229.301818 
L 106.793653 228.89226 
L 107.568622 229.779636 
L 108.34359 230.359844 
L 109.118559 230.393974 
L 109.893528 231.076571 
L 110.668497 231.178961 
L 111.443465 231.452 
L 112.993403 230.974182 
L 113.768371 230.428104 
L 114.54334 231.281351 
L 116.868246 231.725039 
L 117.643215 232.134597 
L 119.193152 232.032208 
L 119.968121 232.100468 
L 120.74309 233.465662 
L 121.518059 234.08 
L 122.293027 235.206286 
L 123.842965 235.138026 
L 124.617933 234.626078 
L 125.392902 234.318909 
L 126.167871 233.875221 
L 126.942839 233.943481 
L 127.717808 233.397403 
L 128.492777 232.714805 
L 129.267746 231.110701 
L 130.042714 230.564623 
L 131.592652 231.588519 
L 133.142589 232.032208 
L 133.917558 232.680675 
L 134.692527 233.056104 
L 135.467495 233.738701 
L 136.242464 233.158494 
L 137.017433 234.01174 
L 137.792401 234.523688 
L 138.56737 234.250649 
L 139.342339 234.557818 
L 140.892276 233.738701 
L 141.667245 234.01174 
L 142.442214 234.626078 
L 143.992151 236.571481 
L 145.542089 237.356468 
L 146.317057 237.970805 
L 147.092026 238.312104 
L 147.866995 237.970805 
L 149.416932 237.868416 
L 150.191901 237.595377 
L 150.96687 238.277974 
L 151.741838 238.346234 
L 152.516807 238.755792 
L 154.066744 238.653403 
L 155.616682 238.994701 
L 156.391651 239.472519 
L 157.166619 239.745558 
L 158.716557 240.667065 
L 160.266494 242.168779 
L 161.041463 242.305299 
L 163.366369 243.704623 
L 164.141338 244.455481 
L 164.916306 243.431584 
L 165.691275 244.045922 
L 166.466244 244.353091 
L 167.241212 245.206338 
L 168.016181 245.376987 
L 169.566119 244.933299 
L 170.341087 244.69439 
L 171.116056 244.250701 
L 171.891025 244.55787 
L 172.665993 244.045922 
L 173.440962 243.056156 
L 174.9909 242.475948 
L 175.765868 242.271169 
L 176.540837 241.520312 
L 177.315806 241.213143 
L 178.090774 241.520312 
L 178.865743 241.213143 
L 179.640712 241.315532 
L 181.190649 241.725091 
L 181.965618 241.486182 
L 182.740587 241.92987 
L 183.515555 241.99813 
L 184.290524 242.373558 
L 185.840462 242.168779 
L 186.61543 241.89574 
L 187.390399 241.89574 
L 188.165368 241.690961 
L 188.940336 240.837714 
L 189.715305 240.974234 
L 190.490274 241.86161 
L 191.265242 241.99813 
L 192.040211 241.383792 
L 192.81518 241.349662 
L 193.590149 240.632935 
L 195.140086 239.847948 
L 195.915055 240.189247 
L 196.690023 240.155117 
L 197.464992 240.257506 
L 199.789898 239.472519 
L 200.564867 240.120987 
L 202.114804 240.701195 
L 202.889773 240.462286 
L 203.664742 240.598805 
L 204.439711 241.281403 
L 205.214679 242.168779 
L 205.989648 242.783117 
L 206.764617 242.817247 
L 207.539585 243.192675 
L 208.314554 242.987896 
L 209.089523 243.056156 
L 209.864492 242.783117 
L 210.63946 242.202909 
L 211.414429 242.783117 
L 212.189398 241.99813 
L 212.964366 241.656831 
L 213.739335 241.793351 
L 214.514304 241.076623 
L 215.289273 240.940104 
L 216.83921 241.793351 
L 217.614179 241.92987 
L 219.164116 242.714857 
L 219.939085 242.168779 
L 223.03896 242.305299 
L 223.813928 241.588571 
L 224.588897 241.486182 
L 226.138834 242.407688 
L 226.913803 242.510078 
L 227.688772 242.271169 
L 228.463741 241.588571 
L 229.238709 240.564675 
L 230.788647 240.632935 
L 231.563615 240.291636 
L 232.338584 240.701195 
L 233.888522 240.086857 
L 234.66349 240.052727 
L 235.438459 240.462286 
L 236.213428 240.667065 
L 237.763365 240.701195 
L 239.313303 241.520312 
L 240.088271 241.315532 
L 240.86324 241.349662 
L 241.638209 241.076623 
L 242.413177 240.564675 
L 243.963115 242.202909 
L 244.738084 242.748987 
L 247.06299 240.086857 
L 247.837958 239.847948 
L 248.612927 239.745558 
L 249.387896 240.325766 
L 250.162865 240.018597 
L 251.712802 240.155117 
L 252.487771 239.813818 
L 253.262739 239.131221 
L 254.037708 239.643169 
L 255.587645 239.336 
L 256.362614 239.677299 
L 257.137583 239.097091 
L 259.462489 238.994701 
L 260.237458 240.223377 
L 261.012426 240.940104 
L 262.562364 240.598805 
L 263.337333 239.30187 
L 264.88727 240.428156 
L 265.662239 240.530545 
L 266.437207 240.359896 
L 267.212176 240.052727 
L 267.987145 240.018597 
L 268.762114 238.687532 
L 269.537082 238.312104 
L 271.08702 238.277974 
L 271.861988 237.697766 
L 272.636957 238.073195 
L 273.411926 237.356468 
L 274.186895 238.243844 
L 274.961863 237.390597 
L 275.736832 237.663636 
L 276.511801 238.141455 
L 277.286769 237.629506 
L 278.061738 238.653403 
L 278.836707 239.26774 
L 279.611676 239.711429 
L 280.386644 239.30187 
L 281.161613 239.097091 
L 281.936582 239.43839 
L 282.71155 239.336 
L 283.486519 238.789922 
L 284.261488 237.731896 
L 285.036457 237.424727 
L 286.586394 237.151688 
L 287.361363 237.424727 
L 288.136331 237.834286 
L 288.9113 237.083429 
L 289.686269 236.981039 
L 290.461237 237.185818 
L 291.236206 237.629506 
L 292.011175 237.527117 
L 292.786144 237.868416 
L 293.561112 238.073195 
L 295.11105 236.878649 
L 295.886018 236.946909 
L 296.660987 237.800156 
L 297.435956 237.390597 
L 298.210925 237.322338 
L 298.985893 237.527117 
L 299.760862 236.981039 
L 300.535831 237.390597 
L 301.310799 237.390597 
L 302.085768 238.004935 
L 302.860737 238.209714 
L 303.635706 238.277974 
L 304.410674 239.028831 
L 306.73558 239.37013 
L 307.510549 239.23361 
L 308.285518 240.223377 
L 309.060487 240.291636 
L 309.835455 241.008364 
L 310.610424 241.383792 
L 312.160361 240.871844 
L 312.93533 241.452052 
L 313.710299 241.452052 
L 314.485268 241.042494 
L 315.260236 241.827481 
L 316.035205 242.168779 
L 318.360111 241.452052 
L 319.13508 241.213143 
L 319.910048 240.257506 
L 320.685017 240.325766 
L 321.459986 240.155117 
L 323.009923 240.018597 
L 323.784892 241.793351 
L 324.559861 241.349662 
L 325.334829 241.383792 
L 326.109798 241.110753 
L 326.884767 241.281403 
L 327.659736 241.315532 
L 328.434704 241.588571 
L 329.209673 242.168779 
L 329.984642 241.622701 
L 330.75961 241.92987 
L 331.534579 241.520312 
L 333.084517 241.520312 
L 333.859485 241.554442 
L 334.634454 242.168779 
L 336.184391 241.656831 
L 337.734329 241.417922 
L 338.509298 240.632935 
L 339.284266 241.042494 
L 340.834204 241.042494 
L 341.609172 240.564675 
L 342.384141 240.291636 
L 343.15911 240.359896 
L 343.934079 239.813818 
L 344.709047 240.530545 
L 345.484016 239.37013 
L 347.033953 239.23361 
L 347.808922 239.779688 
L 348.583891 239.813818 
L 349.35886 240.120987 
L 350.133828 239.677299 
L 350.908797 239.097091 
L 351.683766 238.755792 
L 352.458734 239.643169 
L 355.558609 248.209766 
L 356.333578 250.052779 
L 357.108547 251.247325 
L 357.883515 252.987948 
L 358.658484 253.704675 
L 359.433453 255.104 
L 360.98339 256.776364 
L 361.758359 257.458961 
L 362.533328 257.970909 
L 364.083265 257.66374 
L 364.858234 256.571584 
L 365.633202 256.503325 
L 366.408171 256.298545 
L 367.18314 257.117662 
L 368.733077 257.80026 
L 369.508046 257.356571 
L 370.283015 257.527221 
L 371.832952 256.537455 
L 373.38289 255.786597 
L 374.157858 256.298545 
L 374.932827 256.127896 
L 375.707796 255.308779 
L 376.482764 255.479429 
L 377.257733 255.377039 
L 378.032702 254.967481 
L 378.807671 254.387273 
L 380.357608 254.080104 
L 381.132577 253.465766 
L 381.907545 253.465766 
L 382.682514 253.636416 
L 384.232452 252.066442 
L 385.00742 251.008416 
L 385.782389 251.588623 
L 386.557358 251.281455 
L 387.332326 250.428208 
L 388.107295 250.906026 
L 388.882264 250.564727 
L 389.657232 250.769506 
L 390.432201 250.086909 
L 391.20717 249.77974 
L 391.982139 249.848 
L 392.757107 250.564727 
L 393.532076 250.496468 
L 394.307045 249.74561 
L 395.082013 249.370182 
L 395.856982 248.755844 
L 398.181888 249.336052 
L 398.956857 249.711481 
L 399.731826 248.892364 
L 400.506794 247.800208 
L 401.281763 247.390649 
L 402.056732 247.697818 
L 403.606669 247.595429 
L 404.381638 248.175636 
L 405.156607 248.448675 
L 406.706544 249.88213 
L 407.481513 249.574961 
L 408.256482 247.970857 
L 409.03145 248.482805 
L 409.806419 248.243896 
L 410.581388 247.663688 
L 411.356356 247.493039 
L 412.131325 248.004987 
L 412.906294 248.004987 
L 413.681263 248.414545 
L 414.456231 249.097143 
L 415.2312 248.789974 
L 416.006169 247.834338 
L 416.781137 248.448675 
L 417.556106 247.25413 
L 418.331075 246.469143 
L 419.881012 246.264364 
L 420.655981 247.25413 
L 421.43095 246.776312 
L 422.205918 245.684156 
L 422.980887 245.035688 
L 423.755856 245.035688 
L 425.305793 242.748987 
L 426.080762 242.612468 
L 426.855731 243.499844 
L 427.630699 242.817247 
L 428.405668 243.363325 
L 429.955605 241.725091 
L 430.730574 241.793351 
L 432.280512 241.349662 
L 433.05548 241.588571 
L 433.830449 242.441818 
L 434.605418 241.89574 
L 435.380386 242.544208 
L 436.155355 241.452052 
L 436.930324 241.520312 
L 437.705293 240.564675 
L 439.25523 241.486182 
L 440.030199 241.008364 
L 441.580136 239.165351 
L 442.355105 240.701195 
L 443.130074 241.554442 
L 444.680011 240.428156 
L 445.45498 241.247273 
L 446.229948 241.144883 
L 447.004917 239.745558 
L 447.779886 241.247273 
L 448.554855 240.667065 
L 449.329823 240.394026 
L 450.104792 240.871844 
L 450.879761 241.213143 
L 451.654729 241.349662 
L 452.429698 240.701195 
L 453.204667 241.656831 
L 453.979635 241.554442 
L 454.754604 240.940104 
L 455.529573 241.793351 
L 456.304542 240.974234 
L 457.07951 240.871844 
L 457.854479 241.86161 
L 458.629448 241.042494 
L 459.404416 241.383792 
L 460.179385 242.134649 
L 460.954354 241.89574 
L 462.504291 239.643169 
L 463.27926 239.779688 
L 464.054229 239.540779 
L 464.829197 239.882078 
L 465.604166 239.40426 
L 466.379135 238.346234 
L 467.154104 238.585143 
L 467.929072 239.609039 
L 468.704041 238.585143 
L 469.47901 238.107325 
L 470.253978 237.800156 
L 471.028947 238.175584 
L 471.803916 239.23361 
L 472.578885 240.018597 
L 473.353853 240.428156 
L 474.128822 240.701195 
L 474.903791 240.803584 
L 475.678759 241.383792 
L 476.453728 242.168779 
L 477.228697 242.339429 
L 478.778634 243.533974 
L 480.328572 242.817247 
L 481.10354 242.783117 
L 481.878509 242.134649 
L 483.428446 241.92987 
L 484.203415 240.974234 
L 484.978384 241.554442 
L 485.753353 240.735325 
L 486.528321 240.325766 
L 487.30329 239.643169 
L 488.078259 240.564675 
L 488.853227 241.725091 
L 490.403165 241.417922 
L 491.178134 240.155117 
L 491.953102 241.349662 
L 492.728071 240.905974 
L 493.50304 241.110753 
L 494.278008 241.554442 
L 496.602915 241.452052 
L 497.377883 241.520312 
L 498.927821 242.714857 
L 499.702789 242.680727 
L 500.477758 242.783117 
L 501.252727 242.134649 
L 502.027696 243.636364 
L 502.802664 243.260935 
L 503.577633 243.397455 
L 504.352602 243.943532 
L 505.12757 243.397455 
L 506.677508 241.92987 
L 507.452477 242.339429 
L 508.227445 242.544208 
L 509.002414 242.339429 
L 509.777383 242.680727 
L 510.552351 241.92987 
L 511.32732 240.974234 
L 512.102289 241.247273 
L 512.877258 241.008364 
L 513.652226 240.052727 
L 514.427195 239.643169 
L 515.977132 240.052727 
L 516.752101 238.926442 
L 517.52707 239.916208 
L 518.302038 240.052727 
L 519.077007 239.677299 
L 519.851976 240.086857 
L 520.626945 239.43839 
L 521.401913 239.984468 
L 522.176882 239.40426 
L 522.951851 240.837714 
L 523.726819 241.042494 
L 524.501788 242.134649 
L 525.276757 241.759221 
L 526.051726 242.680727 
L 526.826694 242.100519 
L 528.376632 243.192675 
L 529.926569 242.339429 
L 530.701538 241.486182 
L 531.476507 241.076623 
L 532.251475 240.905974 
L 533.026444 241.213143 
L 533.801413 240.905974 
L 535.35135 239.916208 
L 536.126319 238.346234 
L 536.901288 239.30187 
L 537.676256 238.960571 
L 538.451225 238.448623 
L 539.226194 238.277974 
L 540.001162 238.892312 
L 541.5511 239.677299 
L 542.326069 239.711429 
L 543.101037 239.609039 
L 544.650975 241.793351 
L 545.425943 241.213143 
L 546.200912 241.89574 
L 546.975881 241.725091 
L 547.750849 241.144883 
L 548.525818 240.837714 
L 549.300787 240.291636 
L 550.075756 239.916208 
L 550.850724 239.30187 
L 551.625693 240.086857 
L 553.17563 239.882078 
L 553.950599 240.189247 
L 554.725568 239.916208 
L 556.275505 239.062961 
L 557.050474 238.721662 
L 557.825443 239.40426 
L 558.600411 240.257506 
L 559.37538 240.905974 
L 560.150349 240.769455 
L 561.700286 240.223377 
L 562.475255 241.042494 
L 563.250224 240.325766 
L 564.025192 240.052727 
L 564.800161 240.291636 
L 565.57513 240.701195 
L 567.125067 239.677299 
L 567.900036 239.813818 
L 568.675005 240.462286 
L 569.449973 238.858182 
L 570.224942 238.585143 
L 570.999911 237.970805 
L 571.77488 238.619273 
L 572.549848 238.858182 
L 573.324817 239.677299 
L 574.099786 238.448623 
L 574.874754 238.141455 
L 575.649723 238.448623 
L 576.424692 238.551013 
L 577.199661 239.609039 
L 577.974629 239.199481 
L 578.749598 239.506649 
L 579.524567 238.277974 
L 580.299535 240.257506 
L 581.074504 239.916208 
L 581.849473 240.598805 
L 582.624441 240.769455 
L 583.39941 240.359896 
L 584.174379 238.858182 
L 585.724316 239.131221 
L 587.274254 240.018597 
L 588.049222 240.223377 
L 588.824191 239.916208 
L 589.59916 240.428156 
L 590.374129 240.291636 
L 591.149097 240.940104 
L 591.924066 241.281403 
L 592.699035 240.735325 
L 593.474003 240.530545 
L 594.248972 241.179013 
L 595.023941 240.086857 
L 595.79891 239.506649 
L 596.573878 239.574909 
L 597.348847 239.472519 
L 598.123816 238.824052 
L 598.898784 239.062961 
L 599.673753 238.516883 
L 600.448722 239.336 
L 601.223691 238.960571 
L 601.998659 238.994701 
L 602.773628 239.43839 
L 604.323565 238.824052 
L 605.098534 238.858182 
L 605.873503 239.23361 
L 606.648472 238.926442 
L 607.42344 238.482753 
L 608.198409 238.516883 
L 608.973378 239.677299 
L 609.748346 240.189247 
L 610.523315 241.144883 
L 611.298284 239.847948 
L 612.073253 240.120987 
L 612.848221 239.506649 
L 613.62319 239.37013 
L 614.398159 238.141455 
L 615.173127 238.721662 
L 615.948096 238.619273 
L 617.498033 239.199481 
L 618.273002 239.677299 
L 619.047971 240.018597 
L 619.82294 239.813818 
L 620.597908 240.325766 
L 621.372877 240.632935 
L 622.147846 241.759221 
L 622.922814 241.690961 
L 623.697783 242.03226 
L 624.472752 241.383792 
L 625.247721 240.394026 
L 626.022689 239.165351 
L 626.797658 239.643169 
L 627.572627 239.336 
L 628.347595 239.23361 
L 629.122564 239.984468 
L 630.672502 241.247273 
L 632.222439 241.417922 
L 632.997408 241.315532 
L 633.772376 240.803584 
L 634.547345 241.281403 
L 635.322314 241.520312 
L 636.097283 242.134649 
L 637.64722 241.964 
L 638.422189 242.953766 
L 639.972126 243.738753 
L 640.747095 243.772883 
L 641.522064 244.455481 
L 642.297032 242.919636 
L 643.072001 242.134649 
L 643.84697 242.578338 
L 644.621938 241.383792 
L 645.396907 241.349662 
L 646.171876 241.690961 
L 646.946844 241.383792 
L 647.721813 241.452052 
L 648.496782 241.179013 
L 649.271751 242.100519 
L 650.046719 242.134649 
L 650.821688 241.964 
L 651.596657 242.407688 
L 652.371625 240.871844 
L 653.146594 240.940104 
L 653.921563 241.690961 
L 656.246469 240.905974 
L 657.796406 242.271169 
L 658.571375 243.636364 
L 659.346344 242.817247 
L 660.121313 243.056156 
L 660.896281 242.202909 
L 661.67125 242.987896 
L 661.67125 242.987896 
" clip-path="url(#p9a0da09d34)" style="fill: none; stroke: #0072bd; stroke-width: 2.5; stroke-linecap: square"/>
   </g>
   <g id="line2d_39">
    <path d="M 42.47125 240.564675 
L 661.67125 240.564675 
" clip-path="url(#p9a0da09d34)" style="fill: none; stroke-dasharray: 7.4,3.2; stroke-dashoffset: 0; stroke: #77ac30; stroke-width: 2"/>
   </g>
   <g id="line2d_40">
    <path d="M 352.07125 286.64 
L 352.07125 23.84 
" clip-path="url(#p9a0da09d34)" style="fill: none; stroke-dasharray: 1.5,2.475; stroke-dashoffset: 0; stroke: #8c8c8c; stroke-opacity: 0.5; stroke-width: 1.5"/>
   </g>
   <g id="patch_3">
    <path d="M 42.47125 286.64 
L 42.47125 23.84 
" style="fill: none; stroke: #000000; stroke-width: 0.8; stroke-linejoin: miter; stroke-linecap: square"/>
   </g>
   <g id="patch_4">
    <path d="M 42.47125 286.64 
L 661.67125 286.64 
" style="fill: none; stroke: #000000; stroke-width: 0.8; stroke-linejoin: miter; stroke-linecap: square"/>
   </g>
   <g id="text_20">
    <!-- $\delta_p: 1 \to 2$ -->
    <g style="fill: #595959" transform="translate(359.81125 234.796883) scale(0.12 -0.12)">
     <defs>
      <path id="Cmmi10-b1" d="M 1281 -97 
Q 1059 -97 868 -14 
Q 678 69 536 225 
Q 394 381 325 573 
Q 256 766 256 991 
Q 256 1391 445 1767 
Q 634 2144 961 2419 
Q 1288 2694 1672 2791 
Q 1484 3138 1386 3389 
Q 1288 3641 1288 3903 
Q 1288 4097 1378 4245 
Q 1469 4394 1628 4478 
Q 1788 4563 1984 4563 
Q 2175 4563 2741 4434 
Q 2888 4400 2888 4263 
Q 2888 4156 2809 4068 
Q 2731 3981 2625 3981 
Q 2547 3981 2484 4017 
Q 2422 4053 2287 4143 
Q 2153 4234 2047 4282 
Q 1941 4331 1825 4331 
Q 1694 4331 1589 4251 
Q 1484 4172 1484 4044 
Q 1484 3841 1664 3577 
Q 1844 3313 2175 2900 
Q 2553 2419 2553 1838 
Q 2553 1550 2470 1215 
Q 2388 881 2230 584 
Q 2072 288 1826 95 
Q 1581 -97 1281 -97 
z
M 1294 78 
Q 1544 78 1723 337 
Q 1903 597 1995 955 
Q 2088 1313 2088 1556 
Q 2088 2034 1753 2631 
Q 1416 2538 1172 2238 
Q 928 1938 803 1547 
Q 678 1156 678 806 
Q 678 500 837 289 
Q 997 78 1294 78 
z
" transform="scale(0.015625)"/>
      <path id="Cmmi10-70" d="M -159 -1241 
Q -219 -1241 -219 -1159 
Q -197 -1019 -134 -1019 
Q 66 -1019 145 -983 
Q 225 -947 269 -800 
L 991 2081 
Q 1038 2200 1038 2388 
Q 1038 2663 850 2663 
Q 650 2663 553 2423 
Q 456 2184 366 1819 
Q 366 1778 313 1778 
L 238 1778 
Q 222 1778 203 1801 
Q 184 1825 184 1844 
Q 253 2122 317 2315 
Q 381 2509 517 2668 
Q 653 2828 856 2828 
Q 1075 2828 1240 2704 
Q 1406 2581 1453 2369 
Q 1628 2572 1840 2700 
Q 2053 2828 2278 2828 
Q 2547 2828 2745 2684 
Q 2944 2541 3044 2308 
Q 3144 2075 3144 1806 
Q 3144 1394 2933 953 
Q 2722 513 2361 220 
Q 2000 -72 1588 -72 
Q 1400 -72 1248 34 
Q 1097 141 1013 313 
L 722 -825 
Q 706 -919 703 -934 
Q 703 -1019 1125 -1019 
Q 1191 -1019 1191 -1100 
Q 1169 -1184 1155 -1212 
Q 1141 -1241 1081 -1241 
L -159 -1241 
z
M 1594 97 
Q 1816 97 2006 280 
Q 2197 463 2316 691 
Q 2403 863 2479 1111 
Q 2556 1359 2612 1640 
Q 2669 1922 2669 2088 
Q 2669 2234 2630 2362 
Q 2591 2491 2502 2577 
Q 2413 2663 2266 2663 
Q 2031 2663 1823 2495 
Q 1616 2328 1447 2081 
L 1447 2059 
L 1094 647 
Q 1138 419 1263 258 
Q 1388 97 1594 97 
z
" transform="scale(0.015625)"/>
      <path id="Cmr10-3a" d="M 538 353 
Q 538 497 644 600 
Q 750 703 891 703 
Q 978 703 1062 656 
Q 1147 609 1194 525 
Q 1241 441 1241 353 
Q 1241 213 1137 106 
Q 1034 0 891 0 
Q 750 0 644 106 
Q 538 213 538 353 
z
M 538 2406 
Q 538 2497 584 2578 
Q 631 2659 714 2709 
Q 797 2759 891 2759 
Q 981 2759 1064 2709 
Q 1147 2659 1194 2578 
Q 1241 2497 1241 2406 
Q 1241 2263 1139 2158 
Q 1038 2053 891 2053 
Q 747 2053 642 2158 
Q 538 2263 538 2406 
z
" transform="scale(0.015625)"/>
      <path id="Cmr10-31" d="M 594 0 
L 594 225 
Q 1394 225 1394 428 
L 1394 3788 
Q 1063 3628 556 3628 
L 556 3853 
Q 1341 3853 1741 4263 
L 1831 4263 
Q 1853 4263 1873 4245 
Q 1894 4228 1894 4206 
L 1894 428 
Q 1894 225 2694 225 
L 2694 0 
L 594 0 
z
" transform="scale(0.015625)"/>
      <path id="Cmsy10-21" d="M 481 1472 
Q 428 1472 393 1512 
Q 359 1553 359 1600 
Q 359 1647 393 1687 
Q 428 1728 481 1728 
L 5338 1728 
Q 5094 1903 4906 2133 
Q 4719 2363 4594 2627 
Q 4469 2891 4416 3188 
Q 4416 3272 4481 3272 
L 4609 3272 
Q 4631 3272 4648 3253 
Q 4666 3234 4672 3213 
Q 4725 2938 4839 2702 
Q 4953 2466 5125 2262 
Q 5297 2059 5509 1912 
Q 5722 1766 5991 1672 
Q 6034 1644 6034 1600 
Q 6034 1550 5991 1538 
Q 5656 1422 5378 1192 
Q 5100 963 4919 652 
Q 4738 341 4672 -13 
Q 4666 -34 4647 -53 
Q 4628 -72 4609 -72 
L 4481 -72 
Q 4416 -72 4416 13 
Q 4497 450 4740 836 
Q 4984 1222 5338 1472 
L 481 1472 
z
" transform="scale(0.015625)"/>
      <path id="Cmr10-32" d="M 319 0 
L 319 172 
Q 319 188 331 206 
L 1325 1306 
Q 1550 1550 1690 1715 
Q 1831 1881 1968 2097 
Q 2106 2313 2186 2536 
Q 2266 2759 2266 3009 
Q 2266 3272 2169 3511 
Q 2072 3750 1880 3894 
Q 1688 4038 1416 4038 
Q 1138 4038 916 3870 
Q 694 3703 603 3438 
Q 628 3444 672 3444 
Q 816 3444 917 3347 
Q 1019 3250 1019 3097 
Q 1019 2950 917 2848 
Q 816 2747 672 2747 
Q 522 2747 420 2851 
Q 319 2956 319 3097 
Q 319 3338 409 3548 
Q 500 3759 670 3923 
Q 841 4088 1055 4175 
Q 1269 4263 1509 4263 
Q 1875 4263 2190 4108 
Q 2506 3953 2690 3670 
Q 2875 3388 2875 3009 
Q 2875 2731 2753 2481 
Q 2631 2231 2440 2026 
Q 2250 1822 1953 1562 
Q 1656 1303 1563 1216 
L 838 519 
L 1453 519 
Q 1906 519 2211 526 
Q 2516 534 2534 550 
Q 2609 631 2688 1141 
L 2875 1141 
L 2694 0 
L 319 0 
z
" transform="scale(0.015625)"/>
     </defs>
     <use xlink:href="#Cmmi10-b1" transform="translate(0 0.703125)"/>
     <use xlink:href="#Cmmi10-70" transform="translate(44.384766 -16.303125) scale(0.7)"/>
     <use xlink:href="#Cmr10-3a" transform="translate(103.525781 0.703125)"/>
     <use xlink:href="#Cmr10-31" transform="translate(148.769922 0.703125)"/>
     <use xlink:href="#Cmsy10-21" transform="translate(216.328516 0.703125)"/>
     <use xlink:href="#Cmr10-32" transform="translate(333.887109 0.703125)"/>
    </g>
   </g>
   <g id="text_21">
    <!-- Perfect adaptation (stochastic, $\gamma_c = 0$) -->
    <g transform="translate(207.59125 17.84) scale(0.14 -0.14)">
     <defs>
      <path id="DejaVuSerif-Bold-50" d="M 300 0 
L 300 378 
L 897 378 
L 897 4288 
L 300 4288 
L 300 4666 
L 2956 4666 
Q 3734 4666 4193 4295 
Q 4653 3925 4653 3303 
Q 4653 2678 4192 2304 
Q 3731 1931 2956 1931 
L 2100 1931 
L 2100 378 
L 2853 378 
L 2853 0 
L 300 0 
z
M 2100 2309 
L 2450 2309 
Q 2856 2309 3098 2579 
Q 3341 2850 3341 3303 
Q 3341 3753 3100 4020 
Q 2859 4288 2450 4288 
L 2100 4288 
L 2100 2309 
z
" transform="scale(0.015625)"/>
      <path id="DejaVuSerif-Bold-65" d="M 2566 1875 
Q 2566 2531 2444 2795 
Q 2322 3059 2028 3059 
Q 1744 3059 1620 2800 
Q 1497 2541 1497 1931 
L 1497 1875 
L 2566 1875 
z
M 3781 1503 
L 1497 1503 
L 1497 1478 
Q 1497 834 1690 548 
Q 1884 263 2316 263 
Q 2675 263 2897 453 
Q 3119 644 3181 1006 
L 3700 1006 
Q 3566 441 3166 175 
Q 2766 -91 2047 -91 
Q 1184 -91 723 364 
Q 263 819 263 1663 
Q 263 2488 734 2950 
Q 1206 3413 2047 3413 
Q 2872 3413 3312 2927 
Q 3753 2441 3781 1503 
z
" transform="scale(0.015625)"/>
      <path id="DejaVuSerif-Bold-72" d="M 3438 3359 
L 3438 2369 
L 3084 2369 
Q 3066 2634 2941 2764 
Q 2816 2894 2578 2894 
Q 2216 2894 2006 2575 
Q 1797 2256 1797 1691 
L 1797 378 
L 2400 378 
L 2400 0 
L 219 0 
L 219 378 
L 691 378 
L 691 2944 
L 184 2944 
L 184 3322 
L 1797 3322 
L 1797 2731 
Q 1959 3078 2226 3245 
Q 2494 3413 2881 3413 
Q 2978 3413 3117 3398 
Q 3256 3384 3438 3359 
z
" transform="scale(0.015625)"/>
      <path id="DejaVuSerif-Bold-66" d="M 3097 4031 
L 2747 4031 
Q 2722 4275 2605 4394 
Q 2488 4513 2272 4513 
Q 2022 4513 1909 4333 
Q 1797 4153 1797 3750 
L 1797 3322 
L 2631 3322 
L 2631 2944 
L 1797 2944 
L 1797 378 
L 2438 378 
L 2438 0 
L 219 0 
L 219 378 
L 691 378 
L 691 2944 
L 197 2944 
L 197 3322 
L 691 3322 
L 691 3738 
Q 691 4291 1044 4577 
Q 1397 4863 2081 4863 
Q 2347 4863 2600 4833 
Q 2853 4803 3097 4744 
L 3097 4031 
z
" transform="scale(0.015625)"/>
      <path id="DejaVuSerif-Bold-63" d="M 3609 1038 
Q 3491 469 3123 189 
Q 2756 -91 2125 -91 
Q 1238 -91 750 368 
Q 263 828 263 1663 
Q 263 2488 744 2950 
Q 1225 3413 2081 3413 
Q 2428 3413 2781 3347 
Q 3134 3281 3500 3150 
L 3500 2228 
L 3150 2228 
Q 3100 2650 2903 2854 
Q 2706 3059 2350 3059 
Q 1888 3059 1692 2746 
Q 1497 2434 1497 1663 
Q 1497 909 1687 586 
Q 1878 263 2309 263 
Q 2644 263 2845 463 
Q 3047 663 3091 1038 
L 3609 1038 
z
" transform="scale(0.015625)"/>
      <path id="DejaVuSerif-Bold-74" d="M 634 2944 
L 153 2944 
L 153 3322 
L 634 3322 
L 634 4353 
L 1741 4353 
L 1741 3322 
L 2663 3322 
L 2663 2944 
L 1741 2944 
L 1741 909 
Q 1741 475 1809 369 
Q 1878 263 2059 263 
Q 2259 263 2356 397 
Q 2453 531 2459 813 
L 2925 813 
Q 2897 313 2651 111 
Q 2406 -91 1806 -91 
Q 1122 -91 878 123 
Q 634 338 634 909 
L 634 2944 
z
" transform="scale(0.015625)"/>
      <path id="DejaVuSerif-Bold-20" transform="scale(0.015625)"/>
      <path id="DejaVuSerif-Bold-61" d="M 3525 2041 
L 3525 378 
L 4000 378 
L 4000 0 
L 2419 0 
L 2419 422 
Q 2200 159 1931 34 
Q 1663 -91 1319 -91 
Q 809 -91 536 182 
Q 263 456 263 966 
Q 263 1525 655 1803 
Q 1047 2081 1838 2081 
L 2419 2081 
L 2419 2278 
Q 2419 2681 2228 2873 
Q 2038 3066 1638 3066 
Q 1306 3066 1126 2930 
Q 947 2794 872 2484 
L 519 2484 
L 519 3200 
Q 816 3306 1134 3359 
Q 1453 3413 1806 3413 
Q 2697 3413 3111 3081 
Q 3525 2750 3525 2041 
z
M 2419 1044 
L 2419 1709 
L 2003 1709 
Q 1694 1709 1528 1540 
Q 1363 1372 1363 1056 
Q 1363 741 1483 584 
Q 1603 428 1850 428 
Q 2106 428 2262 597 
Q 2419 766 2419 1044 
z
" transform="scale(0.015625)"/>
      <path id="DejaVuSerif-Bold-64" d="M 2747 1497 
L 2747 1825 
Q 2747 2406 2597 2665 
Q 2447 2925 2119 2925 
Q 1775 2925 1636 2651 
Q 1497 2378 1497 1663 
Q 1497 947 1637 672 
Q 1778 397 2119 397 
Q 2447 397 2597 656 
Q 2747 916 2747 1497 
z
M 3853 378 
L 4325 378 
L 4325 0 
L 2747 0 
L 2747 422 
Q 2606 163 2367 36 
Q 2128 -91 1778 -91 
Q 1072 -91 667 378 
Q 263 847 263 1663 
Q 263 2481 667 2947 
Q 1072 3413 1778 3413 
Q 2128 3413 2367 3286 
Q 2606 3159 2747 2900 
L 2747 4488 
L 2272 4488 
L 2272 4863 
L 3853 4863 
L 3853 378 
z
" transform="scale(0.015625)"/>
      <path id="DejaVuSerif-Bold-70" d="M 1728 1825 
L 1728 1497 
Q 1728 916 1876 656 
Q 2025 397 2356 397 
Q 2697 397 2836 672 
Q 2975 947 2975 1663 
Q 2975 2378 2836 2651 
Q 2697 2925 2356 2925 
Q 2025 2925 1876 2665 
Q 1728 2406 1728 1825 
z
M 622 2944 
L 147 2944 
L 147 3322 
L 1728 3322 
L 1728 2900 
Q 1869 3159 2106 3286 
Q 2344 3413 2694 3413 
Q 3403 3413 3811 2945 
Q 4219 2478 4219 1663 
Q 4219 847 3811 378 
Q 3403 -91 2694 -91 
Q 2344 -91 2106 36 
Q 1869 163 1728 422 
L 1728 -953 
L 2241 -953 
L 2241 -1331 
L 147 -1331 
L 147 -953 
L 622 -953 
L 622 2944 
z
" transform="scale(0.015625)"/>
      <path id="DejaVuSerif-Bold-69" d="M 588 4263 
Q 588 4516 763 4689 
Q 938 4863 1191 4863 
Q 1438 4863 1611 4689 
Q 1784 4516 1784 4263 
Q 1784 4016 1611 3842 
Q 1438 3669 1191 3669 
Q 938 3669 763 3841 
Q 588 4013 588 4263 
z
M 1797 378 
L 2272 378 
L 2272 0 
L 219 0 
L 219 378 
L 691 378 
L 691 2944 
L 219 2944 
L 219 3322 
L 1797 3322 
L 1797 378 
z
" transform="scale(0.015625)"/>
      <path id="DejaVuSerif-Bold-6f" d="M 2138 263 
Q 2488 263 2630 563 
Q 2772 863 2772 1663 
Q 2772 2463 2631 2761 
Q 2491 3059 2138 3059 
Q 1784 3059 1640 2757 
Q 1497 2456 1497 1663 
Q 1497 869 1640 566 
Q 1784 263 2138 263 
z
M 2138 -91 
Q 1259 -91 761 376 
Q 263 844 263 1663 
Q 263 2484 761 2948 
Q 1259 3413 2138 3413 
Q 3019 3413 3516 2948 
Q 4013 2484 4013 1663 
Q 4013 844 3514 376 
Q 3016 -91 2138 -91 
z
" transform="scale(0.015625)"/>
      <path id="DejaVuSerif-Bold-6e" d="M 219 0 
L 219 378 
L 691 378 
L 691 2944 
L 219 2944 
L 219 3322 
L 1797 3322 
L 1797 2853 
Q 1997 3150 2253 3281 
Q 2509 3413 2900 3413 
Q 3459 3413 3745 3083 
Q 4031 2753 4031 2113 
L 4031 378 
L 4506 378 
L 4506 0 
L 2522 0 
L 2522 378 
L 2925 378 
L 2925 2144 
Q 2925 2566 2817 2730 
Q 2709 2894 2444 2894 
Q 2109 2894 1953 2648 
Q 1797 2403 1797 1869 
L 1797 378 
L 2203 378 
L 2203 0 
L 219 0 
z
" transform="scale(0.015625)"/>
      <path id="DejaVuSerif-Bold-28" d="M 2694 -997 
Q 1641 -606 1122 122 
Q 603 850 603 1931 
Q 603 3013 1115 3731 
Q 1628 4450 2694 4863 
L 2694 4488 
Q 2200 4188 1983 3598 
Q 1766 3009 1766 1931 
Q 1766 856 1983 267 
Q 2200 -322 2694 -622 
L 2694 -997 
z
" transform="scale(0.015625)"/>
      <path id="DejaVuSerif-Bold-73" d="M 300 97 
L 300 1025 
L 653 1025 
Q 697 653 931 458 
Q 1166 263 1569 263 
Q 1906 263 2086 380 
Q 2266 497 2266 716 
Q 2266 916 2152 1025 
Q 2038 1134 1709 1216 
L 1253 1331 
Q 738 1459 506 1698 
Q 275 1938 275 2344 
Q 275 2884 650 3148 
Q 1025 3413 1806 3413 
Q 2100 3413 2433 3364 
Q 2766 3316 3169 3213 
L 3169 2375 
L 2816 2375 
Q 2788 2716 2573 2887 
Q 2359 3059 1959 3059 
Q 1622 3059 1448 2951 
Q 1275 2844 1275 2638 
Q 1275 2469 1375 2372 
Q 1475 2275 1734 2209 
L 2188 2094 
Q 2841 1928 3091 1684 
Q 3341 1441 3341 1006 
Q 3341 444 2939 176 
Q 2538 -91 1691 -91 
Q 1381 -91 1034 -44 
Q 688 3 300 97 
z
" transform="scale(0.015625)"/>
      <path id="DejaVuSerif-Bold-68" d="M 219 0 
L 219 378 
L 691 378 
L 691 4488 
L 197 4488 
L 197 4863 
L 1797 4863 
L 1797 2853 
Q 1997 3150 2253 3281 
Q 2509 3413 2900 3413 
Q 3459 3413 3745 3083 
Q 4031 2753 4031 2113 
L 4031 378 
L 4506 378 
L 4506 0 
L 2522 0 
L 2522 378 
L 2925 378 
L 2925 2144 
Q 2925 2566 2817 2730 
Q 2709 2894 2444 2894 
Q 2109 2894 1953 2648 
Q 1797 2403 1797 1869 
L 1797 378 
L 2203 378 
L 2203 0 
L 219 0 
z
" transform="scale(0.015625)"/>
      <path id="DejaVuSerif-Bold-2c" d="M 84 -616 
Q 409 -353 562 -28 
Q 716 297 716 728 
L 716 997 
L 1606 997 
L 1606 972 
Q 1606 281 1317 -217 
Q 1028 -716 428 -1056 
L 84 -616 
z
" transform="scale(0.015625)"/>
      <path id="Cmmi10-b0" d="M 1888 -1253 
Q 1888 -1109 1952 -834 
Q 2016 -559 2108 -248 
Q 2200 63 2266 263 
Q 2291 581 2291 744 
Q 2291 1156 2209 1511 
Q 2128 1866 1903 2105 
Q 1678 2344 1275 2344 
Q 1063 2344 852 2253 
Q 641 2163 489 2000 
Q 338 1838 281 1631 
Q 269 1594 231 1594 
L 153 1594 
Q 103 1594 103 1650 
L 103 1672 
Q 175 1959 358 2226 
Q 541 2494 805 2661 
Q 1069 2828 1363 2828 
Q 1663 2828 1881 2625 
Q 2100 2422 2231 2109 
Q 2363 1797 2420 1478 
Q 2478 1159 2478 878 
Q 2800 1753 3200 2534 
L 3297 2741 
Q 3316 2759 3341 2759 
L 3419 2759 
Q 3469 2759 3469 2700 
Q 3469 2688 3456 2663 
L 3359 2463 
Q 3081 1909 2848 1340 
Q 2616 772 2450 244 
Q 2425 28 2354 -347 
Q 2284 -722 2184 -1045 
Q 2084 -1369 1984 -1381 
Q 1888 -1381 1888 -1253 
z
" transform="scale(0.015625)"/>
      <path id="Cmmi10-63" d="M 750 763 
Q 750 484 892 290 
Q 1034 97 1300 97 
Q 1681 97 2032 272 
Q 2384 447 2606 756 
Q 2625 775 2656 775 
Q 2688 775 2720 739 
Q 2753 703 2753 672 
Q 2753 647 2741 634 
Q 2506 306 2109 117 
Q 1713 -72 1288 -72 
Q 981 -72 747 73 
Q 513 219 384 462 
Q 256 706 256 1013 
Q 256 1444 497 1869 
Q 738 2294 1138 2561 
Q 1538 2828 1978 2828 
Q 2266 2828 2495 2689 
Q 2725 2550 2725 2278 
Q 2725 2103 2623 1979 
Q 2522 1856 2350 1856 
Q 2247 1856 2176 1920 
Q 2106 1984 2106 2088 
Q 2106 2238 2215 2344 
Q 2325 2450 2472 2450 
L 2484 2450 
Q 2409 2559 2267 2611 
Q 2125 2663 1972 2663 
Q 1597 2663 1315 2342 
Q 1034 2022 892 1576 
Q 750 1131 750 763 
z
" transform="scale(0.015625)"/>
      <path id="Cmr10-3d" d="M 481 850 
Q 428 850 393 890 
Q 359 931 359 978 
Q 359 1031 393 1068 
Q 428 1106 481 1106 
L 4500 1106 
Q 4547 1106 4581 1068 
Q 4616 1031 4616 978 
Q 4616 931 4581 890 
Q 4547 850 4500 850 
L 481 850 
z
M 481 2094 
Q 428 2094 393 2131 
Q 359 2169 359 2222 
Q 359 2269 393 2309 
Q 428 2350 481 2350 
L 4500 2350 
Q 4547 2350 4581 2309 
Q 4616 2269 4616 2222 
Q 4616 2169 4581 2131 
Q 4547 2094 4500 2094 
L 481 2094 
z
" transform="scale(0.015625)"/>
      <path id="Cmr10-30" d="M 1600 -141 
Q 816 -141 533 504 
Q 250 1150 250 2041 
Q 250 2597 351 3087 
Q 453 3578 754 3920 
Q 1056 4263 1600 4263 
Q 2022 4263 2290 4056 
Q 2559 3850 2700 3523 
Q 2841 3197 2892 2823 
Q 2944 2450 2944 2041 
Q 2944 1491 2842 1011 
Q 2741 531 2444 195 
Q 2147 -141 1600 -141 
z
M 1600 25 
Q 1956 25 2131 390 
Q 2306 756 2347 1200 
Q 2388 1644 2388 2144 
Q 2388 2625 2347 3031 
Q 2306 3438 2132 3767 
Q 1959 4097 1600 4097 
Q 1238 4097 1063 3765 
Q 888 3434 847 3029 
Q 806 2625 806 2144 
Q 806 1788 823 1472 
Q 841 1156 916 820 
Q 991 484 1158 254 
Q 1325 25 1600 25 
z
" transform="scale(0.015625)"/>
      <path id="DejaVuSerif-Bold-29" d="M 325 -997 
L 325 -622 
Q 819 -322 1036 267 
Q 1253 856 1253 1931 
Q 1253 3009 1036 3598 
Q 819 4188 325 4488 
L 325 4863 
Q 1391 4450 1905 3731 
Q 2419 3013 2419 1931 
Q 2419 850 1898 122 
Q 1378 -606 325 -997 
z
" transform="scale(0.015625)"/>
     </defs>
     <use xlink:href="#DejaVuSerif-Bold-50" transform="translate(0 0.015625)"/>
     <use xlink:href="#DejaVuSerif-Bold-65" transform="translate(75.195312 0.015625)"/>
     <use xlink:href="#DejaVuSerif-Bold-72" transform="translate(138.818359 0.015625)"/>
     <use xlink:href="#DejaVuSerif-Bold-66" transform="translate(191.503906 0.015625)"/>
     <use xlink:href="#DejaVuSerif-Bold-65" transform="translate(234.521484 0.015625)"/>
     <use xlink:href="#DejaVuSerif-Bold-63" transform="translate(298.144531 0.015625)"/>
     <use xlink:href="#DejaVuSerif-Bold-74" transform="translate(359.033203 0.015625)"/>
     <use xlink:href="#DejaVuSerif-Bold-20" transform="translate(405.224609 0.015625)"/>
     <use xlink:href="#DejaVuSerif-Bold-61" transform="translate(440.039062 0.015625)"/>
     <use xlink:href="#DejaVuSerif-Bold-64" transform="translate(504.833984 0.015625)"/>
     <use xlink:href="#DejaVuSerif-Bold-61" transform="translate(574.755859 0.015625)"/>
     <use xlink:href="#DejaVuSerif-Bold-70" transform="translate(639.550781 0.015625)"/>
     <use xlink:href="#DejaVuSerif-Bold-74" transform="translate(709.472656 0.015625)"/>
     <use xlink:href="#DejaVuSerif-Bold-61" transform="translate(755.664062 0.015625)"/>
     <use xlink:href="#DejaVuSerif-Bold-74" transform="translate(820.458984 0.015625)"/>
     <use xlink:href="#DejaVuSerif-Bold-69" transform="translate(866.650391 0.015625)"/>
     <use xlink:href="#DejaVuSerif-Bold-6f" transform="translate(904.638672 0.015625)"/>
     <use xlink:href="#DejaVuSerif-Bold-6e" transform="translate(971.337891 0.015625)"/>
     <use xlink:href="#DejaVuSerif-Bold-20" transform="translate(1044.042969 0.015625)"/>
     <use xlink:href="#DejaVuSerif-Bold-28" transform="translate(1078.857422 0.015625)"/>
     <use xlink:href="#DejaVuSerif-Bold-73" transform="translate(1126.171875 0.015625)"/>
     <use xlink:href="#DejaVuSerif-Bold-74" transform="translate(1182.470703 0.015625)"/>
     <use xlink:href="#DejaVuSerif-Bold-6f" transform="translate(1228.662109 0.015625)"/>
     <use xlink:href="#DejaVuSerif-Bold-63" transform="translate(1295.361328 0.015625)"/>
     <use xlink:href="#DejaVuSerif-Bold-68" transform="translate(1356.25 0.015625)"/>
     <use xlink:href="#DejaVuSerif-Bold-61" transform="translate(1428.955078 0.015625)"/>
     <use xlink:href="#DejaVuSerif-Bold-73" transform="translate(1493.75 0.015625)"/>
     <use xlink:href="#DejaVuSerif-Bold-74" transform="translate(1550.048828 0.015625)"/>
     <use xlink:href="#DejaVuSerif-Bold-69" transform="translate(1596.240234 0.015625)"/>
     <use xlink:href="#DejaVuSerif-Bold-63" transform="translate(1634.228516 0.015625)"/>
     <use xlink:href="#DejaVuSerif-Bold-2c" transform="translate(1695.117188 0.015625)"/>
     <use xlink:href="#DejaVuSerif-Bold-20" transform="translate(1729.931641 0.015625)"/>
     <use xlink:href="#Cmmi10-b0" transform="translate(1764.746094 0.015625)"/>
     <use xlink:href="#Cmmi10-63" transform="translate(1816.455078 -16.990625) scale(0.7)"/>
     <use xlink:href="#Cmr10-3d" transform="translate(1870.640039 0.015625)"/>
     <use xlink:href="#Cmr10-30" transform="translate(1965.88418 0.015625)"/>
     <use xlink:href="#DejaVuSerif-Bold-29" transform="translate(2015.88418 0.015625)"/>
    </g>
   </g>
   <g id="legend_1">
    <g id="patch_5">
     <path d="M 522.86125 94.772422 
L 654.32125 94.772422 
Q 656.42125 94.772422 656.42125 92.672422 
L 656.42125 31.19 
Q 656.42125 29.09 654.32125 29.09 
L 522.86125 29.09 
Q 520.76125 29.09 520.76125 31.19 
L 520.76125 92.672422 
Q 520.76125 94.772422 522.86125 94.772422 
z
" style="fill: #ffffff; opacity: 0.95; stroke: #bfbfbf; stroke-linejoin: miter"/>
    </g>
    <g id="line2d_41">
     <path d="M 524.96125 37.593359 
L 535.46125 37.593359 
L 545.96125 37.593359 
" style="fill: none; stroke: #0072bd; stroke-opacity: 0.2; stroke-width: 0.5; stroke-linecap: square"/>
    </g>
    <g id="text_22">
     <!-- Sample paths -->
     <g transform="translate(554.36125 41.268359) scale(0.105 -0.105)">
      <defs>
       <path id="DejaVuSerif-53" d="M 594 225 
L 594 1288 
L 953 1284 
Q 969 753 1261 498 
Q 1553 244 2150 244 
Q 2706 244 2998 464 
Q 3291 684 3291 1106 
Q 3291 1444 3114 1625 
Q 2938 1806 2369 1978 
L 1753 2163 
Q 1084 2366 811 2669 
Q 538 2972 538 3500 
Q 538 4094 959 4422 
Q 1381 4750 2144 4750 
Q 2469 4750 2856 4679 
Q 3244 4609 3681 4475 
L 3681 3481 
L 3328 3481 
Q 3275 3975 2998 4195 
Q 2722 4416 2156 4416 
Q 1663 4416 1405 4214 
Q 1147 4013 1147 3628 
Q 1147 3294 1340 3103 
Q 1534 2913 2163 2725 
L 2741 2553 
Q 3375 2363 3645 2067 
Q 3916 1772 3916 1275 
Q 3916 597 3481 253 
Q 3047 -91 2188 -91 
Q 1803 -91 1404 -12 
Q 1006 66 594 225 
z
" transform="scale(0.015625)"/>
       <path id="DejaVuSerif-61" d="M 2547 1044 
L 2547 1747 
L 1806 1747 
Q 1378 1747 1168 1562 
Q 959 1378 959 997 
Q 959 650 1171 447 
Q 1384 244 1747 244 
Q 2106 244 2326 466 
Q 2547 688 2547 1044 
z
M 3122 2075 
L 3122 331 
L 3634 331 
L 3634 0 
L 2547 0 
L 2547 359 
Q 2356 128 2106 18 
Q 1856 -91 1522 -91 
Q 969 -91 644 203 
Q 319 497 319 997 
Q 319 1513 691 1797 
Q 1063 2081 1741 2081 
L 2547 2081 
L 2547 2309 
Q 2547 2688 2317 2895 
Q 2088 3103 1672 3103 
Q 1328 3103 1125 2947 
Q 922 2791 872 2484 
L 575 2484 
L 575 3156 
Q 875 3284 1158 3348 
Q 1441 3413 1709 3413 
Q 2400 3413 2761 3070 
Q 3122 2728 3122 2075 
z
" transform="scale(0.015625)"/>
       <path id="DejaVuSerif-70" d="M 1313 1825 
L 1313 1497 
Q 1313 897 1542 583 
Q 1772 269 2209 269 
Q 2650 269 2876 622 
Q 3103 975 3103 1663 
Q 3103 2353 2876 2703 
Q 2650 3053 2209 3053 
Q 1772 3053 1542 2737 
Q 1313 2422 1313 1825 
z
M 738 2988 
L 184 2988 
L 184 3322 
L 1313 3322 
L 1313 2803 
Q 1481 3116 1742 3264 
Q 2003 3413 2388 3413 
Q 3000 3413 3387 2928 
Q 3775 2444 3775 1663 
Q 3775 881 3387 395 
Q 3000 -91 2388 -91 
Q 2003 -91 1742 57 
Q 1481 206 1313 519 
L 1313 -997 
L 1856 -997 
L 1856 -1331 
L 184 -1331 
L 184 -997 
L 738 -997 
L 738 2988 
z
" transform="scale(0.015625)"/>
       <path id="DejaVuSerif-6c" d="M 1313 331 
L 1856 331 
L 1856 0 
L 184 0 
L 184 331 
L 738 331 
L 738 4531 
L 184 4531 
L 184 4863 
L 1313 4863 
L 1313 331 
z
" transform="scale(0.015625)"/>
       <path id="DejaVuSerif-68" d="M 263 0 
L 263 331 
L 781 331 
L 781 4531 
L 231 4531 
L 231 4863 
L 1356 4863 
L 1356 2731 
Q 1516 3069 1770 3241 
Q 2025 3413 2363 3413 
Q 2913 3413 3172 3097 
Q 3431 2781 3431 2113 
L 3431 331 
L 3944 331 
L 3944 0 
L 2356 0 
L 2356 331 
L 2853 331 
L 2853 1931 
Q 2853 2541 2704 2764 
Q 2556 2988 2175 2988 
Q 1775 2988 1565 2697 
Q 1356 2406 1356 1850 
L 1356 331 
L 1856 331 
L 1856 0 
L 263 0 
z
" transform="scale(0.015625)"/>
       <path id="DejaVuSerif-73" d="M 359 184 
L 359 959 
L 691 959 
Q 703 588 923 403 
Q 1144 219 1575 219 
Q 1963 219 2166 364 
Q 2369 509 2369 788 
Q 2369 1006 2220 1140 
Q 2072 1275 1594 1428 
L 1178 1569 
Q 750 1706 558 1912 
Q 366 2119 366 2438 
Q 366 2894 700 3153 
Q 1034 3413 1625 3413 
Q 1888 3413 2178 3344 
Q 2469 3275 2778 3144 
L 2778 2419 
L 2447 2419 
Q 2434 2741 2221 2922 
Q 2009 3103 1644 3103 
Q 1281 3103 1095 2975 
Q 909 2847 909 2591 
Q 909 2381 1050 2254 
Q 1191 2128 1613 1997 
L 2069 1856 
Q 2541 1709 2748 1489 
Q 2956 1269 2956 922 
Q 2956 450 2595 179 
Q 2234 -91 1600 -91 
Q 1278 -91 972 -22 
Q 666 47 359 184 
z
" transform="scale(0.015625)"/>
      </defs>
      <use xlink:href="#DejaVuSerif-53"/>
      <use xlink:href="#DejaVuSerif-61" transform="translate(68.505859 0)"/>
      <use xlink:href="#DejaVuSerif-6d" transform="translate(128.125 0)"/>
      <use xlink:href="#DejaVuSerif-70" transform="translate(222.949219 0)"/>
      <use xlink:href="#DejaVuSerif-6c" transform="translate(286.962891 0)"/>
      <use xlink:href="#DejaVuSerif-65" transform="translate(318.945312 0)"/>
      <use xlink:href="#DejaVuSerif-20" transform="translate(378.125 0)"/>
      <use xlink:href="#DejaVuSerif-70" transform="translate(409.912109 0)"/>
      <use xlink:href="#DejaVuSerif-61" transform="translate(473.925781 0)"/>
      <use xlink:href="#DejaVuSerif-74" transform="translate(533.544922 0)"/>
      <use xlink:href="#DejaVuSerif-68" transform="translate(573.730469 0)"/>
      <use xlink:href="#DejaVuSerif-73" transform="translate(638.134766 0)"/>
     </g>
    </g>
    <g id="line2d_42">
     <path d="M 524.96125 53.005391 
L 535.46125 53.005391 
L 545.96125 53.005391 
" style="fill: none; stroke-dasharray: 6.66,2.88; stroke-dashoffset: 0; stroke: #d95319; stroke-opacity: 0.7; stroke-width: 1.8"/>
    </g>
    <g id="text_23">
     <!-- Deterministic -->
     <g transform="translate(554.36125 56.680391) scale(0.105 -0.105)">
      <defs>
       <path id="DejaVuSerif-44" d="M 1581 331 
L 2163 331 
Q 3072 331 3558 850 
Q 4044 1369 4044 2338 
Q 4044 3306 3559 3818 
Q 3075 4331 2163 4331 
L 1581 4331 
L 1581 331 
z
M 353 0 
L 353 331 
L 947 331 
L 947 4331 
L 353 4331 
L 353 4666 
L 2209 4666 
Q 3416 4666 4089 4050 
Q 4763 3434 4763 2338 
Q 4763 1238 4088 619 
Q 3413 0 2209 0 
L 353 0 
z
" transform="scale(0.015625)"/>
       <path id="DejaVuSerif-63" d="M 3291 997 
Q 3169 466 2822 187 
Q 2475 -91 1925 -91 
Q 1200 -91 759 389 
Q 319 869 319 1663 
Q 319 2459 759 2936 
Q 1200 3413 1925 3413 
Q 2241 3413 2553 3339 
Q 2866 3266 3181 3116 
L 3181 2266 
L 2847 2266 
Q 2781 2703 2561 2903 
Q 2341 3103 1931 3103 
Q 1466 3103 1228 2742 
Q 991 2381 991 1663 
Q 991 944 1227 581 
Q 1463 219 1931 219 
Q 2303 219 2525 412 
Q 2747 606 2828 997 
L 3291 997 
z
" transform="scale(0.015625)"/>
      </defs>
      <use xlink:href="#DejaVuSerif-44"/>
      <use xlink:href="#DejaVuSerif-65" transform="translate(80.175781 0)"/>
      <use xlink:href="#DejaVuSerif-74" transform="translate(139.355469 0)"/>
      <use xlink:href="#DejaVuSerif-65" transform="translate(179.541016 0)"/>
      <use xlink:href="#DejaVuSerif-72" transform="translate(238.720703 0)"/>
      <use xlink:href="#DejaVuSerif-6d" transform="translate(286.523438 0)"/>
      <use xlink:href="#DejaVuSerif-69" transform="translate(381.347656 0)"/>
      <use xlink:href="#DejaVuSerif-6e" transform="translate(413.330078 0)"/>
      <use xlink:href="#DejaVuSerif-69" transform="translate(477.734375 0)"/>
      <use xlink:href="#DejaVuSerif-73" transform="translate(509.716797 0)"/>
      <use xlink:href="#DejaVuSerif-74" transform="translate(561.035156 0)"/>
      <use xlink:href="#DejaVuSerif-69" transform="translate(601.220703 0)"/>
      <use xlink:href="#DejaVuSerif-63" transform="translate(633.203125 0)"/>
     </g>
    </g>
    <g id="line2d_43">
     <path d="M 524.96125 68.419062 
L 535.46125 68.419062 
L 545.96125 68.419062 
" style="fill: none; stroke: #0072bd; stroke-width: 2.5; stroke-linecap: square"/>
    </g>
    <g id="text_24">
     <!-- $E[P(t)]$ (1000 runs) -->
     <g transform="translate(554.36125 72.094062) scale(0.105 -0.105)">
      <defs>
       <path id="Cmmi10-45" d="M 300 0 
Q 238 0 238 84 
Q 241 100 250 139 
Q 259 178 276 201 
Q 294 225 319 225 
Q 709 225 863 269 
Q 947 297 984 441 
L 1863 3956 
Q 1875 4019 1875 4044 
Q 1875 4113 1797 4122 
Q 1678 4147 1338 4147 
Q 1275 4147 1275 4231 
Q 1278 4247 1287 4286 
Q 1297 4325 1314 4348 
Q 1331 4372 1356 4372 
L 4825 4372 
Q 4891 4372 4891 4288 
L 4738 2963 
Q 4738 2947 4714 2926 
Q 4691 2906 4672 2906 
L 4616 2906 
Q 4550 2906 4550 2988 
Q 4588 3300 4588 3450 
Q 4588 3706 4500 3848 
Q 4413 3991 4267 4053 
Q 4122 4116 3945 4131 
Q 3769 4147 3481 4147 
L 2753 4147 
Q 2578 4147 2522 4117 
Q 2466 4088 2419 3928 
L 2034 2381 
L 2534 2381 
Q 2859 2381 3025 2426 
Q 3191 2472 3287 2615 
Q 3384 2759 3463 3072 
Q 3469 3094 3486 3111 
Q 3503 3128 3525 3128 
L 3584 3128 
Q 3647 3128 3647 3047 
L 3250 1466 
Q 3238 1409 3188 1409 
L 3128 1409 
Q 3066 1409 3066 1491 
Q 3128 1747 3128 1869 
Q 3128 2056 2959 2106 
Q 2791 2156 2509 2156 
L 1978 2156 
L 1544 416 
Q 1516 338 1516 275 
Q 1516 225 1734 225 
L 2509 225 
Q 2972 225 3259 297 
Q 3547 369 3736 526 
Q 3925 684 4062 928 
Q 4200 1172 4397 1638 
Q 4409 1678 4453 1678 
L 4513 1678 
Q 4538 1678 4556 1656 
Q 4575 1634 4575 1606 
Q 4575 1594 4569 1581 
L 3909 38 
Q 3897 0 3859 0 
L 300 0 
z
" transform="scale(0.015625)"/>
       <path id="Cmr10-5b" d="M 756 -1600 
L 756 4800 
L 1631 4800 
L 1631 4544 
L 1013 4544 
L 1013 -1344 
L 1631 -1344 
L 1631 -1600 
L 756 -1600 
z
" transform="scale(0.015625)"/>
       <path id="Cmr10-5d" d="M 141 -1600 
L 141 -1344 
L 763 -1344 
L 763 4544 
L 141 4544 
L 141 4800 
L 1019 4800 
L 1019 -1600 
L 141 -1600 
z
" transform="scale(0.015625)"/>
       <path id="DejaVuSerif-28" d="M 2041 -997 
Q 1281 -656 893 83 
Q 506 822 506 1931 
Q 506 3044 893 3783 
Q 1281 4522 2041 4863 
L 2041 4556 
Q 1559 4225 1350 3623 
Q 1141 3022 1141 1931 
Q 1141 844 1350 242 
Q 1559 -359 2041 -691 
L 2041 -997 
z
" transform="scale(0.015625)"/>
       <path id="DejaVuSerif-75" d="M 2266 3322 
L 3341 3322 
L 3341 331 
L 3884 331 
L 3884 0 
L 2766 0 
L 2766 588 
Q 2606 256 2353 82 
Q 2100 -91 1766 -91 
Q 1213 -91 952 223 
Q 691 538 691 1209 
L 691 2988 
L 172 2988 
L 172 3322 
L 1269 3322 
L 1269 1388 
Q 1269 781 1417 556 
Q 1566 331 1947 331 
Q 2347 331 2556 625 
Q 2766 919 2766 1478 
L 2766 2988 
L 2266 2988 
L 2266 3322 
z
" transform="scale(0.015625)"/>
       <path id="DejaVuSerif-29" d="M 453 -997 
L 453 -691 
Q 934 -359 1145 242 
Q 1356 844 1356 1931 
Q 1356 3022 1145 3623 
Q 934 4225 453 4556 
L 453 4863 
Q 1216 4522 1603 3783 
Q 1991 3044 1991 1931 
Q 1991 822 1603 83 
Q 1216 -656 453 -997 
z
" transform="scale(0.015625)"/>
      </defs>
      <use xlink:href="#Cmmi10-45" transform="translate(0 0.015625)"/>
      <use xlink:href="#Cmr10-5b" transform="translate(73.779297 0.015625)"/>
      <use xlink:href="#Cmmi10-50" transform="translate(101.464844 0.015625)"/>
      <use xlink:href="#Cmr10-28" transform="translate(165.673828 0.015625)"/>
      <use xlink:href="#Cmmi10-74" transform="translate(204.492188 0.015625)"/>
      <use xlink:href="#Cmr10-29" transform="translate(240.576172 0.015625)"/>
      <use xlink:href="#Cmr10-5d" transform="translate(279.394531 0.015625)"/>
      <use xlink:href="#DejaVuSerif-20" transform="translate(307.080078 0.015625)"/>
      <use xlink:href="#DejaVuSerif-28" transform="translate(338.867188 0.015625)"/>
      <use xlink:href="#DejaVuSerif-31" transform="translate(377.880859 0.015625)"/>
      <use xlink:href="#DejaVuSerif-30" transform="translate(441.503906 0.015625)"/>
      <use xlink:href="#DejaVuSerif-30" transform="translate(505.126953 0.015625)"/>
      <use xlink:href="#DejaVuSerif-30" transform="translate(568.75 0.015625)"/>
      <use xlink:href="#DejaVuSerif-20" transform="translate(632.373047 0.015625)"/>
      <use xlink:href="#DejaVuSerif-72" transform="translate(664.160156 0.015625)"/>
      <use xlink:href="#DejaVuSerif-75" transform="translate(711.962891 0.015625)"/>
      <use xlink:href="#DejaVuSerif-6e" transform="translate(776.367188 0.015625)"/>
      <use xlink:href="#DejaVuSerif-73" transform="translate(840.771484 0.015625)"/>
      <use xlink:href="#DejaVuSerif-29" transform="translate(892.089844 0.015625)"/>
     </g>
    </g>
    <g id="line2d_44">
     <path d="M 524.96125 84.272422 
L 535.46125 84.272422 
L 545.96125 84.272422 
" style="fill: none; stroke-dasharray: 7.4,3.2; stroke-dashoffset: 0; stroke: #77ac30; stroke-width: 2"/>
    </g>
    <g id="text_25">
     <!-- $\mu/\theta = 1$ -->
     <g transform="translate(554.36125 87.947422) scale(0.105 -0.105)">
      <defs>
       <path id="Cmmi10-b9" d="M 178 -1203 
Q 178 -1166 184 -1153 
L 1125 2625 
Q 1153 2716 1226 2772 
Q 1300 2828 1394 2828 
Q 1475 2828 1531 2779 
Q 1588 2731 1588 2650 
Q 1588 2631 1586 2620 
Q 1584 2609 1581 2597 
L 1203 1100 
Q 1141 834 1141 641 
Q 1141 403 1253 250 
Q 1366 97 1594 97 
Q 2059 97 2413 678 
Q 2416 684 2417 687 
Q 2419 691 2419 697 
L 2881 2553 
Q 2903 2638 2981 2698 
Q 3059 2759 3150 2759 
Q 3225 2759 3283 2709 
Q 3341 2659 3341 2578 
Q 3341 2541 3334 2528 
L 2875 684 
Q 2828 503 2828 372 
Q 2828 97 3016 97 
Q 3216 97 3317 344 
Q 3419 591 3494 941 
Q 3506 978 3547 978 
L 3622 978 
Q 3647 978 3664 958 
Q 3681 938 3681 916 
Q 3569 469 3436 198 
Q 3303 -72 3003 -72 
Q 2791 -72 2627 50 
Q 2463 172 2413 378 
Q 2253 178 2039 53 
Q 1825 -72 1588 -72 
Q 1188 -72 959 116 
L 634 -1178 
Q 616 -1269 541 -1325 
Q 466 -1381 372 -1381 
Q 294 -1381 236 -1332 
Q 178 -1284 178 -1203 
z
" transform="scale(0.015625)"/>
       <path id="Cmmi10-3d" d="M 359 -1472 
Q 359 -1453 366 -1447 
L 2591 4722 
Q 2603 4759 2634 4779 
Q 2666 4800 2706 4800 
Q 2763 4800 2798 4765 
Q 2834 4731 2834 4672 
L 2834 4647 
L 609 -1522 
Q 572 -1600 488 -1600 
Q 434 -1600 396 -1562 
Q 359 -1525 359 -1472 
z
" transform="scale(0.015625)"/>
       <path id="Cmmi10-b5" d="M 1031 -72 
Q 741 -72 566 140 
Q 391 353 323 653 
Q 256 953 256 1247 
L 256 1253 
Q 256 1572 317 1915 
Q 378 2259 493 2601 
Q 609 2944 744 3213 
Q 838 3400 986 3631 
Q 1134 3863 1317 4064 
Q 1500 4266 1711 4389 
Q 1922 4513 2138 4513 
L 2144 4513 
Q 2375 4513 2529 4384 
Q 2684 4256 2770 4056 
Q 2856 3856 2890 3628 
Q 2925 3400 2925 3194 
Q 2925 2709 2794 2204 
Q 2663 1700 2431 1228 
Q 2344 1050 2189 809 
Q 2034 569 1861 378 
Q 1688 188 1472 58 
Q 1256 -72 1038 -72 
L 1031 -72 
z
M 1044 97 
Q 1256 97 1451 323 
Q 1647 550 1794 873 
Q 1941 1197 2052 1536 
Q 2163 1875 2216 2113 
L 909 2113 
Q 809 1709 753 1417 
Q 697 1125 697 844 
Q 697 97 1044 97 
z
M 959 2338 
L 2272 2338 
Q 2341 2619 2381 2808 
Q 2422 2997 2450 3206 
Q 2478 3416 2478 3597 
Q 2478 4347 2138 4347 
Q 1731 4347 1436 3692 
Q 1141 3038 959 2338 
z
" transform="scale(0.015625)"/>
      </defs>
      <use xlink:href="#Cmmi10-b9"/>
      <use xlink:href="#Cmmi10-3d" transform="translate(60.205078 0)"/>
      <use xlink:href="#Cmmi10-b5" transform="translate(110.205078 0)"/>
      <use xlink:href="#Cmr10-3d" transform="translate(174.6875 0)"/>
      <use xlink:href="#Cmr10-31" transform="translate(269.931641 0)"/>
     </g>
    </g>
   </g>
  </g>
 </g>
 <defs>
  <clipPath id="p9a0da09d34">
   <rect x="42.47125" y="23.84" width="619.2" height="262.8"/>
  </clipPath>
 </defs>
</svg>
