<?xml version="1.0" encoding="utf-8" standalone="no"?>
<!DOCTYPE svg PUBLIC "-//W3C//DTD SVG 1.1//EN"
  "http://www.w3.org/Graphics/SVG/1.1/DTD/svg11.dtd">
<svg xmlns:xlink="http://www.w3.org/1999/xlink" width="770.93pt" height="433.626562pt" viewBox="0 0 770.93 433.626562" xmlns="http://www.w3.org/2000/svg" version="1.1">
 <metadata>
  <rdf:RDF xmlns:dc="http://purl.org/dc/elements/1.1/" xmlns:cc="http://creativecommons.org/ns#" xmlns:rdf="http://www.w3.org/1999/02/22-rdf-syntax-ns#">
   <cc:Work>
    <dc:type rdf:resource="http://purl.org/dc/dcmitype/StillImage"/>
    <dc:date>2026-06-07T05:17:26.855474</dc:date>
    <dc:format>image/svg+xml</dc:format>
    <dc:creator>
     <cc:Agent>
      <dc:title>Matplotlib v3.10.8, https://matplotlib.org/</dc:title>
     </cc:Agent>
    </dc:creator>
   </cc:Work>
  </rdf:RDF>
 </metadata>
 <defs>
  <style type="text/css">*{stroke-linejoin: round; stroke-linecap: butt}</style>
 </defs>
 <g id="figure_1">
  <g id="patch_1">
   <path d="M 0 433.626562 
L 770.93 433.626562 
L 770.93 -0 
L 0 -0 
z
" style="fill: #ffffff"/>
  </g>
  <g id="axes_1">
   <g id="patch_2">
    <path d="M 66.77 209.343396 
L 763.73 209.343396 
L 763.73 50.4 
L 66.77 50.4 
z
" style="fill: #ffffff"/>
   </g>
   <g id="matplotlib.axis_1">
    <g id="xtick_1">
     <g id="line2d_1">
      <path d="M 66.77 209.343396 
L 66.77 50.4 
" clip-path="url(#p15a2ffa9fc)" style="fill: none; stroke: #b0b0b0; stroke-opacity: 0.2; stroke-width: 0.8; stroke-linecap: square"/>
     </g>
     <g id="line2d_2">
      <defs>
       <path id="m91240ff702" d="M 0 0 
L 0 3.5 
" style="stroke: #000000; stroke-width: 0.8"/>
      </defs>
      <g>
       <use xlink:href="#m91240ff702" x="66.77" y="209.343396" style="stroke: #000000; stroke-width: 0.8"/>
      </g>
     </g>
    </g>
    <g id="xtick_2">
     <g id="line2d_3">
      <path d="M 159.698 209.343396 
L 159.698 50.4 
" clip-path="url(#p15a2ffa9fc)" style="fill: none; stroke: #b0b0b0; stroke-opacity: 0.2; stroke-width: 0.8; stroke-linecap: square"/>
     </g>
     <g id="line2d_4">
      <g>
       <use xlink:href="#m91240ff702" x="159.698" y="209.343396" style="stroke: #000000; stroke-width: 0.8"/>
      </g>
     </g>
    </g>
    <g id="xtick_3">
     <g id="line2d_5">
      <path d="M 252.626 209.343396 
L 252.626 50.4 
" clip-path="url(#p15a2ffa9fc)" style="fill: none; stroke: #b0b0b0; stroke-opacity: 0.2; stroke-width: 0.8; stroke-linecap: square"/>
     </g>
     <g id="line2d_6">
      <g>
       <use xlink:href="#m91240ff702" x="252.626" y="209.343396" style="stroke: #000000; stroke-width: 0.8"/>
      </g>
     </g>
    </g>
    <g id="xtick_4">
     <g id="line2d_7">
      <path d="M 345.554 209.343396 
L 345.554 50.4 
" clip-path="url(#p15a2ffa9fc)" style="fill: none; stroke: #b0b0b0; stroke-opacity: 0.2; stroke-width: 0.8; stroke-linecap: square"/>
     </g>
     <g id="line2d_8">
      <g>
       <use xlink:href="#m91240ff702" x="345.554" y="209.343396" style="stroke: #000000; stroke-width: 0.8"/>
      </g>
     </g>
    </g>
    <g id="xtick_5">
     <g id="line2d_9">
      <path d="M 438.482 209.343396 
L 438.482 50.4 
" clip-path="url(#p15a2ffa9fc)" style="fill: none; stroke: #b0b0b0; stroke-opacity: 0.2; stroke-width: 0.8; stroke-linecap: square"/>
     </g>
     <g id="line2d_10">
      <g>
       <use xlink:href="#m91240ff702" x="438.482" y="209.343396" style="stroke: #000000; stroke-width: 0.8"/>
      </g>
     </g>
    </g>
    <g id="xtick_6">
     <g id="line2d_11">
      <path d="M 531.41 209.343396 
L 531.41 50.4 
" clip-path="url(#p15a2ffa9fc)" style="fill: none; stroke: #b0b0b0; stroke-opacity: 0.2; stroke-width: 0.8; stroke-linecap: square"/>
     </g>
     <g id="line2d_12">
      <g>
       <use xlink:href="#m91240ff702" x="531.41" y="209.343396" style="stroke: #000000; stroke-width: 0.8"/>
      </g>
     </g>
    </g>
    <g id="xtick_7">
     <g id="line2d_13">
      <path d="M 624.338 209.343396 
L 624.338 50.4 
" clip-path="url(#p15a2ffa9fc)" style="fill: none; stroke: #b0b0b0; stroke-opacity: 0.2; stroke-width: 0.8; stroke-linecap: square"/>
     </g>
     <g id="line2d_14">
      <g>
       <use xlink:href="#m91240ff702" x="624.338" y="209.343396" style="stroke: #000000; stroke-width: 0.8"/>
      </g>
     </g>
    </g>
    <g id="xtick_8">
     <g id="line2d_15">
      <path d="M 717.266 209.343396 
L 717.266 50.4 
" clip-path="url(#p15a2ffa9fc)" style="fill: none; stroke: #b0b0b0; stroke-opacity: 0.2; stroke-width: 0.8; stroke-linecap: square"/>
     </g>
     <g id="line2d_16">
      <g>
       <use xlink:href="#m91240ff702" x="717.266" y="209.343396" style="stroke: #000000; stroke-width: 0.8"/>
      </g>
     </g>
    </g>
   </g>
   <g id="matplotlib.axis_2">
    <g id="ytick_1">
     <g id="line2d_17">
      <path d="M 66.77 202.118696 
L 763.73 202.118696 
" clip-path="url(#p15a2ffa9fc)" style="fill: none; stroke: #b0b0b0; stroke-opacity: 0.2; stroke-width: 0.8; stroke-linecap: square"/>
     </g>
     <g id="line2d_18">
      <defs>
       <path id="m8666e786b4" d="M 0 0 
L -3.5 0 
" style="stroke: #000000; stroke-width: 0.8"/>
      </defs>
      <g>
       <use xlink:href="#m8666e786b4" x="66.77" y="202.118696" style="stroke: #000000; stroke-width: 0.8"/>
      </g>
     </g>
     <g id="text_1">
      <!-- 0 -->
      <g transform="translate(51.49875 207.057681) scale(0.13 -0.13)">
       <defs>
        <path id="DejaVuSerif-30" d="M 2034 219 
Q 2513 219 2750 744 
Q 2988 1269 2988 2328 
Q 2988 3391 2750 3916 
Q 2513 4441 2034 4441 
Q 1556 4441 1318 3916 
Q 1081 3391 1081 2328 
Q 1081 1269 1318 744 
Q 1556 219 2034 219 
z
M 2034 -91 
Q 1275 -91 848 546 
Q 422 1184 422 2328 
Q 422 3475 848 4112 
Q 1275 4750 2034 4750 
Q 2797 4750 3222 4112 
Q 3647 3475 3647 2328 
Q 3647 1184 3222 546 
Q 2797 -91 2034 -91 
z
" transform="scale(0.015625)"/>
       </defs>
       <use xlink:href="#DejaVuSerif-30"/>
      </g>
     </g>
    </g>
    <g id="ytick_2">
     <g id="line2d_19">
      <path d="M 66.77 169.173649 
L 763.73 169.173649 
" clip-path="url(#p15a2ffa9fc)" style="fill: none; stroke: #b0b0b0; stroke-opacity: 0.2; stroke-width: 0.8; stroke-linecap: square"/>
     </g>
     <g id="line2d_20">
      <g>
       <use xlink:href="#m8666e786b4" x="66.77" y="169.173649" style="stroke: #000000; stroke-width: 0.8"/>
      </g>
     </g>
     <g id="text_2">
      <!-- 500 -->
      <g transform="translate(34.95625 174.112633) scale(0.13 -0.13)">
       <defs>
        <path id="DejaVuSerif-35" d="M 3219 4666 
L 3219 4153 
L 1081 4153 
L 1081 2816 
Q 1244 2928 1461 2984 
Q 1678 3041 1947 3041 
Q 2703 3041 3140 2622 
Q 3578 2203 3578 1478 
Q 3578 738 3136 323 
Q 2694 -91 1894 -91 
Q 1572 -91 1234 -12 
Q 897 66 544 225 
L 544 1131 
L 897 1131 
Q 925 688 1179 453 
Q 1434 219 1894 219 
Q 2388 219 2653 544 
Q 2919 869 2919 1478 
Q 2919 2084 2655 2407 
Q 2391 2731 1894 2731 
Q 1613 2731 1398 2631 
Q 1184 2531 1019 2322 
L 750 2322 
L 750 4666 
L 3219 4666 
z
" transform="scale(0.015625)"/>
       </defs>
       <use xlink:href="#DejaVuSerif-35"/>
       <use xlink:href="#DejaVuSerif-30" transform="translate(63.623047 0)"/>
       <use xlink:href="#DejaVuSerif-30" transform="translate(127.246094 0)"/>
      </g>
     </g>
    </g>
    <g id="ytick_3">
     <g id="line2d_21">
      <path d="M 66.77 136.228601 
L 763.73 136.228601 
" clip-path="url(#p15a2ffa9fc)" style="fill: none; stroke: #b0b0b0; stroke-opacity: 0.2; stroke-width: 0.8; stroke-linecap: square"/>
     </g>
     <g id="line2d_22">
      <g>
       <use xlink:href="#m8666e786b4" x="66.77" y="136.228601" style="stroke: #000000; stroke-width: 0.8"/>
      </g>
     </g>
     <g id="text_3">
      <!-- 1000 -->
      <g transform="translate(26.685 141.167586) scale(0.13 -0.13)">
       <defs>
        <path id="DejaVuSerif-31" d="M 909 0 
L 909 331 
L 1722 331 
L 1722 4213 
L 781 3603 
L 781 4013 
L 1919 4750 
L 2350 4750 
L 2350 331 
L 3163 331 
L 3163 0 
L 909 0 
z
" transform="scale(0.015625)"/>
       </defs>
       <use xlink:href="#DejaVuSerif-31"/>
       <use xlink:href="#DejaVuSerif-30" transform="translate(63.623047 0)"/>
       <use xlink:href="#DejaVuSerif-30" transform="translate(127.246094 0)"/>
       <use xlink:href="#DejaVuSerif-30" transform="translate(190.869141 0)"/>
      </g>
     </g>
    </g>
    <g id="ytick_4">
     <g id="line2d_23">
      <path d="M 66.77 103.283554 
L 763.73 103.283554 
" clip-path="url(#p15a2ffa9fc)" style="fill: none; stroke: #b0b0b0; stroke-opacity: 0.2; stroke-width: 0.8; stroke-linecap: square"/>
     </g>
     <g id="line2d_24">
      <g>
       <use xlink:href="#m8666e786b4" x="66.77" y="103.283554" style="stroke: #000000; stroke-width: 0.8"/>
      </g>
     </g>
     <g id="text_4">
      <!-- 1500 -->
      <g transform="translate(26.685 108.222538) scale(0.13 -0.13)">
       <use xlink:href="#DejaVuSerif-31"/>
       <use xlink:href="#DejaVuSerif-35" transform="translate(63.623047 0)"/>
       <use xlink:href="#DejaVuSerif-30" transform="translate(127.246094 0)"/>
       <use xlink:href="#DejaVuSerif-30" transform="translate(190.869141 0)"/>
      </g>
     </g>
    </g>
    <g id="ytick_5">
     <g id="line2d_25">
      <path d="M 66.77 70.338506 
L 763.73 70.338506 
" clip-path="url(#p15a2ffa9fc)" style="fill: none; stroke: #b0b0b0; stroke-opacity: 0.2; stroke-width: 0.8; stroke-linecap: square"/>
     </g>
     <g id="line2d_26">
      <g>
       <use xlink:href="#m8666e786b4" x="66.77" y="70.338506" style="stroke: #000000; stroke-width: 0.8"/>
      </g>
     </g>
     <g id="text_5">
      <!-- 2000 -->
      <g transform="translate(26.685 75.277491) scale(0.13 -0.13)">
       <defs>
        <path id="DejaVuSerif-32" d="M 819 3553 
L 469 3553 
L 469 4384 
Q 803 4563 1142 4656 
Q 1481 4750 1806 4750 
Q 2534 4750 2956 4397 
Q 3378 4044 3378 3438 
Q 3378 2753 2422 1800 
Q 2347 1728 2309 1691 
L 1131 513 
L 3078 513 
L 3078 1088 
L 3444 1088 
L 3444 0 
L 434 0 
L 434 341 
L 1850 1753 
Q 2319 2222 2519 2614 
Q 2719 3006 2719 3438 
Q 2719 3909 2473 4175 
Q 2228 4441 1797 4441 
Q 1350 4441 1106 4219 
Q 863 3997 819 3553 
z
" transform="scale(0.015625)"/>
       </defs>
       <use xlink:href="#DejaVuSerif-32"/>
       <use xlink:href="#DejaVuSerif-30" transform="translate(63.623047 0)"/>
       <use xlink:href="#DejaVuSerif-30" transform="translate(127.246094 0)"/>
       <use xlink:href="#DejaVuSerif-30" transform="translate(190.869141 0)"/>
      </g>
     </g>
    </g>
    <g id="text_6">
     <!-- Protein count -->
     <g transform="translate(19.3575 184.914198) rotate(-90) scale(0.16 -0.16)">
      <defs>
       <path id="DejaVuSerif-50" d="M 1581 2375 
L 2406 2375 
Q 2872 2375 3115 2626 
Q 3359 2878 3359 3353 
Q 3359 3831 3115 4081 
Q 2872 4331 2406 4331 
L 1581 4331 
L 1581 2375 
z
M 353 0 
L 353 331 
L 947 331 
L 947 4331 
L 353 4331 
L 353 4666 
L 2559 4666 
Q 3259 4666 3668 4311 
Q 4078 3956 4078 3353 
Q 4078 2753 3668 2397 
Q 3259 2041 2559 2041 
L 1581 2041 
L 1581 331 
L 2303 331 
L 2303 0 
L 353 0 
z
" transform="scale(0.015625)"/>
       <path id="DejaVuSerif-72" d="M 3059 3328 
L 3059 2497 
L 2728 2497 
Q 2713 2744 2591 2866 
Q 2469 2988 2234 2988 
Q 1809 2988 1582 2694 
Q 1356 2400 1356 1850 
L 1356 331 
L 2022 331 
L 2022 0 
L 263 0 
L 263 331 
L 781 331 
L 781 2994 
L 231 2994 
L 231 3322 
L 1356 3322 
L 1356 2731 
Q 1525 3078 1790 3245 
Q 2056 3413 2438 3413 
Q 2578 3413 2733 3391 
Q 2888 3369 3059 3328 
z
" transform="scale(0.015625)"/>
       <path id="DejaVuSerif-6f" d="M 1925 219 
Q 2388 219 2623 584 
Q 2859 950 2859 1663 
Q 2859 2375 2623 2739 
Q 2388 3103 1925 3103 
Q 1463 3103 1227 2739 
Q 991 2375 991 1663 
Q 991 950 1228 584 
Q 1466 219 1925 219 
z
M 1925 -91 
Q 1200 -91 759 389 
Q 319 869 319 1663 
Q 319 2456 758 2934 
Q 1197 3413 1925 3413 
Q 2653 3413 3092 2934 
Q 3531 2456 3531 1663 
Q 3531 869 3092 389 
Q 2653 -91 1925 -91 
z
" transform="scale(0.015625)"/>
       <path id="DejaVuSerif-74" d="M 691 2988 
L 184 2988 
L 184 3322 
L 691 3322 
L 691 4353 
L 1269 4353 
L 1269 3322 
L 2350 3322 
L 2350 2988 
L 1269 2988 
L 1269 878 
Q 1269 456 1350 337 
Q 1431 219 1650 219 
Q 1875 219 1978 351 
Q 2081 484 2088 781 
L 2522 781 
Q 2497 328 2275 118 
Q 2053 -91 1600 -91 
Q 1103 -91 897 129 
Q 691 350 691 878 
L 691 2988 
z
" transform="scale(0.015625)"/>
       <path id="DejaVuSerif-65" d="M 3469 1600 
L 991 1600 
L 991 1575 
Q 991 903 1244 561 
Q 1497 219 1991 219 
Q 2369 219 2611 417 
Q 2853 616 2950 1006 
L 3413 1006 
Q 3275 459 2904 184 
Q 2534 -91 1931 -91 
Q 1203 -91 761 389 
Q 319 869 319 1663 
Q 319 2450 753 2931 
Q 1188 3413 1894 3413 
Q 2647 3413 3050 2948 
Q 3453 2484 3469 1600 
z
M 2791 1931 
Q 2772 2513 2545 2808 
Q 2319 3103 1894 3103 
Q 1497 3103 1269 2806 
Q 1041 2509 991 1931 
L 2791 1931 
z
" transform="scale(0.015625)"/>
       <path id="DejaVuSerif-69" d="M 622 4353 
Q 622 4497 726 4603 
Q 831 4709 978 4709 
Q 1122 4709 1226 4603 
Q 1331 4497 1331 4353 
Q 1331 4206 1228 4103 
Q 1125 4000 978 4000 
Q 831 4000 726 4103 
Q 622 4206 622 4353 
z
M 1356 331 
L 1900 331 
L 1900 0 
L 231 0 
L 231 331 
L 781 331 
L 781 2988 
L 231 2988 
L 231 3322 
L 1356 3322 
L 1356 331 
z
" transform="scale(0.015625)"/>
       <path id="DejaVuSerif-6e" d="M 263 0 
L 263 331 
L 781 331 
L 781 2988 
L 231 2988 
L 231 3322 
L 1356 3322 
L 1356 2731 
Q 1516 3069 1770 3241 
Q 2025 3413 2363 3413 
Q 2913 3413 3172 3097 
Q 3431 2781 3431 2113 
L 3431 331 
L 3944 331 
L 3944 0 
L 2356 0 
L 2356 331 
L 2853 331 
L 2853 1931 
Q 2853 2541 2703 2767 
Q 2553 2994 2175 2994 
Q 1775 2994 1565 2701 
Q 1356 2409 1356 1850 
L 1356 331 
L 1856 331 
L 1856 0 
L 263 0 
z
" transform="scale(0.015625)"/>
       <path id="DejaVuSerif-20" transform="scale(0.015625)"/>
       <path id="DejaVuSerif-63" d="M 3291 997 
Q 3169 466 2822 187 
Q 2475 -91 1925 -91 
Q 1200 -91 759 389 
Q 319 869 319 1663 
Q 319 2459 759 2936 
Q 1200 3413 1925 3413 
Q 2241 3413 2553 3339 
Q 2866 3266 3181 3116 
L 3181 2266 
L 2847 2266 
Q 2781 2703 2561 2903 
Q 2341 3103 1931 3103 
Q 1466 3103 1228 2742 
Q 991 2381 991 1663 
Q 991 944 1227 581 
Q 1463 219 1931 219 
Q 2303 219 2525 412 
Q 2747 606 2828 997 
L 3291 997 
z
" transform="scale(0.015625)"/>
       <path id="DejaVuSerif-75" d="M 2266 3322 
L 3341 3322 
L 3341 331 
L 3884 331 
L 3884 0 
L 2766 0 
L 2766 588 
Q 2606 256 2353 82 
Q 2100 -91 1766 -91 
Q 1213 -91 952 223 
Q 691 538 691 1209 
L 691 2988 
L 172 2988 
L 172 3322 
L 1269 3322 
L 1269 1388 
Q 1269 781 1417 556 
Q 1566 331 1947 331 
Q 2347 331 2556 625 
Q 2766 919 2766 1478 
L 2766 2988 
L 2266 2988 
L 2266 3322 
z
" transform="scale(0.015625)"/>
      </defs>
      <use xlink:href="#DejaVuSerif-50"/>
      <use xlink:href="#DejaVuSerif-72" transform="translate(67.285156 0)"/>
      <use xlink:href="#DejaVuSerif-6f" transform="translate(115.087891 0)"/>
      <use xlink:href="#DejaVuSerif-74" transform="translate(175.292969 0)"/>
      <use xlink:href="#DejaVuSerif-65" transform="translate(215.478516 0)"/>
      <use xlink:href="#DejaVuSerif-69" transform="translate(274.658203 0)"/>
      <use xlink:href="#DejaVuSerif-6e" transform="translate(306.640625 0)"/>
      <use xlink:href="#DejaVuSerif-20" transform="translate(371.044922 0)"/>
      <use xlink:href="#DejaVuSerif-63" transform="translate(402.832031 0)"/>
      <use xlink:href="#DejaVuSerif-6f" transform="translate(458.837891 0)"/>
      <use xlink:href="#DejaVuSerif-75" transform="translate(519.042969 0)"/>
      <use xlink:href="#DejaVuSerif-6e" transform="translate(583.447266 0)"/>
      <use xlink:href="#DejaVuSerif-74" transform="translate(647.851562 0)"/>
     </g>
    </g>
   </g>
   <g id="line2d_27">
    <path d="M 66.77 202.118696 
L 66.944262 202.017349 
L 67.205654 201.522009 
L 67.467047 200.464935 
L 67.72844 198.529597 
L 68.076963 194.230815 
L 68.599749 184.672258 
L 71.213675 131.809611 
L 72.172115 118.081038 
L 73.130555 107.485636 
L 74.001864 100.199704 
L 74.786042 95.282662 
L 75.57022 91.70676 
L 76.267267 89.508204 
L 76.877183 88.249533 
L 77.399969 87.611911 
L 77.835623 87.362973 
L 78.271278 87.349663 
L 78.706932 87.553832 
L 79.229717 88.062481 
L 79.839634 88.986388 
L 80.623812 90.640121 
L 81.582252 93.279701 
L 82.714953 97.139068 
L 84.021916 102.409564 
L 85.677403 110.082759 
L 87.681414 120.51139 
L 90.121079 134.453708 
L 92.996398 152.216381 
L 95.871718 171.362906 
L 97.875728 186.121224 
L 99.095561 196.636765 
L 99.705477 201.304279 
L 99.96687 201.834938 
L 100.315393 202.021355 
L 101.099571 202.096315 
L 106.153163 202.113439 
L 193.545447 202.028245 
L 233.102872 202.020264 
L 264.731385 202.005549 
L 339.141166 202.003434 
L 763.73 202.007734 
L 763.73 202.007734 
" clip-path="url(#p15a2ffa9fc)" style="fill: none; stroke: #0072bd; stroke-width: 2.2; stroke-linecap: square"/>
   </g>
   <g id="line2d_28">
    <path d="M 66.77 202.118696 
L 94.913278 201.98847 
L 97.788597 201.795722 
L 98.659906 201.539772 
L 99.00843 201.258026 
L 99.269822 200.774148 
L 99.444084 200.086748 
L 99.705477 197.740402 
L 100.054001 191.706056 
L 101.01244 169.07261 
L 102.145142 144.311928 
L 103.103582 127.854486 
L 104.062022 115.135733 
L 104.93333 106.279622 
L 105.804639 99.555181 
L 106.588817 95.023459 
L 107.372995 91.698266 
L 108.070043 89.600442 
L 108.76709 88.189733 
L 109.377006 87.440435 
L 109.899791 87.111775 
L 110.422577 87.03804 
L 110.945362 87.189997 
L 111.555278 87.617682 
L 112.252325 88.39169 
L 113.123634 89.717162 
L 114.169205 91.728569 
L 115.563299 94.942359 
L 117.393048 99.769931 
L 120.442629 108.553745 
L 126.019006 124.624075 
L 129.155718 132.946314 
L 132.031038 139.951219 
L 134.732095 145.964509 
L 137.433153 151.437922 
L 140.04708 156.244261 
L 142.661006 160.598272 
L 145.274933 164.532963 
L 147.975991 168.194224 
L 150.677048 171.480536 
L 153.465237 174.516727 
L 156.253425 177.22691 
L 159.128745 179.715725 
L 162.091195 181.989992 
L 165.227907 184.113795 
L 168.45175 186.028376 
L 171.849855 187.789254 
L 175.509352 189.429775 
L 179.343112 190.904138 
L 183.525394 192.270485 
L 188.056201 193.511341 
L 193.022662 194.634132 
L 198.424777 195.622489 
L 204.262547 196.460466 
L 210.100316 197.074479 
L 215.066777 197.381555 
L 218.900536 197.403439 
L 222.037248 197.202346 
L 224.999699 196.789993 
L 229.00772 195.979421 
L 233.88705 195.041255 
L 237.198024 194.647331 
L 240.596128 194.474083 
L 244.517018 194.505463 
L 249.744872 194.78737 
L 273.444474 196.340048 
L 279.543637 196.383296 
L 285.817061 196.201124 
L 304.811595 195.469157 
L 312.740506 195.534313 
L 342.190748 195.997744 
L 361.272413 195.751399 
L 374.951963 195.740774 
L 411.459806 195.850904 
L 443.001189 195.815183 
L 487.08942 195.817932 
L 679.387297 195.826378 
L 763.73 195.826698 
L 763.73 195.826698 
" clip-path="url(#p15a2ffa9fc)" style="fill: none; stroke: #d95319; stroke-width: 2.2; stroke-linecap: square"/>
   </g>
   <g id="line2d_29">
    <path d="M 66.77 202.118696 
L 68.164094 202.026176 
L 68.861141 201.742245 
L 69.558189 201.203226 
L 70.342367 200.279302 
L 71.213675 198.869754 
L 72.172115 196.881553 
L 73.304817 193.988997 
L 74.61178 189.994799 
L 76.093005 184.721152 
L 77.835623 177.646969 
L 79.839634 168.544521 
L 82.192168 156.800616 
L 85.067487 141.264864 
L 88.726985 120.182164 
L 94.303362 86.557676 
L 98.659906 60.684027 
L 99.269822 57.920856 
L 99.444084 57.6247 
L 99.531215 57.701876 
L 99.705477 58.533808 
L 99.96687 61.462007 
L 100.489655 70.671151 
L 102.580796 110.435964 
L 103.626367 125.487047 
L 104.671938 137.544364 
L 105.717508 147.183387 
L 106.763079 154.88535 
L 107.80865 161.038309 
L 108.854221 165.953168 
L 109.899791 169.878629 
L 110.945362 173.013517 
L 112.078064 175.701 
L 113.210765 177.806713 
L 114.343467 179.456204 
L 115.563299 180.834788 
L 116.870263 181.959175 
L 118.264357 182.854405 
L 119.832713 183.584516 
L 121.575331 184.149287 
L 123.666472 184.59303 
L 126.36753 184.926609 
L 130.027027 185.136756 
L 135.603404 185.211397 
L 145.536326 185.092007 
L 159.303007 184.708733 
L 171.32707 184.161753 
L 181.695646 183.473301 
L 191.018651 182.635738 
L 199.906002 181.614165 
L 210.187447 180.190786 
L 217.419311 179.260982 
L 220.904547 179.035867 
L 223.692735 179.075593 
L 226.480924 179.346423 
L 230.05329 179.943466 
L 236.936631 181.123213 
L 240.944652 181.546318 
L 245.214066 181.768108 
L 250.267657 181.799523 
L 256.715343 181.602731 
L 266.648265 181.045766 
L 277.539626 180.489303 
L 283.725919 180.405215 
L 290.086475 180.551909 
L 310.21371 181.198785 
L 319.449585 181.139139 
L 348.377041 180.786015 
L 387.324549 180.954961 
L 412.941031 180.89202 
L 456.76787 180.919925 
L 525.078489 180.922258 
L 763.73 180.926536 
L 763.73 180.926536 
" clip-path="url(#p15a2ffa9fc)" style="fill: none; stroke: #77ac30; stroke-width: 2.2; stroke-linecap: square"/>
   </g>
   <g id="patch_3">
    <path d="M 66.77 209.343396 
L 66.77 50.4 
" style="fill: none; stroke: #000000; stroke-width: 0.8; stroke-linejoin: miter; stroke-linecap: square"/>
   </g>
   <g id="patch_4">
    <path d="M 66.77 209.343396 
L 763.73 209.343396 
" style="fill: none; stroke: #000000; stroke-width: 0.8; stroke-linejoin: miter; stroke-linecap: square"/>
   </g>
   <g id="legend_1">
    <g id="patch_5">
     <path d="M 392.57 77.64 
L 755.33 77.64 
Q 757.73 77.64 757.73 75.24 
L 757.73 58.8 
Q 757.73 56.4 755.33 56.4 
L 392.57 56.4 
Q 390.17 56.4 390.17 58.8 
L 390.17 75.24 
Q 390.17 77.64 392.57 77.64 
z
" style="fill: #ffffff; opacity: 0.95; stroke: #d1d1d1; stroke-linejoin: miter"/>
    </g>
    <g id="line2d_30">
     <path d="M 394.97 66.12 
L 406.97 66.12 
L 418.97 66.12 
" style="fill: none; stroke: #0072bd; stroke-width: 2.2; stroke-linecap: square"/>
    </g>
    <g id="text_7">
     <!-- Activator $A$ -->
     <g transform="translate(428.57 70.32) scale(0.12 -0.12)">
      <defs>
       <path id="DejaVuSerif-41" d="M 1281 1691 
L 2994 1691 
L 2138 3909 
L 1281 1691 
z
M -38 0 
L -38 331 
L 372 331 
L 2034 4666 
L 2559 4666 
L 4225 331 
L 4684 331 
L 4684 0 
L 2988 0 
L 2988 331 
L 3506 331 
L 3116 1356 
L 1153 1356 
L 763 331 
L 1275 331 
L 1275 0 
L -38 0 
z
" transform="scale(0.015625)"/>
       <path id="DejaVuSerif-76" d="M 1581 0 
L 359 2988 
L -19 2988 
L -19 3322 
L 1509 3322 
L 1509 2988 
L 978 2988 
L 1913 703 
L 2847 2988 
L 2350 2988 
L 2350 3322 
L 3597 3322 
L 3597 2988 
L 3225 2988 
L 2003 0 
L 1581 0 
z
" transform="scale(0.015625)"/>
       <path id="DejaVuSerif-61" d="M 2547 1044 
L 2547 1747 
L 1806 1747 
Q 1378 1747 1168 1562 
Q 959 1378 959 997 
Q 959 650 1171 447 
Q 1384 244 1747 244 
Q 2106 244 2326 466 
Q 2547 688 2547 1044 
z
M 3122 2075 
L 3122 331 
L 3634 331 
L 3634 0 
L 2547 0 
L 2547 359 
Q 2356 128 2106 18 
Q 1856 -91 1522 -91 
Q 969 -91 644 203 
Q 319 497 319 997 
Q 319 1513 691 1797 
Q 1063 2081 1741 2081 
L 2547 2081 
L 2547 2309 
Q 2547 2688 2317 2895 
Q 2088 3103 1672 3103 
Q 1328 3103 1125 2947 
Q 922 2791 872 2484 
L 575 2484 
L 575 3156 
Q 875 3284 1158 3348 
Q 1441 3413 1709 3413 
Q 2400 3413 2761 3070 
Q 3122 2728 3122 2075 
z
" transform="scale(0.015625)"/>
       <path id="Cmmi10-41" d="M 288 0 
Q 225 0 225 84 
Q 250 225 306 225 
Q 566 225 755 328 
Q 944 431 1081 647 
Q 1094 659 1094 659 
L 3378 4513 
Q 3428 4581 3500 4581 
L 3584 4581 
Q 3603 4581 3622 4573 
Q 3641 4566 3655 4548 
Q 3669 4531 3669 4513 
L 4056 378 
Q 4056 350 4084 294 
Q 4147 225 4563 225 
Q 4628 225 4628 141 
Q 4606 56 4592 28 
Q 4578 0 4519 0 
L 2919 0 
Q 2859 0 2859 84 
Q 2894 225 2944 225 
Q 3450 225 3481 397 
L 3384 1453 
L 1806 1453 
L 1294 594 
Q 1247 525 1247 434 
Q 1247 322 1355 273 
Q 1463 225 1594 225 
Q 1656 225 1656 141 
Q 1634 50 1621 25 
Q 1609 0 1550 0 
L 288 0 
z
M 1931 1678 
L 3359 1678 
L 3169 3750 
L 1931 1678 
z
" transform="scale(0.015625)"/>
      </defs>
      <use xlink:href="#DejaVuSerif-41" transform="translate(0 0.421875)"/>
      <use xlink:href="#DejaVuSerif-63" transform="translate(72.216797 0.421875)"/>
      <use xlink:href="#DejaVuSerif-74" transform="translate(128.222656 0.421875)"/>
      <use xlink:href="#DejaVuSerif-69" transform="translate(168.408203 0.421875)"/>
      <use xlink:href="#DejaVuSerif-76" transform="translate(200.390625 0.421875)"/>
      <use xlink:href="#DejaVuSerif-61" transform="translate(256.884766 0.421875)"/>
      <use xlink:href="#DejaVuSerif-74" transform="translate(316.503906 0.421875)"/>
      <use xlink:href="#DejaVuSerif-6f" transform="translate(356.689453 0.421875)"/>
      <use xlink:href="#DejaVuSerif-72" transform="translate(416.894531 0.421875)"/>
      <use xlink:href="#DejaVuSerif-20" transform="translate(464.697266 0.421875)"/>
      <use xlink:href="#Cmmi10-41" transform="translate(496.484375 0.421875)"/>
     </g>
    </g>
    <g id="line2d_31">
     <path d="M 521.21 66.12 
L 533.21 66.12 
L 545.21 66.12 
" style="fill: none; stroke: #d95319; stroke-width: 2.2; stroke-linecap: square"/>
    </g>
    <g id="text_8">
     <!-- Repressor $R$ -->
     <g transform="translate(554.81 70.32) scale(0.12 -0.12)">
      <defs>
       <path id="DejaVuSerif-52" d="M 3066 2316 
Q 3284 2256 3442 2114 
Q 3600 1972 3725 1716 
L 4403 331 
L 4972 331 
L 4972 0 
L 3872 0 
L 3144 1484 
Q 2934 1916 2759 2042 
Q 2584 2169 2278 2169 
L 1581 2169 
L 1581 331 
L 2241 331 
L 2241 0 
L 353 0 
L 353 331 
L 947 331 
L 947 4331 
L 353 4331 
L 353 4666 
L 2719 4666 
Q 3400 4666 3770 4341 
Q 4141 4016 4141 3419 
Q 4141 2938 3870 2661 
Q 3600 2384 3066 2316 
z
M 1581 2503 
L 2503 2503 
Q 2975 2503 3200 2726 
Q 3425 2950 3425 3419 
Q 3425 3888 3200 4109 
Q 2975 4331 2503 4331 
L 1581 4331 
L 1581 2503 
z
" transform="scale(0.015625)"/>
       <path id="DejaVuSerif-70" d="M 1313 1825 
L 1313 1497 
Q 1313 897 1542 583 
Q 1772 269 2209 269 
Q 2650 269 2876 622 
Q 3103 975 3103 1663 
Q 3103 2353 2876 2703 
Q 2650 3053 2209 3053 
Q 1772 3053 1542 2737 
Q 1313 2422 1313 1825 
z
M 738 2988 
L 184 2988 
L 184 3322 
L 1313 3322 
L 1313 2803 
Q 1481 3116 1742 3264 
Q 2003 3413 2388 3413 
Q 3000 3413 3387 2928 
Q 3775 2444 3775 1663 
Q 3775 881 3387 395 
Q 3000 -91 2388 -91 
Q 2003 -91 1742 57 
Q 1481 206 1313 519 
L 1313 -997 
L 1856 -997 
L 1856 -1331 
L 184 -1331 
L 184 -997 
L 738 -997 
L 738 2988 
z
" transform="scale(0.015625)"/>
       <path id="DejaVuSerif-73" d="M 359 184 
L 359 959 
L 691 959 
Q 703 588 923 403 
Q 1144 219 1575 219 
Q 1963 219 2166 364 
Q 2369 509 2369 788 
Q 2369 1006 2220 1140 
Q 2072 1275 1594 1428 
L 1178 1569 
Q 750 1706 558 1912 
Q 366 2119 366 2438 
Q 366 2894 700 3153 
Q 1034 3413 1625 3413 
Q 1888 3413 2178 3344 
Q 2469 3275 2778 3144 
L 2778 2419 
L 2447 2419 
Q 2434 2741 2221 2922 
Q 2009 3103 1644 3103 
Q 1281 3103 1095 2975 
Q 909 2847 909 2591 
Q 909 2381 1050 2254 
Q 1191 2128 1613 1997 
L 2069 1856 
Q 2541 1709 2748 1489 
Q 2956 1269 2956 922 
Q 2956 450 2595 179 
Q 2234 -91 1600 -91 
Q 1278 -91 972 -22 
Q 666 47 359 184 
z
" transform="scale(0.015625)"/>
       <path id="Cmmi10-52" d="M 313 0 
Q 250 0 250 84 
Q 253 100 262 139 
Q 272 178 289 201 
Q 306 225 331 225 
Q 722 225 878 269 
Q 959 297 997 441 
L 1875 3956 
Q 1888 4019 1888 4044 
Q 1888 4113 1813 4122 
Q 1691 4147 1350 4147 
Q 1288 4147 1288 4231 
Q 1291 4247 1300 4286 
Q 1309 4325 1326 4348 
Q 1344 4372 1369 4372 
L 3309 4372 
Q 3541 4372 3791 4319 
Q 4041 4266 4250 4152 
Q 4459 4038 4593 3848 
Q 4728 3659 4728 3406 
Q 4728 3084 4515 2831 
Q 4303 2578 3978 2408 
Q 3653 2238 3347 2169 
Q 3597 2078 3756 1879 
Q 3916 1681 3916 1422 
Q 3916 1388 3914 1370 
Q 3913 1353 3909 1331 
L 3859 763 
Q 3853 638 3847 550 
Q 3841 463 3841 409 
Q 3841 234 3892 129 
Q 3944 25 4097 25 
Q 4297 25 4448 211 
Q 4600 397 4647 616 
Q 4675 672 4709 672 
L 4769 672 
Q 4831 672 4831 588 
Q 4784 403 4682 237 
Q 4581 72 4426 -34 
Q 4272 -141 4091 -141 
Q 3716 -141 3452 26 
Q 3188 194 3188 550 
Q 3188 684 3213 788 
L 3353 1356 
Q 3378 1434 3378 1538 
Q 3378 1803 3198 1954 
Q 3019 2106 2747 2106 
L 1959 2106 
L 1538 416 
Q 1522 363 1522 325 
Q 1522 259 1600 250 
Q 1722 225 2059 225 
Q 2125 225 2125 141 
Q 2103 50 2090 25 
Q 2078 0 2016 0 
L 313 0 
z
M 1997 2272 
L 2706 2272 
Q 3403 2272 3756 2625 
Q 3919 2788 4014 3039 
Q 4109 3291 4109 3541 
Q 4109 3778 3970 3912 
Q 3831 4047 3626 4097 
Q 3422 4147 3175 4147 
L 2747 4147 
Q 2572 4147 2515 4117 
Q 2459 4088 2413 3928 
L 1997 2272 
z
" transform="scale(0.015625)"/>
      </defs>
      <use xlink:href="#DejaVuSerif-52" transform="translate(0 0.09375)"/>
      <use xlink:href="#DejaVuSerif-65" transform="translate(75.292969 0.09375)"/>
      <use xlink:href="#DejaVuSerif-70" transform="translate(134.472656 0.09375)"/>
      <use xlink:href="#DejaVuSerif-72" transform="translate(198.486328 0.09375)"/>
      <use xlink:href="#DejaVuSerif-65" transform="translate(246.289062 0.09375)"/>
      <use xlink:href="#DejaVuSerif-73" transform="translate(305.46875 0.09375)"/>
      <use xlink:href="#DejaVuSerif-73" transform="translate(356.787109 0.09375)"/>
      <use xlink:href="#DejaVuSerif-6f" transform="translate(408.105469 0.09375)"/>
      <use xlink:href="#DejaVuSerif-72" transform="translate(468.310547 0.09375)"/>
      <use xlink:href="#DejaVuSerif-20" transform="translate(516.113281 0.09375)"/>
      <use xlink:href="#Cmmi10-52" transform="translate(547.900391 0.09375)"/>
     </g>
    </g>
    <g id="line2d_32">
     <path d="M 653.69 66.12 
L 665.69 66.12 
L 677.69 66.12 
" style="fill: none; stroke: #77ac30; stroke-width: 2.2; stroke-linecap: square"/>
    </g>
    <g id="text_9">
     <!-- Complex $C$ -->
     <g transform="translate(687.29 70.32) scale(0.12 -0.12)">
      <defs>
       <path id="DejaVuSerif-43" d="M 4513 1234 
Q 4306 581 3820 245 
Q 3334 -91 2591 -91 
Q 2134 -91 1743 65 
Q 1353 222 1050 525 
Q 700 875 529 1320 
Q 359 1766 359 2328 
Q 359 3416 987 4083 
Q 1616 4750 2644 4750 
Q 3025 4750 3456 4650 
Q 3888 4550 4384 4347 
L 4384 3272 
L 4031 3272 
Q 3916 3859 3567 4137 
Q 3219 4416 2591 4416 
Q 1844 4416 1459 3886 
Q 1075 3356 1075 2328 
Q 1075 1303 1459 773 
Q 1844 244 2591 244 
Q 3113 244 3450 492 
Q 3788 741 3938 1234 
L 4513 1234 
z
" transform="scale(0.015625)"/>
       <path id="DejaVuSerif-6d" d="M 3316 2675 
Q 3481 3041 3739 3227 
Q 3997 3413 4341 3413 
Q 4863 3413 5119 3089 
Q 5375 2766 5375 2113 
L 5375 331 
L 5894 331 
L 5894 0 
L 4300 0 
L 4300 331 
L 4800 331 
L 4800 2047 
Q 4800 2556 4650 2772 
Q 4500 2988 4153 2988 
Q 3769 2988 3567 2697 
Q 3366 2406 3366 1850 
L 3366 331 
L 3866 331 
L 3866 0 
L 2291 0 
L 2291 331 
L 2791 331 
L 2791 2069 
Q 2791 2566 2641 2777 
Q 2491 2988 2144 2988 
Q 1759 2988 1557 2697 
Q 1356 2406 1356 1850 
L 1356 331 
L 1856 331 
L 1856 0 
L 263 0 
L 263 331 
L 781 331 
L 781 2994 
L 231 2994 
L 231 3322 
L 1356 3322 
L 1356 2731 
Q 1516 3063 1762 3238 
Q 2009 3413 2322 3413 
Q 2709 3413 2968 3220 
Q 3228 3028 3316 2675 
z
" transform="scale(0.015625)"/>
       <path id="DejaVuSerif-6c" d="M 1313 331 
L 1856 331 
L 1856 0 
L 184 0 
L 184 331 
L 738 331 
L 738 4531 
L 184 4531 
L 184 4863 
L 1313 4863 
L 1313 331 
z
" transform="scale(0.015625)"/>
       <path id="DejaVuSerif-78" d="M 1863 2028 
L 2559 2988 
L 2113 2988 
L 2113 3322 
L 3391 3322 
L 3391 2988 
L 2950 2988 
L 2059 1759 
L 3097 331 
L 3531 331 
L 3531 0 
L 1997 0 
L 1997 331 
L 2419 331 
L 1697 1325 
L 972 331 
L 1403 331 
L 1403 0 
L 141 0 
L 141 331 
L 581 331 
L 1497 1594 
L 488 2988 
L 78 2988 
L 78 3322 
L 1563 3322 
L 1563 2988 
L 1166 2988 
L 1863 2028 
z
" transform="scale(0.015625)"/>
       <path id="Cmmi10-43" d="M 934 1381 
Q 934 997 1082 705 
Q 1231 413 1514 248 
Q 1797 84 2181 84 
Q 2584 84 2957 290 
Q 3331 497 3595 842 
Q 3859 1188 3956 1575 
Q 3969 1613 4006 1613 
L 4084 1613 
Q 4109 1613 4125 1595 
Q 4141 1578 4141 1556 
Q 4141 1550 4134 1538 
Q 4025 1094 3711 705 
Q 3397 316 2959 87 
Q 2522 -141 2059 -141 
Q 1559 -141 1162 84 
Q 766 309 545 709 
Q 325 1109 325 1613 
Q 325 2150 565 2676 
Q 806 3203 1212 3614 
Q 1619 4025 2139 4269 
Q 2659 4513 3194 4513 
Q 3406 4513 3600 4448 
Q 3794 4384 3959 4253 
Q 4125 4122 4231 3950 
L 4738 4500 
Q 4738 4513 4769 4513 
L 4806 4513 
Q 4831 4513 4847 4491 
Q 4863 4469 4863 4447 
L 4428 2719 
Q 4428 2675 4378 2675 
L 4263 2675 
Q 4213 2675 4213 2747 
Q 4238 2888 4238 3084 
Q 4238 3397 4131 3673 
Q 4025 3950 3801 4119 
Q 3578 4288 3256 4288 
Q 2734 4288 2300 4025 
Q 1866 3763 1564 3336 
Q 1263 2909 1098 2389 
Q 934 1869 934 1381 
z
" transform="scale(0.015625)"/>
      </defs>
      <use xlink:href="#DejaVuSerif-43" transform="translate(0 0.015625)"/>
      <use xlink:href="#DejaVuSerif-6f" transform="translate(76.513672 0.015625)"/>
      <use xlink:href="#DejaVuSerif-6d" transform="translate(136.71875 0.015625)"/>
      <use xlink:href="#DejaVuSerif-70" transform="translate(231.542969 0.015625)"/>
      <use xlink:href="#DejaVuSerif-6c" transform="translate(295.556641 0.015625)"/>
      <use xlink:href="#DejaVuSerif-65" transform="translate(327.539062 0.015625)"/>
      <use xlink:href="#DejaVuSerif-78" transform="translate(386.71875 0.015625)"/>
      <use xlink:href="#DejaVuSerif-20" transform="translate(443.115234 0.015625)"/>
      <use xlink:href="#Cmmi10-43" transform="translate(474.902344 0.015625)"/>
     </g>
    </g>
   </g>
  </g>
  <g id="axes_2">
   <g id="patch_6">
    <path d="M 66.77 387.36 
L 763.73 387.36 
L 763.73 228.416604 
L 66.77 228.416604 
z
" style="fill: #ffffff"/>
   </g>
   <g id="matplotlib.axis_3">
    <g id="xtick_9">
     <g id="line2d_33">
      <path d="M 66.77 387.36 
L 66.77 228.416604 
" clip-path="url(#p0c30833d98)" style="fill: none; stroke: #b0b0b0; stroke-opacity: 0.2; stroke-width: 0.8; stroke-linecap: square"/>
     </g>
     <g id="line2d_34">
      <g>
       <use xlink:href="#m91240ff702" x="66.77" y="387.36" style="stroke: #000000; stroke-width: 0.8"/>
      </g>
     </g>
     <g id="text_10">
      <!-- 0 -->
      <g transform="translate(62.634375 404.237969) scale(0.13 -0.13)">
       <use xlink:href="#DejaVuSerif-30"/>
      </g>
     </g>
    </g>
    <g id="xtick_10">
     <g id="line2d_35">
      <path d="M 159.698 387.36 
L 159.698 228.416604 
" clip-path="url(#p0c30833d98)" style="fill: none; stroke: #b0b0b0; stroke-opacity: 0.2; stroke-width: 0.8; stroke-linecap: square"/>
     </g>
     <g id="line2d_36">
      <g>
       <use xlink:href="#m91240ff702" x="159.698" y="387.36" style="stroke: #000000; stroke-width: 0.8"/>
      </g>
     </g>
     <g id="text_11">
      <!-- 20 -->
      <g transform="translate(151.42675 404.237969) scale(0.13 -0.13)">
       <use xlink:href="#DejaVuSerif-32"/>
       <use xlink:href="#DejaVuSerif-30" transform="translate(63.623047 0)"/>
      </g>
     </g>
    </g>
    <g id="xtick_11">
     <g id="line2d_37">
      <path d="M 252.626 387.36 
L 252.626 228.416604 
" clip-path="url(#p0c30833d98)" style="fill: none; stroke: #b0b0b0; stroke-opacity: 0.2; stroke-width: 0.8; stroke-linecap: square"/>
     </g>
     <g id="line2d_38">
      <g>
       <use xlink:href="#m91240ff702" x="252.626" y="387.36" style="stroke: #000000; stroke-width: 0.8"/>
      </g>
     </g>
     <g id="text_12">
      <!-- 40 -->
      <g transform="translate(244.35475 404.237969) scale(0.13 -0.13)">
       <defs>
        <path id="DejaVuSerif-34" d="M 2234 1581 
L 2234 4063 
L 641 1581 
L 2234 1581 
z
M 3609 0 
L 1484 0 
L 1484 331 
L 2234 331 
L 2234 1247 
L 197 1247 
L 197 1588 
L 2241 4750 
L 2859 4750 
L 2859 1581 
L 3750 1581 
L 3750 1247 
L 2859 1247 
L 2859 331 
L 3609 331 
L 3609 0 
z
" transform="scale(0.015625)"/>
       </defs>
       <use xlink:href="#DejaVuSerif-34"/>
       <use xlink:href="#DejaVuSerif-30" transform="translate(63.623047 0)"/>
      </g>
     </g>
    </g>
    <g id="xtick_12">
     <g id="line2d_39">
      <path d="M 345.554 387.36 
L 345.554 228.416604 
" clip-path="url(#p0c30833d98)" style="fill: none; stroke: #b0b0b0; stroke-opacity: 0.2; stroke-width: 0.8; stroke-linecap: square"/>
     </g>
     <g id="line2d_40">
      <g>
       <use xlink:href="#m91240ff702" x="345.554" y="387.36" style="stroke: #000000; stroke-width: 0.8"/>
      </g>
     </g>
     <g id="text_13">
      <!-- 60 -->
      <g transform="translate(337.28275 404.237969) scale(0.13 -0.13)">
       <defs>
        <path id="DejaVuSerif-36" d="M 2094 219 
Q 2534 219 2771 542 
Q 3009 866 3009 1472 
Q 3009 2078 2771 2401 
Q 2534 2725 2094 2725 
Q 1647 2725 1412 2412 
Q 1178 2100 1178 1509 
Q 1178 888 1415 553 
Q 1653 219 2094 219 
z
M 1075 2569 
Q 1288 2803 1556 2918 
Q 1825 3034 2163 3034 
Q 2859 3034 3264 2615 
Q 3669 2197 3669 1472 
Q 3669 763 3233 336 
Q 2797 -91 2069 -91 
Q 1278 -91 853 498 
Q 428 1088 428 2181 
Q 428 3406 931 4078 
Q 1434 4750 2350 4750 
Q 2597 4750 2869 4703 
Q 3141 4656 3425 4563 
L 3425 3794 
L 3072 3794 
Q 3034 4109 2831 4275 
Q 2628 4441 2284 4441 
Q 1678 4441 1381 3981 
Q 1084 3522 1075 2569 
z
" transform="scale(0.015625)"/>
       </defs>
       <use xlink:href="#DejaVuSerif-36"/>
       <use xlink:href="#DejaVuSerif-30" transform="translate(63.623047 0)"/>
      </g>
     </g>
    </g>
    <g id="xtick_13">
     <g id="line2d_41">
      <path d="M 438.482 387.36 
L 438.482 228.416604 
" clip-path="url(#p0c30833d98)" style="fill: none; stroke: #b0b0b0; stroke-opacity: 0.2; stroke-width: 0.8; stroke-linecap: square"/>
     </g>
     <g id="line2d_42">
      <g>
       <use xlink:href="#m91240ff702" x="438.482" y="387.36" style="stroke: #000000; stroke-width: 0.8"/>
      </g>
     </g>
     <g id="text_14">
      <!-- 80 -->
      <g transform="translate(430.21075 404.237969) scale(0.13 -0.13)">
       <defs>
        <path id="DejaVuSerif-38" d="M 2981 1275 
Q 2981 1775 2732 2051 
Q 2484 2328 2034 2328 
Q 1584 2328 1336 2051 
Q 1088 1775 1088 1275 
Q 1088 772 1336 495 
Q 1584 219 2034 219 
Q 2484 219 2732 495 
Q 2981 772 2981 1275 
z
M 2853 3541 
Q 2853 3966 2637 4203 
Q 2422 4441 2034 4441 
Q 1650 4441 1433 4203 
Q 1216 3966 1216 3541 
Q 1216 3113 1433 2875 
Q 1650 2638 2034 2638 
Q 2422 2638 2637 2875 
Q 2853 3113 2853 3541 
z
M 2516 2484 
Q 3047 2413 3344 2092 
Q 3641 1772 3641 1275 
Q 3641 619 3225 264 
Q 2809 -91 2034 -91 
Q 1263 -91 845 264 
Q 428 619 428 1275 
Q 428 1772 725 2092 
Q 1022 2413 1556 2484 
Q 1084 2569 832 2842 
Q 581 3116 581 3541 
Q 581 4103 968 4426 
Q 1356 4750 2034 4750 
Q 2713 4750 3100 4426 
Q 3488 4103 3488 3541 
Q 3488 3116 3236 2842 
Q 2984 2569 2516 2484 
z
" transform="scale(0.015625)"/>
       </defs>
       <use xlink:href="#DejaVuSerif-38"/>
       <use xlink:href="#DejaVuSerif-30" transform="translate(63.623047 0)"/>
      </g>
     </g>
    </g>
    <g id="xtick_14">
     <g id="line2d_43">
      <path d="M 531.41 387.36 
L 531.41 228.416604 
" clip-path="url(#p0c30833d98)" style="fill: none; stroke: #b0b0b0; stroke-opacity: 0.2; stroke-width: 0.8; stroke-linecap: square"/>
     </g>
     <g id="line2d_44">
      <g>
       <use xlink:href="#m91240ff702" x="531.41" y="387.36" style="stroke: #000000; stroke-width: 0.8"/>
      </g>
     </g>
     <g id="text_15">
      <!-- 100 -->
      <g transform="translate(519.003125 404.237969) scale(0.13 -0.13)">
       <use xlink:href="#DejaVuSerif-31"/>
       <use xlink:href="#DejaVuSerif-30" transform="translate(63.623047 0)"/>
       <use xlink:href="#DejaVuSerif-30" transform="translate(127.246094 0)"/>
      </g>
     </g>
    </g>
    <g id="xtick_15">
     <g id="line2d_45">
      <path d="M 624.338 387.36 
L 624.338 228.416604 
" clip-path="url(#p0c30833d98)" style="fill: none; stroke: #b0b0b0; stroke-opacity: 0.2; stroke-width: 0.8; stroke-linecap: square"/>
     </g>
     <g id="line2d_46">
      <g>
       <use xlink:href="#m91240ff702" x="624.338" y="387.36" style="stroke: #000000; stroke-width: 0.8"/>
      </g>
     </g>
     <g id="text_16">
      <!-- 120 -->
      <g transform="translate(611.931125 404.237969) scale(0.13 -0.13)">
       <use xlink:href="#DejaVuSerif-31"/>
       <use xlink:href="#DejaVuSerif-32" transform="translate(63.623047 0)"/>
       <use xlink:href="#DejaVuSerif-30" transform="translate(127.246094 0)"/>
      </g>
     </g>
    </g>
    <g id="xtick_16">
     <g id="line2d_47">
      <path d="M 717.266 387.36 
L 717.266 228.416604 
" clip-path="url(#p0c30833d98)" style="fill: none; stroke: #b0b0b0; stroke-opacity: 0.2; stroke-width: 0.8; stroke-linecap: square"/>
     </g>
     <g id="line2d_48">
      <g>
       <use xlink:href="#m91240ff702" x="717.266" y="387.36" style="stroke: #000000; stroke-width: 0.8"/>
      </g>
     </g>
     <g id="text_17">
      <!-- 140 -->
      <g transform="translate(704.859125 404.237969) scale(0.13 -0.13)">
       <use xlink:href="#DejaVuSerif-31"/>
       <use xlink:href="#DejaVuSerif-34" transform="translate(63.623047 0)"/>
       <use xlink:href="#DejaVuSerif-30" transform="translate(127.246094 0)"/>
      </g>
     </g>
    </g>
    <g id="text_18">
     <!-- Time [h] -->
     <g transform="translate(381.09625 423.099063) scale(0.16 -0.16)">
      <defs>
       <path id="DejaVuSerif-54" d="M 1222 0 
L 1222 331 
L 1819 331 
L 1819 4294 
L 447 4294 
L 447 3566 
L 63 3566 
L 63 4666 
L 4206 4666 
L 4206 3566 
L 3822 3566 
L 3822 4294 
L 2450 4294 
L 2450 331 
L 3047 331 
L 3047 0 
L 1222 0 
z
" transform="scale(0.015625)"/>
       <path id="DejaVuSerif-5b" d="M 550 4863 
L 2003 4863 
L 2003 4531 
L 1147 4531 
L 1147 -513 
L 2003 -513 
L 2003 -844 
L 550 -844 
L 550 4863 
z
" transform="scale(0.015625)"/>
       <path id="DejaVuSerif-68" d="M 263 0 
L 263 331 
L 781 331 
L 781 4531 
L 231 4531 
L 231 4863 
L 1356 4863 
L 1356 2731 
Q 1516 3069 1770 3241 
Q 2025 3413 2363 3413 
Q 2913 3413 3172 3097 
Q 3431 2781 3431 2113 
L 3431 331 
L 3944 331 
L 3944 0 
L 2356 0 
L 2356 331 
L 2853 331 
L 2853 1931 
Q 2853 2541 2704 2764 
Q 2556 2988 2175 2988 
Q 1775 2988 1565 2697 
Q 1356 2406 1356 1850 
L 1356 331 
L 1856 331 
L 1856 0 
L 263 0 
z
" transform="scale(0.015625)"/>
       <path id="DejaVuSerif-5d" d="M 1947 4863 
L 1947 -844 
L 494 -844 
L 494 -513 
L 1350 -513 
L 1350 4531 
L 494 4531 
L 494 4863 
L 1947 4863 
z
" transform="scale(0.015625)"/>
      </defs>
      <use xlink:href="#DejaVuSerif-54"/>
      <use xlink:href="#DejaVuSerif-69" transform="translate(66.699219 0)"/>
      <use xlink:href="#DejaVuSerif-6d" transform="translate(98.681641 0)"/>
      <use xlink:href="#DejaVuSerif-65" transform="translate(193.505859 0)"/>
      <use xlink:href="#DejaVuSerif-20" transform="translate(252.685547 0)"/>
      <use xlink:href="#DejaVuSerif-5b" transform="translate(284.472656 0)"/>
      <use xlink:href="#DejaVuSerif-68" transform="translate(323.486328 0)"/>
      <use xlink:href="#DejaVuSerif-5d" transform="translate(387.890625 0)"/>
     </g>
    </g>
   </g>
   <g id="matplotlib.axis_4">
    <g id="ytick_6">
     <g id="line2d_49">
      <path d="M 66.77 380.1353 
L 763.73 380.1353 
" clip-path="url(#p0c30833d98)" style="fill: none; stroke: #b0b0b0; stroke-opacity: 0.2; stroke-width: 0.8; stroke-linecap: square"/>
     </g>
     <g id="line2d_50">
      <g>
       <use xlink:href="#m8666e786b4" x="66.77" y="380.1353" style="stroke: #000000; stroke-width: 0.8"/>
      </g>
     </g>
     <g id="text_19">
      <!-- 0 -->
      <g transform="translate(51.49875 385.074285) scale(0.13 -0.13)">
       <use xlink:href="#DejaVuSerif-30"/>
      </g>
     </g>
    </g>
    <g id="ytick_7">
     <g id="line2d_51">
      <path d="M 66.77 346.631034 
L 763.73 346.631034 
" clip-path="url(#p0c30833d98)" style="fill: none; stroke: #b0b0b0; stroke-opacity: 0.2; stroke-width: 0.8; stroke-linecap: square"/>
     </g>
     <g id="line2d_52">
      <g>
       <use xlink:href="#m8666e786b4" x="66.77" y="346.631034" style="stroke: #000000; stroke-width: 0.8"/>
      </g>
     </g>
     <g id="text_20">
      <!-- 20 -->
      <g transform="translate(43.2275 351.570018) scale(0.13 -0.13)">
       <use xlink:href="#DejaVuSerif-32"/>
       <use xlink:href="#DejaVuSerif-30" transform="translate(63.623047 0)"/>
      </g>
     </g>
    </g>
    <g id="ytick_8">
     <g id="line2d_53">
      <path d="M 66.77 313.126768 
L 763.73 313.126768 
" clip-path="url(#p0c30833d98)" style="fill: none; stroke: #b0b0b0; stroke-opacity: 0.2; stroke-width: 0.8; stroke-linecap: square"/>
     </g>
     <g id="line2d_54">
      <g>
       <use xlink:href="#m8666e786b4" x="66.77" y="313.126768" style="stroke: #000000; stroke-width: 0.8"/>
      </g>
     </g>
     <g id="text_21">
      <!-- 40 -->
      <g transform="translate(43.2275 318.065752) scale(0.13 -0.13)">
       <use xlink:href="#DejaVuSerif-34"/>
       <use xlink:href="#DejaVuSerif-30" transform="translate(63.623047 0)"/>
      </g>
     </g>
    </g>
    <g id="ytick_9">
     <g id="line2d_55">
      <path d="M 66.77 279.622501 
L 763.73 279.622501 
" clip-path="url(#p0c30833d98)" style="fill: none; stroke: #b0b0b0; stroke-opacity: 0.2; stroke-width: 0.8; stroke-linecap: square"/>
     </g>
     <g id="line2d_56">
      <g>
       <use xlink:href="#m8666e786b4" x="66.77" y="279.622501" style="stroke: #000000; stroke-width: 0.8"/>
      </g>
     </g>
     <g id="text_22">
      <!-- 60 -->
      <g transform="translate(43.2275 284.561486) scale(0.13 -0.13)">
       <use xlink:href="#DejaVuSerif-36"/>
       <use xlink:href="#DejaVuSerif-30" transform="translate(63.623047 0)"/>
      </g>
     </g>
    </g>
    <g id="ytick_10">
     <g id="line2d_57">
      <path d="M 66.77 246.118235 
L 763.73 246.118235 
" clip-path="url(#p0c30833d98)" style="fill: none; stroke: #b0b0b0; stroke-opacity: 0.2; stroke-width: 0.8; stroke-linecap: square"/>
     </g>
     <g id="line2d_58">
      <g>
       <use xlink:href="#m8666e786b4" x="66.77" y="246.118235" style="stroke: #000000; stroke-width: 0.8"/>
      </g>
     </g>
     <g id="text_23">
      <!-- 80 -->
      <g transform="translate(43.2275 251.05722) scale(0.13 -0.13)">
       <use xlink:href="#DejaVuSerif-38"/>
       <use xlink:href="#DejaVuSerif-30" transform="translate(63.623047 0)"/>
      </g>
     </g>
    </g>
    <g id="text_24">
     <!-- mRNA count -->
     <g transform="translate(35.9 359.634552) rotate(-90) scale(0.16 -0.16)">
      <defs>
       <path id="DejaVuSerif-4e" d="M 313 0 
L 313 331 
L 941 331 
L 941 4331 
L 313 4331 
L 313 4666 
L 1509 4666 
L 4306 984 
L 4306 4331 
L 3681 4331 
L 3681 4666 
L 5319 4666 
L 5319 4331 
L 4691 4331 
L 4691 -91 
L 4313 -91 
L 1325 3841 
L 1325 331 
L 1953 331 
L 1953 0 
L 313 0 
z
" transform="scale(0.015625)"/>
      </defs>
      <use xlink:href="#DejaVuSerif-6d"/>
      <use xlink:href="#DejaVuSerif-52" transform="translate(94.824219 0)"/>
      <use xlink:href="#DejaVuSerif-4e" transform="translate(170.117188 0)"/>
      <use xlink:href="#DejaVuSerif-41" transform="translate(257.617188 0)"/>
      <use xlink:href="#DejaVuSerif-20" transform="translate(329.833984 0)"/>
      <use xlink:href="#DejaVuSerif-63" transform="translate(361.621094 0)"/>
      <use xlink:href="#DejaVuSerif-6f" transform="translate(417.626953 0)"/>
      <use xlink:href="#DejaVuSerif-75" transform="translate(477.832031 0)"/>
      <use xlink:href="#DejaVuSerif-6e" transform="translate(542.236328 0)"/>
      <use xlink:href="#DejaVuSerif-74" transform="translate(606.640625 0)"/>
     </g>
    </g>
   </g>
   <g id="line2d_59">
    <path d="M 66.77 380.1353 
L 67.379916 368.735609 
L 67.815571 351.606243 
L 68.512618 323.589079 
L 68.948272 313.41689 
L 69.383927 307.57044 
L 69.819581 304.260697 
L 70.255236 302.344993 
L 70.778021 301.014499 
L 71.300806 300.231927 
L 71.997853 299.609964 
L 72.869162 299.161423 
L 74.088995 298.815904 
L 75.831613 298.58024 
L 78.358409 298.480742 
L 81.843644 298.578995 
L 85.503142 298.900135 
L 88.552723 299.381901 
L 90.818126 299.949121 
L 92.560744 300.599455 
L 93.954838 301.353893 
L 95.000409 302.153017 
L 95.871718 303.075717 
L 96.655896 304.242547 
L 97.265812 305.525627 
L 97.788597 307.079973 
L 98.311383 309.402267 
L 98.747037 312.502347 
L 99.095561 316.617896 
L 99.444084 324.025906 
L 99.879739 340.82942 
L 100.402524 358.579099 
L 100.838179 365.790109 
L 101.186702 368.595531 
L 101.535226 370.043266 
L 101.97088 370.905299 
L 102.406535 371.282108 
L 103.016451 371.490337 
L 104.236283 371.598351 
L 108.76709 371.647719 
L 128.720064 371.58303 
L 152.332535 371.318227 
L 169.235928 370.916214 
L 183.002609 370.372325 
L 195.288065 369.666474 
L 210.797363 368.519076 
L 216.722264 368.212015 
L 220.381761 368.239874 
L 223.692735 368.489146 
L 236.239584 369.707355 
L 241.815961 369.819931 
L 249.657741 369.736605 
L 262.640244 369.344459 
L 275.797008 369.009728 
L 283.638789 369.045645 
L 311.956328 369.447373 
L 352.646455 369.279638 
L 375.64901 369.34365 
L 425.400749 369.315779 
L 523.24874 369.300287 
L 763.73 369.302925 
L 763.73 369.302925 
" clip-path="url(#p0c30833d98)" style="fill: none; stroke: #7e2f8e; stroke-width: 2.2; stroke-linecap: square"/>
   </g>
   <g id="line2d_60">
    <path d="M 66.77 380.1353 
L 67.118524 379.916973 
L 67.379916 379.42761 
L 67.641309 378.406532 
L 67.989832 375.998771 
L 68.512618 370.578929 
L 69.993843 351.709726 
L 71.823592 329.586119 
L 73.391948 313.17762 
L 74.960304 299.091039 
L 76.441529 287.70485 
L 77.922754 277.957983 
L 79.403979 269.643876 
L 80.885204 262.577433 
L 82.36643 256.596869 
L 83.760524 251.835305 
L 85.154618 247.814012 
L 86.548712 244.450779 
L 87.855676 241.836029 
L 89.162639 239.698991 
L 90.382472 238.110007 
L 91.515173 236.97525 
L 92.560744 236.221992 
L 93.519184 235.793112 
L 94.390493 235.642586 
L 95.174671 235.731561 
L 95.871718 236.024619 
L 96.568765 236.570403 
L 97.178681 237.320367 
L 97.788597 238.427106 
L 98.311383 239.799771 
L 98.834168 241.821716 
L 99.269822 244.415611 
L 99.705477 248.542289 
L 103.016451 286.34065 
L 104.497676 299.592664 
L 105.978901 310.896196 
L 107.460126 320.536134 
L 108.941351 328.75661 
L 110.422577 335.76622 
L 111.903802 341.743028 
L 113.385027 346.838962 
L 114.866252 351.183626 
L 116.347477 354.887561 
L 117.915833 358.215541 
L 119.484189 361.025761 
L 121.052545 363.398502 
L 122.708032 365.503219 
L 124.45065 367.347215 
L 126.193268 368.874145 
L 128.110148 370.25178 
L 130.114158 371.415588 
L 132.29243 372.422622 
L 134.732095 373.298254 
L 137.433153 374.027678 
L 140.569865 374.638098 
L 144.229362 375.119276 
L 148.760169 375.481035 
L 154.510808 375.704932 
L 162.178326 375.766967 
L 172.37264 375.617402 
L 184.396703 375.217734 
L 196.246505 374.604123 
L 208.096306 373.7643 
L 220.381761 372.908224 
L 224.651175 372.857843 
L 229.00772 373.039201 
L 247.130945 374.067546 
L 254.711333 374.11743 
L 264.382862 373.944077 
L 285.294276 373.499856 
L 295.140066 373.60898 
L 314.483124 373.858811 
L 329.992423 373.7664 
L 351.078099 373.672902 
L 402.311063 373.719199 
L 472.190038 373.730073 
L 763.73 373.736458 
L 763.73 373.736458 
" clip-path="url(#p0c30833d98)" style="fill: none; stroke: #edb120; stroke-width: 2.2; stroke-linecap: square"/>
   </g>
   <g id="patch_7">
    <path d="M 66.77 387.36 
L 66.77 228.416604 
" style="fill: none; stroke: #000000; stroke-width: 0.8; stroke-linejoin: miter; stroke-linecap: square"/>
   </g>
   <g id="patch_8">
    <path d="M 66.77 387.36 
L 763.73 387.36 
" style="fill: none; stroke: #000000; stroke-width: 0.8; stroke-linejoin: miter; stroke-linecap: square"/>
   </g>
   <g id="legend_2">
    <g id="patch_9">
     <path d="M 388.01 255.656604 
L 755.33 255.656604 
Q 757.73 255.656604 757.73 253.256604 
L 757.73 236.816604 
Q 757.73 234.416604 755.33 234.416604 
L 388.01 234.416604 
Q 385.61 234.416604 385.61 236.816604 
L 385.61 253.256604 
Q 385.61 255.656604 388.01 255.656604 
z
" style="fill: #ffffff; opacity: 0.95; stroke: #d1d1d1; stroke-linejoin: miter"/>
    </g>
    <g id="line2d_61">
     <path d="M 390.41 244.136604 
L 402.41 244.136604 
L 414.41 244.136604 
" style="fill: none; stroke: #7e2f8e; stroke-width: 2.2; stroke-linecap: square"/>
    </g>
    <g id="text_25">
     <!-- $M_A$  (activator mRNA) -->
     <g transform="translate(424.01 248.336604) scale(0.12 -0.12)">
      <defs>
       <path id="Cmmi10-4d" d="M 325 0 
Q 263 0 263 84 
Q 266 100 275 137 
Q 284 175 300 200 
Q 316 225 347 225 
Q 956 225 1056 616 
L 1888 3956 
Q 1900 4019 1900 4044 
Q 1900 4113 1825 4122 
Q 1703 4147 1363 4147 
Q 1300 4147 1300 4231 
Q 1303 4247 1312 4286 
Q 1322 4325 1339 4348 
Q 1356 4372 1381 4372 
L 2509 4372 
Q 2581 4372 2591 4300 
L 3091 634 
L 5422 4300 
Q 5466 4372 5544 4372 
L 6631 4372 
Q 6694 4372 6694 4288 
Q 6691 4272 6681 4233 
Q 6672 4194 6655 4170 
Q 6638 4147 6613 4147 
Q 6222 4147 6069 4103 
Q 5984 4075 5947 3928 
L 5069 416 
Q 5056 353 5056 325 
Q 5056 300 5064 283 
Q 5072 266 5086 261 
Q 5100 256 5131 250 
Q 5253 225 5594 225 
Q 5656 225 5656 141 
Q 5634 50 5621 25 
Q 5609 0 5550 0 
L 3878 0 
Q 3816 0 3816 84 
Q 3819 100 3828 139 
Q 3838 178 3855 201 
Q 3872 225 3897 225 
Q 4288 225 4441 269 
Q 4525 297 4563 441 
L 5484 4147 
L 2900 72 
Q 2863 0 2772 0 
Q 2691 0 2681 72 
L 2138 4097 
L 1259 588 
Q 1253 572 1250 548 
Q 1247 525 1241 494 
Q 1241 328 1386 276 
Q 1531 225 1741 225 
Q 1806 225 1806 141 
Q 1784 56 1770 28 
Q 1756 0 1697 0 
L 325 0 
z
" transform="scale(0.015625)"/>
       <path id="DejaVuSerif-28" d="M 2041 -997 
Q 1281 -656 893 83 
Q 506 822 506 1931 
Q 506 3044 893 3783 
Q 1281 4522 2041 4863 
L 2041 4556 
Q 1559 4225 1350 3623 
Q 1141 3022 1141 1931 
Q 1141 844 1350 242 
Q 1559 -359 2041 -691 
L 2041 -997 
z
" transform="scale(0.015625)"/>
       <path id="DejaVuSerif-29" d="M 453 -997 
L 453 -691 
Q 934 -359 1145 242 
Q 1356 844 1356 1931 
Q 1356 3022 1145 3623 
Q 934 4225 453 4556 
L 453 4863 
Q 1216 4522 1603 3783 
Q 1991 3044 1991 1931 
Q 1991 822 1603 83 
Q 1216 -656 453 -997 
z
" transform="scale(0.015625)"/>
      </defs>
      <use xlink:href="#Cmmi10-4d" transform="translate(0 0.015625)"/>
      <use xlink:href="#Cmmi10-41" transform="translate(97.021484 -16.990625) scale(0.7)"/>
      <use xlink:href="#DejaVuSerif-20" transform="translate(155.898828 0.015625)"/>
      <use xlink:href="#DejaVuSerif-20" transform="translate(187.685937 0.015625)"/>
      <use xlink:href="#DejaVuSerif-28" transform="translate(219.473047 0.015625)"/>
      <use xlink:href="#DejaVuSerif-61" transform="translate(258.486719 0.015625)"/>
      <use xlink:href="#DejaVuSerif-63" transform="translate(318.105859 0.015625)"/>
      <use xlink:href="#DejaVuSerif-74" transform="translate(374.111719 0.015625)"/>
      <use xlink:href="#DejaVuSerif-69" transform="translate(414.297266 0.015625)"/>
      <use xlink:href="#DejaVuSerif-76" transform="translate(446.279688 0.015625)"/>
      <use xlink:href="#DejaVuSerif-61" transform="translate(502.773828 0.015625)"/>
      <use xlink:href="#DejaVuSerif-74" transform="translate(562.392969 0.015625)"/>
      <use xlink:href="#DejaVuSerif-6f" transform="translate(602.578516 0.015625)"/>
      <use xlink:href="#DejaVuSerif-72" transform="translate(662.783594 0.015625)"/>
      <use xlink:href="#DejaVuSerif-20" transform="translate(710.586328 0.015625)"/>
      <use xlink:href="#DejaVuSerif-6d" transform="translate(742.373438 0.015625)"/>
      <use xlink:href="#DejaVuSerif-52" transform="translate(837.197656 0.015625)"/>
      <use xlink:href="#DejaVuSerif-4e" transform="translate(912.490625 0.015625)"/>
      <use xlink:href="#DejaVuSerif-41" transform="translate(999.990625 0.015625)"/>
      <use xlink:href="#DejaVuSerif-29" transform="translate(1072.207422 0.015625)"/>
     </g>
    </g>
    <g id="line2d_62">
     <path d="M 581.45 244.136604 
L 593.45 244.136604 
L 605.45 244.136604 
" style="fill: none; stroke: #edb120; stroke-width: 2.2; stroke-linecap: square"/>
    </g>
    <g id="text_26">
     <!-- $M_R$  (repressor mRNA) -->
     <g transform="translate(615.05 248.336604) scale(0.12 -0.12)">
      <use xlink:href="#Cmmi10-4d" transform="translate(0 0.015625)"/>
      <use xlink:href="#Cmmi10-52" transform="translate(97.021484 -16.990625) scale(0.7)"/>
      <use xlink:href="#DejaVuSerif-20" transform="translate(156.514062 0.015625)"/>
      <use xlink:href="#DejaVuSerif-20" transform="translate(188.301172 0.015625)"/>
      <use xlink:href="#DejaVuSerif-28" transform="translate(220.088281 0.015625)"/>
      <use xlink:href="#DejaVuSerif-72" transform="translate(259.101953 0.015625)"/>
      <use xlink:href="#DejaVuSerif-65" transform="translate(306.904688 0.015625)"/>
      <use xlink:href="#DejaVuSerif-70" transform="translate(366.084375 0.015625)"/>
      <use xlink:href="#DejaVuSerif-72" transform="translate(430.098047 0.015625)"/>
      <use xlink:href="#DejaVuSerif-65" transform="translate(477.900781 0.015625)"/>
      <use xlink:href="#DejaVuSerif-73" transform="translate(537.080469 0.015625)"/>
      <use xlink:href="#DejaVuSerif-73" transform="translate(588.398828 0.015625)"/>
      <use xlink:href="#DejaVuSerif-6f" transform="translate(639.717188 0.015625)"/>
      <use xlink:href="#DejaVuSerif-72" transform="translate(699.922266 0.015625)"/>
      <use xlink:href="#DejaVuSerif-20" transform="translate(747.725 0.015625)"/>
      <use xlink:href="#DejaVuSerif-6d" transform="translate(779.512109 0.015625)"/>
      <use xlink:href="#DejaVuSerif-52" transform="translate(874.336328 0.015625)"/>
      <use xlink:href="#DejaVuSerif-4e" transform="translate(949.629297 0.015625)"/>
      <use xlink:href="#DejaVuSerif-41" transform="translate(1037.129297 0.015625)"/>
      <use xlink:href="#DejaVuSerif-29" transform="translate(1109.346094 0.015625)"/>
     </g>
    </g>
   </g>
  </g>
  <g id="text_27">
   <!-- Vilar clock, $\alpha_R = 1.1$ (past Hopf bifurcation) — deterministic: convergence -->
   <g transform="translate(126.94 17.08) scale(0.13 -0.13)">
    <defs>
     <path id="DejaVuSerif-Bold-56" d="M 5056 4666 
L 5056 4288 
L 4666 4288 
L 2906 0 
L 2163 0 
L 403 4288 
L -38 4288 
L -38 4666 
L 2150 4666 
L 2150 4288 
L 1697 4288 
L 2956 1197 
L 4225 4288 
L 3669 4288 
L 3669 4666 
L 5056 4666 
z
" transform="scale(0.015625)"/>
     <path id="DejaVuSerif-Bold-69" d="M 588 4263 
Q 588 4516 763 4689 
Q 938 4863 1191 4863 
Q 1438 4863 1611 4689 
Q 1784 4516 1784 4263 
Q 1784 4016 1611 3842 
Q 1438 3669 1191 3669 
Q 938 3669 763 3841 
Q 588 4013 588 4263 
z
M 1797 378 
L 2272 378 
L 2272 0 
L 219 0 
L 219 378 
L 691 378 
L 691 2944 
L 219 2944 
L 219 3322 
L 1797 3322 
L 1797 378 
z
" transform="scale(0.015625)"/>
     <path id="DejaVuSerif-Bold-6c" d="M 1797 378 
L 2272 378 
L 2272 0 
L 219 0 
L 219 378 
L 691 378 
L 691 4488 
L 219 4488 
L 219 4863 
L 1797 4863 
L 1797 378 
z
" transform="scale(0.015625)"/>
     <path id="DejaVuSerif-Bold-61" d="M 3525 2041 
L 3525 378 
L 4000 378 
L 4000 0 
L 2419 0 
L 2419 422 
Q 2200 159 1931 34 
Q 1663 -91 1319 -91 
Q 809 -91 536 182 
Q 263 456 263 966 
Q 263 1525 655 1803 
Q 1047 2081 1838 2081 
L 2419 2081 
L 2419 2278 
Q 2419 2681 2228 2873 
Q 2038 3066 1638 3066 
Q 1306 3066 1126 2930 
Q 947 2794 872 2484 
L 519 2484 
L 519 3200 
Q 816 3306 1134 3359 
Q 1453 3413 1806 3413 
Q 2697 3413 3111 3081 
Q 3525 2750 3525 2041 
z
M 2419 1044 
L 2419 1709 
L 2003 1709 
Q 1694 1709 1528 1540 
Q 1363 1372 1363 1056 
Q 1363 741 1483 584 
Q 1603 428 1850 428 
Q 2106 428 2262 597 
Q 2419 766 2419 1044 
z
" transform="scale(0.015625)"/>
     <path id="DejaVuSerif-Bold-72" d="M 3438 3359 
L 3438 2369 
L 3084 2369 
Q 3066 2634 2941 2764 
Q 2816 2894 2578 2894 
Q 2216 2894 2006 2575 
Q 1797 2256 1797 1691 
L 1797 378 
L 2400 378 
L 2400 0 
L 219 0 
L 219 378 
L 691 378 
L 691 2944 
L 184 2944 
L 184 3322 
L 1797 3322 
L 1797 2731 
Q 1959 3078 2226 3245 
Q 2494 3413 2881 3413 
Q 2978 3413 3117 3398 
Q 3256 3384 3438 3359 
z
" transform="scale(0.015625)"/>
     <path id="DejaVuSerif-Bold-20" transform="scale(0.015625)"/>
     <path id="DejaVuSerif-Bold-63" d="M 3609 1038 
Q 3491 469 3123 189 
Q 2756 -91 2125 -91 
Q 1238 -91 750 368 
Q 263 828 263 1663 
Q 263 2488 744 2950 
Q 1225 3413 2081 3413 
Q 2428 3413 2781 3347 
Q 3134 3281 3500 3150 
L 3500 2228 
L 3150 2228 
Q 3100 2650 2903 2854 
Q 2706 3059 2350 3059 
Q 1888 3059 1692 2746 
Q 1497 2434 1497 1663 
Q 1497 909 1687 586 
Q 1878 263 2309 263 
Q 2644 263 2845 463 
Q 3047 663 3091 1038 
L 3609 1038 
z
" transform="scale(0.015625)"/>
     <path id="DejaVuSerif-Bold-6f" d="M 2138 263 
Q 2488 263 2630 563 
Q 2772 863 2772 1663 
Q 2772 2463 2631 2761 
Q 2491 3059 2138 3059 
Q 1784 3059 1640 2757 
Q 1497 2456 1497 1663 
Q 1497 869 1640 566 
Q 1784 263 2138 263 
z
M 2138 -91 
Q 1259 -91 761 376 
Q 263 844 263 1663 
Q 263 2484 761 2948 
Q 1259 3413 2138 3413 
Q 3019 3413 3516 2948 
Q 4013 2484 4013 1663 
Q 4013 844 3514 376 
Q 3016 -91 2138 -91 
z
" transform="scale(0.015625)"/>
     <path id="DejaVuSerif-Bold-6b" d="M 2216 0 
L 219 0 
L 219 378 
L 691 378 
L 691 4488 
L 219 4488 
L 219 4863 
L 1797 4863 
L 1797 1741 
L 3138 2944 
L 2741 2944 
L 2741 3322 
L 4256 3322 
L 4256 2944 
L 3641 2944 
L 2784 2175 
L 4184 378 
L 4544 378 
L 4544 0 
L 2638 0 
L 2638 378 
L 3028 378 
L 2106 1563 
L 1797 1288 
L 1797 378 
L 2216 378 
L 2216 0 
z
" transform="scale(0.015625)"/>
     <path id="DejaVuSerif-Bold-2c" d="M 84 -616 
Q 409 -353 562 -28 
Q 716 297 716 728 
L 716 997 
L 1606 997 
L 1606 972 
Q 1606 281 1317 -217 
Q 1028 -716 428 -1056 
L 84 -616 
z
" transform="scale(0.015625)"/>
     <path id="Cmmi10-ae" d="M 1288 -72 
Q 984 -72 748 72 
Q 513 216 384 459 
Q 256 703 256 1013 
Q 256 1447 498 1872 
Q 741 2297 1142 2562 
Q 1544 2828 1984 2828 
Q 2309 2828 2556 2658 
Q 2803 2488 2931 2205 
Q 3059 1922 3059 1600 
L 3066 1172 
Q 3284 1475 3436 1801 
Q 3588 2128 3669 2478 
Q 3681 2516 3719 2516 
L 3794 2516 
Q 3853 2516 3853 2456 
Q 3853 2450 3847 2438 
Q 3772 2144 3659 1873 
Q 3547 1603 3395 1350 
Q 3244 1097 3066 891 
Q 3066 97 3250 97 
Q 3369 97 3445 167 
Q 3522 238 3580 341 
Q 3638 444 3653 447 
L 3731 447 
Q 3781 447 3781 384 
Q 3781 225 3598 76 
Q 3416 -72 3238 -72 
Q 3006 -72 2853 78 
Q 2700 228 2644 469 
Q 2344 213 1994 70 
Q 1644 -72 1288 -72 
z
M 1300 97 
Q 1984 97 2613 659 
Q 2609 697 2603 751 
Q 2597 806 2597 813 
L 2597 1503 
Q 2597 2663 1972 2663 
Q 1597 2663 1315 2342 
Q 1034 2022 892 1576 
Q 750 1131 750 763 
Q 750 484 892 290 
Q 1034 97 1300 97 
z
" transform="scale(0.015625)"/>
     <path id="Cmr10-3d" d="M 481 850 
Q 428 850 393 890 
Q 359 931 359 978 
Q 359 1031 393 1068 
Q 428 1106 481 1106 
L 4500 1106 
Q 4547 1106 4581 1068 
Q 4616 1031 4616 978 
Q 4616 931 4581 890 
Q 4547 850 4500 850 
L 481 850 
z
M 481 2094 
Q 428 2094 393 2131 
Q 359 2169 359 2222 
Q 359 2269 393 2309 
Q 428 2350 481 2350 
L 4500 2350 
Q 4547 2350 4581 2309 
Q 4616 2269 4616 2222 
Q 4616 2169 4581 2131 
Q 4547 2094 4500 2094 
L 481 2094 
z
" transform="scale(0.015625)"/>
     <path id="Cmr10-31" d="M 594 0 
L 594 225 
Q 1394 225 1394 428 
L 1394 3788 
Q 1063 3628 556 3628 
L 556 3853 
Q 1341 3853 1741 4263 
L 1831 4263 
Q 1853 4263 1873 4245 
Q 1894 4228 1894 4206 
L 1894 428 
Q 1894 225 2694 225 
L 2694 0 
L 594 0 
z
" transform="scale(0.015625)"/>
     <path id="Cmmi10-3a" d="M 538 353 
Q 538 497 644 600 
Q 750 703 891 703 
Q 978 703 1062 656 
Q 1147 609 1194 525 
Q 1241 441 1241 353 
Q 1241 213 1137 106 
Q 1034 0 891 0 
Q 750 0 644 106 
Q 538 213 538 353 
z
" transform="scale(0.015625)"/>
     <path id="DejaVuSerif-Bold-28" d="M 2694 -997 
Q 1641 -606 1122 122 
Q 603 850 603 1931 
Q 603 3013 1115 3731 
Q 1628 4450 2694 4863 
L 2694 4488 
Q 2200 4188 1983 3598 
Q 1766 3009 1766 1931 
Q 1766 856 1983 267 
Q 2200 -322 2694 -622 
L 2694 -997 
z
" transform="scale(0.015625)"/>
     <path id="DejaVuSerif-Bold-70" d="M 1728 1825 
L 1728 1497 
Q 1728 916 1876 656 
Q 2025 397 2356 397 
Q 2697 397 2836 672 
Q 2975 947 2975 1663 
Q 2975 2378 2836 2651 
Q 2697 2925 2356 2925 
Q 2025 2925 1876 2665 
Q 1728 2406 1728 1825 
z
M 622 2944 
L 147 2944 
L 147 3322 
L 1728 3322 
L 1728 2900 
Q 1869 3159 2106 3286 
Q 2344 3413 2694 3413 
Q 3403 3413 3811 2945 
Q 4219 2478 4219 1663 
Q 4219 847 3811 378 
Q 3403 -91 2694 -91 
Q 2344 -91 2106 36 
Q 1869 163 1728 422 
L 1728 -953 
L 2241 -953 
L 2241 -1331 
L 147 -1331 
L 147 -953 
L 622 -953 
L 622 2944 
z
" transform="scale(0.015625)"/>
     <path id="DejaVuSerif-Bold-73" d="M 300 97 
L 300 1025 
L 653 1025 
Q 697 653 931 458 
Q 1166 263 1569 263 
Q 1906 263 2086 380 
Q 2266 497 2266 716 
Q 2266 916 2152 1025 
Q 2038 1134 1709 1216 
L 1253 1331 
Q 738 1459 506 1698 
Q 275 1938 275 2344 
Q 275 2884 650 3148 
Q 1025 3413 1806 3413 
Q 2100 3413 2433 3364 
Q 2766 3316 3169 3213 
L 3169 2375 
L 2816 2375 
Q 2788 2716 2573 2887 
Q 2359 3059 1959 3059 
Q 1622 3059 1448 2951 
Q 1275 2844 1275 2638 
Q 1275 2469 1375 2372 
Q 1475 2275 1734 2209 
L 2188 2094 
Q 2841 1928 3091 1684 
Q 3341 1441 3341 1006 
Q 3341 444 2939 176 
Q 2538 -91 1691 -91 
Q 1381 -91 1034 -44 
Q 688 3 300 97 
z
" transform="scale(0.015625)"/>
     <path id="DejaVuSerif-Bold-74" d="M 634 2944 
L 153 2944 
L 153 3322 
L 634 3322 
L 634 4353 
L 1741 4353 
L 1741 3322 
L 2663 3322 
L 2663 2944 
L 1741 2944 
L 1741 909 
Q 1741 475 1809 369 
Q 1878 263 2059 263 
Q 2259 263 2356 397 
Q 2453 531 2459 813 
L 2925 813 
Q 2897 313 2651 111 
Q 2406 -91 1806 -91 
Q 1122 -91 878 123 
Q 634 338 634 909 
L 634 2944 
z
" transform="scale(0.015625)"/>
     <path id="DejaVuSerif-Bold-48" d="M 300 0 
L 300 378 
L 897 378 
L 897 4288 
L 300 4288 
L 300 4666 
L 2700 4666 
L 2700 4288 
L 2100 4288 
L 2100 2719 
L 3956 2719 
L 3956 4288 
L 3359 4288 
L 3359 4666 
L 5759 4666 
L 5759 4288 
L 5159 4288 
L 5159 378 
L 5759 378 
L 5759 0 
L 3359 0 
L 3359 378 
L 3956 378 
L 3956 2291 
L 2100 2291 
L 2100 378 
L 2700 378 
L 2700 0 
L 300 0 
z
" transform="scale(0.015625)"/>
     <path id="DejaVuSerif-Bold-66" d="M 3097 4031 
L 2747 4031 
Q 2722 4275 2605 4394 
Q 2488 4513 2272 4513 
Q 2022 4513 1909 4333 
Q 1797 4153 1797 3750 
L 1797 3322 
L 2631 3322 
L 2631 2944 
L 1797 2944 
L 1797 378 
L 2438 378 
L 2438 0 
L 219 0 
L 219 378 
L 691 378 
L 691 2944 
L 197 2944 
L 197 3322 
L 691 3322 
L 691 3738 
Q 691 4291 1044 4577 
Q 1397 4863 2081 4863 
Q 2347 4863 2600 4833 
Q 2853 4803 3097 4744 
L 3097 4031 
z
" transform="scale(0.015625)"/>
     <path id="DejaVuSerif-Bold-62" d="M 622 378 
L 622 4488 
L 147 4488 
L 147 4863 
L 1728 4863 
L 1728 2900 
Q 1869 3159 2106 3286 
Q 2344 3413 2694 3413 
Q 3403 3413 3811 2945 
Q 4219 2478 4219 1663 
Q 4219 847 3811 378 
Q 3403 -91 2694 -91 
Q 2344 -91 2106 36 
Q 1869 163 1728 422 
L 1728 0 
L 147 0 
L 147 378 
L 622 378 
z
M 1728 1497 
Q 1728 916 1876 656 
Q 2025 397 2356 397 
Q 2697 397 2836 672 
Q 2975 947 2975 1663 
Q 2975 2378 2836 2651 
Q 2697 2925 2356 2925 
Q 2025 2925 1876 2665 
Q 1728 2406 1728 1825 
L 1728 1497 
z
" transform="scale(0.015625)"/>
     <path id="DejaVuSerif-Bold-75" d="M 3963 3322 
L 3963 378 
L 4434 378 
L 4434 0 
L 2853 0 
L 2853 469 
Q 2656 172 2400 40 
Q 2144 -91 1753 -91 
Q 1194 -91 908 239 
Q 622 569 622 1209 
L 622 2944 
L 147 2944 
L 147 3322 
L 1728 3322 
L 1728 1381 
Q 1728 763 1831 595 
Q 1934 428 2209 428 
Q 2544 428 2698 675 
Q 2853 922 2853 1459 
L 2853 2944 
L 2450 2944 
L 2450 3322 
L 3963 3322 
z
" transform="scale(0.015625)"/>
     <path id="DejaVuSerif-Bold-6e" d="M 219 0 
L 219 378 
L 691 378 
L 691 2944 
L 219 2944 
L 219 3322 
L 1797 3322 
L 1797 2853 
Q 1997 3150 2253 3281 
Q 2509 3413 2900 3413 
Q 3459 3413 3745 3083 
Q 4031 2753 4031 2113 
L 4031 378 
L 4506 378 
L 4506 0 
L 2522 0 
L 2522 378 
L 2925 378 
L 2925 2144 
Q 2925 2566 2817 2730 
Q 2709 2894 2444 2894 
Q 2109 2894 1953 2648 
Q 1797 2403 1797 1869 
L 1797 378 
L 2203 378 
L 2203 0 
L 219 0 
z
" transform="scale(0.015625)"/>
     <path id="DejaVuSerif-Bold-29" d="M 325 -997 
L 325 -622 
Q 819 -322 1036 267 
Q 1253 856 1253 1931 
Q 1253 3009 1036 3598 
Q 819 4188 325 4488 
L 325 4863 
Q 1391 4450 1905 3731 
Q 2419 3013 2419 1931 
Q 2419 850 1898 122 
Q 1378 -606 325 -997 
z
" transform="scale(0.015625)"/>
     <path id="DejaVuSerif-Bold-2014" d="M 344 2075 
L 6056 2075 
L 6056 1325 
L 344 1325 
L 344 2075 
z
" transform="scale(0.015625)"/>
     <path id="DejaVuSerif-Bold-64" d="M 2747 1497 
L 2747 1825 
Q 2747 2406 2597 2665 
Q 2447 2925 2119 2925 
Q 1775 2925 1636 2651 
Q 1497 2378 1497 1663 
Q 1497 947 1637 672 
Q 1778 397 2119 397 
Q 2447 397 2597 656 
Q 2747 916 2747 1497 
z
M 3853 378 
L 4325 378 
L 4325 0 
L 2747 0 
L 2747 422 
Q 2606 163 2367 36 
Q 2128 -91 1778 -91 
Q 1072 -91 667 378 
Q 263 847 263 1663 
Q 263 2481 667 2947 
Q 1072 3413 1778 3413 
Q 2128 3413 2367 3286 
Q 2606 3159 2747 2900 
L 2747 4488 
L 2272 4488 
L 2272 4863 
L 3853 4863 
L 3853 378 
z
" transform="scale(0.015625)"/>
     <path id="DejaVuSerif-Bold-65" d="M 2566 1875 
Q 2566 2531 2444 2795 
Q 2322 3059 2028 3059 
Q 1744 3059 1620 2800 
Q 1497 2541 1497 1931 
L 1497 1875 
L 2566 1875 
z
M 3781 1503 
L 1497 1503 
L 1497 1478 
Q 1497 834 1690 548 
Q 1884 263 2316 263 
Q 2675 263 2897 453 
Q 3119 644 3181 1006 
L 3700 1006 
Q 3566 441 3166 175 
Q 2766 -91 2047 -91 
Q 1184 -91 723 364 
Q 263 819 263 1663 
Q 263 2488 734 2950 
Q 1206 3413 2047 3413 
Q 2872 3413 3312 2927 
Q 3753 2441 3781 1503 
z
" transform="scale(0.015625)"/>
     <path id="DejaVuSerif-Bold-6d" d="M 3884 2778 
Q 4116 3109 4384 3261 
Q 4653 3413 5013 3413 
Q 5584 3413 5867 3089 
Q 6150 2766 6150 2113 
L 6150 378 
L 6625 378 
L 6625 0 
L 4647 0 
L 4647 378 
L 5044 378 
L 5044 1947 
Q 5044 2569 4948 2731 
Q 4853 2894 4594 2894 
Q 4300 2894 4137 2667 
Q 3975 2441 3975 2022 
L 3975 378 
L 4372 378 
L 4372 0 
L 2472 0 
L 2472 378 
L 2869 378 
L 2869 1947 
Q 2869 2569 2772 2731 
Q 2675 2894 2419 2894 
Q 2122 2894 1959 2667 
Q 1797 2441 1797 2022 
L 1797 378 
L 2194 378 
L 2194 0 
L 219 0 
L 219 378 
L 691 378 
L 691 2944 
L 219 2944 
L 219 3322 
L 1797 3322 
L 1797 2853 
Q 1991 3144 2241 3278 
Q 2491 3413 2834 3413 
Q 3241 3413 3494 3258 
Q 3747 3103 3884 2778 
z
" transform="scale(0.015625)"/>
     <path id="DejaVuSerif-Bold-3a" d="M 588 2541 
Q 588 2788 761 2963 
Q 934 3138 1178 3138 
Q 1422 3138 1597 2961 
Q 1772 2784 1772 2541 
Q 1772 2297 1598 2125 
Q 1425 1953 1178 1953 
Q 931 1953 759 2125 
Q 588 2297 588 2541 
z
M 588 506 
Q 588 750 761 925 
Q 934 1100 1178 1100 
Q 1422 1100 1597 925 
Q 1772 750 1772 506 
Q 1772 259 1597 84 
Q 1422 -91 1178 -91 
Q 934 -91 761 84 
Q 588 259 588 506 
z
" transform="scale(0.015625)"/>
     <path id="DejaVuSerif-Bold-76" d="M 1428 0 
L 250 2944 
L -116 2944 
L -116 3322 
L 1791 3322 
L 1791 2944 
L 1388 2944 
L 2228 844 
L 3066 2944 
L 2631 2944 
L 2631 3322 
L 3878 3322 
L 3878 2944 
L 3494 2944 
L 2316 0 
L 1428 0 
z
" transform="scale(0.015625)"/>
     <path id="DejaVuSerif-Bold-67" d="M 3853 2944 
L 3853 44 
Q 3853 -656 3354 -1039 
Q 2856 -1422 1947 -1422 
Q 1616 -1422 1275 -1370 
Q 934 -1319 575 -1216 
L 575 -422 
L 928 -422 
Q 975 -750 1192 -909 
Q 1409 -1069 1813 -1069 
Q 2325 -1069 2536 -823 
Q 2747 -578 2747 44 
L 2747 422 
Q 2606 163 2367 36 
Q 2128 -91 1778 -91 
Q 1072 -91 667 378 
Q 263 847 263 1663 
Q 263 2481 667 2947 
Q 1072 3413 1778 3413 
Q 2128 3413 2367 3286 
Q 2606 3159 2747 2900 
L 2747 3322 
L 4325 3322 
L 4325 2944 
L 3853 2944 
z
M 2747 1825 
Q 2747 2406 2597 2665 
Q 2447 2925 2119 2925 
Q 1775 2925 1636 2651 
Q 1497 2378 1497 1663 
Q 1497 947 1637 672 
Q 1778 397 2119 397 
Q 2447 397 2597 656 
Q 2747 916 2747 1497 
L 2747 1825 
z
" transform="scale(0.015625)"/>
    </defs>
    <use xlink:href="#DejaVuSerif-Bold-56" transform="translate(0 0.015625)"/>
    <use xlink:href="#DejaVuSerif-Bold-69" transform="translate(77.587891 0.015625)"/>
    <use xlink:href="#DejaVuSerif-Bold-6c" transform="translate(115.576172 0.015625)"/>
    <use xlink:href="#DejaVuSerif-Bold-61" transform="translate(153.564453 0.015625)"/>
    <use xlink:href="#DejaVuSerif-Bold-72" transform="translate(218.359375 0.015625)"/>
    <use xlink:href="#DejaVuSerif-Bold-20" transform="translate(271.044922 0.015625)"/>
    <use xlink:href="#DejaVuSerif-Bold-63" transform="translate(305.859375 0.015625)"/>
    <use xlink:href="#DejaVuSerif-Bold-6c" transform="translate(366.748047 0.015625)"/>
    <use xlink:href="#DejaVuSerif-Bold-6f" transform="translate(404.736328 0.015625)"/>
    <use xlink:href="#DejaVuSerif-Bold-63" transform="translate(471.435547 0.015625)"/>
    <use xlink:href="#DejaVuSerif-Bold-6b" transform="translate(532.324219 0.015625)"/>
    <use xlink:href="#DejaVuSerif-Bold-2c" transform="translate(601.611328 0.015625)"/>
    <use xlink:href="#DejaVuSerif-Bold-20" transform="translate(636.425781 0.015625)"/>
    <use xlink:href="#Cmmi10-ae" transform="translate(671.240234 0.015625)"/>
    <use xlink:href="#Cmmi10-52" transform="translate(735.15625 -16.990625) scale(0.7)"/>
    <use xlink:href="#Cmr10-3d" transform="translate(812.207422 0.015625)"/>
    <use xlink:href="#Cmr10-31" transform="translate(907.451563 0.015625)"/>
    <use xlink:href="#Cmmi10-3a" transform="translate(957.451563 0.015625)"/>
    <use xlink:href="#Cmr10-31" transform="translate(985.137109 0.015625)"/>
    <use xlink:href="#DejaVuSerif-Bold-20" transform="translate(1035.137109 0.015625)"/>
    <use xlink:href="#DejaVuSerif-Bold-28" transform="translate(1069.951562 0.015625)"/>
    <use xlink:href="#DejaVuSerif-Bold-70" transform="translate(1117.266016 0.015625)"/>
    <use xlink:href="#DejaVuSerif-Bold-61" transform="translate(1187.187891 0.015625)"/>
    <use xlink:href="#DejaVuSerif-Bold-73" transform="translate(1251.982812 0.015625)"/>
    <use xlink:href="#DejaVuSerif-Bold-74" transform="translate(1308.281641 0.015625)"/>
    <use xlink:href="#DejaVuSerif-Bold-20" transform="translate(1354.473047 0.015625)"/>
    <use xlink:href="#DejaVuSerif-Bold-48" transform="translate(1389.2875 0.015625)"/>
    <use xlink:href="#DejaVuSerif-Bold-6f" transform="translate(1483.769922 0.015625)"/>
    <use xlink:href="#DejaVuSerif-Bold-70" transform="translate(1550.469141 0.015625)"/>
    <use xlink:href="#DejaVuSerif-Bold-66" transform="translate(1620.391016 0.015625)"/>
    <use xlink:href="#DejaVuSerif-Bold-20" transform="translate(1663.408594 0.015625)"/>
    <use xlink:href="#DejaVuSerif-Bold-62" transform="translate(1698.223047 0.015625)"/>
    <use xlink:href="#DejaVuSerif-Bold-69" transform="translate(1768.144922 0.015625)"/>
    <use xlink:href="#DejaVuSerif-Bold-66" transform="translate(1806.133203 0.015625)"/>
    <use xlink:href="#DejaVuSerif-Bold-75" transform="translate(1849.150781 0.015625)"/>
    <use xlink:href="#DejaVuSerif-Bold-72" transform="translate(1921.855859 0.015625)"/>
    <use xlink:href="#DejaVuSerif-Bold-63" transform="translate(1974.541406 0.015625)"/>
    <use xlink:href="#DejaVuSerif-Bold-61" transform="translate(2035.430078 0.015625)"/>
    <use xlink:href="#DejaVuSerif-Bold-74" transform="translate(2100.225 0.015625)"/>
    <use xlink:href="#DejaVuSerif-Bold-69" transform="translate(2146.416406 0.015625)"/>
    <use xlink:href="#DejaVuSerif-Bold-6f" transform="translate(2184.404687 0.015625)"/>
    <use xlink:href="#DejaVuSerif-Bold-6e" transform="translate(2251.103906 0.015625)"/>
    <use xlink:href="#DejaVuSerif-Bold-29" transform="translate(2323.808984 0.015625)"/>
    <use xlink:href="#DejaVuSerif-Bold-20" transform="translate(2371.123437 0.015625)"/>
    <use xlink:href="#DejaVuSerif-Bold-2014" transform="translate(2405.937891 0.015625)"/>
    <use xlink:href="#DejaVuSerif-Bold-20" transform="translate(2505.937891 0.015625)"/>
    <use xlink:href="#DejaVuSerif-Bold-64" transform="translate(2540.752344 0.015625)"/>
    <use xlink:href="#DejaVuSerif-Bold-65" transform="translate(2610.674219 0.015625)"/>
    <use xlink:href="#DejaVuSerif-Bold-74" transform="translate(2674.297266 0.015625)"/>
    <use xlink:href="#DejaVuSerif-Bold-65" transform="translate(2720.488672 0.015625)"/>
    <use xlink:href="#DejaVuSerif-Bold-72" transform="translate(2784.111719 0.015625)"/>
    <use xlink:href="#DejaVuSerif-Bold-6d" transform="translate(2836.797266 0.015625)"/>
    <use xlink:href="#DejaVuSerif-Bold-69" transform="translate(2942.607812 0.015625)"/>
    <use xlink:href="#DejaVuSerif-Bold-6e" transform="translate(2980.596094 0.015625)"/>
    <use xlink:href="#DejaVuSerif-Bold-69" transform="translate(3053.301172 0.015625)"/>
    <use xlink:href="#DejaVuSerif-Bold-73" transform="translate(3091.289453 0.015625)"/>
    <use xlink:href="#DejaVuSerif-Bold-74" transform="translate(3147.588281 0.015625)"/>
    <use xlink:href="#DejaVuSerif-Bold-69" transform="translate(3193.779687 0.015625)"/>
    <use xlink:href="#DejaVuSerif-Bold-63" transform="translate(3231.767969 0.015625)"/>
    <use xlink:href="#DejaVuSerif-Bold-3a" transform="translate(3292.656641 0.015625)"/>
    <use xlink:href="#DejaVuSerif-Bold-20" transform="translate(3329.570703 0.015625)"/>
    <use xlink:href="#DejaVuSerif-Bold-63" transform="translate(3364.385156 0.015625)"/>
    <use xlink:href="#DejaVuSerif-Bold-6f" transform="translate(3425.273828 0.015625)"/>
    <use xlink:href="#DejaVuSerif-Bold-6e" transform="translate(3491.973047 0.015625)"/>
    <use xlink:href="#DejaVuSerif-Bold-76" transform="translate(3564.678125 0.015625)"/>
    <use xlink:href="#DejaVuSerif-Bold-65" transform="translate(3622.783594 0.015625)"/>
    <use xlink:href="#DejaVuSerif-Bold-72" transform="translate(3686.406641 0.015625)"/>
    <use xlink:href="#DejaVuSerif-Bold-67" transform="translate(3739.092187 0.015625)"/>
    <use xlink:href="#DejaVuSerif-Bold-65" transform="translate(3809.014062 0.015625)"/>
    <use xlink:href="#DejaVuSerif-Bold-6e" transform="translate(3872.637109 0.015625)"/>
    <use xlink:href="#DejaVuSerif-Bold-63" transform="translate(3945.342187 0.015625)"/>
    <use xlink:href="#DejaVuSerif-Bold-65" transform="translate(4006.230859 0.015625)"/>
   </g>
  </g>
 </g>
 <defs>
  <clipPath id="p15a2ffa9fc">
   <rect x="66.77" y="50.4" width="696.96" height="158.943396"/>
  </clipPath>
  <clipPath id="p0c30833d98">
   <rect x="66.77" y="228.416604" width="696.96" height="158.943396"/>
  </clipPath>
 </defs>
</svg>
