<?xml version="1.0" encoding="utf-8" standalone="no"?>
<!DOCTYPE svg PUBLIC "-//W3C//DTD SVG 1.1//EN"
  "http://www.w3.org/Graphics/SVG/1.1/DTD/svg11.dtd">
<svg xmlns:xlink="http://www.w3.org/1999/xlink" width="495.570625pt" height="457.403312pt" viewBox="0 0 495.570625 457.403312" xmlns="http://www.w3.org/2000/svg" version="1.1">
 <metadata>
  <rdf:RDF xmlns:dc="http://purl.org/dc/elements/1.1/" xmlns:cc="http://creativecommons.org/ns#" xmlns:rdf="http://www.w3.org/1999/02/22-rdf-syntax-ns#">
   <cc:Work>
    <dc:type rdf:resource="http://purl.org/dc/dcmitype/StillImage"/>
    <dc:date>2026-06-03T17:23:51.494040</dc:date>
    <dc:format>image/svg+xml</dc:format>
    <dc:creator>
     <cc:Agent>
      <dc:title>Matplotlib v3.10.8, https://matplotlib.org/</dc:title>
     </cc:Agent>
    </dc:creator>
   </cc:Work>
  </rdf:RDF>
 </metadata>
 <defs>
  <style type="text/css">*{stroke-linejoin: round; stroke-linecap: butt}</style>
 </defs>
 <g id="figure_1">
  <g id="patch_1">
   <path d="M 0 457.403312 
L 495.570625 457.403312 
L 495.570625 0 
L 0 0 
z
" style="fill: #ffffff"/>
  </g>
  <g id="axes_1">
   <g id="patch_2">
    <path d="M 56.655625 225.222698 
L 480.735625 225.222698 
L 480.735625 60.192 
L 56.655625 60.192 
z
" style="fill: #ffffff"/>
   </g>
   <g id="matplotlib.axis_1">
    <g id="xtick_1">
     <g id="line2d_1">
      <path d="M 56.655625 225.222698 
L 56.655625 60.192 
" clip-path="url(#p22f4907961)" style="fill: none; stroke-dasharray: 0.8,1.32; stroke-dashoffset: 0; stroke: #b0b0b0; stroke-opacity: 0.5; stroke-width: 0.8"/>
     </g>
     <g id="line2d_2">
      <defs>
       <path id="m6fd8589340" d="M 0 0 
L 0 3.5 
" style="stroke: #000000; stroke-width: 0.8"/>
      </defs>
      <g>
       <use xlink:href="#m6fd8589340" x="56.655625" y="225.222698" style="stroke: #000000; stroke-width: 0.8"/>
      </g>
     </g>
    </g>
    <g id="xtick_2">
     <g id="line2d_3">
      <path d="M 141.471625 225.222698 
L 141.471625 60.192 
" clip-path="url(#p22f4907961)" style="fill: none; stroke-dasharray: 0.8,1.32; stroke-dashoffset: 0; stroke: #b0b0b0; stroke-opacity: 0.5; stroke-width: 0.8"/>
     </g>
     <g id="line2d_4">
      <g>
       <use xlink:href="#m6fd8589340" x="141.471625" y="225.222698" style="stroke: #000000; stroke-width: 0.8"/>
      </g>
     </g>
    </g>
    <g id="xtick_3">
     <g id="line2d_5">
      <path d="M 226.287625 225.222698 
L 226.287625 60.192 
" clip-path="url(#p22f4907961)" style="fill: none; stroke-dasharray: 0.8,1.32; stroke-dashoffset: 0; stroke: #b0b0b0; stroke-opacity: 0.5; stroke-width: 0.8"/>
     </g>
     <g id="line2d_6">
      <g>
       <use xlink:href="#m6fd8589340" x="226.287625" y="225.222698" style="stroke: #000000; stroke-width: 0.8"/>
      </g>
     </g>
    </g>
    <g id="xtick_4">
     <g id="line2d_7">
      <path d="M 311.103625 225.222698 
L 311.103625 60.192 
" clip-path="url(#p22f4907961)" style="fill: none; stroke-dasharray: 0.8,1.32; stroke-dashoffset: 0; stroke: #b0b0b0; stroke-opacity: 0.5; stroke-width: 0.8"/>
     </g>
     <g id="line2d_8">
      <g>
       <use xlink:href="#m6fd8589340" x="311.103625" y="225.222698" style="stroke: #000000; stroke-width: 0.8"/>
      </g>
     </g>
    </g>
    <g id="xtick_5">
     <g id="line2d_9">
      <path d="M 395.919625 225.222698 
L 395.919625 60.192 
" clip-path="url(#p22f4907961)" style="fill: none; stroke-dasharray: 0.8,1.32; stroke-dashoffset: 0; stroke: #b0b0b0; stroke-opacity: 0.5; stroke-width: 0.8"/>
     </g>
     <g id="line2d_10">
      <g>
       <use xlink:href="#m6fd8589340" x="395.919625" y="225.222698" style="stroke: #000000; stroke-width: 0.8"/>
      </g>
     </g>
    </g>
    <g id="xtick_6">
     <g id="line2d_11">
      <path d="M 480.735625 225.222698 
L 480.735625 60.192 
" clip-path="url(#p22f4907961)" style="fill: none; stroke-dasharray: 0.8,1.32; stroke-dashoffset: 0; stroke: #b0b0b0; stroke-opacity: 0.5; stroke-width: 0.8"/>
     </g>
     <g id="line2d_12">
      <g>
       <use xlink:href="#m6fd8589340" x="480.735625" y="225.222698" style="stroke: #000000; stroke-width: 0.8"/>
      </g>
     </g>
    </g>
   </g>
   <g id="matplotlib.axis_2">
    <g id="ytick_1">
     <g id="line2d_13">
      <path d="M 56.655625 214.047036 
L 480.735625 214.047036 
" clip-path="url(#p22f4907961)" style="fill: none; stroke-dasharray: 0.8,1.32; stroke-dashoffset: 0; stroke: #b0b0b0; stroke-opacity: 0.5; stroke-width: 0.8"/>
     </g>
     <g id="line2d_14">
      <defs>
       <path id="mafc66c8b28" d="M 0 0 
L -3.5 0 
" style="stroke: #000000; stroke-width: 0.8"/>
      </defs>
      <g>
       <use xlink:href="#mafc66c8b28" x="56.655625" y="214.047036" style="stroke: #000000; stroke-width: 0.8"/>
      </g>
     </g>
     <g id="text_1">
      <!-- 0.0 -->
      <g transform="translate(30.571875 218.606098) scale(0.12 -0.12)">
       <defs>
        <path id="DejaVuSans-30" d="M 2034 4250 
Q 1547 4250 1301 3770 
Q 1056 3291 1056 2328 
Q 1056 1369 1301 889 
Q 1547 409 2034 409 
Q 2525 409 2770 889 
Q 3016 1369 3016 2328 
Q 3016 3291 2770 3770 
Q 2525 4250 2034 4250 
z
M 2034 4750 
Q 2819 4750 3233 4129 
Q 3647 3509 3647 2328 
Q 3647 1150 3233 529 
Q 2819 -91 2034 -91 
Q 1250 -91 836 529 
Q 422 1150 422 2328 
Q 422 3509 836 4129 
Q 1250 4750 2034 4750 
z
" transform="scale(0.015625)"/>
        <path id="DejaVuSans-2e" d="M 684 794 
L 1344 794 
L 1344 0 
L 684 0 
L 684 794 
z
" transform="scale(0.015625)"/>
       </defs>
       <use xlink:href="#DejaVuSans-30"/>
       <use xlink:href="#DejaVuSans-2e" transform="translate(63.623047 0)"/>
       <use xlink:href="#DejaVuSans-30" transform="translate(95.410156 0)"/>
      </g>
     </g>
    </g>
    <g id="ytick_2">
     <g id="line2d_15">
      <path d="M 56.655625 184.776308 
L 480.735625 184.776308 
" clip-path="url(#p22f4907961)" style="fill: none; stroke-dasharray: 0.8,1.32; stroke-dashoffset: 0; stroke: #b0b0b0; stroke-opacity: 0.5; stroke-width: 0.8"/>
     </g>
     <g id="line2d_16">
      <g>
       <use xlink:href="#mafc66c8b28" x="56.655625" y="184.776308" style="stroke: #000000; stroke-width: 0.8"/>
      </g>
     </g>
     <g id="text_2">
      <!-- 0.2 -->
      <g transform="translate(30.571875 189.33537) scale(0.12 -0.12)">
       <defs>
        <path id="DejaVuSans-32" d="M 1228 531 
L 3431 531 
L 3431 0 
L 469 0 
L 469 531 
Q 828 903 1448 1529 
Q 2069 2156 2228 2338 
Q 2531 2678 2651 2914 
Q 2772 3150 2772 3378 
Q 2772 3750 2511 3984 
Q 2250 4219 1831 4219 
Q 1534 4219 1204 4116 
Q 875 4013 500 3803 
L 500 4441 
Q 881 4594 1212 4672 
Q 1544 4750 1819 4750 
Q 2544 4750 2975 4387 
Q 3406 4025 3406 3419 
Q 3406 3131 3298 2873 
Q 3191 2616 2906 2266 
Q 2828 2175 2409 1742 
Q 1991 1309 1228 531 
z
" transform="scale(0.015625)"/>
       </defs>
       <use xlink:href="#DejaVuSans-30"/>
       <use xlink:href="#DejaVuSans-2e" transform="translate(63.623047 0)"/>
       <use xlink:href="#DejaVuSans-32" transform="translate(95.410156 0)"/>
      </g>
     </g>
    </g>
    <g id="ytick_3">
     <g id="line2d_17">
      <path d="M 56.655625 155.505579 
L 480.735625 155.505579 
" clip-path="url(#p22f4907961)" style="fill: none; stroke-dasharray: 0.8,1.32; stroke-dashoffset: 0; stroke: #b0b0b0; stroke-opacity: 0.5; stroke-width: 0.8"/>
     </g>
     <g id="line2d_18">
      <g>
       <use xlink:href="#mafc66c8b28" x="56.655625" y="155.505579" style="stroke: #000000; stroke-width: 0.8"/>
      </g>
     </g>
     <g id="text_3">
      <!-- 0.4 -->
      <g transform="translate(30.571875 160.064642) scale(0.12 -0.12)">
       <defs>
        <path id="DejaVuSans-34" d="M 2419 4116 
L 825 1625 
L 2419 1625 
L 2419 4116 
z
M 2253 4666 
L 3047 4666 
L 3047 1625 
L 3713 1625 
L 3713 1100 
L 3047 1100 
L 3047 0 
L 2419 0 
L 2419 1100 
L 313 1100 
L 313 1709 
L 2253 4666 
z
" transform="scale(0.015625)"/>
       </defs>
       <use xlink:href="#DejaVuSans-30"/>
       <use xlink:href="#DejaVuSans-2e" transform="translate(63.623047 0)"/>
       <use xlink:href="#DejaVuSans-34" transform="translate(95.410156 0)"/>
      </g>
     </g>
    </g>
    <g id="ytick_4">
     <g id="line2d_19">
      <path d="M 56.655625 126.234851 
L 480.735625 126.234851 
" clip-path="url(#p22f4907961)" style="fill: none; stroke-dasharray: 0.8,1.32; stroke-dashoffset: 0; stroke: #b0b0b0; stroke-opacity: 0.5; stroke-width: 0.8"/>
     </g>
     <g id="line2d_20">
      <g>
       <use xlink:href="#mafc66c8b28" x="56.655625" y="126.234851" style="stroke: #000000; stroke-width: 0.8"/>
      </g>
     </g>
     <g id="text_4">
      <!-- 0.6 -->
      <g transform="translate(30.571875 130.793914) scale(0.12 -0.12)">
       <defs>
        <path id="DejaVuSans-36" d="M 2113 2584 
Q 1688 2584 1439 2293 
Q 1191 2003 1191 1497 
Q 1191 994 1439 701 
Q 1688 409 2113 409 
Q 2538 409 2786 701 
Q 3034 994 3034 1497 
Q 3034 2003 2786 2293 
Q 2538 2584 2113 2584 
z
M 3366 4563 
L 3366 3988 
Q 3128 4100 2886 4159 
Q 2644 4219 2406 4219 
Q 1781 4219 1451 3797 
Q 1122 3375 1075 2522 
Q 1259 2794 1537 2939 
Q 1816 3084 2150 3084 
Q 2853 3084 3261 2657 
Q 3669 2231 3669 1497 
Q 3669 778 3244 343 
Q 2819 -91 2113 -91 
Q 1303 -91 875 529 
Q 447 1150 447 2328 
Q 447 3434 972 4092 
Q 1497 4750 2381 4750 
Q 2619 4750 2861 4703 
Q 3103 4656 3366 4563 
z
" transform="scale(0.015625)"/>
       </defs>
       <use xlink:href="#DejaVuSans-30"/>
       <use xlink:href="#DejaVuSans-2e" transform="translate(63.623047 0)"/>
       <use xlink:href="#DejaVuSans-36" transform="translate(95.410156 0)"/>
      </g>
     </g>
    </g>
    <g id="ytick_5">
     <g id="line2d_21">
      <path d="M 56.655625 96.964123 
L 480.735625 96.964123 
" clip-path="url(#p22f4907961)" style="fill: none; stroke-dasharray: 0.8,1.32; stroke-dashoffset: 0; stroke: #b0b0b0; stroke-opacity: 0.5; stroke-width: 0.8"/>
     </g>
     <g id="line2d_22">
      <g>
       <use xlink:href="#mafc66c8b28" x="56.655625" y="96.964123" style="stroke: #000000; stroke-width: 0.8"/>
      </g>
     </g>
     <g id="text_5">
      <!-- 0.8 -->
      <g transform="translate(30.571875 101.523186) scale(0.12 -0.12)">
       <defs>
        <path id="DejaVuSans-38" d="M 2034 2216 
Q 1584 2216 1326 1975 
Q 1069 1734 1069 1313 
Q 1069 891 1326 650 
Q 1584 409 2034 409 
Q 2484 409 2743 651 
Q 3003 894 3003 1313 
Q 3003 1734 2745 1975 
Q 2488 2216 2034 2216 
z
M 1403 2484 
Q 997 2584 770 2862 
Q 544 3141 544 3541 
Q 544 4100 942 4425 
Q 1341 4750 2034 4750 
Q 2731 4750 3128 4425 
Q 3525 4100 3525 3541 
Q 3525 3141 3298 2862 
Q 3072 2584 2669 2484 
Q 3125 2378 3379 2068 
Q 3634 1759 3634 1313 
Q 3634 634 3220 271 
Q 2806 -91 2034 -91 
Q 1263 -91 848 271 
Q 434 634 434 1313 
Q 434 1759 690 2068 
Q 947 2378 1403 2484 
z
M 1172 3481 
Q 1172 3119 1398 2916 
Q 1625 2713 2034 2713 
Q 2441 2713 2670 2916 
Q 2900 3119 2900 3481 
Q 2900 3844 2670 4047 
Q 2441 4250 2034 4250 
Q 1625 4250 1398 4047 
Q 1172 3844 1172 3481 
z
" transform="scale(0.015625)"/>
       </defs>
       <use xlink:href="#DejaVuSans-30"/>
       <use xlink:href="#DejaVuSans-2e" transform="translate(63.623047 0)"/>
       <use xlink:href="#DejaVuSans-38" transform="translate(95.410156 0)"/>
      </g>
     </g>
    </g>
    <g id="ytick_6">
     <g id="line2d_23">
      <path d="M 56.655625 67.693395 
L 480.735625 67.693395 
" clip-path="url(#p22f4907961)" style="fill: none; stroke-dasharray: 0.8,1.32; stroke-dashoffset: 0; stroke: #b0b0b0; stroke-opacity: 0.5; stroke-width: 0.8"/>
     </g>
     <g id="line2d_24">
      <g>
       <use xlink:href="#mafc66c8b28" x="56.655625" y="67.693395" style="stroke: #000000; stroke-width: 0.8"/>
      </g>
     </g>
     <g id="text_6">
      <!-- 1.0 -->
      <g transform="translate(30.571875 72.252458) scale(0.12 -0.12)">
       <defs>
        <path id="DejaVuSans-31" d="M 794 531 
L 1825 531 
L 1825 4091 
L 703 3866 
L 703 4441 
L 1819 4666 
L 2450 4666 
L 2450 531 
L 3481 531 
L 3481 0 
L 794 0 
L 794 531 
z
" transform="scale(0.015625)"/>
       </defs>
       <use xlink:href="#DejaVuSans-31"/>
       <use xlink:href="#DejaVuSans-2e" transform="translate(63.623047 0)"/>
       <use xlink:href="#DejaVuSans-30" transform="translate(95.410156 0)"/>
      </g>
     </g>
    </g>
    <g id="text_7">
     <!-- position  $x_1(t)$ -->
     <g transform="translate(23.321875 186.387349) rotate(-90) scale(0.13 -0.13)">
      <defs>
       <path id="DejaVuSans-70" d="M 1159 525 
L 1159 -1331 
L 581 -1331 
L 581 3500 
L 1159 3500 
L 1159 2969 
Q 1341 3281 1617 3432 
Q 1894 3584 2278 3584 
Q 2916 3584 3314 3078 
Q 3713 2572 3713 1747 
Q 3713 922 3314 415 
Q 2916 -91 2278 -91 
Q 1894 -91 1617 61 
Q 1341 213 1159 525 
z
M 3116 1747 
Q 3116 2381 2855 2742 
Q 2594 3103 2138 3103 
Q 1681 3103 1420 2742 
Q 1159 2381 1159 1747 
Q 1159 1113 1420 752 
Q 1681 391 2138 391 
Q 2594 391 2855 752 
Q 3116 1113 3116 1747 
z
" transform="scale(0.015625)"/>
       <path id="DejaVuSans-6f" d="M 1959 3097 
Q 1497 3097 1228 2736 
Q 959 2375 959 1747 
Q 959 1119 1226 758 
Q 1494 397 1959 397 
Q 2419 397 2687 759 
Q 2956 1122 2956 1747 
Q 2956 2369 2687 2733 
Q 2419 3097 1959 3097 
z
M 1959 3584 
Q 2709 3584 3137 3096 
Q 3566 2609 3566 1747 
Q 3566 888 3137 398 
Q 2709 -91 1959 -91 
Q 1206 -91 779 398 
Q 353 888 353 1747 
Q 353 2609 779 3096 
Q 1206 3584 1959 3584 
z
" transform="scale(0.015625)"/>
       <path id="DejaVuSans-73" d="M 2834 3397 
L 2834 2853 
Q 2591 2978 2328 3040 
Q 2066 3103 1784 3103 
Q 1356 3103 1142 2972 
Q 928 2841 928 2578 
Q 928 2378 1081 2264 
Q 1234 2150 1697 2047 
L 1894 2003 
Q 2506 1872 2764 1633 
Q 3022 1394 3022 966 
Q 3022 478 2636 193 
Q 2250 -91 1575 -91 
Q 1294 -91 989 -36 
Q 684 19 347 128 
L 347 722 
Q 666 556 975 473 
Q 1284 391 1588 391 
Q 1994 391 2212 530 
Q 2431 669 2431 922 
Q 2431 1156 2273 1281 
Q 2116 1406 1581 1522 
L 1381 1569 
Q 847 1681 609 1914 
Q 372 2147 372 2553 
Q 372 3047 722 3315 
Q 1072 3584 1716 3584 
Q 2034 3584 2315 3537 
Q 2597 3491 2834 3397 
z
" transform="scale(0.015625)"/>
       <path id="DejaVuSans-69" d="M 603 3500 
L 1178 3500 
L 1178 0 
L 603 0 
L 603 3500 
z
M 603 4863 
L 1178 4863 
L 1178 4134 
L 603 4134 
L 603 4863 
z
" transform="scale(0.015625)"/>
       <path id="DejaVuSans-74" d="M 1172 4494 
L 1172 3500 
L 2356 3500 
L 2356 3053 
L 1172 3053 
L 1172 1153 
Q 1172 725 1289 603 
Q 1406 481 1766 481 
L 2356 481 
L 2356 0 
L 1766 0 
Q 1100 0 847 248 
Q 594 497 594 1153 
L 594 3053 
L 172 3053 
L 172 3500 
L 594 3500 
L 594 4494 
L 1172 4494 
z
" transform="scale(0.015625)"/>
       <path id="DejaVuSans-6e" d="M 3513 2113 
L 3513 0 
L 2938 0 
L 2938 2094 
Q 2938 2591 2744 2837 
Q 2550 3084 2163 3084 
Q 1697 3084 1428 2787 
Q 1159 2491 1159 1978 
L 1159 0 
L 581 0 
L 581 3500 
L 1159 3500 
L 1159 2956 
Q 1366 3272 1645 3428 
Q 1925 3584 2291 3584 
Q 2894 3584 3203 3211 
Q 3513 2838 3513 2113 
z
" transform="scale(0.015625)"/>
       <path id="DejaVuSans-20" transform="scale(0.015625)"/>
       <path id="Cmmi10-78" d="M 500 184 
Q 613 97 819 97 
Q 1019 97 1172 289 
Q 1325 481 1381 709 
L 1672 1844 
Q 1741 2153 1741 2266 
Q 1741 2425 1652 2544 
Q 1563 2663 1403 2663 
Q 1200 2663 1022 2536 
Q 844 2409 722 2214 
Q 600 2019 550 1819 
Q 538 1778 500 1778 
L 422 1778 
Q 372 1778 372 1838 
L 372 1856 
Q 434 2094 584 2320 
Q 734 2547 951 2687 
Q 1169 2828 1416 2828 
Q 1650 2828 1839 2703 
Q 2028 2578 2106 2363 
Q 2216 2559 2386 2693 
Q 2556 2828 2759 2828 
Q 2897 2828 3040 2779 
Q 3184 2731 3275 2631 
Q 3366 2531 3366 2381 
Q 3366 2219 3261 2101 
Q 3156 1984 2994 1984 
Q 2891 1984 2822 2050 
Q 2753 2116 2753 2216 
Q 2753 2350 2845 2451 
Q 2938 2553 3066 2572 
Q 2950 2663 2747 2663 
Q 2541 2663 2389 2472 
Q 2238 2281 2175 2047 
L 1894 916 
Q 1825 659 1825 494 
Q 1825 331 1917 214 
Q 2009 97 2163 97 
Q 2463 97 2698 361 
Q 2934 625 3009 941 
Q 3022 978 3059 978 
L 3138 978 
Q 3163 978 3178 961 
Q 3194 944 3194 922 
Q 3194 916 3188 903 
Q 3097 522 2806 225 
Q 2516 -72 2150 -72 
Q 1916 -72 1727 54 
Q 1538 181 1459 397 
Q 1359 209 1182 68 
Q 1006 -72 806 -72 
Q 669 -72 523 -23 
Q 378 25 287 125 
Q 197 225 197 378 
Q 197 528 301 651 
Q 406 775 563 775 
Q 669 775 741 711 
Q 813 647 813 544 
Q 813 409 723 309 
Q 634 209 500 184 
z
" transform="scale(0.015625)"/>
       <path id="Cmr10-31" d="M 594 0 
L 594 225 
Q 1394 225 1394 428 
L 1394 3788 
Q 1063 3628 556 3628 
L 556 3853 
Q 1341 3853 1741 4263 
L 1831 4263 
Q 1853 4263 1873 4245 
Q 1894 4228 1894 4206 
L 1894 428 
Q 1894 225 2694 225 
L 2694 0 
L 594 0 
z
" transform="scale(0.015625)"/>
       <path id="Cmr10-28" d="M 1984 -1588 
Q 1628 -1306 1370 -942 
Q 1113 -578 948 -165 
Q 784 247 703 697 
Q 622 1147 622 1600 
Q 622 2059 703 2509 
Q 784 2959 951 3375 
Q 1119 3791 1378 4153 
Q 1638 4516 1984 4788 
Q 1984 4800 2016 4800 
L 2075 4800 
Q 2094 4800 2109 4783 
Q 2125 4766 2125 4744 
Q 2125 4716 2113 4703 
Q 1800 4397 1592 4047 
Q 1384 3697 1257 3301 
Q 1131 2906 1075 2482 
Q 1019 2059 1019 1600 
Q 1019 -434 2106 -1491 
Q 2125 -1509 2125 -1544 
Q 2125 -1559 2108 -1579 
Q 2091 -1600 2075 -1600 
L 2016 -1600 
Q 1984 -1600 1984 -1588 
z
" transform="scale(0.015625)"/>
       <path id="Cmmi10-74" d="M 397 519 
Q 397 613 416 697 
L 878 2534 
L 206 2534 
Q 141 2534 141 2619 
Q 166 2759 225 2759 
L 934 2759 
L 1191 3803 
Q 1216 3888 1291 3947 
Q 1366 4006 1459 4006 
Q 1541 4006 1595 3957 
Q 1650 3909 1650 3828 
Q 1650 3809 1648 3798 
Q 1647 3788 1644 3775 
L 1388 2759 
L 2047 2759 
Q 2113 2759 2113 2675 
Q 2109 2659 2100 2621 
Q 2091 2584 2075 2559 
Q 2059 2534 2028 2534 
L 1331 2534 
L 872 684 
Q 825 503 825 372 
Q 825 97 1013 97 
Q 1294 97 1511 361 
Q 1728 625 1844 941 
Q 1869 978 1894 978 
L 1972 978 
Q 1997 978 2012 961 
Q 2028 944 2028 922 
Q 2028 909 2022 903 
Q 1881 516 1612 222 
Q 1344 -72 997 -72 
Q 744 -72 570 93 
Q 397 259 397 519 
z
" transform="scale(0.015625)"/>
       <path id="Cmr10-29" d="M 416 -1600 
Q 359 -1600 359 -1544 
Q 359 -1516 372 -1503 
Q 1466 -434 1466 1600 
Q 1466 3634 384 4691 
Q 359 4706 359 4744 
Q 359 4766 376 4783 
Q 394 4800 416 4800 
L 475 4800 
Q 494 4800 506 4788 
Q 966 4425 1272 3906 
Q 1578 3388 1720 2800 
Q 1863 2213 1863 1600 
Q 1863 1147 1786 708 
Q 1709 269 1542 -157 
Q 1375 -584 1119 -945 
Q 863 -1306 506 -1588 
Q 494 -1600 475 -1600 
L 416 -1600 
z
" transform="scale(0.015625)"/>
      </defs>
      <use xlink:href="#DejaVuSans-70" transform="translate(0 0.015625)"/>
      <use xlink:href="#DejaVuSans-6f" transform="translate(63.476562 0.015625)"/>
      <use xlink:href="#DejaVuSans-73" transform="translate(124.658203 0.015625)"/>
      <use xlink:href="#DejaVuSans-69" transform="translate(176.757812 0.015625)"/>
      <use xlink:href="#DejaVuSans-74" transform="translate(204.541016 0.015625)"/>
      <use xlink:href="#DejaVuSans-69" transform="translate(243.75 0.015625)"/>
      <use xlink:href="#DejaVuSans-6f" transform="translate(271.533203 0.015625)"/>
      <use xlink:href="#DejaVuSans-6e" transform="translate(332.714844 0.015625)"/>
      <use xlink:href="#DejaVuSans-20" transform="translate(396.09375 0.015625)"/>
      <use xlink:href="#DejaVuSans-20" transform="translate(427.880859 0.015625)"/>
      <use xlink:href="#Cmmi10-78" transform="translate(459.667969 0.015625)"/>
      <use xlink:href="#Cmr10-31" transform="translate(516.748047 -16.990625) scale(0.7)"/>
      <use xlink:href="#Cmr10-28" transform="translate(558.125391 0.015625)"/>
      <use xlink:href="#Cmmi10-74" transform="translate(596.94375 0.015625)"/>
      <use xlink:href="#Cmr10-29" transform="translate(633.027734 0.015625)"/>
     </g>
    </g>
   </g>
   <g id="line2d_25">
    <path d="M 56.655625 67.693395 
L 57.292063 67.849507 
L 57.928501 68.285527 
L 58.777086 69.228287 
L 59.837816 70.869204 
L 61.110693 73.343242 
L 62.807861 77.219164 
L 65.353614 83.711711 
L 74.900187 108.626251 
L 78.294524 116.667561 
L 81.688862 124.146246 
L 85.083199 131.073434 
L 88.477536 137.477161 
L 91.871873 143.391309 
L 95.26621 148.850751 
L 98.660547 153.889296 
L 102.054885 158.538875 
L 105.449222 162.829281 
L 109.055705 167.02517 
L 112.662188 170.877364 
L 116.268672 174.41399 
L 120.087301 177.843379 
L 123.90593 180.976031 
L 127.936706 183.989131 
L 131.967481 186.727709 
L 136.210402 189.341306 
L 140.66547 191.816919 
L 145.332684 194.144785 
L 150.212043 196.318249 
L 155.303549 198.333561 
L 160.607201 200.189634 
L 166.122999 201.887757 
L 172.063089 203.48454 
L 178.427471 204.963434 
L 185.216145 206.313424 
L 192.641258 207.561352 
L 200.702809 208.689336 
L 209.612944 209.709266 
L 219.583809 210.622225 
L 230.827551 211.423392 
L 243.768461 212.116382 
L 259.042979 212.702774 
L 277.499687 213.179056 
L 300.835755 213.547793 
L 332.44552 213.811013 
L 381.239117 213.972781 
L 480.735625 214.040011 
L 480.735625 214.040011 
" clip-path="url(#p22f4907961)" style="fill: none; stroke: #0072bd; stroke-width: 2; stroke-linecap: square"/>
   </g>
   <g id="line2d_26">
    <path d="M 56.655625 67.693395 
L 57.504209 67.783593 
L 58.56494 68.135033 
L 59.62567 68.727212 
L 60.898546 69.721589 
L 62.383569 71.224961 
L 63.868591 73.046248 
L 65.777906 75.777582 
L 67.899367 79.226059 
L 70.44512 83.797463 
L 73.839457 90.387739 
L 79.355255 101.67644 
L 87.416806 118.105028 
L 92.084019 127.103686 
L 96.326941 134.808632 
L 100.357716 141.661688 
L 104.176345 147.718473 
L 107.994975 153.350667 
L 111.601458 158.287846 
L 115.207941 162.866516 
L 118.814424 167.102475 
L 122.420908 171.013548 
L 126.239537 174.821604 
L 130.058166 178.309581 
L 133.876796 181.500287 
L 137.907571 184.570301 
L 141.938346 187.358924 
L 146.181268 190.016394 
L 150.424189 192.414281 
L 154.879257 194.678968 
L 159.54647 196.800823 
L 164.42583 198.773495 
L 169.517336 200.593694 
L 175.033134 202.323147 
L 180.761078 203.885338 
L 186.913314 205.333026 
L 193.489842 206.653883 
L 200.702809 207.873977 
L 208.552213 208.97442 
L 217.250202 209.966459 
L 227.008922 210.850604 
L 238.040517 211.621768 
L 250.769282 212.283462 
L 265.831653 212.837412 
L 284.288361 213.284958 
L 308.048722 213.626614 
L 341.143509 213.86343 
L 395.028611 213.999386 
L 480.735625 214.04146 
L 480.735625 214.04146 
" clip-path="url(#p22f4907961)" style="fill: none; stroke: #77ac30; stroke-width: 2; stroke-linecap: square"/>
   </g>
   <g id="line2d_27">
    <path d="M 56.655625 67.693395 
L 58.352794 67.807919 
L 60.049962 68.141026 
L 61.959277 68.758206 
L 63.868591 69.612353 
L 65.990052 70.815718 
L 68.323659 72.41962 
L 70.869412 74.468407 
L 73.627311 76.997423 
L 76.597356 80.031308 
L 79.991693 83.829154 
L 83.810322 88.441556 
L 88.477536 94.446221 
L 94.629772 102.762836 
L 118.177986 134.995524 
L 124.330222 142.827345 
L 129.84602 149.495883 
L 135.149672 155.560502 
L 140.241178 161.044243 
L 145.120537 165.979929 
L 149.999897 170.600108 
L 154.879257 174.906394 
L 159.54647 178.736394 
L 164.213684 182.290683 
L 168.880898 185.577957 
L 173.760257 188.740161 
L 178.639617 191.634417 
L 183.518977 194.274441 
L 188.610482 196.773647 
L 193.701988 199.028154 
L 199.00564 201.134329 
L 204.521438 203.082248 
L 210.249382 204.86503 
L 216.189472 206.478846 
L 222.341708 207.922851 
L 228.918236 209.238053 
L 235.919057 210.40953 
L 243.344169 211.428294 
L 251.40572 212.311838 
L 260.315855 213.063385 
L 270.286721 213.677444 
L 281.742608 214.152805 
L 295.107811 214.478962 
L 311.867351 214.655262 
L 335.203419 214.659383 
L 387.391353 214.374188 
L 451.883759 214.128532 
L 480.735625 214.081975 
L 480.735625 214.081975 
" clip-path="url(#p22f4907961)" style="fill: none; stroke: #404040; stroke-width: 2; stroke-linecap: square"/>
   </g>
   <g id="line2d_28">
    <path d="M 56.655625 67.693395 
L 59.62567 67.804649 
L 62.595715 68.129569 
L 65.777906 68.700134 
L 69.172243 69.5455 
L 72.56658 70.617791 
L 76.173064 71.986601 
L 79.991693 73.672275 
L 84.022468 75.691256 
L 88.477536 78.179823 
L 93.14475 81.043111 
L 98.236255 84.426344 
L 103.964199 88.506564 
L 110.328581 93.317329 
L 117.96584 99.383881 
L 127.512413 107.268811 
L 147.454144 124.124245 
L 160.607201 135.059131 
L 170.578066 143.062928 
L 179.488201 149.93252 
L 187.761898 156.032483 
L 195.611303 161.546739 
L 203.248561 166.641111 
L 210.673674 171.32802 
L 217.886641 175.624472 
L 225.099607 179.665761 
L 232.312573 183.452072 
L 239.52554 186.985737 
L 246.738506 190.270919 
L 253.951473 193.313333 
L 261.164439 196.119984 
L 268.589552 198.771428 
L 276.226811 201.257149 
L 283.864069 203.509277 
L 291.713474 205.593149 
L 299.775025 207.503783 
L 308.048722 209.238221 
L 316.746711 210.831738 
L 325.656846 212.238902 
L 334.991273 213.48976 
L 344.962138 214.597787 
L 355.357296 215.529029 
L 366.601038 216.310143 
L 378.693364 216.92395 
L 391.84642 217.367461 
L 406.696646 217.639597 
L 423.668331 217.720211 
L 444.034354 217.58421 
L 470.76476 217.168327 
L 480.735625 216.974131 
L 480.735625 216.974131 
" clip-path="url(#p22f4907961)" style="fill: none; stroke: #edb120; stroke-width: 2; stroke-linecap: square"/>
   </g>
   <g id="line2d_29">
    <path d="M 56.655625 67.693395 
L 61.959277 67.805678 
L 67.475075 68.151425 
L 73.203019 68.742672 
L 78.930963 69.555439 
L 85.083199 70.658347 
L 91.447581 72.031616 
L 98.024109 73.679235 
L 105.02493 75.666499 
L 112.450042 78.0123 
L 120.299447 80.730596 
L 128.78529 83.912238 
L 137.907571 87.575786 
L 147.878436 91.822619 
L 159.122178 96.856962 
L 172.487381 103.095626 
L 189.671213 111.378459 
L 245.889922 138.660974 
L 261.800878 146.026111 
L 276.226811 152.459051 
L 289.592013 158.179305 
L 302.532924 163.477076 
L 315.049542 168.361292 
L 327.354014 172.923068 
L 339.44634 177.168489 
L 351.32652 181.106558 
L 363.206701 184.812626 
L 375.086881 188.287365 
L 386.967061 191.533072 
L 399.059387 194.605366 
L 411.151713 197.449411 
L 423.456185 200.115565 
L 435.972804 202.599759 
L 448.701568 204.899398 
L 461.642478 207.01335 
L 475.007681 208.971265 
L 480.735625 209.743375 
L 480.735625 209.743375 
" clip-path="url(#p22f4907961)" style="fill: none; stroke: #d95319; stroke-width: 2; stroke-linecap: square"/>
   </g>
   <g id="line2d_30">
    <path d="M 56.655625 214.047036 
L 480.735625 214.047036 
" clip-path="url(#p22f4907961)" style="fill: none; stroke: #000000; stroke-width: 0.6; stroke-linecap: square"/>
   </g>
   <g id="patch_3">
    <path d="M 56.655625 225.222698 
L 56.655625 60.192 
" style="fill: none; stroke: #000000; stroke-width: 0.8; stroke-linejoin: miter; stroke-linecap: square"/>
   </g>
   <g id="patch_4">
    <path d="M 56.655625 225.222698 
L 480.735625 225.222698 
" style="fill: none; stroke: #000000; stroke-width: 0.8; stroke-linejoin: miter; stroke-linecap: square"/>
   </g>
  </g>
  <g id="axes_2">
   <g id="patch_5">
    <path d="M 56.655625 415.008 
L 480.735625 415.008 
L 480.735625 249.977302 
L 56.655625 249.977302 
z
" style="fill: #ffffff"/>
   </g>
   <g id="matplotlib.axis_3">
    <g id="xtick_7">
     <g id="line2d_31">
      <path d="M 56.655625 415.008 
L 56.655625 249.977302 
" clip-path="url(#p940babc26f)" style="fill: none; stroke-dasharray: 0.8,1.32; stroke-dashoffset: 0; stroke: #b0b0b0; stroke-opacity: 0.5; stroke-width: 0.8"/>
     </g>
     <g id="line2d_32">
      <g>
       <use xlink:href="#m6fd8589340" x="56.655625" y="415.008" style="stroke: #000000; stroke-width: 0.8"/>
      </g>
     </g>
     <g id="text_8">
      <!-- 0 -->
      <g transform="translate(52.838125 431.126125) scale(0.12 -0.12)">
       <use xlink:href="#DejaVuSans-30"/>
      </g>
     </g>
    </g>
    <g id="xtick_8">
     <g id="line2d_33">
      <path d="M 141.471625 415.008 
L 141.471625 249.977302 
" clip-path="url(#p940babc26f)" style="fill: none; stroke-dasharray: 0.8,1.32; stroke-dashoffset: 0; stroke: #b0b0b0; stroke-opacity: 0.5; stroke-width: 0.8"/>
     </g>
     <g id="line2d_34">
      <g>
       <use xlink:href="#m6fd8589340" x="141.471625" y="415.008" style="stroke: #000000; stroke-width: 0.8"/>
      </g>
     </g>
     <g id="text_9">
      <!-- 2 -->
      <g transform="translate(137.654125 431.126125) scale(0.12 -0.12)">
       <use xlink:href="#DejaVuSans-32"/>
      </g>
     </g>
    </g>
    <g id="xtick_9">
     <g id="line2d_35">
      <path d="M 226.287625 415.008 
L 226.287625 249.977302 
" clip-path="url(#p940babc26f)" style="fill: none; stroke-dasharray: 0.8,1.32; stroke-dashoffset: 0; stroke: #b0b0b0; stroke-opacity: 0.5; stroke-width: 0.8"/>
     </g>
     <g id="line2d_36">
      <g>
       <use xlink:href="#m6fd8589340" x="226.287625" y="415.008" style="stroke: #000000; stroke-width: 0.8"/>
      </g>
     </g>
     <g id="text_10">
      <!-- 4 -->
      <g transform="translate(222.470125 431.126125) scale(0.12 -0.12)">
       <use xlink:href="#DejaVuSans-34"/>
      </g>
     </g>
    </g>
    <g id="xtick_10">
     <g id="line2d_37">
      <path d="M 311.103625 415.008 
L 311.103625 249.977302 
" clip-path="url(#p940babc26f)" style="fill: none; stroke-dasharray: 0.8,1.32; stroke-dashoffset: 0; stroke: #b0b0b0; stroke-opacity: 0.5; stroke-width: 0.8"/>
     </g>
     <g id="line2d_38">
      <g>
       <use xlink:href="#m6fd8589340" x="311.103625" y="415.008" style="stroke: #000000; stroke-width: 0.8"/>
      </g>
     </g>
     <g id="text_11">
      <!-- 6 -->
      <g transform="translate(307.286125 431.126125) scale(0.12 -0.12)">
       <use xlink:href="#DejaVuSans-36"/>
      </g>
     </g>
    </g>
    <g id="xtick_11">
     <g id="line2d_39">
      <path d="M 395.919625 415.008 
L 395.919625 249.977302 
" clip-path="url(#p940babc26f)" style="fill: none; stroke-dasharray: 0.8,1.32; stroke-dashoffset: 0; stroke: #b0b0b0; stroke-opacity: 0.5; stroke-width: 0.8"/>
     </g>
     <g id="line2d_40">
      <g>
       <use xlink:href="#m6fd8589340" x="395.919625" y="415.008" style="stroke: #000000; stroke-width: 0.8"/>
      </g>
     </g>
     <g id="text_12">
      <!-- 8 -->
      <g transform="translate(392.102125 431.126125) scale(0.12 -0.12)">
       <use xlink:href="#DejaVuSans-38"/>
      </g>
     </g>
    </g>
    <g id="xtick_12">
     <g id="line2d_41">
      <path d="M 480.735625 415.008 
L 480.735625 249.977302 
" clip-path="url(#p940babc26f)" style="fill: none; stroke-dasharray: 0.8,1.32; stroke-dashoffset: 0; stroke: #b0b0b0; stroke-opacity: 0.5; stroke-width: 0.8"/>
     </g>
     <g id="line2d_42">
      <g>
       <use xlink:href="#m6fd8589340" x="480.735625" y="415.008" style="stroke: #000000; stroke-width: 0.8"/>
      </g>
     </g>
     <g id="text_13">
      <!-- 10 -->
      <g transform="translate(473.100625 431.126125) scale(0.12 -0.12)">
       <use xlink:href="#DejaVuSans-31"/>
       <use xlink:href="#DejaVuSans-30" transform="translate(63.623047 0)"/>
      </g>
     </g>
    </g>
    <g id="text_14">
     <!-- $t$ -->
     <g transform="translate(266.290625 447.499719) scale(0.13 -0.13)">
      <use xlink:href="#Cmmi10-74" transform="translate(0 0.40625)"/>
     </g>
    </g>
   </g>
   <g id="matplotlib.axis_4">
    <g id="ytick_7">
     <g id="line2d_43">
      <path d="M 56.655625 407.506605 
L 480.735625 407.506605 
" clip-path="url(#p940babc26f)" style="fill: none; stroke-dasharray: 0.8,1.32; stroke-dashoffset: 0; stroke: #b0b0b0; stroke-opacity: 0.5; stroke-width: 0.8"/>
     </g>
     <g id="line2d_44">
      <g>
       <use xlink:href="#mafc66c8b28" x="56.655625" y="407.506605" style="stroke: #000000; stroke-width: 0.8"/>
      </g>
     </g>
     <g id="text_15">
      <!-- −10 -->
      <g transform="translate(24.33 412.065667) scale(0.12 -0.12)">
       <defs>
        <path id="DejaVuSans-2212" d="M 678 2272 
L 4684 2272 
L 4684 1741 
L 678 1741 
L 678 2272 
z
" transform="scale(0.015625)"/>
       </defs>
       <use xlink:href="#DejaVuSans-2212"/>
       <use xlink:href="#DejaVuSans-31" transform="translate(83.789062 0)"/>
       <use xlink:href="#DejaVuSans-30" transform="translate(147.412109 0)"/>
      </g>
     </g>
    </g>
    <g id="ytick_8">
     <g id="line2d_45">
      <path d="M 56.655625 379.208671 
L 480.735625 379.208671 
" clip-path="url(#p940babc26f)" style="fill: none; stroke-dasharray: 0.8,1.32; stroke-dashoffset: 0; stroke: #b0b0b0; stroke-opacity: 0.5; stroke-width: 0.8"/>
     </g>
     <g id="line2d_46">
      <g>
       <use xlink:href="#mafc66c8b28" x="56.655625" y="379.208671" style="stroke: #000000; stroke-width: 0.8"/>
      </g>
     </g>
     <g id="text_16">
      <!-- −8 -->
      <g transform="translate(31.965 383.767734) scale(0.12 -0.12)">
       <use xlink:href="#DejaVuSans-2212"/>
       <use xlink:href="#DejaVuSans-38" transform="translate(83.789062 0)"/>
      </g>
     </g>
    </g>
    <g id="ytick_9">
     <g id="line2d_47">
      <path d="M 56.655625 350.910738 
L 480.735625 350.910738 
" clip-path="url(#p940babc26f)" style="fill: none; stroke-dasharray: 0.8,1.32; stroke-dashoffset: 0; stroke: #b0b0b0; stroke-opacity: 0.5; stroke-width: 0.8"/>
     </g>
     <g id="line2d_48">
      <g>
       <use xlink:href="#mafc66c8b28" x="56.655625" y="350.910738" style="stroke: #000000; stroke-width: 0.8"/>
      </g>
     </g>
     <g id="text_17">
      <!-- −6 -->
      <g transform="translate(31.965 355.469801) scale(0.12 -0.12)">
       <use xlink:href="#DejaVuSans-2212"/>
       <use xlink:href="#DejaVuSans-36" transform="translate(83.789062 0)"/>
      </g>
     </g>
    </g>
    <g id="ytick_10">
     <g id="line2d_49">
      <path d="M 56.655625 322.612805 
L 480.735625 322.612805 
" clip-path="url(#p940babc26f)" style="fill: none; stroke-dasharray: 0.8,1.32; stroke-dashoffset: 0; stroke: #b0b0b0; stroke-opacity: 0.5; stroke-width: 0.8"/>
     </g>
     <g id="line2d_50">
      <g>
       <use xlink:href="#mafc66c8b28" x="56.655625" y="322.612805" style="stroke: #000000; stroke-width: 0.8"/>
      </g>
     </g>
     <g id="text_18">
      <!-- −4 -->
      <g transform="translate(31.965 327.171867) scale(0.12 -0.12)">
       <use xlink:href="#DejaVuSans-2212"/>
       <use xlink:href="#DejaVuSans-34" transform="translate(83.789062 0)"/>
      </g>
     </g>
    </g>
    <g id="ytick_11">
     <g id="line2d_51">
      <path d="M 56.655625 294.314871 
L 480.735625 294.314871 
" clip-path="url(#p940babc26f)" style="fill: none; stroke-dasharray: 0.8,1.32; stroke-dashoffset: 0; stroke: #b0b0b0; stroke-opacity: 0.5; stroke-width: 0.8"/>
     </g>
     <g id="line2d_52">
      <g>
       <use xlink:href="#mafc66c8b28" x="56.655625" y="294.314871" style="stroke: #000000; stroke-width: 0.8"/>
      </g>
     </g>
     <g id="text_19">
      <!-- −2 -->
      <g transform="translate(31.965 298.873934) scale(0.12 -0.12)">
       <use xlink:href="#DejaVuSans-2212"/>
       <use xlink:href="#DejaVuSans-32" transform="translate(83.789062 0)"/>
      </g>
     </g>
    </g>
    <g id="ytick_12">
     <g id="line2d_53">
      <path d="M 56.655625 266.016938 
L 480.735625 266.016938 
" clip-path="url(#p940babc26f)" style="fill: none; stroke-dasharray: 0.8,1.32; stroke-dashoffset: 0; stroke: #b0b0b0; stroke-opacity: 0.5; stroke-width: 0.8"/>
     </g>
     <g id="line2d_54">
      <g>
       <use xlink:href="#mafc66c8b28" x="56.655625" y="266.016938" style="stroke: #000000; stroke-width: 0.8"/>
      </g>
     </g>
     <g id="text_20">
      <!-- 0 -->
      <g transform="translate(42.020625 270.576001) scale(0.12 -0.12)">
       <use xlink:href="#DejaVuSans-30"/>
      </g>
     </g>
    </g>
    <g id="text_21">
     <!-- input  $u(t)$ -->
     <g transform="translate(17.08 364.472651) rotate(-90) scale(0.13 -0.13)">
      <defs>
       <path id="DejaVuSans-75" d="M 544 1381 
L 544 3500 
L 1119 3500 
L 1119 1403 
Q 1119 906 1312 657 
Q 1506 409 1894 409 
Q 2359 409 2629 706 
Q 2900 1003 2900 1516 
L 2900 3500 
L 3475 3500 
L 3475 0 
L 2900 0 
L 2900 538 
Q 2691 219 2414 64 
Q 2138 -91 1772 -91 
Q 1169 -91 856 284 
Q 544 659 544 1381 
z
M 1991 3584 
L 1991 3584 
z
" transform="scale(0.015625)"/>
       <path id="Cmmi10-75" d="M 678 697 
Q 678 906 734 1126 
Q 791 1347 892 1617 
Q 994 1888 1069 2088 
Q 1153 2322 1153 2472 
Q 1153 2663 1013 2663 
Q 759 2663 595 2402 
Q 431 2141 353 1819 
Q 341 1778 300 1778 
L 225 1778 
Q 172 1778 172 1838 
L 172 1856 
Q 275 2238 487 2533 
Q 700 2828 1025 2828 
Q 1253 2828 1411 2678 
Q 1569 2528 1569 2297 
Q 1569 2178 1516 2047 
Q 1488 1969 1388 1706 
Q 1288 1444 1234 1272 
Q 1181 1100 1147 934 
Q 1113 769 1113 603 
Q 1113 391 1203 244 
Q 1294 97 1497 97 
Q 1906 97 2216 603 
Q 2222 628 2226 651 
Q 2231 675 2234 697 
L 2694 2553 
Q 2716 2638 2794 2698 
Q 2872 2759 2963 2759 
Q 3041 2759 3098 2709 
Q 3156 2659 3156 2578 
Q 3156 2541 3150 2528 
L 2688 684 
Q 2644 494 2644 372 
Q 2644 97 2828 97 
Q 3034 97 3136 351 
Q 3238 606 3309 941 
Q 3322 978 3359 978 
L 3438 978 
Q 3463 978 3478 956 
Q 3494 934 3494 916 
Q 3425 641 3361 444 
Q 3297 247 3159 87 
Q 3022 -72 2816 -72 
Q 2613 -72 2452 39 
Q 2291 150 2234 341 
Q 2088 153 1894 40 
Q 1700 -72 1484 -72 
Q 1116 -72 897 129 
Q 678 331 678 697 
z
" transform="scale(0.015625)"/>
      </defs>
      <use xlink:href="#DejaVuSans-69" transform="translate(0 0.015625)"/>
      <use xlink:href="#DejaVuSans-6e" transform="translate(27.783203 0.015625)"/>
      <use xlink:href="#DejaVuSans-70" transform="translate(91.162109 0.015625)"/>
      <use xlink:href="#DejaVuSans-75" transform="translate(154.638672 0.015625)"/>
      <use xlink:href="#DejaVuSans-74" transform="translate(218.017578 0.015625)"/>
      <use xlink:href="#DejaVuSans-20" transform="translate(257.226562 0.015625)"/>
      <use xlink:href="#DejaVuSans-20" transform="translate(289.013672 0.015625)"/>
      <use xlink:href="#Cmmi10-75" transform="translate(320.800781 0.015625)"/>
      <use xlink:href="#Cmr10-28" transform="translate(377.978516 0.015625)"/>
      <use xlink:href="#Cmmi10-74" transform="translate(416.796875 0.015625)"/>
      <use xlink:href="#Cmr10-29" transform="translate(452.880859 0.015625)"/>
     </g>
    </g>
   </g>
   <g id="line2d_55">
    <path d="M 56.655625 407.506605 
L 57.716355 373.226968 
L 58.777086 346.57663 
L 59.837816 325.872866 
L 60.898546 309.803721 
L 61.959277 297.346322 
L 63.020007 287.703189 
L 64.080738 280.252581 
L 65.141468 274.509772 
L 66.202198 270.096872 
L 67.262929 266.719281 
L 68.323659 264.147344 
L 69.384389 262.202041 
L 70.44512 260.743827 
L 71.50585 259.66394 
L 72.56658 258.877613 
L 73.839457 258.229581 
L 75.112333 257.822879 
L 76.597356 257.568327 
L 78.506671 257.478758 
L 81.052423 257.613175 
L 84.658907 258.050174 
L 108.843559 261.402236 
L 118.602278 262.354591 
L 129.421728 263.182916 
L 141.938346 263.910393 
L 156.364279 264.52041 
L 173.760257 265.026041 
L 195.399157 265.423604 
L 224.251023 265.717486 
L 266.680237 265.90739 
L 345.174284 265.99989 
L 480.735625 266.016252 
L 480.735625 266.016252 
" clip-path="url(#p940babc26f)" style="fill: none; stroke: #0072bd; stroke-width: 2; stroke-linecap: square"/>
   </g>
   <g id="line2d_56">
    <path d="M 56.655625 310.759899 
L 58.352794 303.978028 
L 60.049962 298.03124 
L 61.747131 292.822657 
L 63.444299 288.266411 
L 65.141468 284.286407 
L 66.838637 280.815217 
L 68.535805 277.793101 
L 70.44512 274.864352 
L 72.354434 272.370892 
L 74.263749 270.254929 
L 76.173064 268.466071 
L 78.082378 266.960392 
L 80.203839 265.573152 
L 82.3253 264.442958 
L 84.658907 263.45032 
L 87.20466 262.616903 
L 89.962558 261.954076 
L 92.932603 261.463697 
L 96.326941 261.123987 
L 100.357716 260.948349 
L 105.237076 260.965585 
L 111.601458 261.220977 
L 121.784469 261.881141 
L 146.393414 263.523451 
L 161.243639 264.254708 
L 177.578887 264.830621 
L 196.884179 265.280153 
L 221.493124 265.617687 
L 255.648642 265.84693 
L 312.079497 265.975528 
L 458.460287 266.015877 
L 480.735625 266.016331 
L 480.735625 266.016331 
" clip-path="url(#p940babc26f)" style="fill: none; stroke: #77ac30; stroke-width: 2; stroke-linecap: square"/>
   </g>
   <g id="line2d_57">
    <path d="M 56.655625 280.165905 
L 60.6864 277.960964 
L 64.929322 275.893777 
L 69.384389 273.979215 
L 73.839457 272.302897 
L 78.506671 270.777533 
L 83.598176 269.354826 
L 88.901828 268.110346 
L 94.417626 267.041619 
L 100.357716 266.11363 
L 106.934244 265.316151 
L 114.147211 264.673107 
L 122.208762 264.186448 
L 131.331043 263.865698 
L 142.150492 263.717597 
L 155.727841 263.768821 
L 175.033134 264.085279 
L 247.587091 265.450625 
L 282.591193 265.780681 
L 327.56616 265.96612 
L 405.211623 266.026797 
L 480.735625 266.021707 
L 480.735625 266.021707 
" clip-path="url(#p940babc26f)" style="fill: none; stroke: #404040; stroke-width: 2; stroke-linecap: square"/>
   </g>
   <g id="line2d_58">
    <path d="M 56.655625 270.491234 
L 71.50585 269.261613 
L 86.992513 268.202737 
L 103.539907 267.297628 
L 121.360177 266.551027 
L 140.877616 265.962176 
L 162.728662 265.531936 
L 187.974044 265.263258 
L 219.159517 265.163082 
L 263.073754 265.263402 
L 467.794715 265.98368 
L 480.735625 265.998039 
L 480.735625 265.998039 
" clip-path="url(#p940babc26f)" style="fill: none; stroke: #edb120; stroke-width: 2; stroke-linecap: square"/>
   </g>
   <g id="line2d_59">
    <path d="M 56.655625 267.431835 
L 107.994975 266.758031 
L 162.940808 266.262636 
L 225.099607 265.930102 
L 301.047901 265.756248 
L 409.242398 265.751673 
L 480.735625 265.811696 
L 480.735625 265.811696 
" clip-path="url(#p940babc26f)" style="fill: none; stroke: #d95319; stroke-width: 2; stroke-linecap: square"/>
   </g>
   <g id="line2d_60">
    <path d="M 56.655625 266.016938 
L 480.735625 266.016938 
" clip-path="url(#p940babc26f)" style="fill: none; stroke: #000000; stroke-width: 0.6; stroke-linecap: square"/>
   </g>
   <g id="patch_6">
    <path d="M 56.655625 415.008 
L 56.655625 249.977302 
" style="fill: none; stroke: #000000; stroke-width: 0.8; stroke-linejoin: miter; stroke-linecap: square"/>
   </g>
   <g id="patch_7">
    <path d="M 56.655625 415.008 
L 480.735625 415.008 
" style="fill: none; stroke: #000000; stroke-width: 0.8; stroke-linejoin: miter; stroke-linecap: square"/>
   </g>
   <g id="legend_1">
    <g id="patch_8">
     <path d="M 403.770625 409.758 
L 473.385625 409.758 
Q 475.485625 409.758 475.485625 407.658 
L 475.485625 331.016203 
Q 475.485625 328.916203 473.385625 328.916203 
L 403.770625 328.916203 
Q 401.670625 328.916203 401.670625 331.016203 
L 401.670625 407.658 
Q 401.670625 409.758 403.770625 409.758 
z
" style="fill: #ffffff; opacity: 0.95; stroke: #cccccc; stroke-linejoin: miter"/>
    </g>
    <g id="line2d_61">
     <path d="M 405.870625 337.419562 
L 416.370625 337.419562 
L 426.870625 337.419562 
" style="fill: none; stroke: #0072bd; stroke-width: 2; stroke-linecap: square"/>
    </g>
    <g id="text_22">
     <!-- $\rho = 0.01$ -->
     <g transform="translate(435.270625 341.094562) scale(0.105 -0.105)">
      <defs>
       <path id="Cmmi10-bd" d="M 178 -1203 
Q 178 -1166 184 -1153 
L 819 1403 
Q 909 1747 1129 2076 
Q 1350 2406 1662 2617 
Q 1975 2828 2322 2828 
Q 2600 2828 2808 2683 
Q 3016 2538 3120 2302 
Q 3225 2066 3225 1784 
Q 3225 1475 3098 1144 
Q 2972 813 2748 538 
Q 2525 263 2234 95 
Q 1944 -72 1625 -72 
Q 1438 -72 1272 39 
Q 1106 150 1013 331 
L 634 -1178 
Q 616 -1269 541 -1325 
Q 466 -1381 372 -1381 
Q 294 -1381 236 -1332 
Q 178 -1284 178 -1203 
z
M 1638 97 
Q 1978 97 2229 445 
Q 2481 794 2614 1264 
Q 2747 1734 2747 2059 
Q 2747 2303 2640 2483 
Q 2534 2663 2309 2663 
Q 2031 2663 1818 2452 
Q 1606 2241 1478 1956 
Q 1350 1672 1269 1363 
L 1094 647 
Q 1134 416 1276 256 
Q 1419 97 1638 97 
z
" transform="scale(0.015625)"/>
       <path id="Cmr10-3d" d="M 481 850 
Q 428 850 393 890 
Q 359 931 359 978 
Q 359 1031 393 1068 
Q 428 1106 481 1106 
L 4500 1106 
Q 4547 1106 4581 1068 
Q 4616 1031 4616 978 
Q 4616 931 4581 890 
Q 4547 850 4500 850 
L 481 850 
z
M 481 2094 
Q 428 2094 393 2131 
Q 359 2169 359 2222 
Q 359 2269 393 2309 
Q 428 2350 481 2350 
L 4500 2350 
Q 4547 2350 4581 2309 
Q 4616 2269 4616 2222 
Q 4616 2169 4581 2131 
Q 4547 2094 4500 2094 
L 481 2094 
z
" transform="scale(0.015625)"/>
       <path id="Cmr10-30" d="M 1600 -141 
Q 816 -141 533 504 
Q 250 1150 250 2041 
Q 250 2597 351 3087 
Q 453 3578 754 3920 
Q 1056 4263 1600 4263 
Q 2022 4263 2290 4056 
Q 2559 3850 2700 3523 
Q 2841 3197 2892 2823 
Q 2944 2450 2944 2041 
Q 2944 1491 2842 1011 
Q 2741 531 2444 195 
Q 2147 -141 1600 -141 
z
M 1600 25 
Q 1956 25 2131 390 
Q 2306 756 2347 1200 
Q 2388 1644 2388 2144 
Q 2388 2625 2347 3031 
Q 2306 3438 2132 3767 
Q 1959 4097 1600 4097 
Q 1238 4097 1063 3765 
Q 888 3434 847 3029 
Q 806 2625 806 2144 
Q 806 1788 823 1472 
Q 841 1156 916 820 
Q 991 484 1158 254 
Q 1325 25 1600 25 
z
" transform="scale(0.015625)"/>
       <path id="Cmmi10-3a" d="M 538 353 
Q 538 497 644 600 
Q 750 703 891 703 
Q 978 703 1062 656 
Q 1147 609 1194 525 
Q 1241 441 1241 353 
Q 1241 213 1137 106 
Q 1034 0 891 0 
Q 750 0 644 106 
Q 538 213 538 353 
z
" transform="scale(0.015625)"/>
      </defs>
      <use xlink:href="#Cmmi10-bd" transform="translate(0 0.390625)"/>
      <use xlink:href="#Cmr10-3d" transform="translate(69.267578 0.390625)"/>
      <use xlink:href="#Cmr10-30" transform="translate(164.511719 0.390625)"/>
      <use xlink:href="#Cmmi10-3a" transform="translate(214.511719 0.390625)"/>
      <use xlink:href="#Cmr10-30" transform="translate(242.197266 0.390625)"/>
      <use xlink:href="#Cmr10-31" transform="translate(292.197266 0.390625)"/>
     </g>
    </g>
    <g id="line2d_62">
     <path d="M 405.870625 352.957922 
L 416.370625 352.957922 
L 426.870625 352.957922 
" style="fill: none; stroke: #77ac30; stroke-width: 2; stroke-linecap: square"/>
    </g>
    <g id="text_23">
     <!-- $\rho = 0.1$ -->
     <g transform="translate(435.270625 356.632922) scale(0.105 -0.105)">
      <use xlink:href="#Cmmi10-bd" transform="translate(0 0.390625)"/>
      <use xlink:href="#Cmr10-3d" transform="translate(69.267578 0.390625)"/>
      <use xlink:href="#Cmr10-30" transform="translate(164.511719 0.390625)"/>
      <use xlink:href="#Cmmi10-3a" transform="translate(214.511719 0.390625)"/>
      <use xlink:href="#Cmr10-31" transform="translate(242.197266 0.390625)"/>
     </g>
    </g>
    <g id="line2d_63">
     <path d="M 405.870625 368.496281 
L 416.370625 368.496281 
L 426.870625 368.496281 
" style="fill: none; stroke: #404040; stroke-width: 2; stroke-linecap: square"/>
    </g>
    <g id="text_24">
     <!-- $\rho = 1$ -->
     <g transform="translate(435.270625 372.171281) scale(0.105 -0.105)">
      <use xlink:href="#Cmmi10-bd" transform="translate(0 0.390625)"/>
      <use xlink:href="#Cmr10-3d" transform="translate(69.267578 0.390625)"/>
      <use xlink:href="#Cmr10-31" transform="translate(164.511719 0.390625)"/>
     </g>
    </g>
    <g id="line2d_64">
     <path d="M 405.870625 384.034641 
L 416.370625 384.034641 
L 426.870625 384.034641 
" style="fill: none; stroke: #edb120; stroke-width: 2; stroke-linecap: square"/>
    </g>
    <g id="text_25">
     <!-- $\rho = 10$ -->
     <g transform="translate(435.270625 387.709641) scale(0.105 -0.105)">
      <use xlink:href="#Cmmi10-bd" transform="translate(0 0.390625)"/>
      <use xlink:href="#Cmr10-3d" transform="translate(69.267578 0.390625)"/>
      <use xlink:href="#Cmr10-31" transform="translate(164.511719 0.390625)"/>
      <use xlink:href="#Cmr10-30" transform="translate(214.511719 0.390625)"/>
     </g>
    </g>
    <g id="line2d_65">
     <path d="M 405.870625 399.573 
L 416.370625 399.573 
L 426.870625 399.573 
" style="fill: none; stroke: #d95319; stroke-width: 2; stroke-linecap: square"/>
    </g>
    <g id="text_26">
     <!-- $\rho = 100$ -->
     <g transform="translate(435.270625 403.248) scale(0.105 -0.105)">
      <use xlink:href="#Cmmi10-bd" transform="translate(0 0.390625)"/>
      <use xlink:href="#Cmr10-3d" transform="translate(69.267578 0.390625)"/>
      <use xlink:href="#Cmr10-31" transform="translate(164.511719 0.390625)"/>
      <use xlink:href="#Cmr10-30" transform="translate(214.511719 0.390625)"/>
      <use xlink:href="#Cmr10-30" transform="translate(264.511719 0.390625)"/>
     </g>
    </g>
   </g>
  </g>
  <g id="text_27">
   <!-- LQR closed-loop response for varying control penalty -->
   <g transform="translate(89.28875 17.077969) scale(0.13 -0.13)">
    <defs>
     <path id="DejaVuSans-4c" d="M 628 4666 
L 1259 4666 
L 1259 531 
L 3531 531 
L 3531 0 
L 628 0 
L 628 4666 
z
" transform="scale(0.015625)"/>
     <path id="DejaVuSans-51" d="M 2522 4238 
Q 1834 4238 1429 3725 
Q 1025 3213 1025 2328 
Q 1025 1447 1429 934 
Q 1834 422 2522 422 
Q 3209 422 3611 934 
Q 4013 1447 4013 2328 
Q 4013 3213 3611 3725 
Q 3209 4238 2522 4238 
z
M 3406 84 
L 4238 -825 
L 3475 -825 
L 2784 -78 
Q 2681 -84 2626 -87 
Q 2572 -91 2522 -91 
Q 1538 -91 948 567 
Q 359 1225 359 2328 
Q 359 3434 948 4092 
Q 1538 4750 2522 4750 
Q 3503 4750 4090 4092 
Q 4678 3434 4678 2328 
Q 4678 1516 4351 937 
Q 4025 359 3406 84 
z
" transform="scale(0.015625)"/>
     <path id="DejaVuSans-52" d="M 2841 2188 
Q 3044 2119 3236 1894 
Q 3428 1669 3622 1275 
L 4263 0 
L 3584 0 
L 2988 1197 
Q 2756 1666 2539 1819 
Q 2322 1972 1947 1972 
L 1259 1972 
L 1259 0 
L 628 0 
L 628 4666 
L 2053 4666 
Q 2853 4666 3247 4331 
Q 3641 3997 3641 3322 
Q 3641 2881 3436 2590 
Q 3231 2300 2841 2188 
z
M 1259 4147 
L 1259 2491 
L 2053 2491 
Q 2509 2491 2742 2702 
Q 2975 2913 2975 3322 
Q 2975 3731 2742 3939 
Q 2509 4147 2053 4147 
L 1259 4147 
z
" transform="scale(0.015625)"/>
     <path id="DejaVuSans-63" d="M 3122 3366 
L 3122 2828 
Q 2878 2963 2633 3030 
Q 2388 3097 2138 3097 
Q 1578 3097 1268 2742 
Q 959 2388 959 1747 
Q 959 1106 1268 751 
Q 1578 397 2138 397 
Q 2388 397 2633 464 
Q 2878 531 3122 666 
L 3122 134 
Q 2881 22 2623 -34 
Q 2366 -91 2075 -91 
Q 1284 -91 818 406 
Q 353 903 353 1747 
Q 353 2603 823 3093 
Q 1294 3584 2113 3584 
Q 2378 3584 2631 3529 
Q 2884 3475 3122 3366 
z
" transform="scale(0.015625)"/>
     <path id="DejaVuSans-6c" d="M 603 4863 
L 1178 4863 
L 1178 0 
L 603 0 
L 603 4863 
z
" transform="scale(0.015625)"/>
     <path id="DejaVuSans-65" d="M 3597 1894 
L 3597 1613 
L 953 1613 
Q 991 1019 1311 708 
Q 1631 397 2203 397 
Q 2534 397 2845 478 
Q 3156 559 3463 722 
L 3463 178 
Q 3153 47 2828 -22 
Q 2503 -91 2169 -91 
Q 1331 -91 842 396 
Q 353 884 353 1716 
Q 353 2575 817 3079 
Q 1281 3584 2069 3584 
Q 2775 3584 3186 3129 
Q 3597 2675 3597 1894 
z
M 3022 2063 
Q 3016 2534 2758 2815 
Q 2500 3097 2075 3097 
Q 1594 3097 1305 2825 
Q 1016 2553 972 2059 
L 3022 2063 
z
" transform="scale(0.015625)"/>
     <path id="DejaVuSans-64" d="M 2906 2969 
L 2906 4863 
L 3481 4863 
L 3481 0 
L 2906 0 
L 2906 525 
Q 2725 213 2448 61 
Q 2172 -91 1784 -91 
Q 1150 -91 751 415 
Q 353 922 353 1747 
Q 353 2572 751 3078 
Q 1150 3584 1784 3584 
Q 2172 3584 2448 3432 
Q 2725 3281 2906 2969 
z
M 947 1747 
Q 947 1113 1208 752 
Q 1469 391 1925 391 
Q 2381 391 2643 752 
Q 2906 1113 2906 1747 
Q 2906 2381 2643 2742 
Q 2381 3103 1925 3103 
Q 1469 3103 1208 2742 
Q 947 2381 947 1747 
z
" transform="scale(0.015625)"/>
     <path id="DejaVuSans-2d" d="M 313 2009 
L 1997 2009 
L 1997 1497 
L 313 1497 
L 313 2009 
z
" transform="scale(0.015625)"/>
     <path id="DejaVuSans-72" d="M 2631 2963 
Q 2534 3019 2420 3045 
Q 2306 3072 2169 3072 
Q 1681 3072 1420 2755 
Q 1159 2438 1159 1844 
L 1159 0 
L 581 0 
L 581 3500 
L 1159 3500 
L 1159 2956 
Q 1341 3275 1631 3429 
Q 1922 3584 2338 3584 
Q 2397 3584 2469 3576 
Q 2541 3569 2628 3553 
L 2631 2963 
z
" transform="scale(0.015625)"/>
     <path id="DejaVuSans-66" d="M 2375 4863 
L 2375 4384 
L 1825 4384 
Q 1516 4384 1395 4259 
Q 1275 4134 1275 3809 
L 1275 3500 
L 2222 3500 
L 2222 3053 
L 1275 3053 
L 1275 0 
L 697 0 
L 697 3053 
L 147 3053 
L 147 3500 
L 697 3500 
L 697 3744 
Q 697 4328 969 4595 
Q 1241 4863 1831 4863 
L 2375 4863 
z
" transform="scale(0.015625)"/>
     <path id="DejaVuSans-76" d="M 191 3500 
L 800 3500 
L 1894 563 
L 2988 3500 
L 3597 3500 
L 2284 0 
L 1503 0 
L 191 3500 
z
" transform="scale(0.015625)"/>
     <path id="DejaVuSans-61" d="M 2194 1759 
Q 1497 1759 1228 1600 
Q 959 1441 959 1056 
Q 959 750 1161 570 
Q 1363 391 1709 391 
Q 2188 391 2477 730 
Q 2766 1069 2766 1631 
L 2766 1759 
L 2194 1759 
z
M 3341 1997 
L 3341 0 
L 2766 0 
L 2766 531 
Q 2569 213 2275 61 
Q 1981 -91 1556 -91 
Q 1019 -91 701 211 
Q 384 513 384 1019 
Q 384 1609 779 1909 
Q 1175 2209 1959 2209 
L 2766 2209 
L 2766 2266 
Q 2766 2663 2505 2880 
Q 2244 3097 1772 3097 
Q 1472 3097 1187 3025 
Q 903 2953 641 2809 
L 641 3341 
Q 956 3463 1253 3523 
Q 1550 3584 1831 3584 
Q 2591 3584 2966 3190 
Q 3341 2797 3341 1997 
z
" transform="scale(0.015625)"/>
     <path id="DejaVuSans-79" d="M 2059 -325 
Q 1816 -950 1584 -1140 
Q 1353 -1331 966 -1331 
L 506 -1331 
L 506 -850 
L 844 -850 
Q 1081 -850 1212 -737 
Q 1344 -625 1503 -206 
L 1606 56 
L 191 3500 
L 800 3500 
L 1894 763 
L 2988 3500 
L 3597 3500 
L 2059 -325 
z
" transform="scale(0.015625)"/>
     <path id="DejaVuSans-67" d="M 2906 1791 
Q 2906 2416 2648 2759 
Q 2391 3103 1925 3103 
Q 1463 3103 1205 2759 
Q 947 2416 947 1791 
Q 947 1169 1205 825 
Q 1463 481 1925 481 
Q 2391 481 2648 825 
Q 2906 1169 2906 1791 
z
M 3481 434 
Q 3481 -459 3084 -895 
Q 2688 -1331 1869 -1331 
Q 1566 -1331 1297 -1286 
Q 1028 -1241 775 -1147 
L 775 -588 
Q 1028 -725 1275 -790 
Q 1522 -856 1778 -856 
Q 2344 -856 2625 -561 
Q 2906 -266 2906 331 
L 2906 616 
Q 2728 306 2450 153 
Q 2172 0 1784 0 
Q 1141 0 747 490 
Q 353 981 353 1791 
Q 353 2603 747 3093 
Q 1141 3584 1784 3584 
Q 2172 3584 2450 3431 
Q 2728 3278 2906 2969 
L 2906 3500 
L 3481 3500 
L 3481 434 
z
" transform="scale(0.015625)"/>
    </defs>
    <use xlink:href="#DejaVuSans-4c"/>
    <use xlink:href="#DejaVuSans-51" transform="translate(55.712891 0)"/>
    <use xlink:href="#DejaVuSans-52" transform="translate(134.423828 0)"/>
    <use xlink:href="#DejaVuSans-20" transform="translate(203.90625 0)"/>
    <use xlink:href="#DejaVuSans-63" transform="translate(235.693359 0)"/>
    <use xlink:href="#DejaVuSans-6c" transform="translate(290.673828 0)"/>
    <use xlink:href="#DejaVuSans-6f" transform="translate(318.457031 0)"/>
    <use xlink:href="#DejaVuSans-73" transform="translate(379.638672 0)"/>
    <use xlink:href="#DejaVuSans-65" transform="translate(431.738281 0)"/>
    <use xlink:href="#DejaVuSans-64" transform="translate(493.261719 0)"/>
    <use xlink:href="#DejaVuSans-2d" transform="translate(556.738281 0)"/>
    <use xlink:href="#DejaVuSans-6c" transform="translate(592.822266 0)"/>
    <use xlink:href="#DejaVuSans-6f" transform="translate(620.605469 0)"/>
    <use xlink:href="#DejaVuSans-6f" transform="translate(681.787109 0)"/>
    <use xlink:href="#DejaVuSans-70" transform="translate(742.96875 0)"/>
    <use xlink:href="#DejaVuSans-20" transform="translate(806.445312 0)"/>
    <use xlink:href="#DejaVuSans-72" transform="translate(838.232422 0)"/>
    <use xlink:href="#DejaVuSans-65" transform="translate(877.095703 0)"/>
    <use xlink:href="#DejaVuSans-73" transform="translate(938.619141 0)"/>
    <use xlink:href="#DejaVuSans-70" transform="translate(990.71875 0)"/>
    <use xlink:href="#DejaVuSans-6f" transform="translate(1054.195312 0)"/>
    <use xlink:href="#DejaVuSans-6e" transform="translate(1115.376953 0)"/>
    <use xlink:href="#DejaVuSans-73" transform="translate(1178.755859 0)"/>
    <use xlink:href="#DejaVuSans-65" transform="translate(1230.855469 0)"/>
    <use xlink:href="#DejaVuSans-20" transform="translate(1292.378906 0)"/>
    <use xlink:href="#DejaVuSans-66" transform="translate(1324.166016 0)"/>
    <use xlink:href="#DejaVuSans-6f" transform="translate(1359.371094 0)"/>
    <use xlink:href="#DejaVuSans-72" transform="translate(1420.552734 0)"/>
    <use xlink:href="#DejaVuSans-20" transform="translate(1461.666016 0)"/>
    <use xlink:href="#DejaVuSans-76" transform="translate(1493.453125 0)"/>
    <use xlink:href="#DejaVuSans-61" transform="translate(1552.632812 0)"/>
    <use xlink:href="#DejaVuSans-72" transform="translate(1613.912109 0)"/>
    <use xlink:href="#DejaVuSans-79" transform="translate(1655.025391 0)"/>
    <use xlink:href="#DejaVuSans-69" transform="translate(1714.205078 0)"/>
    <use xlink:href="#DejaVuSans-6e" transform="translate(1741.988281 0)"/>
    <use xlink:href="#DejaVuSans-67" transform="translate(1805.367188 0)"/>
    <use xlink:href="#DejaVuSans-20" transform="translate(1868.84375 0)"/>
    <use xlink:href="#DejaVuSans-63" transform="translate(1900.630859 0)"/>
    <use xlink:href="#DejaVuSans-6f" transform="translate(1955.611328 0)"/>
    <use xlink:href="#DejaVuSans-6e" transform="translate(2016.792969 0)"/>
    <use xlink:href="#DejaVuSans-74" transform="translate(2080.171875 0)"/>
    <use xlink:href="#DejaVuSans-72" transform="translate(2119.380859 0)"/>
    <use xlink:href="#DejaVuSans-6f" transform="translate(2158.244141 0)"/>
    <use xlink:href="#DejaVuSans-6c" transform="translate(2219.425781 0)"/>
    <use xlink:href="#DejaVuSans-20" transform="translate(2247.208984 0)"/>
    <use xlink:href="#DejaVuSans-70" transform="translate(2278.996094 0)"/>
    <use xlink:href="#DejaVuSans-65" transform="translate(2342.472656 0)"/>
    <use xlink:href="#DejaVuSans-6e" transform="translate(2403.996094 0)"/>
    <use xlink:href="#DejaVuSans-61" transform="translate(2467.375 0)"/>
    <use xlink:href="#DejaVuSans-6c" transform="translate(2528.654297 0)"/>
    <use xlink:href="#DejaVuSans-74" transform="translate(2556.4375 0)"/>
    <use xlink:href="#DejaVuSans-79" transform="translate(2595.646484 0)"/>
   </g>
   <!-- $\dot{x}_1 = x_2,\;\;\dot{x}_2 = u,\;\;Q = I,\;\;R = \rho,\;\;x_0 = (1,\,0)^{T}$ -->
   <g transform="translate(135.755625 33.353562) scale(0.13 -0.13)">
    <defs>
     <path id="Cmr10-5f" d="M 538 3928 
Q 538 4069 644 4175 
Q 750 4281 891 4281 
Q 978 4281 1062 4234 
Q 1147 4188 1194 4103 
Q 1241 4019 1241 3928 
Q 1241 3791 1137 3684 
Q 1034 3578 891 3578 
Q 750 3578 644 3684 
Q 538 3791 538 3928 
z
" transform="scale(0.015625)"/>
     <path id="Cmr10-32" d="M 319 0 
L 319 172 
Q 319 188 331 206 
L 1325 1306 
Q 1550 1550 1690 1715 
Q 1831 1881 1968 2097 
Q 2106 2313 2186 2536 
Q 2266 2759 2266 3009 
Q 2266 3272 2169 3511 
Q 2072 3750 1880 3894 
Q 1688 4038 1416 4038 
Q 1138 4038 916 3870 
Q 694 3703 603 3438 
Q 628 3444 672 3444 
Q 816 3444 917 3347 
Q 1019 3250 1019 3097 
Q 1019 2950 917 2848 
Q 816 2747 672 2747 
Q 522 2747 420 2851 
Q 319 2956 319 3097 
Q 319 3338 409 3548 
Q 500 3759 670 3923 
Q 841 4088 1055 4175 
Q 1269 4263 1509 4263 
Q 1875 4263 2190 4108 
Q 2506 3953 2690 3670 
Q 2875 3388 2875 3009 
Q 2875 2731 2753 2481 
Q 2631 2231 2440 2026 
Q 2250 1822 1953 1562 
Q 1656 1303 1563 1216 
L 838 519 
L 1453 519 
Q 1906 519 2211 526 
Q 2516 534 2534 550 
Q 2609 631 2688 1141 
L 2875 1141 
L 2694 0 
L 319 0 
z
" transform="scale(0.015625)"/>
     <path id="Cmmi10-3b" d="M 634 -1153 
Q 634 -1125 659 -1100 
Q 891 -878 1019 -587 
Q 1147 -297 1147 25 
L 1147 103 
Q 1044 0 891 0 
Q 744 0 641 103 
Q 538 206 538 353 
Q 538 503 641 603 
Q 744 703 891 703 
Q 1119 703 1216 492 
Q 1313 281 1313 25 
Q 1313 -331 1170 -651 
Q 1028 -972 769 -1228 
Q 744 -1241 728 -1241 
Q 697 -1241 665 -1212 
Q 634 -1184 634 -1153 
z
" transform="scale(0.015625)"/>
     <path id="Cmmi10-51" d="M 1947 -141 
Q 1466 -141 1094 79 
Q 722 300 520 692 
Q 319 1084 319 1563 
Q 319 2259 714 2950 
Q 1109 3641 1756 4077 
Q 2403 4513 3109 4513 
Q 3475 4513 3778 4381 
Q 4081 4250 4290 4017 
Q 4500 3784 4614 3471 
Q 4728 3159 4728 2791 
Q 4728 2366 4581 1936 
Q 4434 1506 4171 1136 
Q 3909 766 3559 484 
Q 3209 203 2809 38 
Q 2850 -256 2934 -425 
Q 3019 -594 3256 -594 
Q 3506 -594 3726 -412 
Q 3947 -231 4006 13 
Q 4019 72 4078 72 
Q 4147 72 4147 -13 
Q 4100 -219 4008 -430 
Q 3916 -641 3786 -823 
Q 3656 -1006 3478 -1123 
Q 3300 -1241 3084 -1241 
Q 2547 -1241 2547 -550 
Q 2547 -509 2562 -332 
Q 2578 -156 2578 -44 
Q 2269 -141 1947 -141 
z
M 1709 300 
Q 1709 44 1991 44 
Q 2275 44 2591 184 
L 2591 244 
Q 2591 503 2509 648 
Q 2428 794 2194 794 
Q 2078 794 1964 723 
Q 1850 653 1779 539 
Q 1709 425 1709 300 
z
M 1544 288 
Q 1544 456 1637 612 
Q 1731 769 1881 864 
Q 2031 959 2203 959 
Q 2481 959 2607 771 
Q 2734 584 2778 281 
Q 3188 525 3500 978 
Q 3813 1431 3977 1973 
Q 4141 2516 4141 3003 
Q 4141 3356 4023 3656 
Q 3906 3956 3664 4140 
Q 3422 4325 3066 4325 
Q 2722 4325 2403 4156 
Q 2084 3988 1813 3706 
Q 1550 3434 1342 3032 
Q 1134 2631 1021 2193 
Q 909 1756 909 1356 
Q 909 947 1068 612 
Q 1228 278 1569 128 
Q 1544 194 1544 288 
z
" transform="scale(0.015625)"/>
     <path id="Cmmi10-49" d="M 269 0 
Q 206 0 206 84 
Q 231 225 288 225 
Q 666 225 800 250 
Q 947 284 984 441 
L 1863 3956 
Q 1875 4019 1875 4038 
Q 1875 4078 1854 4095 
Q 1834 4113 1791 4122 
Q 1663 4147 1306 4147 
Q 1241 4147 1241 4231 
Q 1263 4313 1275 4342 
Q 1288 4372 1350 4372 
L 3138 4372 
Q 3200 4372 3200 4288 
Q 3197 4272 3187 4234 
Q 3178 4197 3162 4172 
Q 3147 4147 3116 4147 
Q 2741 4147 2597 4122 
Q 2456 4088 2419 3928 
L 1544 416 
Q 1528 338 1528 331 
Q 1528 316 1533 302 
Q 1538 288 1552 277 
Q 1566 266 1580 261 
Q 1594 256 1613 250 
Q 1734 225 2100 225 
Q 2163 225 2163 141 
Q 2141 50 2128 25 
Q 2116 0 2053 0 
L 269 0 
z
" transform="scale(0.015625)"/>
     <path id="Cmmi10-52" d="M 313 0 
Q 250 0 250 84 
Q 253 100 262 139 
Q 272 178 289 201 
Q 306 225 331 225 
Q 722 225 878 269 
Q 959 297 997 441 
L 1875 3956 
Q 1888 4019 1888 4044 
Q 1888 4113 1813 4122 
Q 1691 4147 1350 4147 
Q 1288 4147 1288 4231 
Q 1291 4247 1300 4286 
Q 1309 4325 1326 4348 
Q 1344 4372 1369 4372 
L 3309 4372 
Q 3541 4372 3791 4319 
Q 4041 4266 4250 4152 
Q 4459 4038 4593 3848 
Q 4728 3659 4728 3406 
Q 4728 3084 4515 2831 
Q 4303 2578 3978 2408 
Q 3653 2238 3347 2169 
Q 3597 2078 3756 1879 
Q 3916 1681 3916 1422 
Q 3916 1388 3914 1370 
Q 3913 1353 3909 1331 
L 3859 763 
Q 3853 638 3847 550 
Q 3841 463 3841 409 
Q 3841 234 3892 129 
Q 3944 25 4097 25 
Q 4297 25 4448 211 
Q 4600 397 4647 616 
Q 4675 672 4709 672 
L 4769 672 
Q 4831 672 4831 588 
Q 4784 403 4682 237 
Q 4581 72 4426 -34 
Q 4272 -141 4091 -141 
Q 3716 -141 3452 26 
Q 3188 194 3188 550 
Q 3188 684 3213 788 
L 3353 1356 
Q 3378 1434 3378 1538 
Q 3378 1803 3198 1954 
Q 3019 2106 2747 2106 
L 1959 2106 
L 1538 416 
Q 1522 363 1522 325 
Q 1522 259 1600 250 
Q 1722 225 2059 225 
Q 2125 225 2125 141 
Q 2103 50 2090 25 
Q 2078 0 2016 0 
L 313 0 
z
M 1997 2272 
L 2706 2272 
Q 3403 2272 3756 2625 
Q 3919 2788 4014 3039 
Q 4109 3291 4109 3541 
Q 4109 3778 3970 3912 
Q 3831 4047 3626 4097 
Q 3422 4147 3175 4147 
L 2747 4147 
Q 2572 4147 2515 4117 
Q 2459 4088 2413 3928 
L 1997 2272 
z
" transform="scale(0.015625)"/>
     <path id="Cmmi10-54" d="M 294 84 
Q 297 100 308 140 
Q 319 181 336 203 
Q 353 225 384 225 
Q 934 225 1113 256 
Q 1284 300 1319 441 
L 2194 3956 
Q 2222 4034 2222 4097 
Q 2222 4147 1997 4147 
L 1625 4147 
Q 1197 4147 964 4015 
Q 731 3884 622 3668 
Q 513 3453 341 2963 
Q 319 2906 275 2906 
L 219 2906 
Q 153 2906 153 2988 
L 609 4313 
Q 622 4372 672 4372 
L 4453 4372 
Q 4519 4372 4519 4288 
L 4306 2963 
Q 4306 2944 4284 2925 
Q 4263 2906 4244 2906 
L 4184 2906 
Q 4122 2906 4122 2988 
Q 4191 3441 4191 3628 
Q 4191 3853 4097 3968 
Q 4003 4084 3853 4115 
Q 3703 4147 3463 4147 
L 3084 4147 
Q 2913 4147 2853 4115 
Q 2794 4084 2753 3928 
L 1875 416 
Q 1872 403 1870 390 
Q 1869 378 1863 359 
Q 1863 278 1959 256 
Q 2125 225 2669 225 
Q 2731 225 2731 141 
Q 2709 50 2696 25 
Q 2684 0 2625 0 
L 359 0 
Q 294 0 294 84 
z
" transform="scale(0.015625)"/>
    </defs>
    <use xlink:href="#Cmr10-5f" transform="translate(21.86377 1.698438)"/>
    <use xlink:href="#Cmmi10-78" transform="translate(0 0.917188)"/>
    <use xlink:href="#Cmr10-31" transform="translate(61.544219 -16.089062) scale(0.7)"/>
    <use xlink:href="#Cmr10-3d" transform="translate(120.480156 0.917188)"/>
    <use xlink:href="#Cmmi10-78" transform="translate(215.724297 0.917188)"/>
    <use xlink:href="#Cmr10-32" transform="translate(272.804375 -16.089062) scale(0.7)"/>
    <use xlink:href="#Cmmi10-3b" transform="translate(314.181719 0.917188)"/>
    <use xlink:href="#Cmr10-5f" transform="translate(430.063891 1.698438)"/>
    <use xlink:href="#Cmmi10-78" transform="translate(408.200121 0.917188)"/>
    <use xlink:href="#Cmr10-32" transform="translate(469.74434 -16.089062) scale(0.7)"/>
    <use xlink:href="#Cmr10-3d" transform="translate(528.680277 0.917188)"/>
    <use xlink:href="#Cmmi10-75" transform="translate(623.924418 0.917188)"/>
    <use xlink:href="#Cmmi10-3b" transform="translate(681.102152 0.917188)"/>
    <use xlink:href="#Cmmi10-51" transform="translate(775.120555 0.917188)"/>
    <use xlink:href="#Cmr10-3d" transform="translate(871.683055 0.917188)"/>
    <use xlink:href="#Cmmi10-49" transform="translate(966.927195 0.917188)"/>
    <use xlink:href="#Cmmi10-3b" transform="translate(1010.82368 0.917188)"/>
    <use xlink:href="#Cmmi10-52" transform="translate(1104.842082 0.917188)"/>
    <use xlink:href="#Cmr10-3d" transform="translate(1198.279582 0.917188)"/>
    <use xlink:href="#Cmmi10-bd" transform="translate(1293.523723 0.917188)"/>
    <use xlink:href="#Cmmi10-3b" transform="translate(1345.232707 0.917188)"/>
    <use xlink:href="#Cmmi10-78" transform="translate(1439.251109 0.917188)"/>
    <use xlink:href="#Cmr10-30" transform="translate(1496.331188 -16.089062) scale(0.7)"/>
    <use xlink:href="#Cmr10-3d" transform="translate(1555.267125 0.917188)"/>
    <use xlink:href="#Cmr10-28" transform="translate(1650.511266 0.917188)"/>
    <use xlink:href="#Cmr10-31" transform="translate(1689.329625 0.917188)"/>
    <use xlink:href="#Cmmi10-3b" transform="translate(1739.329625 0.917188)"/>
    <use xlink:href="#Cmr10-30" transform="translate(1799.20622 0.917188)"/>
    <use xlink:href="#Cmr10-29" transform="translate(1849.20622 0.917188)"/>
    <use xlink:href="#Cmmi10-54" transform="translate(1892.48872 39.18125) scale(0.7)"/>
   </g>
  </g>
 </g>
 <defs>
  <clipPath id="p22f4907961">
   <rect x="56.655625" y="60.192" width="424.08" height="165.030698"/>
  </clipPath>
  <clipPath id="p940babc26f">
   <rect x="56.655625" y="249.977302" width="424.08" height="165.030698"/>
  </clipPath>
 </defs>
</svg>
