<?xml version="1.0" encoding="utf-8" standalone="no"?>
<!DOCTYPE svg PUBLIC "-//W3C//DTD SVG 1.1//EN"
  "http://www.w3.org/Graphics/SVG/1.1/DTD/svg11.dtd">
<svg xmlns:xlink="http://www.w3.org/1999/xlink" width="816.387078pt" height="394.56pt" viewBox="0 0 816.387078 394.56" xmlns="http://www.w3.org/2000/svg" version="1.1">
 <metadata>
  <rdf:RDF xmlns:dc="http://purl.org/dc/elements/1.1/" xmlns:cc="http://creativecommons.org/ns#" xmlns:rdf="http://www.w3.org/1999/02/22-rdf-syntax-ns#">
   <cc:Work>
    <dc:type rdf:resource="http://purl.org/dc/dcmitype/StillImage"/>
    <dc:date>2026-06-07T09:41:23.767857</dc:date>
    <dc:format>image/svg+xml</dc:format>
    <dc:creator>
     <cc:Agent>
      <dc:title>Matplotlib v3.10.8, https://matplotlib.org/</dc:title>
     </cc:Agent>
    </dc:creator>
   </cc:Work>
  </rdf:RDF>
 </metadata>
 <defs>
  <style type="text/css">*{stroke-linejoin: round; stroke-linecap: butt}</style>
 </defs>
 <g id="figure_1">
  <g id="patch_1">
   <path d="M 0 394.56 
L 816.387078 394.56 
L 816.387078 0 
L 0 0 
z
" style="fill: #ffffff"/>
  </g>
  <g id="axes_1">
   <g id="patch_2">
    <path d="M 122.238 173.718 
L 220.842 173.718 
L 220.842 124.416 
L 122.238 124.416 
z
" style="fill: #0072bd; fill-opacity: 0.12549; stroke: #0072bd; stroke-width: 2; stroke-linejoin: miter"/>
   </g>
   <g id="patch_3">
    <path d="M 122.238 305.19 
L 220.842 305.19 
L 220.842 255.888 
L 122.238 255.888 
z
" style="fill: #7e2f8e; fill-opacity: 0.12549; stroke: #7e2f8e; stroke-width: 2; stroke-linejoin: miter"/>
   </g>
   <g id="patch_4">
    <path d="M 17.0604 229.5936 
L 99.2304 229.5936 
L 99.2304 190.152 
L 17.0604 190.152 
z
" style="fill: #77ac30; fill-opacity: 0.12549; stroke: #77ac30; stroke-width: 2; stroke-linejoin: miter"/>
   </g>
   <g id="patch_5">
    <path d="M 243.8496 229.5936 
L 326.0196 229.5936 
L 326.0196 190.152 
L 243.8496 190.152 
z
" style="fill: #d95319; fill-opacity: 0.12549; stroke: #d95319; stroke-width: 2; stroke-linejoin: miter"/>
   </g>
   <g id="text_1">
    <!-- Plant -->
    <g style="fill: #0072bd" transform="translate(153.7275 152.37825) scale(0.12 -0.12)">
     <defs>
      <path id="DejaVuSerif-Bold-50" d="M 300 0 
L 300 378 
L 897 378 
L 897 4288 
L 300 4288 
L 300 4666 
L 2956 4666 
Q 3734 4666 4193 4295 
Q 4653 3925 4653 3303 
Q 4653 2678 4192 2304 
Q 3731 1931 2956 1931 
L 2100 1931 
L 2100 378 
L 2853 378 
L 2853 0 
L 300 0 
z
M 2100 2309 
L 2450 2309 
Q 2856 2309 3098 2579 
Q 3341 2850 3341 3303 
Q 3341 3753 3100 4020 
Q 2859 4288 2450 4288 
L 2100 4288 
L 2100 2309 
z
" transform="scale(0.015625)"/>
      <path id="DejaVuSerif-Bold-6c" d="M 1797 378 
L 2272 378 
L 2272 0 
L 219 0 
L 219 378 
L 691 378 
L 691 4488 
L 219 4488 
L 219 4863 
L 1797 4863 
L 1797 378 
z
" transform="scale(0.015625)"/>
      <path id="DejaVuSerif-Bold-61" d="M 3525 2041 
L 3525 378 
L 4000 378 
L 4000 0 
L 2419 0 
L 2419 422 
Q 2200 159 1931 34 
Q 1663 -91 1319 -91 
Q 809 -91 536 182 
Q 263 456 263 966 
Q 263 1525 655 1803 
Q 1047 2081 1838 2081 
L 2419 2081 
L 2419 2278 
Q 2419 2681 2228 2873 
Q 2038 3066 1638 3066 
Q 1306 3066 1126 2930 
Q 947 2794 872 2484 
L 519 2484 
L 519 3200 
Q 816 3306 1134 3359 
Q 1453 3413 1806 3413 
Q 2697 3413 3111 3081 
Q 3525 2750 3525 2041 
z
M 2419 1044 
L 2419 1709 
L 2003 1709 
Q 1694 1709 1528 1540 
Q 1363 1372 1363 1056 
Q 1363 741 1483 584 
Q 1603 428 1850 428 
Q 2106 428 2262 597 
Q 2419 766 2419 1044 
z
" transform="scale(0.015625)"/>
      <path id="DejaVuSerif-Bold-6e" d="M 219 0 
L 219 378 
L 691 378 
L 691 2944 
L 219 2944 
L 219 3322 
L 1797 3322 
L 1797 2853 
Q 1997 3150 2253 3281 
Q 2509 3413 2900 3413 
Q 3459 3413 3745 3083 
Q 4031 2753 4031 2113 
L 4031 378 
L 4506 378 
L 4506 0 
L 2522 0 
L 2522 378 
L 2925 378 
L 2925 2144 
Q 2925 2566 2817 2730 
Q 2709 2894 2444 2894 
Q 2109 2894 1953 2648 
Q 1797 2403 1797 1869 
L 1797 378 
L 2203 378 
L 2203 0 
L 219 0 
z
" transform="scale(0.015625)"/>
      <path id="DejaVuSerif-Bold-74" d="M 634 2944 
L 153 2944 
L 153 3322 
L 634 3322 
L 634 4353 
L 1741 4353 
L 1741 3322 
L 2663 3322 
L 2663 2944 
L 1741 2944 
L 1741 909 
Q 1741 475 1809 369 
Q 1878 263 2059 263 
Q 2259 263 2356 397 
Q 2453 531 2459 813 
L 2925 813 
Q 2897 313 2651 111 
Q 2406 -91 1806 -91 
Q 1122 -91 878 123 
Q 634 338 634 909 
L 634 2944 
z
" transform="scale(0.015625)"/>
     </defs>
     <use xlink:href="#DejaVuSerif-Bold-50"/>
     <use xlink:href="#DejaVuSerif-Bold-6c" transform="translate(75.195312 0)"/>
     <use xlink:href="#DejaVuSerif-Bold-61" transform="translate(113.183594 0)"/>
     <use xlink:href="#DejaVuSerif-Bold-6e" transform="translate(177.978516 0)"/>
     <use xlink:href="#DejaVuSerif-Bold-74" transform="translate(250.683594 0)"/>
    </g>
   </g>
   <g id="text_2">
    <!-- Controller -->
    <g style="fill: #7e2f8e" transform="translate(136.928438 283.85025) scale(0.12 -0.12)">
     <defs>
      <path id="DejaVuSerif-Bold-43" d="M 4769 1331 
Q 4584 609 4106 259 
Q 3628 -91 2822 -91 
Q 1641 -91 955 561 
Q 269 1213 269 2328 
Q 269 3447 955 4098 
Q 1641 4750 2822 4750 
Q 3238 4750 3688 4650 
Q 4138 4550 4641 4347 
L 4641 3200 
L 4244 3200 
Q 4122 3788 3800 4080 
Q 3478 4372 2950 4372 
Q 2269 4372 1937 3870 
Q 1606 3369 1606 2328 
Q 1606 1288 1937 788 
Q 2269 288 2956 288 
Q 3422 288 3717 547 
Q 4013 806 4147 1331 
L 4769 1331 
z
" transform="scale(0.015625)"/>
      <path id="DejaVuSerif-Bold-6f" d="M 2138 263 
Q 2488 263 2630 563 
Q 2772 863 2772 1663 
Q 2772 2463 2631 2761 
Q 2491 3059 2138 3059 
Q 1784 3059 1640 2757 
Q 1497 2456 1497 1663 
Q 1497 869 1640 566 
Q 1784 263 2138 263 
z
M 2138 -91 
Q 1259 -91 761 376 
Q 263 844 263 1663 
Q 263 2484 761 2948 
Q 1259 3413 2138 3413 
Q 3019 3413 3516 2948 
Q 4013 2484 4013 1663 
Q 4013 844 3514 376 
Q 3016 -91 2138 -91 
z
" transform="scale(0.015625)"/>
      <path id="DejaVuSerif-Bold-72" d="M 3438 3359 
L 3438 2369 
L 3084 2369 
Q 3066 2634 2941 2764 
Q 2816 2894 2578 2894 
Q 2216 2894 2006 2575 
Q 1797 2256 1797 1691 
L 1797 378 
L 2400 378 
L 2400 0 
L 219 0 
L 219 378 
L 691 378 
L 691 2944 
L 184 2944 
L 184 3322 
L 1797 3322 
L 1797 2731 
Q 1959 3078 2226 3245 
Q 2494 3413 2881 3413 
Q 2978 3413 3117 3398 
Q 3256 3384 3438 3359 
z
" transform="scale(0.015625)"/>
      <path id="DejaVuSerif-Bold-65" d="M 2566 1875 
Q 2566 2531 2444 2795 
Q 2322 3059 2028 3059 
Q 1744 3059 1620 2800 
Q 1497 2541 1497 1931 
L 1497 1875 
L 2566 1875 
z
M 3781 1503 
L 1497 1503 
L 1497 1478 
Q 1497 834 1690 548 
Q 1884 263 2316 263 
Q 2675 263 2897 453 
Q 3119 644 3181 1006 
L 3700 1006 
Q 3566 441 3166 175 
Q 2766 -91 2047 -91 
Q 1184 -91 723 364 
Q 263 819 263 1663 
Q 263 2488 734 2950 
Q 1206 3413 2047 3413 
Q 2872 3413 3312 2927 
Q 3753 2441 3781 1503 
z
" transform="scale(0.015625)"/>
     </defs>
     <use xlink:href="#DejaVuSerif-Bold-43"/>
     <use xlink:href="#DejaVuSerif-Bold-6f" transform="translate(79.589844 0)"/>
     <use xlink:href="#DejaVuSerif-Bold-6e" transform="translate(146.289062 0)"/>
     <use xlink:href="#DejaVuSerif-Bold-74" transform="translate(218.994141 0)"/>
     <use xlink:href="#DejaVuSerif-Bold-72" transform="translate(265.185547 0)"/>
     <use xlink:href="#DejaVuSerif-Bold-6f" transform="translate(317.871094 0)"/>
     <use xlink:href="#DejaVuSerif-Bold-6c" transform="translate(384.570312 0)"/>
     <use xlink:href="#DejaVuSerif-Bold-6c" transform="translate(422.558594 0)"/>
     <use xlink:href="#DejaVuSerif-Bold-65" transform="translate(460.546875 0)"/>
     <use xlink:href="#DejaVuSerif-Bold-72" transform="translate(524.169922 0)"/>
    </g>
   </g>
   <g id="text_3">
    <!-- Sensor -->
    <g style="fill: #77ac30" transform="translate(35.091338 213.18405) scale(0.12 -0.12)">
     <defs>
      <path id="DejaVuSerif-Bold-53" d="M 494 225 
L 494 1331 
L 891 1331 
Q 981 806 1318 547 
Q 1656 288 2253 288 
Q 2738 288 2991 472 
Q 3244 656 3244 1013 
Q 3244 1294 3072 1450 
Q 2900 1606 2363 1741 
L 1663 1913 
Q 978 2088 700 2398 
Q 422 2709 422 3284 
Q 422 3978 883 4364 
Q 1344 4750 2175 4750 
Q 2584 4750 3026 4681 
Q 3469 4613 3944 4475 
L 3944 3444 
L 3547 3444 
Q 3456 3925 3150 4148 
Q 2844 4372 2278 4372 
Q 1816 4372 1580 4211 
Q 1344 4050 1344 3731 
Q 1344 3441 1506 3289 
Q 1669 3138 2303 2975 
L 3003 2803 
Q 3653 2641 3945 2297 
Q 4238 1953 4238 1350 
Q 4238 644 3750 276 
Q 3263 -91 2316 -91 
Q 1859 -91 1409 -12 
Q 959 66 494 225 
z
" transform="scale(0.015625)"/>
      <path id="DejaVuSerif-Bold-73" d="M 300 97 
L 300 1025 
L 653 1025 
Q 697 653 931 458 
Q 1166 263 1569 263 
Q 1906 263 2086 380 
Q 2266 497 2266 716 
Q 2266 916 2152 1025 
Q 2038 1134 1709 1216 
L 1253 1331 
Q 738 1459 506 1698 
Q 275 1938 275 2344 
Q 275 2884 650 3148 
Q 1025 3413 1806 3413 
Q 2100 3413 2433 3364 
Q 2766 3316 3169 3213 
L 3169 2375 
L 2816 2375 
Q 2788 2716 2573 2887 
Q 2359 3059 1959 3059 
Q 1622 3059 1448 2951 
Q 1275 2844 1275 2638 
Q 1275 2469 1375 2372 
Q 1475 2275 1734 2209 
L 2188 2094 
Q 2841 1928 3091 1684 
Q 3341 1441 3341 1006 
Q 3341 444 2939 176 
Q 2538 -91 1691 -91 
Q 1381 -91 1034 -44 
Q 688 3 300 97 
z
" transform="scale(0.015625)"/>
     </defs>
     <use xlink:href="#DejaVuSerif-Bold-53"/>
     <use xlink:href="#DejaVuSerif-Bold-65" transform="translate(72.216797 0)"/>
     <use xlink:href="#DejaVuSerif-Bold-6e" transform="translate(135.839844 0)"/>
     <use xlink:href="#DejaVuSerif-Bold-73" transform="translate(208.544922 0)"/>
     <use xlink:href="#DejaVuSerif-Bold-6f" transform="translate(264.84375 0)"/>
     <use xlink:href="#DejaVuSerif-Bold-72" transform="translate(331.542969 0)"/>
    </g>
   </g>
   <g id="text_4">
    <!-- Actuator -->
    <g style="fill: #d95319" transform="translate(255.6696 213.18405) scale(0.12 -0.12)">
     <defs>
      <path id="DejaVuSerif-Bold-41" d="M -50 0 
L -50 378 
L 331 378 
L 2088 4666 
L 2834 4666 
L 4594 378 
L 5038 378 
L 5038 0 
L 2853 0 
L 2853 378 
L 3309 378 
L 2925 1331 
L 1172 1331 
L 781 378 
L 1338 378 
L 1338 0 
L -50 0 
z
M 1325 1709 
L 2772 1709 
L 2053 3494 
L 1325 1709 
z
" transform="scale(0.015625)"/>
      <path id="DejaVuSerif-Bold-63" d="M 3609 1038 
Q 3491 469 3123 189 
Q 2756 -91 2125 -91 
Q 1238 -91 750 368 
Q 263 828 263 1663 
Q 263 2488 744 2950 
Q 1225 3413 2081 3413 
Q 2428 3413 2781 3347 
Q 3134 3281 3500 3150 
L 3500 2228 
L 3150 2228 
Q 3100 2650 2903 2854 
Q 2706 3059 2350 3059 
Q 1888 3059 1692 2746 
Q 1497 2434 1497 1663 
Q 1497 909 1687 586 
Q 1878 263 2309 263 
Q 2644 263 2845 463 
Q 3047 663 3091 1038 
L 3609 1038 
z
" transform="scale(0.015625)"/>
      <path id="DejaVuSerif-Bold-75" d="M 3963 3322 
L 3963 378 
L 4434 378 
L 4434 0 
L 2853 0 
L 2853 469 
Q 2656 172 2400 40 
Q 2144 -91 1753 -91 
Q 1194 -91 908 239 
Q 622 569 622 1209 
L 622 2944 
L 147 2944 
L 147 3322 
L 1728 3322 
L 1728 1381 
Q 1728 763 1831 595 
Q 1934 428 2209 428 
Q 2544 428 2698 675 
Q 2853 922 2853 1459 
L 2853 2944 
L 2450 2944 
L 2450 3322 
L 3963 3322 
z
" transform="scale(0.015625)"/>
     </defs>
     <use xlink:href="#DejaVuSerif-Bold-41"/>
     <use xlink:href="#DejaVuSerif-Bold-63" transform="translate(77.587891 0)"/>
     <use xlink:href="#DejaVuSerif-Bold-74" transform="translate(138.476562 0)"/>
     <use xlink:href="#DejaVuSerif-Bold-75" transform="translate(184.667969 0)"/>
     <use xlink:href="#DejaVuSerif-Bold-61" transform="translate(257.373047 0)"/>
     <use xlink:href="#DejaVuSerif-Bold-74" transform="translate(322.167969 0)"/>
     <use xlink:href="#DejaVuSerif-Bold-6f" transform="translate(368.359375 0)"/>
     <use xlink:href="#DejaVuSerif-Bold-72" transform="translate(435.058594 0)"/>
    </g>
   </g>
   <g id="patch_6">
    <path d="M 120.235507 209.8728 
Q 110.734235 209.8728 103.46903 209.8728 
" style="fill: none; stroke: #0072bd; stroke-width: 2; stroke-linecap: round"/>
    <path d="M 109.06903 212.6728 
L 103.46903 209.8728 
L 109.06903 207.0728 
" style="fill: none; stroke: #0072bd; stroke-width: 2; stroke-linecap: round"/>
   </g>
   <g id="patch_7">
    <path d="M 58.1454 231.593284 
Q 58.1454 242.739731 58.1454 251.650109 
" style="fill: none; stroke: #77ac30; stroke-width: 2; stroke-linecap: round"/>
    <path d="M 60.9454 246.050109 
L 58.1454 251.650109 
L 55.3454 246.050109 
" style="fill: none; stroke: #77ac30; stroke-width: 2; stroke-linecap: round"/>
   </g>
   <g id="patch_8">
    <path d="M 60.042672 259.807224 
Q 90.193209 269.857403 118.222425 279.200475 
" style="fill: none; stroke: #77ac30; stroke-width: 2; stroke-linecap: round"/>
    <path d="M 113.795236 274.773286 
L 118.222425 279.200475 
L 112.024361 280.085913 
" style="fill: none; stroke: #77ac30; stroke-width: 2; stroke-linecap: round"/>
   </g>
   <g id="patch_9">
    <path d="M 222.739272 279.906576 
Q 252.889809 269.856397 280.919025 260.513325 
" style="fill: none; stroke: #d95319; stroke-width: 2; stroke-linecap: round"/>
    <path d="M 274.720961 259.627887 
L 280.919025 260.513325 
L 276.491836 264.940514 
" style="fill: none; stroke: #d95319; stroke-width: 2; stroke-linecap: round"/>
   </g>
   <g id="patch_10">
    <path d="M 284.9346 227.595521 
Q 284.9346 209.872468 284.9346 194.385482 
" style="fill: none; stroke: #d95319; stroke-width: 2; stroke-linecap: round"/>
    <path d="M 282.1346 199.985482 
L 284.9346 194.385482 
L 287.7346 199.985482 
" style="fill: none; stroke: #d95319; stroke-width: 2; stroke-linecap: round"/>
   </g>
   <g id="patch_11">
    <path d="M 283.115566 186.025646 
Q 252.885292 172.073212 224.685277 159.05782 
" style="fill: none; stroke: #d95319; stroke-width: 2; stroke-linecap: round"/>
    <path d="M 228.596487 163.946832 
L 224.685277 159.05782 
L 230.943213 158.86226 
" style="fill: none; stroke: #d95319; stroke-width: 2; stroke-linecap: round"/>
   </g>
   <g id="text_5">
    <g id="patch_12">
     <path d="M 111.926875 383.599169 
L 231.153125 383.599169 
Q 235.553125 383.599169 235.553125 379.199169 
L 235.553125 356.235637 
Q 235.553125 351.835637 231.153125 351.835637 
L 111.926875 351.835637 
Q 107.526875 351.835637 107.526875 356.235637 
L 107.526875 379.199169 
Q 107.526875 383.599169 111.926875 383.599169 
z
" style="fill: #77ac30; fill-opacity: 0.082353; stroke: #77ac30; stroke-linejoin: miter"/>
    </g>
    <!-- Sensor reads without -->
    <g style="fill: #77ac30" transform="translate(111.926875 364.437512) scale(0.11 -0.11)">
     <defs>
      <path id="DejaVuSerif-Italic-53" d="M 184 225 
L 391 1288 
L 750 1284 
Q 663 753 905 498 
Q 1147 244 1744 244 
Q 2300 244 2636 464 
Q 2972 684 3053 1106 
Q 3119 1444 2976 1625 
Q 2834 1806 2300 1978 
L 1722 2163 
Q 1091 2366 877 2669 
Q 663 2972 766 3500 
Q 881 4094 1367 4422 
Q 1853 4750 2616 4750 
Q 2941 4750 3314 4679 
Q 3688 4609 4097 4475 
L 3906 3481 
L 3553 3481 
Q 3594 3975 3361 4195 
Q 3128 4416 2563 4416 
Q 2069 4416 1772 4214 
Q 1475 4013 1400 3628 
Q 1334 3294 1490 3103 
Q 1647 2913 2241 2725 
L 2784 2553 
Q 3381 2363 3593 2067 
Q 3806 1772 3709 1275 
Q 3578 597 3076 253 
Q 2575 -91 1716 -91 
Q 1331 -91 948 -12 
Q 566 66 184 225 
z
" transform="scale(0.015625)"/>
      <path id="DejaVuSerif-Italic-65" d="M 938 1275 
Q 925 1156 925 1050 
Q 925 756 1031 563 
Q 1216 219 1709 219 
Q 2072 219 2250 328 
Q 2569 525 2644 778 
L 3066 778 
Q 2941 381 2475 103 
Q 2150 -91 1506 -91 
Q 863 -91 516 388 
Q 272 722 272 1206 
Q 272 1419 319 1659 
Q 472 2450 1000 2931 
Q 1528 3413 2278 3413 
Q 3500 3413 3500 2547 
Q 3500 1913 2859 1603 
Q 2206 1288 938 1275 
z
M 2541 1975 
Q 2891 2181 2891 2569 
Q 2891 3103 2181 3103 
Q 1763 3103 1472 2784 
Q 1181 2466 1003 1606 
Q 2006 1653 2541 1975 
z
" transform="scale(0.015625)"/>
      <path id="DejaVuSerif-Italic-6e" d="M 450 0 
L 1031 2988 
L 481 2988 
L 544 3322 
L 1669 3322 
L 1556 2731 
Q 1781 3069 2068 3241 
Q 2356 3413 2694 3413 
Q 3244 3413 3444 3097 
Q 3563 2906 3563 2588 
Q 3563 2378 3509 2113 
L 3163 331 
L 3675 331 
L 3613 0 
L 2522 0 
L 2897 1931 
Q 2959 2253 2959 2469 
Q 2959 2659 2909 2769 
Q 2803 2994 2425 2994 
Q 2025 2994 1759 2701 
Q 1494 2409 1384 1850 
L 1025 0 
L 450 0 
z
" transform="scale(0.015625)"/>
      <path id="DejaVuSerif-Italic-73" d="M 222 959 
L 553 959 
Q 541 869 541 788 
Q 541 219 1313 219 
Q 2088 219 2200 788 
Q 2209 844 2209 944 
Q 2209 1041 2103 1158 
Q 1997 1275 1550 1428 
L 1159 1569 
Q 759 1706 629 1882 
Q 500 2059 500 2263 
Q 500 2344 516 2438 
Q 606 2894 990 3153 
Q 1375 3413 1931 3413 
Q 2484 3413 3066 3144 
L 2925 2419 
L 2594 2419 
Q 2606 2491 2606 2553 
Q 2606 2781 2448 2942 
Q 2291 3103 1925 3103 
Q 1191 3103 1091 2591 
Q 1078 2538 1078 2444 
Q 1078 2347 1179 2237 
Q 1281 2128 1678 1997 
L 2106 1856 
Q 2550 1709 2716 1488 
Q 2831 1331 2831 1178 
Q 2831 522 2306 181 
Q 1894 -91 1262 -91 
Q 631 -91 72 184 
L 222 959 
z
" transform="scale(0.015625)"/>
      <path id="DejaVuSerif-Italic-6f" d="M 1644 219 
Q 2106 219 2414 584 
Q 2722 950 2859 1663 
Q 2922 1988 2922 2241 
Q 2922 2541 2834 2738 
Q 2669 3103 2206 3103 
Q 1744 3103 1436 2739 
Q 1128 2375 991 1663 
Q 928 1338 928 1088 
Q 928 784 1019 584 
Q 1184 219 1644 219 
z
M 1584 -91 
Q 859 -91 513 388 
Q 272 722 272 1203 
Q 272 1419 319 1663 
Q 472 2456 1005 2934 
Q 1538 3413 2266 3413 
Q 2994 3413 3341 2934 
Q 3578 2603 3578 2122 
Q 3578 1906 3531 1663 
Q 3378 869 2845 389 
Q 2313 -91 1584 -91 
z
" transform="scale(0.015625)"/>
      <path id="DejaVuSerif-Italic-72" d="M 3375 3328 
L 3213 2497 
L 2881 2497 
Q 2891 2559 2891 2613 
Q 2891 2775 2816 2866 
Q 2719 2988 2484 2988 
Q 2059 2988 1775 2694 
Q 1491 2400 1384 1850 
L 1025 0 
L 450 0 
L 1031 2994 
L 481 2994 
L 544 3322 
L 1669 3322 
L 1556 2731 
Q 1791 3078 2089 3245 
Q 2388 3413 2769 3413 
Q 2909 3413 3059 3391 
Q 3209 3369 3375 3328 
z
" transform="scale(0.015625)"/>
      <path id="DejaVuSerif-Italic-20" transform="scale(0.015625)"/>
      <path id="DejaVuSerif-Italic-61" d="M 2325 519 
Q 1909 -91 1238 -91 
Q 688 -91 409 281 
Q 216 544 216 919 
Q 216 1078 250 1256 
Q 463 2359 1231 2928 
Q 1884 3413 2675 3413 
Q 3206 3413 3388 3322 
L 2806 331 
L 3300 331 
L 3238 0 
L 2225 0 
L 2325 519 
z
M 822 938 
Q 822 269 1469 269 
Q 1863 269 2130 583 
Q 2397 897 2516 1497 
L 2806 3003 
L 2806 3003 
Q 2806 3094 2556 3094 
Q 1956 3094 1491 2625 
Q 1028 2153 863 1297 
Q 822 1097 822 938 
z
" transform="scale(0.015625)"/>
      <path id="DejaVuSerif-Italic-64" d="M 3841 4863 
L 2897 0 
L 2322 0 
L 2422 519 
Q 2191 206 1902 57 
Q 1613 -91 1228 -91 
Q 616 -91 322 394 
Q 125 716 125 1166 
Q 125 1397 178 1663 
Q 331 2444 812 2928 
Q 1294 3413 1909 3413 
Q 2294 3413 2525 3264 
Q 2756 3116 2866 2803 
L 3200 4531 
L 2656 4531 
L 2722 4863 
L 3841 4863 
z
M 2613 1497 
L 2675 1825 
Q 2722 2069 2722 2266 
Q 2722 2550 2622 2738 
Q 2456 3053 2019 3053 
Q 1575 3053 1279 2703 
Q 984 2353 850 1663 
Q 788 1347 788 1103 
Q 788 813 875 622 
Q 1031 269 1475 269 
Q 1913 269 2203 583 
Q 2494 897 2613 1497 
z
" transform="scale(0.015625)"/>
      <path id="DejaVuSerif-Italic-77" d="M 3741 728 
Q 4156 1178 4250 1344 
Q 4594 1969 4931 2988 
L 4447 2984 
L 4513 3322 
L 5347 3322 
L 5281 2984 
L 5278 2984 
Q 4959 1825 4656 1266 
Q 4209 469 3719 0 
L 3241 0 
L 2900 2484 
L 1597 0 
L 1138 0 
L 734 2988 
L 359 2981 
L 425 3322 
L 1281 3322 
L 1631 728 
L 2991 3322 
L 3394 3322 
L 3741 728 
z
" transform="scale(0.015625)"/>
      <path id="DejaVuSerif-Italic-69" d="M 1009 4353 
Q 1038 4497 1163 4603 
Q 1288 4709 1434 4709 
Q 1578 4709 1663 4603 
Q 1728 4522 1728 4422 
Q 1728 4388 1719 4353 
Q 1691 4206 1567 4103 
Q 1444 4000 1297 4000 
Q 1150 4000 1066 4103 
Q 1003 4181 1003 4281 
Q 1003 4316 1009 4353 
z
M 963 331 
L 1506 331 
L 1444 0 
L 325 0 
L 903 2988 
L 353 2988 
L 419 3322 
L 1544 3322 
L 963 331 
z
" transform="scale(0.015625)"/>
      <path id="DejaVuSerif-Italic-74" d="M 856 2988 
L 350 2988 
L 416 3322 
L 922 3322 
L 1122 4353 
L 1700 4353 
L 1500 3322 
L 2581 3322 
L 2516 2988 
L 1434 2988 
L 1025 878 
Q 978 631 978 488 
Q 978 388 1000 338 
Q 1059 219 1278 219 
Q 1503 219 1633 351 
Q 1763 484 1825 781 
L 2259 781 
Q 2147 328 1884 118 
Q 1622 -91 1169 -91 
Q 672 -91 506 131 
Q 406 266 406 516 
Q 406 675 447 878 
L 856 2988 
z
" transform="scale(0.015625)"/>
      <path id="DejaVuSerif-Italic-68" d="M 309 0 
L 1191 4531 
L 641 4531 
L 703 4863 
L 1828 4863 
L 1416 2731 
Q 1641 3069 1928 3241 
Q 2216 3413 2553 3413 
Q 3103 3413 3300 3097 
Q 3422 2906 3422 2588 
Q 3422 2378 3369 2113 
L 3022 331 
L 3534 331 
L 3472 0 
L 2381 0 
L 2756 1931 
Q 2819 2253 2819 2469 
Q 2819 2659 2769 2763 
Q 2666 2988 2284 2988 
Q 1884 2988 1617 2697 
Q 1350 2406 1244 1850 
L 884 0 
L 309 0 
z
" transform="scale(0.015625)"/>
      <path id="DejaVuSerif-Italic-75" d="M 3097 3322 
L 3672 3322 
L 3091 331 
L 3634 331 
L 3572 0 
L 2453 0 
L 2566 588 
Q 2341 256 2055 82 
Q 1769 -91 1434 -91 
Q 881 -91 681 225 
Q 559 413 559 734 
Q 559 944 613 1209 
L 956 2988 
L 438 2988 
L 503 3322 
L 1600 3322 
L 1225 1388 
Q 1163 1066 1163 853 
Q 1163 663 1213 556 
Q 1316 331 1697 331 
Q 2097 331 2364 625 
Q 2631 919 2738 1478 
L 3097 3322 
z
" transform="scale(0.015625)"/>
     </defs>
     <use xlink:href="#DejaVuSerif-Italic-53"/>
     <use xlink:href="#DejaVuSerif-Italic-65" transform="translate(68.505859 0)"/>
     <use xlink:href="#DejaVuSerif-Italic-6e" transform="translate(127.685547 0)"/>
     <use xlink:href="#DejaVuSerif-Italic-73" transform="translate(192.089844 0)"/>
     <use xlink:href="#DejaVuSerif-Italic-6f" transform="translate(243.408203 0)"/>
     <use xlink:href="#DejaVuSerif-Italic-72" transform="translate(303.613281 0)"/>
     <use xlink:href="#DejaVuSerif-Italic-20" transform="translate(351.416016 0)"/>
     <use xlink:href="#DejaVuSerif-Italic-72" transform="translate(383.203125 0)"/>
     <use xlink:href="#DejaVuSerif-Italic-65" transform="translate(431.005859 0)"/>
     <use xlink:href="#DejaVuSerif-Italic-61" transform="translate(490.185547 0)"/>
     <use xlink:href="#DejaVuSerif-Italic-64" transform="translate(549.804688 0)"/>
     <use xlink:href="#DejaVuSerif-Italic-73" transform="translate(613.818359 0)"/>
     <use xlink:href="#DejaVuSerif-Italic-20" transform="translate(665.136719 0)"/>
     <use xlink:href="#DejaVuSerif-Italic-77" transform="translate(696.923828 0)"/>
     <use xlink:href="#DejaVuSerif-Italic-69" transform="translate(782.519531 0)"/>
     <use xlink:href="#DejaVuSerif-Italic-74" transform="translate(814.501953 0)"/>
     <use xlink:href="#DejaVuSerif-Italic-68" transform="translate(854.6875 0)"/>
     <use xlink:href="#DejaVuSerif-Italic-6f" transform="translate(919.091797 0)"/>
     <use xlink:href="#DejaVuSerif-Italic-75" transform="translate(979.296875 0)"/>
     <use xlink:href="#DejaVuSerif-Italic-74" transform="translate(1043.701172 0)"/>
    </g>
    <!-- disturbing the plant -->
    <g style="fill: #77ac30" transform="translate(115.897188 376.755106) scale(0.11 -0.11)">
     <defs>
      <path id="DejaVuSerif-Italic-62" d="M 1153 4531 
L 600 4531 
L 666 4863 
L 1794 4863 
L 1394 2803 
Q 1622 3116 1912 3264 
Q 2203 3413 2588 3413 
Q 3200 3413 3494 2928 
Q 3688 2609 3688 2163 
Q 3688 1928 3634 1663 
Q 3481 881 3000 395 
Q 2519 -91 1906 -91 
Q 1522 -91 1289 57 
Q 1056 206 950 519 
L 850 0 
L 275 0 
L 1153 4531 
z
M 1141 1497 
Q 1091 1250 1091 1053 
Q 1091 769 1191 581 
Q 1359 269 1797 269 
Q 2238 269 2533 622 
Q 2828 975 2963 1663 
Q 3025 1978 3025 2225 
Q 3025 2513 2938 2703 
Q 2781 3053 2338 3053 
Q 1900 3053 1609 2737 
Q 1319 2422 1203 1825 
L 1141 1497 
z
" transform="scale(0.015625)"/>
      <path id="DejaVuSerif-Italic-67" d="M 3822 3322 
L 3188 72 
Q 3044 -672 2581 -1031 
Q 2078 -1422 1381 -1422 
Q 1053 -1422 765 -1362 
Q 478 -1303 225 -1184 
L 363 -488 
L 663 -488 
Q 653 -813 834 -963 
Q 1016 -1113 1406 -1113 
Q 1913 -1113 2203 -825 
Q 2494 -544 2613 72 
L 2700 519 
Q 2472 206 2181 57 
Q 1891 -91 1525 -91 
Q 975 -91 697 281 
Q 522 516 503 841 
Q 491 1031 534 1256 
Q 750 2359 1516 2928 
Q 2169 3409 2931 3413 
Q 3631 3416 3822 3322 
z
M 3184 2988 
Q 3181 3094 2844 3094 
Q 2234 3094 1775 2625 
Q 1316 2153 1147 1297 
Q 1100 1044 1113 853 
Q 1125 659 1203 528 
Q 1356 269 1756 269 
Q 2194 269 2484 583 
Q 2775 897 2891 1497 
L 2953 1825 
L 3184 2988 
z
" transform="scale(0.015625)"/>
      <path id="DejaVuSerif-Italic-70" d="M 1466 1825 
L 1400 1497 
Q 1353 1250 1353 1053 
Q 1353 769 1453 581 
Q 1622 269 2059 269 
Q 2500 269 2795 622 
Q 3091 975 3225 1663 
Q 3284 1978 3284 2225 
Q 3284 2513 3200 2703 
Q 3041 3053 2600 3053 
Q 2163 3053 1872 2737 
Q 1581 2422 1466 1825 
z
M 1116 2988 
L 563 2988 
L 628 3322 
L 1756 3322 
L 1656 2803 
Q 1884 3116 2175 3264 
Q 2466 3413 2850 3413 
Q 3463 3413 3753 2928 
Q 3947 2609 3947 2163 
Q 3947 1928 3897 1663 
Q 3744 881 3262 395 
Q 2781 -91 2169 -91 
Q 1784 -91 1551 57 
Q 1319 206 1213 519 
L 850 -1331 
L 275 -1331 
L 1116 2988 
z
" transform="scale(0.015625)"/>
      <path id="DejaVuSerif-Italic-6c" d="M 903 331 
L 1447 331 
L 1384 0 
L 266 0 
L 1147 4531 
L 594 4531 
L 656 4863 
L 1784 4863 
L 903 331 
z
" transform="scale(0.015625)"/>
     </defs>
     <use xlink:href="#DejaVuSerif-Italic-64"/>
     <use xlink:href="#DejaVuSerif-Italic-69" transform="translate(64.013672 0)"/>
     <use xlink:href="#DejaVuSerif-Italic-73" transform="translate(95.996094 0)"/>
     <use xlink:href="#DejaVuSerif-Italic-74" transform="translate(147.314453 0)"/>
     <use xlink:href="#DejaVuSerif-Italic-75" transform="translate(187.5 0)"/>
     <use xlink:href="#DejaVuSerif-Italic-72" transform="translate(251.904297 0)"/>
     <use xlink:href="#DejaVuSerif-Italic-62" transform="translate(299.707031 0)"/>
     <use xlink:href="#DejaVuSerif-Italic-69" transform="translate(363.720703 0)"/>
     <use xlink:href="#DejaVuSerif-Italic-6e" transform="translate(395.703125 0)"/>
     <use xlink:href="#DejaVuSerif-Italic-67" transform="translate(460.107422 0)"/>
     <use xlink:href="#DejaVuSerif-Italic-20" transform="translate(524.121094 0)"/>
     <use xlink:href="#DejaVuSerif-Italic-74" transform="translate(555.908203 0)"/>
     <use xlink:href="#DejaVuSerif-Italic-68" transform="translate(596.09375 0)"/>
     <use xlink:href="#DejaVuSerif-Italic-65" transform="translate(660.498047 0)"/>
     <use xlink:href="#DejaVuSerif-Italic-20" transform="translate(719.677734 0)"/>
     <use xlink:href="#DejaVuSerif-Italic-70" transform="translate(751.464844 0)"/>
     <use xlink:href="#DejaVuSerif-Italic-6c" transform="translate(815.478516 0)"/>
     <use xlink:href="#DejaVuSerif-Italic-61" transform="translate(847.460938 0)"/>
     <use xlink:href="#DejaVuSerif-Italic-6e" transform="translate(907.080078 0)"/>
     <use xlink:href="#DejaVuSerif-Italic-74" transform="translate(971.484375 0)"/>
    </g>
   </g>
   <g id="text_6">
    <!-- Engineering feedback -->
    <g transform="translate(93.433125 48.68) scale(0.14 -0.14)">
     <defs>
      <path id="DejaVuSerif-45" d="M 353 0 
L 353 331 
L 947 331 
L 947 4331 
L 353 4331 
L 353 4666 
L 4109 4666 
L 4109 3628 
L 3725 3628 
L 3725 4281 
L 1581 4281 
L 1581 2719 
L 3109 2719 
L 3109 3303 
L 3494 3303 
L 3494 1753 
L 3109 1753 
L 3109 2338 
L 1581 2338 
L 1581 384 
L 3775 384 
L 3775 1038 
L 4159 1038 
L 4159 0 
L 353 0 
z
" transform="scale(0.015625)"/>
      <path id="DejaVuSerif-6e" d="M 263 0 
L 263 331 
L 781 331 
L 781 2988 
L 231 2988 
L 231 3322 
L 1356 3322 
L 1356 2731 
Q 1516 3069 1770 3241 
Q 2025 3413 2363 3413 
Q 2913 3413 3172 3097 
Q 3431 2781 3431 2113 
L 3431 331 
L 3944 331 
L 3944 0 
L 2356 0 
L 2356 331 
L 2853 331 
L 2853 1931 
Q 2853 2541 2703 2767 
Q 2553 2994 2175 2994 
Q 1775 2994 1565 2701 
Q 1356 2409 1356 1850 
L 1356 331 
L 1856 331 
L 1856 0 
L 263 0 
z
" transform="scale(0.015625)"/>
      <path id="DejaVuSerif-67" d="M 3359 2988 
L 3359 72 
Q 3359 -644 2965 -1033 
Q 2572 -1422 1844 -1422 
Q 1516 -1422 1216 -1362 
Q 916 -1303 641 -1184 
L 641 -488 
L 941 -488 
Q 997 -813 1206 -963 
Q 1416 -1113 1806 -1113 
Q 2313 -1113 2548 -827 
Q 2784 -541 2784 72 
L 2784 519 
Q 2616 206 2355 57 
Q 2094 -91 1709 -91 
Q 1097 -91 708 395 
Q 319 881 319 1663 
Q 319 2444 706 2928 
Q 1094 3413 1709 3413 
Q 2094 3413 2355 3264 
Q 2616 3116 2784 2803 
L 2784 3322 
L 3909 3322 
L 3909 2988 
L 3359 2988 
z
M 2784 1825 
Q 2784 2422 2554 2737 
Q 2325 3053 1888 3053 
Q 1444 3053 1217 2703 
Q 991 2353 991 1663 
Q 991 975 1217 622 
Q 1444 269 1888 269 
Q 2325 269 2554 583 
Q 2784 897 2784 1497 
L 2784 1825 
z
" transform="scale(0.015625)"/>
      <path id="DejaVuSerif-69" d="M 622 4353 
Q 622 4497 726 4603 
Q 831 4709 978 4709 
Q 1122 4709 1226 4603 
Q 1331 4497 1331 4353 
Q 1331 4206 1228 4103 
Q 1125 4000 978 4000 
Q 831 4000 726 4103 
Q 622 4206 622 4353 
z
M 1356 331 
L 1900 331 
L 1900 0 
L 231 0 
L 231 331 
L 781 331 
L 781 2988 
L 231 2988 
L 231 3322 
L 1356 3322 
L 1356 331 
z
" transform="scale(0.015625)"/>
      <path id="DejaVuSerif-65" d="M 3469 1600 
L 991 1600 
L 991 1575 
Q 991 903 1244 561 
Q 1497 219 1991 219 
Q 2369 219 2611 417 
Q 2853 616 2950 1006 
L 3413 1006 
Q 3275 459 2904 184 
Q 2534 -91 1931 -91 
Q 1203 -91 761 389 
Q 319 869 319 1663 
Q 319 2450 753 2931 
Q 1188 3413 1894 3413 
Q 2647 3413 3050 2948 
Q 3453 2484 3469 1600 
z
M 2791 1931 
Q 2772 2513 2545 2808 
Q 2319 3103 1894 3103 
Q 1497 3103 1269 2806 
Q 1041 2509 991 1931 
L 2791 1931 
z
" transform="scale(0.015625)"/>
      <path id="DejaVuSerif-72" d="M 3059 3328 
L 3059 2497 
L 2728 2497 
Q 2713 2744 2591 2866 
Q 2469 2988 2234 2988 
Q 1809 2988 1582 2694 
Q 1356 2400 1356 1850 
L 1356 331 
L 2022 331 
L 2022 0 
L 263 0 
L 263 331 
L 781 331 
L 781 2994 
L 231 2994 
L 231 3322 
L 1356 3322 
L 1356 2731 
Q 1525 3078 1790 3245 
Q 2056 3413 2438 3413 
Q 2578 3413 2733 3391 
Q 2888 3369 3059 3328 
z
" transform="scale(0.015625)"/>
      <path id="DejaVuSerif-20" transform="scale(0.015625)"/>
      <path id="DejaVuSerif-66" d="M 2753 4078 
L 2450 4078 
Q 2447 4313 2317 4434 
Q 2188 4556 1941 4556 
Q 1619 4556 1487 4379 
Q 1356 4203 1356 3750 
L 1356 3322 
L 2284 3322 
L 2284 2988 
L 1356 2988 
L 1356 331 
L 2094 331 
L 2094 0 
L 231 0 
L 231 331 
L 781 331 
L 781 2988 
L 231 2988 
L 231 3322 
L 781 3322 
L 781 3738 
Q 781 4294 1070 4578 
Q 1359 4863 1919 4863 
Q 2128 4863 2337 4825 
Q 2547 4788 2753 4709 
L 2753 4078 
z
" transform="scale(0.015625)"/>
      <path id="DejaVuSerif-64" d="M 3359 331 
L 3909 331 
L 3909 0 
L 2784 0 
L 2784 519 
Q 2616 206 2355 57 
Q 2094 -91 1709 -91 
Q 1097 -91 708 395 
Q 319 881 319 1663 
Q 319 2444 706 2928 
Q 1094 3413 1709 3413 
Q 2094 3413 2355 3264 
Q 2616 3116 2784 2803 
L 2784 4531 
L 2241 4531 
L 2241 4863 
L 3359 4863 
L 3359 331 
z
M 2784 1497 
L 2784 1825 
Q 2784 2422 2554 2737 
Q 2325 3053 1888 3053 
Q 1444 3053 1217 2703 
Q 991 2353 991 1663 
Q 991 975 1217 622 
Q 1444 269 1888 269 
Q 2325 269 2554 583 
Q 2784 897 2784 1497 
z
" transform="scale(0.015625)"/>
      <path id="DejaVuSerif-62" d="M 738 331 
L 738 4531 
L 184 4531 
L 184 4863 
L 1313 4863 
L 1313 2803 
Q 1481 3116 1742 3264 
Q 2003 3413 2388 3413 
Q 3000 3413 3387 2928 
Q 3775 2444 3775 1663 
Q 3775 881 3387 395 
Q 3000 -91 2388 -91 
Q 2003 -91 1742 57 
Q 1481 206 1313 519 
L 1313 0 
L 184 0 
L 184 331 
L 738 331 
z
M 1313 1497 
Q 1313 897 1542 583 
Q 1772 269 2209 269 
Q 2650 269 2876 622 
Q 3103 975 3103 1663 
Q 3103 2353 2876 2703 
Q 2650 3053 2209 3053 
Q 1772 3053 1542 2737 
Q 1313 2422 1313 1825 
L 1313 1497 
z
" transform="scale(0.015625)"/>
      <path id="DejaVuSerif-61" d="M 2547 1044 
L 2547 1747 
L 1806 1747 
Q 1378 1747 1168 1562 
Q 959 1378 959 997 
Q 959 650 1171 447 
Q 1384 244 1747 244 
Q 2106 244 2326 466 
Q 2547 688 2547 1044 
z
M 3122 2075 
L 3122 331 
L 3634 331 
L 3634 0 
L 2547 0 
L 2547 359 
Q 2356 128 2106 18 
Q 1856 -91 1522 -91 
Q 969 -91 644 203 
Q 319 497 319 997 
Q 319 1513 691 1797 
Q 1063 2081 1741 2081 
L 2547 2081 
L 2547 2309 
Q 2547 2688 2317 2895 
Q 2088 3103 1672 3103 
Q 1328 3103 1125 2947 
Q 922 2791 872 2484 
L 575 2484 
L 575 3156 
Q 875 3284 1158 3348 
Q 1441 3413 1709 3413 
Q 2400 3413 2761 3070 
Q 3122 2728 3122 2075 
z
" transform="scale(0.015625)"/>
      <path id="DejaVuSerif-63" d="M 3291 997 
Q 3169 466 2822 187 
Q 2475 -91 1925 -91 
Q 1200 -91 759 389 
Q 319 869 319 1663 
Q 319 2459 759 2936 
Q 1200 3413 1925 3413 
Q 2241 3413 2553 3339 
Q 2866 3266 3181 3116 
L 3181 2266 
L 2847 2266 
Q 2781 2703 2561 2903 
Q 2341 3103 1931 3103 
Q 1466 3103 1228 2742 
Q 991 2381 991 1663 
Q 991 944 1227 581 
Q 1463 219 1931 219 
Q 2303 219 2525 412 
Q 2747 606 2828 997 
L 3291 997 
z
" transform="scale(0.015625)"/>
      <path id="DejaVuSerif-6b" d="M 1831 0 
L 219 0 
L 219 331 
L 738 331 
L 738 4531 
L 184 4531 
L 184 4863 
L 1313 4863 
L 1313 1697 
L 2713 2988 
L 2234 2988 
L 2234 3322 
L 3738 3322 
L 3738 2988 
L 3169 2988 
L 2181 2075 
L 3444 331 
L 3922 331 
L 3922 0 
L 2284 0 
L 2284 331 
L 2759 331 
L 1766 1697 
L 1313 1275 
L 1313 331 
L 1831 331 
L 1831 0 
z
" transform="scale(0.015625)"/>
     </defs>
     <use xlink:href="#DejaVuSerif-45"/>
     <use xlink:href="#DejaVuSerif-6e" transform="translate(72.998047 0)"/>
     <use xlink:href="#DejaVuSerif-67" transform="translate(137.402344 0)"/>
     <use xlink:href="#DejaVuSerif-69" transform="translate(201.416016 0)"/>
     <use xlink:href="#DejaVuSerif-6e" transform="translate(233.398438 0)"/>
     <use xlink:href="#DejaVuSerif-65" transform="translate(297.802734 0)"/>
     <use xlink:href="#DejaVuSerif-65" transform="translate(356.982422 0)"/>
     <use xlink:href="#DejaVuSerif-72" transform="translate(416.162109 0)"/>
     <use xlink:href="#DejaVuSerif-69" transform="translate(463.964844 0)"/>
     <use xlink:href="#DejaVuSerif-6e" transform="translate(495.947266 0)"/>
     <use xlink:href="#DejaVuSerif-67" transform="translate(560.351562 0)"/>
     <use xlink:href="#DejaVuSerif-20" transform="translate(624.365234 0)"/>
     <use xlink:href="#DejaVuSerif-66" transform="translate(656.152344 0)"/>
     <use xlink:href="#DejaVuSerif-65" transform="translate(693.164062 0)"/>
     <use xlink:href="#DejaVuSerif-65" transform="translate(752.34375 0)"/>
     <use xlink:href="#DejaVuSerif-64" transform="translate(811.523438 0)"/>
     <use xlink:href="#DejaVuSerif-62" transform="translate(875.537109 0)"/>
     <use xlink:href="#DejaVuSerif-61" transform="translate(939.550781 0)"/>
     <use xlink:href="#DejaVuSerif-63" transform="translate(999.169922 0)"/>
     <use xlink:href="#DejaVuSerif-6b" transform="translate(1055.175781 0)"/>
    </g>
   </g>
  </g>
  <g id="axes_2">
   <g id="patch_13">
    <path d="M 565.891953 173.718 
L 664.495953 173.718 
L 664.495953 124.416 
L 565.891953 124.416 
z
" style="fill: #0072bd; fill-opacity: 0.12549; stroke: #0072bd; stroke-width: 2; stroke-linejoin: miter"/>
   </g>
   <g id="patch_14">
    <path d="M 565.891953 305.19 
L 664.495953 305.19 
L 664.495953 255.888 
L 565.891953 255.888 
z
" style="fill: #7e2f8e; fill-opacity: 0.12549; stroke: #7e2f8e; stroke-width: 2; stroke-linejoin: miter"/>
   </g>
   <g id="text_7">
    <!-- Species $X$ -->
    <g style="fill: #0072bd" transform="translate(582.613953 152.367) scale(0.12 -0.12)">
     <defs>
      <path id="DejaVuSerif-Bold-70" d="M 1728 1825 
L 1728 1497 
Q 1728 916 1876 656 
Q 2025 397 2356 397 
Q 2697 397 2836 672 
Q 2975 947 2975 1663 
Q 2975 2378 2836 2651 
Q 2697 2925 2356 2925 
Q 2025 2925 1876 2665 
Q 1728 2406 1728 1825 
z
M 622 2944 
L 147 2944 
L 147 3322 
L 1728 3322 
L 1728 2900 
Q 1869 3159 2106 3286 
Q 2344 3413 2694 3413 
Q 3403 3413 3811 2945 
Q 4219 2478 4219 1663 
Q 4219 847 3811 378 
Q 3403 -91 2694 -91 
Q 2344 -91 2106 36 
Q 1869 163 1728 422 
L 1728 -953 
L 2241 -953 
L 2241 -1331 
L 147 -1331 
L 147 -953 
L 622 -953 
L 622 2944 
z
" transform="scale(0.015625)"/>
      <path id="DejaVuSerif-Bold-69" d="M 588 4263 
Q 588 4516 763 4689 
Q 938 4863 1191 4863 
Q 1438 4863 1611 4689 
Q 1784 4516 1784 4263 
Q 1784 4016 1611 3842 
Q 1438 3669 1191 3669 
Q 938 3669 763 3841 
Q 588 4013 588 4263 
z
M 1797 378 
L 2272 378 
L 2272 0 
L 219 0 
L 219 378 
L 691 378 
L 691 2944 
L 219 2944 
L 219 3322 
L 1797 3322 
L 1797 378 
z
" transform="scale(0.015625)"/>
      <path id="DejaVuSerif-Bold-20" transform="scale(0.015625)"/>
      <path id="Cmmi10-58" d="M 231 0 
Q 166 0 166 84 
Q 169 100 180 140 
Q 191 181 208 203 
Q 225 225 256 225 
Q 838 225 1253 659 
Q 1259 666 1267 669 
Q 1275 672 1275 672 
L 2675 2181 
L 1913 4019 
Q 1847 4103 1700 4125 
Q 1553 4147 1356 4147 
Q 1294 4147 1294 4231 
Q 1316 4313 1328 4342 
Q 1341 4372 1403 4372 
L 3003 4372 
Q 3066 4372 3066 4288 
Q 3063 4272 3052 4231 
Q 3041 4191 3023 4169 
Q 3006 4147 2975 4147 
Q 2856 4147 2729 4108 
Q 2603 4069 2553 3981 
L 3103 2656 
L 4153 3781 
Q 4163 3803 4197 3858 
Q 4231 3913 4231 3963 
Q 4231 4056 4150 4101 
Q 4069 4147 3956 4147 
Q 3891 4147 3891 4231 
Q 3913 4313 3925 4342 
Q 3938 4372 4000 4372 
L 5388 4372 
Q 5422 4372 5437 4347 
Q 5453 4322 5453 4288 
Q 5450 4272 5440 4234 
Q 5431 4197 5415 4172 
Q 5400 4147 5369 4147 
Q 5072 4147 4823 4039 
Q 4575 3931 4366 3713 
Q 4363 3709 4358 3707 
Q 4353 3706 4347 3700 
L 3188 2450 
L 4063 353 
Q 4166 225 4622 225 
Q 4684 225 4684 141 
Q 4663 56 4648 28 
Q 4634 0 4575 0 
L 2975 0 
Q 2913 0 2913 84 
Q 2916 100 2925 139 
Q 2934 178 2951 201 
Q 2969 225 2994 225 
Q 3119 225 3247 264 
Q 3375 303 3425 391 
L 2759 1984 
L 1466 588 
Q 1456 566 1422 512 
Q 1388 459 1388 409 
Q 1388 316 1475 270 
Q 1563 225 1663 225 
Q 1728 225 1728 141 
Q 1706 50 1693 25 
Q 1681 0 1619 0 
L 231 0 
z
" transform="scale(0.015625)"/>
     </defs>
     <use xlink:href="#DejaVuSerif-Bold-53" transform="translate(0 0.015625)"/>
     <use xlink:href="#DejaVuSerif-Bold-70" transform="translate(72.216797 0.015625)"/>
     <use xlink:href="#DejaVuSerif-Bold-65" transform="translate(142.138672 0.015625)"/>
     <use xlink:href="#DejaVuSerif-Bold-63" transform="translate(205.761719 0.015625)"/>
     <use xlink:href="#DejaVuSerif-Bold-69" transform="translate(266.650391 0.015625)"/>
     <use xlink:href="#DejaVuSerif-Bold-65" transform="translate(304.638672 0.015625)"/>
     <use xlink:href="#DejaVuSerif-Bold-73" transform="translate(368.261719 0.015625)"/>
     <use xlink:href="#DejaVuSerif-Bold-20" transform="translate(424.560547 0.015625)"/>
     <use xlink:href="#Cmmi10-58" transform="translate(459.375 0.015625)"/>
    </g>
   </g>
   <g id="text_8">
    <!-- Controller -->
    <g style="fill: #7e2f8e" transform="translate(583.466688 277.415516) scale(0.11 -0.11)">
     <use xlink:href="#DejaVuSerif-Bold-43"/>
     <use xlink:href="#DejaVuSerif-Bold-6f" transform="translate(79.589844 0)"/>
     <use xlink:href="#DejaVuSerif-Bold-6e" transform="translate(146.289062 0)"/>
     <use xlink:href="#DejaVuSerif-Bold-74" transform="translate(218.994141 0)"/>
     <use xlink:href="#DejaVuSerif-Bold-72" transform="translate(265.185547 0)"/>
     <use xlink:href="#DejaVuSerif-Bold-6f" transform="translate(317.871094 0)"/>
     <use xlink:href="#DejaVuSerif-Bold-6c" transform="translate(384.570312 0)"/>
     <use xlink:href="#DejaVuSerif-Bold-6c" transform="translate(422.558594 0)"/>
     <use xlink:href="#DejaVuSerif-Bold-65" transform="translate(460.546875 0)"/>
     <use xlink:href="#DejaVuSerif-Bold-72" transform="translate(524.169922 0)"/>
    </g>
    <!-- molecules -->
    <g style="fill: #7e2f8e" transform="translate(584.084578 289.733109) scale(0.11 -0.11)">
     <defs>
      <path id="DejaVuSerif-Bold-6d" d="M 3884 2778 
Q 4116 3109 4384 3261 
Q 4653 3413 5013 3413 
Q 5584 3413 5867 3089 
Q 6150 2766 6150 2113 
L 6150 378 
L 6625 378 
L 6625 0 
L 4647 0 
L 4647 378 
L 5044 378 
L 5044 1947 
Q 5044 2569 4948 2731 
Q 4853 2894 4594 2894 
Q 4300 2894 4137 2667 
Q 3975 2441 3975 2022 
L 3975 378 
L 4372 378 
L 4372 0 
L 2472 0 
L 2472 378 
L 2869 378 
L 2869 1947 
Q 2869 2569 2772 2731 
Q 2675 2894 2419 2894 
Q 2122 2894 1959 2667 
Q 1797 2441 1797 2022 
L 1797 378 
L 2194 378 
L 2194 0 
L 219 0 
L 219 378 
L 691 378 
L 691 2944 
L 219 2944 
L 219 3322 
L 1797 3322 
L 1797 2853 
Q 1991 3144 2241 3278 
Q 2491 3413 2834 3413 
Q 3241 3413 3494 3258 
Q 3747 3103 3884 2778 
z
" transform="scale(0.015625)"/>
     </defs>
     <use xlink:href="#DejaVuSerif-Bold-6d"/>
     <use xlink:href="#DejaVuSerif-Bold-6f" transform="translate(105.810547 0)"/>
     <use xlink:href="#DejaVuSerif-Bold-6c" transform="translate(172.509766 0)"/>
     <use xlink:href="#DejaVuSerif-Bold-65" transform="translate(210.498047 0)"/>
     <use xlink:href="#DejaVuSerif-Bold-63" transform="translate(274.121094 0)"/>
     <use xlink:href="#DejaVuSerif-Bold-75" transform="translate(335.009766 0)"/>
     <use xlink:href="#DejaVuSerif-Bold-6c" transform="translate(407.714844 0)"/>
     <use xlink:href="#DejaVuSerif-Bold-65" transform="translate(445.703125 0)"/>
     <use xlink:href="#DejaVuSerif-Bold-73" transform="translate(509.326172 0)"/>
    </g>
   </g>
   <g id="patch_15">
    <path d="M 563.889862 149.067 
Q 533.024585 149.067 504.395376 149.067 
" style="fill: none; stroke: #0072bd; stroke-width: 2; stroke-linecap: round"/>
    <path d="M 509.995376 151.867 
L 504.395376 149.067 
L 509.995376 146.267 
" style="fill: none; stroke: #0072bd; stroke-width: 2; stroke-linecap: round"/>
   </g>
   <g id="text_9">
    <!-- $X$ -->
    <g style="fill: #0072bd" transform="translate(460.714353 152.654188) scale(0.13 -0.13)">
     <use xlink:href="#Cmmi10-58" transform="translate(0 0.6875)"/>
    </g>
   </g>
   <g id="patch_16">
    <path d="M 500.155953 159.281327 
Q 500.155953 218.909181 500.155953 276.300967 
" style="fill: none; stroke: #666666; stroke-width: 2; stroke-linecap: round"/>
    <path d="M 502.955953 270.700967 
L 500.155953 276.300967 
L 497.355953 270.700967 
" style="fill: none; stroke: #666666; stroke-width: 2; stroke-linecap: round"/>
   </g>
   <g id="patch_17">
    <path d="M 502.158045 280.539 
Q 533.023322 280.539 561.652531 280.539 
" style="fill: none; stroke: #7e2f8e; stroke-width: 2; stroke-linecap: round"/>
    <path d="M 556.052531 277.739 
L 561.652531 280.539 
L 556.052531 283.339 
" style="fill: none; stroke: #7e2f8e; stroke-width: 2; stroke-linecap: round"/>
   </g>
   <g id="patch_18">
    <path d="M 666.498045 280.539 
Q 697.363322 280.539 725.992531 280.539 
" style="fill: none; stroke: #7e2f8e; stroke-width: 2; stroke-linecap: round"/>
    <path d="M 720.392531 277.739 
L 725.992531 280.539 
L 720.392531 283.339 
" style="fill: none; stroke: #7e2f8e; stroke-width: 2; stroke-linecap: round"/>
   </g>
   <g id="patch_19">
    <path d="M 730.231953 270.324422 
Q 730.231953 214.802905 730.231953 161.517456 
" style="fill: none; stroke: #666666; stroke-width: 2; stroke-linecap: round"/>
    <path d="M 727.431953 167.117456 
L 730.231953 161.517456 
L 733.031953 167.117456 
" style="fill: none; stroke: #666666; stroke-width: 2; stroke-linecap: round"/>
   </g>
   <g id="patch_20">
    <path d="M 728.245911 157.035745 
Q 697.36508 153.175641 668.703049 149.592887 
" style="fill: none; stroke: #d95319; stroke-width: 2; stroke-linecap: round"/>
    <path d="M 673.912508 153.06586 
L 668.703049 149.592887 
L 674.607103 147.509103 
" style="fill: none; stroke: #d95319; stroke-width: 2; stroke-linecap: round"/>
   </g>
   <g id="patch_21">
    <path d="M 486.268302 211.89547 
Q 492.278034 209.597854 496.721294 207.899125 
" style="fill: none; stroke: #a2142f; stroke-width: 1.5; stroke-linecap: round"/>
    <path d="M 492.270826 207.459427 
L 496.721294 207.899125 
L 493.699255 211.195681 
" style="fill: none; stroke: #a2142f; stroke-width: 1.5; stroke-linecap: round"/>
   </g>
   <g id="text_10">
    <!-- Sensing -->
    <g style="fill: #a2142f" transform="translate(428.581297 216.914312) scale(0.1 -0.1)">
     <defs>
      <path id="DejaVuSerif-Bold-67" d="M 3853 2944 
L 3853 44 
Q 3853 -656 3354 -1039 
Q 2856 -1422 1947 -1422 
Q 1616 -1422 1275 -1370 
Q 934 -1319 575 -1216 
L 575 -422 
L 928 -422 
Q 975 -750 1192 -909 
Q 1409 -1069 1813 -1069 
Q 2325 -1069 2536 -823 
Q 2747 -578 2747 44 
L 2747 422 
Q 2606 163 2367 36 
Q 2128 -91 1778 -91 
Q 1072 -91 667 378 
Q 263 847 263 1663 
Q 263 2481 667 2947 
Q 1072 3413 1778 3413 
Q 2128 3413 2367 3286 
Q 2606 3159 2747 2900 
L 2747 3322 
L 4325 3322 
L 4325 2944 
L 3853 2944 
z
M 2747 1825 
Q 2747 2406 2597 2665 
Q 2447 2925 2119 2925 
Q 1775 2925 1636 2651 
Q 1497 2378 1497 1663 
Q 1497 947 1637 672 
Q 1778 397 2119 397 
Q 2447 397 2597 656 
Q 2747 916 2747 1497 
L 2747 1825 
z
" transform="scale(0.015625)"/>
     </defs>
     <use xlink:href="#DejaVuSerif-Bold-53"/>
     <use xlink:href="#DejaVuSerif-Bold-65" transform="translate(72.216797 0)"/>
     <use xlink:href="#DejaVuSerif-Bold-6e" transform="translate(135.839844 0)"/>
     <use xlink:href="#DejaVuSerif-Bold-73" transform="translate(208.544922 0)"/>
     <use xlink:href="#DejaVuSerif-Bold-69" transform="translate(264.84375 0)"/>
     <use xlink:href="#DejaVuSerif-Bold-6e" transform="translate(302.832031 0)"/>
     <use xlink:href="#DejaVuSerif-Bold-67" transform="translate(375.537109 0)"/>
    </g>
    <!-- consumes/ -->
    <g style="fill: #a2142f" transform="translate(421.275828 228.254312) scale(0.1 -0.1)">
     <defs>
      <path id="DejaVuSerif-Bold-2f" d="M 1644 4666 
L 2338 4666 
L 691 -594 
L 0 -594 
L 1644 4666 
z
" transform="scale(0.015625)"/>
     </defs>
     <use xlink:href="#DejaVuSerif-Bold-63"/>
     <use xlink:href="#DejaVuSerif-Bold-6f" transform="translate(60.888672 0)"/>
     <use xlink:href="#DejaVuSerif-Bold-6e" transform="translate(127.587891 0)"/>
     <use xlink:href="#DejaVuSerif-Bold-73" transform="translate(200.292969 0)"/>
     <use xlink:href="#DejaVuSerif-Bold-75" transform="translate(256.591797 0)"/>
     <use xlink:href="#DejaVuSerif-Bold-6d" transform="translate(329.296875 0)"/>
     <use xlink:href="#DejaVuSerif-Bold-65" transform="translate(435.107422 0)"/>
     <use xlink:href="#DejaVuSerif-Bold-73" transform="translate(498.730469 0)"/>
     <use xlink:href="#DejaVuSerif-Bold-2f" transform="translate(555.029297 0)"/>
    </g>
    <!-- produces $X$ -->
    <g style="fill: #a2142f" transform="translate(419.303953 239.454) scale(0.1 -0.1)">
     <defs>
      <path id="DejaVuSerif-Bold-64" d="M 2747 1497 
L 2747 1825 
Q 2747 2406 2597 2665 
Q 2447 2925 2119 2925 
Q 1775 2925 1636 2651 
Q 1497 2378 1497 1663 
Q 1497 947 1637 672 
Q 1778 397 2119 397 
Q 2447 397 2597 656 
Q 2747 916 2747 1497 
z
M 3853 378 
L 4325 378 
L 4325 0 
L 2747 0 
L 2747 422 
Q 2606 163 2367 36 
Q 2128 -91 1778 -91 
Q 1072 -91 667 378 
Q 263 847 263 1663 
Q 263 2481 667 2947 
Q 1072 3413 1778 3413 
Q 2128 3413 2367 3286 
Q 2606 3159 2747 2900 
L 2747 4488 
L 2272 4488 
L 2272 4863 
L 3853 4863 
L 3853 378 
z
" transform="scale(0.015625)"/>
     </defs>
     <use xlink:href="#DejaVuSerif-Bold-70" transform="translate(0 0.015625)"/>
     <use xlink:href="#DejaVuSerif-Bold-72" transform="translate(69.921875 0.015625)"/>
     <use xlink:href="#DejaVuSerif-Bold-6f" transform="translate(122.607422 0.015625)"/>
     <use xlink:href="#DejaVuSerif-Bold-64" transform="translate(189.306641 0.015625)"/>
     <use xlink:href="#DejaVuSerif-Bold-75" transform="translate(259.228516 0.015625)"/>
     <use xlink:href="#DejaVuSerif-Bold-63" transform="translate(331.933594 0.015625)"/>
     <use xlink:href="#DejaVuSerif-Bold-65" transform="translate(392.822266 0.015625)"/>
     <use xlink:href="#DejaVuSerif-Bold-73" transform="translate(456.445312 0.015625)"/>
     <use xlink:href="#DejaVuSerif-Bold-20" transform="translate(512.744141 0.015625)"/>
     <use xlink:href="#Cmmi10-58" transform="translate(547.558594 0.015625)"/>
    </g>
   </g>
   <g id="patch_22">
    <path d="M 746.014955 212.6399 
Q 739.057872 209.971366 733.666606 207.903433 
" style="fill: none; stroke: #a2142f; stroke-width: 1.5; stroke-linecap: round"/>
    <path d="M 736.685035 211.203294 
L 733.666606 207.903433 
L 738.117552 207.468606 
" style="fill: none; stroke: #a2142f; stroke-width: 1.5; stroke-linecap: round"/>
   </g>
   <g id="text_11">
    <!-- Actuation -->
    <g style="fill: #a2142f" transform="translate(752.246453 217.058375) scale(0.1 -0.1)">
     <use xlink:href="#DejaVuSerif-Bold-41"/>
     <use xlink:href="#DejaVuSerif-Bold-63" transform="translate(77.587891 0)"/>
     <use xlink:href="#DejaVuSerif-Bold-74" transform="translate(138.476562 0)"/>
     <use xlink:href="#DejaVuSerif-Bold-75" transform="translate(184.667969 0)"/>
     <use xlink:href="#DejaVuSerif-Bold-61" transform="translate(257.373047 0)"/>
     <use xlink:href="#DejaVuSerif-Bold-74" transform="translate(322.167969 0)"/>
     <use xlink:href="#DejaVuSerif-Bold-69" transform="translate(368.359375 0)"/>
     <use xlink:href="#DejaVuSerif-Bold-6f" transform="translate(406.347656 0)"/>
     <use xlink:href="#DejaVuSerif-Bold-6e" transform="translate(473.046875 0)"/>
    </g>
    <!-- adds noise -->
    <g style="fill: #a2142f" transform="translate(749.880828 228.256187) scale(0.1 -0.1)">
     <use xlink:href="#DejaVuSerif-Bold-61"/>
     <use xlink:href="#DejaVuSerif-Bold-64" transform="translate(64.794922 0)"/>
     <use xlink:href="#DejaVuSerif-Bold-64" transform="translate(134.716797 0)"/>
     <use xlink:href="#DejaVuSerif-Bold-73" transform="translate(204.638672 0)"/>
     <use xlink:href="#DejaVuSerif-Bold-20" transform="translate(260.9375 0)"/>
     <use xlink:href="#DejaVuSerif-Bold-6e" transform="translate(295.751953 0)"/>
     <use xlink:href="#DejaVuSerif-Bold-6f" transform="translate(368.457031 0)"/>
     <use xlink:href="#DejaVuSerif-Bold-69" transform="translate(435.15625 0)"/>
     <use xlink:href="#DejaVuSerif-Bold-73" transform="translate(473.144531 0)"/>
     <use xlink:href="#DejaVuSerif-Bold-65" transform="translate(529.443359 0)"/>
    </g>
    <!-- to $X$ -->
    <g style="fill: #a2142f" transform="translate(767.983953 239.454) scale(0.1 -0.1)">
     <use xlink:href="#DejaVuSerif-Bold-74" transform="translate(0 0.6875)"/>
     <use xlink:href="#DejaVuSerif-Bold-6f" transform="translate(46.191406 0.6875)"/>
     <use xlink:href="#DejaVuSerif-Bold-20" transform="translate(112.890625 0.6875)"/>
     <use xlink:href="#Cmmi10-58" transform="translate(147.705078 0.6875)"/>
    </g>
   </g>
   <g id="text_12">
    <g id="patch_23">
     <path d="M 518.829657 383.599169 
L 711.55825 383.599169 
Q 715.95825 383.599169 715.95825 379.199169 
L 715.95825 355.922825 
Q 715.95825 351.522825 711.55825 351.522825 
L 518.829657 351.522825 
Q 514.429657 351.522825 514.429657 355.922825 
L 514.429657 379.199169 
Q 514.429657 383.599169 518.829657 383.599169 
z
" style="fill: #a2142f; fill-opacity: 0.062745; stroke: #a2142f; stroke-linejoin: miter"/>
    </g>
    <!-- Every measurement and actuation -->
    <g style="fill: #a2142f" transform="translate(519.056532 364.437512) scale(0.11 -0.11)">
     <defs>
      <path id="DejaVuSerif-Italic-45" d="M -97 0 
L -34 331 
L 559 331 
L 1338 4331 
L 744 4331 
L 809 4666 
L 4566 4666 
L 4366 3628 
L 3981 3628 
L 4106 4281 
L 1963 4281 
L 1659 2719 
L 3188 2719 
L 3300 3303 
L 3684 3303 
L 3384 1753 
L 3000 1753 
L 3113 2338 
L 1584 2338 
L 1206 384 
L 3400 384 
L 3525 1038 
L 3909 1038 
L 3709 0 
L -97 0 
z
" transform="scale(0.015625)"/>
      <path id="DejaVuSerif-Italic-76" d="M 1681 0 
L 1259 0 
L 619 2988 
L 241 2988 
L 303 3322 
L 1163 3322 
L 1725 703 
Q 2084 1016 2325 1413 
Q 2825 2238 3003 2988 
L 2622 2988 
L 2688 3322 
L 3547 3322 
Q 3206 2034 2775 1313 
Q 2400 688 1681 0 
z
" transform="scale(0.015625)"/>
      <path id="DejaVuSerif-Italic-79" d="M 3681 3294 
Q 3372 1506 2828 563 
Q 2031 -822 1391 -1238 
Q 1106 -1422 356 -1422 
Q 209 -1422 60 -1397 
Q -88 -1372 -238 -1325 
L -113 -691 
L 181 -691 
Q 175 -741 175 -788 
Q 175 -919 231 -994 
Q 309 -1100 513 -1100 
Q 1063 -1100 1541 -622 
L 756 2988 
L 378 2988 
L 444 3322 
L 1303 3322 
L 2041 25 
Q 2544 778 2666 1088 
Q 3059 2059 3138 2959 
L 2759 2959 
L 2825 3294 
L 3681 3294 
z
" transform="scale(0.015625)"/>
      <path id="DejaVuSerif-Italic-6d" d="M 3503 2675 
Q 3741 3041 4034 3227 
Q 4328 3413 4672 3413 
Q 5194 3413 5388 3088 
Q 5503 2894 5503 2578 
Q 5503 2372 5453 2113 
L 5106 331 
L 5625 331 
L 5563 0 
L 4469 0 
L 4866 2047 
Q 4913 2291 4913 2466 
Q 4913 2659 4856 2772 
Q 4750 2988 4403 2988 
Q 4019 2988 3761 2697 
Q 3503 2406 3394 1850 
L 3034 0 
L 2459 0 
L 2863 2069 
Q 2906 2303 2906 2472 
Q 2906 2666 2850 2775 
Q 2741 2988 2394 2988 
Q 2009 2988 1751 2697 
Q 1494 2406 1384 1850 
L 1025 0 
L 450 0 
L 1031 2994 
L 481 2994 
L 544 3322 
L 1669 3322 
L 1556 2731 
Q 1778 3063 2059 3238 
Q 2341 3413 2653 3413 
Q 3041 3413 3262 3220 
Q 3484 3028 3503 2675 
z
" transform="scale(0.015625)"/>
      <path id="DejaVuSerif-Italic-63" d="M 3163 997 
Q 2938 466 2536 187 
Q 2134 -91 1584 -91 
Q 859 -91 513 388 
Q 272 722 272 1203 
Q 272 1419 319 1663 
Q 475 2459 1008 2936 
Q 1541 3413 2266 3413 
Q 2581 3413 2879 3339 
Q 3178 3266 3463 3116 
L 3300 2266 
L 2966 2266 
Q 2966 2309 2966 2347 
Q 2966 2722 2803 2903 
Q 2622 3103 2213 3103 
Q 1747 3103 1439 2742 
Q 1131 2381 991 1663 
Q 928 1334 928 1078 
Q 928 778 1016 581 
Q 1181 219 1650 219 
Q 2022 219 2281 412 
Q 2541 606 2700 997 
L 3163 997 
z
" transform="scale(0.015625)"/>
     </defs>
     <use xlink:href="#DejaVuSerif-Italic-45"/>
     <use xlink:href="#DejaVuSerif-Italic-76" transform="translate(72.998047 0)"/>
     <use xlink:href="#DejaVuSerif-Italic-65" transform="translate(129.492188 0)"/>
     <use xlink:href="#DejaVuSerif-Italic-72" transform="translate(188.671875 0)"/>
     <use xlink:href="#DejaVuSerif-Italic-79" transform="translate(236.474609 0)"/>
     <use xlink:href="#DejaVuSerif-Italic-20" transform="translate(292.96875 0)"/>
     <use xlink:href="#DejaVuSerif-Italic-6d" transform="translate(324.755859 0)"/>
     <use xlink:href="#DejaVuSerif-Italic-65" transform="translate(419.580078 0)"/>
     <use xlink:href="#DejaVuSerif-Italic-61" transform="translate(478.759766 0)"/>
     <use xlink:href="#DejaVuSerif-Italic-73" transform="translate(538.378906 0)"/>
     <use xlink:href="#DejaVuSerif-Italic-75" transform="translate(589.697266 0)"/>
     <use xlink:href="#DejaVuSerif-Italic-72" transform="translate(654.101562 0)"/>
     <use xlink:href="#DejaVuSerif-Italic-65" transform="translate(701.904297 0)"/>
     <use xlink:href="#DejaVuSerif-Italic-6d" transform="translate(761.083984 0)"/>
     <use xlink:href="#DejaVuSerif-Italic-65" transform="translate(855.908203 0)"/>
     <use xlink:href="#DejaVuSerif-Italic-6e" transform="translate(915.087891 0)"/>
     <use xlink:href="#DejaVuSerif-Italic-74" transform="translate(979.492188 0)"/>
     <use xlink:href="#DejaVuSerif-Italic-20" transform="translate(1019.677734 0)"/>
     <use xlink:href="#DejaVuSerif-Italic-61" transform="translate(1051.464844 0)"/>
     <use xlink:href="#DejaVuSerif-Italic-6e" transform="translate(1111.083984 0)"/>
     <use xlink:href="#DejaVuSerif-Italic-64" transform="translate(1175.488281 0)"/>
     <use xlink:href="#DejaVuSerif-Italic-20" transform="translate(1239.501953 0)"/>
     <use xlink:href="#DejaVuSerif-Italic-61" transform="translate(1271.289062 0)"/>
     <use xlink:href="#DejaVuSerif-Italic-63" transform="translate(1330.908203 0)"/>
     <use xlink:href="#DejaVuSerif-Italic-74" transform="translate(1386.914062 0)"/>
     <use xlink:href="#DejaVuSerif-Italic-75" transform="translate(1427.099609 0)"/>
     <use xlink:href="#DejaVuSerif-Italic-61" transform="translate(1491.503906 0)"/>
     <use xlink:href="#DejaVuSerif-Italic-74" transform="translate(1551.123047 0)"/>
     <use xlink:href="#DejaVuSerif-Italic-69" transform="translate(1591.308594 0)"/>
     <use xlink:href="#DejaVuSerif-Italic-6f" transform="translate(1623.291016 0)"/>
     <use xlink:href="#DejaVuSerif-Italic-6e" transform="translate(1683.496094 0)"/>
    </g>
    <!-- event perturbs the molecule count -->
    <g style="fill: #a2142f" transform="translate(518.829657 376.911512) scale(0.11 -0.11)">
     <use xlink:href="#DejaVuSerif-Italic-65"/>
     <use xlink:href="#DejaVuSerif-Italic-76" transform="translate(59.179688 0)"/>
     <use xlink:href="#DejaVuSerif-Italic-65" transform="translate(115.673828 0)"/>
     <use xlink:href="#DejaVuSerif-Italic-6e" transform="translate(174.853516 0)"/>
     <use xlink:href="#DejaVuSerif-Italic-74" transform="translate(239.257812 0)"/>
     <use xlink:href="#DejaVuSerif-Italic-20" transform="translate(279.443359 0)"/>
     <use xlink:href="#DejaVuSerif-Italic-70" transform="translate(311.230469 0)"/>
     <use xlink:href="#DejaVuSerif-Italic-65" transform="translate(375.244141 0)"/>
     <use xlink:href="#DejaVuSerif-Italic-72" transform="translate(434.423828 0)"/>
     <use xlink:href="#DejaVuSerif-Italic-74" transform="translate(482.226562 0)"/>
     <use xlink:href="#DejaVuSerif-Italic-75" transform="translate(522.412109 0)"/>
     <use xlink:href="#DejaVuSerif-Italic-72" transform="translate(586.816406 0)"/>
     <use xlink:href="#DejaVuSerif-Italic-62" transform="translate(634.619141 0)"/>
     <use xlink:href="#DejaVuSerif-Italic-73" transform="translate(698.632812 0)"/>
     <use xlink:href="#DejaVuSerif-Italic-20" transform="translate(749.951172 0)"/>
     <use xlink:href="#DejaVuSerif-Italic-74" transform="translate(781.738281 0)"/>
     <use xlink:href="#DejaVuSerif-Italic-68" transform="translate(821.923828 0)"/>
     <use xlink:href="#DejaVuSerif-Italic-65" transform="translate(886.328125 0)"/>
     <use xlink:href="#DejaVuSerif-Italic-20" transform="translate(945.507812 0)"/>
     <use xlink:href="#DejaVuSerif-Italic-6d" transform="translate(977.294922 0)"/>
     <use xlink:href="#DejaVuSerif-Italic-6f" transform="translate(1072.119141 0)"/>
     <use xlink:href="#DejaVuSerif-Italic-6c" transform="translate(1132.324219 0)"/>
     <use xlink:href="#DejaVuSerif-Italic-65" transform="translate(1164.306641 0)"/>
     <use xlink:href="#DejaVuSerif-Italic-63" transform="translate(1223.486328 0)"/>
     <use xlink:href="#DejaVuSerif-Italic-75" transform="translate(1279.492188 0)"/>
     <use xlink:href="#DejaVuSerif-Italic-6c" transform="translate(1343.896484 0)"/>
     <use xlink:href="#DejaVuSerif-Italic-65" transform="translate(1375.878906 0)"/>
     <use xlink:href="#DejaVuSerif-Italic-20" transform="translate(1435.058594 0)"/>
     <use xlink:href="#DejaVuSerif-Italic-63" transform="translate(1466.845703 0)"/>
     <use xlink:href="#DejaVuSerif-Italic-6f" transform="translate(1522.851562 0)"/>
     <use xlink:href="#DejaVuSerif-Italic-75" transform="translate(1583.056641 0)"/>
     <use xlink:href="#DejaVuSerif-Italic-6e" transform="translate(1647.460938 0)"/>
     <use xlink:href="#DejaVuSerif-Italic-74" transform="translate(1711.865234 0)"/>
    </g>
   </g>
   <g id="text_13">
    <!-- Biochemical feedback -->
    <g transform="translate(537.416297 48.68) scale(0.14 -0.14)">
     <defs>
      <path id="DejaVuSerif-42" d="M 1581 331 
L 2516 331 
Q 3078 331 3337 575 
Q 3597 819 3597 1350 
Q 3597 1878 3339 2120 
Q 3081 2363 2516 2363 
L 1581 2363 
L 1581 331 
z
M 1581 2694 
L 2375 2694 
Q 2888 2694 3123 2891 
Q 3359 3088 3359 3513 
Q 3359 3941 3123 4136 
Q 2888 4331 2375 4331 
L 1581 4331 
L 1581 2694 
z
M 353 0 
L 353 331 
L 947 331 
L 947 4331 
L 353 4331 
L 353 4666 
L 2656 4666 
Q 3363 4666 3720 4377 
Q 4078 4088 4078 3513 
Q 4078 3097 3829 2850 
Q 3581 2603 3103 2547 
Q 3697 2472 4005 2167 
Q 4313 1863 4313 1350 
Q 4313 656 3875 328 
Q 3438 0 2509 0 
L 353 0 
z
" transform="scale(0.015625)"/>
      <path id="DejaVuSerif-6f" d="M 1925 219 
Q 2388 219 2623 584 
Q 2859 950 2859 1663 
Q 2859 2375 2623 2739 
Q 2388 3103 1925 3103 
Q 1463 3103 1227 2739 
Q 991 2375 991 1663 
Q 991 950 1228 584 
Q 1466 219 1925 219 
z
M 1925 -91 
Q 1200 -91 759 389 
Q 319 869 319 1663 
Q 319 2456 758 2934 
Q 1197 3413 1925 3413 
Q 2653 3413 3092 2934 
Q 3531 2456 3531 1663 
Q 3531 869 3092 389 
Q 2653 -91 1925 -91 
z
" transform="scale(0.015625)"/>
      <path id="DejaVuSerif-68" d="M 263 0 
L 263 331 
L 781 331 
L 781 4531 
L 231 4531 
L 231 4863 
L 1356 4863 
L 1356 2731 
Q 1516 3069 1770 3241 
Q 2025 3413 2363 3413 
Q 2913 3413 3172 3097 
Q 3431 2781 3431 2113 
L 3431 331 
L 3944 331 
L 3944 0 
L 2356 0 
L 2356 331 
L 2853 331 
L 2853 1931 
Q 2853 2541 2704 2764 
Q 2556 2988 2175 2988 
Q 1775 2988 1565 2697 
Q 1356 2406 1356 1850 
L 1356 331 
L 1856 331 
L 1856 0 
L 263 0 
z
" transform="scale(0.015625)"/>
      <path id="DejaVuSerif-6d" d="M 3316 2675 
Q 3481 3041 3739 3227 
Q 3997 3413 4341 3413 
Q 4863 3413 5119 3089 
Q 5375 2766 5375 2113 
L 5375 331 
L 5894 331 
L 5894 0 
L 4300 0 
L 4300 331 
L 4800 331 
L 4800 2047 
Q 4800 2556 4650 2772 
Q 4500 2988 4153 2988 
Q 3769 2988 3567 2697 
Q 3366 2406 3366 1850 
L 3366 331 
L 3866 331 
L 3866 0 
L 2291 0 
L 2291 331 
L 2791 331 
L 2791 2069 
Q 2791 2566 2641 2777 
Q 2491 2988 2144 2988 
Q 1759 2988 1557 2697 
Q 1356 2406 1356 1850 
L 1356 331 
L 1856 331 
L 1856 0 
L 263 0 
L 263 331 
L 781 331 
L 781 2994 
L 231 2994 
L 231 3322 
L 1356 3322 
L 1356 2731 
Q 1516 3063 1762 3238 
Q 2009 3413 2322 3413 
Q 2709 3413 2968 3220 
Q 3228 3028 3316 2675 
z
" transform="scale(0.015625)"/>
      <path id="DejaVuSerif-6c" d="M 1313 331 
L 1856 331 
L 1856 0 
L 184 0 
L 184 331 
L 738 331 
L 738 4531 
L 184 4531 
L 184 4863 
L 1313 4863 
L 1313 331 
z
" transform="scale(0.015625)"/>
     </defs>
     <use xlink:href="#DejaVuSerif-42"/>
     <use xlink:href="#DejaVuSerif-69" transform="translate(73.486328 0)"/>
     <use xlink:href="#DejaVuSerif-6f" transform="translate(105.46875 0)"/>
     <use xlink:href="#DejaVuSerif-63" transform="translate(165.673828 0)"/>
     <use xlink:href="#DejaVuSerif-68" transform="translate(221.679688 0)"/>
     <use xlink:href="#DejaVuSerif-65" transform="translate(286.083984 0)"/>
     <use xlink:href="#DejaVuSerif-6d" transform="translate(345.263672 0)"/>
     <use xlink:href="#DejaVuSerif-69" transform="translate(440.087891 0)"/>
     <use xlink:href="#DejaVuSerif-63" transform="translate(472.070312 0)"/>
     <use xlink:href="#DejaVuSerif-61" transform="translate(528.076172 0)"/>
     <use xlink:href="#DejaVuSerif-6c" transform="translate(587.695312 0)"/>
     <use xlink:href="#DejaVuSerif-20" transform="translate(619.677734 0)"/>
     <use xlink:href="#DejaVuSerif-66" transform="translate(651.464844 0)"/>
     <use xlink:href="#DejaVuSerif-65" transform="translate(688.476562 0)"/>
     <use xlink:href="#DejaVuSerif-65" transform="translate(747.65625 0)"/>
     <use xlink:href="#DejaVuSerif-64" transform="translate(806.835938 0)"/>
     <use xlink:href="#DejaVuSerif-62" transform="translate(870.849609 0)"/>
     <use xlink:href="#DejaVuSerif-61" transform="translate(934.863281 0)"/>
     <use xlink:href="#DejaVuSerif-63" transform="translate(994.482422 0)"/>
     <use xlink:href="#DejaVuSerif-6b" transform="translate(1050.488281 0)"/>
    </g>
   </g>
  </g>
  <g id="text_14">
   <!-- Why biochemical feedback is noisier -->
   <g transform="translate(239.690805 18.597656) scale(0.15 -0.15)">
    <defs>
     <path id="DejaVuSerif-Bold-57" d="M 5453 0 
L 4647 0 
L 3591 3397 
L 2534 0 
L 1728 0 
L 397 4288 
L -56 4288 
L -56 4666 
L 2156 4666 
L 2156 4288 
L 1656 4288 
L 2547 1422 
L 3553 4666 
L 4441 4666 
L 5466 1369 
L 6375 4288 
L 5819 4288 
L 5819 4666 
L 7263 4666 
L 7263 4288 
L 6784 4288 
L 5453 0 
z
" transform="scale(0.015625)"/>
     <path id="DejaVuSerif-Bold-68" d="M 219 0 
L 219 378 
L 691 378 
L 691 4488 
L 197 4488 
L 197 4863 
L 1797 4863 
L 1797 2853 
Q 1997 3150 2253 3281 
Q 2509 3413 2900 3413 
Q 3459 3413 3745 3083 
Q 4031 2753 4031 2113 
L 4031 378 
L 4506 378 
L 4506 0 
L 2522 0 
L 2522 378 
L 2925 378 
L 2925 2144 
Q 2925 2566 2817 2730 
Q 2709 2894 2444 2894 
Q 2109 2894 1953 2648 
Q 1797 2403 1797 1869 
L 1797 378 
L 2203 378 
L 2203 0 
L 219 0 
z
" transform="scale(0.015625)"/>
     <path id="DejaVuSerif-Bold-79" d="M 1997 -750 
Q 1847 -1116 1634 -1269 
Q 1422 -1422 1063 -1422 
Q 909 -1422 721 -1387 
Q 534 -1353 313 -1288 
L 313 -594 
L 666 -597 
Q 675 -838 779 -953 
Q 884 -1069 1094 -1069 
Q 1297 -1069 1422 -958 
Q 1547 -847 1672 -538 
L 1722 -422 
L 275 2944 
L -84 2944 
L -84 3322 
L 1831 3322 
L 1831 2944 
L 1434 2944 
L 2278 978 
L 3066 2944 
L 2625 2944 
L 2625 3322 
L 3872 3322 
L 3872 2944 
L 3469 2944 
L 1997 -750 
z
" transform="scale(0.015625)"/>
     <path id="DejaVuSerif-Bold-62" d="M 622 378 
L 622 4488 
L 147 4488 
L 147 4863 
L 1728 4863 
L 1728 2900 
Q 1869 3159 2106 3286 
Q 2344 3413 2694 3413 
Q 3403 3413 3811 2945 
Q 4219 2478 4219 1663 
Q 4219 847 3811 378 
Q 3403 -91 2694 -91 
Q 2344 -91 2106 36 
Q 1869 163 1728 422 
L 1728 0 
L 147 0 
L 147 378 
L 622 378 
z
M 1728 1497 
Q 1728 916 1876 656 
Q 2025 397 2356 397 
Q 2697 397 2836 672 
Q 2975 947 2975 1663 
Q 2975 2378 2836 2651 
Q 2697 2925 2356 2925 
Q 2025 2925 1876 2665 
Q 1728 2406 1728 1825 
L 1728 1497 
z
" transform="scale(0.015625)"/>
     <path id="DejaVuSerif-Bold-66" d="M 3097 4031 
L 2747 4031 
Q 2722 4275 2605 4394 
Q 2488 4513 2272 4513 
Q 2022 4513 1909 4333 
Q 1797 4153 1797 3750 
L 1797 3322 
L 2631 3322 
L 2631 2944 
L 1797 2944 
L 1797 378 
L 2438 378 
L 2438 0 
L 219 0 
L 219 378 
L 691 378 
L 691 2944 
L 197 2944 
L 197 3322 
L 691 3322 
L 691 3738 
Q 691 4291 1044 4577 
Q 1397 4863 2081 4863 
Q 2347 4863 2600 4833 
Q 2853 4803 3097 4744 
L 3097 4031 
z
" transform="scale(0.015625)"/>
     <path id="DejaVuSerif-Bold-6b" d="M 2216 0 
L 219 0 
L 219 378 
L 691 378 
L 691 4488 
L 219 4488 
L 219 4863 
L 1797 4863 
L 1797 1741 
L 3138 2944 
L 2741 2944 
L 2741 3322 
L 4256 3322 
L 4256 2944 
L 3641 2944 
L 2784 2175 
L 4184 378 
L 4544 378 
L 4544 0 
L 2638 0 
L 2638 378 
L 3028 378 
L 2106 1563 
L 1797 1288 
L 1797 378 
L 2216 378 
L 2216 0 
z
" transform="scale(0.015625)"/>
    </defs>
    <use xlink:href="#DejaVuSerif-Bold-57"/>
    <use xlink:href="#DejaVuSerif-Bold-68" transform="translate(112.304688 0)"/>
    <use xlink:href="#DejaVuSerif-Bold-79" transform="translate(185.009766 0)"/>
    <use xlink:href="#DejaVuSerif-Bold-20" transform="translate(243.115234 0)"/>
    <use xlink:href="#DejaVuSerif-Bold-62" transform="translate(277.929688 0)"/>
    <use xlink:href="#DejaVuSerif-Bold-69" transform="translate(347.851562 0)"/>
    <use xlink:href="#DejaVuSerif-Bold-6f" transform="translate(385.839844 0)"/>
    <use xlink:href="#DejaVuSerif-Bold-63" transform="translate(452.539062 0)"/>
    <use xlink:href="#DejaVuSerif-Bold-68" transform="translate(513.427734 0)"/>
    <use xlink:href="#DejaVuSerif-Bold-65" transform="translate(586.132812 0)"/>
    <use xlink:href="#DejaVuSerif-Bold-6d" transform="translate(649.755859 0)"/>
    <use xlink:href="#DejaVuSerif-Bold-69" transform="translate(755.566406 0)"/>
    <use xlink:href="#DejaVuSerif-Bold-63" transform="translate(793.554688 0)"/>
    <use xlink:href="#DejaVuSerif-Bold-61" transform="translate(854.443359 0)"/>
    <use xlink:href="#DejaVuSerif-Bold-6c" transform="translate(919.238281 0)"/>
    <use xlink:href="#DejaVuSerif-Bold-20" transform="translate(957.226562 0)"/>
    <use xlink:href="#DejaVuSerif-Bold-66" transform="translate(992.041016 0)"/>
    <use xlink:href="#DejaVuSerif-Bold-65" transform="translate(1035.058594 0)"/>
    <use xlink:href="#DejaVuSerif-Bold-65" transform="translate(1098.681641 0)"/>
    <use xlink:href="#DejaVuSerif-Bold-64" transform="translate(1162.304688 0)"/>
    <use xlink:href="#DejaVuSerif-Bold-62" transform="translate(1232.226562 0)"/>
    <use xlink:href="#DejaVuSerif-Bold-61" transform="translate(1302.148438 0)"/>
    <use xlink:href="#DejaVuSerif-Bold-63" transform="translate(1366.943359 0)"/>
    <use xlink:href="#DejaVuSerif-Bold-6b" transform="translate(1427.832031 0)"/>
    <use xlink:href="#DejaVuSerif-Bold-20" transform="translate(1497.119141 0)"/>
    <use xlink:href="#DejaVuSerif-Bold-69" transform="translate(1531.933594 0)"/>
    <use xlink:href="#DejaVuSerif-Bold-73" transform="translate(1569.921875 0)"/>
    <use xlink:href="#DejaVuSerif-Bold-20" transform="translate(1626.220703 0)"/>
    <use xlink:href="#DejaVuSerif-Bold-6e" transform="translate(1661.035156 0)"/>
    <use xlink:href="#DejaVuSerif-Bold-6f" transform="translate(1733.740234 0)"/>
    <use xlink:href="#DejaVuSerif-Bold-69" transform="translate(1800.439453 0)"/>
    <use xlink:href="#DejaVuSerif-Bold-73" transform="translate(1838.427734 0)"/>
    <use xlink:href="#DejaVuSerif-Bold-69" transform="translate(1894.726562 0)"/>
    <use xlink:href="#DejaVuSerif-Bold-65" transform="translate(1932.714844 0)"/>
    <use xlink:href="#DejaVuSerif-Bold-72" transform="translate(1996.337891 0)"/>
   </g>
  </g>
 </g>
</svg>
