<?xml version="1.0" encoding="utf-8" standalone="no"?>
<!DOCTYPE svg PUBLIC "-//W3C//DTD SVG 1.1//EN"
  "http://www.w3.org/Graphics/SVG/1.1/DTD/svg11.dtd">
<svg xmlns:xlink="http://www.w3.org/1999/xlink" width="979.958906pt" height="394.026562pt" viewBox="0 0 979.958906 394.026562" xmlns="http://www.w3.org/2000/svg" version="1.1">
 <metadata>
  <rdf:RDF xmlns:dc="http://purl.org/dc/elements/1.1/" xmlns:cc="http://creativecommons.org/ns#" xmlns:rdf="http://www.w3.org/1999/02/22-rdf-syntax-ns#">
   <cc:Work>
    <dc:type rdf:resource="http://purl.org/dc/dcmitype/StillImage"/>
    <dc:date>2026-06-11T10:47:30.133121</dc:date>
    <dc:format>image/svg+xml</dc:format>
    <dc:creator>
     <cc:Agent>
      <dc:title>Matplotlib v3.10.8, https://matplotlib.org/</dc:title>
     </cc:Agent>
    </dc:creator>
   </cc:Work>
  </rdf:RDF>
 </metadata>
 <defs>
  <style type="text/css">*{stroke-linejoin: round; stroke-linecap: butt}</style>
 </defs>
 <g id="figure_1">
  <g id="patch_1">
   <path d="M 0 394.026562 
L 979.958906 394.026562 
L 979.958906 0 
L 0 0 
z
" style="fill: #ffffff"/>
  </g>
  <g id="axes_1">
   <g id="patch_2">
    <path d="M 75.638906 347.76 
L 498.808718 347.76 
L 498.808718 54.72 
L 75.638906 54.72 
z
" style="fill: #ffffff"/>
   </g>
   <g id="matplotlib.axis_1">
    <g id="xtick_1">
     <g id="line2d_1">
      <path d="M 94.873898 347.76 
L 94.873898 54.72 
" clip-path="url(#pdd294b37b7)" style="fill: none; stroke: #b0b0b0; stroke-opacity: 0.15; stroke-width: 0.8; stroke-linecap: square"/>
     </g>
     <g id="line2d_2">
      <defs>
       <path id="m19f3a6db05" d="M 0 0 
L 0 3.5 
" style="stroke: #000000; stroke-width: 0.8"/>
      </defs>
      <g>
       <use xlink:href="#m19f3a6db05" x="94.873898" y="347.76" style="stroke: #000000; stroke-width: 0.8"/>
      </g>
     </g>
     <g id="text_1">
      <!-- 0 -->
      <g transform="translate(90.738273 364.637969) scale(0.13 -0.13)">
       <defs>
        <path id="DejaVuSerif-30" d="M 2034 219 
Q 2513 219 2750 744 
Q 2988 1269 2988 2328 
Q 2988 3391 2750 3916 
Q 2513 4441 2034 4441 
Q 1556 4441 1318 3916 
Q 1081 3391 1081 2328 
Q 1081 1269 1318 744 
Q 1556 219 2034 219 
z
M 2034 -91 
Q 1275 -91 848 546 
Q 422 1184 422 2328 
Q 422 3475 848 4112 
Q 1275 4750 2034 4750 
Q 2797 4750 3222 4112 
Q 3647 3475 3647 2328 
Q 3647 1184 3222 546 
Q 2797 -91 2034 -91 
z
" transform="scale(0.015625)"/>
       </defs>
       <use xlink:href="#DejaVuSerif-30"/>
      </g>
     </g>
    </g>
    <g id="xtick_2">
     <g id="line2d_3">
      <path d="M 142.961376 347.76 
L 142.961376 54.72 
" clip-path="url(#pdd294b37b7)" style="fill: none; stroke: #b0b0b0; stroke-opacity: 0.15; stroke-width: 0.8; stroke-linecap: square"/>
     </g>
     <g id="line2d_4">
      <g>
       <use xlink:href="#m19f3a6db05" x="142.961376" y="347.76" style="stroke: #000000; stroke-width: 0.8"/>
      </g>
     </g>
     <g id="text_2">
      <!-- 1 -->
      <g transform="translate(138.825751 364.637969) scale(0.13 -0.13)">
       <defs>
        <path id="DejaVuSerif-31" d="M 909 0 
L 909 331 
L 1722 331 
L 1722 4213 
L 781 3603 
L 781 4013 
L 1919 4750 
L 2350 4750 
L 2350 331 
L 3163 331 
L 3163 0 
L 909 0 
z
" transform="scale(0.015625)"/>
       </defs>
       <use xlink:href="#DejaVuSerif-31"/>
      </g>
     </g>
    </g>
    <g id="xtick_3">
     <g id="line2d_5">
      <path d="M 191.048855 347.76 
L 191.048855 54.72 
" clip-path="url(#pdd294b37b7)" style="fill: none; stroke: #b0b0b0; stroke-opacity: 0.15; stroke-width: 0.8; stroke-linecap: square"/>
     </g>
     <g id="line2d_6">
      <g>
       <use xlink:href="#m19f3a6db05" x="191.048855" y="347.76" style="stroke: #000000; stroke-width: 0.8"/>
      </g>
     </g>
     <g id="text_3">
      <!-- 2 -->
      <g transform="translate(186.91323 364.637969) scale(0.13 -0.13)">
       <defs>
        <path id="DejaVuSerif-32" d="M 819 3553 
L 469 3553 
L 469 4384 
Q 803 4563 1142 4656 
Q 1481 4750 1806 4750 
Q 2534 4750 2956 4397 
Q 3378 4044 3378 3438 
Q 3378 2753 2422 1800 
Q 2347 1728 2309 1691 
L 1131 513 
L 3078 513 
L 3078 1088 
L 3444 1088 
L 3444 0 
L 434 0 
L 434 341 
L 1850 1753 
Q 2319 2222 2519 2614 
Q 2719 3006 2719 3438 
Q 2719 3909 2473 4175 
Q 2228 4441 1797 4441 
Q 1350 4441 1106 4219 
Q 863 3997 819 3553 
z
" transform="scale(0.015625)"/>
       </defs>
       <use xlink:href="#DejaVuSerif-32"/>
      </g>
     </g>
    </g>
    <g id="xtick_4">
     <g id="line2d_7">
      <path d="M 239.136333 347.76 
L 239.136333 54.72 
" clip-path="url(#pdd294b37b7)" style="fill: none; stroke: #b0b0b0; stroke-opacity: 0.15; stroke-width: 0.8; stroke-linecap: square"/>
     </g>
     <g id="line2d_8">
      <g>
       <use xlink:href="#m19f3a6db05" x="239.136333" y="347.76" style="stroke: #000000; stroke-width: 0.8"/>
      </g>
     </g>
     <g id="text_4">
      <!-- 3 -->
      <g transform="translate(235.000708 364.637969) scale(0.13 -0.13)">
       <defs>
        <path id="DejaVuSerif-33" d="M 622 4469 
Q 988 4606 1323 4678 
Q 1659 4750 1953 4750 
Q 2638 4750 3022 4454 
Q 3406 4159 3406 3634 
Q 3406 3213 3140 2930 
Q 2875 2647 2388 2547 
Q 2963 2466 3280 2130 
Q 3597 1794 3597 1259 
Q 3597 606 3158 257 
Q 2719 -91 1894 -91 
Q 1528 -91 1179 -12 
Q 831 66 488 225 
L 488 1131 
L 838 1131 
Q 869 681 1141 450 
Q 1413 219 1906 219 
Q 2384 219 2661 495 
Q 2938 772 2938 1253 
Q 2938 1803 2653 2086 
Q 2369 2369 1819 2369 
L 1522 2369 
L 1522 2688 
L 1678 2688 
Q 2225 2688 2498 2914 
Q 2772 3141 2772 3597 
Q 2772 4006 2547 4223 
Q 2322 4441 1900 4441 
Q 1478 4441 1245 4241 
Q 1013 4041 972 3647 
L 622 3647 
L 622 4469 
z
" transform="scale(0.015625)"/>
       </defs>
       <use xlink:href="#DejaVuSerif-33"/>
      </g>
     </g>
    </g>
    <g id="xtick_5">
     <g id="line2d_9">
      <path d="M 287.223812 347.76 
L 287.223812 54.72 
" clip-path="url(#pdd294b37b7)" style="fill: none; stroke: #b0b0b0; stroke-opacity: 0.15; stroke-width: 0.8; stroke-linecap: square"/>
     </g>
     <g id="line2d_10">
      <g>
       <use xlink:href="#m19f3a6db05" x="287.223812" y="347.76" style="stroke: #000000; stroke-width: 0.8"/>
      </g>
     </g>
     <g id="text_5">
      <!-- 4 -->
      <g transform="translate(283.088187 364.637969) scale(0.13 -0.13)">
       <defs>
        <path id="DejaVuSerif-34" d="M 2234 1581 
L 2234 4063 
L 641 1581 
L 2234 1581 
z
M 3609 0 
L 1484 0 
L 1484 331 
L 2234 331 
L 2234 1247 
L 197 1247 
L 197 1588 
L 2241 4750 
L 2859 4750 
L 2859 1581 
L 3750 1581 
L 3750 1247 
L 2859 1247 
L 2859 331 
L 3609 331 
L 3609 0 
z
" transform="scale(0.015625)"/>
       </defs>
       <use xlink:href="#DejaVuSerif-34"/>
      </g>
     </g>
    </g>
    <g id="xtick_6">
     <g id="line2d_11">
      <path d="M 335.31129 347.76 
L 335.31129 54.72 
" clip-path="url(#pdd294b37b7)" style="fill: none; stroke: #b0b0b0; stroke-opacity: 0.15; stroke-width: 0.8; stroke-linecap: square"/>
     </g>
     <g id="line2d_12">
      <g>
       <use xlink:href="#m19f3a6db05" x="335.31129" y="347.76" style="stroke: #000000; stroke-width: 0.8"/>
      </g>
     </g>
     <g id="text_6">
      <!-- 5 -->
      <g transform="translate(331.175665 364.637969) scale(0.13 -0.13)">
       <defs>
        <path id="DejaVuSerif-35" d="M 3219 4666 
L 3219 4153 
L 1081 4153 
L 1081 2816 
Q 1244 2928 1461 2984 
Q 1678 3041 1947 3041 
Q 2703 3041 3140 2622 
Q 3578 2203 3578 1478 
Q 3578 738 3136 323 
Q 2694 -91 1894 -91 
Q 1572 -91 1234 -12 
Q 897 66 544 225 
L 544 1131 
L 897 1131 
Q 925 688 1179 453 
Q 1434 219 1894 219 
Q 2388 219 2653 544 
Q 2919 869 2919 1478 
Q 2919 2084 2655 2407 
Q 2391 2731 1894 2731 
Q 1613 2731 1398 2631 
Q 1184 2531 1019 2322 
L 750 2322 
L 750 4666 
L 3219 4666 
z
" transform="scale(0.015625)"/>
       </defs>
       <use xlink:href="#DejaVuSerif-35"/>
      </g>
     </g>
    </g>
    <g id="xtick_7">
     <g id="line2d_13">
      <path d="M 383.398769 347.76 
L 383.398769 54.72 
" clip-path="url(#pdd294b37b7)" style="fill: none; stroke: #b0b0b0; stroke-opacity: 0.15; stroke-width: 0.8; stroke-linecap: square"/>
     </g>
     <g id="line2d_14">
      <g>
       <use xlink:href="#m19f3a6db05" x="383.398769" y="347.76" style="stroke: #000000; stroke-width: 0.8"/>
      </g>
     </g>
     <g id="text_7">
      <!-- 6 -->
      <g transform="translate(379.263144 364.637969) scale(0.13 -0.13)">
       <defs>
        <path id="DejaVuSerif-36" d="M 2094 219 
Q 2534 219 2771 542 
Q 3009 866 3009 1472 
Q 3009 2078 2771 2401 
Q 2534 2725 2094 2725 
Q 1647 2725 1412 2412 
Q 1178 2100 1178 1509 
Q 1178 888 1415 553 
Q 1653 219 2094 219 
z
M 1075 2569 
Q 1288 2803 1556 2918 
Q 1825 3034 2163 3034 
Q 2859 3034 3264 2615 
Q 3669 2197 3669 1472 
Q 3669 763 3233 336 
Q 2797 -91 2069 -91 
Q 1278 -91 853 498 
Q 428 1088 428 2181 
Q 428 3406 931 4078 
Q 1434 4750 2350 4750 
Q 2597 4750 2869 4703 
Q 3141 4656 3425 4563 
L 3425 3794 
L 3072 3794 
Q 3034 4109 2831 4275 
Q 2628 4441 2284 4441 
Q 1678 4441 1381 3981 
Q 1084 3522 1075 2569 
z
" transform="scale(0.015625)"/>
       </defs>
       <use xlink:href="#DejaVuSerif-36"/>
      </g>
     </g>
    </g>
    <g id="xtick_8">
     <g id="line2d_15">
      <path d="M 431.486248 347.76 
L 431.486248 54.72 
" clip-path="url(#pdd294b37b7)" style="fill: none; stroke: #b0b0b0; stroke-opacity: 0.15; stroke-width: 0.8; stroke-linecap: square"/>
     </g>
     <g id="line2d_16">
      <g>
       <use xlink:href="#m19f3a6db05" x="431.486248" y="347.76" style="stroke: #000000; stroke-width: 0.8"/>
      </g>
     </g>
     <g id="text_8">
      <!-- 7 -->
      <g transform="translate(427.350623 364.637969) scale(0.13 -0.13)">
       <defs>
        <path id="DejaVuSerif-37" d="M 3609 4347 
L 1784 0 
L 1319 0 
L 3059 4153 
L 903 4153 
L 903 3578 
L 538 3578 
L 538 4666 
L 3609 4666 
L 3609 4347 
z
" transform="scale(0.015625)"/>
       </defs>
       <use xlink:href="#DejaVuSerif-37"/>
      </g>
     </g>
    </g>
    <g id="xtick_9">
     <g id="line2d_17">
      <path d="M 479.573726 347.76 
L 479.573726 54.72 
" clip-path="url(#pdd294b37b7)" style="fill: none; stroke: #b0b0b0; stroke-opacity: 0.15; stroke-width: 0.8; stroke-linecap: square"/>
     </g>
     <g id="line2d_18">
      <g>
       <use xlink:href="#m19f3a6db05" x="479.573726" y="347.76" style="stroke: #000000; stroke-width: 0.8"/>
      </g>
     </g>
     <g id="text_9">
      <!-- 8 -->
      <g transform="translate(475.438101 364.637969) scale(0.13 -0.13)">
       <defs>
        <path id="DejaVuSerif-38" d="M 2981 1275 
Q 2981 1775 2732 2051 
Q 2484 2328 2034 2328 
Q 1584 2328 1336 2051 
Q 1088 1775 1088 1275 
Q 1088 772 1336 495 
Q 1584 219 2034 219 
Q 2484 219 2732 495 
Q 2981 772 2981 1275 
z
M 2853 3541 
Q 2853 3966 2637 4203 
Q 2422 4441 2034 4441 
Q 1650 4441 1433 4203 
Q 1216 3966 1216 3541 
Q 1216 3113 1433 2875 
Q 1650 2638 2034 2638 
Q 2422 2638 2637 2875 
Q 2853 3113 2853 3541 
z
M 2516 2484 
Q 3047 2413 3344 2092 
Q 3641 1772 3641 1275 
Q 3641 619 3225 264 
Q 2809 -91 2034 -91 
Q 1263 -91 845 264 
Q 428 619 428 1275 
Q 428 1772 725 2092 
Q 1022 2413 1556 2484 
Q 1084 2569 832 2842 
Q 581 3116 581 3541 
Q 581 4103 968 4426 
Q 1356 4750 2034 4750 
Q 2713 4750 3100 4426 
Q 3488 4103 3488 3541 
Q 3488 3116 3236 2842 
Q 2984 2569 2516 2484 
z
" transform="scale(0.015625)"/>
       </defs>
       <use xlink:href="#DejaVuSerif-38"/>
      </g>
     </g>
    </g>
    <g id="text_10">
     <!-- Time $t$ -->
     <g transform="translate(261.543812 383.499062) scale(0.16 -0.16)">
      <defs>
       <path id="DejaVuSerif-54" d="M 1222 0 
L 1222 331 
L 1819 331 
L 1819 4294 
L 447 4294 
L 447 3566 
L 63 3566 
L 63 4666 
L 4206 4666 
L 4206 3566 
L 3822 3566 
L 3822 4294 
L 2450 4294 
L 2450 331 
L 3047 331 
L 3047 0 
L 1222 0 
z
" transform="scale(0.015625)"/>
       <path id="DejaVuSerif-69" d="M 622 4353 
Q 622 4497 726 4603 
Q 831 4709 978 4709 
Q 1122 4709 1226 4603 
Q 1331 4497 1331 4353 
Q 1331 4206 1228 4103 
Q 1125 4000 978 4000 
Q 831 4000 726 4103 
Q 622 4206 622 4353 
z
M 1356 331 
L 1900 331 
L 1900 0 
L 231 0 
L 231 331 
L 781 331 
L 781 2988 
L 231 2988 
L 231 3322 
L 1356 3322 
L 1356 331 
z
" transform="scale(0.015625)"/>
       <path id="DejaVuSerif-6d" d="M 3316 2675 
Q 3481 3041 3739 3227 
Q 3997 3413 4341 3413 
Q 4863 3413 5119 3089 
Q 5375 2766 5375 2113 
L 5375 331 
L 5894 331 
L 5894 0 
L 4300 0 
L 4300 331 
L 4800 331 
L 4800 2047 
Q 4800 2556 4650 2772 
Q 4500 2988 4153 2988 
Q 3769 2988 3567 2697 
Q 3366 2406 3366 1850 
L 3366 331 
L 3866 331 
L 3866 0 
L 2291 0 
L 2291 331 
L 2791 331 
L 2791 2069 
Q 2791 2566 2641 2777 
Q 2491 2988 2144 2988 
Q 1759 2988 1557 2697 
Q 1356 2406 1356 1850 
L 1356 331 
L 1856 331 
L 1856 0 
L 263 0 
L 263 331 
L 781 331 
L 781 2994 
L 231 2994 
L 231 3322 
L 1356 3322 
L 1356 2731 
Q 1516 3063 1762 3238 
Q 2009 3413 2322 3413 
Q 2709 3413 2968 3220 
Q 3228 3028 3316 2675 
z
" transform="scale(0.015625)"/>
       <path id="DejaVuSerif-65" d="M 3469 1600 
L 991 1600 
L 991 1575 
Q 991 903 1244 561 
Q 1497 219 1991 219 
Q 2369 219 2611 417 
Q 2853 616 2950 1006 
L 3413 1006 
Q 3275 459 2904 184 
Q 2534 -91 1931 -91 
Q 1203 -91 761 389 
Q 319 869 319 1663 
Q 319 2450 753 2931 
Q 1188 3413 1894 3413 
Q 2647 3413 3050 2948 
Q 3453 2484 3469 1600 
z
M 2791 1931 
Q 2772 2513 2545 2808 
Q 2319 3103 1894 3103 
Q 1497 3103 1269 2806 
Q 1041 2509 991 1931 
L 2791 1931 
z
" transform="scale(0.015625)"/>
       <path id="DejaVuSerif-20" transform="scale(0.015625)"/>
       <path id="Cmmi10-74" d="M 397 519 
Q 397 613 416 697 
L 878 2534 
L 206 2534 
Q 141 2534 141 2619 
Q 166 2759 225 2759 
L 934 2759 
L 1191 3803 
Q 1216 3888 1291 3947 
Q 1366 4006 1459 4006 
Q 1541 4006 1595 3957 
Q 1650 3909 1650 3828 
Q 1650 3809 1648 3798 
Q 1647 3788 1644 3775 
L 1388 2759 
L 2047 2759 
Q 2113 2759 2113 2675 
Q 2109 2659 2100 2621 
Q 2091 2584 2075 2559 
Q 2059 2534 2028 2534 
L 1331 2534 
L 872 684 
Q 825 503 825 372 
Q 825 97 1013 97 
Q 1294 97 1511 361 
Q 1728 625 1844 941 
Q 1869 978 1894 978 
L 1972 978 
Q 1997 978 2012 961 
Q 2028 944 2028 922 
Q 2028 909 2022 903 
Q 1881 516 1612 222 
Q 1344 -72 997 -72 
Q 744 -72 570 93 
Q 397 259 397 519 
z
" transform="scale(0.015625)"/>
      </defs>
      <use xlink:href="#DejaVuSerif-54" transform="translate(0 0.421875)"/>
      <use xlink:href="#DejaVuSerif-69" transform="translate(66.699219 0.421875)"/>
      <use xlink:href="#DejaVuSerif-6d" transform="translate(98.681641 0.421875)"/>
      <use xlink:href="#DejaVuSerif-65" transform="translate(193.505859 0.421875)"/>
      <use xlink:href="#DejaVuSerif-20" transform="translate(252.685547 0.421875)"/>
      <use xlink:href="#Cmmi10-74" transform="translate(284.472656 0.421875)"/>
     </g>
    </g>
   </g>
   <g id="matplotlib.axis_2">
    <g id="ytick_1">
     <g id="line2d_19">
      <path d="M 75.638906 334.44 
L 498.808718 334.44 
" clip-path="url(#pdd294b37b7)" style="fill: none; stroke: #b0b0b0; stroke-opacity: 0.15; stroke-width: 0.8; stroke-linecap: square"/>
     </g>
     <g id="line2d_20">
      <defs>
       <path id="me8ede19527" d="M 0 0 
L -3.5 0 
" style="stroke: #000000; stroke-width: 0.8"/>
      </defs>
      <g>
       <use xlink:href="#me8ede19527" x="75.638906" y="334.44" style="stroke: #000000; stroke-width: 0.8"/>
      </g>
     </g>
     <g id="text_11">
      <!-- −1.00 -->
      <g transform="translate(28.8 339.378984) scale(0.13 -0.13)">
       <defs>
        <path id="DejaVuSerif-2212" d="M 678 2259 
L 4684 2259 
L 4684 1753 
L 678 1753 
L 678 2259 
z
" transform="scale(0.015625)"/>
        <path id="DejaVuSerif-2e" d="M 603 325 
Q 603 500 722 622 
Q 841 744 1019 744 
Q 1191 744 1312 622 
Q 1434 500 1434 325 
Q 1434 153 1312 31 
Q 1191 -91 1019 -91 
Q 841 -91 722 29 
Q 603 150 603 325 
z
" transform="scale(0.015625)"/>
       </defs>
       <use xlink:href="#DejaVuSerif-2212"/>
       <use xlink:href="#DejaVuSerif-31" transform="translate(83.789062 0)"/>
       <use xlink:href="#DejaVuSerif-2e" transform="translate(147.412109 0)"/>
       <use xlink:href="#DejaVuSerif-30" transform="translate(179.199219 0)"/>
       <use xlink:href="#DejaVuSerif-30" transform="translate(242.822266 0)"/>
      </g>
     </g>
    </g>
    <g id="ytick_2">
     <g id="line2d_21">
      <path d="M 75.638906 301.140004 
L 498.808718 301.140004 
" clip-path="url(#pdd294b37b7)" style="fill: none; stroke: #b0b0b0; stroke-opacity: 0.15; stroke-width: 0.8; stroke-linecap: square"/>
     </g>
     <g id="line2d_22">
      <g>
       <use xlink:href="#me8ede19527" x="75.638906" y="301.140004" style="stroke: #000000; stroke-width: 0.8"/>
      </g>
     </g>
     <g id="text_12">
      <!-- −0.75 -->
      <g transform="translate(28.8 306.078988) scale(0.13 -0.13)">
       <use xlink:href="#DejaVuSerif-2212"/>
       <use xlink:href="#DejaVuSerif-30" transform="translate(83.789062 0)"/>
       <use xlink:href="#DejaVuSerif-2e" transform="translate(147.412109 0)"/>
       <use xlink:href="#DejaVuSerif-37" transform="translate(179.199219 0)"/>
       <use xlink:href="#DejaVuSerif-35" transform="translate(242.822266 0)"/>
      </g>
     </g>
    </g>
    <g id="ytick_3">
     <g id="line2d_23">
      <path d="M 75.638906 267.840007 
L 498.808718 267.840007 
" clip-path="url(#pdd294b37b7)" style="fill: none; stroke: #b0b0b0; stroke-opacity: 0.15; stroke-width: 0.8; stroke-linecap: square"/>
     </g>
     <g id="line2d_24">
      <g>
       <use xlink:href="#me8ede19527" x="75.638906" y="267.840007" style="stroke: #000000; stroke-width: 0.8"/>
      </g>
     </g>
     <g id="text_13">
      <!-- −0.50 -->
      <g transform="translate(28.8 272.778991) scale(0.13 -0.13)">
       <use xlink:href="#DejaVuSerif-2212"/>
       <use xlink:href="#DejaVuSerif-30" transform="translate(83.789062 0)"/>
       <use xlink:href="#DejaVuSerif-2e" transform="translate(147.412109 0)"/>
       <use xlink:href="#DejaVuSerif-35" transform="translate(179.199219 0)"/>
       <use xlink:href="#DejaVuSerif-30" transform="translate(242.822266 0)"/>
      </g>
     </g>
    </g>
    <g id="ytick_4">
     <g id="line2d_25">
      <path d="M 75.638906 234.540011 
L 498.808718 234.540011 
" clip-path="url(#pdd294b37b7)" style="fill: none; stroke: #b0b0b0; stroke-opacity: 0.15; stroke-width: 0.8; stroke-linecap: square"/>
     </g>
     <g id="line2d_26">
      <g>
       <use xlink:href="#me8ede19527" x="75.638906" y="234.540011" style="stroke: #000000; stroke-width: 0.8"/>
      </g>
     </g>
     <g id="text_14">
      <!-- −0.25 -->
      <g transform="translate(28.8 239.478995) scale(0.13 -0.13)">
       <use xlink:href="#DejaVuSerif-2212"/>
       <use xlink:href="#DejaVuSerif-30" transform="translate(83.789062 0)"/>
       <use xlink:href="#DejaVuSerif-2e" transform="translate(147.412109 0)"/>
       <use xlink:href="#DejaVuSerif-32" transform="translate(179.199219 0)"/>
       <use xlink:href="#DejaVuSerif-35" transform="translate(242.822266 0)"/>
      </g>
     </g>
    </g>
    <g id="ytick_5">
     <g id="line2d_27">
      <path d="M 75.638906 201.240014 
L 498.808718 201.240014 
" clip-path="url(#pdd294b37b7)" style="fill: none; stroke: #b0b0b0; stroke-opacity: 0.15; stroke-width: 0.8; stroke-linecap: square"/>
     </g>
     <g id="line2d_28">
      <g>
       <use xlink:href="#me8ede19527" x="75.638906" y="201.240014" style="stroke: #000000; stroke-width: 0.8"/>
      </g>
     </g>
     <g id="text_15">
      <!-- 0.00 -->
      <g transform="translate(39.693594 206.178998) scale(0.13 -0.13)">
       <use xlink:href="#DejaVuSerif-30"/>
       <use xlink:href="#DejaVuSerif-2e" transform="translate(63.623047 0)"/>
       <use xlink:href="#DejaVuSerif-30" transform="translate(95.410156 0)"/>
       <use xlink:href="#DejaVuSerif-30" transform="translate(159.033203 0)"/>
      </g>
     </g>
    </g>
    <g id="ytick_6">
     <g id="line2d_29">
      <path d="M 75.638906 167.940018 
L 498.808718 167.940018 
" clip-path="url(#pdd294b37b7)" style="fill: none; stroke: #b0b0b0; stroke-opacity: 0.15; stroke-width: 0.8; stroke-linecap: square"/>
     </g>
     <g id="line2d_30">
      <g>
       <use xlink:href="#me8ede19527" x="75.638906" y="167.940018" style="stroke: #000000; stroke-width: 0.8"/>
      </g>
     </g>
     <g id="text_16">
      <!-- 0.25 -->
      <g transform="translate(39.693594 172.879002) scale(0.13 -0.13)">
       <use xlink:href="#DejaVuSerif-30"/>
       <use xlink:href="#DejaVuSerif-2e" transform="translate(63.623047 0)"/>
       <use xlink:href="#DejaVuSerif-32" transform="translate(95.410156 0)"/>
       <use xlink:href="#DejaVuSerif-35" transform="translate(159.033203 0)"/>
      </g>
     </g>
    </g>
    <g id="ytick_7">
     <g id="line2d_31">
      <path d="M 75.638906 134.640021 
L 498.808718 134.640021 
" clip-path="url(#pdd294b37b7)" style="fill: none; stroke: #b0b0b0; stroke-opacity: 0.15; stroke-width: 0.8; stroke-linecap: square"/>
     </g>
     <g id="line2d_32">
      <g>
       <use xlink:href="#me8ede19527" x="75.638906" y="134.640021" style="stroke: #000000; stroke-width: 0.8"/>
      </g>
     </g>
     <g id="text_17">
      <!-- 0.50 -->
      <g transform="translate(39.693594 139.579006) scale(0.13 -0.13)">
       <use xlink:href="#DejaVuSerif-30"/>
       <use xlink:href="#DejaVuSerif-2e" transform="translate(63.623047 0)"/>
       <use xlink:href="#DejaVuSerif-35" transform="translate(95.410156 0)"/>
       <use xlink:href="#DejaVuSerif-30" transform="translate(159.033203 0)"/>
      </g>
     </g>
    </g>
    <g id="ytick_8">
     <g id="line2d_33">
      <path d="M 75.638906 101.340025 
L 498.808718 101.340025 
" clip-path="url(#pdd294b37b7)" style="fill: none; stroke: #b0b0b0; stroke-opacity: 0.15; stroke-width: 0.8; stroke-linecap: square"/>
     </g>
     <g id="line2d_34">
      <g>
       <use xlink:href="#me8ede19527" x="75.638906" y="101.340025" style="stroke: #000000; stroke-width: 0.8"/>
      </g>
     </g>
     <g id="text_18">
      <!-- 0.75 -->
      <g transform="translate(39.693594 106.279009) scale(0.13 -0.13)">
       <use xlink:href="#DejaVuSerif-30"/>
       <use xlink:href="#DejaVuSerif-2e" transform="translate(63.623047 0)"/>
       <use xlink:href="#DejaVuSerif-37" transform="translate(95.410156 0)"/>
       <use xlink:href="#DejaVuSerif-35" transform="translate(159.033203 0)"/>
      </g>
     </g>
    </g>
    <g id="ytick_9">
     <g id="line2d_35">
      <path d="M 75.638906 68.040028 
L 498.808718 68.040028 
" clip-path="url(#pdd294b37b7)" style="fill: none; stroke: #b0b0b0; stroke-opacity: 0.15; stroke-width: 0.8; stroke-linecap: square"/>
     </g>
     <g id="line2d_36">
      <g>
       <use xlink:href="#me8ede19527" x="75.638906" y="68.040028" style="stroke: #000000; stroke-width: 0.8"/>
      </g>
     </g>
     <g id="text_19">
      <!-- 1.00 -->
      <g transform="translate(39.693594 72.979013) scale(0.13 -0.13)">
       <use xlink:href="#DejaVuSerif-31"/>
       <use xlink:href="#DejaVuSerif-2e" transform="translate(63.623047 0)"/>
       <use xlink:href="#DejaVuSerif-30" transform="translate(95.410156 0)"/>
       <use xlink:href="#DejaVuSerif-30" transform="translate(159.033203 0)"/>
      </g>
     </g>
    </g>
    <g id="text_20">
     <!-- $x(t)$, $x^\pm(t)$ -->
     <g transform="translate(20.8 241) rotate(-90) scale(0.16 -0.16)">
      <defs>
       <path id="Cmmi10-78" d="M 500 184 
Q 613 97 819 97 
Q 1019 97 1172 289 
Q 1325 481 1381 709 
L 1672 1844 
Q 1741 2153 1741 2266 
Q 1741 2425 1652 2544 
Q 1563 2663 1403 2663 
Q 1200 2663 1022 2536 
Q 844 2409 722 2214 
Q 600 2019 550 1819 
Q 538 1778 500 1778 
L 422 1778 
Q 372 1778 372 1838 
L 372 1856 
Q 434 2094 584 2320 
Q 734 2547 951 2687 
Q 1169 2828 1416 2828 
Q 1650 2828 1839 2703 
Q 2028 2578 2106 2363 
Q 2216 2559 2386 2693 
Q 2556 2828 2759 2828 
Q 2897 2828 3040 2779 
Q 3184 2731 3275 2631 
Q 3366 2531 3366 2381 
Q 3366 2219 3261 2101 
Q 3156 1984 2994 1984 
Q 2891 1984 2822 2050 
Q 2753 2116 2753 2216 
Q 2753 2350 2845 2451 
Q 2938 2553 3066 2572 
Q 2950 2663 2747 2663 
Q 2541 2663 2389 2472 
Q 2238 2281 2175 2047 
L 1894 916 
Q 1825 659 1825 494 
Q 1825 331 1917 214 
Q 2009 97 2163 97 
Q 2463 97 2698 361 
Q 2934 625 3009 941 
Q 3022 978 3059 978 
L 3138 978 
Q 3163 978 3178 961 
Q 3194 944 3194 922 
Q 3194 916 3188 903 
Q 3097 522 2806 225 
Q 2516 -72 2150 -72 
Q 1916 -72 1727 54 
Q 1538 181 1459 397 
Q 1359 209 1182 68 
Q 1006 -72 806 -72 
Q 669 -72 523 -23 
Q 378 25 287 125 
Q 197 225 197 378 
Q 197 528 301 651 
Q 406 775 563 775 
Q 669 775 741 711 
Q 813 647 813 544 
Q 813 409 723 309 
Q 634 209 500 184 
z
" transform="scale(0.015625)"/>
       <path id="Cmr10-28" d="M 1984 -1588 
Q 1628 -1306 1370 -942 
Q 1113 -578 948 -165 
Q 784 247 703 697 
Q 622 1147 622 1600 
Q 622 2059 703 2509 
Q 784 2959 951 3375 
Q 1119 3791 1378 4153 
Q 1638 4516 1984 4788 
Q 1984 4800 2016 4800 
L 2075 4800 
Q 2094 4800 2109 4783 
Q 2125 4766 2125 4744 
Q 2125 4716 2113 4703 
Q 1800 4397 1592 4047 
Q 1384 3697 1257 3301 
Q 1131 2906 1075 2482 
Q 1019 2059 1019 1600 
Q 1019 -434 2106 -1491 
Q 2125 -1509 2125 -1544 
Q 2125 -1559 2108 -1579 
Q 2091 -1600 2075 -1600 
L 2016 -1600 
Q 1984 -1600 1984 -1588 
z
" transform="scale(0.015625)"/>
       <path id="Cmr10-29" d="M 416 -1600 
Q 359 -1600 359 -1544 
Q 359 -1516 372 -1503 
Q 1466 -434 1466 1600 
Q 1466 3634 384 4691 
Q 359 4706 359 4744 
Q 359 4766 376 4783 
Q 394 4800 416 4800 
L 475 4800 
Q 494 4800 506 4788 
Q 966 4425 1272 3906 
Q 1578 3388 1720 2800 
Q 1863 2213 1863 1600 
Q 1863 1147 1786 708 
Q 1709 269 1542 -157 
Q 1375 -584 1119 -945 
Q 863 -1306 506 -1588 
Q 494 -1600 475 -1600 
L 416 -1600 
z
" transform="scale(0.015625)"/>
       <path id="DejaVuSerif-2c" d="M 231 -622 
Q 525 -406 662 -114 
Q 800 178 800 594 
L 800 709 
L 1416 709 
Q 1391 175 1164 -208 
Q 938 -591 481 -872 
L 231 -622 
z
" transform="scale(0.015625)"/>
       <path id="Cmsy10-a7" d="M 481 0 
Q 428 0 393 37 
Q 359 75 359 128 
Q 359 175 393 215 
Q 428 256 481 256 
L 2363 256 
L 2363 2003 
L 481 2003 
Q 428 2003 393 2043 
Q 359 2084 359 2131 
Q 359 2178 393 2218 
Q 428 2259 481 2259 
L 2363 2259 
L 2363 4147 
Q 2363 4197 2400 4230 
Q 2438 4263 2491 4263 
Q 2534 4263 2576 4230 
Q 2619 4197 2619 4147 
L 2619 2259 
L 4500 2259 
Q 4547 2259 4581 2218 
Q 4616 2178 4616 2131 
Q 4616 2084 4581 2043 
Q 4547 2003 4500 2003 
L 2619 2003 
L 2619 256 
L 4500 256 
Q 4547 256 4581 215 
Q 4616 175 4616 128 
Q 4616 75 4581 37 
Q 4547 0 4500 0 
L 481 0 
z
" transform="scale(0.015625)"/>
      </defs>
      <use xlink:href="#Cmmi10-78" transform="translate(0 0.109375)"/>
      <use xlink:href="#Cmr10-28" transform="translate(57.080078 0.109375)"/>
      <use xlink:href="#Cmmi10-74" transform="translate(95.898438 0.109375)"/>
      <use xlink:href="#Cmr10-29" transform="translate(131.982422 0.109375)"/>
      <use xlink:href="#DejaVuSerif-2c" transform="translate(170.800781 0.109375)"/>
      <use xlink:href="#DejaVuSerif-20" transform="translate(202.587891 0.109375)"/>
      <use xlink:href="#Cmmi10-78" transform="translate(234.375 0.109375)"/>
      <use xlink:href="#Cmsy10-a7" transform="translate(310.049375 38.373438) scale(0.7)"/>
      <use xlink:href="#Cmr10-28" transform="translate(383.097617 0.109375)"/>
      <use xlink:href="#Cmmi10-74" transform="translate(421.915977 0.109375)"/>
      <use xlink:href="#Cmr10-29" transform="translate(457.999961 0.109375)"/>
     </g>
    </g>
   </g>
   <g id="line2d_37">
    <path d="M 94.873898 334.44 
L 97.186722 322.457486 
L 99.499547 311.832789 
L 101.812372 302.217393 
L 104.896138 290.559703 
L 107.979904 279.873832 
L 111.834612 267.472245 
L 116.460261 253.51943 
L 121.856852 237.998066 
L 131.10815 212.183078 
L 149.610747 161.206006 
L 155.007338 146.939298 
L 159.632987 135.318199 
L 163.487695 126.23147 
L 166.571461 119.43782 
L 169.655227 113.118911 
L 172.738993 107.309703 
L 175.822759 102.029882 
L 178.906526 97.283886 
L 181.990292 93.061949 
L 184.303116 90.226846 
L 186.615941 87.661979 
L 188.928766 85.352328 
L 191.24159 83.281523 
L 194.325356 80.861868 
L 197.409122 78.7937 
L 200.492889 77.035679 
L 203.576655 75.548226 
L 206.660421 74.294882 
L 210.515129 73.007033 
L 214.369836 71.976381 
L 218.995486 71.011468 
L 223.621135 70.27904 
L 229.017726 69.646707 
L 235.956199 69.086626 
L 244.436556 68.658641 
L 255.229738 68.356251 
L 271.41951 68.155358 
L 300.715289 68.058581 
L 415.585578 68.040053 
L 479.573726 68.040034 
L 479.573726 68.040034 
" clip-path="url(#pdd294b37b7)" style="fill: none; stroke-dasharray: 7.4,3.2; stroke-dashoffset: 0; stroke: #8c8c8c; stroke-width: 2"/>
   </g>
   <g id="line2d_38">
    <path d="M 94.873898 201.240014 
L 96.415781 197.222439 
L 98.728605 191.983926 
L 101.04143 187.44859 
L 103.354255 183.422621 
L 106.438021 178.615168 
L 109.521787 174.24687 
L 113.376495 169.175973 
L 118.773085 162.464334 
L 134.191916 143.505743 
L 141.13039 134.529282 
L 150.381689 122.130715 
L 159.632987 109.786595 
L 165.029578 102.976233 
L 168.884286 98.424745 
L 172.738993 94.201643 
L 176.593701 90.350185 
L 179.677467 87.553827 
L 182.761233 85.016083 
L 185.844999 82.734426 
L 188.928766 80.700923 
L 192.012532 78.902879 
L 195.096298 77.324577 
L 198.951006 75.633391 
L 202.805713 74.220873 
L 206.660421 73.050301 
L 211.28607 71.916084 
L 215.911719 71.025491 
L 221.30831 70.231421 
L 227.475843 69.571302 
L 234.414316 69.057885 
L 242.894673 68.65435 
L 254.458796 68.346242 
L 271.41951 68.149112 
L 302.257172 68.056402 
L 431.775351 68.040043 
L 479.573726 68.040045 
L 479.573726 68.040045 
" clip-path="url(#pdd294b37b7)" style="fill: none; stroke: #0072bd; stroke-width: 2.5; stroke-linecap: square"/>
   </g>
   <g id="line2d_39">
    <path d="M 94.873898 68.040028 
L 97.186722 74.164829 
L 100.270488 81.606873 
L 103.354255 88.417178 
L 106.438021 94.740712 
L 110.292728 102.116043 
L 114.147436 109.040746 
L 118.773085 116.91008 
L 124.169676 125.657554 
L 131.10815 136.440209 
L 138.817565 147.972171 
L 144.985098 156.841165 
L 150.381689 164.237545 
L 155.007338 170.199596 
L 158.862045 174.826105 
L 162.716753 179.082161 
L 165.800519 182.189159 
L 168.884286 185.013052 
L 171.968052 187.544946 
L 175.051818 189.784625 
L 178.135584 191.739295 
L 181.21935 193.423449 
L 184.303116 194.856878 
L 187.386882 196.062927 
L 190.470649 197.06717 
L 194.325356 198.077705 
L 198.180064 198.861513 
L 202.805713 199.564162 
L 208.202304 200.136523 
L 214.369836 200.562018 
L 222.850193 200.897088 
L 234.414316 201.106552 
L 254.458796 201.214488 
L 320.759769 201.239911 
L 479.573726 201.239991 
L 479.573726 201.239991 
" clip-path="url(#pdd294b37b7)" style="fill: none; stroke: #d95319; stroke-width: 2.5; stroke-linecap: square"/>
   </g>
   <g id="line2d_40">
    <path d="M 94.873898 334.44 
L 97.186722 322.458099 
L 99.499547 311.832528 
L 101.812372 302.217075 
L 104.896138 290.559394 
L 107.979904 279.873621 
L 111.834612 267.471942 
L 116.460261 253.519239 
L 121.856852 237.997816 
L 131.10815 212.182838 
L 149.610747 161.206021 
L 155.007338 146.938883 
L 159.632987 135.317999 
L 163.487695 126.231511 
L 166.571461 119.437512 
L 169.655227 113.118684 
L 172.738993 107.309554 
L 175.822759 102.029751 
L 178.906526 97.283756 
L 181.990292 93.061865 
L 184.303116 90.226757 
L 186.615941 87.661891 
L 188.928766 85.352258 
L 191.24159 83.281454 
L 194.325356 80.86181 
L 197.409122 78.793643 
L 200.492889 77.035638 
L 203.576655 75.54818 
L 206.660421 74.294846 
L 210.515129 73.006995 
L 214.369836 71.976369 
L 218.995486 71.011422 
L 223.621135 70.279057 
L 229.017726 69.64668 
L 235.956199 69.086574 
L 244.436556 68.658604 
L 255.229738 68.356217 
L 271.41951 68.155362 
L 300.715289 68.058577 
L 415.585578 68.040055 
L 479.573726 68.040068 
L 479.573726 68.040068 
" clip-path="url(#pdd294b37b7)" style="fill: none; stroke-dasharray: 2,3.3; stroke-dashoffset: 0; stroke: #77ac30; stroke-width: 2"/>
   </g>
   <g id="line2d_41">
    <path d="M 75.638906 201.240014 
L 498.808718 201.240014 
" clip-path="url(#pdd294b37b7)" style="fill: none; stroke: #cccccc; stroke-width: 0.5; stroke-linecap: square"/>
   </g>
   <g id="patch_3">
    <path d="M 75.638906 347.76 
L 75.638906 54.72 
" style="fill: none; stroke: #000000; stroke-width: 0.8; stroke-linejoin: miter; stroke-linecap: square"/>
   </g>
   <g id="patch_4">
    <path d="M 75.638906 347.76 
L 498.808718 347.76 
" style="fill: none; stroke: #000000; stroke-width: 0.8; stroke-linejoin: miter; stroke-linecap: square"/>
   </g>
   <g id="text_21">
    <!-- Representation 1 -->
    <g transform="translate(230.518421 48.72) scale(0.13 -0.13)">
     <defs>
      <path id="DejaVuSerif-52" d="M 3066 2316 
Q 3284 2256 3442 2114 
Q 3600 1972 3725 1716 
L 4403 331 
L 4972 331 
L 4972 0 
L 3872 0 
L 3144 1484 
Q 2934 1916 2759 2042 
Q 2584 2169 2278 2169 
L 1581 2169 
L 1581 331 
L 2241 331 
L 2241 0 
L 353 0 
L 353 331 
L 947 331 
L 947 4331 
L 353 4331 
L 353 4666 
L 2719 4666 
Q 3400 4666 3770 4341 
Q 4141 4016 4141 3419 
Q 4141 2938 3870 2661 
Q 3600 2384 3066 2316 
z
M 1581 2503 
L 2503 2503 
Q 2975 2503 3200 2726 
Q 3425 2950 3425 3419 
Q 3425 3888 3200 4109 
Q 2975 4331 2503 4331 
L 1581 4331 
L 1581 2503 
z
" transform="scale(0.015625)"/>
      <path id="DejaVuSerif-70" d="M 1313 1825 
L 1313 1497 
Q 1313 897 1542 583 
Q 1772 269 2209 269 
Q 2650 269 2876 622 
Q 3103 975 3103 1663 
Q 3103 2353 2876 2703 
Q 2650 3053 2209 3053 
Q 1772 3053 1542 2737 
Q 1313 2422 1313 1825 
z
M 738 2988 
L 184 2988 
L 184 3322 
L 1313 3322 
L 1313 2803 
Q 1481 3116 1742 3264 
Q 2003 3413 2388 3413 
Q 3000 3413 3387 2928 
Q 3775 2444 3775 1663 
Q 3775 881 3387 395 
Q 3000 -91 2388 -91 
Q 2003 -91 1742 57 
Q 1481 206 1313 519 
L 1313 -997 
L 1856 -997 
L 1856 -1331 
L 184 -1331 
L 184 -997 
L 738 -997 
L 738 2988 
z
" transform="scale(0.015625)"/>
      <path id="DejaVuSerif-72" d="M 3059 3328 
L 3059 2497 
L 2728 2497 
Q 2713 2744 2591 2866 
Q 2469 2988 2234 2988 
Q 1809 2988 1582 2694 
Q 1356 2400 1356 1850 
L 1356 331 
L 2022 331 
L 2022 0 
L 263 0 
L 263 331 
L 781 331 
L 781 2994 
L 231 2994 
L 231 3322 
L 1356 3322 
L 1356 2731 
Q 1525 3078 1790 3245 
Q 2056 3413 2438 3413 
Q 2578 3413 2733 3391 
Q 2888 3369 3059 3328 
z
" transform="scale(0.015625)"/>
      <path id="DejaVuSerif-73" d="M 359 184 
L 359 959 
L 691 959 
Q 703 588 923 403 
Q 1144 219 1575 219 
Q 1963 219 2166 364 
Q 2369 509 2369 788 
Q 2369 1006 2220 1140 
Q 2072 1275 1594 1428 
L 1178 1569 
Q 750 1706 558 1912 
Q 366 2119 366 2438 
Q 366 2894 700 3153 
Q 1034 3413 1625 3413 
Q 1888 3413 2178 3344 
Q 2469 3275 2778 3144 
L 2778 2419 
L 2447 2419 
Q 2434 2741 2221 2922 
Q 2009 3103 1644 3103 
Q 1281 3103 1095 2975 
Q 909 2847 909 2591 
Q 909 2381 1050 2254 
Q 1191 2128 1613 1997 
L 2069 1856 
Q 2541 1709 2748 1489 
Q 2956 1269 2956 922 
Q 2956 450 2595 179 
Q 2234 -91 1600 -91 
Q 1278 -91 972 -22 
Q 666 47 359 184 
z
" transform="scale(0.015625)"/>
      <path id="DejaVuSerif-6e" d="M 263 0 
L 263 331 
L 781 331 
L 781 2988 
L 231 2988 
L 231 3322 
L 1356 3322 
L 1356 2731 
Q 1516 3069 1770 3241 
Q 2025 3413 2363 3413 
Q 2913 3413 3172 3097 
Q 3431 2781 3431 2113 
L 3431 331 
L 3944 331 
L 3944 0 
L 2356 0 
L 2356 331 
L 2853 331 
L 2853 1931 
Q 2853 2541 2703 2767 
Q 2553 2994 2175 2994 
Q 1775 2994 1565 2701 
Q 1356 2409 1356 1850 
L 1356 331 
L 1856 331 
L 1856 0 
L 263 0 
z
" transform="scale(0.015625)"/>
      <path id="DejaVuSerif-74" d="M 691 2988 
L 184 2988 
L 184 3322 
L 691 3322 
L 691 4353 
L 1269 4353 
L 1269 3322 
L 2350 3322 
L 2350 2988 
L 1269 2988 
L 1269 878 
Q 1269 456 1350 337 
Q 1431 219 1650 219 
Q 1875 219 1978 351 
Q 2081 484 2088 781 
L 2522 781 
Q 2497 328 2275 118 
Q 2053 -91 1600 -91 
Q 1103 -91 897 129 
Q 691 350 691 878 
L 691 2988 
z
" transform="scale(0.015625)"/>
      <path id="DejaVuSerif-61" d="M 2547 1044 
L 2547 1747 
L 1806 1747 
Q 1378 1747 1168 1562 
Q 959 1378 959 997 
Q 959 650 1171 447 
Q 1384 244 1747 244 
Q 2106 244 2326 466 
Q 2547 688 2547 1044 
z
M 3122 2075 
L 3122 331 
L 3634 331 
L 3634 0 
L 2547 0 
L 2547 359 
Q 2356 128 2106 18 
Q 1856 -91 1522 -91 
Q 969 -91 644 203 
Q 319 497 319 997 
Q 319 1513 691 1797 
Q 1063 2081 1741 2081 
L 2547 2081 
L 2547 2309 
Q 2547 2688 2317 2895 
Q 2088 3103 1672 3103 
Q 1328 3103 1125 2947 
Q 922 2791 872 2484 
L 575 2484 
L 575 3156 
Q 875 3284 1158 3348 
Q 1441 3413 1709 3413 
Q 2400 3413 2761 3070 
Q 3122 2728 3122 2075 
z
" transform="scale(0.015625)"/>
      <path id="DejaVuSerif-6f" d="M 1925 219 
Q 2388 219 2623 584 
Q 2859 950 2859 1663 
Q 2859 2375 2623 2739 
Q 2388 3103 1925 3103 
Q 1463 3103 1227 2739 
Q 991 2375 991 1663 
Q 991 950 1228 584 
Q 1466 219 1925 219 
z
M 1925 -91 
Q 1200 -91 759 389 
Q 319 869 319 1663 
Q 319 2456 758 2934 
Q 1197 3413 1925 3413 
Q 2653 3413 3092 2934 
Q 3531 2456 3531 1663 
Q 3531 869 3092 389 
Q 2653 -91 1925 -91 
z
" transform="scale(0.015625)"/>
     </defs>
     <use xlink:href="#DejaVuSerif-52"/>
     <use xlink:href="#DejaVuSerif-65" transform="translate(75.292969 0)"/>
     <use xlink:href="#DejaVuSerif-70" transform="translate(134.472656 0)"/>
     <use xlink:href="#DejaVuSerif-72" transform="translate(198.486328 0)"/>
     <use xlink:href="#DejaVuSerif-65" transform="translate(246.289062 0)"/>
     <use xlink:href="#DejaVuSerif-73" transform="translate(305.46875 0)"/>
     <use xlink:href="#DejaVuSerif-65" transform="translate(356.787109 0)"/>
     <use xlink:href="#DejaVuSerif-6e" transform="translate(415.966797 0)"/>
     <use xlink:href="#DejaVuSerif-74" transform="translate(480.371094 0)"/>
     <use xlink:href="#DejaVuSerif-61" transform="translate(520.556641 0)"/>
     <use xlink:href="#DejaVuSerif-74" transform="translate(580.175781 0)"/>
     <use xlink:href="#DejaVuSerif-69" transform="translate(620.361328 0)"/>
     <use xlink:href="#DejaVuSerif-6f" transform="translate(652.34375 0)"/>
     <use xlink:href="#DejaVuSerif-6e" transform="translate(712.548828 0)"/>
     <use xlink:href="#DejaVuSerif-20" transform="translate(776.953125 0)"/>
     <use xlink:href="#DejaVuSerif-31" transform="translate(808.740234 0)"/>
    </g>
   </g>
   <g id="legend_1">
    <g id="patch_5">
     <path d="M 381.878718 236.097109 
L 491.108718 236.097109 
Q 493.308718 236.097109 493.308718 233.897109 
L 493.308718 168.582891 
Q 493.308718 166.382891 491.108718 166.382891 
L 381.878718 166.382891 
Q 379.678718 166.382891 379.678718 168.582891 
L 379.678718 233.897109 
Q 379.678718 236.097109 381.878718 236.097109 
z
" style="fill: #ffffff; opacity: 0.95; stroke: #bfbfbf; stroke-linejoin: miter"/>
    </g>
    <g id="line2d_42">
     <path d="M 384.078718 175.292891 
L 395.078718 175.292891 
L 406.078718 175.292891 
" style="fill: none; stroke-dasharray: 7.4,3.2; stroke-dashoffset: 0; stroke: #8c8c8c; stroke-width: 2"/>
    </g>
    <g id="text_22">
     <!-- $x(t)$ (original) -->
     <g transform="translate(414.878718 179.142891) scale(0.11 -0.11)">
      <defs>
       <path id="DejaVuSerif-28" d="M 2041 -997 
Q 1281 -656 893 83 
Q 506 822 506 1931 
Q 506 3044 893 3783 
Q 1281 4522 2041 4863 
L 2041 4556 
Q 1559 4225 1350 3623 
Q 1141 3022 1141 1931 
Q 1141 844 1350 242 
Q 1559 -359 2041 -691 
L 2041 -997 
z
" transform="scale(0.015625)"/>
       <path id="DejaVuSerif-67" d="M 3359 2988 
L 3359 72 
Q 3359 -644 2965 -1033 
Q 2572 -1422 1844 -1422 
Q 1516 -1422 1216 -1362 
Q 916 -1303 641 -1184 
L 641 -488 
L 941 -488 
Q 997 -813 1206 -963 
Q 1416 -1113 1806 -1113 
Q 2313 -1113 2548 -827 
Q 2784 -541 2784 72 
L 2784 519 
Q 2616 206 2355 57 
Q 2094 -91 1709 -91 
Q 1097 -91 708 395 
Q 319 881 319 1663 
Q 319 2444 706 2928 
Q 1094 3413 1709 3413 
Q 2094 3413 2355 3264 
Q 2616 3116 2784 2803 
L 2784 3322 
L 3909 3322 
L 3909 2988 
L 3359 2988 
z
M 2784 1825 
Q 2784 2422 2554 2737 
Q 2325 3053 1888 3053 
Q 1444 3053 1217 2703 
Q 991 2353 991 1663 
Q 991 975 1217 622 
Q 1444 269 1888 269 
Q 2325 269 2554 583 
Q 2784 897 2784 1497 
L 2784 1825 
z
" transform="scale(0.015625)"/>
       <path id="DejaVuSerif-6c" d="M 1313 331 
L 1856 331 
L 1856 0 
L 184 0 
L 184 331 
L 738 331 
L 738 4531 
L 184 4531 
L 184 4863 
L 1313 4863 
L 1313 331 
z
" transform="scale(0.015625)"/>
       <path id="DejaVuSerif-29" d="M 453 -997 
L 453 -691 
Q 934 -359 1145 242 
Q 1356 844 1356 1931 
Q 1356 3022 1145 3623 
Q 934 4225 453 4556 
L 453 4863 
Q 1216 4522 1603 3783 
Q 1991 3044 1991 1931 
Q 1991 822 1603 83 
Q 1216 -656 453 -997 
z
" transform="scale(0.015625)"/>
      </defs>
      <use xlink:href="#Cmmi10-78" transform="translate(0 0.015625)"/>
      <use xlink:href="#Cmr10-28" transform="translate(57.080078 0.015625)"/>
      <use xlink:href="#Cmmi10-74" transform="translate(95.898438 0.015625)"/>
      <use xlink:href="#Cmr10-29" transform="translate(131.982422 0.015625)"/>
      <use xlink:href="#DejaVuSerif-20" transform="translate(170.800781 0.015625)"/>
      <use xlink:href="#DejaVuSerif-28" transform="translate(202.587891 0.015625)"/>
      <use xlink:href="#DejaVuSerif-6f" transform="translate(241.601562 0.015625)"/>
      <use xlink:href="#DejaVuSerif-72" transform="translate(301.806641 0.015625)"/>
      <use xlink:href="#DejaVuSerif-69" transform="translate(349.609375 0.015625)"/>
      <use xlink:href="#DejaVuSerif-67" transform="translate(381.591797 0.015625)"/>
      <use xlink:href="#DejaVuSerif-69" transform="translate(445.605469 0.015625)"/>
      <use xlink:href="#DejaVuSerif-6e" transform="translate(477.587891 0.015625)"/>
      <use xlink:href="#DejaVuSerif-61" transform="translate(541.992188 0.015625)"/>
      <use xlink:href="#DejaVuSerif-6c" transform="translate(601.611328 0.015625)"/>
      <use xlink:href="#DejaVuSerif-29" transform="translate(633.59375 0.015625)"/>
     </g>
    </g>
    <g id="line2d_43">
     <path d="M 384.078718 192.342891 
L 395.078718 192.342891 
L 406.078718 192.342891 
" style="fill: none; stroke: #0072bd; stroke-width: 2.5; stroke-linecap: square"/>
    </g>
    <g id="text_23">
     <!-- $x^+(t)$ -->
     <g transform="translate(414.878718 196.192891) scale(0.11 -0.11)">
      <defs>
       <path id="Cmr10-2b" d="M 481 1472 
Q 428 1472 393 1512 
Q 359 1553 359 1600 
Q 359 1647 393 1687 
Q 428 1728 481 1728 
L 2363 1728 
L 2363 3616 
Q 2363 3666 2400 3698 
Q 2438 3731 2491 3731 
Q 2538 3731 2578 3698 
Q 2619 3666 2619 3616 
L 2619 1728 
L 4500 1728 
Q 4547 1728 4581 1687 
Q 4616 1647 4616 1600 
Q 4616 1553 4581 1512 
Q 4547 1472 4500 1472 
L 2619 1472 
L 2619 -416 
Q 2619 -466 2578 -498 
Q 2538 -531 2491 -531 
Q 2438 -531 2400 -498 
Q 2363 -466 2363 -416 
L 2363 1472 
L 481 1472 
z
" transform="scale(0.015625)"/>
      </defs>
      <use xlink:href="#Cmmi10-78" transform="translate(0 0.928125)"/>
      <use xlink:href="#Cmr10-2b" transform="translate(75.674375 39.192187) scale(0.7)"/>
      <use xlink:href="#Cmr10-28" transform="translate(148.722617 0.928125)"/>
      <use xlink:href="#Cmmi10-74" transform="translate(187.540977 0.928125)"/>
      <use xlink:href="#Cmr10-29" transform="translate(223.624961 0.928125)"/>
     </g>
    </g>
    <g id="line2d_44">
     <path d="M 384.078718 208.951172 
L 395.078718 208.951172 
L 406.078718 208.951172 
" style="fill: none; stroke: #d95319; stroke-width: 2.5; stroke-linecap: square"/>
    </g>
    <g id="text_24">
     <!-- $x^-(t)$ -->
     <g transform="translate(414.878718 212.801172) scale(0.11 -0.11)">
      <defs>
       <path id="Cmsy10-a1" d="M 653 1472 
Q 600 1472 565 1512 
Q 531 1553 531 1600 
Q 531 1647 565 1687 
Q 600 1728 653 1728 
L 4325 1728 
Q 4375 1728 4408 1687 
Q 4441 1647 4441 1600 
Q 4441 1553 4408 1512 
Q 4375 1472 4325 1472 
L 653 1472 
z
" transform="scale(0.015625)"/>
      </defs>
      <use xlink:href="#Cmmi10-78"/>
      <use xlink:href="#Cmsy10-a1" transform="translate(75.674375 38.264063) scale(0.7)"/>
      <use xlink:href="#Cmr10-28" transform="translate(148.722617 0)"/>
      <use xlink:href="#Cmmi10-74" transform="translate(187.540977 0)"/>
      <use xlink:href="#Cmr10-29" transform="translate(223.624961 0)"/>
     </g>
    </g>
    <g id="line2d_45">
     <path d="M 384.078718 225.559453 
L 395.078718 225.559453 
L 406.078718 225.559453 
" style="fill: none; stroke-dasharray: 2,3.3; stroke-dashoffset: 0; stroke: #77ac30; stroke-width: 2"/>
    </g>
    <g id="text_25">
     <!-- $x^+ - x^-$ -->
     <g transform="translate(414.878718 229.409453) scale(0.11 -0.11)">
      <use xlink:href="#Cmmi10-78" transform="translate(0 0.928125)"/>
      <use xlink:href="#Cmr10-2b" transform="translate(75.674375 39.192187) scale(0.7)"/>
      <use xlink:href="#Cmsy10-a1" transform="translate(166.281211 0.928125)"/>
      <use xlink:href="#Cmmi10-78" transform="translate(261.525352 0.928125)"/>
      <use xlink:href="#Cmsy10-a1" transform="translate(337.199727 39.192187) scale(0.7)"/>
     </g>
    </g>
   </g>
  </g>
  <g id="axes_2">
   <g id="patch_6">
    <path d="M 549.589095 347.76 
L 972.758906 347.76 
L 972.758906 54.72 
L 549.589095 54.72 
z
" style="fill: #ffffff"/>
   </g>
   <g id="matplotlib.axis_3">
    <g id="xtick_10">
     <g id="line2d_46">
      <path d="M 568.824086 347.76 
L 568.824086 54.72 
" clip-path="url(#pa47a108890)" style="fill: none; stroke: #b0b0b0; stroke-opacity: 0.15; stroke-width: 0.8; stroke-linecap: square"/>
     </g>
     <g id="line2d_47">
      <g>
       <use xlink:href="#m19f3a6db05" x="568.824086" y="347.76" style="stroke: #000000; stroke-width: 0.8"/>
      </g>
     </g>
     <g id="text_26">
      <!-- 0 -->
      <g transform="translate(564.688461 364.637969) scale(0.13 -0.13)">
       <use xlink:href="#DejaVuSerif-30"/>
      </g>
     </g>
    </g>
    <g id="xtick_11">
     <g id="line2d_48">
      <path d="M 616.911565 347.76 
L 616.911565 54.72 
" clip-path="url(#pa47a108890)" style="fill: none; stroke: #b0b0b0; stroke-opacity: 0.15; stroke-width: 0.8; stroke-linecap: square"/>
     </g>
     <g id="line2d_49">
      <g>
       <use xlink:href="#m19f3a6db05" x="616.911565" y="347.76" style="stroke: #000000; stroke-width: 0.8"/>
      </g>
     </g>
     <g id="text_27">
      <!-- 1 -->
      <g transform="translate(612.77594 364.637969) scale(0.13 -0.13)">
       <use xlink:href="#DejaVuSerif-31"/>
      </g>
     </g>
    </g>
    <g id="xtick_12">
     <g id="line2d_50">
      <path d="M 664.999043 347.76 
L 664.999043 54.72 
" clip-path="url(#pa47a108890)" style="fill: none; stroke: #b0b0b0; stroke-opacity: 0.15; stroke-width: 0.8; stroke-linecap: square"/>
     </g>
     <g id="line2d_51">
      <g>
       <use xlink:href="#m19f3a6db05" x="664.999043" y="347.76" style="stroke: #000000; stroke-width: 0.8"/>
      </g>
     </g>
     <g id="text_28">
      <!-- 2 -->
      <g transform="translate(660.863418 364.637969) scale(0.13 -0.13)">
       <use xlink:href="#DejaVuSerif-32"/>
      </g>
     </g>
    </g>
    <g id="xtick_13">
     <g id="line2d_52">
      <path d="M 713.086522 347.76 
L 713.086522 54.72 
" clip-path="url(#pa47a108890)" style="fill: none; stroke: #b0b0b0; stroke-opacity: 0.15; stroke-width: 0.8; stroke-linecap: square"/>
     </g>
     <g id="line2d_53">
      <g>
       <use xlink:href="#m19f3a6db05" x="713.086522" y="347.76" style="stroke: #000000; stroke-width: 0.8"/>
      </g>
     </g>
     <g id="text_29">
      <!-- 3 -->
      <g transform="translate(708.950897 364.637969) scale(0.13 -0.13)">
       <use xlink:href="#DejaVuSerif-33"/>
      </g>
     </g>
    </g>
    <g id="xtick_14">
     <g id="line2d_54">
      <path d="M 761.174001 347.76 
L 761.174001 54.72 
" clip-path="url(#pa47a108890)" style="fill: none; stroke: #b0b0b0; stroke-opacity: 0.15; stroke-width: 0.8; stroke-linecap: square"/>
     </g>
     <g id="line2d_55">
      <g>
       <use xlink:href="#m19f3a6db05" x="761.174001" y="347.76" style="stroke: #000000; stroke-width: 0.8"/>
      </g>
     </g>
     <g id="text_30">
      <!-- 4 -->
      <g transform="translate(757.038376 364.637969) scale(0.13 -0.13)">
       <use xlink:href="#DejaVuSerif-34"/>
      </g>
     </g>
    </g>
    <g id="xtick_15">
     <g id="line2d_56">
      <path d="M 809.261479 347.76 
L 809.261479 54.72 
" clip-path="url(#pa47a108890)" style="fill: none; stroke: #b0b0b0; stroke-opacity: 0.15; stroke-width: 0.8; stroke-linecap: square"/>
     </g>
     <g id="line2d_57">
      <g>
       <use xlink:href="#m19f3a6db05" x="809.261479" y="347.76" style="stroke: #000000; stroke-width: 0.8"/>
      </g>
     </g>
     <g id="text_31">
      <!-- 5 -->
      <g transform="translate(805.125854 364.637969) scale(0.13 -0.13)">
       <use xlink:href="#DejaVuSerif-35"/>
      </g>
     </g>
    </g>
    <g id="xtick_16">
     <g id="line2d_58">
      <path d="M 857.348958 347.76 
L 857.348958 54.72 
" clip-path="url(#pa47a108890)" style="fill: none; stroke: #b0b0b0; stroke-opacity: 0.15; stroke-width: 0.8; stroke-linecap: square"/>
     </g>
     <g id="line2d_59">
      <g>
       <use xlink:href="#m19f3a6db05" x="857.348958" y="347.76" style="stroke: #000000; stroke-width: 0.8"/>
      </g>
     </g>
     <g id="text_32">
      <!-- 6 -->
      <g transform="translate(853.213333 364.637969) scale(0.13 -0.13)">
       <use xlink:href="#DejaVuSerif-36"/>
      </g>
     </g>
    </g>
    <g id="xtick_17">
     <g id="line2d_60">
      <path d="M 905.436436 347.76 
L 905.436436 54.72 
" clip-path="url(#pa47a108890)" style="fill: none; stroke: #b0b0b0; stroke-opacity: 0.15; stroke-width: 0.8; stroke-linecap: square"/>
     </g>
     <g id="line2d_61">
      <g>
       <use xlink:href="#m19f3a6db05" x="905.436436" y="347.76" style="stroke: #000000; stroke-width: 0.8"/>
      </g>
     </g>
     <g id="text_33">
      <!-- 7 -->
      <g transform="translate(901.300811 364.637969) scale(0.13 -0.13)">
       <use xlink:href="#DejaVuSerif-37"/>
      </g>
     </g>
    </g>
    <g id="xtick_18">
     <g id="line2d_62">
      <path d="M 953.523915 347.76 
L 953.523915 54.72 
" clip-path="url(#pa47a108890)" style="fill: none; stroke: #b0b0b0; stroke-opacity: 0.15; stroke-width: 0.8; stroke-linecap: square"/>
     </g>
     <g id="line2d_63">
      <g>
       <use xlink:href="#m19f3a6db05" x="953.523915" y="347.76" style="stroke: #000000; stroke-width: 0.8"/>
      </g>
     </g>
     <g id="text_34">
      <!-- 8 -->
      <g transform="translate(949.38829 364.637969) scale(0.13 -0.13)">
       <use xlink:href="#DejaVuSerif-38"/>
      </g>
     </g>
    </g>
    <g id="text_35">
     <!-- Time $t$ -->
     <g transform="translate(735.494001 383.499062) scale(0.16 -0.16)">
      <use xlink:href="#DejaVuSerif-54" transform="translate(0 0.421875)"/>
      <use xlink:href="#DejaVuSerif-69" transform="translate(66.699219 0.421875)"/>
      <use xlink:href="#DejaVuSerif-6d" transform="translate(98.681641 0.421875)"/>
      <use xlink:href="#DejaVuSerif-65" transform="translate(193.505859 0.421875)"/>
      <use xlink:href="#DejaVuSerif-20" transform="translate(252.685547 0.421875)"/>
      <use xlink:href="#Cmmi10-74" transform="translate(284.472656 0.421875)"/>
     </g>
    </g>
   </g>
   <g id="matplotlib.axis_4">
    <g id="ytick_10">
     <g id="line2d_64">
      <path d="M 549.589095 334.44 
L 972.758906 334.44 
" clip-path="url(#pa47a108890)" style="fill: none; stroke: #b0b0b0; stroke-opacity: 0.15; stroke-width: 0.8; stroke-linecap: square"/>
     </g>
     <g id="line2d_65">
      <g>
       <use xlink:href="#me8ede19527" x="549.589095" y="334.44" style="stroke: #000000; stroke-width: 0.8"/>
      </g>
     </g>
    </g>
    <g id="ytick_11">
     <g id="line2d_66">
      <path d="M 549.589095 301.140004 
L 972.758906 301.140004 
" clip-path="url(#pa47a108890)" style="fill: none; stroke: #b0b0b0; stroke-opacity: 0.15; stroke-width: 0.8; stroke-linecap: square"/>
     </g>
     <g id="line2d_67">
      <g>
       <use xlink:href="#me8ede19527" x="549.589095" y="301.140004" style="stroke: #000000; stroke-width: 0.8"/>
      </g>
     </g>
    </g>
    <g id="ytick_12">
     <g id="line2d_68">
      <path d="M 549.589095 267.840007 
L 972.758906 267.840007 
" clip-path="url(#pa47a108890)" style="fill: none; stroke: #b0b0b0; stroke-opacity: 0.15; stroke-width: 0.8; stroke-linecap: square"/>
     </g>
     <g id="line2d_69">
      <g>
       <use xlink:href="#me8ede19527" x="549.589095" y="267.840007" style="stroke: #000000; stroke-width: 0.8"/>
      </g>
     </g>
    </g>
    <g id="ytick_13">
     <g id="line2d_70">
      <path d="M 549.589095 234.540011 
L 972.758906 234.540011 
" clip-path="url(#pa47a108890)" style="fill: none; stroke: #b0b0b0; stroke-opacity: 0.15; stroke-width: 0.8; stroke-linecap: square"/>
     </g>
     <g id="line2d_71">
      <g>
       <use xlink:href="#me8ede19527" x="549.589095" y="234.540011" style="stroke: #000000; stroke-width: 0.8"/>
      </g>
     </g>
    </g>
    <g id="ytick_14">
     <g id="line2d_72">
      <path d="M 549.589095 201.240014 
L 972.758906 201.240014 
" clip-path="url(#pa47a108890)" style="fill: none; stroke: #b0b0b0; stroke-opacity: 0.15; stroke-width: 0.8; stroke-linecap: square"/>
     </g>
     <g id="line2d_73">
      <g>
       <use xlink:href="#me8ede19527" x="549.589095" y="201.240014" style="stroke: #000000; stroke-width: 0.8"/>
      </g>
     </g>
    </g>
    <g id="ytick_15">
     <g id="line2d_74">
      <path d="M 549.589095 167.940018 
L 972.758906 167.940018 
" clip-path="url(#pa47a108890)" style="fill: none; stroke: #b0b0b0; stroke-opacity: 0.15; stroke-width: 0.8; stroke-linecap: square"/>
     </g>
     <g id="line2d_75">
      <g>
       <use xlink:href="#me8ede19527" x="549.589095" y="167.940018" style="stroke: #000000; stroke-width: 0.8"/>
      </g>
     </g>
    </g>
    <g id="ytick_16">
     <g id="line2d_76">
      <path d="M 549.589095 134.640021 
L 972.758906 134.640021 
" clip-path="url(#pa47a108890)" style="fill: none; stroke: #b0b0b0; stroke-opacity: 0.15; stroke-width: 0.8; stroke-linecap: square"/>
     </g>
     <g id="line2d_77">
      <g>
       <use xlink:href="#me8ede19527" x="549.589095" y="134.640021" style="stroke: #000000; stroke-width: 0.8"/>
      </g>
     </g>
    </g>
    <g id="ytick_17">
     <g id="line2d_78">
      <path d="M 549.589095 101.340025 
L 972.758906 101.340025 
" clip-path="url(#pa47a108890)" style="fill: none; stroke: #b0b0b0; stroke-opacity: 0.15; stroke-width: 0.8; stroke-linecap: square"/>
     </g>
     <g id="line2d_79">
      <g>
       <use xlink:href="#me8ede19527" x="549.589095" y="101.340025" style="stroke: #000000; stroke-width: 0.8"/>
      </g>
     </g>
    </g>
    <g id="ytick_18">
     <g id="line2d_80">
      <path d="M 549.589095 68.040028 
L 972.758906 68.040028 
" clip-path="url(#pa47a108890)" style="fill: none; stroke: #b0b0b0; stroke-opacity: 0.15; stroke-width: 0.8; stroke-linecap: square"/>
     </g>
     <g id="line2d_81">
      <g>
       <use xlink:href="#me8ede19527" x="549.589095" y="68.040028" style="stroke: #000000; stroke-width: 0.8"/>
      </g>
     </g>
    </g>
   </g>
   <g id="line2d_82">
    <path d="M 568.824086 334.44 
L 571.136911 322.457486 
L 573.449736 311.832789 
L 575.76256 302.217393 
L 578.846326 290.559703 
L 581.930093 279.873832 
L 585.7848 267.472245 
L 590.410449 253.51943 
L 595.80704 237.998066 
L 605.058339 212.183078 
L 623.560936 161.206006 
L 628.957526 146.939298 
L 633.583176 135.318199 
L 637.437883 126.23147 
L 640.52165 119.43782 
L 643.605416 113.118911 
L 646.689182 107.309703 
L 649.772948 102.029882 
L 652.856714 97.283886 
L 655.94048 93.061949 
L 658.253305 90.226846 
L 660.56613 87.661979 
L 662.878954 85.352328 
L 665.191779 83.281523 
L 668.275545 80.861868 
L 671.359311 78.7937 
L 674.443077 77.035679 
L 677.526843 75.548226 
L 680.61061 74.294882 
L 684.465317 73.007033 
L 688.320025 71.976381 
L 692.945674 71.011468 
L 697.571324 70.27904 
L 702.967914 69.646707 
L 709.906388 69.086626 
L 718.386745 68.658641 
L 729.179927 68.356251 
L 745.369699 68.155358 
L 774.665478 68.058581 
L 889.535767 68.040053 
L 953.523915 68.040034 
L 953.523915 68.040034 
" clip-path="url(#pa47a108890)" style="fill: none; stroke-dasharray: 7.4,3.2; stroke-dashoffset: 0; stroke: #8c8c8c; stroke-width: 2"/>
   </g>
   <g id="line2d_83">
    <path d="M 568.824086 201.240014 
L 570.365969 193.227454 
L 571.907853 186.203381 
L 573.449736 180.067689 
L 574.991619 174.724801 
L 576.533502 170.082648 
L 578.075385 166.053224 
L 579.617268 162.553733 
L 581.159151 159.507597 
L 582.701034 156.845182 
L 584.242917 154.504144 
L 586.555742 151.476485 
L 588.868566 148.892221 
L 591.181391 146.625045 
L 594.265157 143.925504 
L 598.890806 140.225278 
L 606.600222 134.103263 
L 611.225871 130.13061 
L 615.85152 125.826616 
L 620.47717 121.18492 
L 625.87376 115.411078 
L 644.376357 95.195712 
L 648.231065 91.461914 
L 652.085773 88.038741 
L 655.94048 84.957292 
L 659.024247 82.746687 
L 662.108013 80.761113 
L 665.191779 78.993379 
L 669.046487 77.072598 
L 672.901194 75.446174 
L 676.755902 74.082255 
L 680.61061 72.948016 
L 685.236259 71.845299 
L 689.861908 70.976675 
L 695.258499 70.199879 
L 701.426031 69.55224 
L 708.364505 69.0471 
L 716.844862 68.648979 
L 728.408985 68.344189 
L 745.369699 68.148625 
L 776.207361 68.05638 
L 904.183656 68.040026 
L 953.523915 68.040032 
L 953.523915 68.040032 
" clip-path="url(#pa47a108890)" style="fill: none; stroke: #0072bd; stroke-width: 2.5; stroke-linecap: square"/>
   </g>
   <g id="line2d_84">
    <path d="M 568.824086 68.040028 
L 570.365969 68.187174 
L 571.907853 68.657983 
L 573.449736 69.475209 
L 574.991619 70.638251 
L 576.533502 72.130252 
L 578.075385 73.923544 
L 579.617268 75.984462 
L 581.930093 79.498922 
L 584.242917 83.41585 
L 587.326683 89.082772 
L 591.952333 98.140201 
L 608.913046 131.891568 
L 614.309637 141.9792 
L 618.935286 150.204607 
L 623.560936 157.959014 
L 627.415643 163.998987 
L 631.270351 169.60022 
L 634.354117 173.733434 
L 637.437883 177.535383 
L 640.52165 180.992244 
L 643.605416 184.097005 
L 646.689182 186.851021 
L 649.772948 189.263438 
L 652.856714 191.350745 
L 655.94048 193.135458 
L 659.024247 194.644206 
L 662.108013 195.906384 
L 665.191779 196.95191 
L 669.046487 197.999176 
L 672.901194 198.807783 
L 677.526843 199.529872 
L 682.923434 200.116083 
L 689.090967 200.550537 
L 696.800382 200.869313 
L 708.364505 201.095736 
L 727.638044 201.210608 
L 787.000542 201.239799 
L 953.523915 201.240012 
L 953.523915 201.240012 
" clip-path="url(#pa47a108890)" style="fill: none; stroke: #d95319; stroke-width: 2.5; stroke-linecap: square"/>
   </g>
   <g id="line2d_85">
    <path d="M 568.824086 334.44 
L 571.136911 322.458163 
L 573.449736 311.832494 
L 575.76256 302.217096 
L 578.846326 290.559424 
L 581.930093 279.873582 
L 585.7848 267.471941 
L 590.410449 253.519272 
L 595.80704 237.997794 
L 605.058339 212.182825 
L 623.560936 161.206047 
L 628.957526 146.93886 
L 633.583176 135.318003 
L 637.437883 126.231488 
L 640.52165 119.437512 
L 643.605416 113.118678 
L 646.689182 107.309543 
L 649.772948 102.029752 
L 652.856714 97.283756 
L 655.94048 93.061849 
L 658.253305 90.226786 
L 660.56613 87.661873 
L 662.878954 85.352251 
L 665.191779 83.281484 
L 668.275545 80.861781 
L 671.359311 78.79368 
L 674.443077 77.035602 
L 677.526843 75.548217 
L 680.61061 74.294815 
L 684.465317 73.007034 
L 688.320025 71.976325 
L 692.945674 71.011471 
L 697.571324 70.279017 
L 702.967914 69.64668 
L 709.906388 69.086633 
L 718.386745 68.658643 
L 729.179927 68.356254 
L 745.369699 68.15539 
L 774.665478 68.058621 
L 887.993884 68.04004 
L 953.523915 68.040034 
L 953.523915 68.040034 
" clip-path="url(#pa47a108890)" style="fill: none; stroke-dasharray: 2,3.3; stroke-dashoffset: 0; stroke: #77ac30; stroke-width: 2"/>
   </g>
   <g id="line2d_86">
    <path d="M 549.589095 201.240014 
L 972.758906 201.240014 
" clip-path="url(#pa47a108890)" style="fill: none; stroke: #cccccc; stroke-width: 0.5; stroke-linecap: square"/>
   </g>
   <g id="patch_7">
    <path d="M 549.589095 347.76 
L 549.589095 54.72 
" style="fill: none; stroke: #000000; stroke-width: 0.8; stroke-linejoin: miter; stroke-linecap: square"/>
   </g>
   <g id="patch_8">
    <path d="M 549.589095 347.76 
L 972.758906 347.76 
" style="fill: none; stroke: #000000; stroke-width: 0.8; stroke-linejoin: miter; stroke-linecap: square"/>
   </g>
   <g id="text_36">
    <!-- Representation 2 -->
    <g transform="translate(704.46861 48.72) scale(0.13 -0.13)">
     <use xlink:href="#DejaVuSerif-52"/>
     <use xlink:href="#DejaVuSerif-65" transform="translate(75.292969 0)"/>
     <use xlink:href="#DejaVuSerif-70" transform="translate(134.472656 0)"/>
     <use xlink:href="#DejaVuSerif-72" transform="translate(198.486328 0)"/>
     <use xlink:href="#DejaVuSerif-65" transform="translate(246.289062 0)"/>
     <use xlink:href="#DejaVuSerif-73" transform="translate(305.46875 0)"/>
     <use xlink:href="#DejaVuSerif-65" transform="translate(356.787109 0)"/>
     <use xlink:href="#DejaVuSerif-6e" transform="translate(415.966797 0)"/>
     <use xlink:href="#DejaVuSerif-74" transform="translate(480.371094 0)"/>
     <use xlink:href="#DejaVuSerif-61" transform="translate(520.556641 0)"/>
     <use xlink:href="#DejaVuSerif-74" transform="translate(580.175781 0)"/>
     <use xlink:href="#DejaVuSerif-69" transform="translate(620.361328 0)"/>
     <use xlink:href="#DejaVuSerif-6f" transform="translate(652.34375 0)"/>
     <use xlink:href="#DejaVuSerif-6e" transform="translate(712.548828 0)"/>
     <use xlink:href="#DejaVuSerif-20" transform="translate(776.953125 0)"/>
     <use xlink:href="#DejaVuSerif-32" transform="translate(808.740234 0)"/>
    </g>
   </g>
   <g id="legend_2">
    <g id="patch_9">
     <path d="M 855.828906 236.097109 
L 965.058906 236.097109 
Q 967.258906 236.097109 967.258906 233.897109 
L 967.258906 168.582891 
Q 967.258906 166.382891 965.058906 166.382891 
L 855.828906 166.382891 
Q 853.628906 166.382891 853.628906 168.582891 
L 853.628906 233.897109 
Q 853.628906 236.097109 855.828906 236.097109 
z
" style="fill: #ffffff; opacity: 0.95; stroke: #bfbfbf; stroke-linejoin: miter"/>
    </g>
    <g id="line2d_87">
     <path d="M 858.028906 175.292891 
L 869.028906 175.292891 
L 880.028906 175.292891 
" style="fill: none; stroke-dasharray: 7.4,3.2; stroke-dashoffset: 0; stroke: #8c8c8c; stroke-width: 2"/>
    </g>
    <g id="text_37">
     <!-- $x(t)$ (original) -->
     <g transform="translate(888.828906 179.142891) scale(0.11 -0.11)">
      <use xlink:href="#Cmmi10-78" transform="translate(0 0.015625)"/>
      <use xlink:href="#Cmr10-28" transform="translate(57.080078 0.015625)"/>
      <use xlink:href="#Cmmi10-74" transform="translate(95.898438 0.015625)"/>
      <use xlink:href="#Cmr10-29" transform="translate(131.982422 0.015625)"/>
      <use xlink:href="#DejaVuSerif-20" transform="translate(170.800781 0.015625)"/>
      <use xlink:href="#DejaVuSerif-28" transform="translate(202.587891 0.015625)"/>
      <use xlink:href="#DejaVuSerif-6f" transform="translate(241.601562 0.015625)"/>
      <use xlink:href="#DejaVuSerif-72" transform="translate(301.806641 0.015625)"/>
      <use xlink:href="#DejaVuSerif-69" transform="translate(349.609375 0.015625)"/>
      <use xlink:href="#DejaVuSerif-67" transform="translate(381.591797 0.015625)"/>
      <use xlink:href="#DejaVuSerif-69" transform="translate(445.605469 0.015625)"/>
      <use xlink:href="#DejaVuSerif-6e" transform="translate(477.587891 0.015625)"/>
      <use xlink:href="#DejaVuSerif-61" transform="translate(541.992188 0.015625)"/>
      <use xlink:href="#DejaVuSerif-6c" transform="translate(601.611328 0.015625)"/>
      <use xlink:href="#DejaVuSerif-29" transform="translate(633.59375 0.015625)"/>
     </g>
    </g>
    <g id="line2d_88">
     <path d="M 858.028906 192.342891 
L 869.028906 192.342891 
L 880.028906 192.342891 
" style="fill: none; stroke: #0072bd; stroke-width: 2.5; stroke-linecap: square"/>
    </g>
    <g id="text_38">
     <!-- $x^+(t)$ -->
     <g transform="translate(888.828906 196.192891) scale(0.11 -0.11)">
      <use xlink:href="#Cmmi10-78" transform="translate(0 0.928125)"/>
      <use xlink:href="#Cmr10-2b" transform="translate(75.674375 39.192187) scale(0.7)"/>
      <use xlink:href="#Cmr10-28" transform="translate(148.722617 0.928125)"/>
      <use xlink:href="#Cmmi10-74" transform="translate(187.540977 0.928125)"/>
      <use xlink:href="#Cmr10-29" transform="translate(223.624961 0.928125)"/>
     </g>
    </g>
    <g id="line2d_89">
     <path d="M 858.028906 208.951172 
L 869.028906 208.951172 
L 880.028906 208.951172 
" style="fill: none; stroke: #d95319; stroke-width: 2.5; stroke-linecap: square"/>
    </g>
    <g id="text_39">
     <!-- $x^-(t)$ -->
     <g transform="translate(888.828906 212.801172) scale(0.11 -0.11)">
      <use xlink:href="#Cmmi10-78"/>
      <use xlink:href="#Cmsy10-a1" transform="translate(75.674375 38.264063) scale(0.7)"/>
      <use xlink:href="#Cmr10-28" transform="translate(148.722617 0)"/>
      <use xlink:href="#Cmmi10-74" transform="translate(187.540977 0)"/>
      <use xlink:href="#Cmr10-29" transform="translate(223.624961 0)"/>
     </g>
    </g>
    <g id="line2d_90">
     <path d="M 858.028906 225.559453 
L 869.028906 225.559453 
L 880.028906 225.559453 
" style="fill: none; stroke-dasharray: 2,3.3; stroke-dashoffset: 0; stroke: #77ac30; stroke-width: 2"/>
    </g>
    <g id="text_40">
     <!-- $x^+ - x^-$ -->
     <g transform="translate(888.828906 229.409453) scale(0.11 -0.11)">
      <use xlink:href="#Cmmi10-78" transform="translate(0 0.928125)"/>
      <use xlink:href="#Cmr10-2b" transform="translate(75.674375 39.192187) scale(0.7)"/>
      <use xlink:href="#Cmsy10-a1" transform="translate(166.281211 0.928125)"/>
      <use xlink:href="#Cmmi10-78" transform="translate(261.525352 0.928125)"/>
      <use xlink:href="#Cmsy10-a1" transform="translate(337.199727 39.192187) scale(0.7)"/>
     </g>
    </g>
   </g>
  </g>
  <g id="text_41">
   <!-- Non-uniqueness of dual-rail: $\dot x = -x^3 + 1$, $\eta = 1$, $x(0) = -1.0$ -->
   <g transform="translate(288.088906 19.1) scale(0.14 -0.14)">
    <defs>
     <path id="DejaVuSerif-Bold-4e" d="M 281 0 
L 281 378 
L 878 378 
L 878 4288 
L 281 4288 
L 281 4666 
L 1741 4666 
L 4556 1363 
L 4556 4288 
L 3963 4288 
L 3963 4666 
L 5594 4666 
L 5594 4288 
L 4997 4288 
L 4997 0 
L 4178 0 
L 1319 3372 
L 1319 378 
L 1913 378 
L 1913 0 
L 281 0 
z
" transform="scale(0.015625)"/>
     <path id="DejaVuSerif-Bold-6f" d="M 2138 263 
Q 2488 263 2630 563 
Q 2772 863 2772 1663 
Q 2772 2463 2631 2761 
Q 2491 3059 2138 3059 
Q 1784 3059 1640 2757 
Q 1497 2456 1497 1663 
Q 1497 869 1640 566 
Q 1784 263 2138 263 
z
M 2138 -91 
Q 1259 -91 761 376 
Q 263 844 263 1663 
Q 263 2484 761 2948 
Q 1259 3413 2138 3413 
Q 3019 3413 3516 2948 
Q 4013 2484 4013 1663 
Q 4013 844 3514 376 
Q 3016 -91 2138 -91 
z
" transform="scale(0.015625)"/>
     <path id="DejaVuSerif-Bold-6e" d="M 219 0 
L 219 378 
L 691 378 
L 691 2944 
L 219 2944 
L 219 3322 
L 1797 3322 
L 1797 2853 
Q 1997 3150 2253 3281 
Q 2509 3413 2900 3413 
Q 3459 3413 3745 3083 
Q 4031 2753 4031 2113 
L 4031 378 
L 4506 378 
L 4506 0 
L 2522 0 
L 2522 378 
L 2925 378 
L 2925 2144 
Q 2925 2566 2817 2730 
Q 2709 2894 2444 2894 
Q 2109 2894 1953 2648 
Q 1797 2403 1797 1869 
L 1797 378 
L 2203 378 
L 2203 0 
L 219 0 
z
" transform="scale(0.015625)"/>
     <path id="DejaVuSerif-Bold-2d" d="M 347 2138 
L 2309 2138 
L 2309 1294 
L 347 1294 
L 347 2138 
z
" transform="scale(0.015625)"/>
     <path id="DejaVuSerif-Bold-75" d="M 3963 3322 
L 3963 378 
L 4434 378 
L 4434 0 
L 2853 0 
L 2853 469 
Q 2656 172 2400 40 
Q 2144 -91 1753 -91 
Q 1194 -91 908 239 
Q 622 569 622 1209 
L 622 2944 
L 147 2944 
L 147 3322 
L 1728 3322 
L 1728 1381 
Q 1728 763 1831 595 
Q 1934 428 2209 428 
Q 2544 428 2698 675 
Q 2853 922 2853 1459 
L 2853 2944 
L 2450 2944 
L 2450 3322 
L 3963 3322 
z
" transform="scale(0.015625)"/>
     <path id="DejaVuSerif-Bold-69" d="M 588 4263 
Q 588 4516 763 4689 
Q 938 4863 1191 4863 
Q 1438 4863 1611 4689 
Q 1784 4516 1784 4263 
Q 1784 4016 1611 3842 
Q 1438 3669 1191 3669 
Q 938 3669 763 3841 
Q 588 4013 588 4263 
z
M 1797 378 
L 2272 378 
L 2272 0 
L 219 0 
L 219 378 
L 691 378 
L 691 2944 
L 219 2944 
L 219 3322 
L 1797 3322 
L 1797 378 
z
" transform="scale(0.015625)"/>
     <path id="DejaVuSerif-Bold-71" d="M 3853 2944 
L 3853 -953 
L 4325 -953 
L 4325 -1331 
L 2234 -1331 
L 2234 -953 
L 2747 -953 
L 2747 422 
Q 2606 163 2367 36 
Q 2128 -91 1778 -91 
Q 1072 -91 667 378 
Q 263 847 263 1663 
Q 263 2481 667 2947 
Q 1072 3413 1778 3413 
Q 2128 3413 2367 3286 
Q 2606 3159 2747 2900 
L 2747 3322 
L 4325 3322 
L 4325 2944 
L 3853 2944 
z
M 2747 1825 
Q 2747 2406 2597 2665 
Q 2447 2925 2119 2925 
Q 1775 2925 1636 2651 
Q 1497 2378 1497 1663 
Q 1497 947 1637 672 
Q 1778 397 2119 397 
Q 2447 397 2597 656 
Q 2747 916 2747 1497 
L 2747 1825 
z
" transform="scale(0.015625)"/>
     <path id="DejaVuSerif-Bold-65" d="M 2566 1875 
Q 2566 2531 2444 2795 
Q 2322 3059 2028 3059 
Q 1744 3059 1620 2800 
Q 1497 2541 1497 1931 
L 1497 1875 
L 2566 1875 
z
M 3781 1503 
L 1497 1503 
L 1497 1478 
Q 1497 834 1690 548 
Q 1884 263 2316 263 
Q 2675 263 2897 453 
Q 3119 644 3181 1006 
L 3700 1006 
Q 3566 441 3166 175 
Q 2766 -91 2047 -91 
Q 1184 -91 723 364 
Q 263 819 263 1663 
Q 263 2488 734 2950 
Q 1206 3413 2047 3413 
Q 2872 3413 3312 2927 
Q 3753 2441 3781 1503 
z
" transform="scale(0.015625)"/>
     <path id="DejaVuSerif-Bold-73" d="M 300 97 
L 300 1025 
L 653 1025 
Q 697 653 931 458 
Q 1166 263 1569 263 
Q 1906 263 2086 380 
Q 2266 497 2266 716 
Q 2266 916 2152 1025 
Q 2038 1134 1709 1216 
L 1253 1331 
Q 738 1459 506 1698 
Q 275 1938 275 2344 
Q 275 2884 650 3148 
Q 1025 3413 1806 3413 
Q 2100 3413 2433 3364 
Q 2766 3316 3169 3213 
L 3169 2375 
L 2816 2375 
Q 2788 2716 2573 2887 
Q 2359 3059 1959 3059 
Q 1622 3059 1448 2951 
Q 1275 2844 1275 2638 
Q 1275 2469 1375 2372 
Q 1475 2275 1734 2209 
L 2188 2094 
Q 2841 1928 3091 1684 
Q 3341 1441 3341 1006 
Q 3341 444 2939 176 
Q 2538 -91 1691 -91 
Q 1381 -91 1034 -44 
Q 688 3 300 97 
z
" transform="scale(0.015625)"/>
     <path id="DejaVuSerif-Bold-20" transform="scale(0.015625)"/>
     <path id="DejaVuSerif-Bold-66" d="M 3097 4031 
L 2747 4031 
Q 2722 4275 2605 4394 
Q 2488 4513 2272 4513 
Q 2022 4513 1909 4333 
Q 1797 4153 1797 3750 
L 1797 3322 
L 2631 3322 
L 2631 2944 
L 1797 2944 
L 1797 378 
L 2438 378 
L 2438 0 
L 219 0 
L 219 378 
L 691 378 
L 691 2944 
L 197 2944 
L 197 3322 
L 691 3322 
L 691 3738 
Q 691 4291 1044 4577 
Q 1397 4863 2081 4863 
Q 2347 4863 2600 4833 
Q 2853 4803 3097 4744 
L 3097 4031 
z
" transform="scale(0.015625)"/>
     <path id="DejaVuSerif-Bold-64" d="M 2747 1497 
L 2747 1825 
Q 2747 2406 2597 2665 
Q 2447 2925 2119 2925 
Q 1775 2925 1636 2651 
Q 1497 2378 1497 1663 
Q 1497 947 1637 672 
Q 1778 397 2119 397 
Q 2447 397 2597 656 
Q 2747 916 2747 1497 
z
M 3853 378 
L 4325 378 
L 4325 0 
L 2747 0 
L 2747 422 
Q 2606 163 2367 36 
Q 2128 -91 1778 -91 
Q 1072 -91 667 378 
Q 263 847 263 1663 
Q 263 2481 667 2947 
Q 1072 3413 1778 3413 
Q 2128 3413 2367 3286 
Q 2606 3159 2747 2900 
L 2747 4488 
L 2272 4488 
L 2272 4863 
L 3853 4863 
L 3853 378 
z
" transform="scale(0.015625)"/>
     <path id="DejaVuSerif-Bold-61" d="M 3525 2041 
L 3525 378 
L 4000 378 
L 4000 0 
L 2419 0 
L 2419 422 
Q 2200 159 1931 34 
Q 1663 -91 1319 -91 
Q 809 -91 536 182 
Q 263 456 263 966 
Q 263 1525 655 1803 
Q 1047 2081 1838 2081 
L 2419 2081 
L 2419 2278 
Q 2419 2681 2228 2873 
Q 2038 3066 1638 3066 
Q 1306 3066 1126 2930 
Q 947 2794 872 2484 
L 519 2484 
L 519 3200 
Q 816 3306 1134 3359 
Q 1453 3413 1806 3413 
Q 2697 3413 3111 3081 
Q 3525 2750 3525 2041 
z
M 2419 1044 
L 2419 1709 
L 2003 1709 
Q 1694 1709 1528 1540 
Q 1363 1372 1363 1056 
Q 1363 741 1483 584 
Q 1603 428 1850 428 
Q 2106 428 2262 597 
Q 2419 766 2419 1044 
z
" transform="scale(0.015625)"/>
     <path id="DejaVuSerif-Bold-6c" d="M 1797 378 
L 2272 378 
L 2272 0 
L 219 0 
L 219 378 
L 691 378 
L 691 4488 
L 219 4488 
L 219 4863 
L 1797 4863 
L 1797 378 
z
" transform="scale(0.015625)"/>
     <path id="DejaVuSerif-Bold-72" d="M 3438 3359 
L 3438 2369 
L 3084 2369 
Q 3066 2634 2941 2764 
Q 2816 2894 2578 2894 
Q 2216 2894 2006 2575 
Q 1797 2256 1797 1691 
L 1797 378 
L 2400 378 
L 2400 0 
L 219 0 
L 219 378 
L 691 378 
L 691 2944 
L 184 2944 
L 184 3322 
L 1797 3322 
L 1797 2731 
Q 1959 3078 2226 3245 
Q 2494 3413 2881 3413 
Q 2978 3413 3117 3398 
Q 3256 3384 3438 3359 
z
" transform="scale(0.015625)"/>
     <path id="DejaVuSerif-Bold-3a" d="M 588 2541 
Q 588 2788 761 2963 
Q 934 3138 1178 3138 
Q 1422 3138 1597 2961 
Q 1772 2784 1772 2541 
Q 1772 2297 1598 2125 
Q 1425 1953 1178 1953 
Q 931 1953 759 2125 
Q 588 2297 588 2541 
z
M 588 506 
Q 588 750 761 925 
Q 934 1100 1178 1100 
Q 1422 1100 1597 925 
Q 1772 750 1772 506 
Q 1772 259 1597 84 
Q 1422 -91 1178 -91 
Q 934 -91 761 84 
Q 588 259 588 506 
z
" transform="scale(0.015625)"/>
     <path id="Cmr10-5f" d="M 538 3928 
Q 538 4069 644 4175 
Q 750 4281 891 4281 
Q 978 4281 1062 4234 
Q 1147 4188 1194 4103 
Q 1241 4019 1241 3928 
Q 1241 3791 1137 3684 
Q 1034 3578 891 3578 
Q 750 3578 644 3684 
Q 538 3791 538 3928 
z
" transform="scale(0.015625)"/>
     <path id="Cmr10-3d" d="M 481 850 
Q 428 850 393 890 
Q 359 931 359 978 
Q 359 1031 393 1068 
Q 428 1106 481 1106 
L 4500 1106 
Q 4547 1106 4581 1068 
Q 4616 1031 4616 978 
Q 4616 931 4581 890 
Q 4547 850 4500 850 
L 481 850 
z
M 481 2094 
Q 428 2094 393 2131 
Q 359 2169 359 2222 
Q 359 2269 393 2309 
Q 428 2350 481 2350 
L 4500 2350 
Q 4547 2350 4581 2309 
Q 4616 2269 4616 2222 
Q 4616 2169 4581 2131 
Q 4547 2094 4500 2094 
L 481 2094 
z
" transform="scale(0.015625)"/>
     <path id="Cmr10-33" d="M 609 494 
Q 759 275 1012 169 
Q 1266 63 1556 63 
Q 1928 63 2084 380 
Q 2241 697 2241 1100 
Q 2241 1281 2208 1462 
Q 2175 1644 2097 1800 
Q 2019 1956 1883 2050 
Q 1747 2144 1550 2144 
L 1125 2144 
Q 1069 2144 1069 2203 
L 1069 2259 
Q 1069 2309 1125 2309 
L 1478 2338 
Q 1703 2338 1851 2506 
Q 2000 2675 2069 2917 
Q 2138 3159 2138 3378 
Q 2138 3684 1994 3881 
Q 1850 4078 1556 4078 
Q 1313 4078 1091 3986 
Q 869 3894 738 3706 
Q 750 3709 759 3711 
Q 769 3713 781 3713 
Q 925 3713 1022 3613 
Q 1119 3513 1119 3372 
Q 1119 3234 1022 3134 
Q 925 3034 781 3034 
Q 641 3034 541 3134 
Q 441 3234 441 3372 
Q 441 3647 606 3850 
Q 772 4053 1033 4158 
Q 1294 4263 1556 4263 
Q 1750 4263 1965 4205 
Q 2181 4147 2356 4039 
Q 2531 3931 2642 3762 
Q 2753 3594 2753 3378 
Q 2753 3109 2633 2881 
Q 2513 2653 2303 2487 
Q 2094 2322 1844 2241 
Q 2122 2188 2372 2031 
Q 2622 1875 2773 1631 
Q 2925 1388 2925 1106 
Q 2925 753 2731 467 
Q 2538 181 2222 20 
Q 1906 -141 1556 -141 
Q 1256 -141 954 -26 
Q 653 88 461 316 
Q 269 544 269 863 
Q 269 1022 375 1128 
Q 481 1234 641 1234 
Q 744 1234 830 1186 
Q 916 1138 964 1050 
Q 1013 963 1013 863 
Q 1013 706 903 600 
Q 794 494 641 494 
L 609 494 
z
" transform="scale(0.015625)"/>
     <path id="Cmr10-31" d="M 594 0 
L 594 225 
Q 1394 225 1394 428 
L 1394 3788 
Q 1063 3628 556 3628 
L 556 3853 
Q 1341 3853 1741 4263 
L 1831 4263 
Q 1853 4263 1873 4245 
Q 1894 4228 1894 4206 
L 1894 428 
Q 1894 225 2694 225 
L 2694 0 
L 594 0 
z
" transform="scale(0.015625)"/>
     <path id="DejaVuSerif-Bold-2c" d="M 84 -616 
Q 409 -353 562 -28 
Q 716 297 716 728 
L 716 997 
L 1606 997 
L 1606 972 
Q 1606 281 1317 -217 
Q 1028 -716 428 -1056 
L 84 -616 
z
" transform="scale(0.015625)"/>
     <path id="Cmmi10-b4" d="M 684 -72 
Q 606 -72 550 -22 
Q 494 28 494 109 
Q 494 147 500 166 
L 978 2075 
Q 1025 2253 1025 2388 
Q 1025 2663 838 2663 
Q 638 2663 541 2423 
Q 444 2184 353 1819 
Q 353 1800 334 1789 
Q 316 1778 300 1778 
L 225 1778 
Q 203 1778 187 1801 
Q 172 1825 172 1844 
Q 241 2122 305 2315 
Q 369 2509 505 2668 
Q 641 2828 844 2828 
Q 1081 2828 1267 2678 
Q 1453 2528 1453 2291 
Q 1641 2541 1894 2684 
Q 2147 2828 2444 2828 
Q 2778 2828 2979 2648 
Q 3181 2469 3181 2138 
Q 3181 1947 3138 1784 
L 2394 -1178 
Q 2375 -1269 2300 -1325 
Q 2225 -1381 2131 -1381 
Q 2053 -1381 1997 -1332 
Q 1941 -1284 1941 -1203 
Q 1941 -1166 1947 -1153 
L 2681 1797 
Q 2747 2059 2747 2234 
Q 2747 2413 2672 2538 
Q 2597 2663 2431 2663 
Q 1803 2663 1388 1888 
L 953 141 
Q 931 53 854 -9 
Q 778 -72 684 -72 
z
" transform="scale(0.015625)"/>
     <path id="Cmr10-30" d="M 1600 -141 
Q 816 -141 533 504 
Q 250 1150 250 2041 
Q 250 2597 351 3087 
Q 453 3578 754 3920 
Q 1056 4263 1600 4263 
Q 2022 4263 2290 4056 
Q 2559 3850 2700 3523 
Q 2841 3197 2892 2823 
Q 2944 2450 2944 2041 
Q 2944 1491 2842 1011 
Q 2741 531 2444 195 
Q 2147 -141 1600 -141 
z
M 1600 25 
Q 1956 25 2131 390 
Q 2306 756 2347 1200 
Q 2388 1644 2388 2144 
Q 2388 2625 2347 3031 
Q 2306 3438 2132 3767 
Q 1959 4097 1600 4097 
Q 1238 4097 1063 3765 
Q 888 3434 847 3029 
Q 806 2625 806 2144 
Q 806 1788 823 1472 
Q 841 1156 916 820 
Q 991 484 1158 254 
Q 1325 25 1600 25 
z
" transform="scale(0.015625)"/>
     <path id="Cmmi10-3a" d="M 538 353 
Q 538 497 644 600 
Q 750 703 891 703 
Q 978 703 1062 656 
Q 1147 609 1194 525 
Q 1241 441 1241 353 
Q 1241 213 1137 106 
Q 1034 0 891 0 
Q 750 0 644 106 
Q 538 213 538 353 
z
" transform="scale(0.015625)"/>
    </defs>
    <use xlink:href="#DejaVuSerif-Bold-4e" transform="translate(0 0.109375)"/>
    <use xlink:href="#DejaVuSerif-Bold-6f" transform="translate(91.40625 0.109375)"/>
    <use xlink:href="#DejaVuSerif-Bold-6e" transform="translate(158.105469 0.109375)"/>
    <use xlink:href="#DejaVuSerif-Bold-2d" transform="translate(230.810547 0.109375)"/>
    <use xlink:href="#DejaVuSerif-Bold-75" transform="translate(272.314453 0.109375)"/>
    <use xlink:href="#DejaVuSerif-Bold-6e" transform="translate(345.019531 0.109375)"/>
    <use xlink:href="#DejaVuSerif-Bold-69" transform="translate(417.724609 0.109375)"/>
    <use xlink:href="#DejaVuSerif-Bold-71" transform="translate(455.712891 0.109375)"/>
    <use xlink:href="#DejaVuSerif-Bold-75" transform="translate(525.634766 0.109375)"/>
    <use xlink:href="#DejaVuSerif-Bold-65" transform="translate(598.339844 0.109375)"/>
    <use xlink:href="#DejaVuSerif-Bold-6e" transform="translate(661.962891 0.109375)"/>
    <use xlink:href="#DejaVuSerif-Bold-65" transform="translate(734.667969 0.109375)"/>
    <use xlink:href="#DejaVuSerif-Bold-73" transform="translate(798.291016 0.109375)"/>
    <use xlink:href="#DejaVuSerif-Bold-73" transform="translate(854.589844 0.109375)"/>
    <use xlink:href="#DejaVuSerif-Bold-20" transform="translate(910.888672 0.109375)"/>
    <use xlink:href="#DejaVuSerif-Bold-6f" transform="translate(945.703125 0.109375)"/>
    <use xlink:href="#DejaVuSerif-Bold-66" transform="translate(1012.402344 0.109375)"/>
    <use xlink:href="#DejaVuSerif-Bold-20" transform="translate(1055.419922 0.109375)"/>
    <use xlink:href="#DejaVuSerif-Bold-64" transform="translate(1090.234375 0.109375)"/>
    <use xlink:href="#DejaVuSerif-Bold-75" transform="translate(1160.15625 0.109375)"/>
    <use xlink:href="#DejaVuSerif-Bold-61" transform="translate(1232.861328 0.109375)"/>
    <use xlink:href="#DejaVuSerif-Bold-6c" transform="translate(1297.65625 0.109375)"/>
    <use xlink:href="#DejaVuSerif-Bold-2d" transform="translate(1335.644531 0.109375)"/>
    <use xlink:href="#DejaVuSerif-Bold-72" transform="translate(1377.148438 0.109375)"/>
    <use xlink:href="#DejaVuSerif-Bold-61" transform="translate(1429.833984 0.109375)"/>
    <use xlink:href="#DejaVuSerif-Bold-69" transform="translate(1494.628906 0.109375)"/>
    <use xlink:href="#DejaVuSerif-Bold-6c" transform="translate(1532.617188 0.109375)"/>
    <use xlink:href="#DejaVuSerif-Bold-3a" transform="translate(1570.605469 0.109375)"/>
    <use xlink:href="#DejaVuSerif-Bold-20" transform="translate(1607.519531 0.109375)"/>
    <use xlink:href="#Cmr10-5f" transform="translate(1659.302734 0.890625)"/>
    <use xlink:href="#Cmmi10-78" transform="translate(1642.333984 0.109375)"/>
    <use xlink:href="#Cmr10-3d" transform="translate(1716.972656 0.109375)"/>
    <use xlink:href="#Cmsy10-a1" transform="translate(1812.216797 0.109375)"/>
    <use xlink:href="#Cmmi10-78" transform="translate(1889.902344 0.109375)"/>
    <use xlink:href="#Cmr10-33" transform="translate(1953.285703 38.373438) scale(0.7)"/>
    <use xlink:href="#Cmr10-2b" transform="translate(2012.221641 0.109375)"/>
    <use xlink:href="#Cmr10-31" transform="translate(2107.465781 0.109375)"/>
    <use xlink:href="#DejaVuSerif-Bold-2c" transform="translate(2157.465781 0.109375)"/>
    <use xlink:href="#DejaVuSerif-Bold-20" transform="translate(2192.280234 0.109375)"/>
    <use xlink:href="#Cmmi10-b4" transform="translate(2227.094687 0.109375)"/>
    <use xlink:href="#Cmr10-3d" transform="translate(2294.262656 0.109375)"/>
    <use xlink:href="#Cmr10-31" transform="translate(2389.506797 0.109375)"/>
    <use xlink:href="#DejaVuSerif-Bold-2c" transform="translate(2439.506797 0.109375)"/>
    <use xlink:href="#DejaVuSerif-Bold-20" transform="translate(2474.32125 0.109375)"/>
    <use xlink:href="#Cmmi10-78" transform="translate(2509.135703 0.109375)"/>
    <use xlink:href="#Cmr10-28" transform="translate(2566.215781 0.109375)"/>
    <use xlink:href="#Cmr10-30" transform="translate(2605.034141 0.109375)"/>
    <use xlink:href="#Cmr10-29" transform="translate(2655.034141 0.109375)"/>
    <use xlink:href="#Cmr10-3d" transform="translate(2711.411094 0.109375)"/>
    <use xlink:href="#Cmsy10-a1" transform="translate(2806.655234 0.109375)"/>
    <use xlink:href="#Cmr10-31" transform="translate(2884.340781 0.109375)"/>
    <use xlink:href="#Cmmi10-3a" transform="translate(2934.340781 0.109375)"/>
    <use xlink:href="#Cmr10-30" transform="translate(2962.026328 0.109375)"/>
   </g>
  </g>
 </g>
 <defs>
  <clipPath id="pdd294b37b7">
   <rect x="75.638906" y="54.72" width="423.169811" height="293.04"/>
  </clipPath>
  <clipPath id="pa47a108890">
   <rect x="549.589095" y="54.72" width="423.169811" height="293.04"/>
  </clipPath>
 </defs>
</svg>
