<?xml version="1.0" encoding="utf-8" standalone="no"?>
<!DOCTYPE svg PUBLIC "-//W3C//DTD SVG 1.1//EN"
  "http://www.w3.org/Graphics/SVG/1.1/DTD/svg11.dtd">
<svg xmlns:xlink="http://www.w3.org/1999/xlink" width="433.4965pt" height="316.759125pt" viewBox="0 0 433.4965 316.759125" xmlns="http://www.w3.org/2000/svg" version="1.1">
 <metadata>
  <rdf:RDF xmlns:dc="http://purl.org/dc/elements/1.1/" xmlns:cc="http://creativecommons.org/ns#" xmlns:rdf="http://www.w3.org/1999/02/22-rdf-syntax-ns#">
   <cc:Work>
    <dc:type rdf:resource="http://purl.org/dc/dcmitype/StillImage"/>
    <dc:date>2026-06-03T09:03:06.274729</dc:date>
    <dc:format>image/svg+xml</dc:format>
    <dc:creator>
     <cc:Agent>
      <dc:title>Matplotlib v3.10.8, https://matplotlib.org/</dc:title>
     </cc:Agent>
    </dc:creator>
   </cc:Work>
  </rdf:RDF>
 </metadata>
 <defs>
  <style type="text/css">*{stroke-linejoin: round; stroke-linecap: butt}</style>
 </defs>
 <g id="figure_1">
  <g id="patch_1">
   <path d="M 0 316.759125 
L 433.4965 316.759125 
L 433.4965 0 
L 0 0 
z
" style="fill: #ffffff"/>
  </g>
  <g id="axes_1">
   <g id="patch_2">
    <path d="M 49.44 273.396 
L 422.479 273.396 
L 422.479 25.94 
L 49.44 25.94 
z
" style="fill: #ffffff"/>
   </g>
   <g id="line2d_1">
    <path d="M 49.44 149.668 
L 422.479 149.668 
" clip-path="url(#p823927bbe7)" style="fill: none; stroke: #999999; stroke-width: 0.6; stroke-linecap: square"/>
   </g>
   <g id="line2d_2">
    <path d="M 209.313857 273.396 
L 209.313857 25.94 
" clip-path="url(#p823927bbe7)" style="fill: none; stroke: #999999; stroke-width: 0.6; stroke-linecap: square"/>
   </g>
   <g id="matplotlib.axis_1">
    <g id="xtick_1">
     <g id="line2d_3">
      <path d="M 49.44 273.396 
L 49.44 25.94 
" clip-path="url(#p823927bbe7)" style="fill: none; stroke-dasharray: 0.8,1.32; stroke-dashoffset: 0; stroke: #b0b0b0; stroke-opacity: 0.4; stroke-width: 0.8"/>
     </g>
     <g id="line2d_4">
      <defs>
       <path id="m1321d4e9df" d="M 0 0 
L 0 3.5 
" style="stroke: #000000; stroke-width: 0.8"/>
      </defs>
      <g>
       <use xlink:href="#m1321d4e9df" x="49.44" y="273.396" style="stroke: #000000; stroke-width: 0.8"/>
      </g>
     </g>
     <g id="text_1">
      <text style="font-size: 12px; font-family: 'DejaVu Sans'; text-anchor: middle" x="49.44" y="289.514125" transform="rotate(-0 49.44 289.514125)">−3</text>
     </g>
    </g>
    <g id="xtick_2">
     <g id="line2d_5">
      <path d="M 102.731286 273.396 
L 102.731286 25.94 
" clip-path="url(#p823927bbe7)" style="fill: none; stroke-dasharray: 0.8,1.32; stroke-dashoffset: 0; stroke: #b0b0b0; stroke-opacity: 0.4; stroke-width: 0.8"/>
     </g>
     <g id="line2d_6">
      <g>
       <use xlink:href="#m1321d4e9df" x="102.731286" y="273.396" style="stroke: #000000; stroke-width: 0.8"/>
      </g>
     </g>
     <g id="text_2">
      <text style="font-size: 12px; font-family: 'DejaVu Sans'; text-anchor: middle" x="102.731286" y="289.514125" transform="rotate(-0 102.731286 289.514125)">−2</text>
     </g>
    </g>
    <g id="xtick_3">
     <g id="line2d_7">
      <path d="M 156.022571 273.396 
L 156.022571 25.94 
" clip-path="url(#p823927bbe7)" style="fill: none; stroke-dasharray: 0.8,1.32; stroke-dashoffset: 0; stroke: #b0b0b0; stroke-opacity: 0.4; stroke-width: 0.8"/>
     </g>
     <g id="line2d_8">
      <g>
       <use xlink:href="#m1321d4e9df" x="156.022571" y="273.396" style="stroke: #000000; stroke-width: 0.8"/>
      </g>
     </g>
     <g id="text_3">
      <text style="font-size: 12px; font-family: 'DejaVu Sans'; text-anchor: middle" x="156.022571" y="289.514125" transform="rotate(-0 156.022571 289.514125)">−1</text>
     </g>
    </g>
    <g id="xtick_4">
     <g id="line2d_9">
      <path d="M 209.313857 273.396 
L 209.313857 25.94 
" clip-path="url(#p823927bbe7)" style="fill: none; stroke-dasharray: 0.8,1.32; stroke-dashoffset: 0; stroke: #b0b0b0; stroke-opacity: 0.4; stroke-width: 0.8"/>
     </g>
     <g id="line2d_10">
      <g>
       <use xlink:href="#m1321d4e9df" x="209.313857" y="273.396" style="stroke: #000000; stroke-width: 0.8"/>
      </g>
     </g>
     <g id="text_4">
      <text style="font-size: 12px; font-family: 'DejaVu Sans'; text-anchor: middle" x="209.313857" y="289.514125" transform="rotate(-0 209.313857 289.514125)">0</text>
     </g>
    </g>
    <g id="xtick_5">
     <g id="line2d_11">
      <path d="M 262.605143 273.396 
L 262.605143 25.94 
" clip-path="url(#p823927bbe7)" style="fill: none; stroke-dasharray: 0.8,1.32; stroke-dashoffset: 0; stroke: #b0b0b0; stroke-opacity: 0.4; stroke-width: 0.8"/>
     </g>
     <g id="line2d_12">
      <g>
       <use xlink:href="#m1321d4e9df" x="262.605143" y="273.396" style="stroke: #000000; stroke-width: 0.8"/>
      </g>
     </g>
     <g id="text_5">
      <text style="font-size: 12px; font-family: 'DejaVu Sans'; text-anchor: middle" x="262.605143" y="289.514125" transform="rotate(-0 262.605143 289.514125)">1</text>
     </g>
    </g>
    <g id="xtick_6">
     <g id="line2d_13">
      <path d="M 315.896429 273.396 
L 315.896429 25.94 
" clip-path="url(#p823927bbe7)" style="fill: none; stroke-dasharray: 0.8,1.32; stroke-dashoffset: 0; stroke: #b0b0b0; stroke-opacity: 0.4; stroke-width: 0.8"/>
     </g>
     <g id="line2d_14">
      <g>
       <use xlink:href="#m1321d4e9df" x="315.896429" y="273.396" style="stroke: #000000; stroke-width: 0.8"/>
      </g>
     </g>
     <g id="text_6">
      <text style="font-size: 12px; font-family: 'DejaVu Sans'; text-anchor: middle" x="315.896429" y="289.514125" transform="rotate(-0 315.896429 289.514125)">2</text>
     </g>
    </g>
    <g id="xtick_7">
     <g id="line2d_15">
      <path d="M 369.187714 273.396 
L 369.187714 25.94 
" clip-path="url(#p823927bbe7)" style="fill: none; stroke-dasharray: 0.8,1.32; stroke-dashoffset: 0; stroke: #b0b0b0; stroke-opacity: 0.4; stroke-width: 0.8"/>
     </g>
     <g id="line2d_16">
      <g>
       <use xlink:href="#m1321d4e9df" x="369.187714" y="273.396" style="stroke: #000000; stroke-width: 0.8"/>
      </g>
     </g>
     <g id="text_7">
      <text style="font-size: 12px; font-family: 'DejaVu Sans'; text-anchor: middle" x="369.187714" y="289.514125" transform="rotate(-0 369.187714 289.514125)">3</text>
     </g>
    </g>
    <g id="xtick_8">
     <g id="line2d_17">
      <path d="M 422.479 273.396 
L 422.479 25.94 
" clip-path="url(#p823927bbe7)" style="fill: none; stroke-dasharray: 0.8,1.32; stroke-dashoffset: 0; stroke: #b0b0b0; stroke-opacity: 0.4; stroke-width: 0.8"/>
     </g>
     <g id="line2d_18">
      <g>
       <use xlink:href="#m1321d4e9df" x="422.479" y="273.396" style="stroke: #000000; stroke-width: 0.8"/>
      </g>
     </g>
     <g id="text_8">
      <text style="font-size: 12px; font-family: 'DejaVu Sans'; text-anchor: middle" x="422.479" y="289.514125" transform="rotate(-0 422.479 289.514125)">4</text>
     </g>
    </g>
    <g id="text_9">
     <!-- $\mu$ -->
     <g transform="translate(231.4795 306.619125)">
      <text>
       <tspan x="0" y="-0.34375" style="font-style: oblique; font-size: 14px; font-family: 'DejaVu Sans'">μ</tspan>
      </text>
     </g>
    </g>
   </g>
   <g id="matplotlib.axis_2">
    <g id="ytick_1">
     <g id="line2d_19">
      <path d="M 49.44 248.6504 
L 422.479 248.6504 
" clip-path="url(#p823927bbe7)" style="fill: none; stroke-dasharray: 0.8,1.32; stroke-dashoffset: 0; stroke: #b0b0b0; stroke-opacity: 0.4; stroke-width: 0.8"/>
     </g>
     <g id="line2d_20">
      <defs>
       <path id="m7c79f6ffb7" d="M 0 0 
L -3.5 0 
" style="stroke: #000000; stroke-width: 0.8"/>
      </defs>
      <g>
       <use xlink:href="#m7c79f6ffb7" x="49.44" y="248.6504" style="stroke: #000000; stroke-width: 0.8"/>
      </g>
     </g>
     <g id="text_10">
      <text style="font-size: 12px; font-family: 'DejaVu Sans'; text-anchor: end" x="42.44" y="253.209462" transform="rotate(-0 42.44 253.209462)">−2</text>
     </g>
    </g>
    <g id="ytick_2">
     <g id="line2d_21">
      <path d="M 49.44 199.1592 
L 422.479 199.1592 
" clip-path="url(#p823927bbe7)" style="fill: none; stroke-dasharray: 0.8,1.32; stroke-dashoffset: 0; stroke: #b0b0b0; stroke-opacity: 0.4; stroke-width: 0.8"/>
     </g>
     <g id="line2d_22">
      <g>
       <use xlink:href="#m7c79f6ffb7" x="49.44" y="199.1592" style="stroke: #000000; stroke-width: 0.8"/>
      </g>
     </g>
     <g id="text_11">
      <text style="font-size: 12px; font-family: 'DejaVu Sans'; text-anchor: end" x="42.44" y="203.718262" transform="rotate(-0 42.44 203.718262)">−1</text>
     </g>
    </g>
    <g id="ytick_3">
     <g id="line2d_23">
      <path d="M 49.44 149.668 
L 422.479 149.668 
" clip-path="url(#p823927bbe7)" style="fill: none; stroke-dasharray: 0.8,1.32; stroke-dashoffset: 0; stroke: #b0b0b0; stroke-opacity: 0.4; stroke-width: 0.8"/>
     </g>
     <g id="line2d_24">
      <g>
       <use xlink:href="#m7c79f6ffb7" x="49.44" y="149.668" style="stroke: #000000; stroke-width: 0.8"/>
      </g>
     </g>
     <g id="text_12">
      <text style="font-size: 12px; font-family: 'DejaVu Sans'; text-anchor: end" x="42.44" y="154.227062" transform="rotate(-0 42.44 154.227062)">0</text>
     </g>
    </g>
    <g id="ytick_4">
     <g id="line2d_25">
      <path d="M 49.44 100.1768 
L 422.479 100.1768 
" clip-path="url(#p823927bbe7)" style="fill: none; stroke-dasharray: 0.8,1.32; stroke-dashoffset: 0; stroke: #b0b0b0; stroke-opacity: 0.4; stroke-width: 0.8"/>
     </g>
     <g id="line2d_26">
      <g>
       <use xlink:href="#m7c79f6ffb7" x="49.44" y="100.1768" style="stroke: #000000; stroke-width: 0.8"/>
      </g>
     </g>
     <g id="text_13">
      <text style="font-size: 12px; font-family: 'DejaVu Sans'; text-anchor: end" x="42.44" y="104.735862" transform="rotate(-0 42.44 104.735862)">1</text>
     </g>
    </g>
    <g id="ytick_5">
     <g id="line2d_27">
      <path d="M 49.44 50.6856 
L 422.479 50.6856 
" clip-path="url(#p823927bbe7)" style="fill: none; stroke-dasharray: 0.8,1.32; stroke-dashoffset: 0; stroke: #b0b0b0; stroke-opacity: 0.4; stroke-width: 0.8"/>
     </g>
     <g id="line2d_28">
      <g>
       <use xlink:href="#m7c79f6ffb7" x="49.44" y="50.6856" style="stroke: #000000; stroke-width: 0.8"/>
      </g>
     </g>
     <g id="text_14">
      <text style="font-size: 12px; font-family: 'DejaVu Sans'; text-anchor: end" x="42.44" y="55.244662" transform="rotate(-0 42.44 55.244662)">2</text>
     </g>
    </g>
    <g id="text_15">
     <!-- $x^{\ast}$ -->
     <g transform="translate(17.837813 158.488) rotate(-90)">
      <text>
       <tspan x="0" y="-0.49375" style="font-style: oblique; font-size: 14px; font-family: 'DejaVu Sans'">x</tspan>
       <tspan x="8.910417" y="-5.853125" style="font-size: 9.8px; font-family: 'DejaVu Sans'">∗</tspan>
      </text>
     </g>
    </g>
   </g>
   <g id="line2d_29">
    <path d="M 49.44 149.668 
L 209.313857 149.668 
L 209.313857 149.668 
" clip-path="url(#p823927bbe7)" style="fill: none; stroke: #0072bd; stroke-width: 2.5; stroke-linecap: square"/>
   </g>
   <g id="line2d_30">
    <path d="M 209.313857 149.668 
L 422.479 149.668 
L 422.479 149.668 
" clip-path="url(#p823927bbe7)" style="fill: none; stroke-dasharray: 9.25,4; stroke-dashoffset: 0; stroke: #d95319; stroke-width: 2.5"/>
   </g>
   <g id="line2d_31">
    <path d="M 209.313857 149.668 
L 210.385039 142.651324 
L 211.45622 139.744921 
L 212.527402 137.51476 
L 214.669765 133.978235 
L 216.812128 131.103619 
L 218.954492 128.617971 
L 222.168037 125.36152 
L 225.381581 122.49253 
L 228.595126 119.898764 
L 232.879853 116.756871 
L 237.164579 113.889831 
L 242.520487 110.6008 
L 247.876396 107.567942 
L 254.303485 104.19474 
L 261.801757 100.551266 
L 269.300028 97.160003 
L 277.869481 93.53459 
L 287.510116 89.717491 
L 298.221932 85.743037 
L 308.933748 82.001624 
L 320.716746 78.111661 
L 333.570925 74.096083 
L 347.496286 69.973877 
L 362.492829 65.760755 
L 378.560553 61.469747 
L 396.770641 56.846097 
L 416.05191 52.189218 
L 422.479 50.6856 
L 422.479 50.6856 
" clip-path="url(#p823927bbe7)" style="fill: none; stroke: #0072bd; stroke-width: 2.5; stroke-linecap: square"/>
   </g>
   <g id="line2d_32">
    <path d="M 209.313857 149.668 
L 210.385039 156.684676 
L 211.45622 159.591079 
L 212.527402 161.82124 
L 214.669765 165.357765 
L 216.812128 168.232381 
L 218.954492 170.718029 
L 222.168037 173.97448 
L 225.381581 176.84347 
L 228.595126 179.437236 
L 232.879853 182.579129 
L 237.164579 185.446169 
L 242.520487 188.7352 
L 247.876396 191.768058 
L 254.303485 195.14126 
L 261.801757 198.784734 
L 269.300028 202.175997 
L 277.869481 205.80141 
L 287.510116 209.618509 
L 298.221932 213.592963 
L 308.933748 217.334376 
L 320.716746 221.224339 
L 333.570925 225.239917 
L 347.496286 229.362123 
L 362.492829 233.575245 
L 378.560553 237.866253 
L 396.770641 242.489903 
L 416.05191 247.146782 
L 422.479 248.6504 
L 422.479 248.6504 
" clip-path="url(#p823927bbe7)" style="fill: none; stroke: #0072bd; stroke-width: 2.5; stroke-linecap: square"/>
   </g>
   <g id="patch_3">
    <path d="M 49.44 273.396 
L 49.44 25.94 
" style="fill: none; stroke: #000000; stroke-width: 0.8; stroke-linejoin: miter; stroke-linecap: square"/>
   </g>
   <g id="patch_4">
    <path d="M 49.44 273.396 
L 422.479 273.396 
" style="fill: none; stroke: #000000; stroke-width: 0.8; stroke-linejoin: miter; stroke-linecap: square"/>
   </g>
   <g id="text_16">
    <!-- Supercritical pitchfork:  $\dot{x} = \mu x - x^{3}$ -->
    <g transform="translate(114.1595 19.94)">
     <text>
      <tspan x="0" y="-0.367188" style="font-size: 14px; font-family: 'DejaVu Sans'">S</tspan>
      <tspan x="8.886719" y="-0.367188" style="font-size: 14px; font-family: 'DejaVu Sans'">u</tspan>
      <tspan x="17.759766" y="-0.367188" style="font-size: 14px; font-family: 'DejaVu Sans'">p</tspan>
      <tspan x="26.646484" y="-0.367188" style="font-size: 14px; font-family: 'DejaVu Sans'">e</tspan>
      <tspan x="35.259766" y="-0.367188" style="font-size: 14px; font-family: 'DejaVu Sans'">r</tspan>
      <tspan x="41.015625" y="-0.367188" style="font-size: 14px; font-family: 'DejaVu Sans'">c</tspan>
      <tspan x="48.712891" y="-0.367188" style="font-size: 14px; font-family: 'DejaVu Sans'">r</tspan>
      <tspan x="54.46875" y="-0.367188" style="font-size: 14px; font-family: 'DejaVu Sans'">i</tspan>
      <tspan x="58.358398" y="-0.367188" style="font-size: 14px; font-family: 'DejaVu Sans'">t</tspan>
      <tspan x="63.847656" y="-0.367188" style="font-size: 14px; font-family: 'DejaVu Sans'">i</tspan>
      <tspan x="67.737305" y="-0.367188" style="font-size: 14px; font-family: 'DejaVu Sans'">c</tspan>
      <tspan x="75.43457" y="-0.367188" style="font-size: 14px; font-family: 'DejaVu Sans'">a</tspan>
      <tspan x="84.013672" y="-0.367188" style="font-size: 14px; font-family: 'DejaVu Sans'">l</tspan>
      <tspan x="87.90332" y="-0.367188" style="font-size: 14px; font-family: 'DejaVu Sans'"> </tspan>
      <tspan x="92.353516" y="-0.367188" style="font-size: 14px; font-family: 'DejaVu Sans'">p</tspan>
      <tspan x="101.240234" y="-0.367188" style="font-size: 14px; font-family: 'DejaVu Sans'">i</tspan>
      <tspan x="105.129883" y="-0.367188" style="font-size: 14px; font-family: 'DejaVu Sans'">t</tspan>
      <tspan x="110.619141" y="-0.367188" style="font-size: 14px; font-family: 'DejaVu Sans'">c</tspan>
      <tspan x="118.316406" y="-0.367188" style="font-size: 14px; font-family: 'DejaVu Sans'">h</tspan>
      <tspan x="127.189453" y="-0.367188" style="font-size: 14px; font-family: 'DejaVu Sans'">f</tspan>
      <tspan x="132.118164" y="-0.367188" style="font-size: 14px; font-family: 'DejaVu Sans'">o</tspan>
      <tspan x="140.683594" y="-0.367188" style="font-size: 14px; font-family: 'DejaVu Sans'">r</tspan>
      <tspan x="146.439453" y="-0.367188" style="font-size: 14px; font-family: 'DejaVu Sans'">k</tspan>
      <tspan x="154.546875" y="-0.367188" style="font-size: 14px; font-family: 'DejaVu Sans'">:</tspan>
      <tspan x="159.263672" y="-0.367188" style="font-size: 14px; font-family: 'DejaVu Sans'"> </tspan>
      <tspan x="163.713867" y="-0.367188" style="font-size: 14px; font-family: 'DejaVu Sans'"> </tspan>
      <tspan x="176.375977" y="-1.929688" style="font-size: 14px; font-family: 'DejaVu Sans'">̇</tspan>
      <tspan x="179.176758" y="-0.367188" style="font-size: 14px; font-family: 'DejaVu Sans'">=</tspan>
      <tspan x="213.554688" y="-0.367188" style="font-size: 14px; font-family: 'DejaVu Sans'">−</tspan>
      <tspan x="168.164062" y="-0.367188" style="font-style: oblique; font-size: 14px; font-family: 'DejaVu Sans'">x</tspan>
      <tspan x="193.634766" y="-0.367188" style="font-style: oblique; font-size: 14px; font-family: 'DejaVu Sans'">μ</tspan>
      <tspan x="202.541992" y="-0.367188" style="font-style: oblique; font-size: 14px; font-family: 'DejaVu Sans'">x</tspan>
      <tspan x="228.012695" y="-0.367188" style="font-style: oblique; font-size: 14px; font-family: 'DejaVu Sans'">x</tspan>
      <tspan x="236.923112" y="-5.726562" style="font-size: 9.8px; font-family: 'DejaVu Sans'">3</tspan>
     </text>
    </g>
   </g>
   <g id="line2d_33">
    <defs>
     <path id="m62ce754e40" d="M 0 3.5 
C 0.928211 3.5 1.81853 3.131218 2.474874 2.474874 
C 3.131218 1.81853 3.5 0.928211 3.5 0 
C 3.5 -0.928211 3.131218 -1.81853 2.474874 -2.474874 
C 1.81853 -3.131218 0.928211 -3.5 0 -3.5 
C -0.928211 -3.5 -1.81853 -3.131218 -2.474874 -2.474874 
C -3.131218 -1.81853 -3.5 -0.928211 -3.5 0 
C -3.5 0.928211 -3.131218 1.81853 -2.474874 2.474874 
C -1.81853 3.131218 -0.928211 3.5 0 3.5 
z
" style="stroke: #000000"/>
    </defs>
    <g clip-path="url(#p823927bbe7)">
     <use xlink:href="#m62ce754e40" x="209.313857" y="149.668" style="stroke: #000000"/>
    </g>
   </g>
   <g id="legend_1">
    <g id="patch_5">
     <path d="M 57.14 83.177812 
L 206.587031 83.177812 
Q 208.787031 83.177812 208.787031 80.977812 
L 208.787031 33.64 
Q 208.787031 31.44 206.587031 31.44 
L 57.14 31.44 
Q 54.94 31.44 54.94 33.64 
L 54.94 80.977812 
Q 54.94 83.177812 57.14 83.177812 
z
" style="fill: #ffffff; opacity: 0.95; stroke: #cccccc; stroke-linejoin: miter"/>
    </g>
    <g id="line2d_34">
     <path d="M 59.34 40.348281 
L 70.34 40.348281 
L 81.34 40.348281 
" style="fill: none; stroke: #0072bd; stroke-width: 2.5; stroke-linecap: square"/>
    </g>
    <g id="text_17">
     <text style="font-size: 11px; font-family: 'DejaVu Sans'; text-anchor: start" x="90.14" y="44.198281" transform="rotate(-0 90.14 44.198281)">Stable equilibrium</text>
    </g>
    <g id="line2d_35">
     <path d="M 59.34 56.494219 
L 70.34 56.494219 
L 81.34 56.494219 
" style="fill: none; stroke-dasharray: 9.25,4; stroke-dashoffset: 0; stroke: #d95319; stroke-width: 2.5"/>
    </g>
    <g id="text_18">
     <text style="font-size: 11px; font-family: 'DejaVu Sans'; text-anchor: start" x="90.14" y="60.344219" transform="rotate(-0 90.14 60.344219)">Unstable equilibrium</text>
    </g>
    <g id="line2d_36">
     <path d="M 59.34 72.640156 
L 70.34 72.640156 
L 81.34 72.640156 
" style="fill: none"/>
     <g>
      <use xlink:href="#m62ce754e40" x="70.34" y="72.640156" style="stroke: #000000"/>
     </g>
    </g>
    <g id="text_19">
     <text style="font-size: 11px; font-family: 'DejaVu Sans'; text-anchor: start" x="90.14" y="76.490156" transform="rotate(-0 90.14 76.490156)">Bifurcation point</text>
    </g>
   </g>
  </g>
 </g>
 <defs>
  <clipPath id="p823927bbe7">
   <rect x="49.44" y="25.94" width="373.039" height="247.456"/>
  </clipPath>
 </defs>
</svg>
