<?xml version="1.0" encoding="utf-8" standalone="no"?>
<!DOCTYPE svg PUBLIC "-//W3C//DTD SVG 1.1//EN"
  "http://www.w3.org/Graphics/SVG/1.1/DTD/svg11.dtd">
<svg xmlns:xlink="http://www.w3.org/1999/xlink" width="901.893281pt" height="394.026562pt" viewBox="0 0 901.893281 394.026562" xmlns="http://www.w3.org/2000/svg" version="1.1">
 <metadata>
  <rdf:RDF xmlns:dc="http://purl.org/dc/elements/1.1/" xmlns:cc="http://creativecommons.org/ns#" xmlns:rdf="http://www.w3.org/1999/02/22-rdf-syntax-ns#">
   <cc:Work>
    <dc:type rdf:resource="http://purl.org/dc/dcmitype/StillImage"/>
    <dc:date>2026-06-09T12:32:28.064546</dc:date>
    <dc:format>image/svg+xml</dc:format>
    <dc:creator>
     <cc:Agent>
      <dc:title>Matplotlib v3.10.8, https://matplotlib.org/</dc:title>
     </cc:Agent>
    </dc:creator>
   </cc:Work>
  </rdf:RDF>
 </metadata>
 <defs>
  <style type="text/css">*{stroke-linejoin: round; stroke-linecap: butt}</style>
 </defs>
 <g id="figure_1">
  <g id="patch_1">
   <path d="M 0 394.026562 
L 901.893281 394.026562 
L 901.893281 0 
L 0 0 
z
" style="fill: #ffffff"/>
  </g>
  <g id="axes_1">
   <g id="patch_2">
    <path d="M 41.95625 347.76 
L 416.35625 347.76 
L 416.35625 54.72 
L 41.95625 54.72 
z
" style="fill: #ffffff"/>
   </g>
   <g id="matplotlib.axis_1">
    <g id="xtick_1">
     <g id="line2d_1">
      <path d="M 41.95625 347.76 
L 41.95625 54.72 
" clip-path="url(#p067c075df6)" style="fill: none; stroke: #b0b0b0; stroke-opacity: 0.15; stroke-width: 0.8; stroke-linecap: square"/>
     </g>
     <g id="line2d_2">
      <defs>
       <path id="m6d275182b3" d="M 0 0 
L 0 3.5 
" style="stroke: #000000; stroke-width: 0.8"/>
      </defs>
      <g>
       <use xlink:href="#m6d275182b3" x="41.95625" y="347.76" style="stroke: #000000; stroke-width: 0.8"/>
      </g>
     </g>
     <g id="text_1">
      <!-- 0.0 -->
      <g transform="translate(31.619219 364.637969) scale(0.13 -0.13)">
       <defs>
        <path id="DejaVuSerif-30" d="M 2034 219 
Q 2513 219 2750 744 
Q 2988 1269 2988 2328 
Q 2988 3391 2750 3916 
Q 2513 4441 2034 4441 
Q 1556 4441 1318 3916 
Q 1081 3391 1081 2328 
Q 1081 1269 1318 744 
Q 1556 219 2034 219 
z
M 2034 -91 
Q 1275 -91 848 546 
Q 422 1184 422 2328 
Q 422 3475 848 4112 
Q 1275 4750 2034 4750 
Q 2797 4750 3222 4112 
Q 3647 3475 3647 2328 
Q 3647 1184 3222 546 
Q 2797 -91 2034 -91 
z
" transform="scale(0.015625)"/>
        <path id="DejaVuSerif-2e" d="M 603 325 
Q 603 500 722 622 
Q 841 744 1019 744 
Q 1191 744 1312 622 
Q 1434 500 1434 325 
Q 1434 153 1312 31 
Q 1191 -91 1019 -91 
Q 841 -91 722 29 
Q 603 150 603 325 
z
" transform="scale(0.015625)"/>
       </defs>
       <use xlink:href="#DejaVuSerif-30"/>
       <use xlink:href="#DejaVuSerif-2e" transform="translate(63.623047 0)"/>
       <use xlink:href="#DejaVuSerif-30" transform="translate(95.410156 0)"/>
      </g>
     </g>
    </g>
    <g id="xtick_2">
     <g id="line2d_3">
      <path d="M 88.75625 347.76 
L 88.75625 54.72 
" clip-path="url(#p067c075df6)" style="fill: none; stroke: #b0b0b0; stroke-opacity: 0.15; stroke-width: 0.8; stroke-linecap: square"/>
     </g>
     <g id="line2d_4">
      <g>
       <use xlink:href="#m6d275182b3" x="88.75625" y="347.76" style="stroke: #000000; stroke-width: 0.8"/>
      </g>
     </g>
     <g id="text_2">
      <!-- 0.5 -->
      <g transform="translate(78.419219 364.637969) scale(0.13 -0.13)">
       <defs>
        <path id="DejaVuSerif-35" d="M 3219 4666 
L 3219 4153 
L 1081 4153 
L 1081 2816 
Q 1244 2928 1461 2984 
Q 1678 3041 1947 3041 
Q 2703 3041 3140 2622 
Q 3578 2203 3578 1478 
Q 3578 738 3136 323 
Q 2694 -91 1894 -91 
Q 1572 -91 1234 -12 
Q 897 66 544 225 
L 544 1131 
L 897 1131 
Q 925 688 1179 453 
Q 1434 219 1894 219 
Q 2388 219 2653 544 
Q 2919 869 2919 1478 
Q 2919 2084 2655 2407 
Q 2391 2731 1894 2731 
Q 1613 2731 1398 2631 
Q 1184 2531 1019 2322 
L 750 2322 
L 750 4666 
L 3219 4666 
z
" transform="scale(0.015625)"/>
       </defs>
       <use xlink:href="#DejaVuSerif-30"/>
       <use xlink:href="#DejaVuSerif-2e" transform="translate(63.623047 0)"/>
       <use xlink:href="#DejaVuSerif-35" transform="translate(95.410156 0)"/>
      </g>
     </g>
    </g>
    <g id="xtick_3">
     <g id="line2d_5">
      <path d="M 135.55625 347.76 
L 135.55625 54.72 
" clip-path="url(#p067c075df6)" style="fill: none; stroke: #b0b0b0; stroke-opacity: 0.15; stroke-width: 0.8; stroke-linecap: square"/>
     </g>
     <g id="line2d_6">
      <g>
       <use xlink:href="#m6d275182b3" x="135.55625" y="347.76" style="stroke: #000000; stroke-width: 0.8"/>
      </g>
     </g>
     <g id="text_3">
      <!-- 1.0 -->
      <g transform="translate(125.219219 364.637969) scale(0.13 -0.13)">
       <defs>
        <path id="DejaVuSerif-31" d="M 909 0 
L 909 331 
L 1722 331 
L 1722 4213 
L 781 3603 
L 781 4013 
L 1919 4750 
L 2350 4750 
L 2350 331 
L 3163 331 
L 3163 0 
L 909 0 
z
" transform="scale(0.015625)"/>
       </defs>
       <use xlink:href="#DejaVuSerif-31"/>
       <use xlink:href="#DejaVuSerif-2e" transform="translate(63.623047 0)"/>
       <use xlink:href="#DejaVuSerif-30" transform="translate(95.410156 0)"/>
      </g>
     </g>
    </g>
    <g id="xtick_4">
     <g id="line2d_7">
      <path d="M 182.35625 347.76 
L 182.35625 54.72 
" clip-path="url(#p067c075df6)" style="fill: none; stroke: #b0b0b0; stroke-opacity: 0.15; stroke-width: 0.8; stroke-linecap: square"/>
     </g>
     <g id="line2d_8">
      <g>
       <use xlink:href="#m6d275182b3" x="182.35625" y="347.76" style="stroke: #000000; stroke-width: 0.8"/>
      </g>
     </g>
     <g id="text_4">
      <!-- 1.5 -->
      <g transform="translate(172.019219 364.637969) scale(0.13 -0.13)">
       <use xlink:href="#DejaVuSerif-31"/>
       <use xlink:href="#DejaVuSerif-2e" transform="translate(63.623047 0)"/>
       <use xlink:href="#DejaVuSerif-35" transform="translate(95.410156 0)"/>
      </g>
     </g>
    </g>
    <g id="xtick_5">
     <g id="line2d_9">
      <path d="M 229.15625 347.76 
L 229.15625 54.72 
" clip-path="url(#p067c075df6)" style="fill: none; stroke: #b0b0b0; stroke-opacity: 0.15; stroke-width: 0.8; stroke-linecap: square"/>
     </g>
     <g id="line2d_10">
      <g>
       <use xlink:href="#m6d275182b3" x="229.15625" y="347.76" style="stroke: #000000; stroke-width: 0.8"/>
      </g>
     </g>
     <g id="text_5">
      <!-- 2.0 -->
      <g transform="translate(218.819219 364.637969) scale(0.13 -0.13)">
       <defs>
        <path id="DejaVuSerif-32" d="M 819 3553 
L 469 3553 
L 469 4384 
Q 803 4563 1142 4656 
Q 1481 4750 1806 4750 
Q 2534 4750 2956 4397 
Q 3378 4044 3378 3438 
Q 3378 2753 2422 1800 
Q 2347 1728 2309 1691 
L 1131 513 
L 3078 513 
L 3078 1088 
L 3444 1088 
L 3444 0 
L 434 0 
L 434 341 
L 1850 1753 
Q 2319 2222 2519 2614 
Q 2719 3006 2719 3438 
Q 2719 3909 2473 4175 
Q 2228 4441 1797 4441 
Q 1350 4441 1106 4219 
Q 863 3997 819 3553 
z
" transform="scale(0.015625)"/>
       </defs>
       <use xlink:href="#DejaVuSerif-32"/>
       <use xlink:href="#DejaVuSerif-2e" transform="translate(63.623047 0)"/>
       <use xlink:href="#DejaVuSerif-30" transform="translate(95.410156 0)"/>
      </g>
     </g>
    </g>
    <g id="xtick_6">
     <g id="line2d_11">
      <path d="M 275.95625 347.76 
L 275.95625 54.72 
" clip-path="url(#p067c075df6)" style="fill: none; stroke: #b0b0b0; stroke-opacity: 0.15; stroke-width: 0.8; stroke-linecap: square"/>
     </g>
     <g id="line2d_12">
      <g>
       <use xlink:href="#m6d275182b3" x="275.95625" y="347.76" style="stroke: #000000; stroke-width: 0.8"/>
      </g>
     </g>
     <g id="text_6">
      <!-- 2.5 -->
      <g transform="translate(265.619219 364.637969) scale(0.13 -0.13)">
       <use xlink:href="#DejaVuSerif-32"/>
       <use xlink:href="#DejaVuSerif-2e" transform="translate(63.623047 0)"/>
       <use xlink:href="#DejaVuSerif-35" transform="translate(95.410156 0)"/>
      </g>
     </g>
    </g>
    <g id="xtick_7">
     <g id="line2d_13">
      <path d="M 322.75625 347.76 
L 322.75625 54.72 
" clip-path="url(#p067c075df6)" style="fill: none; stroke: #b0b0b0; stroke-opacity: 0.15; stroke-width: 0.8; stroke-linecap: square"/>
     </g>
     <g id="line2d_14">
      <g>
       <use xlink:href="#m6d275182b3" x="322.75625" y="347.76" style="stroke: #000000; stroke-width: 0.8"/>
      </g>
     </g>
     <g id="text_7">
      <!-- 3.0 -->
      <g transform="translate(312.419219 364.637969) scale(0.13 -0.13)">
       <defs>
        <path id="DejaVuSerif-33" d="M 622 4469 
Q 988 4606 1323 4678 
Q 1659 4750 1953 4750 
Q 2638 4750 3022 4454 
Q 3406 4159 3406 3634 
Q 3406 3213 3140 2930 
Q 2875 2647 2388 2547 
Q 2963 2466 3280 2130 
Q 3597 1794 3597 1259 
Q 3597 606 3158 257 
Q 2719 -91 1894 -91 
Q 1528 -91 1179 -12 
Q 831 66 488 225 
L 488 1131 
L 838 1131 
Q 869 681 1141 450 
Q 1413 219 1906 219 
Q 2384 219 2661 495 
Q 2938 772 2938 1253 
Q 2938 1803 2653 2086 
Q 2369 2369 1819 2369 
L 1522 2369 
L 1522 2688 
L 1678 2688 
Q 2225 2688 2498 2914 
Q 2772 3141 2772 3597 
Q 2772 4006 2547 4223 
Q 2322 4441 1900 4441 
Q 1478 4441 1245 4241 
Q 1013 4041 972 3647 
L 622 3647 
L 622 4469 
z
" transform="scale(0.015625)"/>
       </defs>
       <use xlink:href="#DejaVuSerif-33"/>
       <use xlink:href="#DejaVuSerif-2e" transform="translate(63.623047 0)"/>
       <use xlink:href="#DejaVuSerif-30" transform="translate(95.410156 0)"/>
      </g>
     </g>
    </g>
    <g id="xtick_8">
     <g id="line2d_15">
      <path d="M 369.55625 347.76 
L 369.55625 54.72 
" clip-path="url(#p067c075df6)" style="fill: none; stroke: #b0b0b0; stroke-opacity: 0.15; stroke-width: 0.8; stroke-linecap: square"/>
     </g>
     <g id="line2d_16">
      <g>
       <use xlink:href="#m6d275182b3" x="369.55625" y="347.76" style="stroke: #000000; stroke-width: 0.8"/>
      </g>
     </g>
     <g id="text_8">
      <!-- 3.5 -->
      <g transform="translate(359.219219 364.637969) scale(0.13 -0.13)">
       <use xlink:href="#DejaVuSerif-33"/>
       <use xlink:href="#DejaVuSerif-2e" transform="translate(63.623047 0)"/>
       <use xlink:href="#DejaVuSerif-35" transform="translate(95.410156 0)"/>
      </g>
     </g>
    </g>
    <g id="xtick_9">
     <g id="line2d_17">
      <path d="M 416.35625 347.76 
L 416.35625 54.72 
" clip-path="url(#p067c075df6)" style="fill: none; stroke: #b0b0b0; stroke-opacity: 0.15; stroke-width: 0.8; stroke-linecap: square"/>
     </g>
     <g id="line2d_18">
      <g>
       <use xlink:href="#m6d275182b3" x="416.35625" y="347.76" style="stroke: #000000; stroke-width: 0.8"/>
      </g>
     </g>
     <g id="text_9">
      <!-- 4.0 -->
      <g transform="translate(406.019219 364.637969) scale(0.13 -0.13)">
       <defs>
        <path id="DejaVuSerif-34" d="M 2234 1581 
L 2234 4063 
L 641 1581 
L 2234 1581 
z
M 3609 0 
L 1484 0 
L 1484 331 
L 2234 331 
L 2234 1247 
L 197 1247 
L 197 1588 
L 2241 4750 
L 2859 4750 
L 2859 1581 
L 3750 1581 
L 3750 1247 
L 2859 1247 
L 2859 331 
L 3609 331 
L 3609 0 
z
" transform="scale(0.015625)"/>
       </defs>
       <use xlink:href="#DejaVuSerif-34"/>
       <use xlink:href="#DejaVuSerif-2e" transform="translate(63.623047 0)"/>
       <use xlink:href="#DejaVuSerif-30" transform="translate(95.410156 0)"/>
      </g>
     </g>
    </g>
    <g id="text_10">
     <!-- Time $t$ -->
     <g transform="translate(203.47625 383.499062) scale(0.16 -0.16)">
      <defs>
       <path id="DejaVuSerif-54" d="M 1222 0 
L 1222 331 
L 1819 331 
L 1819 4294 
L 447 4294 
L 447 3566 
L 63 3566 
L 63 4666 
L 4206 4666 
L 4206 3566 
L 3822 3566 
L 3822 4294 
L 2450 4294 
L 2450 331 
L 3047 331 
L 3047 0 
L 1222 0 
z
" transform="scale(0.015625)"/>
       <path id="DejaVuSerif-69" d="M 622 4353 
Q 622 4497 726 4603 
Q 831 4709 978 4709 
Q 1122 4709 1226 4603 
Q 1331 4497 1331 4353 
Q 1331 4206 1228 4103 
Q 1125 4000 978 4000 
Q 831 4000 726 4103 
Q 622 4206 622 4353 
z
M 1356 331 
L 1900 331 
L 1900 0 
L 231 0 
L 231 331 
L 781 331 
L 781 2988 
L 231 2988 
L 231 3322 
L 1356 3322 
L 1356 331 
z
" transform="scale(0.015625)"/>
       <path id="DejaVuSerif-6d" d="M 3316 2675 
Q 3481 3041 3739 3227 
Q 3997 3413 4341 3413 
Q 4863 3413 5119 3089 
Q 5375 2766 5375 2113 
L 5375 331 
L 5894 331 
L 5894 0 
L 4300 0 
L 4300 331 
L 4800 331 
L 4800 2047 
Q 4800 2556 4650 2772 
Q 4500 2988 4153 2988 
Q 3769 2988 3567 2697 
Q 3366 2406 3366 1850 
L 3366 331 
L 3866 331 
L 3866 0 
L 2291 0 
L 2291 331 
L 2791 331 
L 2791 2069 
Q 2791 2566 2641 2777 
Q 2491 2988 2144 2988 
Q 1759 2988 1557 2697 
Q 1356 2406 1356 1850 
L 1356 331 
L 1856 331 
L 1856 0 
L 263 0 
L 263 331 
L 781 331 
L 781 2994 
L 231 2994 
L 231 3322 
L 1356 3322 
L 1356 2731 
Q 1516 3063 1762 3238 
Q 2009 3413 2322 3413 
Q 2709 3413 2968 3220 
Q 3228 3028 3316 2675 
z
" transform="scale(0.015625)"/>
       <path id="DejaVuSerif-65" d="M 3469 1600 
L 991 1600 
L 991 1575 
Q 991 903 1244 561 
Q 1497 219 1991 219 
Q 2369 219 2611 417 
Q 2853 616 2950 1006 
L 3413 1006 
Q 3275 459 2904 184 
Q 2534 -91 1931 -91 
Q 1203 -91 761 389 
Q 319 869 319 1663 
Q 319 2450 753 2931 
Q 1188 3413 1894 3413 
Q 2647 3413 3050 2948 
Q 3453 2484 3469 1600 
z
M 2791 1931 
Q 2772 2513 2545 2808 
Q 2319 3103 1894 3103 
Q 1497 3103 1269 2806 
Q 1041 2509 991 1931 
L 2791 1931 
z
" transform="scale(0.015625)"/>
       <path id="DejaVuSerif-20" transform="scale(0.015625)"/>
       <path id="Cmmi10-74" d="M 397 519 
Q 397 613 416 697 
L 878 2534 
L 206 2534 
Q 141 2534 141 2619 
Q 166 2759 225 2759 
L 934 2759 
L 1191 3803 
Q 1216 3888 1291 3947 
Q 1366 4006 1459 4006 
Q 1541 4006 1595 3957 
Q 1650 3909 1650 3828 
Q 1650 3809 1648 3798 
Q 1647 3788 1644 3775 
L 1388 2759 
L 2047 2759 
Q 2113 2759 2113 2675 
Q 2109 2659 2100 2621 
Q 2091 2584 2075 2559 
Q 2059 2534 2028 2534 
L 1331 2534 
L 872 684 
Q 825 503 825 372 
Q 825 97 1013 97 
Q 1294 97 1511 361 
Q 1728 625 1844 941 
Q 1869 978 1894 978 
L 1972 978 
Q 1997 978 2012 961 
Q 2028 944 2028 922 
Q 2028 909 2022 903 
Q 1881 516 1612 222 
Q 1344 -72 997 -72 
Q 744 -72 570 93 
Q 397 259 397 519 
z
" transform="scale(0.015625)"/>
      </defs>
      <use xlink:href="#DejaVuSerif-54" transform="translate(0 0.421875)"/>
      <use xlink:href="#DejaVuSerif-69" transform="translate(66.699219 0.421875)"/>
      <use xlink:href="#DejaVuSerif-6d" transform="translate(98.681641 0.421875)"/>
      <use xlink:href="#DejaVuSerif-65" transform="translate(193.505859 0.421875)"/>
      <use xlink:href="#DejaVuSerif-20" transform="translate(252.685547 0.421875)"/>
      <use xlink:href="#Cmmi10-74" transform="translate(284.472656 0.421875)"/>
     </g>
    </g>
   </g>
   <g id="matplotlib.axis_2">
    <g id="ytick_1">
     <g id="line2d_19">
      <path d="M 41.95625 347.76 
L 416.35625 347.76 
" clip-path="url(#p067c075df6)" style="fill: none; stroke: #b0b0b0; stroke-opacity: 0.15; stroke-width: 0.8; stroke-linecap: square"/>
     </g>
     <g id="line2d_20">
      <defs>
       <path id="m149c983595" d="M 0 0 
L -3.5 0 
" style="stroke: #000000; stroke-width: 0.8"/>
      </defs>
      <g>
       <use xlink:href="#m149c983595" x="41.95625" y="347.76" style="stroke: #000000; stroke-width: 0.8"/>
      </g>
     </g>
     <g id="text_11">
      <!-- 0 -->
      <g transform="translate(26.685 352.698984) scale(0.13 -0.13)">
       <use xlink:href="#DejaVuSerif-30"/>
      </g>
     </g>
    </g>
    <g id="ytick_2">
     <g id="line2d_21">
      <path d="M 41.95625 298.92 
L 416.35625 298.92 
" clip-path="url(#p067c075df6)" style="fill: none; stroke: #b0b0b0; stroke-opacity: 0.15; stroke-width: 0.8; stroke-linecap: square"/>
     </g>
     <g id="line2d_22">
      <g>
       <use xlink:href="#m149c983595" x="41.95625" y="298.92" style="stroke: #000000; stroke-width: 0.8"/>
      </g>
     </g>
     <g id="text_12">
      <!-- 1 -->
      <g transform="translate(26.685 303.858984) scale(0.13 -0.13)">
       <use xlink:href="#DejaVuSerif-31"/>
      </g>
     </g>
    </g>
    <g id="ytick_3">
     <g id="line2d_23">
      <path d="M 41.95625 250.08 
L 416.35625 250.08 
" clip-path="url(#p067c075df6)" style="fill: none; stroke: #b0b0b0; stroke-opacity: 0.15; stroke-width: 0.8; stroke-linecap: square"/>
     </g>
     <g id="line2d_24">
      <g>
       <use xlink:href="#m149c983595" x="41.95625" y="250.08" style="stroke: #000000; stroke-width: 0.8"/>
      </g>
     </g>
     <g id="text_13">
      <!-- 2 -->
      <g transform="translate(26.685 255.018984) scale(0.13 -0.13)">
       <use xlink:href="#DejaVuSerif-32"/>
      </g>
     </g>
    </g>
    <g id="ytick_4">
     <g id="line2d_25">
      <path d="M 41.95625 201.24 
L 416.35625 201.24 
" clip-path="url(#p067c075df6)" style="fill: none; stroke: #b0b0b0; stroke-opacity: 0.15; stroke-width: 0.8; stroke-linecap: square"/>
     </g>
     <g id="line2d_26">
      <g>
       <use xlink:href="#m149c983595" x="41.95625" y="201.24" style="stroke: #000000; stroke-width: 0.8"/>
      </g>
     </g>
     <g id="text_14">
      <!-- 3 -->
      <g transform="translate(26.685 206.178984) scale(0.13 -0.13)">
       <use xlink:href="#DejaVuSerif-33"/>
      </g>
     </g>
    </g>
    <g id="ytick_5">
     <g id="line2d_27">
      <path d="M 41.95625 152.4 
L 416.35625 152.4 
" clip-path="url(#p067c075df6)" style="fill: none; stroke: #b0b0b0; stroke-opacity: 0.15; stroke-width: 0.8; stroke-linecap: square"/>
     </g>
     <g id="line2d_28">
      <g>
       <use xlink:href="#m149c983595" x="41.95625" y="152.4" style="stroke: #000000; stroke-width: 0.8"/>
      </g>
     </g>
     <g id="text_15">
      <!-- 4 -->
      <g transform="translate(26.685 157.338984) scale(0.13 -0.13)">
       <use xlink:href="#DejaVuSerif-34"/>
      </g>
     </g>
    </g>
    <g id="ytick_6">
     <g id="line2d_29">
      <path d="M 41.95625 103.56 
L 416.35625 103.56 
" clip-path="url(#p067c075df6)" style="fill: none; stroke: #b0b0b0; stroke-opacity: 0.15; stroke-width: 0.8; stroke-linecap: square"/>
     </g>
     <g id="line2d_30">
      <g>
       <use xlink:href="#m149c983595" x="41.95625" y="103.56" style="stroke: #000000; stroke-width: 0.8"/>
      </g>
     </g>
     <g id="text_16">
      <!-- 5 -->
      <g transform="translate(26.685 108.498984) scale(0.13 -0.13)">
       <use xlink:href="#DejaVuSerif-35"/>
      </g>
     </g>
    </g>
    <g id="ytick_7">
     <g id="line2d_31">
      <path d="M 41.95625 54.72 
L 416.35625 54.72 
" clip-path="url(#p067c075df6)" style="fill: none; stroke: #b0b0b0; stroke-opacity: 0.15; stroke-width: 0.8; stroke-linecap: square"/>
     </g>
     <g id="line2d_32">
      <g>
       <use xlink:href="#m149c983595" x="41.95625" y="54.72" style="stroke: #000000; stroke-width: 0.8"/>
      </g>
     </g>
     <g id="text_17">
      <!-- 6 -->
      <g transform="translate(26.685 59.658984) scale(0.13 -0.13)">
       <defs>
        <path id="DejaVuSerif-36" d="M 2094 219 
Q 2534 219 2771 542 
Q 3009 866 3009 1472 
Q 3009 2078 2771 2401 
Q 2534 2725 2094 2725 
Q 1647 2725 1412 2412 
Q 1178 2100 1178 1509 
Q 1178 888 1415 553 
Q 1653 219 2094 219 
z
M 1075 2569 
Q 1288 2803 1556 2918 
Q 1825 3034 2163 3034 
Q 2859 3034 3264 2615 
Q 3669 2197 3669 1472 
Q 3669 763 3233 336 
Q 2797 -91 2069 -91 
Q 1278 -91 853 498 
Q 428 1088 428 2181 
Q 428 3406 931 4078 
Q 1434 4750 2350 4750 
Q 2597 4750 2869 4703 
Q 3141 4656 3425 4563 
L 3425 3794 
L 3072 3794 
Q 3034 4109 2831 4275 
Q 2628 4441 2284 4441 
Q 1678 4441 1381 3981 
Q 1084 3522 1075 2569 
z
" transform="scale(0.015625)"/>
       </defs>
       <use xlink:href="#DejaVuSerif-36"/>
      </g>
     </g>
    </g>
    <g id="text_18">
     <!-- Norm / bound -->
     <g transform="translate(19.3575 257.61) rotate(-90) scale(0.16 -0.16)">
      <defs>
       <path id="DejaVuSerif-4e" d="M 313 0 
L 313 331 
L 941 331 
L 941 4331 
L 313 4331 
L 313 4666 
L 1509 4666 
L 4306 984 
L 4306 4331 
L 3681 4331 
L 3681 4666 
L 5319 4666 
L 5319 4331 
L 4691 4331 
L 4691 -91 
L 4313 -91 
L 1325 3841 
L 1325 331 
L 1953 331 
L 1953 0 
L 313 0 
z
" transform="scale(0.015625)"/>
       <path id="DejaVuSerif-6f" d="M 1925 219 
Q 2388 219 2623 584 
Q 2859 950 2859 1663 
Q 2859 2375 2623 2739 
Q 2388 3103 1925 3103 
Q 1463 3103 1227 2739 
Q 991 2375 991 1663 
Q 991 950 1228 584 
Q 1466 219 1925 219 
z
M 1925 -91 
Q 1200 -91 759 389 
Q 319 869 319 1663 
Q 319 2456 758 2934 
Q 1197 3413 1925 3413 
Q 2653 3413 3092 2934 
Q 3531 2456 3531 1663 
Q 3531 869 3092 389 
Q 2653 -91 1925 -91 
z
" transform="scale(0.015625)"/>
       <path id="DejaVuSerif-72" d="M 3059 3328 
L 3059 2497 
L 2728 2497 
Q 2713 2744 2591 2866 
Q 2469 2988 2234 2988 
Q 1809 2988 1582 2694 
Q 1356 2400 1356 1850 
L 1356 331 
L 2022 331 
L 2022 0 
L 263 0 
L 263 331 
L 781 331 
L 781 2994 
L 231 2994 
L 231 3322 
L 1356 3322 
L 1356 2731 
Q 1525 3078 1790 3245 
Q 2056 3413 2438 3413 
Q 2578 3413 2733 3391 
Q 2888 3369 3059 3328 
z
" transform="scale(0.015625)"/>
       <path id="DejaVuSerif-2f" d="M 1656 4666 
L 2156 4666 
L 500 -594 
L 0 -594 
L 1656 4666 
z
" transform="scale(0.015625)"/>
       <path id="DejaVuSerif-62" d="M 738 331 
L 738 4531 
L 184 4531 
L 184 4863 
L 1313 4863 
L 1313 2803 
Q 1481 3116 1742 3264 
Q 2003 3413 2388 3413 
Q 3000 3413 3387 2928 
Q 3775 2444 3775 1663 
Q 3775 881 3387 395 
Q 3000 -91 2388 -91 
Q 2003 -91 1742 57 
Q 1481 206 1313 519 
L 1313 0 
L 184 0 
L 184 331 
L 738 331 
z
M 1313 1497 
Q 1313 897 1542 583 
Q 1772 269 2209 269 
Q 2650 269 2876 622 
Q 3103 975 3103 1663 
Q 3103 2353 2876 2703 
Q 2650 3053 2209 3053 
Q 1772 3053 1542 2737 
Q 1313 2422 1313 1825 
L 1313 1497 
z
" transform="scale(0.015625)"/>
       <path id="DejaVuSerif-75" d="M 2266 3322 
L 3341 3322 
L 3341 331 
L 3884 331 
L 3884 0 
L 2766 0 
L 2766 588 
Q 2606 256 2353 82 
Q 2100 -91 1766 -91 
Q 1213 -91 952 223 
Q 691 538 691 1209 
L 691 2988 
L 172 2988 
L 172 3322 
L 1269 3322 
L 1269 1388 
Q 1269 781 1417 556 
Q 1566 331 1947 331 
Q 2347 331 2556 625 
Q 2766 919 2766 1478 
L 2766 2988 
L 2266 2988 
L 2266 3322 
z
" transform="scale(0.015625)"/>
       <path id="DejaVuSerif-6e" d="M 263 0 
L 263 331 
L 781 331 
L 781 2988 
L 231 2988 
L 231 3322 
L 1356 3322 
L 1356 2731 
Q 1516 3069 1770 3241 
Q 2025 3413 2363 3413 
Q 2913 3413 3172 3097 
Q 3431 2781 3431 2113 
L 3431 331 
L 3944 331 
L 3944 0 
L 2356 0 
L 2356 331 
L 2853 331 
L 2853 1931 
Q 2853 2541 2703 2767 
Q 2553 2994 2175 2994 
Q 1775 2994 1565 2701 
Q 1356 2409 1356 1850 
L 1356 331 
L 1856 331 
L 1856 0 
L 263 0 
z
" transform="scale(0.015625)"/>
       <path id="DejaVuSerif-64" d="M 3359 331 
L 3909 331 
L 3909 0 
L 2784 0 
L 2784 519 
Q 2616 206 2355 57 
Q 2094 -91 1709 -91 
Q 1097 -91 708 395 
Q 319 881 319 1663 
Q 319 2444 706 2928 
Q 1094 3413 1709 3413 
Q 2094 3413 2355 3264 
Q 2616 3116 2784 2803 
L 2784 4531 
L 2241 4531 
L 2241 4863 
L 3359 4863 
L 3359 331 
z
M 2784 1497 
L 2784 1825 
Q 2784 2422 2554 2737 
Q 2325 3053 1888 3053 
Q 1444 3053 1217 2703 
Q 991 2353 991 1663 
Q 991 975 1217 622 
Q 1444 269 1888 269 
Q 2325 269 2554 583 
Q 2784 897 2784 1497 
z
" transform="scale(0.015625)"/>
      </defs>
      <use xlink:href="#DejaVuSerif-4e"/>
      <use xlink:href="#DejaVuSerif-6f" transform="translate(87.5 0)"/>
      <use xlink:href="#DejaVuSerif-72" transform="translate(147.705078 0)"/>
      <use xlink:href="#DejaVuSerif-6d" transform="translate(195.507812 0)"/>
      <use xlink:href="#DejaVuSerif-20" transform="translate(290.332031 0)"/>
      <use xlink:href="#DejaVuSerif-2f" transform="translate(322.119141 0)"/>
      <use xlink:href="#DejaVuSerif-20" transform="translate(355.810547 0)"/>
      <use xlink:href="#DejaVuSerif-62" transform="translate(387.597656 0)"/>
      <use xlink:href="#DejaVuSerif-6f" transform="translate(451.611328 0)"/>
      <use xlink:href="#DejaVuSerif-75" transform="translate(511.816406 0)"/>
      <use xlink:href="#DejaVuSerif-6e" transform="translate(576.220703 0)"/>
      <use xlink:href="#DejaVuSerif-64" transform="translate(640.625 0)"/>
     </g>
    </g>
   </g>
   <g id="line2d_33">
    <path d="M 41.95625 298.92 
L 44.957452 294.491014 
L 47.958655 290.572626 
L 50.959857 287.125688 
L 53.96106 284.113719 
L 56.962262 281.502732 
L 59.963464 279.26107 
L 62.964667 277.359256 
L 65.965869 275.76985 
L 68.967072 274.467316 
L 71.968274 273.427898 
L 74.969476 272.629502 
L 77.970679 272.05159 
L 80.971881 271.675074 
L 84.723384 271.460748 
L 88.474887 271.501615 
L 92.22639 271.768639 
L 95.977893 272.235391 
L 100.479697 273.025441 
L 104.981501 274.031185 
L 110.233605 275.432934 
L 116.23601 277.279589 
L 122.988715 279.598045 
L 131.242022 282.678429 
L 142.496531 287.139214 
L 176.260058 300.684242 
L 188.264867 305.17772 
L 199.519376 309.140787 
L 210.023585 312.600891 
L 220.527793 315.822265 
L 231.032002 318.8044 
L 241.53621 321.552041 
L 252.040418 324.073579 
L 263.294927 326.536646 
L 274.549436 328.767783 
L 286.554246 330.91029 
L 298.559056 332.827395 
L 311.314166 334.639459 
L 324.819577 336.330441 
L 339.075288 337.88892 
L 354.0813 339.308 
L 370.587913 340.640893 
L 388.595128 341.861652 
L 408.102943 342.953201 
L 416.35625 343.352857 
L 416.35625 343.352857 
" clip-path="url(#p067c075df6)" style="fill: none; stroke: #0072bd; stroke-width: 2.5; stroke-linecap: square"/>
   </g>
   <g id="line2d_34">
    <path d="M 41.95625 298.92 
L 44.957452 293.988584 
L 47.958655 288.559238 
L 50.959857 282.581686 
L 53.96106 276.000576 
L 56.962262 268.754966 
L 59.963464 260.77776 
L 62.964667 251.995089 
L 65.965869 242.325624 
L 68.967072 231.679825 
L 71.968274 219.959111 
L 74.969476 207.054946 
L 77.970679 192.847837 
L 80.971881 177.206224 
L 83.973084 159.985263 
L 86.974286 141.025488 
L 89.975488 120.151328 
L 92.976691 97.169486 
L 95.977893 71.867147 
L 98.979096 44.010011 
L 101.980298 13.340115 
L 103.288569 -1 
L 103.288569 -1 
" clip-path="url(#p067c075df6)" style="fill: none; stroke-dasharray: 7.4,3.2; stroke-dashoffset: 0; stroke: #d95319; stroke-width: 2"/>
   </g>
   <g id="line2d_35">
    <path d="M 41.95625 107.138143 
L 46.458054 118.437239 
L 50.959857 129.205752 
L 55.461661 139.468599 
L 59.963464 149.249524 
L 64.465268 158.571158 
L 68.967072 167.455067 
L 74.219176 177.293761 
L 79.47128 186.595588 
L 84.723384 195.389841 
L 89.975488 203.704219 
L 95.227593 211.564907 
L 100.479697 218.996661 
L 105.731801 226.022886 
L 110.983905 232.665712 
L 116.23601 238.946058 
L 121.488114 244.883705 
L 126.740218 250.497353 
L 131.992322 255.804681 
L 137.244426 260.822404 
L 142.496531 265.566326 
L 148.498935 270.67181 
L 154.50134 275.460166 
L 160.503745 279.951092 
L 166.50615 284.163062 
L 172.508555 288.113405 
L 178.510959 291.818371 
L 185.263665 295.712096 
L 192.01637 299.334805 
L 198.769076 302.705362 
L 205.521781 305.841316 
L 213.024787 309.070381 
L 220.527793 312.050705 
L 228.030799 314.801451 
L 236.284106 317.583172 
L 244.537412 320.130115 
L 253.54102 322.664072 
L 262.544627 324.965638 
L 272.298535 327.221426 
L 282.052442 329.253975 
L 292.556651 331.218507 
L 303.81116 333.09254 
L 315.815969 334.858095 
L 328.57108 336.501736 
L 342.07649 338.01442 
L 356.332202 339.391211 
L 372.088515 340.687793 
L 389.345428 341.878547 
L 408.102943 342.946603 
L 416.35625 343.352857 
L 416.35625 343.352857 
" clip-path="url(#p067c075df6)" style="fill: none; stroke-dasharray: 2,3.3; stroke-dashoffset: 0; stroke: #77ac30; stroke-width: 2"/>
   </g>
   <g id="patch_3">
    <path d="M 41.95625 347.76 
L 41.95625 54.72 
" style="fill: none; stroke: #000000; stroke-width: 0.8; stroke-linejoin: miter; stroke-linecap: square"/>
   </g>
   <g id="patch_4">
    <path d="M 41.95625 347.76 
L 416.35625 347.76 
" style="fill: none; stroke: #000000; stroke-width: 0.8; stroke-linejoin: miter; stroke-linecap: square"/>
   </g>
   <g id="text_19">
    <g id="patch_5">
     <path d="M 281.22425 91.7712 
L 405.12425 91.7712 
Q 409.12425 91.7712 409.12425 87.7712 
L 409.12425 63.5112 
Q 409.12425 59.5112 405.12425 59.5112 
L 281.22425 59.5112 
Q 277.22425 59.5112 277.22425 63.5112 
L 277.22425 87.7712 
Q 277.22425 91.7712 281.22425 91.7712 
z
" style="fill: #ffffff; stroke: #b2b2b2; stroke-linejoin: miter"/>
    </g>
    <!-- $A = [[-1,\; 5],\; [0,\; -2]]$ -->
    <g transform="translate(309.72425 71.0112) scale(0.1 -0.1)">
     <defs>
      <path id="Cmmi10-41" d="M 288 0 
Q 225 0 225 84 
Q 250 225 306 225 
Q 566 225 755 328 
Q 944 431 1081 647 
Q 1094 659 1094 659 
L 3378 4513 
Q 3428 4581 3500 4581 
L 3584 4581 
Q 3603 4581 3622 4573 
Q 3641 4566 3655 4548 
Q 3669 4531 3669 4513 
L 4056 378 
Q 4056 350 4084 294 
Q 4147 225 4563 225 
Q 4628 225 4628 141 
Q 4606 56 4592 28 
Q 4578 0 4519 0 
L 2919 0 
Q 2859 0 2859 84 
Q 2894 225 2944 225 
Q 3450 225 3481 397 
L 3384 1453 
L 1806 1453 
L 1294 594 
Q 1247 525 1247 434 
Q 1247 322 1355 273 
Q 1463 225 1594 225 
Q 1656 225 1656 141 
Q 1634 50 1621 25 
Q 1609 0 1550 0 
L 288 0 
z
M 1931 1678 
L 3359 1678 
L 3169 3750 
L 1931 1678 
z
" transform="scale(0.015625)"/>
      <path id="Cmr10-3d" d="M 481 850 
Q 428 850 393 890 
Q 359 931 359 978 
Q 359 1031 393 1068 
Q 428 1106 481 1106 
L 4500 1106 
Q 4547 1106 4581 1068 
Q 4616 1031 4616 978 
Q 4616 931 4581 890 
Q 4547 850 4500 850 
L 481 850 
z
M 481 2094 
Q 428 2094 393 2131 
Q 359 2169 359 2222 
Q 359 2269 393 2309 
Q 428 2350 481 2350 
L 4500 2350 
Q 4547 2350 4581 2309 
Q 4616 2269 4616 2222 
Q 4616 2169 4581 2131 
Q 4547 2094 4500 2094 
L 481 2094 
z
" transform="scale(0.015625)"/>
      <path id="Cmr10-5b" d="M 756 -1600 
L 756 4800 
L 1631 4800 
L 1631 4544 
L 1013 4544 
L 1013 -1344 
L 1631 -1344 
L 1631 -1600 
L 756 -1600 
z
" transform="scale(0.015625)"/>
      <path id="Cmsy10-a1" d="M 653 1472 
Q 600 1472 565 1512 
Q 531 1553 531 1600 
Q 531 1647 565 1687 
Q 600 1728 653 1728 
L 4325 1728 
Q 4375 1728 4408 1687 
Q 4441 1647 4441 1600 
Q 4441 1553 4408 1512 
Q 4375 1472 4325 1472 
L 653 1472 
z
" transform="scale(0.015625)"/>
      <path id="Cmr10-31" d="M 594 0 
L 594 225 
Q 1394 225 1394 428 
L 1394 3788 
Q 1063 3628 556 3628 
L 556 3853 
Q 1341 3853 1741 4263 
L 1831 4263 
Q 1853 4263 1873 4245 
Q 1894 4228 1894 4206 
L 1894 428 
Q 1894 225 2694 225 
L 2694 0 
L 594 0 
z
" transform="scale(0.015625)"/>
      <path id="Cmmi10-3b" d="M 634 -1153 
Q 634 -1125 659 -1100 
Q 891 -878 1019 -587 
Q 1147 -297 1147 25 
L 1147 103 
Q 1044 0 891 0 
Q 744 0 641 103 
Q 538 206 538 353 
Q 538 503 641 603 
Q 744 703 891 703 
Q 1119 703 1216 492 
Q 1313 281 1313 25 
Q 1313 -331 1170 -651 
Q 1028 -972 769 -1228 
Q 744 -1241 728 -1241 
Q 697 -1241 665 -1212 
Q 634 -1184 634 -1153 
z
" transform="scale(0.015625)"/>
      <path id="Cmr10-35" d="M 556 728 
Q 622 541 758 387 
Q 894 234 1080 148 
Q 1266 63 1466 63 
Q 1928 63 2103 422 
Q 2278 781 2278 1294 
Q 2278 1516 2270 1667 
Q 2263 1819 2228 1959 
Q 2169 2184 2020 2353 
Q 1872 2522 1656 2522 
Q 1441 2522 1286 2456 
Q 1131 2391 1034 2303 
Q 938 2216 863 2119 
Q 788 2022 769 2016 
L 697 2016 
Q 681 2016 657 2036 
Q 634 2056 634 2075 
L 634 4213 
Q 634 4228 654 4245 
Q 675 4263 697 4263 
L 716 4263 
Q 1147 4056 1631 4056 
Q 2106 4056 2547 4263 
L 2566 4263 
Q 2588 4263 2606 4247 
Q 2625 4231 2625 4213 
L 2625 4153 
Q 2625 4122 2613 4122 
Q 2394 3831 2064 3668 
Q 1734 3506 1381 3506 
Q 1125 3506 856 3578 
L 856 2369 
Q 1069 2541 1236 2614 
Q 1403 2688 1663 2688 
Q 2016 2688 2295 2484 
Q 2575 2281 2725 1954 
Q 2875 1628 2875 1288 
Q 2875 903 2686 575 
Q 2497 247 2172 53 
Q 1847 -141 1466 -141 
Q 1150 -141 886 21 
Q 622 184 470 459 
Q 319 734 319 1044 
Q 319 1188 412 1278 
Q 506 1369 647 1369 
Q 788 1369 883 1276 
Q 978 1184 978 1044 
Q 978 906 883 811 
Q 788 716 647 716 
Q 625 716 597 720 
Q 569 725 556 728 
z
" transform="scale(0.015625)"/>
      <path id="Cmr10-5d" d="M 141 -1600 
L 141 -1344 
L 763 -1344 
L 763 4544 
L 141 4544 
L 141 4800 
L 1019 4800 
L 1019 -1600 
L 141 -1600 
z
" transform="scale(0.015625)"/>
      <path id="Cmr10-30" d="M 1600 -141 
Q 816 -141 533 504 
Q 250 1150 250 2041 
Q 250 2597 351 3087 
Q 453 3578 754 3920 
Q 1056 4263 1600 4263 
Q 2022 4263 2290 4056 
Q 2559 3850 2700 3523 
Q 2841 3197 2892 2823 
Q 2944 2450 2944 2041 
Q 2944 1491 2842 1011 
Q 2741 531 2444 195 
Q 2147 -141 1600 -141 
z
M 1600 25 
Q 1956 25 2131 390 
Q 2306 756 2347 1200 
Q 2388 1644 2388 2144 
Q 2388 2625 2347 3031 
Q 2306 3438 2132 3767 
Q 1959 4097 1600 4097 
Q 1238 4097 1063 3765 
Q 888 3434 847 3029 
Q 806 2625 806 2144 
Q 806 1788 823 1472 
Q 841 1156 916 820 
Q 991 484 1158 254 
Q 1325 25 1600 25 
z
" transform="scale(0.015625)"/>
      <path id="Cmr10-32" d="M 319 0 
L 319 172 
Q 319 188 331 206 
L 1325 1306 
Q 1550 1550 1690 1715 
Q 1831 1881 1968 2097 
Q 2106 2313 2186 2536 
Q 2266 2759 2266 3009 
Q 2266 3272 2169 3511 
Q 2072 3750 1880 3894 
Q 1688 4038 1416 4038 
Q 1138 4038 916 3870 
Q 694 3703 603 3438 
Q 628 3444 672 3444 
Q 816 3444 917 3347 
Q 1019 3250 1019 3097 
Q 1019 2950 917 2848 
Q 816 2747 672 2747 
Q 522 2747 420 2851 
Q 319 2956 319 3097 
Q 319 3338 409 3548 
Q 500 3759 670 3923 
Q 841 4088 1055 4175 
Q 1269 4263 1509 4263 
Q 1875 4263 2190 4108 
Q 2506 3953 2690 3670 
Q 2875 3388 2875 3009 
Q 2875 2731 2753 2481 
Q 2631 2231 2440 2026 
Q 2250 1822 1953 1562 
Q 1656 1303 1563 1216 
L 838 519 
L 1453 519 
Q 1906 519 2211 526 
Q 2516 534 2534 550 
Q 2609 631 2688 1141 
L 2875 1141 
L 2694 0 
L 319 0 
z
" transform="scale(0.015625)"/>
     </defs>
     <use xlink:href="#Cmmi10-41"/>
     <use xlink:href="#Cmr10-3d" transform="translate(92.558594 0)"/>
     <use xlink:href="#Cmr10-5b" transform="translate(187.802734 0)"/>
     <use xlink:href="#Cmr10-5b" transform="translate(215.488281 0)"/>
     <use xlink:href="#Cmsy10-a1" transform="translate(243.173828 0)"/>
     <use xlink:href="#Cmr10-31" transform="translate(320.859375 0)"/>
     <use xlink:href="#Cmmi10-3b" transform="translate(370.859375 0)"/>
     <use xlink:href="#Cmr10-35" transform="translate(440.490646 0)"/>
     <use xlink:href="#Cmr10-5d" transform="translate(490.490646 0)"/>
     <use xlink:href="#Cmmi10-3b" transform="translate(518.176193 0)"/>
     <use xlink:href="#Cmr10-5b" transform="translate(587.807465 0)"/>
     <use xlink:href="#Cmr10-30" transform="translate(615.493012 0)"/>
     <use xlink:href="#Cmmi10-3b" transform="translate(665.493012 0)"/>
     <use xlink:href="#Cmsy10-a1" transform="translate(752.682877 0)"/>
     <use xlink:href="#Cmr10-32" transform="translate(847.927018 0)"/>
     <use xlink:href="#Cmr10-5d" transform="translate(897.927018 0)"/>
     <use xlink:href="#Cmr10-5d" transform="translate(925.612564 0)"/>
    </g>
    <!-- $\lambda(A) = \{-1,\, -2\}$  (stable) -->
    <g transform="translate(281.22425 85.2712) scale(0.1 -0.1)">
     <defs>
      <path id="Cmmi10-b8" d="M 325 109 
Q 325 203 409 288 
L 2209 2053 
L 1575 3834 
Q 1500 4038 1417 4156 
Q 1334 4275 1178 4275 
Q 1106 4275 1106 4359 
Q 1113 4397 1138 4419 
Q 1163 4441 1203 4441 
Q 1875 4441 2016 4044 
L 3316 416 
Q 3400 144 3488 50 
Q 3519 3 3519 -13 
Q 3519 -72 3469 -72 
L 3122 -72 
Q 2963 -25 2869 206 
L 2284 1844 
L 738 25 
Q 622 -84 531 -84 
Q 450 -84 387 -28 
Q 325 28 325 109 
z
" transform="scale(0.015625)"/>
      <path id="Cmr10-28" d="M 1984 -1588 
Q 1628 -1306 1370 -942 
Q 1113 -578 948 -165 
Q 784 247 703 697 
Q 622 1147 622 1600 
Q 622 2059 703 2509 
Q 784 2959 951 3375 
Q 1119 3791 1378 4153 
Q 1638 4516 1984 4788 
Q 1984 4800 2016 4800 
L 2075 4800 
Q 2094 4800 2109 4783 
Q 2125 4766 2125 4744 
Q 2125 4716 2113 4703 
Q 1800 4397 1592 4047 
Q 1384 3697 1257 3301 
Q 1131 2906 1075 2482 
Q 1019 2059 1019 1600 
Q 1019 -434 2106 -1491 
Q 2125 -1509 2125 -1544 
Q 2125 -1559 2108 -1579 
Q 2091 -1600 2075 -1600 
L 2016 -1600 
Q 1984 -1600 1984 -1588 
z
" transform="scale(0.015625)"/>
      <path id="Cmr10-29" d="M 416 -1600 
Q 359 -1600 359 -1544 
Q 359 -1516 372 -1503 
Q 1466 -434 1466 1600 
Q 1466 3634 384 4691 
Q 359 4706 359 4744 
Q 359 4766 376 4783 
Q 394 4800 416 4800 
L 475 4800 
Q 494 4800 506 4788 
Q 966 4425 1272 3906 
Q 1578 3388 1720 2800 
Q 1863 2213 1863 1600 
Q 1863 1147 1786 708 
Q 1709 269 1542 -157 
Q 1375 -584 1119 -945 
Q 863 -1306 506 -1588 
Q 494 -1600 475 -1600 
L 416 -1600 
z
" transform="scale(0.015625)"/>
      <path id="Cmex10-a9" d="M 1631 -6425 
L 1631 -4556 
Q 1631 -4338 1503 -4159 
Q 1375 -3981 1184 -3867 
Q 994 -3753 756 -3675 
Q 709 -3650 709 -3622 
L 709 -3547 
Q 709 -3503 756 -3494 
Q 1128 -3366 1379 -3150 
Q 1631 -2934 1631 -2606 
L 1631 -738 
Q 1631 -325 2004 -95 
Q 2378 134 2888 256 
L 2963 256 
Q 2981 256 2998 242 
Q 3016 228 3016 206 
L 3016 128 
Q 3016 91 2975 78 
Q 2619 -31 2359 -232 
Q 2100 -434 2100 -750 
L 2100 -2619 
Q 2100 -2994 1804 -3214 
Q 1509 -3434 1056 -3584 
Q 1497 -3716 1798 -3939 
Q 2100 -4163 2100 -4544 
L 2100 -6413 
Q 2100 -6628 2231 -6790 
Q 2363 -6953 2556 -7059 
Q 2750 -7166 2975 -7238 
Q 3016 -7250 3016 -7291 
L 3016 -7366 
Q 3016 -7384 2998 -7401 
Q 2981 -7419 2963 -7419 
L 2888 -7419 
Q 2559 -7338 2292 -7227 
Q 2025 -7116 1828 -6914 
Q 1631 -6713 1631 -6425 
z
" transform="scale(0.015625)"/>
      <path id="Cmex10-aa" d="M 709 -7366 
L 709 -7291 
Q 709 -7247 756 -7238 
Q 1631 -6953 1631 -6413 
L 1631 -4544 
Q 1631 -3909 2669 -3584 
Q 2219 -3431 1925 -3209 
Q 1631 -2988 1631 -2619 
L 1631 -750 
Q 1631 -206 756 78 
Q 709 88 709 128 
L 709 206 
Q 709 256 769 256 
L 844 256 
Q 1359 131 1729 -97 
Q 2100 -325 2100 -738 
L 2100 -2606 
Q 2100 -2925 2354 -3142 
Q 2609 -3359 2975 -3494 
Q 3016 -3506 3016 -3547 
L 3016 -3622 
Q 3016 -3641 2975 -3675 
Q 2769 -3744 2566 -3864 
Q 2363 -3984 2231 -4161 
Q 2100 -4338 2100 -4556 
L 2100 -6425 
Q 2100 -6713 1901 -6914 
Q 1703 -7116 1437 -7227 
Q 1172 -7338 844 -7419 
L 769 -7419 
Q 744 -7419 726 -7401 
Q 709 -7384 709 -7366 
z
" transform="scale(0.015625)"/>
      <path id="DejaVuSerif-28" d="M 2041 -997 
Q 1281 -656 893 83 
Q 506 822 506 1931 
Q 506 3044 893 3783 
Q 1281 4522 2041 4863 
L 2041 4556 
Q 1559 4225 1350 3623 
Q 1141 3022 1141 1931 
Q 1141 844 1350 242 
Q 1559 -359 2041 -691 
L 2041 -997 
z
" transform="scale(0.015625)"/>
      <path id="DejaVuSerif-73" d="M 359 184 
L 359 959 
L 691 959 
Q 703 588 923 403 
Q 1144 219 1575 219 
Q 1963 219 2166 364 
Q 2369 509 2369 788 
Q 2369 1006 2220 1140 
Q 2072 1275 1594 1428 
L 1178 1569 
Q 750 1706 558 1912 
Q 366 2119 366 2438 
Q 366 2894 700 3153 
Q 1034 3413 1625 3413 
Q 1888 3413 2178 3344 
Q 2469 3275 2778 3144 
L 2778 2419 
L 2447 2419 
Q 2434 2741 2221 2922 
Q 2009 3103 1644 3103 
Q 1281 3103 1095 2975 
Q 909 2847 909 2591 
Q 909 2381 1050 2254 
Q 1191 2128 1613 1997 
L 2069 1856 
Q 2541 1709 2748 1489 
Q 2956 1269 2956 922 
Q 2956 450 2595 179 
Q 2234 -91 1600 -91 
Q 1278 -91 972 -22 
Q 666 47 359 184 
z
" transform="scale(0.015625)"/>
      <path id="DejaVuSerif-74" d="M 691 2988 
L 184 2988 
L 184 3322 
L 691 3322 
L 691 4353 
L 1269 4353 
L 1269 3322 
L 2350 3322 
L 2350 2988 
L 1269 2988 
L 1269 878 
Q 1269 456 1350 337 
Q 1431 219 1650 219 
Q 1875 219 1978 351 
Q 2081 484 2088 781 
L 2522 781 
Q 2497 328 2275 118 
Q 2053 -91 1600 -91 
Q 1103 -91 897 129 
Q 691 350 691 878 
L 691 2988 
z
" transform="scale(0.015625)"/>
      <path id="DejaVuSerif-61" d="M 2547 1044 
L 2547 1747 
L 1806 1747 
Q 1378 1747 1168 1562 
Q 959 1378 959 997 
Q 959 650 1171 447 
Q 1384 244 1747 244 
Q 2106 244 2326 466 
Q 2547 688 2547 1044 
z
M 3122 2075 
L 3122 331 
L 3634 331 
L 3634 0 
L 2547 0 
L 2547 359 
Q 2356 128 2106 18 
Q 1856 -91 1522 -91 
Q 969 -91 644 203 
Q 319 497 319 997 
Q 319 1513 691 1797 
Q 1063 2081 1741 2081 
L 2547 2081 
L 2547 2309 
Q 2547 2688 2317 2895 
Q 2088 3103 1672 3103 
Q 1328 3103 1125 2947 
Q 922 2791 872 2484 
L 575 2484 
L 575 3156 
Q 875 3284 1158 3348 
Q 1441 3413 1709 3413 
Q 2400 3413 2761 3070 
Q 3122 2728 3122 2075 
z
" transform="scale(0.015625)"/>
      <path id="DejaVuSerif-6c" d="M 1313 331 
L 1856 331 
L 1856 0 
L 184 0 
L 184 331 
L 738 331 
L 738 4531 
L 184 4531 
L 184 4863 
L 1313 4863 
L 1313 331 
z
" transform="scale(0.015625)"/>
      <path id="DejaVuSerif-29" d="M 453 -997 
L 453 -691 
Q 934 -359 1145 242 
Q 1356 844 1356 1931 
Q 1356 3022 1145 3623 
Q 934 4225 453 4556 
L 453 4863 
Q 1216 4522 1603 3783 
Q 1991 3044 1991 1931 
Q 1991 822 1603 83 
Q 1216 -656 453 -997 
z
" transform="scale(0.015625)"/>
     </defs>
     <use xlink:href="#Cmmi10-b8" transform="translate(0 0.705729)"/>
     <use xlink:href="#Cmr10-28" transform="translate(58.300781 0.705729)"/>
     <use xlink:href="#Cmmi10-41" transform="translate(97.119141 0.705729)"/>
     <use xlink:href="#Cmr10-29" transform="translate(172.119141 0.705729)"/>
     <use xlink:href="#Cmr10-3d" transform="translate(228.496094 0.705729)"/>
     <use xlink:href="#Cmex10-a9" transform="translate(323.740234 94)"/>
     <use xlink:href="#Cmsy10-a1" transform="translate(382.041016 0.705729)"/>
     <use xlink:href="#Cmr10-31" transform="translate(459.726562 0.705729)"/>
     <use xlink:href="#Cmmi10-3b" transform="translate(509.726562 0.705729)"/>
     <use xlink:href="#Cmsy10-a1" transform="translate(587.161751 0.705729)"/>
     <use xlink:href="#Cmr10-32" transform="translate(682.405892 0.705729)"/>
     <use xlink:href="#Cmex10-aa" transform="translate(732.405892 94)"/>
     <use xlink:href="#DejaVuSerif-20" transform="translate(790.706673 0.705729)"/>
     <use xlink:href="#DejaVuSerif-20" transform="translate(822.493782 0.705729)"/>
     <use xlink:href="#DejaVuSerif-28" transform="translate(854.280892 0.705729)"/>
     <use xlink:href="#DejaVuSerif-73" transform="translate(893.294563 0.705729)"/>
     <use xlink:href="#DejaVuSerif-74" transform="translate(944.612923 0.705729)"/>
     <use xlink:href="#DejaVuSerif-61" transform="translate(984.79847 0.705729)"/>
     <use xlink:href="#DejaVuSerif-62" transform="translate(1044.41761 0.705729)"/>
     <use xlink:href="#DejaVuSerif-6c" transform="translate(1108.431282 0.705729)"/>
     <use xlink:href="#DejaVuSerif-65" transform="translate(1140.413704 0.705729)"/>
     <use xlink:href="#DejaVuSerif-29" transform="translate(1199.593392 0.705729)"/>
    </g>
   </g>
   <g id="text_20">
    <!-- 1-norm -->
    <g transform="translate(203.630312 48.72) scale(0.14 -0.14)">
     <defs>
      <path id="DejaVuSerif-2d" d="M 281 1959 
L 1881 1959 
L 1881 1472 
L 281 1472 
L 281 1959 
z
" transform="scale(0.015625)"/>
     </defs>
     <use xlink:href="#DejaVuSerif-31"/>
     <use xlink:href="#DejaVuSerif-2d" transform="translate(63.623047 0)"/>
     <use xlink:href="#DejaVuSerif-6e" transform="translate(97.412109 0)"/>
     <use xlink:href="#DejaVuSerif-6f" transform="translate(161.816406 0)"/>
     <use xlink:href="#DejaVuSerif-72" transform="translate(222.021484 0)"/>
     <use xlink:href="#DejaVuSerif-6d" transform="translate(269.824219 0)"/>
    </g>
   </g>
   <g id="legend_1">
    <g id="patch_6">
     <path d="M 49.65625 116.32 
L 203.54625 116.32 
Q 205.74625 116.32 205.74625 114.12 
L 205.74625 62.42 
Q 205.74625 60.22 203.54625 60.22 
L 49.65625 60.22 
Q 47.45625 60.22 47.45625 62.42 
L 47.45625 114.12 
Q 47.45625 116.32 49.65625 116.32 
z
" style="fill: #ffffff; opacity: 0.95; stroke: #bfbfbf; stroke-linejoin: miter"/>
    </g>
    <g id="line2d_36">
     <path d="M 51.85625 70.56 
L 62.85625 70.56 
L 73.85625 70.56 
" style="fill: none; stroke: #0072bd; stroke-width: 2.5; stroke-linecap: square"/>
    </g>
    <g id="text_21">
     <!-- $\|e^{At}\|_1$ -->
     <g transform="translate(82.65625 74.41) scale(0.11 -0.11)">
      <defs>
       <path id="Cmsy10-6b" d="M 850 -1484 
L 850 4684 
Q 850 4734 890 4767 
Q 931 4800 978 4800 
Q 1031 4800 1068 4767 
Q 1106 4734 1106 4684 
L 1106 -1484 
Q 1106 -1534 1068 -1567 
Q 1031 -1600 978 -1600 
Q 931 -1600 890 -1567 
Q 850 -1534 850 -1484 
z
M 2094 -1484 
L 2094 4684 
Q 2094 4734 2131 4767 
Q 2169 4800 2222 4800 
Q 2269 4800 2309 4767 
Q 2350 4734 2350 4684 
L 2350 -1484 
Q 2350 -1534 2309 -1567 
Q 2269 -1600 2222 -1600 
Q 2169 -1600 2131 -1567 
Q 2094 -1534 2094 -1484 
z
" transform="scale(0.015625)"/>
       <path id="Cmmi10-65" d="M 1288 -72 
Q 981 -72 751 87 
Q 522 247 401 517 
Q 281 788 281 1088 
Q 281 1544 511 1945 
Q 741 2347 1134 2587 
Q 1528 2828 1978 2828 
Q 2253 2828 2458 2686 
Q 2663 2544 2663 2278 
Q 2663 1909 2369 1729 
Q 2075 1550 1706 1508 
Q 1338 1466 891 1466 
L 872 1466 
Q 769 1084 769 813 
Q 769 528 900 312 
Q 1031 97 1300 97 
Q 1681 97 2032 272 
Q 2384 447 2606 756 
Q 2625 775 2656 775 
Q 2688 775 2720 739 
Q 2753 703 2753 672 
Q 2753 647 2741 634 
Q 2506 306 2109 117 
Q 1713 -72 1288 -72 
z
M 909 1631 
Q 1281 1631 1597 1665 
Q 1913 1700 2169 1839 
Q 2425 1978 2425 2272 
Q 2425 2391 2359 2480 
Q 2294 2569 2189 2616 
Q 2084 2663 1972 2663 
Q 1700 2663 1483 2516 
Q 1266 2369 1125 2133 
Q 984 1897 909 1631 
z
" transform="scale(0.015625)"/>
      </defs>
      <use xlink:href="#Cmsy10-6b" transform="translate(0 0.63125)"/>
      <use xlink:href="#Cmmi10-65" transform="translate(50 0.63125)"/>
      <use xlink:href="#Cmmi10-41" transform="translate(102.787656 38.895312) scale(0.7)"/>
      <use xlink:href="#Cmmi10-74" transform="translate(155.287656 38.895312) scale(0.7)"/>
      <use xlink:href="#Cmsy10-6b" transform="translate(186.923789 0.63125)"/>
      <use xlink:href="#Cmr10-31" transform="translate(241.38793 -16.375) scale(0.7)"/>
     </g>
    </g>
    <g id="line2d_37">
     <path d="M 51.85625 88.82 
L 62.85625 88.82 
L 73.85625 88.82 
" style="fill: none; stroke-dasharray: 7.4,3.2; stroke-dashoffset: 0; stroke: #d95319; stroke-width: 2"/>
    </g>
    <g id="text_22">
     <!-- $e^{\mu_1(A)\,t}$,  $\mu_1 = 3.0$ -->
     <g transform="translate(82.65625 92.67) scale(0.11 -0.11)">
      <defs>
       <path id="Cmmi10-b9" d="M 178 -1203 
Q 178 -1166 184 -1153 
L 1125 2625 
Q 1153 2716 1226 2772 
Q 1300 2828 1394 2828 
Q 1475 2828 1531 2779 
Q 1588 2731 1588 2650 
Q 1588 2631 1586 2620 
Q 1584 2609 1581 2597 
L 1203 1100 
Q 1141 834 1141 641 
Q 1141 403 1253 250 
Q 1366 97 1594 97 
Q 2059 97 2413 678 
Q 2416 684 2417 687 
Q 2419 691 2419 697 
L 2881 2553 
Q 2903 2638 2981 2698 
Q 3059 2759 3150 2759 
Q 3225 2759 3283 2709 
Q 3341 2659 3341 2578 
Q 3341 2541 3334 2528 
L 2875 684 
Q 2828 503 2828 372 
Q 2828 97 3016 97 
Q 3216 97 3317 344 
Q 3419 591 3494 941 
Q 3506 978 3547 978 
L 3622 978 
Q 3647 978 3664 958 
Q 3681 938 3681 916 
Q 3569 469 3436 198 
Q 3303 -72 3003 -72 
Q 2791 -72 2627 50 
Q 2463 172 2413 378 
Q 2253 178 2039 53 
Q 1825 -72 1588 -72 
Q 1188 -72 959 116 
L 634 -1178 
Q 616 -1269 541 -1325 
Q 466 -1381 372 -1381 
Q 294 -1381 236 -1332 
Q 178 -1284 178 -1203 
z
" transform="scale(0.015625)"/>
       <path id="DejaVuSerif-2c" d="M 231 -622 
Q 525 -406 662 -114 
Q 800 178 800 594 
L 800 709 
L 1416 709 
Q 1391 175 1164 -208 
Q 938 -591 481 -872 
L 231 -622 
z
" transform="scale(0.015625)"/>
       <path id="Cmr10-33" d="M 609 494 
Q 759 275 1012 169 
Q 1266 63 1556 63 
Q 1928 63 2084 380 
Q 2241 697 2241 1100 
Q 2241 1281 2208 1462 
Q 2175 1644 2097 1800 
Q 2019 1956 1883 2050 
Q 1747 2144 1550 2144 
L 1125 2144 
Q 1069 2144 1069 2203 
L 1069 2259 
Q 1069 2309 1125 2309 
L 1478 2338 
Q 1703 2338 1851 2506 
Q 2000 2675 2069 2917 
Q 2138 3159 2138 3378 
Q 2138 3684 1994 3881 
Q 1850 4078 1556 4078 
Q 1313 4078 1091 3986 
Q 869 3894 738 3706 
Q 750 3709 759 3711 
Q 769 3713 781 3713 
Q 925 3713 1022 3613 
Q 1119 3513 1119 3372 
Q 1119 3234 1022 3134 
Q 925 3034 781 3034 
Q 641 3034 541 3134 
Q 441 3234 441 3372 
Q 441 3647 606 3850 
Q 772 4053 1033 4158 
Q 1294 4263 1556 4263 
Q 1750 4263 1965 4205 
Q 2181 4147 2356 4039 
Q 2531 3931 2642 3762 
Q 2753 3594 2753 3378 
Q 2753 3109 2633 2881 
Q 2513 2653 2303 2487 
Q 2094 2322 1844 2241 
Q 2122 2188 2372 2031 
Q 2622 1875 2773 1631 
Q 2925 1388 2925 1106 
Q 2925 753 2731 467 
Q 2538 181 2222 20 
Q 1906 -141 1556 -141 
Q 1256 -141 954 -26 
Q 653 88 461 316 
Q 269 544 269 863 
Q 269 1022 375 1128 
Q 481 1234 641 1234 
Q 744 1234 830 1186 
Q 916 1138 964 1050 
Q 1013 963 1013 863 
Q 1013 706 903 600 
Q 794 494 641 494 
L 609 494 
z
" transform="scale(0.015625)"/>
       <path id="Cmmi10-3a" d="M 538 353 
Q 538 497 644 600 
Q 750 703 891 703 
Q 978 703 1062 656 
Q 1147 609 1194 525 
Q 1241 441 1241 353 
Q 1241 213 1137 106 
Q 1034 0 891 0 
Q 750 0 644 106 
Q 538 213 538 353 
z
" transform="scale(0.015625)"/>
      </defs>
      <use xlink:href="#Cmmi10-65" transform="translate(0 0.235938)"/>
      <use xlink:href="#Cmmi10-b9" transform="translate(52.787656 38.5) scale(0.7)"/>
      <use xlink:href="#Cmr10-31" transform="translate(94.931211 26.595625) scale(0.49)"/>
      <use xlink:href="#Cmr10-28" transform="translate(123.895352 38.5) scale(0.7)"/>
      <use xlink:href="#Cmmi10-41" transform="translate(151.068203 38.5) scale(0.7)"/>
      <use xlink:href="#Cmr10-29" transform="translate(203.568203 38.5) scale(0.7)"/>
      <use xlink:href="#Cmmi10-74" transform="translate(240.983773 38.5) scale(0.7)"/>
      <use xlink:href="#DejaVuSerif-2c" transform="translate(272.619905 0.235938)"/>
      <use xlink:href="#DejaVuSerif-20" transform="translate(304.407015 0.235938)"/>
      <use xlink:href="#DejaVuSerif-20" transform="translate(336.194124 0.235938)"/>
      <use xlink:href="#Cmmi10-b9" transform="translate(367.981233 0.235938)"/>
      <use xlink:href="#Cmr10-31" transform="translate(428.186312 -16.770312) scale(0.7)"/>
      <use xlink:href="#Cmr10-3d" transform="translate(487.122249 0.235938)"/>
      <use xlink:href="#Cmr10-33" transform="translate(582.36639 0.235938)"/>
      <use xlink:href="#Cmmi10-3a" transform="translate(632.36639 0.235938)"/>
      <use xlink:href="#Cmr10-30" transform="translate(660.051937 0.235938)"/>
     </g>
    </g>
    <g id="line2d_38">
     <path d="M 51.85625 105.782344 
L 62.85625 105.782344 
L 73.85625 105.782344 
" style="fill: none; stroke-dasharray: 2,3.3; stroke-dashoffset: 0; stroke: #77ac30; stroke-width: 2"/>
    </g>
    <g id="text_23">
     <!-- $\beta_1 e^{\alpha t}$,  $\beta_1 = 4.93$, $\alpha = -1$ -->
     <g transform="translate(82.65625 109.632344) scale(0.11 -0.11)">
      <defs>
       <path id="Cmmi10-af" d="M 172 -1241 
Q 153 -1241 137 -1219 
Q 122 -1197 122 -1178 
L 1106 2778 
Q 1191 3097 1353 3397 
Q 1516 3697 1761 3955 
Q 2006 4213 2300 4363 
Q 2594 4513 2925 4513 
Q 3163 4513 3355 4408 
Q 3547 4303 3658 4114 
Q 3769 3925 3769 3688 
Q 3769 3459 3681 3251 
Q 3594 3044 3437 2864 
Q 3281 2684 3103 2572 
Q 3206 2506 3287 2404 
Q 3369 2303 3419 2192 
Q 3469 2081 3497 1945 
Q 3525 1809 3525 1691 
Q 3525 1363 3384 1044 
Q 3244 725 3001 465 
Q 2759 206 2446 54 
Q 2134 -97 1806 -97 
Q 1447 -97 1159 100 
Q 872 297 763 634 
L 300 -1203 
Q 300 -1241 250 -1241 
L 172 -1241 
z
M 1819 78 
Q 2106 78 2339 267 
Q 2572 456 2723 742 
Q 2875 1028 2954 1348 
Q 3034 1669 3034 1931 
Q 3034 2256 2847 2444 
Q 2628 2363 2419 2363 
Q 1913 2363 1913 2534 
Q 1913 2759 2491 2759 
Q 2697 2759 2869 2694 
Q 3006 2800 3118 3006 
Q 3231 3213 3289 3438 
Q 3347 3663 3347 3859 
Q 3347 4069 3236 4208 
Q 3125 4347 2913 4347 
Q 2522 4347 2186 4106 
Q 1850 3866 1619 3498 
Q 1388 3131 1288 2741 
L 934 1325 
Q 900 1178 891 997 
Q 891 597 1153 337 
Q 1416 78 1819 78 
z
M 2106 2553 
Q 2203 2528 2425 2528 
Q 2534 2528 2644 2566 
Q 2638 2572 2619 2572 
Q 2550 2591 2472 2591 
Q 2181 2591 2106 2553 
z
" transform="scale(0.015625)"/>
       <path id="Cmmi10-ae" d="M 1288 -72 
Q 984 -72 748 72 
Q 513 216 384 459 
Q 256 703 256 1013 
Q 256 1447 498 1872 
Q 741 2297 1142 2562 
Q 1544 2828 1984 2828 
Q 2309 2828 2556 2658 
Q 2803 2488 2931 2205 
Q 3059 1922 3059 1600 
L 3066 1172 
Q 3284 1475 3436 1801 
Q 3588 2128 3669 2478 
Q 3681 2516 3719 2516 
L 3794 2516 
Q 3853 2516 3853 2456 
Q 3853 2450 3847 2438 
Q 3772 2144 3659 1873 
Q 3547 1603 3395 1350 
Q 3244 1097 3066 891 
Q 3066 97 3250 97 
Q 3369 97 3445 167 
Q 3522 238 3580 341 
Q 3638 444 3653 447 
L 3731 447 
Q 3781 447 3781 384 
Q 3781 225 3598 76 
Q 3416 -72 3238 -72 
Q 3006 -72 2853 78 
Q 2700 228 2644 469 
Q 2344 213 1994 70 
Q 1644 -72 1288 -72 
z
M 1300 97 
Q 1984 97 2613 659 
Q 2609 697 2603 751 
Q 2597 806 2597 813 
L 2597 1503 
Q 2597 2663 1972 2663 
Q 1597 2663 1315 2342 
Q 1034 2022 892 1576 
Q 750 1131 750 763 
Q 750 484 892 290 
Q 1034 97 1300 97 
z
" transform="scale(0.015625)"/>
       <path id="Cmr10-34" d="M 178 1056 
L 178 1281 
L 2156 4231 
Q 2178 4263 2222 4263 
L 2316 4263 
Q 2388 4263 2388 4191 
L 2388 1281 
L 3016 1281 
L 3016 1056 
L 2388 1056 
L 2388 428 
Q 2388 297 2575 261 
Q 2763 225 3009 225 
L 3009 0 
L 1247 0 
L 1247 225 
Q 1494 225 1681 261 
Q 1869 297 1869 428 
L 1869 1056 
L 178 1056 
z
M 391 1281 
L 1906 1281 
L 1906 3547 
L 391 1281 
z
" transform="scale(0.015625)"/>
       <path id="Cmr10-39" d="M 722 269 
Q 897 63 1331 63 
Q 1575 63 1786 228 
Q 1997 394 2113 634 
Q 2247 906 2284 1214 
Q 2322 1522 2322 1978 
Q 2213 1719 2008 1553 
Q 1803 1388 1538 1388 
Q 1166 1388 873 1589 
Q 581 1791 425 2120 
Q 269 2450 269 2822 
Q 269 3206 444 3539 
Q 619 3872 928 4067 
Q 1238 4263 1631 4263 
Q 2019 4263 2280 4052 
Q 2541 3841 2678 3508 
Q 2816 3175 2870 2803 
Q 2925 2431 2925 2069 
Q 2925 1575 2744 1061 
Q 2563 547 2202 203 
Q 1841 -141 1331 -141 
Q 953 -141 690 37 
Q 428 216 428 575 
Q 428 706 517 795 
Q 606 884 738 884 
Q 866 884 955 795 
Q 1044 706 1044 575 
Q 1044 450 953 359 
Q 863 269 738 269 
L 722 269 
z
M 1563 1556 
Q 1825 1556 1992 1732 
Q 2159 1909 2234 2171 
Q 2309 2434 2309 2694 
L 2309 2816 
L 2309 2841 
Q 2309 3322 2168 3700 
Q 2028 4078 1631 4078 
Q 1378 4078 1220 3967 
Q 1063 3856 988 3672 
Q 913 3488 892 3278 
Q 872 3069 872 2822 
Q 872 2459 906 2203 
Q 941 1947 1094 1751 
Q 1247 1556 1563 1556 
z
" transform="scale(0.015625)"/>
      </defs>
      <use xlink:href="#Cmmi10-af" transform="translate(0 0.920312)"/>
      <use xlink:href="#Cmr10-31" transform="translate(56.494141 -16.085938) scale(0.7)"/>
      <use xlink:href="#Cmmi10-65" transform="translate(97.871484 0.920312)"/>
      <use xlink:href="#Cmmi10-ae" transform="translate(150.659141 39.184375) scale(0.7)"/>
      <use xlink:href="#Cmmi10-74" transform="translate(195.400352 39.184375) scale(0.7)"/>
      <use xlink:href="#DejaVuSerif-2c" transform="translate(227.036484 0.920312)"/>
      <use xlink:href="#DejaVuSerif-20" transform="translate(258.823594 0.920312)"/>
      <use xlink:href="#DejaVuSerif-20" transform="translate(290.610703 0.920312)"/>
      <use xlink:href="#Cmmi10-af" transform="translate(322.397812 0.920312)"/>
      <use xlink:href="#Cmr10-31" transform="translate(378.891953 -16.085938) scale(0.7)"/>
      <use xlink:href="#Cmr10-3d" transform="translate(437.827891 0.920312)"/>
      <use xlink:href="#Cmr10-34" transform="translate(533.072031 0.920312)"/>
      <use xlink:href="#Cmmi10-3a" transform="translate(583.072031 0.920312)"/>
      <use xlink:href="#Cmr10-39" transform="translate(610.757578 0.920312)"/>
      <use xlink:href="#Cmr10-33" transform="translate(660.757578 0.920312)"/>
      <use xlink:href="#DejaVuSerif-2c" transform="translate(710.757578 0.920312)"/>
      <use xlink:href="#DejaVuSerif-20" transform="translate(742.544688 0.920312)"/>
      <use xlink:href="#Cmmi10-ae" transform="translate(774.331797 0.920312)"/>
      <use xlink:href="#Cmr10-3d" transform="translate(855.806406 0.920312)"/>
      <use xlink:href="#Cmsy10-a1" transform="translate(951.050547 0.920312)"/>
      <use xlink:href="#Cmr10-31" transform="translate(1028.736094 0.920312)"/>
     </g>
    </g>
   </g>
  </g>
  <g id="axes_2">
   <g id="patch_7">
    <path d="M 509.95625 347.76 
L 884.35625 347.76 
L 884.35625 54.72 
L 509.95625 54.72 
z
" style="fill: #ffffff"/>
   </g>
   <g id="matplotlib.axis_3">
    <g id="xtick_10">
     <g id="line2d_39">
      <path d="M 509.95625 347.76 
L 509.95625 54.72 
" clip-path="url(#p644009ce19)" style="fill: none; stroke: #b0b0b0; stroke-opacity: 0.15; stroke-width: 0.8; stroke-linecap: square"/>
     </g>
     <g id="line2d_40">
      <g>
       <use xlink:href="#m6d275182b3" x="509.95625" y="347.76" style="stroke: #000000; stroke-width: 0.8"/>
      </g>
     </g>
     <g id="text_24">
      <!-- 0.0 -->
      <g transform="translate(499.619219 364.637969) scale(0.13 -0.13)">
       <use xlink:href="#DejaVuSerif-30"/>
       <use xlink:href="#DejaVuSerif-2e" transform="translate(63.623047 0)"/>
       <use xlink:href="#DejaVuSerif-30" transform="translate(95.410156 0)"/>
      </g>
     </g>
    </g>
    <g id="xtick_11">
     <g id="line2d_41">
      <path d="M 556.75625 347.76 
L 556.75625 54.72 
" clip-path="url(#p644009ce19)" style="fill: none; stroke: #b0b0b0; stroke-opacity: 0.15; stroke-width: 0.8; stroke-linecap: square"/>
     </g>
     <g id="line2d_42">
      <g>
       <use xlink:href="#m6d275182b3" x="556.75625" y="347.76" style="stroke: #000000; stroke-width: 0.8"/>
      </g>
     </g>
     <g id="text_25">
      <!-- 0.5 -->
      <g transform="translate(546.419219 364.637969) scale(0.13 -0.13)">
       <use xlink:href="#DejaVuSerif-30"/>
       <use xlink:href="#DejaVuSerif-2e" transform="translate(63.623047 0)"/>
       <use xlink:href="#DejaVuSerif-35" transform="translate(95.410156 0)"/>
      </g>
     </g>
    </g>
    <g id="xtick_12">
     <g id="line2d_43">
      <path d="M 603.55625 347.76 
L 603.55625 54.72 
" clip-path="url(#p644009ce19)" style="fill: none; stroke: #b0b0b0; stroke-opacity: 0.15; stroke-width: 0.8; stroke-linecap: square"/>
     </g>
     <g id="line2d_44">
      <g>
       <use xlink:href="#m6d275182b3" x="603.55625" y="347.76" style="stroke: #000000; stroke-width: 0.8"/>
      </g>
     </g>
     <g id="text_26">
      <!-- 1.0 -->
      <g transform="translate(593.219219 364.637969) scale(0.13 -0.13)">
       <use xlink:href="#DejaVuSerif-31"/>
       <use xlink:href="#DejaVuSerif-2e" transform="translate(63.623047 0)"/>
       <use xlink:href="#DejaVuSerif-30" transform="translate(95.410156 0)"/>
      </g>
     </g>
    </g>
    <g id="xtick_13">
     <g id="line2d_45">
      <path d="M 650.35625 347.76 
L 650.35625 54.72 
" clip-path="url(#p644009ce19)" style="fill: none; stroke: #b0b0b0; stroke-opacity: 0.15; stroke-width: 0.8; stroke-linecap: square"/>
     </g>
     <g id="line2d_46">
      <g>
       <use xlink:href="#m6d275182b3" x="650.35625" y="347.76" style="stroke: #000000; stroke-width: 0.8"/>
      </g>
     </g>
     <g id="text_27">
      <!-- 1.5 -->
      <g transform="translate(640.019219 364.637969) scale(0.13 -0.13)">
       <use xlink:href="#DejaVuSerif-31"/>
       <use xlink:href="#DejaVuSerif-2e" transform="translate(63.623047 0)"/>
       <use xlink:href="#DejaVuSerif-35" transform="translate(95.410156 0)"/>
      </g>
     </g>
    </g>
    <g id="xtick_14">
     <g id="line2d_47">
      <path d="M 697.15625 347.76 
L 697.15625 54.72 
" clip-path="url(#p644009ce19)" style="fill: none; stroke: #b0b0b0; stroke-opacity: 0.15; stroke-width: 0.8; stroke-linecap: square"/>
     </g>
     <g id="line2d_48">
      <g>
       <use xlink:href="#m6d275182b3" x="697.15625" y="347.76" style="stroke: #000000; stroke-width: 0.8"/>
      </g>
     </g>
     <g id="text_28">
      <!-- 2.0 -->
      <g transform="translate(686.819219 364.637969) scale(0.13 -0.13)">
       <use xlink:href="#DejaVuSerif-32"/>
       <use xlink:href="#DejaVuSerif-2e" transform="translate(63.623047 0)"/>
       <use xlink:href="#DejaVuSerif-30" transform="translate(95.410156 0)"/>
      </g>
     </g>
    </g>
    <g id="xtick_15">
     <g id="line2d_49">
      <path d="M 743.95625 347.76 
L 743.95625 54.72 
" clip-path="url(#p644009ce19)" style="fill: none; stroke: #b0b0b0; stroke-opacity: 0.15; stroke-width: 0.8; stroke-linecap: square"/>
     </g>
     <g id="line2d_50">
      <g>
       <use xlink:href="#m6d275182b3" x="743.95625" y="347.76" style="stroke: #000000; stroke-width: 0.8"/>
      </g>
     </g>
     <g id="text_29">
      <!-- 2.5 -->
      <g transform="translate(733.619219 364.637969) scale(0.13 -0.13)">
       <use xlink:href="#DejaVuSerif-32"/>
       <use xlink:href="#DejaVuSerif-2e" transform="translate(63.623047 0)"/>
       <use xlink:href="#DejaVuSerif-35" transform="translate(95.410156 0)"/>
      </g>
     </g>
    </g>
    <g id="xtick_16">
     <g id="line2d_51">
      <path d="M 790.75625 347.76 
L 790.75625 54.72 
" clip-path="url(#p644009ce19)" style="fill: none; stroke: #b0b0b0; stroke-opacity: 0.15; stroke-width: 0.8; stroke-linecap: square"/>
     </g>
     <g id="line2d_52">
      <g>
       <use xlink:href="#m6d275182b3" x="790.75625" y="347.76" style="stroke: #000000; stroke-width: 0.8"/>
      </g>
     </g>
     <g id="text_30">
      <!-- 3.0 -->
      <g transform="translate(780.419219 364.637969) scale(0.13 -0.13)">
       <use xlink:href="#DejaVuSerif-33"/>
       <use xlink:href="#DejaVuSerif-2e" transform="translate(63.623047 0)"/>
       <use xlink:href="#DejaVuSerif-30" transform="translate(95.410156 0)"/>
      </g>
     </g>
    </g>
    <g id="xtick_17">
     <g id="line2d_53">
      <path d="M 837.55625 347.76 
L 837.55625 54.72 
" clip-path="url(#p644009ce19)" style="fill: none; stroke: #b0b0b0; stroke-opacity: 0.15; stroke-width: 0.8; stroke-linecap: square"/>
     </g>
     <g id="line2d_54">
      <g>
       <use xlink:href="#m6d275182b3" x="837.55625" y="347.76" style="stroke: #000000; stroke-width: 0.8"/>
      </g>
     </g>
     <g id="text_31">
      <!-- 3.5 -->
      <g transform="translate(827.219219 364.637969) scale(0.13 -0.13)">
       <use xlink:href="#DejaVuSerif-33"/>
       <use xlink:href="#DejaVuSerif-2e" transform="translate(63.623047 0)"/>
       <use xlink:href="#DejaVuSerif-35" transform="translate(95.410156 0)"/>
      </g>
     </g>
    </g>
    <g id="xtick_18">
     <g id="line2d_55">
      <path d="M 884.35625 347.76 
L 884.35625 54.72 
" clip-path="url(#p644009ce19)" style="fill: none; stroke: #b0b0b0; stroke-opacity: 0.15; stroke-width: 0.8; stroke-linecap: square"/>
     </g>
     <g id="line2d_56">
      <g>
       <use xlink:href="#m6d275182b3" x="884.35625" y="347.76" style="stroke: #000000; stroke-width: 0.8"/>
      </g>
     </g>
     <g id="text_32">
      <!-- 4.0 -->
      <g transform="translate(874.019219 364.637969) scale(0.13 -0.13)">
       <use xlink:href="#DejaVuSerif-34"/>
       <use xlink:href="#DejaVuSerif-2e" transform="translate(63.623047 0)"/>
       <use xlink:href="#DejaVuSerif-30" transform="translate(95.410156 0)"/>
      </g>
     </g>
    </g>
    <g id="text_33">
     <!-- Time $t$ -->
     <g transform="translate(671.47625 383.499062) scale(0.16 -0.16)">
      <use xlink:href="#DejaVuSerif-54" transform="translate(0 0.421875)"/>
      <use xlink:href="#DejaVuSerif-69" transform="translate(66.699219 0.421875)"/>
      <use xlink:href="#DejaVuSerif-6d" transform="translate(98.681641 0.421875)"/>
      <use xlink:href="#DejaVuSerif-65" transform="translate(193.505859 0.421875)"/>
      <use xlink:href="#DejaVuSerif-20" transform="translate(252.685547 0.421875)"/>
      <use xlink:href="#Cmmi10-74" transform="translate(284.472656 0.421875)"/>
     </g>
    </g>
   </g>
   <g id="matplotlib.axis_4">
    <g id="ytick_8">
     <g id="line2d_57">
      <path d="M 509.95625 347.76 
L 884.35625 347.76 
" clip-path="url(#p644009ce19)" style="fill: none; stroke: #b0b0b0; stroke-opacity: 0.15; stroke-width: 0.8; stroke-linecap: square"/>
     </g>
     <g id="line2d_58">
      <g>
       <use xlink:href="#m149c983595" x="509.95625" y="347.76" style="stroke: #000000; stroke-width: 0.8"/>
      </g>
     </g>
     <g id="text_34">
      <!-- 0 -->
      <g transform="translate(494.685 352.698984) scale(0.13 -0.13)">
       <use xlink:href="#DejaVuSerif-30"/>
      </g>
     </g>
    </g>
    <g id="ytick_9">
     <g id="line2d_59">
      <path d="M 509.95625 298.92 
L 884.35625 298.92 
" clip-path="url(#p644009ce19)" style="fill: none; stroke: #b0b0b0; stroke-opacity: 0.15; stroke-width: 0.8; stroke-linecap: square"/>
     </g>
     <g id="line2d_60">
      <g>
       <use xlink:href="#m149c983595" x="509.95625" y="298.92" style="stroke: #000000; stroke-width: 0.8"/>
      </g>
     </g>
     <g id="text_35">
      <!-- 1 -->
      <g transform="translate(494.685 303.858984) scale(0.13 -0.13)">
       <use xlink:href="#DejaVuSerif-31"/>
      </g>
     </g>
    </g>
    <g id="ytick_10">
     <g id="line2d_61">
      <path d="M 509.95625 250.08 
L 884.35625 250.08 
" clip-path="url(#p644009ce19)" style="fill: none; stroke: #b0b0b0; stroke-opacity: 0.15; stroke-width: 0.8; stroke-linecap: square"/>
     </g>
     <g id="line2d_62">
      <g>
       <use xlink:href="#m149c983595" x="509.95625" y="250.08" style="stroke: #000000; stroke-width: 0.8"/>
      </g>
     </g>
     <g id="text_36">
      <!-- 2 -->
      <g transform="translate(494.685 255.018984) scale(0.13 -0.13)">
       <use xlink:href="#DejaVuSerif-32"/>
      </g>
     </g>
    </g>
    <g id="ytick_11">
     <g id="line2d_63">
      <path d="M 509.95625 201.24 
L 884.35625 201.24 
" clip-path="url(#p644009ce19)" style="fill: none; stroke: #b0b0b0; stroke-opacity: 0.15; stroke-width: 0.8; stroke-linecap: square"/>
     </g>
     <g id="line2d_64">
      <g>
       <use xlink:href="#m149c983595" x="509.95625" y="201.24" style="stroke: #000000; stroke-width: 0.8"/>
      </g>
     </g>
     <g id="text_37">
      <!-- 3 -->
      <g transform="translate(494.685 206.178984) scale(0.13 -0.13)">
       <use xlink:href="#DejaVuSerif-33"/>
      </g>
     </g>
    </g>
    <g id="ytick_12">
     <g id="line2d_65">
      <path d="M 509.95625 152.4 
L 884.35625 152.4 
" clip-path="url(#p644009ce19)" style="fill: none; stroke: #b0b0b0; stroke-opacity: 0.15; stroke-width: 0.8; stroke-linecap: square"/>
     </g>
     <g id="line2d_66">
      <g>
       <use xlink:href="#m149c983595" x="509.95625" y="152.4" style="stroke: #000000; stroke-width: 0.8"/>
      </g>
     </g>
     <g id="text_38">
      <!-- 4 -->
      <g transform="translate(494.685 157.338984) scale(0.13 -0.13)">
       <use xlink:href="#DejaVuSerif-34"/>
      </g>
     </g>
    </g>
    <g id="ytick_13">
     <g id="line2d_67">
      <path d="M 509.95625 103.56 
L 884.35625 103.56 
" clip-path="url(#p644009ce19)" style="fill: none; stroke: #b0b0b0; stroke-opacity: 0.15; stroke-width: 0.8; stroke-linecap: square"/>
     </g>
     <g id="line2d_68">
      <g>
       <use xlink:href="#m149c983595" x="509.95625" y="103.56" style="stroke: #000000; stroke-width: 0.8"/>
      </g>
     </g>
     <g id="text_39">
      <!-- 5 -->
      <g transform="translate(494.685 108.498984) scale(0.13 -0.13)">
       <use xlink:href="#DejaVuSerif-35"/>
      </g>
     </g>
    </g>
    <g id="ytick_14">
     <g id="line2d_69">
      <path d="M 509.95625 54.72 
L 884.35625 54.72 
" clip-path="url(#p644009ce19)" style="fill: none; stroke: #b0b0b0; stroke-opacity: 0.15; stroke-width: 0.8; stroke-linecap: square"/>
     </g>
     <g id="line2d_70">
      <g>
       <use xlink:href="#m149c983595" x="509.95625" y="54.72" style="stroke: #000000; stroke-width: 0.8"/>
      </g>
     </g>
     <g id="text_40">
      <!-- 6 -->
      <g transform="translate(494.685 59.658984) scale(0.13 -0.13)">
       <use xlink:href="#DejaVuSerif-36"/>
      </g>
     </g>
    </g>
    <g id="text_41">
     <!-- Norm / bound -->
     <g transform="translate(487.3575 257.61) rotate(-90) scale(0.16 -0.16)">
      <use xlink:href="#DejaVuSerif-4e"/>
      <use xlink:href="#DejaVuSerif-6f" transform="translate(87.5 0)"/>
      <use xlink:href="#DejaVuSerif-72" transform="translate(147.705078 0)"/>
      <use xlink:href="#DejaVuSerif-6d" transform="translate(195.507812 0)"/>
      <use xlink:href="#DejaVuSerif-20" transform="translate(290.332031 0)"/>
      <use xlink:href="#DejaVuSerif-2f" transform="translate(322.119141 0)"/>
      <use xlink:href="#DejaVuSerif-20" transform="translate(355.810547 0)"/>
      <use xlink:href="#DejaVuSerif-62" transform="translate(387.597656 0)"/>
      <use xlink:href="#DejaVuSerif-6f" transform="translate(451.611328 0)"/>
      <use xlink:href="#DejaVuSerif-75" transform="translate(511.816406 0)"/>
      <use xlink:href="#DejaVuSerif-6e" transform="translate(576.220703 0)"/>
      <use xlink:href="#DejaVuSerif-64" transform="translate(640.625 0)"/>
     </g>
    </g>
   </g>
   <g id="line2d_71">
    <path d="M 509.95625 298.92 
L 519.710158 293.433978 
L 526.462863 289.771263 
L 530.964667 287.552905 
L 535.46647 285.585403 
L 539.217973 284.166762 
L 542.969476 282.963591 
L 546.720979 281.981556 
L 550.472482 281.220161 
L 554.223985 280.674152 
L 557.975488 280.334786 
L 561.726991 280.190881 
L 566.228795 280.258177 
L 570.730599 280.564867 
L 575.232402 281.086641 
L 580.484507 281.935122 
L 585.736611 283.006791 
L 591.739016 284.460659 
L 598.491721 286.332276 
L 606.745028 288.87588 
L 616.498935 292.126687 
L 632.255248 297.646308 
L 654.013965 305.234566 
L 667.519376 309.692854 
L 679.524186 313.415605 
L 690.778695 316.673993 
L 702.033204 319.697405 
L 713.287713 322.484132 
L 724.542222 325.038595 
L 735.796731 327.36942 
L 747.801541 329.621992 
L 759.80635 331.648941 
L 772.56146 333.57428 
L 786.066871 335.378942 
L 800.322583 337.048778 
L 815.328595 338.57458 
L 831.084907 339.951846 
L 848.341821 341.231486 
L 867.099336 342.391325 
L 884.35625 343.279016 
L 884.35625 343.279016 
" clip-path="url(#p644009ce19)" style="fill: none; stroke: #0072bd; stroke-width: 2.5; stroke-linecap: square"/>
   </g>
   <g id="line2d_72">
    <path d="M 509.95625 298.92 
L 515.958655 295.51977 
L 521.96106 291.882818 
L 527.963464 287.992661 
L 533.965869 283.831673 
L 539.968274 279.380997 
L 545.970679 274.620466 
L 551.222783 270.183902 
L 556.474887 265.478221 
L 561.726991 260.487098 
L 566.979096 255.193219 
L 572.2312 249.578219 
L 577.483304 243.622619 
L 582.735408 237.305759 
L 587.987513 230.605726 
L 593.239617 223.499275 
L 598.491721 215.961755 
L 602.993525 209.138149 
L 607.495328 201.961264 
L 611.997132 194.412809 
L 616.498935 186.473547 
L 621.000739 178.123244 
L 625.502543 169.34062 
L 630.004346 160.103293 
L 634.50615 150.38772 
L 639.007953 140.169142 
L 643.509757 129.421516 
L 648.011561 118.117452 
L 652.513364 106.228142 
L 657.015168 93.723284 
L 661.516971 80.571012 
L 666.018775 66.737805 
L 670.520579 52.18841 
L 675.022382 36.885747 
L 679.524186 20.790818 
L 684.025989 3.862604 
L 685.2775 -1 
L 685.2775 -1 
" clip-path="url(#p644009ce19)" style="fill: none; stroke-dasharray: 7.4,3.2; stroke-dashoffset: 0; stroke: #d95319; stroke-width: 2"/>
   </g>
   <g id="line2d_73">
    <path d="M 509.95625 103.106567 
L 514.458054 114.594977 
L 518.959857 125.543915 
L 523.461661 135.978714 
L 527.963464 145.923517 
L 532.465268 155.401333 
L 536.967072 164.43409 
L 542.219176 174.43763 
L 547.47128 183.895307 
L 552.723384 192.836907 
L 557.975488 201.29059 
L 563.227593 209.282982 
L 568.479697 216.839254 
L 573.731801 223.983202 
L 578.983905 230.737327 
L 584.23601 237.1229 
L 589.488114 243.160031 
L 594.740218 248.867735 
L 599.992322 254.263986 
L 605.244426 259.36578 
L 610.496531 264.189185 
L 616.498935 269.380211 
L 622.50134 274.248795 
L 628.503745 278.814966 
L 634.50615 283.097507 
L 640.508555 287.114037 
L 646.510959 290.881079 
L 653.263665 294.840043 
L 660.01637 298.52345 
L 666.769076 301.950479 
L 673.521781 305.138976 
L 681.024787 308.422143 
L 688.527793 311.452402 
L 696.030799 314.249236 
L 704.284106 317.077565 
L 712.537412 319.667181 
L 721.54102 322.243594 
L 730.544627 324.583723 
L 740.298535 326.877305 
L 750.052442 328.943909 
L 760.556651 330.941358 
L 771.81116 332.846789 
L 783.815969 334.641926 
L 796.57108 336.313106 
L 810.07649 337.851135 
L 824.332202 339.250993 
L 840.088515 340.5693 
L 857.345428 341.780005 
L 876.102943 342.865956 
L 884.35625 343.279016 
L 884.35625 343.279016 
" clip-path="url(#p644009ce19)" style="fill: none; stroke-dasharray: 2,3.3; stroke-dashoffset: 0; stroke: #77ac30; stroke-width: 2"/>
   </g>
   <g id="patch_8">
    <path d="M 509.95625 347.76 
L 509.95625 54.72 
" style="fill: none; stroke: #000000; stroke-width: 0.8; stroke-linejoin: miter; stroke-linecap: square"/>
   </g>
   <g id="patch_9">
    <path d="M 509.95625 347.76 
L 884.35625 347.76 
" style="fill: none; stroke: #000000; stroke-width: 0.8; stroke-linejoin: miter; stroke-linecap: square"/>
   </g>
   <g id="text_42">
    <g id="patch_10">
     <path d="M 749.22425 91.7712 
L 873.12425 91.7712 
Q 877.12425 91.7712 877.12425 87.7712 
L 877.12425 63.5112 
Q 877.12425 59.5112 873.12425 59.5112 
L 749.22425 59.5112 
Q 745.22425 59.5112 745.22425 63.5112 
L 745.22425 87.7712 
Q 745.22425 91.7712 749.22425 91.7712 
z
" style="fill: #ffffff; stroke: #b2b2b2; stroke-linejoin: miter"/>
    </g>
    <!-- $A = [[-1,\; 5],\; [0,\; -2]]$ -->
    <g transform="translate(777.72425 71.0112) scale(0.1 -0.1)">
     <use xlink:href="#Cmmi10-41"/>
     <use xlink:href="#Cmr10-3d" transform="translate(92.558594 0)"/>
     <use xlink:href="#Cmr10-5b" transform="translate(187.802734 0)"/>
     <use xlink:href="#Cmr10-5b" transform="translate(215.488281 0)"/>
     <use xlink:href="#Cmsy10-a1" transform="translate(243.173828 0)"/>
     <use xlink:href="#Cmr10-31" transform="translate(320.859375 0)"/>
     <use xlink:href="#Cmmi10-3b" transform="translate(370.859375 0)"/>
     <use xlink:href="#Cmr10-35" transform="translate(440.490646 0)"/>
     <use xlink:href="#Cmr10-5d" transform="translate(490.490646 0)"/>
     <use xlink:href="#Cmmi10-3b" transform="translate(518.176193 0)"/>
     <use xlink:href="#Cmr10-5b" transform="translate(587.807465 0)"/>
     <use xlink:href="#Cmr10-30" transform="translate(615.493012 0)"/>
     <use xlink:href="#Cmmi10-3b" transform="translate(665.493012 0)"/>
     <use xlink:href="#Cmsy10-a1" transform="translate(752.682877 0)"/>
     <use xlink:href="#Cmr10-32" transform="translate(847.927018 0)"/>
     <use xlink:href="#Cmr10-5d" transform="translate(897.927018 0)"/>
     <use xlink:href="#Cmr10-5d" transform="translate(925.612564 0)"/>
    </g>
    <!-- $\lambda(A) = \{-1,\, -2\}$  (stable) -->
    <g transform="translate(749.22425 85.2712) scale(0.1 -0.1)">
     <use xlink:href="#Cmmi10-b8" transform="translate(0 0.705729)"/>
     <use xlink:href="#Cmr10-28" transform="translate(58.300781 0.705729)"/>
     <use xlink:href="#Cmmi10-41" transform="translate(97.119141 0.705729)"/>
     <use xlink:href="#Cmr10-29" transform="translate(172.119141 0.705729)"/>
     <use xlink:href="#Cmr10-3d" transform="translate(228.496094 0.705729)"/>
     <use xlink:href="#Cmex10-a9" transform="translate(323.740234 94)"/>
     <use xlink:href="#Cmsy10-a1" transform="translate(382.041016 0.705729)"/>
     <use xlink:href="#Cmr10-31" transform="translate(459.726562 0.705729)"/>
     <use xlink:href="#Cmmi10-3b" transform="translate(509.726562 0.705729)"/>
     <use xlink:href="#Cmsy10-a1" transform="translate(587.161751 0.705729)"/>
     <use xlink:href="#Cmr10-32" transform="translate(682.405892 0.705729)"/>
     <use xlink:href="#Cmex10-aa" transform="translate(732.405892 94)"/>
     <use xlink:href="#DejaVuSerif-20" transform="translate(790.706673 0.705729)"/>
     <use xlink:href="#DejaVuSerif-20" transform="translate(822.493782 0.705729)"/>
     <use xlink:href="#DejaVuSerif-28" transform="translate(854.280892 0.705729)"/>
     <use xlink:href="#DejaVuSerif-73" transform="translate(893.294563 0.705729)"/>
     <use xlink:href="#DejaVuSerif-74" transform="translate(944.612923 0.705729)"/>
     <use xlink:href="#DejaVuSerif-61" transform="translate(984.79847 0.705729)"/>
     <use xlink:href="#DejaVuSerif-62" transform="translate(1044.41761 0.705729)"/>
     <use xlink:href="#DejaVuSerif-6c" transform="translate(1108.431282 0.705729)"/>
     <use xlink:href="#DejaVuSerif-65" transform="translate(1140.413704 0.705729)"/>
     <use xlink:href="#DejaVuSerif-29" transform="translate(1199.593392 0.705729)"/>
    </g>
   </g>
   <g id="text_43">
    <!-- 2-norm -->
    <g transform="translate(671.630312 48.72) scale(0.14 -0.14)">
     <use xlink:href="#DejaVuSerif-32"/>
     <use xlink:href="#DejaVuSerif-2d" transform="translate(63.623047 0)"/>
     <use xlink:href="#DejaVuSerif-6e" transform="translate(97.412109 0)"/>
     <use xlink:href="#DejaVuSerif-6f" transform="translate(161.816406 0)"/>
     <use xlink:href="#DejaVuSerif-72" transform="translate(222.021484 0)"/>
     <use xlink:href="#DejaVuSerif-6d" transform="translate(269.824219 0)"/>
    </g>
   </g>
   <g id="legend_2">
    <g id="patch_11">
     <path d="M 517.65625 116.32 
L 671.54625 116.32 
Q 673.74625 116.32 673.74625 114.12 
L 673.74625 62.42 
Q 673.74625 60.22 671.54625 60.22 
L 517.65625 60.22 
Q 515.45625 60.22 515.45625 62.42 
L 515.45625 114.12 
Q 515.45625 116.32 517.65625 116.32 
z
" style="fill: #ffffff; opacity: 0.95; stroke: #bfbfbf; stroke-linejoin: miter"/>
    </g>
    <g id="line2d_74">
     <path d="M 519.85625 70.56 
L 530.85625 70.56 
L 541.85625 70.56 
" style="fill: none; stroke: #0072bd; stroke-width: 2.5; stroke-linecap: square"/>
    </g>
    <g id="text_44">
     <!-- $\|e^{At}\|_2$ -->
     <g transform="translate(550.65625 74.41) scale(0.11 -0.11)">
      <use xlink:href="#Cmsy10-6b" transform="translate(0 0.63125)"/>
      <use xlink:href="#Cmmi10-65" transform="translate(50 0.63125)"/>
      <use xlink:href="#Cmmi10-41" transform="translate(102.787656 38.895312) scale(0.7)"/>
      <use xlink:href="#Cmmi10-74" transform="translate(155.287656 38.895312) scale(0.7)"/>
      <use xlink:href="#Cmsy10-6b" transform="translate(186.923789 0.63125)"/>
      <use xlink:href="#Cmr10-32" transform="translate(241.38793 -16.375) scale(0.7)"/>
     </g>
    </g>
    <g id="line2d_75">
     <path d="M 519.85625 88.82 
L 530.85625 88.82 
L 541.85625 88.82 
" style="fill: none; stroke-dasharray: 7.4,3.2; stroke-dashoffset: 0; stroke: #d95319; stroke-width: 2"/>
    </g>
    <g id="text_45">
     <!-- $e^{\mu_2(A)\,t}$,  $\mu_2 = 1.05$ -->
     <g transform="translate(550.65625 92.67) scale(0.11 -0.11)">
      <use xlink:href="#Cmmi10-65" transform="translate(0 0.235938)"/>
      <use xlink:href="#Cmmi10-b9" transform="translate(52.787656 38.5) scale(0.7)"/>
      <use xlink:href="#Cmr10-32" transform="translate(94.931211 26.595625) scale(0.49)"/>
      <use xlink:href="#Cmr10-28" transform="translate(123.895352 38.5) scale(0.7)"/>
      <use xlink:href="#Cmmi10-41" transform="translate(151.068203 38.5) scale(0.7)"/>
      <use xlink:href="#Cmr10-29" transform="translate(203.568203 38.5) scale(0.7)"/>
      <use xlink:href="#Cmmi10-74" transform="translate(240.983773 38.5) scale(0.7)"/>
      <use xlink:href="#DejaVuSerif-2c" transform="translate(272.619905 0.235938)"/>
      <use xlink:href="#DejaVuSerif-20" transform="translate(304.407015 0.235938)"/>
      <use xlink:href="#DejaVuSerif-20" transform="translate(336.194124 0.235938)"/>
      <use xlink:href="#Cmmi10-b9" transform="translate(367.981233 0.235938)"/>
      <use xlink:href="#Cmr10-32" transform="translate(428.186312 -16.770312) scale(0.7)"/>
      <use xlink:href="#Cmr10-3d" transform="translate(487.122249 0.235938)"/>
      <use xlink:href="#Cmr10-31" transform="translate(582.36639 0.235938)"/>
      <use xlink:href="#Cmmi10-3a" transform="translate(632.36639 0.235938)"/>
      <use xlink:href="#Cmr10-30" transform="translate(660.051937 0.235938)"/>
      <use xlink:href="#Cmr10-35" transform="translate(710.051937 0.235938)"/>
     </g>
    </g>
    <g id="line2d_76">
     <path d="M 519.85625 105.782344 
L 530.85625 105.782344 
L 541.85625 105.782344 
" style="fill: none; stroke-dasharray: 2,3.3; stroke-dashoffset: 0; stroke: #77ac30; stroke-width: 2"/>
    </g>
    <g id="text_46">
     <!-- $\beta_2 e^{\alpha t}$,  $\beta_2 = 5.01$, $\alpha = -1$ -->
     <g transform="translate(550.65625 109.632344) scale(0.11 -0.11)">
      <use xlink:href="#Cmmi10-af" transform="translate(0 0.920312)"/>
      <use xlink:href="#Cmr10-32" transform="translate(56.494141 -16.085938) scale(0.7)"/>
      <use xlink:href="#Cmmi10-65" transform="translate(97.871484 0.920312)"/>
      <use xlink:href="#Cmmi10-ae" transform="translate(150.659141 39.184375) scale(0.7)"/>
      <use xlink:href="#Cmmi10-74" transform="translate(195.400352 39.184375) scale(0.7)"/>
      <use xlink:href="#DejaVuSerif-2c" transform="translate(227.036484 0.920312)"/>
      <use xlink:href="#DejaVuSerif-20" transform="translate(258.823594 0.920312)"/>
      <use xlink:href="#DejaVuSerif-20" transform="translate(290.610703 0.920312)"/>
      <use xlink:href="#Cmmi10-af" transform="translate(322.397812 0.920312)"/>
      <use xlink:href="#Cmr10-32" transform="translate(378.891953 -16.085938) scale(0.7)"/>
      <use xlink:href="#Cmr10-3d" transform="translate(437.827891 0.920312)"/>
      <use xlink:href="#Cmr10-35" transform="translate(533.072031 0.920312)"/>
      <use xlink:href="#Cmmi10-3a" transform="translate(583.072031 0.920312)"/>
      <use xlink:href="#Cmr10-30" transform="translate(610.757578 0.920312)"/>
      <use xlink:href="#Cmr10-31" transform="translate(660.757578 0.920312)"/>
      <use xlink:href="#DejaVuSerif-2c" transform="translate(710.757578 0.920312)"/>
      <use xlink:href="#DejaVuSerif-20" transform="translate(742.544688 0.920312)"/>
      <use xlink:href="#Cmmi10-ae" transform="translate(774.331797 0.920312)"/>
      <use xlink:href="#Cmr10-3d" transform="translate(855.806406 0.920312)"/>
      <use xlink:href="#Cmsy10-a1" transform="translate(951.050547 0.920312)"/>
      <use xlink:href="#Cmr10-31" transform="translate(1028.736094 0.920312)"/>
     </g>
    </g>
   </g>
  </g>
  <g id="text_47">
   <!-- Logarithmic norm bound:  $\|e^{At}\| \leq e^{\mu(A)\,t}$ -->
   <g transform="translate(286.48625 20.85) scale(0.15 -0.15)">
    <defs>
     <path id="DejaVuSerif-Bold-4c" d="M 300 0 
L 300 378 
L 897 378 
L 897 4288 
L 300 4288 
L 300 4666 
L 2700 4666 
L 2700 4288 
L 2100 4288 
L 2100 428 
L 3938 428 
L 3938 1166 
L 4359 1166 
L 4359 0 
L 300 0 
z
" transform="scale(0.015625)"/>
     <path id="DejaVuSerif-Bold-6f" d="M 2138 263 
Q 2488 263 2630 563 
Q 2772 863 2772 1663 
Q 2772 2463 2631 2761 
Q 2491 3059 2138 3059 
Q 1784 3059 1640 2757 
Q 1497 2456 1497 1663 
Q 1497 869 1640 566 
Q 1784 263 2138 263 
z
M 2138 -91 
Q 1259 -91 761 376 
Q 263 844 263 1663 
Q 263 2484 761 2948 
Q 1259 3413 2138 3413 
Q 3019 3413 3516 2948 
Q 4013 2484 4013 1663 
Q 4013 844 3514 376 
Q 3016 -91 2138 -91 
z
" transform="scale(0.015625)"/>
     <path id="DejaVuSerif-Bold-67" d="M 3853 2944 
L 3853 44 
Q 3853 -656 3354 -1039 
Q 2856 -1422 1947 -1422 
Q 1616 -1422 1275 -1370 
Q 934 -1319 575 -1216 
L 575 -422 
L 928 -422 
Q 975 -750 1192 -909 
Q 1409 -1069 1813 -1069 
Q 2325 -1069 2536 -823 
Q 2747 -578 2747 44 
L 2747 422 
Q 2606 163 2367 36 
Q 2128 -91 1778 -91 
Q 1072 -91 667 378 
Q 263 847 263 1663 
Q 263 2481 667 2947 
Q 1072 3413 1778 3413 
Q 2128 3413 2367 3286 
Q 2606 3159 2747 2900 
L 2747 3322 
L 4325 3322 
L 4325 2944 
L 3853 2944 
z
M 2747 1825 
Q 2747 2406 2597 2665 
Q 2447 2925 2119 2925 
Q 1775 2925 1636 2651 
Q 1497 2378 1497 1663 
Q 1497 947 1637 672 
Q 1778 397 2119 397 
Q 2447 397 2597 656 
Q 2747 916 2747 1497 
L 2747 1825 
z
" transform="scale(0.015625)"/>
     <path id="DejaVuSerif-Bold-61" d="M 3525 2041 
L 3525 378 
L 4000 378 
L 4000 0 
L 2419 0 
L 2419 422 
Q 2200 159 1931 34 
Q 1663 -91 1319 -91 
Q 809 -91 536 182 
Q 263 456 263 966 
Q 263 1525 655 1803 
Q 1047 2081 1838 2081 
L 2419 2081 
L 2419 2278 
Q 2419 2681 2228 2873 
Q 2038 3066 1638 3066 
Q 1306 3066 1126 2930 
Q 947 2794 872 2484 
L 519 2484 
L 519 3200 
Q 816 3306 1134 3359 
Q 1453 3413 1806 3413 
Q 2697 3413 3111 3081 
Q 3525 2750 3525 2041 
z
M 2419 1044 
L 2419 1709 
L 2003 1709 
Q 1694 1709 1528 1540 
Q 1363 1372 1363 1056 
Q 1363 741 1483 584 
Q 1603 428 1850 428 
Q 2106 428 2262 597 
Q 2419 766 2419 1044 
z
" transform="scale(0.015625)"/>
     <path id="DejaVuSerif-Bold-72" d="M 3438 3359 
L 3438 2369 
L 3084 2369 
Q 3066 2634 2941 2764 
Q 2816 2894 2578 2894 
Q 2216 2894 2006 2575 
Q 1797 2256 1797 1691 
L 1797 378 
L 2400 378 
L 2400 0 
L 219 0 
L 219 378 
L 691 378 
L 691 2944 
L 184 2944 
L 184 3322 
L 1797 3322 
L 1797 2731 
Q 1959 3078 2226 3245 
Q 2494 3413 2881 3413 
Q 2978 3413 3117 3398 
Q 3256 3384 3438 3359 
z
" transform="scale(0.015625)"/>
     <path id="DejaVuSerif-Bold-69" d="M 588 4263 
Q 588 4516 763 4689 
Q 938 4863 1191 4863 
Q 1438 4863 1611 4689 
Q 1784 4516 1784 4263 
Q 1784 4016 1611 3842 
Q 1438 3669 1191 3669 
Q 938 3669 763 3841 
Q 588 4013 588 4263 
z
M 1797 378 
L 2272 378 
L 2272 0 
L 219 0 
L 219 378 
L 691 378 
L 691 2944 
L 219 2944 
L 219 3322 
L 1797 3322 
L 1797 378 
z
" transform="scale(0.015625)"/>
     <path id="DejaVuSerif-Bold-74" d="M 634 2944 
L 153 2944 
L 153 3322 
L 634 3322 
L 634 4353 
L 1741 4353 
L 1741 3322 
L 2663 3322 
L 2663 2944 
L 1741 2944 
L 1741 909 
Q 1741 475 1809 369 
Q 1878 263 2059 263 
Q 2259 263 2356 397 
Q 2453 531 2459 813 
L 2925 813 
Q 2897 313 2651 111 
Q 2406 -91 1806 -91 
Q 1122 -91 878 123 
Q 634 338 634 909 
L 634 2944 
z
" transform="scale(0.015625)"/>
     <path id="DejaVuSerif-Bold-68" d="M 219 0 
L 219 378 
L 691 378 
L 691 4488 
L 197 4488 
L 197 4863 
L 1797 4863 
L 1797 2853 
Q 1997 3150 2253 3281 
Q 2509 3413 2900 3413 
Q 3459 3413 3745 3083 
Q 4031 2753 4031 2113 
L 4031 378 
L 4506 378 
L 4506 0 
L 2522 0 
L 2522 378 
L 2925 378 
L 2925 2144 
Q 2925 2566 2817 2730 
Q 2709 2894 2444 2894 
Q 2109 2894 1953 2648 
Q 1797 2403 1797 1869 
L 1797 378 
L 2203 378 
L 2203 0 
L 219 0 
z
" transform="scale(0.015625)"/>
     <path id="DejaVuSerif-Bold-6d" d="M 3884 2778 
Q 4116 3109 4384 3261 
Q 4653 3413 5013 3413 
Q 5584 3413 5867 3089 
Q 6150 2766 6150 2113 
L 6150 378 
L 6625 378 
L 6625 0 
L 4647 0 
L 4647 378 
L 5044 378 
L 5044 1947 
Q 5044 2569 4948 2731 
Q 4853 2894 4594 2894 
Q 4300 2894 4137 2667 
Q 3975 2441 3975 2022 
L 3975 378 
L 4372 378 
L 4372 0 
L 2472 0 
L 2472 378 
L 2869 378 
L 2869 1947 
Q 2869 2569 2772 2731 
Q 2675 2894 2419 2894 
Q 2122 2894 1959 2667 
Q 1797 2441 1797 2022 
L 1797 378 
L 2194 378 
L 2194 0 
L 219 0 
L 219 378 
L 691 378 
L 691 2944 
L 219 2944 
L 219 3322 
L 1797 3322 
L 1797 2853 
Q 1991 3144 2241 3278 
Q 2491 3413 2834 3413 
Q 3241 3413 3494 3258 
Q 3747 3103 3884 2778 
z
" transform="scale(0.015625)"/>
     <path id="DejaVuSerif-Bold-63" d="M 3609 1038 
Q 3491 469 3123 189 
Q 2756 -91 2125 -91 
Q 1238 -91 750 368 
Q 263 828 263 1663 
Q 263 2488 744 2950 
Q 1225 3413 2081 3413 
Q 2428 3413 2781 3347 
Q 3134 3281 3500 3150 
L 3500 2228 
L 3150 2228 
Q 3100 2650 2903 2854 
Q 2706 3059 2350 3059 
Q 1888 3059 1692 2746 
Q 1497 2434 1497 1663 
Q 1497 909 1687 586 
Q 1878 263 2309 263 
Q 2644 263 2845 463 
Q 3047 663 3091 1038 
L 3609 1038 
z
" transform="scale(0.015625)"/>
     <path id="DejaVuSerif-Bold-20" transform="scale(0.015625)"/>
     <path id="DejaVuSerif-Bold-6e" d="M 219 0 
L 219 378 
L 691 378 
L 691 2944 
L 219 2944 
L 219 3322 
L 1797 3322 
L 1797 2853 
Q 1997 3150 2253 3281 
Q 2509 3413 2900 3413 
Q 3459 3413 3745 3083 
Q 4031 2753 4031 2113 
L 4031 378 
L 4506 378 
L 4506 0 
L 2522 0 
L 2522 378 
L 2925 378 
L 2925 2144 
Q 2925 2566 2817 2730 
Q 2709 2894 2444 2894 
Q 2109 2894 1953 2648 
Q 1797 2403 1797 1869 
L 1797 378 
L 2203 378 
L 2203 0 
L 219 0 
z
" transform="scale(0.015625)"/>
     <path id="DejaVuSerif-Bold-62" d="M 622 378 
L 622 4488 
L 147 4488 
L 147 4863 
L 1728 4863 
L 1728 2900 
Q 1869 3159 2106 3286 
Q 2344 3413 2694 3413 
Q 3403 3413 3811 2945 
Q 4219 2478 4219 1663 
Q 4219 847 3811 378 
Q 3403 -91 2694 -91 
Q 2344 -91 2106 36 
Q 1869 163 1728 422 
L 1728 0 
L 147 0 
L 147 378 
L 622 378 
z
M 1728 1497 
Q 1728 916 1876 656 
Q 2025 397 2356 397 
Q 2697 397 2836 672 
Q 2975 947 2975 1663 
Q 2975 2378 2836 2651 
Q 2697 2925 2356 2925 
Q 2025 2925 1876 2665 
Q 1728 2406 1728 1825 
L 1728 1497 
z
" transform="scale(0.015625)"/>
     <path id="DejaVuSerif-Bold-75" d="M 3963 3322 
L 3963 378 
L 4434 378 
L 4434 0 
L 2853 0 
L 2853 469 
Q 2656 172 2400 40 
Q 2144 -91 1753 -91 
Q 1194 -91 908 239 
Q 622 569 622 1209 
L 622 2944 
L 147 2944 
L 147 3322 
L 1728 3322 
L 1728 1381 
Q 1728 763 1831 595 
Q 1934 428 2209 428 
Q 2544 428 2698 675 
Q 2853 922 2853 1459 
L 2853 2944 
L 2450 2944 
L 2450 3322 
L 3963 3322 
z
" transform="scale(0.015625)"/>
     <path id="DejaVuSerif-Bold-64" d="M 2747 1497 
L 2747 1825 
Q 2747 2406 2597 2665 
Q 2447 2925 2119 2925 
Q 1775 2925 1636 2651 
Q 1497 2378 1497 1663 
Q 1497 947 1637 672 
Q 1778 397 2119 397 
Q 2447 397 2597 656 
Q 2747 916 2747 1497 
z
M 3853 378 
L 4325 378 
L 4325 0 
L 2747 0 
L 2747 422 
Q 2606 163 2367 36 
Q 2128 -91 1778 -91 
Q 1072 -91 667 378 
Q 263 847 263 1663 
Q 263 2481 667 2947 
Q 1072 3413 1778 3413 
Q 2128 3413 2367 3286 
Q 2606 3159 2747 2900 
L 2747 4488 
L 2272 4488 
L 2272 4863 
L 3853 4863 
L 3853 378 
z
" transform="scale(0.015625)"/>
     <path id="DejaVuSerif-Bold-3a" d="M 588 2541 
Q 588 2788 761 2963 
Q 934 3138 1178 3138 
Q 1422 3138 1597 2961 
Q 1772 2784 1772 2541 
Q 1772 2297 1598 2125 
Q 1425 1953 1178 1953 
Q 931 1953 759 2125 
Q 588 2297 588 2541 
z
M 588 506 
Q 588 750 761 925 
Q 934 1100 1178 1100 
Q 1422 1100 1597 925 
Q 1772 750 1772 506 
Q 1772 259 1597 84 
Q 1422 -91 1178 -91 
Q 934 -91 761 84 
Q 588 259 588 506 
z
" transform="scale(0.015625)"/>
     <path id="Cmsy10-2219" d="M 653 -878 
Q 600 -878 565 -837 
Q 531 -797 531 -750 
Q 531 -697 565 -659 
Q 600 -622 653 -622 
L 4325 -622 
Q 4375 -622 4408 -659 
Q 4441 -697 4441 -750 
Q 4441 -797 4408 -837 
Q 4375 -878 4325 -878 
L 653 -878 
z
M 594 2113 
Q 531 2131 531 2222 
Q 531 2303 616 2338 
L 4269 4063 
Q 4281 4072 4313 4072 
Q 4366 4072 4403 4034 
Q 4441 3997 4441 3944 
Q 4441 3859 4366 3828 
L 959 2222 
L 4384 603 
Q 4441 572 4441 494 
Q 4441 438 4403 402 
Q 4366 366 4313 366 
Q 4281 366 4269 378 
L 594 2113 
z
" transform="scale(0.015625)"/>
    </defs>
    <use xlink:href="#DejaVuSerif-Bold-4c" transform="translate(0 0.235938)"/>
    <use xlink:href="#DejaVuSerif-Bold-6f" transform="translate(70.3125 0.235938)"/>
    <use xlink:href="#DejaVuSerif-Bold-67" transform="translate(137.011719 0.235938)"/>
    <use xlink:href="#DejaVuSerif-Bold-61" transform="translate(206.933594 0.235938)"/>
    <use xlink:href="#DejaVuSerif-Bold-72" transform="translate(271.728516 0.235938)"/>
    <use xlink:href="#DejaVuSerif-Bold-69" transform="translate(324.414062 0.235938)"/>
    <use xlink:href="#DejaVuSerif-Bold-74" transform="translate(362.402344 0.235938)"/>
    <use xlink:href="#DejaVuSerif-Bold-68" transform="translate(408.59375 0.235938)"/>
    <use xlink:href="#DejaVuSerif-Bold-6d" transform="translate(481.298828 0.235938)"/>
    <use xlink:href="#DejaVuSerif-Bold-69" transform="translate(587.109375 0.235938)"/>
    <use xlink:href="#DejaVuSerif-Bold-63" transform="translate(625.097656 0.235938)"/>
    <use xlink:href="#DejaVuSerif-Bold-20" transform="translate(685.986328 0.235938)"/>
    <use xlink:href="#DejaVuSerif-Bold-6e" transform="translate(720.800781 0.235938)"/>
    <use xlink:href="#DejaVuSerif-Bold-6f" transform="translate(793.505859 0.235938)"/>
    <use xlink:href="#DejaVuSerif-Bold-72" transform="translate(860.205078 0.235938)"/>
    <use xlink:href="#DejaVuSerif-Bold-6d" transform="translate(912.890625 0.235938)"/>
    <use xlink:href="#DejaVuSerif-Bold-20" transform="translate(1018.701172 0.235938)"/>
    <use xlink:href="#DejaVuSerif-Bold-62" transform="translate(1053.515625 0.235938)"/>
    <use xlink:href="#DejaVuSerif-Bold-6f" transform="translate(1123.4375 0.235938)"/>
    <use xlink:href="#DejaVuSerif-Bold-75" transform="translate(1190.136719 0.235938)"/>
    <use xlink:href="#DejaVuSerif-Bold-6e" transform="translate(1262.841797 0.235938)"/>
    <use xlink:href="#DejaVuSerif-Bold-64" transform="translate(1335.546875 0.235938)"/>
    <use xlink:href="#DejaVuSerif-Bold-3a" transform="translate(1405.46875 0.235938)"/>
    <use xlink:href="#DejaVuSerif-Bold-20" transform="translate(1442.382812 0.235938)"/>
    <use xlink:href="#DejaVuSerif-Bold-20" transform="translate(1477.197266 0.235938)"/>
    <use xlink:href="#Cmsy10-6b" transform="translate(1512.011719 0.235938)"/>
    <use xlink:href="#Cmmi10-65" transform="translate(1562.011719 0.235938)"/>
    <use xlink:href="#Cmmi10-41" transform="translate(1614.799375 38.5) scale(0.7)"/>
    <use xlink:href="#Cmmi10-74" transform="translate(1667.299375 38.5) scale(0.7)"/>
    <use xlink:href="#Cmsy10-6b" transform="translate(1698.935508 0.235938)"/>
    <use xlink:href="#Cmsy10-2219" transform="translate(1766.494102 0.235938)"/>
    <use xlink:href="#Cmmi10-65" transform="translate(1861.738242 0.235938)"/>
    <use xlink:href="#Cmmi10-b9" transform="translate(1914.525898 38.5) scale(0.7)"/>
    <use xlink:href="#Cmr10-28" transform="translate(1956.669453 38.5) scale(0.7)"/>
    <use xlink:href="#Cmmi10-41" transform="translate(1983.842305 38.5) scale(0.7)"/>
    <use xlink:href="#Cmr10-29" transform="translate(2036.342305 38.5) scale(0.7)"/>
    <use xlink:href="#Cmmi10-74" transform="translate(2073.757874 38.5) scale(0.7)"/>
   </g>
  </g>
 </g>
 <defs>
  <clipPath id="p067c075df6">
   <rect x="41.95625" y="54.72" width="374.4" height="293.04"/>
  </clipPath>
  <clipPath id="p644009ce19">
   <rect x="509.95625" y="54.72" width="374.4" height="293.04"/>
  </clipPath>
 </defs>
</svg>
