<?xml version="1.0" encoding="utf-8" standalone="no"?>
<!DOCTYPE svg PUBLIC "-//W3C//DTD SVG 1.1//EN"
  "http://www.w3.org/Graphics/SVG/1.1/DTD/svg11.dtd">
<svg xmlns:xlink="http://www.w3.org/1999/xlink" width="703.503281pt" height="502.026562pt" viewBox="0 0 703.503281 502.026562" xmlns="http://www.w3.org/2000/svg" version="1.1">
 <metadata>
  <rdf:RDF xmlns:dc="http://purl.org/dc/elements/1.1/" xmlns:cc="http://creativecommons.org/ns#" xmlns:rdf="http://www.w3.org/1999/02/22-rdf-syntax-ns#">
   <cc:Work>
    <dc:type rdf:resource="http://purl.org/dc/dcmitype/StillImage"/>
    <dc:date>2026-06-08T07:25:07.434763</dc:date>
    <dc:format>image/svg+xml</dc:format>
    <dc:creator>
     <cc:Agent>
      <dc:title>Matplotlib v3.10.8, https://matplotlib.org/</dc:title>
     </cc:Agent>
    </dc:creator>
   </cc:Work>
  </rdf:RDF>
 </metadata>
 <defs>
  <style type="text/css">*{stroke-linejoin: round; stroke-linecap: butt}</style>
 </defs>
 <g id="figure_1">
  <g id="patch_1">
   <path d="M 0 502.026562 
L 703.503281 502.026562 
L 703.503281 0 
L 0 0 
z
" style="fill: #ffffff"/>
  </g>
  <g id="axes_1">
   <g id="patch_2">
    <path d="M 65.767656 234.703256 
L 692.167656 234.703256 
L 692.167656 42.48 
L 65.767656 42.48 
z
" style="fill: #ffffff"/>
   </g>
   <g id="matplotlib.axis_1">
    <g id="xtick_1">
     <g id="line2d_1">
      <path d="M 65.767656 234.703256 
L 65.767656 42.48 
" clip-path="url(#p8134b1c66e)" style="fill: none; stroke: #b0b0b0; stroke-opacity: 0.15; stroke-width: 0.8; stroke-linecap: square"/>
     </g>
     <g id="line2d_2">
      <defs>
       <path id="m8e317a41f4" d="M 0 0 
L 0 3.5 
" style="stroke: #000000; stroke-width: 0.8"/>
      </defs>
      <g>
       <use xlink:href="#m8e317a41f4" x="65.767656" y="234.703256" style="stroke: #000000; stroke-width: 0.8"/>
      </g>
     </g>
    </g>
    <g id="xtick_2">
     <g id="line2d_3">
      <path d="M 170.167656 234.703256 
L 170.167656 42.48 
" clip-path="url(#p8134b1c66e)" style="fill: none; stroke: #b0b0b0; stroke-opacity: 0.15; stroke-width: 0.8; stroke-linecap: square"/>
     </g>
     <g id="line2d_4">
      <g>
       <use xlink:href="#m8e317a41f4" x="170.167656" y="234.703256" style="stroke: #000000; stroke-width: 0.8"/>
      </g>
     </g>
    </g>
    <g id="xtick_3">
     <g id="line2d_5">
      <path d="M 274.567656 234.703256 
L 274.567656 42.48 
" clip-path="url(#p8134b1c66e)" style="fill: none; stroke: #b0b0b0; stroke-opacity: 0.15; stroke-width: 0.8; stroke-linecap: square"/>
     </g>
     <g id="line2d_6">
      <g>
       <use xlink:href="#m8e317a41f4" x="274.567656" y="234.703256" style="stroke: #000000; stroke-width: 0.8"/>
      </g>
     </g>
    </g>
    <g id="xtick_4">
     <g id="line2d_7">
      <path d="M 378.967656 234.703256 
L 378.967656 42.48 
" clip-path="url(#p8134b1c66e)" style="fill: none; stroke: #b0b0b0; stroke-opacity: 0.15; stroke-width: 0.8; stroke-linecap: square"/>
     </g>
     <g id="line2d_8">
      <g>
       <use xlink:href="#m8e317a41f4" x="378.967656" y="234.703256" style="stroke: #000000; stroke-width: 0.8"/>
      </g>
     </g>
    </g>
    <g id="xtick_5">
     <g id="line2d_9">
      <path d="M 483.367656 234.703256 
L 483.367656 42.48 
" clip-path="url(#p8134b1c66e)" style="fill: none; stroke: #b0b0b0; stroke-opacity: 0.15; stroke-width: 0.8; stroke-linecap: square"/>
     </g>
     <g id="line2d_10">
      <g>
       <use xlink:href="#m8e317a41f4" x="483.367656" y="234.703256" style="stroke: #000000; stroke-width: 0.8"/>
      </g>
     </g>
    </g>
    <g id="xtick_6">
     <g id="line2d_11">
      <path d="M 587.767656 234.703256 
L 587.767656 42.48 
" clip-path="url(#p8134b1c66e)" style="fill: none; stroke: #b0b0b0; stroke-opacity: 0.15; stroke-width: 0.8; stroke-linecap: square"/>
     </g>
     <g id="line2d_12">
      <g>
       <use xlink:href="#m8e317a41f4" x="587.767656" y="234.703256" style="stroke: #000000; stroke-width: 0.8"/>
      </g>
     </g>
    </g>
    <g id="xtick_7">
     <g id="line2d_13">
      <path d="M 692.167656 234.703256 
L 692.167656 42.48 
" clip-path="url(#p8134b1c66e)" style="fill: none; stroke: #b0b0b0; stroke-opacity: 0.15; stroke-width: 0.8; stroke-linecap: square"/>
     </g>
     <g id="line2d_14">
      <g>
       <use xlink:href="#m8e317a41f4" x="692.167656" y="234.703256" style="stroke: #000000; stroke-width: 0.8"/>
      </g>
     </g>
    </g>
   </g>
   <g id="matplotlib.axis_2">
    <g id="ytick_1">
     <g id="line2d_15">
      <path d="M 65.767656 207.886673 
L 692.167656 207.886673 
" clip-path="url(#p8134b1c66e)" style="fill: none; stroke: #b0b0b0; stroke-opacity: 0.15; stroke-width: 0.8; stroke-linecap: square"/>
     </g>
     <g id="line2d_16">
      <defs>
       <path id="m3e9b850b7b" d="M 0 0 
L -3.5 0 
" style="stroke: #000000; stroke-width: 0.8"/>
      </defs>
      <g>
       <use xlink:href="#m3e9b850b7b" x="65.767656" y="207.886673" style="stroke: #000000; stroke-width: 0.8"/>
      </g>
     </g>
     <g id="text_1">
      <!-- −0.5 -->
      <g transform="translate(27.2 212.825657) scale(0.13 -0.13)">
       <defs>
        <path id="DejaVuSerif-2212" d="M 678 2259 
L 4684 2259 
L 4684 1753 
L 678 1753 
L 678 2259 
z
" transform="scale(0.015625)"/>
        <path id="DejaVuSerif-30" d="M 2034 219 
Q 2513 219 2750 744 
Q 2988 1269 2988 2328 
Q 2988 3391 2750 3916 
Q 2513 4441 2034 4441 
Q 1556 4441 1318 3916 
Q 1081 3391 1081 2328 
Q 1081 1269 1318 744 
Q 1556 219 2034 219 
z
M 2034 -91 
Q 1275 -91 848 546 
Q 422 1184 422 2328 
Q 422 3475 848 4112 
Q 1275 4750 2034 4750 
Q 2797 4750 3222 4112 
Q 3647 3475 3647 2328 
Q 3647 1184 3222 546 
Q 2797 -91 2034 -91 
z
" transform="scale(0.015625)"/>
        <path id="DejaVuSerif-2e" d="M 603 325 
Q 603 500 722 622 
Q 841 744 1019 744 
Q 1191 744 1312 622 
Q 1434 500 1434 325 
Q 1434 153 1312 31 
Q 1191 -91 1019 -91 
Q 841 -91 722 29 
Q 603 150 603 325 
z
" transform="scale(0.015625)"/>
        <path id="DejaVuSerif-35" d="M 3219 4666 
L 3219 4153 
L 1081 4153 
L 1081 2816 
Q 1244 2928 1461 2984 
Q 1678 3041 1947 3041 
Q 2703 3041 3140 2622 
Q 3578 2203 3578 1478 
Q 3578 738 3136 323 
Q 2694 -91 1894 -91 
Q 1572 -91 1234 -12 
Q 897 66 544 225 
L 544 1131 
L 897 1131 
Q 925 688 1179 453 
Q 1434 219 1894 219 
Q 2388 219 2653 544 
Q 2919 869 2919 1478 
Q 2919 2084 2655 2407 
Q 2391 2731 1894 2731 
Q 1613 2731 1398 2631 
Q 1184 2531 1019 2322 
L 750 2322 
L 750 4666 
L 3219 4666 
z
" transform="scale(0.015625)"/>
       </defs>
       <use xlink:href="#DejaVuSerif-2212"/>
       <use xlink:href="#DejaVuSerif-30" transform="translate(83.789062 0)"/>
       <use xlink:href="#DejaVuSerif-2e" transform="translate(147.412109 0)"/>
       <use xlink:href="#DejaVuSerif-35" transform="translate(179.199219 0)"/>
      </g>
     </g>
    </g>
    <g id="ytick_2">
     <g id="line2d_17">
      <path d="M 65.767656 155.779389 
L 692.167656 155.779389 
" clip-path="url(#p8134b1c66e)" style="fill: none; stroke: #b0b0b0; stroke-opacity: 0.15; stroke-width: 0.8; stroke-linecap: square"/>
     </g>
     <g id="line2d_18">
      <g>
       <use xlink:href="#m3e9b850b7b" x="65.767656" y="155.779389" style="stroke: #000000; stroke-width: 0.8"/>
      </g>
     </g>
     <g id="text_2">
      <!-- 0.0 -->
      <g transform="translate(38.093594 160.718373) scale(0.13 -0.13)">
       <use xlink:href="#DejaVuSerif-30"/>
       <use xlink:href="#DejaVuSerif-2e" transform="translate(63.623047 0)"/>
       <use xlink:href="#DejaVuSerif-30" transform="translate(95.410156 0)"/>
      </g>
     </g>
    </g>
    <g id="ytick_3">
     <g id="line2d_19">
      <path d="M 65.767656 103.672105 
L 692.167656 103.672105 
" clip-path="url(#p8134b1c66e)" style="fill: none; stroke: #b0b0b0; stroke-opacity: 0.15; stroke-width: 0.8; stroke-linecap: square"/>
     </g>
     <g id="line2d_20">
      <g>
       <use xlink:href="#m3e9b850b7b" x="65.767656" y="103.672105" style="stroke: #000000; stroke-width: 0.8"/>
      </g>
     </g>
     <g id="text_3">
      <!-- 0.5 -->
      <g transform="translate(38.093594 108.611089) scale(0.13 -0.13)">
       <use xlink:href="#DejaVuSerif-30"/>
       <use xlink:href="#DejaVuSerif-2e" transform="translate(63.623047 0)"/>
       <use xlink:href="#DejaVuSerif-35" transform="translate(95.410156 0)"/>
      </g>
     </g>
    </g>
    <g id="ytick_4">
     <g id="line2d_21">
      <path d="M 65.767656 51.564821 
L 692.167656 51.564821 
" clip-path="url(#p8134b1c66e)" style="fill: none; stroke: #b0b0b0; stroke-opacity: 0.15; stroke-width: 0.8; stroke-linecap: square"/>
     </g>
     <g id="line2d_22">
      <g>
       <use xlink:href="#m3e9b850b7b" x="65.767656" y="51.564821" style="stroke: #000000; stroke-width: 0.8"/>
      </g>
     </g>
     <g id="text_4">
      <!-- 1.0 -->
      <g transform="translate(38.093594 56.503805) scale(0.13 -0.13)">
       <defs>
        <path id="DejaVuSerif-31" d="M 909 0 
L 909 331 
L 1722 331 
L 1722 4213 
L 781 3603 
L 781 4013 
L 1919 4750 
L 2350 4750 
L 2350 331 
L 3163 331 
L 3163 0 
L 909 0 
z
" transform="scale(0.015625)"/>
       </defs>
       <use xlink:href="#DejaVuSerif-31"/>
       <use xlink:href="#DejaVuSerif-2e" transform="translate(63.623047 0)"/>
       <use xlink:href="#DejaVuSerif-30" transform="translate(95.410156 0)"/>
      </g>
     </g>
    </g>
    <g id="text_5">
     <!-- Output  $y(t) = C x(t)$ -->
     <g transform="translate(19.2 213.551628) rotate(-90) scale(0.16 -0.16)">
      <defs>
       <path id="DejaVuSerif-4f" d="M 2625 244 
Q 3391 244 3781 770 
Q 4172 1297 4172 2328 
Q 4172 3363 3781 3889 
Q 3391 4416 2625 4416 
Q 1856 4416 1465 3889 
Q 1075 3363 1075 2328 
Q 1075 1297 1465 770 
Q 1856 244 2625 244 
z
M 2625 -91 
Q 2150 -91 1751 65 
Q 1353 222 1050 525 
Q 700 875 529 1319 
Q 359 1763 359 2328 
Q 359 2894 529 3339 
Q 700 3784 1050 4134 
Q 1356 4441 1750 4595 
Q 2144 4750 2625 4750 
Q 3641 4750 4266 4084 
Q 4891 3419 4891 2328 
Q 4891 1769 4719 1320 
Q 4547 872 4197 525 
Q 3891 219 3497 64 
Q 3103 -91 2625 -91 
z
" transform="scale(0.015625)"/>
       <path id="DejaVuSerif-75" d="M 2266 3322 
L 3341 3322 
L 3341 331 
L 3884 331 
L 3884 0 
L 2766 0 
L 2766 588 
Q 2606 256 2353 82 
Q 2100 -91 1766 -91 
Q 1213 -91 952 223 
Q 691 538 691 1209 
L 691 2988 
L 172 2988 
L 172 3322 
L 1269 3322 
L 1269 1388 
Q 1269 781 1417 556 
Q 1566 331 1947 331 
Q 2347 331 2556 625 
Q 2766 919 2766 1478 
L 2766 2988 
L 2266 2988 
L 2266 3322 
z
" transform="scale(0.015625)"/>
       <path id="DejaVuSerif-74" d="M 691 2988 
L 184 2988 
L 184 3322 
L 691 3322 
L 691 4353 
L 1269 4353 
L 1269 3322 
L 2350 3322 
L 2350 2988 
L 1269 2988 
L 1269 878 
Q 1269 456 1350 337 
Q 1431 219 1650 219 
Q 1875 219 1978 351 
Q 2081 484 2088 781 
L 2522 781 
Q 2497 328 2275 118 
Q 2053 -91 1600 -91 
Q 1103 -91 897 129 
Q 691 350 691 878 
L 691 2988 
z
" transform="scale(0.015625)"/>
       <path id="DejaVuSerif-70" d="M 1313 1825 
L 1313 1497 
Q 1313 897 1542 583 
Q 1772 269 2209 269 
Q 2650 269 2876 622 
Q 3103 975 3103 1663 
Q 3103 2353 2876 2703 
Q 2650 3053 2209 3053 
Q 1772 3053 1542 2737 
Q 1313 2422 1313 1825 
z
M 738 2988 
L 184 2988 
L 184 3322 
L 1313 3322 
L 1313 2803 
Q 1481 3116 1742 3264 
Q 2003 3413 2388 3413 
Q 3000 3413 3387 2928 
Q 3775 2444 3775 1663 
Q 3775 881 3387 395 
Q 3000 -91 2388 -91 
Q 2003 -91 1742 57 
Q 1481 206 1313 519 
L 1313 -997 
L 1856 -997 
L 1856 -1331 
L 184 -1331 
L 184 -997 
L 738 -997 
L 738 2988 
z
" transform="scale(0.015625)"/>
       <path id="DejaVuSerif-20" transform="scale(0.015625)"/>
       <path id="Cmmi10-79" d="M 538 -916 
Q 672 -1147 1006 -1147 
Q 1309 -1147 1531 -934 
Q 1753 -722 1889 -420 
Q 2025 -119 2100 197 
Q 1816 -72 1484 -72 
Q 1231 -72 1053 15 
Q 875 103 776 276 
Q 678 450 678 697 
Q 678 906 734 1126 
Q 791 1347 892 1617 
Q 994 1888 1069 2088 
Q 1153 2322 1153 2472 
Q 1153 2663 1013 2663 
Q 759 2663 595 2402 
Q 431 2141 353 1819 
Q 341 1778 300 1778 
L 225 1778 
Q 172 1778 172 1838 
L 172 1856 
Q 275 2238 487 2533 
Q 700 2828 1025 2828 
Q 1253 2828 1411 2678 
Q 1569 2528 1569 2297 
Q 1569 2178 1516 2047 
Q 1488 1969 1388 1706 
Q 1288 1444 1234 1272 
Q 1181 1100 1147 934 
Q 1113 769 1113 603 
Q 1113 391 1203 244 
Q 1294 97 1491 97 
Q 1888 97 2203 581 
L 2688 2553 
Q 2709 2638 2787 2698 
Q 2866 2759 2956 2759 
Q 3034 2759 3092 2709 
Q 3150 2659 3150 2578 
Q 3150 2541 3144 2528 
L 2509 -19 
Q 2425 -347 2200 -647 
Q 1975 -947 1658 -1130 
Q 1341 -1313 997 -1313 
Q 831 -1313 668 -1248 
Q 506 -1184 406 -1056 
Q 306 -928 306 -756 
Q 306 -581 409 -453 
Q 513 -325 684 -325 
Q 788 -325 858 -389 
Q 928 -453 928 -556 
Q 928 -703 818 -812 
Q 709 -922 563 -922 
Q 556 -919 550 -917 
Q 544 -916 538 -916 
z
" transform="scale(0.015625)"/>
       <path id="Cmr10-28" d="M 1984 -1588 
Q 1628 -1306 1370 -942 
Q 1113 -578 948 -165 
Q 784 247 703 697 
Q 622 1147 622 1600 
Q 622 2059 703 2509 
Q 784 2959 951 3375 
Q 1119 3791 1378 4153 
Q 1638 4516 1984 4788 
Q 1984 4800 2016 4800 
L 2075 4800 
Q 2094 4800 2109 4783 
Q 2125 4766 2125 4744 
Q 2125 4716 2113 4703 
Q 1800 4397 1592 4047 
Q 1384 3697 1257 3301 
Q 1131 2906 1075 2482 
Q 1019 2059 1019 1600 
Q 1019 -434 2106 -1491 
Q 2125 -1509 2125 -1544 
Q 2125 -1559 2108 -1579 
Q 2091 -1600 2075 -1600 
L 2016 -1600 
Q 1984 -1600 1984 -1588 
z
" transform="scale(0.015625)"/>
       <path id="Cmmi10-74" d="M 397 519 
Q 397 613 416 697 
L 878 2534 
L 206 2534 
Q 141 2534 141 2619 
Q 166 2759 225 2759 
L 934 2759 
L 1191 3803 
Q 1216 3888 1291 3947 
Q 1366 4006 1459 4006 
Q 1541 4006 1595 3957 
Q 1650 3909 1650 3828 
Q 1650 3809 1648 3798 
Q 1647 3788 1644 3775 
L 1388 2759 
L 2047 2759 
Q 2113 2759 2113 2675 
Q 2109 2659 2100 2621 
Q 2091 2584 2075 2559 
Q 2059 2534 2028 2534 
L 1331 2534 
L 872 684 
Q 825 503 825 372 
Q 825 97 1013 97 
Q 1294 97 1511 361 
Q 1728 625 1844 941 
Q 1869 978 1894 978 
L 1972 978 
Q 1997 978 2012 961 
Q 2028 944 2028 922 
Q 2028 909 2022 903 
Q 1881 516 1612 222 
Q 1344 -72 997 -72 
Q 744 -72 570 93 
Q 397 259 397 519 
z
" transform="scale(0.015625)"/>
       <path id="Cmr10-29" d="M 416 -1600 
Q 359 -1600 359 -1544 
Q 359 -1516 372 -1503 
Q 1466 -434 1466 1600 
Q 1466 3634 384 4691 
Q 359 4706 359 4744 
Q 359 4766 376 4783 
Q 394 4800 416 4800 
L 475 4800 
Q 494 4800 506 4788 
Q 966 4425 1272 3906 
Q 1578 3388 1720 2800 
Q 1863 2213 1863 1600 
Q 1863 1147 1786 708 
Q 1709 269 1542 -157 
Q 1375 -584 1119 -945 
Q 863 -1306 506 -1588 
Q 494 -1600 475 -1600 
L 416 -1600 
z
" transform="scale(0.015625)"/>
       <path id="Cmr10-3d" d="M 481 850 
Q 428 850 393 890 
Q 359 931 359 978 
Q 359 1031 393 1068 
Q 428 1106 481 1106 
L 4500 1106 
Q 4547 1106 4581 1068 
Q 4616 1031 4616 978 
Q 4616 931 4581 890 
Q 4547 850 4500 850 
L 481 850 
z
M 481 2094 
Q 428 2094 393 2131 
Q 359 2169 359 2222 
Q 359 2269 393 2309 
Q 428 2350 481 2350 
L 4500 2350 
Q 4547 2350 4581 2309 
Q 4616 2269 4616 2222 
Q 4616 2169 4581 2131 
Q 4547 2094 4500 2094 
L 481 2094 
z
" transform="scale(0.015625)"/>
       <path id="Cmmi10-43" d="M 934 1381 
Q 934 997 1082 705 
Q 1231 413 1514 248 
Q 1797 84 2181 84 
Q 2584 84 2957 290 
Q 3331 497 3595 842 
Q 3859 1188 3956 1575 
Q 3969 1613 4006 1613 
L 4084 1613 
Q 4109 1613 4125 1595 
Q 4141 1578 4141 1556 
Q 4141 1550 4134 1538 
Q 4025 1094 3711 705 
Q 3397 316 2959 87 
Q 2522 -141 2059 -141 
Q 1559 -141 1162 84 
Q 766 309 545 709 
Q 325 1109 325 1613 
Q 325 2150 565 2676 
Q 806 3203 1212 3614 
Q 1619 4025 2139 4269 
Q 2659 4513 3194 4513 
Q 3406 4513 3600 4448 
Q 3794 4384 3959 4253 
Q 4125 4122 4231 3950 
L 4738 4500 
Q 4738 4513 4769 4513 
L 4806 4513 
Q 4831 4513 4847 4491 
Q 4863 4469 4863 4447 
L 4428 2719 
Q 4428 2675 4378 2675 
L 4263 2675 
Q 4213 2675 4213 2747 
Q 4238 2888 4238 3084 
Q 4238 3397 4131 3673 
Q 4025 3950 3801 4119 
Q 3578 4288 3256 4288 
Q 2734 4288 2300 4025 
Q 1866 3763 1564 3336 
Q 1263 2909 1098 2389 
Q 934 1869 934 1381 
z
" transform="scale(0.015625)"/>
       <path id="Cmmi10-78" d="M 500 184 
Q 613 97 819 97 
Q 1019 97 1172 289 
Q 1325 481 1381 709 
L 1672 1844 
Q 1741 2153 1741 2266 
Q 1741 2425 1652 2544 
Q 1563 2663 1403 2663 
Q 1200 2663 1022 2536 
Q 844 2409 722 2214 
Q 600 2019 550 1819 
Q 538 1778 500 1778 
L 422 1778 
Q 372 1778 372 1838 
L 372 1856 
Q 434 2094 584 2320 
Q 734 2547 951 2687 
Q 1169 2828 1416 2828 
Q 1650 2828 1839 2703 
Q 2028 2578 2106 2363 
Q 2216 2559 2386 2693 
Q 2556 2828 2759 2828 
Q 2897 2828 3040 2779 
Q 3184 2731 3275 2631 
Q 3366 2531 3366 2381 
Q 3366 2219 3261 2101 
Q 3156 1984 2994 1984 
Q 2891 1984 2822 2050 
Q 2753 2116 2753 2216 
Q 2753 2350 2845 2451 
Q 2938 2553 3066 2572 
Q 2950 2663 2747 2663 
Q 2541 2663 2389 2472 
Q 2238 2281 2175 2047 
L 1894 916 
Q 1825 659 1825 494 
Q 1825 331 1917 214 
Q 2009 97 2163 97 
Q 2463 97 2698 361 
Q 2934 625 3009 941 
Q 3022 978 3059 978 
L 3138 978 
Q 3163 978 3178 961 
Q 3194 944 3194 922 
Q 3194 916 3188 903 
Q 3097 522 2806 225 
Q 2516 -72 2150 -72 
Q 1916 -72 1727 54 
Q 1538 181 1459 397 
Q 1359 209 1182 68 
Q 1006 -72 806 -72 
Q 669 -72 523 -23 
Q 378 25 287 125 
Q 197 225 197 378 
Q 197 528 301 651 
Q 406 775 563 775 
Q 669 775 741 711 
Q 813 647 813 544 
Q 813 409 723 309 
Q 634 209 500 184 
z
" transform="scale(0.015625)"/>
      </defs>
      <use xlink:href="#DejaVuSerif-4f"/>
      <use xlink:href="#DejaVuSerif-75" transform="translate(81.982422 0)"/>
      <use xlink:href="#DejaVuSerif-74" transform="translate(146.386719 0)"/>
      <use xlink:href="#DejaVuSerif-70" transform="translate(186.572266 0)"/>
      <use xlink:href="#DejaVuSerif-75" transform="translate(250.585938 0)"/>
      <use xlink:href="#DejaVuSerif-74" transform="translate(314.990234 0)"/>
      <use xlink:href="#DejaVuSerif-20" transform="translate(355.175781 0)"/>
      <use xlink:href="#DejaVuSerif-20" transform="translate(386.962891 0)"/>
      <use xlink:href="#Cmmi10-79" transform="translate(418.75 0)"/>
      <use xlink:href="#Cmr10-28" transform="translate(467.773438 0)"/>
      <use xlink:href="#Cmmi10-74" transform="translate(506.591797 0)"/>
      <use xlink:href="#Cmr10-29" transform="translate(542.675781 0)"/>
      <use xlink:href="#Cmr10-3d" transform="translate(599.052734 0)"/>
      <use xlink:href="#Cmmi10-43" transform="translate(694.296875 0)"/>
      <use xlink:href="#Cmmi10-78" transform="translate(765.683594 0)"/>
      <use xlink:href="#Cmr10-28" transform="translate(822.763672 0)"/>
      <use xlink:href="#Cmmi10-74" transform="translate(861.582031 0)"/>
      <use xlink:href="#Cmr10-29" transform="translate(897.666016 0)"/>
     </g>
    </g>
   </g>
   <g id="line2d_23">
    <path d="M 65.767656 51.564821 
L 67.021083 51.660146 
L 68.587866 52.033092 
L 70.15465 52.664353 
L 71.721433 53.529925 
L 73.601573 54.846143 
L 75.481713 56.430753 
L 77.67521 58.573772 
L 80.182063 61.350926 
L 83.002274 64.814156 
L 86.449197 69.416645 
L 90.836191 75.666582 
L 99.610178 88.672746 
L 106.504024 98.692808 
L 111.517731 105.607473 
L 115.904725 111.309605 
L 120.291718 116.641557 
L 124.365355 121.238711 
L 128.438992 125.484803 
L 132.199272 129.091267 
L 135.959552 132.401014 
L 139.719832 135.42159 
L 143.480112 138.163448 
L 147.240393 140.639223 
L 151.000673 142.863141 
L 155.07431 145.005882 
L 159.147946 146.891177 
L 163.221583 148.539533 
L 167.608577 150.073133 
L 172.308927 151.465883 
L 177.009277 152.628335 
L 182.022984 153.645637 
L 187.663404 154.553417 
L 193.617181 155.282675 
L 200.197671 155.865019 
L 207.718232 156.304057 
L 216.492219 156.589099 
L 227.459702 156.712504 
L 242.81418 156.641571 
L 336.19447 155.818383 
L 401.372659 155.771227 
L 692.167656 155.779386 
L 692.167656 155.779386 
" clip-path="url(#p8134b1c66e)" style="fill: none; stroke-dasharray: 9.25,4; stroke-dashoffset: 0; stroke: #0072bd; stroke-width: 2.5"/>
   </g>
   <g id="line2d_24">
    <path d="M 65.767656 51.564821 
L 69.21458 51.444782 
L 75.168357 51.218941 
L 77.988567 51.351569 
L 80.49542 51.687398 
L 83.002274 52.268474 
L 85.19577 53.000045 
L 87.389267 53.953514 
L 89.582764 55.136954 
L 91.776261 56.55444 
L 94.283114 58.461422 
L 96.789967 60.670452 
L 99.296821 63.172964 
L 102.117031 66.323917 
L 104.937241 69.809257 
L 108.070808 74.043332 
L 111.517731 79.095809 
L 115.278011 85.017148 
L 119.665005 92.369942 
L 124.992068 101.780726 
L 132.199272 115.01481 
L 146.613679 141.564257 
L 152.567456 152.022817 
L 157.89452 160.938685 
L 162.59487 168.392149 
L 166.981863 174.96005 
L 171.368857 181.126876 
L 175.442494 186.478718 
L 179.51613 191.461024 
L 183.276411 195.728469 
L 187.036691 199.6773 
L 190.796971 203.310012 
L 194.557251 206.631175 
L 198.317531 209.647243 
L 202.077811 212.366434 
L 205.838091 214.798203 
L 209.598372 216.95302 
L 213.358652 218.842328 
L 217.118932 220.478171 
L 220.879212 221.872985 
L 224.639492 223.039587 
L 228.713129 224.060869 
L 232.786766 224.845895 
L 236.860403 225.411017 
L 241.247396 225.792056 
L 245.63439 225.956138 
L 250.33474 225.91265 
L 255.348447 225.640672 
L 260.67551 225.124579 
L 266.31593 224.354461 
L 272.583064 223.266779 
L 279.476911 221.834152 
L 286.997471 220.043211 
L 295.771458 217.723291 
L 306.738942 214.580661 
L 322.720132 209.740507 
L 354.682514 200.024269 
L 370.036991 195.621504 
L 383.824685 191.897213 
L 396.985665 188.568157 
L 410.146646 185.469643 
L 423.307626 182.603272 
L 436.468607 179.964994 
L 449.942944 177.492115 
L 463.730638 175.189178 
L 477.831688 173.057788 
L 492.559452 171.056458 
L 507.913929 169.195124 
L 524.208477 167.448578 
L 541.129737 165.859361 
L 559.304425 164.378957 
L 578.732539 163.024298 
L 599.727436 161.789167 
L 622.289117 160.687209 
L 647.044295 159.702184 
L 674.619682 158.830104 
L 692.167656 158.376691 
L 692.167656 158.376691 
" clip-path="url(#p8134b1c66e)" style="fill: none; stroke: #d95319; stroke-width: 2; stroke-linecap: square"/>
   </g>
   <g id="line2d_25">
    <path d="M 65.767656 51.564821 
L 71.09472 51.636842 
L 72.97486 51.94644 
L 74.541643 52.407914 
L 76.108427 53.085078 
L 77.67521 53.99874 
L 79.241993 55.163169 
L 80.808777 56.586827 
L 82.688917 58.642065 
L 84.569057 61.073474 
L 86.449197 63.871735 
L 88.642694 67.579351 
L 90.836191 71.732866 
L 93.343044 76.975457 
L 96.163254 83.426527 
L 99.296821 91.162951 
L 103.057101 101.042107 
L 108.697521 116.574448 
L 118.411578 143.384758 
L 122.798572 154.824771 
L 126.558852 164.061066 
L 130.005775 171.974751 
L 133.139342 178.659165 
L 136.272909 184.82507 
L 139.093119 189.913255 
L 141.913329 194.555085 
L 144.733539 198.747023 
L 147.240393 202.096584 
L 149.747246 205.095649 
L 152.254099 207.750431 
L 154.760953 210.069334 
L 157.267806 212.062457 
L 159.77466 213.741363 
L 162.281513 215.118974 
L 164.788367 216.209154 
L 167.29522 217.026512 
L 169.802073 217.586334 
L 172.308927 217.904241 
L 174.81578 217.996071 
L 177.322634 217.877808 
L 180.142844 217.513399 
L 182.963054 216.925538 
L 186.096621 216.036959 
L 189.543544 214.806925 
L 193.303824 213.205689 
L 197.377461 211.217013 
L 202.077811 208.662811 
L 207.718232 205.331874 
L 215.552148 200.425528 
L 233.100122 189.365532 
L 240.307326 185.124582 
L 246.887816 181.507281 
L 253.15495 178.319659 
L 259.108727 175.538391 
L 265.062504 173.0025 
L 271.016281 170.710152 
L 276.970057 168.654209 
L 283.237191 166.733695 
L 289.504325 165.047474 
L 296.084815 163.509695 
L 302.978662 162.130862 
L 310.185865 160.916111 
L 318.019782 159.825704 
L 326.480413 158.878182 
L 335.881113 158.058153 
L 346.221883 157.383253 
L 358.129437 156.832159 
L 372.543844 156.397765 
L 390.718532 156.086128 
L 416.100423 155.891345 
L 461.537141 155.802219 
L 672.426186 155.779532 
L 692.167656 155.779458 
L 692.167656 155.779458 
" clip-path="url(#p8134b1c66e)" style="fill: none; stroke: #edb120; stroke-width: 2; stroke-linecap: square"/>
   </g>
   <g id="line2d_26">
    <path d="M 65.767656 51.564821 
L 67.33444 51.66431 
L 68.27451 51.981244 
L 69.21458 52.604716 
L 70.15465 53.584439 
L 71.09472 54.943282 
L 72.03479 56.684218 
L 73.288217 59.57854 
L 74.541643 63.077149 
L 76.108427 68.189188 
L 77.988567 75.195568 
L 80.49542 85.560819 
L 85.19577 106.282699 
L 89.269407 123.789894 
L 92.089617 135.015902 
L 94.596471 144.181424 
L 97.103324 152.503514 
L 99.296821 159.070045 
L 101.490318 164.969643 
L 103.683814 170.217227 
L 105.877311 174.837341 
L 107.757451 178.321443 
L 109.637591 181.389347 
L 111.517731 184.064487 
L 113.397871 186.371007 
L 115.278011 188.333249 
L 117.158151 189.9754 
L 119.038292 191.321165 
L 120.918432 192.393588 
L 122.798572 193.214883 
L 124.678712 193.806336 
L 126.558852 194.188236 
L 128.752349 194.394561 
L 130.945845 194.370585 
L 133.452699 194.095484 
L 135.959552 193.591488 
L 138.779762 192.792831 
L 141.913329 191.668483 
L 145.673609 190.06174 
L 150.060603 187.931262 
L 156.01438 184.775398 
L 173.87571 175.149961 
L 180.142844 172.107224 
L 185.783264 169.607744 
L 191.423684 167.35354 
L 197.064104 165.3495 
L 202.704525 163.591144 
L 208.344945 162.067239 
L 214.298722 160.695643 
L 220.565855 159.491317 
L 227.146346 158.461745 
L 234.040193 157.607155 
L 241.560753 156.895458 
L 250.021383 156.318728 
L 259.73544 155.882903 
L 271.329637 155.590445 
L 286.370758 155.445377 
L 309.559152 155.470995 
L 409.833289 155.772232 
L 605.0545 155.779367 
L 692.167656 155.779382 
L 692.167656 155.779382 
" clip-path="url(#p8134b1c66e)" style="fill: none; stroke: #77ac30; stroke-width: 2; stroke-linecap: square"/>
   </g>
   <g id="line2d_27">
    <path d="M 65.767656 155.779389 
L 692.167656 155.779389 
" clip-path="url(#p8134b1c66e)" style="fill: none; stroke: #808080; stroke-width: 0.5; stroke-linecap: square"/>
   </g>
   <g id="patch_3">
    <path d="M 65.767656 234.703256 
L 65.767656 42.48 
" style="fill: none; stroke: #000000; stroke-width: 0.8; stroke-linejoin: miter; stroke-linecap: square"/>
   </g>
   <g id="patch_4">
    <path d="M 65.767656 234.703256 
L 692.167656 234.703256 
" style="fill: none; stroke: #000000; stroke-width: 0.8; stroke-linejoin: miter; stroke-linecap: square"/>
   </g>
   <g id="text_6">
    <!-- Output response  (controller poles at $-3 \pm 2j$) -->
    <g transform="translate(230.767656 36.48) scale(0.13 -0.13)">
     <defs>
      <path id="DejaVuSerif-72" d="M 3059 3328 
L 3059 2497 
L 2728 2497 
Q 2713 2744 2591 2866 
Q 2469 2988 2234 2988 
Q 1809 2988 1582 2694 
Q 1356 2400 1356 1850 
L 1356 331 
L 2022 331 
L 2022 0 
L 263 0 
L 263 331 
L 781 331 
L 781 2994 
L 231 2994 
L 231 3322 
L 1356 3322 
L 1356 2731 
Q 1525 3078 1790 3245 
Q 2056 3413 2438 3413 
Q 2578 3413 2733 3391 
Q 2888 3369 3059 3328 
z
" transform="scale(0.015625)"/>
      <path id="DejaVuSerif-65" d="M 3469 1600 
L 991 1600 
L 991 1575 
Q 991 903 1244 561 
Q 1497 219 1991 219 
Q 2369 219 2611 417 
Q 2853 616 2950 1006 
L 3413 1006 
Q 3275 459 2904 184 
Q 2534 -91 1931 -91 
Q 1203 -91 761 389 
Q 319 869 319 1663 
Q 319 2450 753 2931 
Q 1188 3413 1894 3413 
Q 2647 3413 3050 2948 
Q 3453 2484 3469 1600 
z
M 2791 1931 
Q 2772 2513 2545 2808 
Q 2319 3103 1894 3103 
Q 1497 3103 1269 2806 
Q 1041 2509 991 1931 
L 2791 1931 
z
" transform="scale(0.015625)"/>
      <path id="DejaVuSerif-73" d="M 359 184 
L 359 959 
L 691 959 
Q 703 588 923 403 
Q 1144 219 1575 219 
Q 1963 219 2166 364 
Q 2369 509 2369 788 
Q 2369 1006 2220 1140 
Q 2072 1275 1594 1428 
L 1178 1569 
Q 750 1706 558 1912 
Q 366 2119 366 2438 
Q 366 2894 700 3153 
Q 1034 3413 1625 3413 
Q 1888 3413 2178 3344 
Q 2469 3275 2778 3144 
L 2778 2419 
L 2447 2419 
Q 2434 2741 2221 2922 
Q 2009 3103 1644 3103 
Q 1281 3103 1095 2975 
Q 909 2847 909 2591 
Q 909 2381 1050 2254 
Q 1191 2128 1613 1997 
L 2069 1856 
Q 2541 1709 2748 1489 
Q 2956 1269 2956 922 
Q 2956 450 2595 179 
Q 2234 -91 1600 -91 
Q 1278 -91 972 -22 
Q 666 47 359 184 
z
" transform="scale(0.015625)"/>
      <path id="DejaVuSerif-6f" d="M 1925 219 
Q 2388 219 2623 584 
Q 2859 950 2859 1663 
Q 2859 2375 2623 2739 
Q 2388 3103 1925 3103 
Q 1463 3103 1227 2739 
Q 991 2375 991 1663 
Q 991 950 1228 584 
Q 1466 219 1925 219 
z
M 1925 -91 
Q 1200 -91 759 389 
Q 319 869 319 1663 
Q 319 2456 758 2934 
Q 1197 3413 1925 3413 
Q 2653 3413 3092 2934 
Q 3531 2456 3531 1663 
Q 3531 869 3092 389 
Q 2653 -91 1925 -91 
z
" transform="scale(0.015625)"/>
      <path id="DejaVuSerif-6e" d="M 263 0 
L 263 331 
L 781 331 
L 781 2988 
L 231 2988 
L 231 3322 
L 1356 3322 
L 1356 2731 
Q 1516 3069 1770 3241 
Q 2025 3413 2363 3413 
Q 2913 3413 3172 3097 
Q 3431 2781 3431 2113 
L 3431 331 
L 3944 331 
L 3944 0 
L 2356 0 
L 2356 331 
L 2853 331 
L 2853 1931 
Q 2853 2541 2703 2767 
Q 2553 2994 2175 2994 
Q 1775 2994 1565 2701 
Q 1356 2409 1356 1850 
L 1356 331 
L 1856 331 
L 1856 0 
L 263 0 
z
" transform="scale(0.015625)"/>
      <path id="DejaVuSerif-28" d="M 2041 -997 
Q 1281 -656 893 83 
Q 506 822 506 1931 
Q 506 3044 893 3783 
Q 1281 4522 2041 4863 
L 2041 4556 
Q 1559 4225 1350 3623 
Q 1141 3022 1141 1931 
Q 1141 844 1350 242 
Q 1559 -359 2041 -691 
L 2041 -997 
z
" transform="scale(0.015625)"/>
      <path id="DejaVuSerif-63" d="M 3291 997 
Q 3169 466 2822 187 
Q 2475 -91 1925 -91 
Q 1200 -91 759 389 
Q 319 869 319 1663 
Q 319 2459 759 2936 
Q 1200 3413 1925 3413 
Q 2241 3413 2553 3339 
Q 2866 3266 3181 3116 
L 3181 2266 
L 2847 2266 
Q 2781 2703 2561 2903 
Q 2341 3103 1931 3103 
Q 1466 3103 1228 2742 
Q 991 2381 991 1663 
Q 991 944 1227 581 
Q 1463 219 1931 219 
Q 2303 219 2525 412 
Q 2747 606 2828 997 
L 3291 997 
z
" transform="scale(0.015625)"/>
      <path id="DejaVuSerif-6c" d="M 1313 331 
L 1856 331 
L 1856 0 
L 184 0 
L 184 331 
L 738 331 
L 738 4531 
L 184 4531 
L 184 4863 
L 1313 4863 
L 1313 331 
z
" transform="scale(0.015625)"/>
      <path id="DejaVuSerif-61" d="M 2547 1044 
L 2547 1747 
L 1806 1747 
Q 1378 1747 1168 1562 
Q 959 1378 959 997 
Q 959 650 1171 447 
Q 1384 244 1747 244 
Q 2106 244 2326 466 
Q 2547 688 2547 1044 
z
M 3122 2075 
L 3122 331 
L 3634 331 
L 3634 0 
L 2547 0 
L 2547 359 
Q 2356 128 2106 18 
Q 1856 -91 1522 -91 
Q 969 -91 644 203 
Q 319 497 319 997 
Q 319 1513 691 1797 
Q 1063 2081 1741 2081 
L 2547 2081 
L 2547 2309 
Q 2547 2688 2317 2895 
Q 2088 3103 1672 3103 
Q 1328 3103 1125 2947 
Q 922 2791 872 2484 
L 575 2484 
L 575 3156 
Q 875 3284 1158 3348 
Q 1441 3413 1709 3413 
Q 2400 3413 2761 3070 
Q 3122 2728 3122 2075 
z
" transform="scale(0.015625)"/>
      <path id="Cmsy10-a1" d="M 653 1472 
Q 600 1472 565 1512 
Q 531 1553 531 1600 
Q 531 1647 565 1687 
Q 600 1728 653 1728 
L 4325 1728 
Q 4375 1728 4408 1687 
Q 4441 1647 4441 1600 
Q 4441 1553 4408 1512 
Q 4375 1472 4325 1472 
L 653 1472 
z
" transform="scale(0.015625)"/>
      <path id="Cmr10-33" d="M 609 494 
Q 759 275 1012 169 
Q 1266 63 1556 63 
Q 1928 63 2084 380 
Q 2241 697 2241 1100 
Q 2241 1281 2208 1462 
Q 2175 1644 2097 1800 
Q 2019 1956 1883 2050 
Q 1747 2144 1550 2144 
L 1125 2144 
Q 1069 2144 1069 2203 
L 1069 2259 
Q 1069 2309 1125 2309 
L 1478 2338 
Q 1703 2338 1851 2506 
Q 2000 2675 2069 2917 
Q 2138 3159 2138 3378 
Q 2138 3684 1994 3881 
Q 1850 4078 1556 4078 
Q 1313 4078 1091 3986 
Q 869 3894 738 3706 
Q 750 3709 759 3711 
Q 769 3713 781 3713 
Q 925 3713 1022 3613 
Q 1119 3513 1119 3372 
Q 1119 3234 1022 3134 
Q 925 3034 781 3034 
Q 641 3034 541 3134 
Q 441 3234 441 3372 
Q 441 3647 606 3850 
Q 772 4053 1033 4158 
Q 1294 4263 1556 4263 
Q 1750 4263 1965 4205 
Q 2181 4147 2356 4039 
Q 2531 3931 2642 3762 
Q 2753 3594 2753 3378 
Q 2753 3109 2633 2881 
Q 2513 2653 2303 2487 
Q 2094 2322 1844 2241 
Q 2122 2188 2372 2031 
Q 2622 1875 2773 1631 
Q 2925 1388 2925 1106 
Q 2925 753 2731 467 
Q 2538 181 2222 20 
Q 1906 -141 1556 -141 
Q 1256 -141 954 -26 
Q 653 88 461 316 
Q 269 544 269 863 
Q 269 1022 375 1128 
Q 481 1234 641 1234 
Q 744 1234 830 1186 
Q 916 1138 964 1050 
Q 1013 963 1013 863 
Q 1013 706 903 600 
Q 794 494 641 494 
L 609 494 
z
" transform="scale(0.015625)"/>
      <path id="Cmsy10-a7" d="M 481 0 
Q 428 0 393 37 
Q 359 75 359 128 
Q 359 175 393 215 
Q 428 256 481 256 
L 2363 256 
L 2363 2003 
L 481 2003 
Q 428 2003 393 2043 
Q 359 2084 359 2131 
Q 359 2178 393 2218 
Q 428 2259 481 2259 
L 2363 2259 
L 2363 4147 
Q 2363 4197 2400 4230 
Q 2438 4263 2491 4263 
Q 2534 4263 2576 4230 
Q 2619 4197 2619 4147 
L 2619 2259 
L 4500 2259 
Q 4547 2259 4581 2218 
Q 4616 2178 4616 2131 
Q 4616 2084 4581 2043 
Q 4547 2003 4500 2003 
L 2619 2003 
L 2619 256 
L 4500 256 
Q 4547 256 4581 215 
Q 4616 175 4616 128 
Q 4616 75 4581 37 
Q 4547 0 4500 0 
L 481 0 
z
" transform="scale(0.015625)"/>
      <path id="Cmr10-32" d="M 319 0 
L 319 172 
Q 319 188 331 206 
L 1325 1306 
Q 1550 1550 1690 1715 
Q 1831 1881 1968 2097 
Q 2106 2313 2186 2536 
Q 2266 2759 2266 3009 
Q 2266 3272 2169 3511 
Q 2072 3750 1880 3894 
Q 1688 4038 1416 4038 
Q 1138 4038 916 3870 
Q 694 3703 603 3438 
Q 628 3444 672 3444 
Q 816 3444 917 3347 
Q 1019 3250 1019 3097 
Q 1019 2950 917 2848 
Q 816 2747 672 2747 
Q 522 2747 420 2851 
Q 319 2956 319 3097 
Q 319 3338 409 3548 
Q 500 3759 670 3923 
Q 841 4088 1055 4175 
Q 1269 4263 1509 4263 
Q 1875 4263 2190 4108 
Q 2506 3953 2690 3670 
Q 2875 3388 2875 3009 
Q 2875 2731 2753 2481 
Q 2631 2231 2440 2026 
Q 2250 1822 1953 1562 
Q 1656 1303 1563 1216 
L 838 519 
L 1453 519 
Q 1906 519 2211 526 
Q 2516 534 2534 550 
Q 2609 631 2688 1141 
L 2875 1141 
L 2694 0 
L 319 0 
z
" transform="scale(0.015625)"/>
      <path id="Cmmi10-6a" d="M -84 -909 
Q -84 -753 23 -639 
Q 131 -525 288 -525 
Q 391 -525 461 -589 
Q 531 -653 531 -756 
Q 531 -878 454 -976 
Q 378 -1075 263 -1106 
Q 375 -1147 488 -1147 
Q 759 -1147 959 -895 
Q 1159 -644 1241 -331 
L 1844 2075 
Q 1888 2259 1888 2388 
Q 1888 2663 1697 2663 
Q 1416 2663 1205 2408 
Q 994 2153 863 1819 
Q 850 1778 813 1778 
L 738 1778 
Q 684 1778 684 1838 
L 684 1856 
Q 828 2241 1093 2534 
Q 1359 2828 1709 2828 
Q 1975 2828 2145 2662 
Q 2316 2497 2316 2241 
Q 2316 2150 2297 2059 
L 1691 -372 
Q 1625 -631 1440 -847 
Q 1256 -1063 1000 -1188 
Q 744 -1313 475 -1313 
Q 259 -1313 87 -1209 
Q -84 -1106 -84 -909 
z
M 1941 3878 
Q 1941 4019 2050 4125 
Q 2159 4231 2297 4231 
Q 2406 4231 2476 4164 
Q 2547 4097 2547 3994 
Q 2547 3850 2433 3742 
Q 2319 3634 2181 3634 
Q 2078 3634 2009 3706 
Q 1941 3778 1941 3878 
z
" transform="scale(0.015625)"/>
      <path id="DejaVuSerif-29" d="M 453 -997 
L 453 -691 
Q 934 -359 1145 242 
Q 1356 844 1356 1931 
Q 1356 3022 1145 3623 
Q 934 4225 453 4556 
L 453 4863 
Q 1216 4522 1603 3783 
Q 1991 3044 1991 1931 
Q 1991 822 1603 83 
Q 1216 -656 453 -997 
z
" transform="scale(0.015625)"/>
     </defs>
     <use xlink:href="#DejaVuSerif-4f" transform="translate(0 0.015625)"/>
     <use xlink:href="#DejaVuSerif-75" transform="translate(81.982422 0.015625)"/>
     <use xlink:href="#DejaVuSerif-74" transform="translate(146.386719 0.015625)"/>
     <use xlink:href="#DejaVuSerif-70" transform="translate(186.572266 0.015625)"/>
     <use xlink:href="#DejaVuSerif-75" transform="translate(250.585938 0.015625)"/>
     <use xlink:href="#DejaVuSerif-74" transform="translate(314.990234 0.015625)"/>
     <use xlink:href="#DejaVuSerif-20" transform="translate(355.175781 0.015625)"/>
     <use xlink:href="#DejaVuSerif-72" transform="translate(386.962891 0.015625)"/>
     <use xlink:href="#DejaVuSerif-65" transform="translate(434.765625 0.015625)"/>
     <use xlink:href="#DejaVuSerif-73" transform="translate(493.945312 0.015625)"/>
     <use xlink:href="#DejaVuSerif-70" transform="translate(545.263672 0.015625)"/>
     <use xlink:href="#DejaVuSerif-6f" transform="translate(609.277344 0.015625)"/>
     <use xlink:href="#DejaVuSerif-6e" transform="translate(669.482422 0.015625)"/>
     <use xlink:href="#DejaVuSerif-73" transform="translate(733.886719 0.015625)"/>
     <use xlink:href="#DejaVuSerif-65" transform="translate(785.205078 0.015625)"/>
     <use xlink:href="#DejaVuSerif-20" transform="translate(844.384766 0.015625)"/>
     <use xlink:href="#DejaVuSerif-20" transform="translate(876.171875 0.015625)"/>
     <use xlink:href="#DejaVuSerif-28" transform="translate(907.958984 0.015625)"/>
     <use xlink:href="#DejaVuSerif-63" transform="translate(946.972656 0.015625)"/>
     <use xlink:href="#DejaVuSerif-6f" transform="translate(1002.978516 0.015625)"/>
     <use xlink:href="#DejaVuSerif-6e" transform="translate(1063.183594 0.015625)"/>
     <use xlink:href="#DejaVuSerif-74" transform="translate(1127.587891 0.015625)"/>
     <use xlink:href="#DejaVuSerif-72" transform="translate(1167.773438 0.015625)"/>
     <use xlink:href="#DejaVuSerif-6f" transform="translate(1215.576172 0.015625)"/>
     <use xlink:href="#DejaVuSerif-6c" transform="translate(1275.78125 0.015625)"/>
     <use xlink:href="#DejaVuSerif-6c" transform="translate(1307.763672 0.015625)"/>
     <use xlink:href="#DejaVuSerif-65" transform="translate(1339.746094 0.015625)"/>
     <use xlink:href="#DejaVuSerif-72" transform="translate(1398.925781 0.015625)"/>
     <use xlink:href="#DejaVuSerif-20" transform="translate(1446.728516 0.015625)"/>
     <use xlink:href="#DejaVuSerif-70" transform="translate(1478.515625 0.015625)"/>
     <use xlink:href="#DejaVuSerif-6f" transform="translate(1542.529297 0.015625)"/>
     <use xlink:href="#DejaVuSerif-6c" transform="translate(1602.734375 0.015625)"/>
     <use xlink:href="#DejaVuSerif-65" transform="translate(1634.716797 0.015625)"/>
     <use xlink:href="#DejaVuSerif-73" transform="translate(1693.896484 0.015625)"/>
     <use xlink:href="#DejaVuSerif-20" transform="translate(1745.214844 0.015625)"/>
     <use xlink:href="#DejaVuSerif-61" transform="translate(1777.001953 0.015625)"/>
     <use xlink:href="#DejaVuSerif-74" transform="translate(1836.621094 0.015625)"/>
     <use xlink:href="#DejaVuSerif-20" transform="translate(1876.806641 0.015625)"/>
     <use xlink:href="#Cmsy10-a1" transform="translate(1908.59375 0.015625)"/>
     <use xlink:href="#Cmr10-33" transform="translate(1986.279297 0.015625)"/>
     <use xlink:href="#Cmsy10-a7" transform="translate(2053.837891 0.015625)"/>
     <use xlink:href="#Cmr10-32" transform="translate(2149.082031 0.015625)"/>
     <use xlink:href="#Cmmi10-6a" transform="translate(2199.082031 0.015625)"/>
     <use xlink:href="#DejaVuSerif-29" transform="translate(2240.195312 0.015625)"/>
    </g>
   </g>
   <g id="legend_1">
    <g id="patch_5">
     <path d="M 499.767656 109.1925 
L 685.167656 109.1925 
Q 687.167656 109.1925 687.167656 107.1925 
L 687.167656 49.48 
Q 687.167656 47.48 685.167656 47.48 
L 499.767656 47.48 
Q 497.767656 47.48 497.767656 49.48 
L 497.767656 107.1925 
Q 497.767656 109.1925 499.767656 109.1925 
z
" style="fill: #ffffff; opacity: 0.95; stroke: #bfbfbf; stroke-linejoin: miter"/>
    </g>
    <g id="line2d_28">
     <path d="M 501.767656 55.578437 
L 511.767656 55.578437 
L 521.767656 55.578437 
" style="fill: none; stroke-dasharray: 9.25,4; stroke-dashoffset: 0; stroke: #0072bd; stroke-width: 2.5"/>
    </g>
    <g id="text_7">
     <!-- Ideal state feedback -->
     <g transform="translate(529.767656 59.078437) scale(0.1 -0.1)">
      <defs>
       <path id="DejaVuSerif-49" d="M 1581 331 
L 2175 331 
L 2175 0 
L 353 0 
L 353 331 
L 947 331 
L 947 4331 
L 353 4331 
L 353 4666 
L 2175 4666 
L 2175 4331 
L 1581 4331 
L 1581 331 
z
" transform="scale(0.015625)"/>
       <path id="DejaVuSerif-64" d="M 3359 331 
L 3909 331 
L 3909 0 
L 2784 0 
L 2784 519 
Q 2616 206 2355 57 
Q 2094 -91 1709 -91 
Q 1097 -91 708 395 
Q 319 881 319 1663 
Q 319 2444 706 2928 
Q 1094 3413 1709 3413 
Q 2094 3413 2355 3264 
Q 2616 3116 2784 2803 
L 2784 4531 
L 2241 4531 
L 2241 4863 
L 3359 4863 
L 3359 331 
z
M 2784 1497 
L 2784 1825 
Q 2784 2422 2554 2737 
Q 2325 3053 1888 3053 
Q 1444 3053 1217 2703 
Q 991 2353 991 1663 
Q 991 975 1217 622 
Q 1444 269 1888 269 
Q 2325 269 2554 583 
Q 2784 897 2784 1497 
z
" transform="scale(0.015625)"/>
       <path id="DejaVuSerif-66" d="M 2753 4078 
L 2450 4078 
Q 2447 4313 2317 4434 
Q 2188 4556 1941 4556 
Q 1619 4556 1487 4379 
Q 1356 4203 1356 3750 
L 1356 3322 
L 2284 3322 
L 2284 2988 
L 1356 2988 
L 1356 331 
L 2094 331 
L 2094 0 
L 231 0 
L 231 331 
L 781 331 
L 781 2988 
L 231 2988 
L 231 3322 
L 781 3322 
L 781 3738 
Q 781 4294 1070 4578 
Q 1359 4863 1919 4863 
Q 2128 4863 2337 4825 
Q 2547 4788 2753 4709 
L 2753 4078 
z
" transform="scale(0.015625)"/>
       <path id="DejaVuSerif-62" d="M 738 331 
L 738 4531 
L 184 4531 
L 184 4863 
L 1313 4863 
L 1313 2803 
Q 1481 3116 1742 3264 
Q 2003 3413 2388 3413 
Q 3000 3413 3387 2928 
Q 3775 2444 3775 1663 
Q 3775 881 3387 395 
Q 3000 -91 2388 -91 
Q 2003 -91 1742 57 
Q 1481 206 1313 519 
L 1313 0 
L 184 0 
L 184 331 
L 738 331 
z
M 1313 1497 
Q 1313 897 1542 583 
Q 1772 269 2209 269 
Q 2650 269 2876 622 
Q 3103 975 3103 1663 
Q 3103 2353 2876 2703 
Q 2650 3053 2209 3053 
Q 1772 3053 1542 2737 
Q 1313 2422 1313 1825 
L 1313 1497 
z
" transform="scale(0.015625)"/>
       <path id="DejaVuSerif-6b" d="M 1831 0 
L 219 0 
L 219 331 
L 738 331 
L 738 4531 
L 184 4531 
L 184 4863 
L 1313 4863 
L 1313 1697 
L 2713 2988 
L 2234 2988 
L 2234 3322 
L 3738 3322 
L 3738 2988 
L 3169 2988 
L 2181 2075 
L 3444 331 
L 3922 331 
L 3922 0 
L 2284 0 
L 2284 331 
L 2759 331 
L 1766 1697 
L 1313 1275 
L 1313 331 
L 1831 331 
L 1831 0 
z
" transform="scale(0.015625)"/>
      </defs>
      <use xlink:href="#DejaVuSerif-49"/>
      <use xlink:href="#DejaVuSerif-64" transform="translate(39.501953 0)"/>
      <use xlink:href="#DejaVuSerif-65" transform="translate(103.515625 0)"/>
      <use xlink:href="#DejaVuSerif-61" transform="translate(162.695312 0)"/>
      <use xlink:href="#DejaVuSerif-6c" transform="translate(222.314453 0)"/>
      <use xlink:href="#DejaVuSerif-20" transform="translate(254.296875 0)"/>
      <use xlink:href="#DejaVuSerif-73" transform="translate(286.083984 0)"/>
      <use xlink:href="#DejaVuSerif-74" transform="translate(337.402344 0)"/>
      <use xlink:href="#DejaVuSerif-61" transform="translate(377.587891 0)"/>
      <use xlink:href="#DejaVuSerif-74" transform="translate(437.207031 0)"/>
      <use xlink:href="#DejaVuSerif-65" transform="translate(477.392578 0)"/>
      <use xlink:href="#DejaVuSerif-20" transform="translate(536.572266 0)"/>
      <use xlink:href="#DejaVuSerif-66" transform="translate(568.359375 0)"/>
      <use xlink:href="#DejaVuSerif-65" transform="translate(605.371094 0)"/>
      <use xlink:href="#DejaVuSerif-65" transform="translate(664.550781 0)"/>
      <use xlink:href="#DejaVuSerif-64" transform="translate(723.730469 0)"/>
      <use xlink:href="#DejaVuSerif-62" transform="translate(787.744141 0)"/>
      <use xlink:href="#DejaVuSerif-61" transform="translate(851.757812 0)"/>
      <use xlink:href="#DejaVuSerif-63" transform="translate(911.376953 0)"/>
      <use xlink:href="#DejaVuSerif-6b" transform="translate(967.382812 0)"/>
     </g>
    </g>
    <g id="line2d_29">
     <path d="M 501.767656 70.256562 
L 511.767656 70.256562 
L 521.767656 70.256562 
" style="fill: none; stroke: #d95319; stroke-width: 2; stroke-linecap: square"/>
    </g>
    <g id="text_8">
     <!-- Observer: slow ($-1,\;-1.5$) -->
     <g transform="translate(529.767656 73.756562) scale(0.1 -0.1)">
      <defs>
       <path id="DejaVuSerif-76" d="M 1581 0 
L 359 2988 
L -19 2988 
L -19 3322 
L 1509 3322 
L 1509 2988 
L 978 2988 
L 1913 703 
L 2847 2988 
L 2350 2988 
L 2350 3322 
L 3597 3322 
L 3597 2988 
L 3225 2988 
L 2003 0 
L 1581 0 
z
" transform="scale(0.015625)"/>
       <path id="DejaVuSerif-3a" d="M 666 325 
Q 666 500 786 622 
Q 906 744 1081 744 
Q 1256 744 1376 622 
Q 1497 500 1497 325 
Q 1497 150 1378 29 
Q 1259 -91 1081 -91 
Q 903 -91 784 29 
Q 666 150 666 325 
z
M 666 2363 
Q 666 2538 786 2658 
Q 906 2778 1081 2778 
Q 1259 2778 1378 2659 
Q 1497 2541 1497 2363 
Q 1497 2184 1378 2065 
Q 1259 1947 1081 1947 
Q 906 1947 786 2067 
Q 666 2188 666 2363 
z
" transform="scale(0.015625)"/>
       <path id="DejaVuSerif-77" d="M 3072 3322 
L 3922 728 
L 4672 2988 
L 4191 2988 
L 4191 3322 
L 5394 3322 
L 5394 2988 
L 5025 2988 
L 4038 0 
L 3559 0 
L 2741 2484 
L 1919 0 
L 1459 0 
L 475 2988 
L 103 2988 
L 103 3322 
L 1606 3322 
L 1606 2988 
L 1069 2988 
L 1813 728 
L 2669 3322 
L 3072 3322 
z
" transform="scale(0.015625)"/>
       <path id="Cmr10-31" d="M 594 0 
L 594 225 
Q 1394 225 1394 428 
L 1394 3788 
Q 1063 3628 556 3628 
L 556 3853 
Q 1341 3853 1741 4263 
L 1831 4263 
Q 1853 4263 1873 4245 
Q 1894 4228 1894 4206 
L 1894 428 
Q 1894 225 2694 225 
L 2694 0 
L 594 0 
z
" transform="scale(0.015625)"/>
       <path id="Cmmi10-3b" d="M 634 -1153 
Q 634 -1125 659 -1100 
Q 891 -878 1019 -587 
Q 1147 -297 1147 25 
L 1147 103 
Q 1044 0 891 0 
Q 744 0 641 103 
Q 538 206 538 353 
Q 538 503 641 603 
Q 744 703 891 703 
Q 1119 703 1216 492 
Q 1313 281 1313 25 
Q 1313 -331 1170 -651 
Q 1028 -972 769 -1228 
Q 744 -1241 728 -1241 
Q 697 -1241 665 -1212 
Q 634 -1184 634 -1153 
z
" transform="scale(0.015625)"/>
       <path id="Cmmi10-3a" d="M 538 353 
Q 538 497 644 600 
Q 750 703 891 703 
Q 978 703 1062 656 
Q 1147 609 1194 525 
Q 1241 441 1241 353 
Q 1241 213 1137 106 
Q 1034 0 891 0 
Q 750 0 644 106 
Q 538 213 538 353 
z
" transform="scale(0.015625)"/>
       <path id="Cmr10-35" d="M 556 728 
Q 622 541 758 387 
Q 894 234 1080 148 
Q 1266 63 1466 63 
Q 1928 63 2103 422 
Q 2278 781 2278 1294 
Q 2278 1516 2270 1667 
Q 2263 1819 2228 1959 
Q 2169 2184 2020 2353 
Q 1872 2522 1656 2522 
Q 1441 2522 1286 2456 
Q 1131 2391 1034 2303 
Q 938 2216 863 2119 
Q 788 2022 769 2016 
L 697 2016 
Q 681 2016 657 2036 
Q 634 2056 634 2075 
L 634 4213 
Q 634 4228 654 4245 
Q 675 4263 697 4263 
L 716 4263 
Q 1147 4056 1631 4056 
Q 2106 4056 2547 4263 
L 2566 4263 
Q 2588 4263 2606 4247 
Q 2625 4231 2625 4213 
L 2625 4153 
Q 2625 4122 2613 4122 
Q 2394 3831 2064 3668 
Q 1734 3506 1381 3506 
Q 1125 3506 856 3578 
L 856 2369 
Q 1069 2541 1236 2614 
Q 1403 2688 1663 2688 
Q 2016 2688 2295 2484 
Q 2575 2281 2725 1954 
Q 2875 1628 2875 1288 
Q 2875 903 2686 575 
Q 2497 247 2172 53 
Q 1847 -141 1466 -141 
Q 1150 -141 886 21 
Q 622 184 470 459 
Q 319 734 319 1044 
Q 319 1188 412 1278 
Q 506 1369 647 1369 
Q 788 1369 883 1276 
Q 978 1184 978 1044 
Q 978 906 883 811 
Q 788 716 647 716 
Q 625 716 597 720 
Q 569 725 556 728 
z
" transform="scale(0.015625)"/>
      </defs>
      <use xlink:href="#DejaVuSerif-4f" transform="translate(0 0.015625)"/>
      <use xlink:href="#DejaVuSerif-62" transform="translate(81.982422 0.015625)"/>
      <use xlink:href="#DejaVuSerif-73" transform="translate(145.996094 0.015625)"/>
      <use xlink:href="#DejaVuSerif-65" transform="translate(197.314453 0.015625)"/>
      <use xlink:href="#DejaVuSerif-72" transform="translate(256.494141 0.015625)"/>
      <use xlink:href="#DejaVuSerif-76" transform="translate(304.296875 0.015625)"/>
      <use xlink:href="#DejaVuSerif-65" transform="translate(360.791016 0.015625)"/>
      <use xlink:href="#DejaVuSerif-72" transform="translate(419.970703 0.015625)"/>
      <use xlink:href="#DejaVuSerif-3a" transform="translate(467.773438 0.015625)"/>
      <use xlink:href="#DejaVuSerif-20" transform="translate(501.464844 0.015625)"/>
      <use xlink:href="#DejaVuSerif-73" transform="translate(533.251953 0.015625)"/>
      <use xlink:href="#DejaVuSerif-6c" transform="translate(584.570312 0.015625)"/>
      <use xlink:href="#DejaVuSerif-6f" transform="translate(616.552734 0.015625)"/>
      <use xlink:href="#DejaVuSerif-77" transform="translate(676.757812 0.015625)"/>
      <use xlink:href="#DejaVuSerif-20" transform="translate(762.353516 0.015625)"/>
      <use xlink:href="#DejaVuSerif-28" transform="translate(794.140625 0.015625)"/>
      <use xlink:href="#Cmsy10-a1" transform="translate(833.154297 0.015625)"/>
      <use xlink:href="#Cmr10-31" transform="translate(910.839844 0.015625)"/>
      <use xlink:href="#Cmmi10-3b" transform="translate(960.839844 0.015625)"/>
      <use xlink:href="#Cmsy10-a1" transform="translate(1048.029709 0.015625)"/>
      <use xlink:href="#Cmr10-31" transform="translate(1143.27385 0.015625)"/>
      <use xlink:href="#Cmmi10-3a" transform="translate(1193.27385 0.015625)"/>
      <use xlink:href="#Cmr10-35" transform="translate(1220.959396 0.015625)"/>
      <use xlink:href="#DejaVuSerif-29" transform="translate(1270.959396 0.015625)"/>
     </g>
    </g>
    <g id="line2d_30">
     <path d="M 501.767656 84.934687 
L 511.767656 84.934687 
L 521.767656 84.934687 
" style="fill: none; stroke: #edb120; stroke-width: 2; stroke-linecap: square"/>
    </g>
    <g id="text_9">
     <!-- Observer: borderline ($-3,\;-4$) -->
     <g transform="translate(529.767656 88.434687) scale(0.1 -0.1)">
      <defs>
       <path id="DejaVuSerif-69" d="M 622 4353 
Q 622 4497 726 4603 
Q 831 4709 978 4709 
Q 1122 4709 1226 4603 
Q 1331 4497 1331 4353 
Q 1331 4206 1228 4103 
Q 1125 4000 978 4000 
Q 831 4000 726 4103 
Q 622 4206 622 4353 
z
M 1356 331 
L 1900 331 
L 1900 0 
L 231 0 
L 231 331 
L 781 331 
L 781 2988 
L 231 2988 
L 231 3322 
L 1356 3322 
L 1356 331 
z
" transform="scale(0.015625)"/>
       <path id="Cmr10-34" d="M 178 1056 
L 178 1281 
L 2156 4231 
Q 2178 4263 2222 4263 
L 2316 4263 
Q 2388 4263 2388 4191 
L 2388 1281 
L 3016 1281 
L 3016 1056 
L 2388 1056 
L 2388 428 
Q 2388 297 2575 261 
Q 2763 225 3009 225 
L 3009 0 
L 1247 0 
L 1247 225 
Q 1494 225 1681 261 
Q 1869 297 1869 428 
L 1869 1056 
L 178 1056 
z
M 391 1281 
L 1906 1281 
L 1906 3547 
L 391 1281 
z
" transform="scale(0.015625)"/>
      </defs>
      <use xlink:href="#DejaVuSerif-4f" transform="translate(0 0.015625)"/>
      <use xlink:href="#DejaVuSerif-62" transform="translate(81.982422 0.015625)"/>
      <use xlink:href="#DejaVuSerif-73" transform="translate(145.996094 0.015625)"/>
      <use xlink:href="#DejaVuSerif-65" transform="translate(197.314453 0.015625)"/>
      <use xlink:href="#DejaVuSerif-72" transform="translate(256.494141 0.015625)"/>
      <use xlink:href="#DejaVuSerif-76" transform="translate(304.296875 0.015625)"/>
      <use xlink:href="#DejaVuSerif-65" transform="translate(360.791016 0.015625)"/>
      <use xlink:href="#DejaVuSerif-72" transform="translate(419.970703 0.015625)"/>
      <use xlink:href="#DejaVuSerif-3a" transform="translate(467.773438 0.015625)"/>
      <use xlink:href="#DejaVuSerif-20" transform="translate(501.464844 0.015625)"/>
      <use xlink:href="#DejaVuSerif-62" transform="translate(533.251953 0.015625)"/>
      <use xlink:href="#DejaVuSerif-6f" transform="translate(597.265625 0.015625)"/>
      <use xlink:href="#DejaVuSerif-72" transform="translate(657.470703 0.015625)"/>
      <use xlink:href="#DejaVuSerif-64" transform="translate(705.273438 0.015625)"/>
      <use xlink:href="#DejaVuSerif-65" transform="translate(769.287109 0.015625)"/>
      <use xlink:href="#DejaVuSerif-72" transform="translate(828.466797 0.015625)"/>
      <use xlink:href="#DejaVuSerif-6c" transform="translate(876.269531 0.015625)"/>
      <use xlink:href="#DejaVuSerif-69" transform="translate(908.251953 0.015625)"/>
      <use xlink:href="#DejaVuSerif-6e" transform="translate(940.234375 0.015625)"/>
      <use xlink:href="#DejaVuSerif-65" transform="translate(1004.638672 0.015625)"/>
      <use xlink:href="#DejaVuSerif-20" transform="translate(1063.818359 0.015625)"/>
      <use xlink:href="#DejaVuSerif-28" transform="translate(1095.605469 0.015625)"/>
      <use xlink:href="#Cmsy10-a1" transform="translate(1134.619141 0.015625)"/>
      <use xlink:href="#Cmr10-33" transform="translate(1212.304688 0.015625)"/>
      <use xlink:href="#Cmmi10-3b" transform="translate(1262.304688 0.015625)"/>
      <use xlink:href="#Cmsy10-a1" transform="translate(1349.494553 0.015625)"/>
      <use xlink:href="#Cmr10-34" transform="translate(1444.738693 0.015625)"/>
      <use xlink:href="#DejaVuSerif-29" transform="translate(1494.738693 0.015625)"/>
     </g>
    </g>
    <g id="line2d_31">
     <path d="M 501.767656 99.612812 
L 511.767656 99.612812 
L 521.767656 99.612812 
" style="fill: none; stroke: #77ac30; stroke-width: 2; stroke-linecap: square"/>
    </g>
    <g id="text_10">
     <!-- Observer: fast ($-15,\;-20$) -->
     <g transform="translate(529.767656 103.112812) scale(0.1 -0.1)">
      <defs>
       <path id="Cmr10-30" d="M 1600 -141 
Q 816 -141 533 504 
Q 250 1150 250 2041 
Q 250 2597 351 3087 
Q 453 3578 754 3920 
Q 1056 4263 1600 4263 
Q 2022 4263 2290 4056 
Q 2559 3850 2700 3523 
Q 2841 3197 2892 2823 
Q 2944 2450 2944 2041 
Q 2944 1491 2842 1011 
Q 2741 531 2444 195 
Q 2147 -141 1600 -141 
z
M 1600 25 
Q 1956 25 2131 390 
Q 2306 756 2347 1200 
Q 2388 1644 2388 2144 
Q 2388 2625 2347 3031 
Q 2306 3438 2132 3767 
Q 1959 4097 1600 4097 
Q 1238 4097 1063 3765 
Q 888 3434 847 3029 
Q 806 2625 806 2144 
Q 806 1788 823 1472 
Q 841 1156 916 820 
Q 991 484 1158 254 
Q 1325 25 1600 25 
z
" transform="scale(0.015625)"/>
      </defs>
      <use xlink:href="#DejaVuSerif-4f" transform="translate(0 0.015625)"/>
      <use xlink:href="#DejaVuSerif-62" transform="translate(81.982422 0.015625)"/>
      <use xlink:href="#DejaVuSerif-73" transform="translate(145.996094 0.015625)"/>
      <use xlink:href="#DejaVuSerif-65" transform="translate(197.314453 0.015625)"/>
      <use xlink:href="#DejaVuSerif-72" transform="translate(256.494141 0.015625)"/>
      <use xlink:href="#DejaVuSerif-76" transform="translate(304.296875 0.015625)"/>
      <use xlink:href="#DejaVuSerif-65" transform="translate(360.791016 0.015625)"/>
      <use xlink:href="#DejaVuSerif-72" transform="translate(419.970703 0.015625)"/>
      <use xlink:href="#DejaVuSerif-3a" transform="translate(467.773438 0.015625)"/>
      <use xlink:href="#DejaVuSerif-20" transform="translate(501.464844 0.015625)"/>
      <use xlink:href="#DejaVuSerif-66" transform="translate(533.251953 0.015625)"/>
      <use xlink:href="#DejaVuSerif-61" transform="translate(570.263672 0.015625)"/>
      <use xlink:href="#DejaVuSerif-73" transform="translate(629.882812 0.015625)"/>
      <use xlink:href="#DejaVuSerif-74" transform="translate(681.201172 0.015625)"/>
      <use xlink:href="#DejaVuSerif-20" transform="translate(721.386719 0.015625)"/>
      <use xlink:href="#DejaVuSerif-28" transform="translate(753.173828 0.015625)"/>
      <use xlink:href="#Cmsy10-a1" transform="translate(792.1875 0.015625)"/>
      <use xlink:href="#Cmr10-31" transform="translate(869.873047 0.015625)"/>
      <use xlink:href="#Cmr10-35" transform="translate(919.873047 0.015625)"/>
      <use xlink:href="#Cmmi10-3b" transform="translate(969.873047 0.015625)"/>
      <use xlink:href="#Cmsy10-a1" transform="translate(1057.062912 0.015625)"/>
      <use xlink:href="#Cmr10-32" transform="translate(1152.307053 0.015625)"/>
      <use xlink:href="#Cmr10-30" transform="translate(1202.307053 0.015625)"/>
      <use xlink:href="#DejaVuSerif-29" transform="translate(1252.307053 0.015625)"/>
     </g>
    </g>
   </g>
  </g>
  <g id="axes_2">
   <g id="patch_6">
    <path d="M 65.767656 455.76 
L 692.167656 455.76 
L 692.167656 263.536744 
L 65.767656 263.536744 
z
" style="fill: #ffffff"/>
   </g>
   <g id="matplotlib.axis_3">
    <g id="xtick_8">
     <g id="line2d_32">
      <path d="M 65.767656 455.76 
L 65.767656 263.536744 
" clip-path="url(#p11a1be8707)" style="fill: none; stroke: #b0b0b0; stroke-opacity: 0.15; stroke-width: 0.8; stroke-linecap: square"/>
     </g>
     <g id="line2d_33">
      <g>
       <use xlink:href="#m8e317a41f4" x="65.767656" y="455.76" style="stroke: #000000; stroke-width: 0.8"/>
      </g>
     </g>
     <g id="text_11">
      <!-- 0 -->
      <g transform="translate(61.632031 472.637969) scale(0.13 -0.13)">
       <use xlink:href="#DejaVuSerif-30"/>
      </g>
     </g>
    </g>
    <g id="xtick_9">
     <g id="line2d_34">
      <path d="M 170.167656 455.76 
L 170.167656 263.536744 
" clip-path="url(#p11a1be8707)" style="fill: none; stroke: #b0b0b0; stroke-opacity: 0.15; stroke-width: 0.8; stroke-linecap: square"/>
     </g>
     <g id="line2d_35">
      <g>
       <use xlink:href="#m8e317a41f4" x="170.167656" y="455.76" style="stroke: #000000; stroke-width: 0.8"/>
      </g>
     </g>
     <g id="text_12">
      <!-- 1 -->
      <g transform="translate(166.032031 472.637969) scale(0.13 -0.13)">
       <use xlink:href="#DejaVuSerif-31"/>
      </g>
     </g>
    </g>
    <g id="xtick_10">
     <g id="line2d_36">
      <path d="M 274.567656 455.76 
L 274.567656 263.536744 
" clip-path="url(#p11a1be8707)" style="fill: none; stroke: #b0b0b0; stroke-opacity: 0.15; stroke-width: 0.8; stroke-linecap: square"/>
     </g>
     <g id="line2d_37">
      <g>
       <use xlink:href="#m8e317a41f4" x="274.567656" y="455.76" style="stroke: #000000; stroke-width: 0.8"/>
      </g>
     </g>
     <g id="text_13">
      <!-- 2 -->
      <g transform="translate(270.432031 472.637969) scale(0.13 -0.13)">
       <defs>
        <path id="DejaVuSerif-32" d="M 819 3553 
L 469 3553 
L 469 4384 
Q 803 4563 1142 4656 
Q 1481 4750 1806 4750 
Q 2534 4750 2956 4397 
Q 3378 4044 3378 3438 
Q 3378 2753 2422 1800 
Q 2347 1728 2309 1691 
L 1131 513 
L 3078 513 
L 3078 1088 
L 3444 1088 
L 3444 0 
L 434 0 
L 434 341 
L 1850 1753 
Q 2319 2222 2519 2614 
Q 2719 3006 2719 3438 
Q 2719 3909 2473 4175 
Q 2228 4441 1797 4441 
Q 1350 4441 1106 4219 
Q 863 3997 819 3553 
z
" transform="scale(0.015625)"/>
       </defs>
       <use xlink:href="#DejaVuSerif-32"/>
      </g>
     </g>
    </g>
    <g id="xtick_11">
     <g id="line2d_38">
      <path d="M 378.967656 455.76 
L 378.967656 263.536744 
" clip-path="url(#p11a1be8707)" style="fill: none; stroke: #b0b0b0; stroke-opacity: 0.15; stroke-width: 0.8; stroke-linecap: square"/>
     </g>
     <g id="line2d_39">
      <g>
       <use xlink:href="#m8e317a41f4" x="378.967656" y="455.76" style="stroke: #000000; stroke-width: 0.8"/>
      </g>
     </g>
     <g id="text_14">
      <!-- 3 -->
      <g transform="translate(374.832031 472.637969) scale(0.13 -0.13)">
       <defs>
        <path id="DejaVuSerif-33" d="M 622 4469 
Q 988 4606 1323 4678 
Q 1659 4750 1953 4750 
Q 2638 4750 3022 4454 
Q 3406 4159 3406 3634 
Q 3406 3213 3140 2930 
Q 2875 2647 2388 2547 
Q 2963 2466 3280 2130 
Q 3597 1794 3597 1259 
Q 3597 606 3158 257 
Q 2719 -91 1894 -91 
Q 1528 -91 1179 -12 
Q 831 66 488 225 
L 488 1131 
L 838 1131 
Q 869 681 1141 450 
Q 1413 219 1906 219 
Q 2384 219 2661 495 
Q 2938 772 2938 1253 
Q 2938 1803 2653 2086 
Q 2369 2369 1819 2369 
L 1522 2369 
L 1522 2688 
L 1678 2688 
Q 2225 2688 2498 2914 
Q 2772 3141 2772 3597 
Q 2772 4006 2547 4223 
Q 2322 4441 1900 4441 
Q 1478 4441 1245 4241 
Q 1013 4041 972 3647 
L 622 3647 
L 622 4469 
z
" transform="scale(0.015625)"/>
       </defs>
       <use xlink:href="#DejaVuSerif-33"/>
      </g>
     </g>
    </g>
    <g id="xtick_12">
     <g id="line2d_40">
      <path d="M 483.367656 455.76 
L 483.367656 263.536744 
" clip-path="url(#p11a1be8707)" style="fill: none; stroke: #b0b0b0; stroke-opacity: 0.15; stroke-width: 0.8; stroke-linecap: square"/>
     </g>
     <g id="line2d_41">
      <g>
       <use xlink:href="#m8e317a41f4" x="483.367656" y="455.76" style="stroke: #000000; stroke-width: 0.8"/>
      </g>
     </g>
     <g id="text_15">
      <!-- 4 -->
      <g transform="translate(479.232031 472.637969) scale(0.13 -0.13)">
       <defs>
        <path id="DejaVuSerif-34" d="M 2234 1581 
L 2234 4063 
L 641 1581 
L 2234 1581 
z
M 3609 0 
L 1484 0 
L 1484 331 
L 2234 331 
L 2234 1247 
L 197 1247 
L 197 1588 
L 2241 4750 
L 2859 4750 
L 2859 1581 
L 3750 1581 
L 3750 1247 
L 2859 1247 
L 2859 331 
L 3609 331 
L 3609 0 
z
" transform="scale(0.015625)"/>
       </defs>
       <use xlink:href="#DejaVuSerif-34"/>
      </g>
     </g>
    </g>
    <g id="xtick_13">
     <g id="line2d_42">
      <path d="M 587.767656 455.76 
L 587.767656 263.536744 
" clip-path="url(#p11a1be8707)" style="fill: none; stroke: #b0b0b0; stroke-opacity: 0.15; stroke-width: 0.8; stroke-linecap: square"/>
     </g>
     <g id="line2d_43">
      <g>
       <use xlink:href="#m8e317a41f4" x="587.767656" y="455.76" style="stroke: #000000; stroke-width: 0.8"/>
      </g>
     </g>
     <g id="text_16">
      <!-- 5 -->
      <g transform="translate(583.632031 472.637969) scale(0.13 -0.13)">
       <use xlink:href="#DejaVuSerif-35"/>
      </g>
     </g>
    </g>
    <g id="xtick_14">
     <g id="line2d_44">
      <path d="M 692.167656 455.76 
L 692.167656 263.536744 
" clip-path="url(#p11a1be8707)" style="fill: none; stroke: #b0b0b0; stroke-opacity: 0.15; stroke-width: 0.8; stroke-linecap: square"/>
     </g>
     <g id="line2d_45">
      <g>
       <use xlink:href="#m8e317a41f4" x="692.167656" y="455.76" style="stroke: #000000; stroke-width: 0.8"/>
      </g>
     </g>
     <g id="text_17">
      <!-- 6 -->
      <g transform="translate(688.032031 472.637969) scale(0.13 -0.13)">
       <defs>
        <path id="DejaVuSerif-36" d="M 2094 219 
Q 2534 219 2771 542 
Q 3009 866 3009 1472 
Q 3009 2078 2771 2401 
Q 2534 2725 2094 2725 
Q 1647 2725 1412 2412 
Q 1178 2100 1178 1509 
Q 1178 888 1415 553 
Q 1653 219 2094 219 
z
M 1075 2569 
Q 1288 2803 1556 2918 
Q 1825 3034 2163 3034 
Q 2859 3034 3264 2615 
Q 3669 2197 3669 1472 
Q 3669 763 3233 336 
Q 2797 -91 2069 -91 
Q 1278 -91 853 498 
Q 428 1088 428 2181 
Q 428 3406 931 4078 
Q 1434 4750 2350 4750 
Q 2597 4750 2869 4703 
Q 3141 4656 3425 4563 
L 3425 3794 
L 3072 3794 
Q 3034 4109 2831 4275 
Q 2628 4441 2284 4441 
Q 1678 4441 1381 3981 
Q 1084 3522 1075 2569 
z
" transform="scale(0.015625)"/>
       </defs>
       <use xlink:href="#DejaVuSerif-36"/>
      </g>
     </g>
    </g>
    <g id="text_18">
     <!-- Time $t$ -->
     <g transform="translate(353.287656 491.499062) scale(0.16 -0.16)">
      <defs>
       <path id="DejaVuSerif-54" d="M 1222 0 
L 1222 331 
L 1819 331 
L 1819 4294 
L 447 4294 
L 447 3566 
L 63 3566 
L 63 4666 
L 4206 4666 
L 4206 3566 
L 3822 3566 
L 3822 4294 
L 2450 4294 
L 2450 331 
L 3047 331 
L 3047 0 
L 1222 0 
z
" transform="scale(0.015625)"/>
       <path id="DejaVuSerif-6d" d="M 3316 2675 
Q 3481 3041 3739 3227 
Q 3997 3413 4341 3413 
Q 4863 3413 5119 3089 
Q 5375 2766 5375 2113 
L 5375 331 
L 5894 331 
L 5894 0 
L 4300 0 
L 4300 331 
L 4800 331 
L 4800 2047 
Q 4800 2556 4650 2772 
Q 4500 2988 4153 2988 
Q 3769 2988 3567 2697 
Q 3366 2406 3366 1850 
L 3366 331 
L 3866 331 
L 3866 0 
L 2291 0 
L 2291 331 
L 2791 331 
L 2791 2069 
Q 2791 2566 2641 2777 
Q 2491 2988 2144 2988 
Q 1759 2988 1557 2697 
Q 1356 2406 1356 1850 
L 1356 331 
L 1856 331 
L 1856 0 
L 263 0 
L 263 331 
L 781 331 
L 781 2994 
L 231 2994 
L 231 3322 
L 1356 3322 
L 1356 2731 
Q 1516 3063 1762 3238 
Q 2009 3413 2322 3413 
Q 2709 3413 2968 3220 
Q 3228 3028 3316 2675 
z
" transform="scale(0.015625)"/>
      </defs>
      <use xlink:href="#DejaVuSerif-54" transform="translate(0 0.421875)"/>
      <use xlink:href="#DejaVuSerif-69" transform="translate(66.699219 0.421875)"/>
      <use xlink:href="#DejaVuSerif-6d" transform="translate(98.681641 0.421875)"/>
      <use xlink:href="#DejaVuSerif-65" transform="translate(193.505859 0.421875)"/>
      <use xlink:href="#DejaVuSerif-20" transform="translate(252.685547 0.421875)"/>
      <use xlink:href="#Cmmi10-74" transform="translate(284.472656 0.421875)"/>
     </g>
    </g>
   </g>
   <g id="matplotlib.axis_4">
    <g id="ytick_5">
     <g id="line2d_46">
      <path d="M 65.767656 447.402467 
L 692.167656 447.402467 
" clip-path="url(#p11a1be8707)" style="fill: none; stroke: #b0b0b0; stroke-opacity: 0.15; stroke-width: 0.8; stroke-linecap: square"/>
     </g>
     <g id="line2d_47">
      <g>
       <use xlink:href="#m3e9b850b7b" x="65.767656" y="447.402467" style="stroke: #000000; stroke-width: 0.8"/>
      </g>
     </g>
     <g id="text_19">
      <!-- 0 -->
      <g transform="translate(50.496406 452.341452) scale(0.13 -0.13)">
       <use xlink:href="#DejaVuSerif-30"/>
      </g>
     </g>
    </g>
    <g id="ytick_6">
     <g id="line2d_48">
      <path d="M 65.767656 397.523736 
L 692.167656 397.523736 
" clip-path="url(#p11a1be8707)" style="fill: none; stroke: #b0b0b0; stroke-opacity: 0.15; stroke-width: 0.8; stroke-linecap: square"/>
     </g>
     <g id="line2d_49">
      <g>
       <use xlink:href="#m3e9b850b7b" x="65.767656" y="397.523736" style="stroke: #000000; stroke-width: 0.8"/>
      </g>
     </g>
     <g id="text_20">
      <!-- 2 -->
      <g transform="translate(50.496406 402.462721) scale(0.13 -0.13)">
       <use xlink:href="#DejaVuSerif-32"/>
      </g>
     </g>
    </g>
    <g id="ytick_7">
     <g id="line2d_50">
      <path d="M 65.767656 347.645006 
L 692.167656 347.645006 
" clip-path="url(#p11a1be8707)" style="fill: none; stroke: #b0b0b0; stroke-opacity: 0.15; stroke-width: 0.8; stroke-linecap: square"/>
     </g>
     <g id="line2d_51">
      <g>
       <use xlink:href="#m3e9b850b7b" x="65.767656" y="347.645006" style="stroke: #000000; stroke-width: 0.8"/>
      </g>
     </g>
     <g id="text_21">
      <!-- 4 -->
      <g transform="translate(50.496406 352.58399) scale(0.13 -0.13)">
       <use xlink:href="#DejaVuSerif-34"/>
      </g>
     </g>
    </g>
    <g id="ytick_8">
     <g id="line2d_52">
      <path d="M 65.767656 297.766275 
L 692.167656 297.766275 
" clip-path="url(#p11a1be8707)" style="fill: none; stroke: #b0b0b0; stroke-opacity: 0.15; stroke-width: 0.8; stroke-linecap: square"/>
     </g>
     <g id="line2d_53">
      <g>
       <use xlink:href="#m3e9b850b7b" x="65.767656" y="297.766275" style="stroke: #000000; stroke-width: 0.8"/>
      </g>
     </g>
     <g id="text_22">
      <!-- 6 -->
      <g transform="translate(50.496406 302.705259) scale(0.13 -0.13)">
       <use xlink:href="#DejaVuSerif-36"/>
      </g>
     </g>
    </g>
    <g id="text_23">
     <!-- $\|e(t)\| = \|x(t) - \hat{x}(t)\|$ -->
     <g transform="translate(42.496406 433.888372) rotate(-90) scale(0.16 -0.16)">
      <defs>
       <path id="Cmsy10-6b" d="M 850 -1484 
L 850 4684 
Q 850 4734 890 4767 
Q 931 4800 978 4800 
Q 1031 4800 1068 4767 
Q 1106 4734 1106 4684 
L 1106 -1484 
Q 1106 -1534 1068 -1567 
Q 1031 -1600 978 -1600 
Q 931 -1600 890 -1567 
Q 850 -1534 850 -1484 
z
M 2094 -1484 
L 2094 4684 
Q 2094 4734 2131 4767 
Q 2169 4800 2222 4800 
Q 2269 4800 2309 4767 
Q 2350 4734 2350 4684 
L 2350 -1484 
Q 2350 -1534 2309 -1567 
Q 2269 -1600 2222 -1600 
Q 2169 -1600 2131 -1567 
Q 2094 -1534 2094 -1484 
z
" transform="scale(0.015625)"/>
       <path id="Cmmi10-65" d="M 1288 -72 
Q 981 -72 751 87 
Q 522 247 401 517 
Q 281 788 281 1088 
Q 281 1544 511 1945 
Q 741 2347 1134 2587 
Q 1528 2828 1978 2828 
Q 2253 2828 2458 2686 
Q 2663 2544 2663 2278 
Q 2663 1909 2369 1729 
Q 2075 1550 1706 1508 
Q 1338 1466 891 1466 
L 872 1466 
Q 769 1084 769 813 
Q 769 528 900 312 
Q 1031 97 1300 97 
Q 1681 97 2032 272 
Q 2384 447 2606 756 
Q 2625 775 2656 775 
Q 2688 775 2720 739 
Q 2753 703 2753 672 
Q 2753 647 2741 634 
Q 2506 306 2109 117 
Q 1713 -72 1288 -72 
z
M 909 1631 
Q 1281 1631 1597 1665 
Q 1913 1700 2169 1839 
Q 2425 1978 2425 2272 
Q 2425 2391 2359 2480 
Q 2294 2569 2189 2616 
Q 2084 2663 1972 2663 
Q 1700 2663 1483 2516 
Q 1266 2369 1125 2133 
Q 984 1897 909 1631 
z
" transform="scale(0.015625)"/>
       <path id="Cmr10-5e" d="M 863 3444 
L 738 3578 
L 1600 4441 
L 2456 3578 
L 2328 3444 
L 1600 4084 
L 863 3444 
z
" transform="scale(0.015625)"/>
      </defs>
      <use xlink:href="#Cmsy10-6b"/>
      <use xlink:href="#Cmmi10-65" transform="translate(50 0)"/>
      <use xlink:href="#Cmr10-28" transform="translate(96.484375 0)"/>
      <use xlink:href="#Cmmi10-74" transform="translate(135.302734 0)"/>
      <use xlink:href="#Cmr10-29" transform="translate(171.386719 0)"/>
      <use xlink:href="#Cmsy10-6b" transform="translate(210.205078 0)"/>
      <use xlink:href="#Cmr10-3d" transform="translate(277.763672 0)"/>
      <use xlink:href="#Cmsy10-6b" transform="translate(373.007812 0)"/>
      <use xlink:href="#Cmmi10-78" transform="translate(423.007812 0)"/>
      <use xlink:href="#Cmr10-28" transform="translate(480.087891 0)"/>
      <use xlink:href="#Cmmi10-74" transform="translate(518.90625 0)"/>
      <use xlink:href="#Cmr10-29" transform="translate(554.990234 0)"/>
      <use xlink:href="#Cmsy10-a1" transform="translate(611.367188 0)"/>
      <use xlink:href="#Cmr10-5e" transform="translate(717.350098 2.875)"/>
      <use xlink:href="#Cmmi10-78" transform="translate(706.611328 0)"/>
      <use xlink:href="#Cmr10-28" transform="translate(763.691406 0)"/>
      <use xlink:href="#Cmmi10-74" transform="translate(802.509766 0)"/>
      <use xlink:href="#Cmr10-29" transform="translate(838.59375 0)"/>
      <use xlink:href="#Cmsy10-6b" transform="translate(877.412109 0)"/>
     </g>
    </g>
   </g>
   <g id="line2d_54">
    <path d="M 65.767656 422.463102 
L 68.587866 424.3475 
L 71.408076 425.958161 
L 74.228287 427.296422 
L 77.048497 428.367431 
L 79.868707 429.181695 
L 82.688917 429.755995 
L 85.509127 430.113262 
L 88.642694 430.289597 
L 92.089617 430.263865 
L 96.163254 430.010687 
L 101.490318 429.445018 
L 111.517731 428.099564 
L 122.171858 426.75127 
L 130.319132 425.942636 
L 138.153049 425.383362 
L 146.300323 425.026701 
L 154.760953 424.880484 
L 163.848297 424.947345 
L 173.87571 425.248101 
L 185.156551 425.815101 
L 198.317531 426.706548 
L 214.925435 428.068423 
L 240.307326 430.404486 
L 286.057401 434.618508 
L 311.125935 436.684356 
L 334.941043 438.42354 
L 358.75615 439.937028 
L 383.197971 441.265015 
L 408.893219 442.436014 
L 436.468607 443.466868 
L 466.550848 444.365153 
L 500.080012 445.139053 
L 538.309527 445.792804 
L 583.119532 446.329333 
L 637.643594 446.751544 
L 692.167656 447.009788 
L 692.167656 447.009788 
" clip-path="url(#p11a1be8707)" style="fill: none; stroke: #d95319; stroke-width: 2; stroke-linecap: square"/>
   </g>
   <g id="line2d_55">
    <path d="M 65.767656 422.463102 
L 66.707726 423.856231 
L 67.33444 424.466653 
L 67.961153 424.834771 
L 68.587866 424.978283 
L 69.21458 424.92005 
L 69.841293 424.686298 
L 70.781363 424.066824 
L 72.03479 422.876482 
L 73.91493 420.659786 
L 78.61528 414.894664 
L 80.808777 412.598442 
L 82.688917 410.915458 
L 84.569057 409.50231 
L 86.449197 408.351549 
L 88.329337 407.448947 
L 90.209477 406.776911 
L 92.089617 406.316437 
L 94.283114 406.020947 
L 96.476611 405.957429 
L 98.983464 406.132724 
L 101.490318 406.535116 
L 104.310528 407.215254 
L 107.444094 408.200951 
L 111.204375 409.630723 
L 115.591368 411.541553 
L 121.858502 414.53933 
L 141.286616 424.01033 
L 148.180463 427.035893 
L 154.447596 429.551894 
L 160.71473 431.832332 
L 166.981863 433.877915 
L 173.248997 435.69733 
L 179.829487 437.379265 
L 186.723334 438.91077 
L 193.930538 440.284902 
L 201.764455 441.546464 
L 210.225085 442.674662 
L 219.312429 443.658 
L 229.339842 444.517492 
L 240.620683 445.258991 
L 253.781663 445.893249 
L 269.13614 446.404993 
L 288.250898 446.810293 
L 313.319432 447.105921 
L 349.982164 447.295861 
L 417.667206 447.386706 
L 692.167656 447.402461 
L 692.167656 447.402461 
" clip-path="url(#p11a1be8707)" style="fill: none; stroke: #edb120; stroke-width: 2; stroke-linecap: square"/>
   </g>
   <g id="line2d_56">
    <path d="M 65.767656 422.463102 
L 66.081013 415.615031 
L 67.647796 342.508583 
L 68.27451 321.981673 
L 68.901223 306.439084 
L 69.527936 295.157454 
L 70.15465 287.467175 
L 70.781363 282.775583 
L 71.09472 281.390249 
L 71.408076 280.566818 
L 71.721433 280.25181 
L 72.03479 280.395615 
L 72.348146 280.952393 
L 72.97486 283.138382 
L 73.601573 286.508073 
L 74.541643 293.231961 
L 75.79507 304.261989 
L 78.301923 329.21074 
L 80.808777 353.607432 
L 82.688917 369.962262 
L 84.569057 384.214216 
L 86.13584 394.451899 
L 87.702624 403.273958 
L 89.269407 410.797741 
L 90.836191 417.160492 
L 92.402974 422.504053 
L 93.969757 426.965581 
L 95.536541 430.672299 
L 97.103324 433.738882 
L 98.670107 436.266598 
L 100.236891 438.34353 
L 101.803674 440.045302 
L 103.370458 441.436268 
L 105.250598 442.770964 
L 107.130738 443.813193 
L 109.324235 444.741646 
L 111.517731 445.43346 
L 114.337941 446.068552 
L 117.471508 446.539278 
L 121.545145 446.913896 
L 127.185565 447.181378 
L 135.959552 447.33859 
L 155.07431 447.398275 
L 350.608877 447.402467 
L 692.167656 447.402463 
L 692.167656 447.402463 
" clip-path="url(#p11a1be8707)" style="fill: none; stroke: #77ac30; stroke-width: 2; stroke-linecap: square"/>
   </g>
   <g id="line2d_57">
    <path d="M 65.767656 447.402467 
L 692.167656 447.402467 
" clip-path="url(#p11a1be8707)" style="fill: none; stroke: #808080; stroke-width: 0.5; stroke-linecap: square"/>
   </g>
   <g id="patch_7">
    <path d="M 65.767656 455.76 
L 65.767656 263.536744 
" style="fill: none; stroke: #000000; stroke-width: 0.8; stroke-linejoin: miter; stroke-linecap: square"/>
   </g>
   <g id="patch_8">
    <path d="M 65.767656 455.76 
L 692.167656 455.76 
" style="fill: none; stroke: #000000; stroke-width: 0.8; stroke-linejoin: miter; stroke-linecap: square"/>
   </g>
   <g id="text_24">
    <!-- Observer estimation error -->
    <g transform="translate(292.645625 257.536744) scale(0.13 -0.13)">
     <use xlink:href="#DejaVuSerif-4f"/>
     <use xlink:href="#DejaVuSerif-62" transform="translate(81.982422 0)"/>
     <use xlink:href="#DejaVuSerif-73" transform="translate(145.996094 0)"/>
     <use xlink:href="#DejaVuSerif-65" transform="translate(197.314453 0)"/>
     <use xlink:href="#DejaVuSerif-72" transform="translate(256.494141 0)"/>
     <use xlink:href="#DejaVuSerif-76" transform="translate(304.296875 0)"/>
     <use xlink:href="#DejaVuSerif-65" transform="translate(360.791016 0)"/>
     <use xlink:href="#DejaVuSerif-72" transform="translate(419.970703 0)"/>
     <use xlink:href="#DejaVuSerif-20" transform="translate(467.773438 0)"/>
     <use xlink:href="#DejaVuSerif-65" transform="translate(499.560547 0)"/>
     <use xlink:href="#DejaVuSerif-73" transform="translate(558.740234 0)"/>
     <use xlink:href="#DejaVuSerif-74" transform="translate(610.058594 0)"/>
     <use xlink:href="#DejaVuSerif-69" transform="translate(650.244141 0)"/>
     <use xlink:href="#DejaVuSerif-6d" transform="translate(682.226562 0)"/>
     <use xlink:href="#DejaVuSerif-61" transform="translate(777.050781 0)"/>
     <use xlink:href="#DejaVuSerif-74" transform="translate(836.669922 0)"/>
     <use xlink:href="#DejaVuSerif-69" transform="translate(876.855469 0)"/>
     <use xlink:href="#DejaVuSerif-6f" transform="translate(908.837891 0)"/>
     <use xlink:href="#DejaVuSerif-6e" transform="translate(969.042969 0)"/>
     <use xlink:href="#DejaVuSerif-20" transform="translate(1033.447266 0)"/>
     <use xlink:href="#DejaVuSerif-65" transform="translate(1065.234375 0)"/>
     <use xlink:href="#DejaVuSerif-72" transform="translate(1124.414062 0)"/>
     <use xlink:href="#DejaVuSerif-72" transform="translate(1172.216797 0)"/>
     <use xlink:href="#DejaVuSerif-6f" transform="translate(1220.019531 0)"/>
     <use xlink:href="#DejaVuSerif-72" transform="translate(1280.224609 0)"/>
    </g>
   </g>
   <g id="legend_2">
    <g id="patch_9">
     <path d="M 552.167656 315.571119 
L 685.167656 315.571119 
Q 687.167656 315.571119 687.167656 313.571119 
L 687.167656 270.536744 
Q 687.167656 268.536744 685.167656 268.536744 
L 552.167656 268.536744 
Q 550.167656 268.536744 550.167656 270.536744 
L 550.167656 313.571119 
Q 550.167656 315.571119 552.167656 315.571119 
z
" style="fill: #ffffff; opacity: 0.95; stroke: #bfbfbf; stroke-linejoin: miter"/>
    </g>
    <g id="line2d_58">
     <path d="M 554.167656 276.635182 
L 564.167656 276.635182 
L 574.167656 276.635182 
" style="fill: none; stroke: #d95319; stroke-width: 2; stroke-linecap: square"/>
    </g>
    <g id="text_25">
     <!-- Slow ($-1,\;-1.5$) -->
     <g transform="translate(582.167656 280.135182) scale(0.1 -0.1)">
      <defs>
       <path id="DejaVuSerif-53" d="M 594 225 
L 594 1288 
L 953 1284 
Q 969 753 1261 498 
Q 1553 244 2150 244 
Q 2706 244 2998 464 
Q 3291 684 3291 1106 
Q 3291 1444 3114 1625 
Q 2938 1806 2369 1978 
L 1753 2163 
Q 1084 2366 811 2669 
Q 538 2972 538 3500 
Q 538 4094 959 4422 
Q 1381 4750 2144 4750 
Q 2469 4750 2856 4679 
Q 3244 4609 3681 4475 
L 3681 3481 
L 3328 3481 
Q 3275 3975 2998 4195 
Q 2722 4416 2156 4416 
Q 1663 4416 1405 4214 
Q 1147 4013 1147 3628 
Q 1147 3294 1340 3103 
Q 1534 2913 2163 2725 
L 2741 2553 
Q 3375 2363 3645 2067 
Q 3916 1772 3916 1275 
Q 3916 597 3481 253 
Q 3047 -91 2188 -91 
Q 1803 -91 1404 -12 
Q 1006 66 594 225 
z
" transform="scale(0.015625)"/>
      </defs>
      <use xlink:href="#DejaVuSerif-53" transform="translate(0 0.015625)"/>
      <use xlink:href="#DejaVuSerif-6c" transform="translate(68.505859 0.015625)"/>
      <use xlink:href="#DejaVuSerif-6f" transform="translate(100.488281 0.015625)"/>
      <use xlink:href="#DejaVuSerif-77" transform="translate(160.693359 0.015625)"/>
      <use xlink:href="#DejaVuSerif-20" transform="translate(246.289062 0.015625)"/>
      <use xlink:href="#DejaVuSerif-28" transform="translate(278.076172 0.015625)"/>
      <use xlink:href="#Cmsy10-a1" transform="translate(317.089844 0.015625)"/>
      <use xlink:href="#Cmr10-31" transform="translate(394.775391 0.015625)"/>
      <use xlink:href="#Cmmi10-3b" transform="translate(444.775391 0.015625)"/>
      <use xlink:href="#Cmsy10-a1" transform="translate(531.965256 0.015625)"/>
      <use xlink:href="#Cmr10-31" transform="translate(627.209396 0.015625)"/>
      <use xlink:href="#Cmmi10-3a" transform="translate(677.209396 0.015625)"/>
      <use xlink:href="#Cmr10-35" transform="translate(704.894943 0.015625)"/>
      <use xlink:href="#DejaVuSerif-29" transform="translate(754.894943 0.015625)"/>
     </g>
    </g>
    <g id="line2d_59">
     <path d="M 554.167656 291.313307 
L 564.167656 291.313307 
L 574.167656 291.313307 
" style="fill: none; stroke: #edb120; stroke-width: 2; stroke-linecap: square"/>
    </g>
    <g id="text_26">
     <!-- Borderline ($-3,\;-4$) -->
     <g transform="translate(582.167656 294.813307) scale(0.1 -0.1)">
      <defs>
       <path id="DejaVuSerif-42" d="M 1581 331 
L 2516 331 
Q 3078 331 3337 575 
Q 3597 819 3597 1350 
Q 3597 1878 3339 2120 
Q 3081 2363 2516 2363 
L 1581 2363 
L 1581 331 
z
M 1581 2694 
L 2375 2694 
Q 2888 2694 3123 2891 
Q 3359 3088 3359 3513 
Q 3359 3941 3123 4136 
Q 2888 4331 2375 4331 
L 1581 4331 
L 1581 2694 
z
M 353 0 
L 353 331 
L 947 331 
L 947 4331 
L 353 4331 
L 353 4666 
L 2656 4666 
Q 3363 4666 3720 4377 
Q 4078 4088 4078 3513 
Q 4078 3097 3829 2850 
Q 3581 2603 3103 2547 
Q 3697 2472 4005 2167 
Q 4313 1863 4313 1350 
Q 4313 656 3875 328 
Q 3438 0 2509 0 
L 353 0 
z
" transform="scale(0.015625)"/>
      </defs>
      <use xlink:href="#DejaVuSerif-42" transform="translate(0 0.015625)"/>
      <use xlink:href="#DejaVuSerif-6f" transform="translate(73.486328 0.015625)"/>
      <use xlink:href="#DejaVuSerif-72" transform="translate(133.691406 0.015625)"/>
      <use xlink:href="#DejaVuSerif-64" transform="translate(181.494141 0.015625)"/>
      <use xlink:href="#DejaVuSerif-65" transform="translate(245.507812 0.015625)"/>
      <use xlink:href="#DejaVuSerif-72" transform="translate(304.6875 0.015625)"/>
      <use xlink:href="#DejaVuSerif-6c" transform="translate(352.490234 0.015625)"/>
      <use xlink:href="#DejaVuSerif-69" transform="translate(384.472656 0.015625)"/>
      <use xlink:href="#DejaVuSerif-6e" transform="translate(416.455078 0.015625)"/>
      <use xlink:href="#DejaVuSerif-65" transform="translate(480.859375 0.015625)"/>
      <use xlink:href="#DejaVuSerif-20" transform="translate(540.039062 0.015625)"/>
      <use xlink:href="#DejaVuSerif-28" transform="translate(571.826172 0.015625)"/>
      <use xlink:href="#Cmsy10-a1" transform="translate(610.839844 0.015625)"/>
      <use xlink:href="#Cmr10-33" transform="translate(688.525391 0.015625)"/>
      <use xlink:href="#Cmmi10-3b" transform="translate(738.525391 0.015625)"/>
      <use xlink:href="#Cmsy10-a1" transform="translate(825.715256 0.015625)"/>
      <use xlink:href="#Cmr10-34" transform="translate(920.959396 0.015625)"/>
      <use xlink:href="#DejaVuSerif-29" transform="translate(970.959396 0.015625)"/>
     </g>
    </g>
    <g id="line2d_60">
     <path d="M 554.167656 305.991432 
L 564.167656 305.991432 
L 574.167656 305.991432 
" style="fill: none; stroke: #77ac30; stroke-width: 2; stroke-linecap: square"/>
    </g>
    <g id="text_27">
     <!-- Fast ($-15,\;-20$) -->
     <g transform="translate(582.167656 309.491432) scale(0.1 -0.1)">
      <defs>
       <path id="DejaVuSerif-46" d="M 353 0 
L 353 331 
L 947 331 
L 947 4331 
L 353 4331 
L 353 4666 
L 4172 4666 
L 4172 3628 
L 3788 3628 
L 3788 4281 
L 1581 4281 
L 1581 2719 
L 3175 2719 
L 3175 3303 
L 3559 3303 
L 3559 1753 
L 3175 1753 
L 3175 2338 
L 1581 2338 
L 1581 331 
L 2328 331 
L 2328 0 
L 353 0 
z
" transform="scale(0.015625)"/>
      </defs>
      <use xlink:href="#DejaVuSerif-46" transform="translate(0 0.015625)"/>
      <use xlink:href="#DejaVuSerif-61" transform="translate(69.384766 0.015625)"/>
      <use xlink:href="#DejaVuSerif-73" transform="translate(129.003906 0.015625)"/>
      <use xlink:href="#DejaVuSerif-74" transform="translate(180.322266 0.015625)"/>
      <use xlink:href="#DejaVuSerif-20" transform="translate(220.507812 0.015625)"/>
      <use xlink:href="#DejaVuSerif-28" transform="translate(252.294922 0.015625)"/>
      <use xlink:href="#Cmsy10-a1" transform="translate(291.308594 0.015625)"/>
      <use xlink:href="#Cmr10-31" transform="translate(368.994141 0.015625)"/>
      <use xlink:href="#Cmr10-35" transform="translate(418.994141 0.015625)"/>
      <use xlink:href="#Cmmi10-3b" transform="translate(468.994141 0.015625)"/>
      <use xlink:href="#Cmsy10-a1" transform="translate(556.184006 0.015625)"/>
      <use xlink:href="#Cmr10-32" transform="translate(651.428146 0.015625)"/>
      <use xlink:href="#Cmr10-30" transform="translate(701.428146 0.015625)"/>
      <use xlink:href="#DejaVuSerif-29" transform="translate(751.428146 0.015625)"/>
     </g>
    </g>
   </g>
  </g>
  <g id="text_28">
   <!-- Separation principle: observer speed vs. closed-loop performance -->
   <g transform="translate(96.721094 17.837812) scale(0.14 -0.14)">
    <defs>
     <path id="DejaVuSerif-Bold-53" d="M 494 225 
L 494 1331 
L 891 1331 
Q 981 806 1318 547 
Q 1656 288 2253 288 
Q 2738 288 2991 472 
Q 3244 656 3244 1013 
Q 3244 1294 3072 1450 
Q 2900 1606 2363 1741 
L 1663 1913 
Q 978 2088 700 2398 
Q 422 2709 422 3284 
Q 422 3978 883 4364 
Q 1344 4750 2175 4750 
Q 2584 4750 3026 4681 
Q 3469 4613 3944 4475 
L 3944 3444 
L 3547 3444 
Q 3456 3925 3150 4148 
Q 2844 4372 2278 4372 
Q 1816 4372 1580 4211 
Q 1344 4050 1344 3731 
Q 1344 3441 1506 3289 
Q 1669 3138 2303 2975 
L 3003 2803 
Q 3653 2641 3945 2297 
Q 4238 1953 4238 1350 
Q 4238 644 3750 276 
Q 3263 -91 2316 -91 
Q 1859 -91 1409 -12 
Q 959 66 494 225 
z
" transform="scale(0.015625)"/>
     <path id="DejaVuSerif-Bold-65" d="M 2566 1875 
Q 2566 2531 2444 2795 
Q 2322 3059 2028 3059 
Q 1744 3059 1620 2800 
Q 1497 2541 1497 1931 
L 1497 1875 
L 2566 1875 
z
M 3781 1503 
L 1497 1503 
L 1497 1478 
Q 1497 834 1690 548 
Q 1884 263 2316 263 
Q 2675 263 2897 453 
Q 3119 644 3181 1006 
L 3700 1006 
Q 3566 441 3166 175 
Q 2766 -91 2047 -91 
Q 1184 -91 723 364 
Q 263 819 263 1663 
Q 263 2488 734 2950 
Q 1206 3413 2047 3413 
Q 2872 3413 3312 2927 
Q 3753 2441 3781 1503 
z
" transform="scale(0.015625)"/>
     <path id="DejaVuSerif-Bold-70" d="M 1728 1825 
L 1728 1497 
Q 1728 916 1876 656 
Q 2025 397 2356 397 
Q 2697 397 2836 672 
Q 2975 947 2975 1663 
Q 2975 2378 2836 2651 
Q 2697 2925 2356 2925 
Q 2025 2925 1876 2665 
Q 1728 2406 1728 1825 
z
M 622 2944 
L 147 2944 
L 147 3322 
L 1728 3322 
L 1728 2900 
Q 1869 3159 2106 3286 
Q 2344 3413 2694 3413 
Q 3403 3413 3811 2945 
Q 4219 2478 4219 1663 
Q 4219 847 3811 378 
Q 3403 -91 2694 -91 
Q 2344 -91 2106 36 
Q 1869 163 1728 422 
L 1728 -953 
L 2241 -953 
L 2241 -1331 
L 147 -1331 
L 147 -953 
L 622 -953 
L 622 2944 
z
" transform="scale(0.015625)"/>
     <path id="DejaVuSerif-Bold-61" d="M 3525 2041 
L 3525 378 
L 4000 378 
L 4000 0 
L 2419 0 
L 2419 422 
Q 2200 159 1931 34 
Q 1663 -91 1319 -91 
Q 809 -91 536 182 
Q 263 456 263 966 
Q 263 1525 655 1803 
Q 1047 2081 1838 2081 
L 2419 2081 
L 2419 2278 
Q 2419 2681 2228 2873 
Q 2038 3066 1638 3066 
Q 1306 3066 1126 2930 
Q 947 2794 872 2484 
L 519 2484 
L 519 3200 
Q 816 3306 1134 3359 
Q 1453 3413 1806 3413 
Q 2697 3413 3111 3081 
Q 3525 2750 3525 2041 
z
M 2419 1044 
L 2419 1709 
L 2003 1709 
Q 1694 1709 1528 1540 
Q 1363 1372 1363 1056 
Q 1363 741 1483 584 
Q 1603 428 1850 428 
Q 2106 428 2262 597 
Q 2419 766 2419 1044 
z
" transform="scale(0.015625)"/>
     <path id="DejaVuSerif-Bold-72" d="M 3438 3359 
L 3438 2369 
L 3084 2369 
Q 3066 2634 2941 2764 
Q 2816 2894 2578 2894 
Q 2216 2894 2006 2575 
Q 1797 2256 1797 1691 
L 1797 378 
L 2400 378 
L 2400 0 
L 219 0 
L 219 378 
L 691 378 
L 691 2944 
L 184 2944 
L 184 3322 
L 1797 3322 
L 1797 2731 
Q 1959 3078 2226 3245 
Q 2494 3413 2881 3413 
Q 2978 3413 3117 3398 
Q 3256 3384 3438 3359 
z
" transform="scale(0.015625)"/>
     <path id="DejaVuSerif-Bold-74" d="M 634 2944 
L 153 2944 
L 153 3322 
L 634 3322 
L 634 4353 
L 1741 4353 
L 1741 3322 
L 2663 3322 
L 2663 2944 
L 1741 2944 
L 1741 909 
Q 1741 475 1809 369 
Q 1878 263 2059 263 
Q 2259 263 2356 397 
Q 2453 531 2459 813 
L 2925 813 
Q 2897 313 2651 111 
Q 2406 -91 1806 -91 
Q 1122 -91 878 123 
Q 634 338 634 909 
L 634 2944 
z
" transform="scale(0.015625)"/>
     <path id="DejaVuSerif-Bold-69" d="M 588 4263 
Q 588 4516 763 4689 
Q 938 4863 1191 4863 
Q 1438 4863 1611 4689 
Q 1784 4516 1784 4263 
Q 1784 4016 1611 3842 
Q 1438 3669 1191 3669 
Q 938 3669 763 3841 
Q 588 4013 588 4263 
z
M 1797 378 
L 2272 378 
L 2272 0 
L 219 0 
L 219 378 
L 691 378 
L 691 2944 
L 219 2944 
L 219 3322 
L 1797 3322 
L 1797 378 
z
" transform="scale(0.015625)"/>
     <path id="DejaVuSerif-Bold-6f" d="M 2138 263 
Q 2488 263 2630 563 
Q 2772 863 2772 1663 
Q 2772 2463 2631 2761 
Q 2491 3059 2138 3059 
Q 1784 3059 1640 2757 
Q 1497 2456 1497 1663 
Q 1497 869 1640 566 
Q 1784 263 2138 263 
z
M 2138 -91 
Q 1259 -91 761 376 
Q 263 844 263 1663 
Q 263 2484 761 2948 
Q 1259 3413 2138 3413 
Q 3019 3413 3516 2948 
Q 4013 2484 4013 1663 
Q 4013 844 3514 376 
Q 3016 -91 2138 -91 
z
" transform="scale(0.015625)"/>
     <path id="DejaVuSerif-Bold-6e" d="M 219 0 
L 219 378 
L 691 378 
L 691 2944 
L 219 2944 
L 219 3322 
L 1797 3322 
L 1797 2853 
Q 1997 3150 2253 3281 
Q 2509 3413 2900 3413 
Q 3459 3413 3745 3083 
Q 4031 2753 4031 2113 
L 4031 378 
L 4506 378 
L 4506 0 
L 2522 0 
L 2522 378 
L 2925 378 
L 2925 2144 
Q 2925 2566 2817 2730 
Q 2709 2894 2444 2894 
Q 2109 2894 1953 2648 
Q 1797 2403 1797 1869 
L 1797 378 
L 2203 378 
L 2203 0 
L 219 0 
z
" transform="scale(0.015625)"/>
     <path id="DejaVuSerif-Bold-20" transform="scale(0.015625)"/>
     <path id="DejaVuSerif-Bold-63" d="M 3609 1038 
Q 3491 469 3123 189 
Q 2756 -91 2125 -91 
Q 1238 -91 750 368 
Q 263 828 263 1663 
Q 263 2488 744 2950 
Q 1225 3413 2081 3413 
Q 2428 3413 2781 3347 
Q 3134 3281 3500 3150 
L 3500 2228 
L 3150 2228 
Q 3100 2650 2903 2854 
Q 2706 3059 2350 3059 
Q 1888 3059 1692 2746 
Q 1497 2434 1497 1663 
Q 1497 909 1687 586 
Q 1878 263 2309 263 
Q 2644 263 2845 463 
Q 3047 663 3091 1038 
L 3609 1038 
z
" transform="scale(0.015625)"/>
     <path id="DejaVuSerif-Bold-6c" d="M 1797 378 
L 2272 378 
L 2272 0 
L 219 0 
L 219 378 
L 691 378 
L 691 4488 
L 219 4488 
L 219 4863 
L 1797 4863 
L 1797 378 
z
" transform="scale(0.015625)"/>
     <path id="DejaVuSerif-Bold-3a" d="M 588 2541 
Q 588 2788 761 2963 
Q 934 3138 1178 3138 
Q 1422 3138 1597 2961 
Q 1772 2784 1772 2541 
Q 1772 2297 1598 2125 
Q 1425 1953 1178 1953 
Q 931 1953 759 2125 
Q 588 2297 588 2541 
z
M 588 506 
Q 588 750 761 925 
Q 934 1100 1178 1100 
Q 1422 1100 1597 925 
Q 1772 750 1772 506 
Q 1772 259 1597 84 
Q 1422 -91 1178 -91 
Q 934 -91 761 84 
Q 588 259 588 506 
z
" transform="scale(0.015625)"/>
     <path id="DejaVuSerif-Bold-62" d="M 622 378 
L 622 4488 
L 147 4488 
L 147 4863 
L 1728 4863 
L 1728 2900 
Q 1869 3159 2106 3286 
Q 2344 3413 2694 3413 
Q 3403 3413 3811 2945 
Q 4219 2478 4219 1663 
Q 4219 847 3811 378 
Q 3403 -91 2694 -91 
Q 2344 -91 2106 36 
Q 1869 163 1728 422 
L 1728 0 
L 147 0 
L 147 378 
L 622 378 
z
M 1728 1497 
Q 1728 916 1876 656 
Q 2025 397 2356 397 
Q 2697 397 2836 672 
Q 2975 947 2975 1663 
Q 2975 2378 2836 2651 
Q 2697 2925 2356 2925 
Q 2025 2925 1876 2665 
Q 1728 2406 1728 1825 
L 1728 1497 
z
" transform="scale(0.015625)"/>
     <path id="DejaVuSerif-Bold-73" d="M 300 97 
L 300 1025 
L 653 1025 
Q 697 653 931 458 
Q 1166 263 1569 263 
Q 1906 263 2086 380 
Q 2266 497 2266 716 
Q 2266 916 2152 1025 
Q 2038 1134 1709 1216 
L 1253 1331 
Q 738 1459 506 1698 
Q 275 1938 275 2344 
Q 275 2884 650 3148 
Q 1025 3413 1806 3413 
Q 2100 3413 2433 3364 
Q 2766 3316 3169 3213 
L 3169 2375 
L 2816 2375 
Q 2788 2716 2573 2887 
Q 2359 3059 1959 3059 
Q 1622 3059 1448 2951 
Q 1275 2844 1275 2638 
Q 1275 2469 1375 2372 
Q 1475 2275 1734 2209 
L 2188 2094 
Q 2841 1928 3091 1684 
Q 3341 1441 3341 1006 
Q 3341 444 2939 176 
Q 2538 -91 1691 -91 
Q 1381 -91 1034 -44 
Q 688 3 300 97 
z
" transform="scale(0.015625)"/>
     <path id="DejaVuSerif-Bold-76" d="M 1428 0 
L 250 2944 
L -116 2944 
L -116 3322 
L 1791 3322 
L 1791 2944 
L 1388 2944 
L 2228 844 
L 3066 2944 
L 2631 2944 
L 2631 3322 
L 3878 3322 
L 3878 2944 
L 3494 2944 
L 2316 0 
L 1428 0 
z
" transform="scale(0.015625)"/>
     <path id="DejaVuSerif-Bold-64" d="M 2747 1497 
L 2747 1825 
Q 2747 2406 2597 2665 
Q 2447 2925 2119 2925 
Q 1775 2925 1636 2651 
Q 1497 2378 1497 1663 
Q 1497 947 1637 672 
Q 1778 397 2119 397 
Q 2447 397 2597 656 
Q 2747 916 2747 1497 
z
M 3853 378 
L 4325 378 
L 4325 0 
L 2747 0 
L 2747 422 
Q 2606 163 2367 36 
Q 2128 -91 1778 -91 
Q 1072 -91 667 378 
Q 263 847 263 1663 
Q 263 2481 667 2947 
Q 1072 3413 1778 3413 
Q 2128 3413 2367 3286 
Q 2606 3159 2747 2900 
L 2747 4488 
L 2272 4488 
L 2272 4863 
L 3853 4863 
L 3853 378 
z
" transform="scale(0.015625)"/>
     <path id="DejaVuSerif-Bold-2e" d="M 519 506 
Q 519 750 694 925 
Q 869 1100 1113 1100 
Q 1359 1100 1534 925 
Q 1709 750 1709 506 
Q 1709 259 1534 84 
Q 1359 -91 1113 -91 
Q 869 -91 694 84 
Q 519 259 519 506 
z
" transform="scale(0.015625)"/>
     <path id="DejaVuSerif-Bold-2d" d="M 347 2138 
L 2309 2138 
L 2309 1294 
L 347 1294 
L 347 2138 
z
" transform="scale(0.015625)"/>
     <path id="DejaVuSerif-Bold-66" d="M 3097 4031 
L 2747 4031 
Q 2722 4275 2605 4394 
Q 2488 4513 2272 4513 
Q 2022 4513 1909 4333 
Q 1797 4153 1797 3750 
L 1797 3322 
L 2631 3322 
L 2631 2944 
L 1797 2944 
L 1797 378 
L 2438 378 
L 2438 0 
L 219 0 
L 219 378 
L 691 378 
L 691 2944 
L 197 2944 
L 197 3322 
L 691 3322 
L 691 3738 
Q 691 4291 1044 4577 
Q 1397 4863 2081 4863 
Q 2347 4863 2600 4833 
Q 2853 4803 3097 4744 
L 3097 4031 
z
" transform="scale(0.015625)"/>
     <path id="DejaVuSerif-Bold-6d" d="M 3884 2778 
Q 4116 3109 4384 3261 
Q 4653 3413 5013 3413 
Q 5584 3413 5867 3089 
Q 6150 2766 6150 2113 
L 6150 378 
L 6625 378 
L 6625 0 
L 4647 0 
L 4647 378 
L 5044 378 
L 5044 1947 
Q 5044 2569 4948 2731 
Q 4853 2894 4594 2894 
Q 4300 2894 4137 2667 
Q 3975 2441 3975 2022 
L 3975 378 
L 4372 378 
L 4372 0 
L 2472 0 
L 2472 378 
L 2869 378 
L 2869 1947 
Q 2869 2569 2772 2731 
Q 2675 2894 2419 2894 
Q 2122 2894 1959 2667 
Q 1797 2441 1797 2022 
L 1797 378 
L 2194 378 
L 2194 0 
L 219 0 
L 219 378 
L 691 378 
L 691 2944 
L 219 2944 
L 219 3322 
L 1797 3322 
L 1797 2853 
Q 1991 3144 2241 3278 
Q 2491 3413 2834 3413 
Q 3241 3413 3494 3258 
Q 3747 3103 3884 2778 
z
" transform="scale(0.015625)"/>
    </defs>
    <use xlink:href="#DejaVuSerif-Bold-53"/>
    <use xlink:href="#DejaVuSerif-Bold-65" transform="translate(72.216797 0)"/>
    <use xlink:href="#DejaVuSerif-Bold-70" transform="translate(135.839844 0)"/>
    <use xlink:href="#DejaVuSerif-Bold-61" transform="translate(205.761719 0)"/>
    <use xlink:href="#DejaVuSerif-Bold-72" transform="translate(270.556641 0)"/>
    <use xlink:href="#DejaVuSerif-Bold-61" transform="translate(323.242188 0)"/>
    <use xlink:href="#DejaVuSerif-Bold-74" transform="translate(388.037109 0)"/>
    <use xlink:href="#DejaVuSerif-Bold-69" transform="translate(434.228516 0)"/>
    <use xlink:href="#DejaVuSerif-Bold-6f" transform="translate(472.216797 0)"/>
    <use xlink:href="#DejaVuSerif-Bold-6e" transform="translate(538.916016 0)"/>
    <use xlink:href="#DejaVuSerif-Bold-20" transform="translate(611.621094 0)"/>
    <use xlink:href="#DejaVuSerif-Bold-70" transform="translate(646.435547 0)"/>
    <use xlink:href="#DejaVuSerif-Bold-72" transform="translate(716.357422 0)"/>
    <use xlink:href="#DejaVuSerif-Bold-69" transform="translate(769.042969 0)"/>
    <use xlink:href="#DejaVuSerif-Bold-6e" transform="translate(807.03125 0)"/>
    <use xlink:href="#DejaVuSerif-Bold-63" transform="translate(879.736328 0)"/>
    <use xlink:href="#DejaVuSerif-Bold-69" transform="translate(940.625 0)"/>
    <use xlink:href="#DejaVuSerif-Bold-70" transform="translate(978.613281 0)"/>
    <use xlink:href="#DejaVuSerif-Bold-6c" transform="translate(1048.535156 0)"/>
    <use xlink:href="#DejaVuSerif-Bold-65" transform="translate(1086.523438 0)"/>
    <use xlink:href="#DejaVuSerif-Bold-3a" transform="translate(1150.146484 0)"/>
    <use xlink:href="#DejaVuSerif-Bold-20" transform="translate(1187.060547 0)"/>
    <use xlink:href="#DejaVuSerif-Bold-6f" transform="translate(1221.875 0)"/>
    <use xlink:href="#DejaVuSerif-Bold-62" transform="translate(1288.574219 0)"/>
    <use xlink:href="#DejaVuSerif-Bold-73" transform="translate(1358.496094 0)"/>
    <use xlink:href="#DejaVuSerif-Bold-65" transform="translate(1414.794922 0)"/>
    <use xlink:href="#DejaVuSerif-Bold-72" transform="translate(1478.417969 0)"/>
    <use xlink:href="#DejaVuSerif-Bold-76" transform="translate(1531.103516 0)"/>
    <use xlink:href="#DejaVuSerif-Bold-65" transform="translate(1589.208984 0)"/>
    <use xlink:href="#DejaVuSerif-Bold-72" transform="translate(1652.832031 0)"/>
    <use xlink:href="#DejaVuSerif-Bold-20" transform="translate(1705.517578 0)"/>
    <use xlink:href="#DejaVuSerif-Bold-73" transform="translate(1740.332031 0)"/>
    <use xlink:href="#DejaVuSerif-Bold-70" transform="translate(1796.630859 0)"/>
    <use xlink:href="#DejaVuSerif-Bold-65" transform="translate(1866.552734 0)"/>
    <use xlink:href="#DejaVuSerif-Bold-65" transform="translate(1930.175781 0)"/>
    <use xlink:href="#DejaVuSerif-Bold-64" transform="translate(1993.798828 0)"/>
    <use xlink:href="#DejaVuSerif-Bold-20" transform="translate(2063.720703 0)"/>
    <use xlink:href="#DejaVuSerif-Bold-76" transform="translate(2098.535156 0)"/>
    <use xlink:href="#DejaVuSerif-Bold-73" transform="translate(2156.640625 0)"/>
    <use xlink:href="#DejaVuSerif-Bold-2e" transform="translate(2212.939453 0)"/>
    <use xlink:href="#DejaVuSerif-Bold-20" transform="translate(2247.753906 0)"/>
    <use xlink:href="#DejaVuSerif-Bold-63" transform="translate(2282.568359 0)"/>
    <use xlink:href="#DejaVuSerif-Bold-6c" transform="translate(2343.457031 0)"/>
    <use xlink:href="#DejaVuSerif-Bold-6f" transform="translate(2381.445312 0)"/>
    <use xlink:href="#DejaVuSerif-Bold-73" transform="translate(2448.144531 0)"/>
    <use xlink:href="#DejaVuSerif-Bold-65" transform="translate(2504.443359 0)"/>
    <use xlink:href="#DejaVuSerif-Bold-64" transform="translate(2568.066406 0)"/>
    <use xlink:href="#DejaVuSerif-Bold-2d" transform="translate(2637.988281 0)"/>
    <use xlink:href="#DejaVuSerif-Bold-6c" transform="translate(2679.492188 0)"/>
    <use xlink:href="#DejaVuSerif-Bold-6f" transform="translate(2717.480469 0)"/>
    <use xlink:href="#DejaVuSerif-Bold-6f" transform="translate(2784.179688 0)"/>
    <use xlink:href="#DejaVuSerif-Bold-70" transform="translate(2850.878906 0)"/>
    <use xlink:href="#DejaVuSerif-Bold-20" transform="translate(2920.800781 0)"/>
    <use xlink:href="#DejaVuSerif-Bold-70" transform="translate(2955.615234 0)"/>
    <use xlink:href="#DejaVuSerif-Bold-65" transform="translate(3025.537109 0)"/>
    <use xlink:href="#DejaVuSerif-Bold-72" transform="translate(3089.160156 0)"/>
    <use xlink:href="#DejaVuSerif-Bold-66" transform="translate(3141.845703 0)"/>
    <use xlink:href="#DejaVuSerif-Bold-6f" transform="translate(3184.863281 0)"/>
    <use xlink:href="#DejaVuSerif-Bold-72" transform="translate(3251.5625 0)"/>
    <use xlink:href="#DejaVuSerif-Bold-6d" transform="translate(3304.248047 0)"/>
    <use xlink:href="#DejaVuSerif-Bold-61" transform="translate(3410.058594 0)"/>
    <use xlink:href="#DejaVuSerif-Bold-6e" transform="translate(3474.853516 0)"/>
    <use xlink:href="#DejaVuSerif-Bold-63" transform="translate(3547.558594 0)"/>
    <use xlink:href="#DejaVuSerif-Bold-65" transform="translate(3608.447266 0)"/>
   </g>
  </g>
 </g>
 <defs>
  <clipPath id="p8134b1c66e">
   <rect x="65.767656" y="42.48" width="626.4" height="192.223256"/>
  </clipPath>
  <clipPath id="p11a1be8707">
   <rect x="65.767656" y="263.536744" width="626.4" height="192.223256"/>
  </clipPath>
 </defs>
</svg>
